G04 #@! TF.GenerationSoftware,KiCad,Pcbnew,(5.1.7)-1*
G04 #@! TF.CreationDate,2022-01-29T11:48:53-05:00*
G04 #@! TF.ProjectId,REV2_SPRING_2022,52455632-5f53-4505-9249-4e475f323032,rev?*
G04 #@! TF.SameCoordinates,Original*
G04 #@! TF.FileFunction,Soldermask,Bot*
G04 #@! TF.FilePolarity,Negative*
%FSLAX46Y46*%
G04 Gerber Fmt 4.6, Leading zero omitted, Abs format (unit mm)*
G04 Created by KiCad (PCBNEW (5.1.7)-1) date 2022-01-29 11:48:53*
%MOMM*%
%LPD*%
G01*
G04 APERTURE LIST*
%ADD10C,1.600000*%
%ADD11R,1.600000X1.600000*%
%ADD12R,3.000000X3.000000*%
%ADD13C,3.000000*%
%ADD14R,2.000000X2.000000*%
%ADD15C,2.000000*%
%ADD16C,2.750000*%
%ADD17C,3.200000*%
%ADD18C,2.600000*%
G04 APERTURE END LIST*
D10*
X124395000Y-153910000D03*
X124395000Y-151370000D03*
X124395000Y-148830000D03*
X124395000Y-146290000D03*
X124395000Y-143750000D03*
X124395000Y-141210000D03*
X124395000Y-138670000D03*
X124395000Y-136130000D03*
X124395000Y-133590000D03*
X124935000Y-95590000D03*
X124935000Y-98130000D03*
X124935000Y-100670000D03*
X124935000Y-103210000D03*
X124935000Y-105750000D03*
X124935000Y-108290000D03*
X124935000Y-110830000D03*
X124935000Y-113370000D03*
X124935000Y-115910000D03*
X150335000Y-105750000D03*
X150335000Y-103210000D03*
X150335000Y-100670000D03*
X150335000Y-98130000D03*
X150335000Y-95590000D03*
X97185000Y-134879000D03*
X94645000Y-134879000D03*
X92105000Y-134879000D03*
X89565000Y-134879000D03*
X87025000Y-134879000D03*
X84485000Y-134879000D03*
X81945000Y-134879000D03*
X79405000Y-121417000D03*
X81945000Y-121417000D03*
X84485000Y-121417000D03*
X87025000Y-121417000D03*
X89565000Y-121417000D03*
X92105000Y-121417000D03*
X81945000Y-103637000D03*
X84485000Y-103637000D03*
X87025000Y-103637000D03*
X89565000Y-103637000D03*
X117505000Y-108209000D03*
X117505000Y-105669000D03*
X117505000Y-103129000D03*
X117505000Y-100589000D03*
X117505000Y-110749000D03*
X117505000Y-113289000D03*
X117505000Y-115829000D03*
X117505000Y-98049000D03*
X117505000Y-95509000D03*
X117505000Y-92969000D03*
X117505000Y-90429000D03*
X114965000Y-103129000D03*
X112425000Y-103129000D03*
X109885000Y-103129000D03*
X107345000Y-103129000D03*
X104805000Y-103129000D03*
X102265000Y-90429000D03*
X102265000Y-92969000D03*
X102265000Y-95509000D03*
X102265000Y-98049000D03*
X102265000Y-100589000D03*
X102265000Y-103129000D03*
X102265000Y-105669000D03*
X102265000Y-108209000D03*
X117505000Y-118369000D03*
X117505000Y-120909000D03*
X117505000Y-123449000D03*
X117505000Y-125989000D03*
X117505000Y-128529000D03*
X117505000Y-131069000D03*
X117505000Y-133609000D03*
X117505000Y-136149000D03*
X117505000Y-138689000D03*
X117505000Y-141229000D03*
X117505000Y-143769000D03*
X117505000Y-146309000D03*
D11*
X117505000Y-148849000D03*
D10*
X102265000Y-110749000D03*
X102265000Y-113289000D03*
X102265000Y-115829000D03*
X102265000Y-118369000D03*
X102265000Y-120909000D03*
X102265000Y-123449000D03*
X102265000Y-125989000D03*
X102265000Y-128529000D03*
X102265000Y-131069000D03*
X102265000Y-133609000D03*
X102265000Y-136149000D03*
X102265000Y-138689000D03*
X102265000Y-141229000D03*
X102265000Y-143769000D03*
X102265000Y-146309000D03*
X102265000Y-148849000D03*
X104805000Y-146309000D03*
X104805000Y-141229000D03*
X104805000Y-138689000D03*
X104805000Y-136149000D03*
X114505000Y-142499000D03*
X114505000Y-139959000D03*
X114505000Y-137419000D03*
X114505000Y-134879000D03*
X114505000Y-132339000D03*
X107345000Y-100589000D03*
X107345000Y-98049000D03*
X107345000Y-95509000D03*
X107345000Y-92969000D03*
X109885000Y-92969000D03*
X109885000Y-95509000D03*
X109885000Y-98049000D03*
X109885000Y-100589000D03*
X107345000Y-90429000D03*
X109885000Y-90429000D03*
X107345000Y-105669000D03*
X109885000Y-105669000D03*
X107345000Y-108209000D03*
X109885000Y-108209000D03*
X107345000Y-110749000D03*
X109885000Y-110749000D03*
X109885000Y-131069000D03*
X109885000Y-133609000D03*
X109885000Y-128529000D03*
X109885000Y-125989000D03*
X107345000Y-125989000D03*
X107345000Y-128529000D03*
X107345000Y-131069000D03*
X107345000Y-133609000D03*
X110895000Y-147579000D03*
X108875000Y-147579000D03*
D12*
X146000000Y-24200000D03*
D13*
X140920000Y-24200000D03*
D14*
X148540000Y-76750000D03*
D15*
X146000000Y-76750000D03*
X143460000Y-76750000D03*
D12*
X125750000Y-24250000D03*
D13*
X120670000Y-24250000D03*
D14*
X128500000Y-76750000D03*
D15*
X125960000Y-76750000D03*
X123420000Y-76750000D03*
G36*
G01*
X100375000Y-65124998D02*
X100375000Y-67375002D01*
G75*
G02*
X100125002Y-67625000I-249998J0D01*
G01*
X97874998Y-67625000D01*
G75*
G02*
X97625000Y-67375002I0J249998D01*
G01*
X97625000Y-65124998D01*
G75*
G02*
X97874998Y-64875000I249998J0D01*
G01*
X100125002Y-64875000D01*
G75*
G02*
X100375000Y-65124998I0J-249998D01*
G01*
G37*
D16*
X93600000Y-66250000D03*
D17*
X99000000Y-50050000D03*
X99000000Y-33850000D03*
X93600000Y-50050000D03*
X93600000Y-33850000D03*
D12*
X99000000Y-24300000D03*
D13*
X93920000Y-24300000D03*
D17*
X73600000Y-33850000D03*
X73600000Y-50050000D03*
X79000000Y-33850000D03*
X79000000Y-50050000D03*
D16*
X73600000Y-66250000D03*
G36*
G01*
X80375000Y-65124998D02*
X80375000Y-67375002D01*
G75*
G02*
X80125002Y-67625000I-249998J0D01*
G01*
X77874998Y-67625000D01*
G75*
G02*
X77625000Y-67375002I0J249998D01*
G01*
X77625000Y-65124998D01*
G75*
G02*
X77874998Y-64875000I249998J0D01*
G01*
X80125002Y-64875000D01*
G75*
G02*
X80375000Y-65124998I0J-249998D01*
G01*
G37*
D13*
X73920000Y-24300000D03*
D12*
X79000000Y-24300000D03*
D17*
X140600000Y-33850000D03*
X140600000Y-50050000D03*
X146000000Y-33850000D03*
X146000000Y-50050000D03*
D16*
X140600000Y-66250000D03*
G36*
G01*
X147375000Y-65124998D02*
X147375000Y-67375002D01*
G75*
G02*
X147125002Y-67625000I-249998J0D01*
G01*
X144874998Y-67625000D01*
G75*
G02*
X144625000Y-67375002I0J249998D01*
G01*
X144625000Y-65124998D01*
G75*
G02*
X144874998Y-64875000I249998J0D01*
G01*
X147125002Y-64875000D01*
G75*
G02*
X147375000Y-65124998I0J-249998D01*
G01*
G37*
D17*
X120600000Y-33850000D03*
X120600000Y-50050000D03*
X126000000Y-33850000D03*
X126000000Y-50050000D03*
D16*
X120600000Y-66250000D03*
G36*
G01*
X127375000Y-65124998D02*
X127375000Y-67375002D01*
G75*
G02*
X127125002Y-67625000I-249998J0D01*
G01*
X124874998Y-67625000D01*
G75*
G02*
X124625000Y-67375002I0J249998D01*
G01*
X124625000Y-65124998D01*
G75*
G02*
X124874998Y-64875000I249998J0D01*
G01*
X127125002Y-64875000D01*
G75*
G02*
X127375000Y-65124998I0J-249998D01*
G01*
G37*
D18*
X78500000Y-77600000D03*
X78500000Y-92350000D03*
M02*
