G04 #@! TF.GenerationSoftware,KiCad,Pcbnew,(5.1.7)-1*
G04 #@! TF.CreationDate,2022-01-29T11:48:53-05:00*
G04 #@! TF.ProjectId,REV2_SPRING_2022,52455632-5f53-4505-9249-4e475f323032,rev?*
G04 #@! TF.SameCoordinates,Original*
G04 #@! TF.FileFunction,Legend,Bot*
G04 #@! TF.FilePolarity,Positive*
%FSLAX46Y46*%
G04 Gerber Fmt 4.6, Leading zero omitted, Abs format (unit mm)*
G04 Created by KiCad (PCBNEW (5.1.7)-1) date 2022-01-29 11:48:53*
%MOMM*%
%LPD*%
G01*
G04 APERTURE LIST*
%ADD10C,0.300000*%
%ADD11C,0.508000*%
%ADD12C,0.304800*%
%ADD13C,0.010000*%
%ADD14C,0.120000*%
G04 APERTURE END LIST*
D10*
X125285714Y-57403571D02*
X125285714Y-55903571D01*
X124785714Y-56975000D01*
X124285714Y-55903571D01*
X124285714Y-57403571D01*
X123642857Y-56975000D02*
X122928571Y-56975000D01*
X123785714Y-57403571D02*
X123285714Y-55903571D01*
X122785714Y-57403571D01*
X122285714Y-57403571D02*
X122285714Y-55903571D01*
X121571428Y-57403571D02*
X121571428Y-55903571D01*
X120714285Y-57403571D01*
X120714285Y-55903571D01*
X126928571Y-59167857D02*
X126428571Y-59167857D01*
X126214285Y-59953571D02*
X126928571Y-59953571D01*
X126928571Y-58453571D01*
X126214285Y-58453571D01*
X125571428Y-59953571D02*
X125571428Y-58453571D01*
X125071428Y-59525000D01*
X124571428Y-58453571D01*
X124571428Y-59953571D01*
X123928571Y-59525000D02*
X123214285Y-59525000D01*
X124071428Y-59953571D02*
X123571428Y-58453571D01*
X123071428Y-59953571D01*
X122785714Y-58453571D02*
X121928571Y-58453571D01*
X122357142Y-59953571D02*
X122357142Y-58453571D01*
X120571428Y-59810714D02*
X120642857Y-59882142D01*
X120857142Y-59953571D01*
X121000000Y-59953571D01*
X121214285Y-59882142D01*
X121357142Y-59739285D01*
X121428571Y-59596428D01*
X121500000Y-59310714D01*
X121500000Y-59096428D01*
X121428571Y-58810714D01*
X121357142Y-58667857D01*
X121214285Y-58525000D01*
X121000000Y-58453571D01*
X120857142Y-58453571D01*
X120642857Y-58525000D01*
X120571428Y-58596428D01*
X119928571Y-59953571D02*
X119928571Y-58453571D01*
X119928571Y-59167857D02*
X119071428Y-59167857D01*
X119071428Y-59953571D02*
X119071428Y-58453571D01*
X147392857Y-57403571D02*
X147392857Y-55903571D01*
X147035714Y-55903571D01*
X146821428Y-55975000D01*
X146678571Y-56117857D01*
X146607142Y-56260714D01*
X146535714Y-56546428D01*
X146535714Y-56760714D01*
X146607142Y-57046428D01*
X146678571Y-57189285D01*
X146821428Y-57332142D01*
X147035714Y-57403571D01*
X147392857Y-57403571D01*
X145035714Y-57403571D02*
X145535714Y-56689285D01*
X145892857Y-57403571D02*
X145892857Y-55903571D01*
X145321428Y-55903571D01*
X145178571Y-55975000D01*
X145107142Y-56046428D01*
X145035714Y-56189285D01*
X145035714Y-56403571D01*
X145107142Y-56546428D01*
X145178571Y-56617857D01*
X145321428Y-56689285D01*
X145892857Y-56689285D01*
X144107142Y-55903571D02*
X143821428Y-55903571D01*
X143678571Y-55975000D01*
X143535714Y-56117857D01*
X143464285Y-56403571D01*
X143464285Y-56903571D01*
X143535714Y-57189285D01*
X143678571Y-57332142D01*
X143821428Y-57403571D01*
X144107142Y-57403571D01*
X144250000Y-57332142D01*
X144392857Y-57189285D01*
X144464285Y-56903571D01*
X144464285Y-56403571D01*
X144392857Y-56117857D01*
X144250000Y-55975000D01*
X144107142Y-55903571D01*
X142035714Y-55975000D02*
X142178571Y-55903571D01*
X142392857Y-55903571D01*
X142607142Y-55975000D01*
X142750000Y-56117857D01*
X142821428Y-56260714D01*
X142892857Y-56546428D01*
X142892857Y-56760714D01*
X142821428Y-57046428D01*
X142750000Y-57189285D01*
X142607142Y-57332142D01*
X142392857Y-57403571D01*
X142250000Y-57403571D01*
X142035714Y-57332142D01*
X141964285Y-57260714D01*
X141964285Y-56760714D01*
X142250000Y-56760714D01*
X141321428Y-55903571D02*
X141321428Y-57117857D01*
X141250000Y-57260714D01*
X141178571Y-57332142D01*
X141035714Y-57403571D01*
X140750000Y-57403571D01*
X140607142Y-57332142D01*
X140535714Y-57260714D01*
X140464285Y-57117857D01*
X140464285Y-55903571D01*
X139750000Y-56617857D02*
X139250000Y-56617857D01*
X139035714Y-57403571D02*
X139750000Y-57403571D01*
X139750000Y-55903571D01*
X139035714Y-55903571D01*
X147178571Y-59167857D02*
X146678571Y-59167857D01*
X146464285Y-59953571D02*
X147178571Y-59953571D01*
X147178571Y-58453571D01*
X146464285Y-58453571D01*
X145821428Y-59953571D02*
X145821428Y-58453571D01*
X145321428Y-59525000D01*
X144821428Y-58453571D01*
X144821428Y-59953571D01*
X144178571Y-59525000D02*
X143464285Y-59525000D01*
X144321428Y-59953571D02*
X143821428Y-58453571D01*
X143321428Y-59953571D01*
X143035714Y-58453571D02*
X142178571Y-58453571D01*
X142607142Y-59953571D02*
X142607142Y-58453571D01*
X140821428Y-59810714D02*
X140892857Y-59882142D01*
X141107142Y-59953571D01*
X141250000Y-59953571D01*
X141464285Y-59882142D01*
X141607142Y-59739285D01*
X141678571Y-59596428D01*
X141750000Y-59310714D01*
X141750000Y-59096428D01*
X141678571Y-58810714D01*
X141607142Y-58667857D01*
X141464285Y-58525000D01*
X141250000Y-58453571D01*
X141107142Y-58453571D01*
X140892857Y-58525000D01*
X140821428Y-58596428D01*
X140178571Y-59953571D02*
X140178571Y-58453571D01*
X140178571Y-59167857D02*
X139321428Y-59167857D01*
X139321428Y-59953571D02*
X139321428Y-58453571D01*
X102571428Y-57403571D02*
X102571428Y-55903571D01*
X101714285Y-57403571D02*
X102357142Y-56546428D01*
X101714285Y-55903571D02*
X102571428Y-56760714D01*
X101071428Y-56617857D02*
X100571428Y-56617857D01*
X100357142Y-57403571D02*
X101071428Y-57403571D01*
X101071428Y-55903571D01*
X100357142Y-55903571D01*
X99428571Y-56689285D02*
X99428571Y-57403571D01*
X99928571Y-55903571D02*
X99428571Y-56689285D01*
X98928571Y-55903571D01*
X97357142Y-57332142D02*
X97142857Y-57403571D01*
X96785714Y-57403571D01*
X96642857Y-57332142D01*
X96571428Y-57260714D01*
X96500000Y-57117857D01*
X96500000Y-56975000D01*
X96571428Y-56832142D01*
X96642857Y-56760714D01*
X96785714Y-56689285D01*
X97071428Y-56617857D01*
X97214285Y-56546428D01*
X97285714Y-56475000D01*
X97357142Y-56332142D01*
X97357142Y-56189285D01*
X97285714Y-56046428D01*
X97214285Y-55975000D01*
X97071428Y-55903571D01*
X96714285Y-55903571D01*
X96500000Y-55975000D01*
X96000000Y-55903571D02*
X95642857Y-57403571D01*
X95357142Y-56332142D01*
X95071428Y-57403571D01*
X94714285Y-55903571D01*
X94142857Y-57403571D02*
X94142857Y-55903571D01*
X93642857Y-55903571D02*
X92785714Y-55903571D01*
X93214285Y-57403571D02*
X93214285Y-55903571D01*
X91428571Y-57260714D02*
X91500000Y-57332142D01*
X91714285Y-57403571D01*
X91857142Y-57403571D01*
X92071428Y-57332142D01*
X92214285Y-57189285D01*
X92285714Y-57046428D01*
X92357142Y-56760714D01*
X92357142Y-56546428D01*
X92285714Y-56260714D01*
X92214285Y-56117857D01*
X92071428Y-55975000D01*
X91857142Y-55903571D01*
X91714285Y-55903571D01*
X91500000Y-55975000D01*
X91428571Y-56046428D01*
X90785714Y-57403571D02*
X90785714Y-55903571D01*
X90785714Y-56617857D02*
X89928571Y-56617857D01*
X89928571Y-57403571D02*
X89928571Y-55903571D01*
X103464285Y-58453571D02*
X103107142Y-59953571D01*
X102821428Y-58882142D01*
X102535714Y-59953571D01*
X102178571Y-58453571D01*
X101607142Y-59953571D02*
X101607142Y-58453571D01*
X100035714Y-59953571D02*
X100535714Y-59239285D01*
X100892857Y-59953571D02*
X100892857Y-58453571D01*
X100321428Y-58453571D01*
X100178571Y-58525000D01*
X100107142Y-58596428D01*
X100035714Y-58739285D01*
X100035714Y-58953571D01*
X100107142Y-59096428D01*
X100178571Y-59167857D01*
X100321428Y-59239285D01*
X100892857Y-59239285D01*
X99392857Y-59167857D02*
X98892857Y-59167857D01*
X98678571Y-59953571D02*
X99392857Y-59953571D01*
X99392857Y-58453571D01*
X98678571Y-58453571D01*
X98107142Y-59882142D02*
X97892857Y-59953571D01*
X97535714Y-59953571D01*
X97392857Y-59882142D01*
X97321428Y-59810714D01*
X97250000Y-59667857D01*
X97250000Y-59525000D01*
X97321428Y-59382142D01*
X97392857Y-59310714D01*
X97535714Y-59239285D01*
X97821428Y-59167857D01*
X97964285Y-59096428D01*
X98035714Y-59025000D01*
X98107142Y-58882142D01*
X98107142Y-58739285D01*
X98035714Y-58596428D01*
X97964285Y-58525000D01*
X97821428Y-58453571D01*
X97464285Y-58453571D01*
X97250000Y-58525000D01*
X95607142Y-58453571D02*
X94678571Y-58453571D01*
X95178571Y-59025000D01*
X94964285Y-59025000D01*
X94821428Y-59096428D01*
X94750000Y-59167857D01*
X94678571Y-59310714D01*
X94678571Y-59667857D01*
X94750000Y-59810714D01*
X94821428Y-59882142D01*
X94964285Y-59953571D01*
X95392857Y-59953571D01*
X95535714Y-59882142D01*
X95607142Y-59810714D01*
X91678571Y-59953571D02*
X91750000Y-59953571D01*
X91892857Y-59882142D01*
X92107142Y-59667857D01*
X92464285Y-59239285D01*
X92607142Y-59025000D01*
X92678571Y-58810714D01*
X92678571Y-58667857D01*
X92607142Y-58525000D01*
X92464285Y-58453571D01*
X92392857Y-58453571D01*
X92250000Y-58525000D01*
X92178571Y-58667857D01*
X92178571Y-58739285D01*
X92250000Y-58882142D01*
X92321428Y-58953571D01*
X92750000Y-59239285D01*
X92821428Y-59310714D01*
X92892857Y-59453571D01*
X92892857Y-59667857D01*
X92821428Y-59810714D01*
X92750000Y-59882142D01*
X92607142Y-59953571D01*
X92392857Y-59953571D01*
X92250000Y-59882142D01*
X92178571Y-59810714D01*
X91964285Y-59525000D01*
X91892857Y-59310714D01*
X91892857Y-59167857D01*
X89250000Y-58953571D02*
X89250000Y-59953571D01*
X89607142Y-58382142D02*
X89964285Y-59453571D01*
X89035714Y-59453571D01*
X82321428Y-57403571D02*
X82321428Y-55903571D01*
X81464285Y-57403571D02*
X82107142Y-56546428D01*
X81464285Y-55903571D02*
X82321428Y-56760714D01*
X80821428Y-56617857D02*
X80321428Y-56617857D01*
X80107142Y-57403571D02*
X80821428Y-57403571D01*
X80821428Y-55903571D01*
X80107142Y-55903571D01*
X79178571Y-56689285D02*
X79178571Y-57403571D01*
X79678571Y-55903571D02*
X79178571Y-56689285D01*
X78678571Y-55903571D01*
X77107142Y-57332142D02*
X76892857Y-57403571D01*
X76535714Y-57403571D01*
X76392857Y-57332142D01*
X76321428Y-57260714D01*
X76250000Y-57117857D01*
X76250000Y-56975000D01*
X76321428Y-56832142D01*
X76392857Y-56760714D01*
X76535714Y-56689285D01*
X76821428Y-56617857D01*
X76964285Y-56546428D01*
X77035714Y-56475000D01*
X77107142Y-56332142D01*
X77107142Y-56189285D01*
X77035714Y-56046428D01*
X76964285Y-55975000D01*
X76821428Y-55903571D01*
X76464285Y-55903571D01*
X76250000Y-55975000D01*
X75750000Y-55903571D02*
X75392857Y-57403571D01*
X75107142Y-56332142D01*
X74821428Y-57403571D01*
X74464285Y-55903571D01*
X73892857Y-57403571D02*
X73892857Y-55903571D01*
X73392857Y-55903571D02*
X72535714Y-55903571D01*
X72964285Y-57403571D02*
X72964285Y-55903571D01*
X71178571Y-57260714D02*
X71250000Y-57332142D01*
X71464285Y-57403571D01*
X71607142Y-57403571D01*
X71821428Y-57332142D01*
X71964285Y-57189285D01*
X72035714Y-57046428D01*
X72107142Y-56760714D01*
X72107142Y-56546428D01*
X72035714Y-56260714D01*
X71964285Y-56117857D01*
X71821428Y-55975000D01*
X71607142Y-55903571D01*
X71464285Y-55903571D01*
X71250000Y-55975000D01*
X71178571Y-56046428D01*
X70535714Y-57403571D02*
X70535714Y-55903571D01*
X70535714Y-56617857D02*
X69678571Y-56617857D01*
X69678571Y-57403571D02*
X69678571Y-55903571D01*
X83214285Y-58453571D02*
X82857142Y-59953571D01*
X82571428Y-58882142D01*
X82285714Y-59953571D01*
X81928571Y-58453571D01*
X81357142Y-59953571D02*
X81357142Y-58453571D01*
X79785714Y-59953571D02*
X80285714Y-59239285D01*
X80642857Y-59953571D02*
X80642857Y-58453571D01*
X80071428Y-58453571D01*
X79928571Y-58525000D01*
X79857142Y-58596428D01*
X79785714Y-58739285D01*
X79785714Y-58953571D01*
X79857142Y-59096428D01*
X79928571Y-59167857D01*
X80071428Y-59239285D01*
X80642857Y-59239285D01*
X79142857Y-59167857D02*
X78642857Y-59167857D01*
X78428571Y-59953571D02*
X79142857Y-59953571D01*
X79142857Y-58453571D01*
X78428571Y-58453571D01*
X77857142Y-59882142D02*
X77642857Y-59953571D01*
X77285714Y-59953571D01*
X77142857Y-59882142D01*
X77071428Y-59810714D01*
X77000000Y-59667857D01*
X77000000Y-59525000D01*
X77071428Y-59382142D01*
X77142857Y-59310714D01*
X77285714Y-59239285D01*
X77571428Y-59167857D01*
X77714285Y-59096428D01*
X77785714Y-59025000D01*
X77857142Y-58882142D01*
X77857142Y-58739285D01*
X77785714Y-58596428D01*
X77714285Y-58525000D01*
X77571428Y-58453571D01*
X77214285Y-58453571D01*
X77000000Y-58525000D01*
X74428571Y-59953571D02*
X75285714Y-59953571D01*
X74857142Y-59953571D02*
X74857142Y-58453571D01*
X75000000Y-58667857D01*
X75142857Y-58810714D01*
X75285714Y-58882142D01*
X71428571Y-59953571D02*
X71500000Y-59953571D01*
X71642857Y-59882142D01*
X71857142Y-59667857D01*
X72214285Y-59239285D01*
X72357142Y-59025000D01*
X72428571Y-58810714D01*
X72428571Y-58667857D01*
X72357142Y-58525000D01*
X72214285Y-58453571D01*
X72142857Y-58453571D01*
X72000000Y-58525000D01*
X71928571Y-58667857D01*
X71928571Y-58739285D01*
X72000000Y-58882142D01*
X72071428Y-58953571D01*
X72500000Y-59239285D01*
X72571428Y-59310714D01*
X72642857Y-59453571D01*
X72642857Y-59667857D01*
X72571428Y-59810714D01*
X72500000Y-59882142D01*
X72357142Y-59953571D01*
X72142857Y-59953571D01*
X72000000Y-59882142D01*
X71928571Y-59810714D01*
X71714285Y-59525000D01*
X71642857Y-59310714D01*
X71642857Y-59167857D01*
X69714285Y-58596428D02*
X69642857Y-58525000D01*
X69500000Y-58453571D01*
X69142857Y-58453571D01*
X69000000Y-58525000D01*
X68928571Y-58596428D01*
X68857142Y-58739285D01*
X68857142Y-58882142D01*
X68928571Y-59096428D01*
X69785714Y-59953571D01*
X68857142Y-59953571D01*
D11*
X156992285Y-146113917D02*
X163088285Y-145351917D01*
X163088285Y-143029632D01*
X162798000Y-142485346D01*
X162507714Y-142231346D01*
X161927142Y-142013632D01*
X161056285Y-142122489D01*
X160475714Y-142485346D01*
X160185428Y-142811917D01*
X159895142Y-143428775D01*
X159895142Y-145751060D01*
X156992285Y-140017917D02*
X163088285Y-139255917D01*
X156992285Y-137405346D02*
X160185428Y-137006203D01*
X160766000Y-137223917D01*
X161056285Y-137768203D01*
X161056285Y-138639060D01*
X160766000Y-139255917D01*
X160475714Y-139582489D01*
X156992285Y-133631632D02*
X157282571Y-134175917D01*
X157572857Y-134429917D01*
X158153428Y-134647632D01*
X159895142Y-134429917D01*
X160475714Y-134067060D01*
X160766000Y-133740489D01*
X161056285Y-133123632D01*
X161056285Y-132252775D01*
X160766000Y-131708489D01*
X160475714Y-131454489D01*
X159895142Y-131236775D01*
X158153428Y-131454489D01*
X157572857Y-131817346D01*
X157282571Y-132143917D01*
X156992285Y-132760775D01*
X156992285Y-133631632D01*
X157282571Y-126628489D02*
X156992285Y-127245346D01*
X156992285Y-128406489D01*
X157282571Y-128950775D01*
X157863142Y-129168489D01*
X160185428Y-128878203D01*
X160766000Y-128515346D01*
X161056285Y-127898489D01*
X161056285Y-126737346D01*
X160766000Y-126193060D01*
X160185428Y-125975346D01*
X159604857Y-126047917D01*
X159024285Y-129023346D01*
X161056285Y-123253917D02*
X156992285Y-123761917D01*
X160475714Y-123326489D02*
X160766000Y-122999917D01*
X161056285Y-122383060D01*
X161056285Y-121512203D01*
X160766000Y-120967917D01*
X160185428Y-120750203D01*
X156992285Y-121149346D01*
X156992285Y-118246489D02*
X161056285Y-117738489D01*
X163088285Y-117484489D02*
X162798000Y-117811060D01*
X162507714Y-117557060D01*
X162798000Y-117230489D01*
X163088285Y-117484489D01*
X162507714Y-117557060D01*
X156992285Y-115924203D02*
X161056285Y-112223060D01*
X161056285Y-115416203D02*
X156992285Y-112731060D01*
X156992285Y-105764203D02*
X163088285Y-105002203D01*
X163088285Y-102970203D02*
X156992285Y-101700203D01*
X163088285Y-98906203D01*
D12*
X155243447Y-135587142D02*
X155364400Y-135466190D01*
X155485352Y-135224285D01*
X155485352Y-134619523D01*
X155364400Y-134377619D01*
X155243447Y-134256666D01*
X155001542Y-134135714D01*
X154759638Y-134135714D01*
X154396780Y-134256666D01*
X152945352Y-135708095D01*
X152945352Y-134135714D01*
X155485352Y-132563333D02*
X155485352Y-132321428D01*
X155364400Y-132079523D01*
X155243447Y-131958571D01*
X155001542Y-131837619D01*
X154517733Y-131716666D01*
X153912971Y-131716666D01*
X153429161Y-131837619D01*
X153187257Y-131958571D01*
X153066304Y-132079523D01*
X152945352Y-132321428D01*
X152945352Y-132563333D01*
X153066304Y-132805238D01*
X153187257Y-132926190D01*
X153429161Y-133047142D01*
X153912971Y-133168095D01*
X154517733Y-133168095D01*
X155001542Y-133047142D01*
X155243447Y-132926190D01*
X155364400Y-132805238D01*
X155485352Y-132563333D01*
X155243447Y-130749047D02*
X155364400Y-130628095D01*
X155485352Y-130386190D01*
X155485352Y-129781428D01*
X155364400Y-129539523D01*
X155243447Y-129418571D01*
X155001542Y-129297619D01*
X154759638Y-129297619D01*
X154396780Y-129418571D01*
X152945352Y-130870000D01*
X152945352Y-129297619D01*
X155243447Y-128330000D02*
X155364400Y-128209047D01*
X155485352Y-127967142D01*
X155485352Y-127362380D01*
X155364400Y-127120476D01*
X155243447Y-126999523D01*
X155001542Y-126878571D01*
X154759638Y-126878571D01*
X154396780Y-126999523D01*
X152945352Y-128450952D01*
X152945352Y-126878571D01*
X153912971Y-125790000D02*
X153912971Y-123854761D01*
X155485352Y-122161428D02*
X155485352Y-121919523D01*
X155364400Y-121677619D01*
X155243447Y-121556666D01*
X155001542Y-121435714D01*
X154517733Y-121314761D01*
X153912971Y-121314761D01*
X153429161Y-121435714D01*
X153187257Y-121556666D01*
X153066304Y-121677619D01*
X152945352Y-121919523D01*
X152945352Y-122161428D01*
X153066304Y-122403333D01*
X153187257Y-122524285D01*
X153429161Y-122645238D01*
X153912971Y-122766190D01*
X154517733Y-122766190D01*
X155001542Y-122645238D01*
X155243447Y-122524285D01*
X155364400Y-122403333D01*
X155485352Y-122161428D01*
X152945352Y-118895714D02*
X152945352Y-120347142D01*
X152945352Y-119621428D02*
X155485352Y-119621428D01*
X155122495Y-119863333D01*
X154880590Y-120105238D01*
X154759638Y-120347142D01*
X153912971Y-117807142D02*
X153912971Y-115871904D01*
X155243447Y-114783333D02*
X155364400Y-114662380D01*
X155485352Y-114420476D01*
X155485352Y-113815714D01*
X155364400Y-113573809D01*
X155243447Y-113452857D01*
X155001542Y-113331904D01*
X154759638Y-113331904D01*
X154396780Y-113452857D01*
X152945352Y-114904285D01*
X152945352Y-113331904D01*
X152945352Y-112122380D02*
X152945352Y-111638571D01*
X153066304Y-111396666D01*
X153187257Y-111275714D01*
X153550114Y-111033809D01*
X154033923Y-110912857D01*
X155001542Y-110912857D01*
X155243447Y-111033809D01*
X155364400Y-111154761D01*
X155485352Y-111396666D01*
X155485352Y-111880476D01*
X155364400Y-112122380D01*
X155243447Y-112243333D01*
X155001542Y-112364285D01*
X154396780Y-112364285D01*
X154154876Y-112243333D01*
X154033923Y-112122380D01*
X153912971Y-111880476D01*
X153912971Y-111396666D01*
X154033923Y-111154761D01*
X154154876Y-111033809D01*
X154396780Y-110912857D01*
X148830552Y-127301904D02*
X150040076Y-128148571D01*
X148830552Y-128753333D02*
X151370552Y-128753333D01*
X151370552Y-127785714D01*
X151249600Y-127543809D01*
X151128647Y-127422857D01*
X150886742Y-127301904D01*
X150523885Y-127301904D01*
X150281980Y-127422857D01*
X150161028Y-127543809D01*
X150040076Y-127785714D01*
X150040076Y-128753333D01*
X148951504Y-125245714D02*
X148830552Y-125487619D01*
X148830552Y-125971428D01*
X148951504Y-126213333D01*
X149193409Y-126334285D01*
X150161028Y-126334285D01*
X150402933Y-126213333D01*
X150523885Y-125971428D01*
X150523885Y-125487619D01*
X150402933Y-125245714D01*
X150161028Y-125124761D01*
X149919123Y-125124761D01*
X149677219Y-126334285D01*
X150523885Y-124278095D02*
X148830552Y-123673333D01*
X150523885Y-123068571D01*
X149072457Y-122100952D02*
X148951504Y-121980000D01*
X148830552Y-122100952D01*
X148951504Y-122221904D01*
X149072457Y-122100952D01*
X148830552Y-122100952D01*
X151128647Y-119077142D02*
X151249600Y-118956190D01*
X151370552Y-118714285D01*
X151370552Y-118109523D01*
X151249600Y-117867619D01*
X151128647Y-117746666D01*
X150886742Y-117625714D01*
X150644838Y-117625714D01*
X150281980Y-117746666D01*
X148830552Y-119198095D01*
X148830552Y-117625714D01*
X144715752Y-133651904D02*
X147255752Y-133651904D01*
X144715752Y-131353809D02*
X146046228Y-131353809D01*
X146288133Y-131474761D01*
X146409085Y-131716666D01*
X146409085Y-132200476D01*
X146288133Y-132442380D01*
X144836704Y-131353809D02*
X144715752Y-131595714D01*
X144715752Y-132200476D01*
X144836704Y-132442380D01*
X145078609Y-132563333D01*
X145320514Y-132563333D01*
X145562419Y-132442380D01*
X145683371Y-132200476D01*
X145683371Y-131595714D01*
X145804323Y-131353809D01*
X146409085Y-130144285D02*
X144715752Y-130144285D01*
X146167180Y-130144285D02*
X146288133Y-130023333D01*
X146409085Y-129781428D01*
X146409085Y-129418571D01*
X146288133Y-129176666D01*
X146046228Y-129055714D01*
X144715752Y-129055714D01*
X146046228Y-125910952D02*
X146046228Y-125064285D01*
X144715752Y-124701428D02*
X144715752Y-125910952D01*
X147255752Y-125910952D01*
X147255752Y-124701428D01*
X146409085Y-123854761D02*
X144715752Y-123250000D01*
X146409085Y-122645238D02*
X144715752Y-123250000D01*
X144110990Y-123491904D01*
X143990038Y-123612857D01*
X143869085Y-123854761D01*
X144715752Y-121677619D02*
X147255752Y-121677619D01*
X145683371Y-121435714D02*
X144715752Y-120710000D01*
X146409085Y-120710000D02*
X145441466Y-121677619D01*
X144715752Y-118532857D02*
X146046228Y-118532857D01*
X146288133Y-118653809D01*
X146409085Y-118895714D01*
X146409085Y-119379523D01*
X146288133Y-119621428D01*
X144836704Y-118532857D02*
X144715752Y-118774761D01*
X144715752Y-119379523D01*
X144836704Y-119621428D01*
X145078609Y-119742380D01*
X145320514Y-119742380D01*
X145562419Y-119621428D01*
X145683371Y-119379523D01*
X145683371Y-118774761D01*
X145804323Y-118532857D01*
X144715752Y-117323333D02*
X146409085Y-117323333D01*
X146167180Y-117323333D02*
X146288133Y-117202380D01*
X146409085Y-116960476D01*
X146409085Y-116597619D01*
X146288133Y-116355714D01*
X146046228Y-116234761D01*
X144715752Y-116234761D01*
X146046228Y-116234761D02*
X146288133Y-116113809D01*
X146409085Y-115871904D01*
X146409085Y-115509047D01*
X146288133Y-115267142D01*
X146046228Y-115146190D01*
X144715752Y-115146190D01*
X146409085Y-113936666D02*
X143869085Y-113936666D01*
X146288133Y-113936666D02*
X146409085Y-113694761D01*
X146409085Y-113210952D01*
X146288133Y-112969047D01*
X146167180Y-112848095D01*
X145925276Y-112727142D01*
X145199561Y-112727142D01*
X144957657Y-112848095D01*
X144836704Y-112969047D01*
X144715752Y-113210952D01*
X144715752Y-113694761D01*
X144836704Y-113936666D01*
X140842857Y-133530952D02*
X140721904Y-133651904D01*
X140600952Y-134014761D01*
X140600952Y-134256666D01*
X140721904Y-134619523D01*
X140963809Y-134861428D01*
X141205714Y-134982380D01*
X141689523Y-135103333D01*
X142052380Y-135103333D01*
X142536190Y-134982380D01*
X142778095Y-134861428D01*
X143020000Y-134619523D01*
X143140952Y-134256666D01*
X143140952Y-134014761D01*
X143020000Y-133651904D01*
X142899047Y-133530952D01*
X140600952Y-132442380D02*
X143140952Y-132442380D01*
X140600952Y-131353809D02*
X141931428Y-131353809D01*
X142173333Y-131474761D01*
X142294285Y-131716666D01*
X142294285Y-132079523D01*
X142173333Y-132321428D01*
X142052380Y-132442380D01*
X140600952Y-129055714D02*
X141931428Y-129055714D01*
X142173333Y-129176666D01*
X142294285Y-129418571D01*
X142294285Y-129902380D01*
X142173333Y-130144285D01*
X140721904Y-129055714D02*
X140600952Y-129297619D01*
X140600952Y-129902380D01*
X140721904Y-130144285D01*
X140963809Y-130265238D01*
X141205714Y-130265238D01*
X141447619Y-130144285D01*
X141568571Y-129902380D01*
X141568571Y-129297619D01*
X141689523Y-129055714D01*
X140600952Y-127846190D02*
X142294285Y-127846190D01*
X141810476Y-127846190D02*
X142052380Y-127725238D01*
X142173333Y-127604285D01*
X142294285Y-127362380D01*
X142294285Y-127120476D01*
X140600952Y-125910952D02*
X140721904Y-126152857D01*
X140963809Y-126273809D01*
X143140952Y-126273809D01*
X140600952Y-124943333D02*
X142294285Y-124943333D01*
X143140952Y-124943333D02*
X143020000Y-125064285D01*
X142899047Y-124943333D01*
X143020000Y-124822380D01*
X143140952Y-124943333D01*
X142899047Y-124943333D01*
X140721904Y-122766190D02*
X140600952Y-123008095D01*
X140600952Y-123491904D01*
X140721904Y-123733809D01*
X140963809Y-123854761D01*
X141931428Y-123854761D01*
X142173333Y-123733809D01*
X142294285Y-123491904D01*
X142294285Y-123008095D01*
X142173333Y-122766190D01*
X141931428Y-122645238D01*
X141689523Y-122645238D01*
X141447619Y-123854761D01*
X141931428Y-118774761D02*
X141810476Y-118411904D01*
X141689523Y-118290952D01*
X141447619Y-118170000D01*
X141084761Y-118170000D01*
X140842857Y-118290952D01*
X140721904Y-118411904D01*
X140600952Y-118653809D01*
X140600952Y-119621428D01*
X143140952Y-119621428D01*
X143140952Y-118774761D01*
X143020000Y-118532857D01*
X142899047Y-118411904D01*
X142657142Y-118290952D01*
X142415238Y-118290952D01*
X142173333Y-118411904D01*
X142052380Y-118532857D01*
X141931428Y-118774761D01*
X141931428Y-119621428D01*
X140600952Y-115992857D02*
X141931428Y-115992857D01*
X142173333Y-116113809D01*
X142294285Y-116355714D01*
X142294285Y-116839523D01*
X142173333Y-117081428D01*
X140721904Y-115992857D02*
X140600952Y-116234761D01*
X140600952Y-116839523D01*
X140721904Y-117081428D01*
X140963809Y-117202380D01*
X141205714Y-117202380D01*
X141447619Y-117081428D01*
X141568571Y-116839523D01*
X141568571Y-116234761D01*
X141689523Y-115992857D01*
X140600952Y-114783333D02*
X143140952Y-114783333D01*
X142173333Y-114783333D02*
X142294285Y-114541428D01*
X142294285Y-114057619D01*
X142173333Y-113815714D01*
X142052380Y-113694761D01*
X141810476Y-113573809D01*
X141084761Y-113573809D01*
X140842857Y-113694761D01*
X140721904Y-113815714D01*
X140600952Y-114057619D01*
X140600952Y-114541428D01*
X140721904Y-114783333D01*
X140721904Y-111517619D02*
X140600952Y-111759523D01*
X140600952Y-112243333D01*
X140721904Y-112485238D01*
X140963809Y-112606190D01*
X141931428Y-112606190D01*
X142173333Y-112485238D01*
X142294285Y-112243333D01*
X142294285Y-111759523D01*
X142173333Y-111517619D01*
X141931428Y-111396666D01*
X141689523Y-111396666D01*
X141447619Y-112606190D01*
X136486152Y-134680000D02*
X139026152Y-134680000D01*
X137211866Y-133833333D01*
X139026152Y-132986666D01*
X136486152Y-132986666D01*
X136486152Y-130688571D02*
X137816628Y-130688571D01*
X138058533Y-130809523D01*
X138179485Y-131051428D01*
X138179485Y-131535238D01*
X138058533Y-131777142D01*
X136607104Y-130688571D02*
X136486152Y-130930476D01*
X136486152Y-131535238D01*
X136607104Y-131777142D01*
X136849009Y-131898095D01*
X137090914Y-131898095D01*
X137332819Y-131777142D01*
X137453771Y-131535238D01*
X137453771Y-130930476D01*
X137574723Y-130688571D01*
X136486152Y-129479047D02*
X138179485Y-129479047D01*
X137695676Y-129479047D02*
X137937580Y-129358095D01*
X138058533Y-129237142D01*
X138179485Y-128995238D01*
X138179485Y-128753333D01*
X136607104Y-126818095D02*
X136486152Y-127060000D01*
X136486152Y-127543809D01*
X136607104Y-127785714D01*
X136728057Y-127906666D01*
X136969961Y-128027619D01*
X137695676Y-128027619D01*
X137937580Y-127906666D01*
X138058533Y-127785714D01*
X138179485Y-127543809D01*
X138179485Y-127060000D01*
X138058533Y-126818095D01*
X137816628Y-123794285D02*
X137816628Y-122947619D01*
X136486152Y-122584761D02*
X136486152Y-123794285D01*
X139026152Y-123794285D01*
X139026152Y-122584761D01*
X138179485Y-121859047D02*
X138179485Y-120891428D01*
X136486152Y-121496190D02*
X138663295Y-121496190D01*
X138905200Y-121375238D01*
X139026152Y-121133333D01*
X139026152Y-120891428D01*
X138179485Y-120407619D02*
X138179485Y-119440000D01*
X139026152Y-120044761D02*
X136849009Y-120044761D01*
X136607104Y-119923809D01*
X136486152Y-119681904D01*
X136486152Y-119440000D01*
X136486152Y-118593333D02*
X138179485Y-118593333D01*
X139026152Y-118593333D02*
X138905200Y-118714285D01*
X138784247Y-118593333D01*
X138905200Y-118472380D01*
X139026152Y-118593333D01*
X138784247Y-118593333D01*
X136486152Y-117383809D02*
X138179485Y-117383809D01*
X137937580Y-117383809D02*
X138058533Y-117262857D01*
X138179485Y-117020952D01*
X138179485Y-116658095D01*
X138058533Y-116416190D01*
X137816628Y-116295238D01*
X136486152Y-116295238D01*
X137816628Y-116295238D02*
X138058533Y-116174285D01*
X138179485Y-115932380D01*
X138179485Y-115569523D01*
X138058533Y-115327619D01*
X137816628Y-115206666D01*
X136486152Y-115206666D01*
X136486152Y-113997142D02*
X138179485Y-113997142D01*
X139026152Y-113997142D02*
X138905200Y-114118095D01*
X138784247Y-113997142D01*
X138905200Y-113876190D01*
X139026152Y-113997142D01*
X138784247Y-113997142D01*
X136607104Y-111820000D02*
X136486152Y-112061904D01*
X136486152Y-112545714D01*
X136607104Y-112787619D01*
X136849009Y-112908571D01*
X137816628Y-112908571D01*
X138058533Y-112787619D01*
X138179485Y-112545714D01*
X138179485Y-112061904D01*
X138058533Y-111820000D01*
X137816628Y-111699047D01*
X137574723Y-111699047D01*
X137332819Y-112908571D01*
X132371352Y-135768571D02*
X133580876Y-136615238D01*
X132371352Y-137220000D02*
X134911352Y-137220000D01*
X134911352Y-136252380D01*
X134790400Y-136010476D01*
X134669447Y-135889523D01*
X134427542Y-135768571D01*
X134064685Y-135768571D01*
X133822780Y-135889523D01*
X133701828Y-136010476D01*
X133580876Y-136252380D01*
X133580876Y-137220000D01*
X132371352Y-134317142D02*
X132492304Y-134559047D01*
X132613257Y-134680000D01*
X132855161Y-134800952D01*
X133580876Y-134800952D01*
X133822780Y-134680000D01*
X133943733Y-134559047D01*
X134064685Y-134317142D01*
X134064685Y-133954285D01*
X133943733Y-133712380D01*
X133822780Y-133591428D01*
X133580876Y-133470476D01*
X132855161Y-133470476D01*
X132613257Y-133591428D01*
X132492304Y-133712380D01*
X132371352Y-133954285D01*
X132371352Y-134317142D01*
X134064685Y-132623809D02*
X132371352Y-132140000D01*
X133580876Y-131656190D01*
X132371352Y-131172380D01*
X134064685Y-130688571D01*
X132371352Y-128632380D02*
X133701828Y-128632380D01*
X133943733Y-128753333D01*
X134064685Y-128995238D01*
X134064685Y-129479047D01*
X133943733Y-129720952D01*
X132492304Y-128632380D02*
X132371352Y-128874285D01*
X132371352Y-129479047D01*
X132492304Y-129720952D01*
X132734209Y-129841904D01*
X132976114Y-129841904D01*
X133218019Y-129720952D01*
X133338971Y-129479047D01*
X133338971Y-128874285D01*
X133459923Y-128632380D01*
X134064685Y-127422857D02*
X132371352Y-127422857D01*
X133822780Y-127422857D02*
X133943733Y-127301904D01*
X134064685Y-127060000D01*
X134064685Y-126697142D01*
X133943733Y-126455238D01*
X133701828Y-126334285D01*
X132371352Y-126334285D01*
X134911352Y-122463809D02*
X133097066Y-122463809D01*
X132734209Y-122584761D01*
X132492304Y-122826666D01*
X132371352Y-123189523D01*
X132371352Y-123431428D01*
X132371352Y-120165714D02*
X133701828Y-120165714D01*
X133943733Y-120286666D01*
X134064685Y-120528571D01*
X134064685Y-121012380D01*
X133943733Y-121254285D01*
X132492304Y-120165714D02*
X132371352Y-120407619D01*
X132371352Y-121012380D01*
X132492304Y-121254285D01*
X132734209Y-121375238D01*
X132976114Y-121375238D01*
X133218019Y-121254285D01*
X133338971Y-121012380D01*
X133338971Y-120407619D01*
X133459923Y-120165714D01*
X134064685Y-118956190D02*
X132371352Y-118956190D01*
X133822780Y-118956190D02*
X133943733Y-118835238D01*
X134064685Y-118593333D01*
X134064685Y-118230476D01*
X133943733Y-117988571D01*
X133701828Y-117867619D01*
X132371352Y-117867619D01*
X132492304Y-116779047D02*
X132371352Y-116537142D01*
X132371352Y-116053333D01*
X132492304Y-115811428D01*
X132734209Y-115690476D01*
X132855161Y-115690476D01*
X133097066Y-115811428D01*
X133218019Y-116053333D01*
X133218019Y-116416190D01*
X133338971Y-116658095D01*
X133580876Y-116779047D01*
X133701828Y-116779047D01*
X133943733Y-116658095D01*
X134064685Y-116416190D01*
X134064685Y-116053333D01*
X133943733Y-115811428D01*
X132492304Y-113634285D02*
X132371352Y-113876190D01*
X132371352Y-114360000D01*
X132492304Y-114601904D01*
X132734209Y-114722857D01*
X133701828Y-114722857D01*
X133943733Y-114601904D01*
X134064685Y-114360000D01*
X134064685Y-113876190D01*
X133943733Y-113634285D01*
X133701828Y-113513333D01*
X133459923Y-113513333D01*
X133218019Y-114722857D01*
X134064685Y-112424761D02*
X132371352Y-112424761D01*
X133822780Y-112424761D02*
X133943733Y-112303809D01*
X134064685Y-112061904D01*
X134064685Y-111699047D01*
X133943733Y-111457142D01*
X133701828Y-111336190D01*
X132371352Y-111336190D01*
X132492304Y-110247619D02*
X132371352Y-110005714D01*
X132371352Y-109521904D01*
X132492304Y-109280000D01*
X132734209Y-109159047D01*
X132855161Y-109159047D01*
X133097066Y-109280000D01*
X133218019Y-109521904D01*
X133218019Y-109884761D01*
X133338971Y-110126666D01*
X133580876Y-110247619D01*
X133701828Y-110247619D01*
X133943733Y-110126666D01*
X134064685Y-109884761D01*
X134064685Y-109521904D01*
X133943733Y-109280000D01*
X128982266Y-140304285D02*
X128982266Y-139094761D01*
X128256552Y-140546190D02*
X130796552Y-139699523D01*
X128256552Y-138852857D01*
X128256552Y-138006190D02*
X130796552Y-138006190D01*
X129828933Y-138006190D02*
X129949885Y-137764285D01*
X129949885Y-137280476D01*
X129828933Y-137038571D01*
X129707980Y-136917619D01*
X129466076Y-136796666D01*
X128740361Y-136796666D01*
X128498457Y-136917619D01*
X128377504Y-137038571D01*
X128256552Y-137280476D01*
X128256552Y-137764285D01*
X128377504Y-138006190D01*
X128256552Y-135708095D02*
X129949885Y-135708095D01*
X130796552Y-135708095D02*
X130675600Y-135829047D01*
X130554647Y-135708095D01*
X130675600Y-135587142D01*
X130796552Y-135708095D01*
X130554647Y-135708095D01*
X129949885Y-134861428D02*
X129949885Y-133893809D01*
X130796552Y-134498571D02*
X128619409Y-134498571D01*
X128377504Y-134377619D01*
X128256552Y-134135714D01*
X128256552Y-133893809D01*
X128256552Y-131958571D02*
X129587028Y-131958571D01*
X129828933Y-132079523D01*
X129949885Y-132321428D01*
X129949885Y-132805238D01*
X129828933Y-133047142D01*
X128377504Y-131958571D02*
X128256552Y-132200476D01*
X128256552Y-132805238D01*
X128377504Y-133047142D01*
X128619409Y-133168095D01*
X128861314Y-133168095D01*
X129103219Y-133047142D01*
X129224171Y-132805238D01*
X129224171Y-132200476D01*
X129345123Y-131958571D01*
X128256552Y-130749047D02*
X129949885Y-130749047D01*
X129707980Y-130749047D02*
X129828933Y-130628095D01*
X129949885Y-130386190D01*
X129949885Y-130023333D01*
X129828933Y-129781428D01*
X129587028Y-129660476D01*
X128256552Y-129660476D01*
X129587028Y-129660476D02*
X129828933Y-129539523D01*
X129949885Y-129297619D01*
X129949885Y-128934761D01*
X129828933Y-128692857D01*
X129587028Y-128571904D01*
X128256552Y-128571904D01*
X128256552Y-127362380D02*
X129949885Y-127362380D01*
X130796552Y-127362380D02*
X130675600Y-127483333D01*
X130554647Y-127362380D01*
X130675600Y-127241428D01*
X130796552Y-127362380D01*
X130554647Y-127362380D01*
X128256552Y-126152857D02*
X129949885Y-126152857D01*
X129707980Y-126152857D02*
X129828933Y-126031904D01*
X129949885Y-125790000D01*
X129949885Y-125427142D01*
X129828933Y-125185238D01*
X129587028Y-125064285D01*
X128256552Y-125064285D01*
X129587028Y-125064285D02*
X129828933Y-124943333D01*
X129949885Y-124701428D01*
X129949885Y-124338571D01*
X129828933Y-124096666D01*
X129587028Y-123975714D01*
X128256552Y-123975714D01*
X129587028Y-119984285D02*
X129466076Y-119621428D01*
X129345123Y-119500476D01*
X129103219Y-119379523D01*
X128740361Y-119379523D01*
X128498457Y-119500476D01*
X128377504Y-119621428D01*
X128256552Y-119863333D01*
X128256552Y-120830952D01*
X130796552Y-120830952D01*
X130796552Y-119984285D01*
X130675600Y-119742380D01*
X130554647Y-119621428D01*
X130312742Y-119500476D01*
X130070838Y-119500476D01*
X129828933Y-119621428D01*
X129707980Y-119742380D01*
X129587028Y-119984285D01*
X129587028Y-120830952D01*
X128256552Y-118290952D02*
X130796552Y-118290952D01*
X128256552Y-117202380D02*
X129587028Y-117202380D01*
X129828933Y-117323333D01*
X129949885Y-117565238D01*
X129949885Y-117928095D01*
X129828933Y-118170000D01*
X129707980Y-118290952D01*
X128256552Y-114904285D02*
X129587028Y-114904285D01*
X129828933Y-115025238D01*
X129949885Y-115267142D01*
X129949885Y-115750952D01*
X129828933Y-115992857D01*
X128377504Y-114904285D02*
X128256552Y-115146190D01*
X128256552Y-115750952D01*
X128377504Y-115992857D01*
X128619409Y-116113809D01*
X128861314Y-116113809D01*
X129103219Y-115992857D01*
X129224171Y-115750952D01*
X129224171Y-115146190D01*
X129345123Y-114904285D01*
X128256552Y-113694761D02*
X129949885Y-113694761D01*
X129466076Y-113694761D02*
X129707980Y-113573809D01*
X129828933Y-113452857D01*
X129949885Y-113210952D01*
X129949885Y-112969047D01*
X128256552Y-112122380D02*
X129949885Y-112122380D01*
X129707980Y-112122380D02*
X129828933Y-112001428D01*
X129949885Y-111759523D01*
X129949885Y-111396666D01*
X129828933Y-111154761D01*
X129587028Y-111033809D01*
X128256552Y-111033809D01*
X129587028Y-111033809D02*
X129828933Y-110912857D01*
X129949885Y-110670952D01*
X129949885Y-110308095D01*
X129828933Y-110066190D01*
X129587028Y-109945238D01*
X128256552Y-109945238D01*
X128256552Y-107647142D02*
X129587028Y-107647142D01*
X129828933Y-107768095D01*
X129949885Y-108010000D01*
X129949885Y-108493809D01*
X129828933Y-108735714D01*
X128377504Y-107647142D02*
X128256552Y-107889047D01*
X128256552Y-108493809D01*
X128377504Y-108735714D01*
X128619409Y-108856666D01*
X128861314Y-108856666D01*
X129103219Y-108735714D01*
X129224171Y-108493809D01*
X129224171Y-107889047D01*
X129345123Y-107647142D01*
X128256552Y-106074761D02*
X128377504Y-106316666D01*
X128619409Y-106437619D01*
X130796552Y-106437619D01*
D10*
X82321428Y-14653571D02*
X82321428Y-13153571D01*
X81464285Y-14653571D02*
X82107142Y-13796428D01*
X81464285Y-13153571D02*
X82321428Y-14010714D01*
X80821428Y-13867857D02*
X80321428Y-13867857D01*
X80107142Y-14653571D02*
X80821428Y-14653571D01*
X80821428Y-13153571D01*
X80107142Y-13153571D01*
X79178571Y-13939285D02*
X79178571Y-14653571D01*
X79678571Y-13153571D02*
X79178571Y-13939285D01*
X78678571Y-13153571D01*
X77107142Y-14582142D02*
X76892857Y-14653571D01*
X76535714Y-14653571D01*
X76392857Y-14582142D01*
X76321428Y-14510714D01*
X76250000Y-14367857D01*
X76250000Y-14225000D01*
X76321428Y-14082142D01*
X76392857Y-14010714D01*
X76535714Y-13939285D01*
X76821428Y-13867857D01*
X76964285Y-13796428D01*
X77035714Y-13725000D01*
X77107142Y-13582142D01*
X77107142Y-13439285D01*
X77035714Y-13296428D01*
X76964285Y-13225000D01*
X76821428Y-13153571D01*
X76464285Y-13153571D01*
X76250000Y-13225000D01*
X75750000Y-13153571D02*
X75392857Y-14653571D01*
X75107142Y-13582142D01*
X74821428Y-14653571D01*
X74464285Y-13153571D01*
X73892857Y-14653571D02*
X73892857Y-13153571D01*
X73392857Y-13153571D02*
X72535714Y-13153571D01*
X72964285Y-14653571D02*
X72964285Y-13153571D01*
X71178571Y-14510714D02*
X71250000Y-14582142D01*
X71464285Y-14653571D01*
X71607142Y-14653571D01*
X71821428Y-14582142D01*
X71964285Y-14439285D01*
X72035714Y-14296428D01*
X72107142Y-14010714D01*
X72107142Y-13796428D01*
X72035714Y-13510714D01*
X71964285Y-13367857D01*
X71821428Y-13225000D01*
X71607142Y-13153571D01*
X71464285Y-13153571D01*
X71250000Y-13225000D01*
X71178571Y-13296428D01*
X70535714Y-14653571D02*
X70535714Y-13153571D01*
X70535714Y-13867857D02*
X69678571Y-13867857D01*
X69678571Y-14653571D02*
X69678571Y-13153571D01*
X83214285Y-15703571D02*
X82857142Y-17203571D01*
X82571428Y-16132142D01*
X82285714Y-17203571D01*
X81928571Y-15703571D01*
X81357142Y-17203571D02*
X81357142Y-15703571D01*
X79785714Y-17203571D02*
X80285714Y-16489285D01*
X80642857Y-17203571D02*
X80642857Y-15703571D01*
X80071428Y-15703571D01*
X79928571Y-15775000D01*
X79857142Y-15846428D01*
X79785714Y-15989285D01*
X79785714Y-16203571D01*
X79857142Y-16346428D01*
X79928571Y-16417857D01*
X80071428Y-16489285D01*
X80642857Y-16489285D01*
X79142857Y-16417857D02*
X78642857Y-16417857D01*
X78428571Y-17203571D02*
X79142857Y-17203571D01*
X79142857Y-15703571D01*
X78428571Y-15703571D01*
X77857142Y-17132142D02*
X77642857Y-17203571D01*
X77285714Y-17203571D01*
X77142857Y-17132142D01*
X77071428Y-17060714D01*
X77000000Y-16917857D01*
X77000000Y-16775000D01*
X77071428Y-16632142D01*
X77142857Y-16560714D01*
X77285714Y-16489285D01*
X77571428Y-16417857D01*
X77714285Y-16346428D01*
X77785714Y-16275000D01*
X77857142Y-16132142D01*
X77857142Y-15989285D01*
X77785714Y-15846428D01*
X77714285Y-15775000D01*
X77571428Y-15703571D01*
X77214285Y-15703571D01*
X77000000Y-15775000D01*
X74428571Y-17203571D02*
X75285714Y-17203571D01*
X74857142Y-17203571D02*
X74857142Y-15703571D01*
X75000000Y-15917857D01*
X75142857Y-16060714D01*
X75285714Y-16132142D01*
X71428571Y-17203571D02*
X71500000Y-17203571D01*
X71642857Y-17132142D01*
X71857142Y-16917857D01*
X72214285Y-16489285D01*
X72357142Y-16275000D01*
X72428571Y-16060714D01*
X72428571Y-15917857D01*
X72357142Y-15775000D01*
X72214285Y-15703571D01*
X72142857Y-15703571D01*
X72000000Y-15775000D01*
X71928571Y-15917857D01*
X71928571Y-15989285D01*
X72000000Y-16132142D01*
X72071428Y-16203571D01*
X72500000Y-16489285D01*
X72571428Y-16560714D01*
X72642857Y-16703571D01*
X72642857Y-16917857D01*
X72571428Y-17060714D01*
X72500000Y-17132142D01*
X72357142Y-17203571D01*
X72142857Y-17203571D01*
X72000000Y-17132142D01*
X71928571Y-17060714D01*
X71714285Y-16775000D01*
X71642857Y-16560714D01*
X71642857Y-16417857D01*
X69714285Y-15846428D02*
X69642857Y-15775000D01*
X69500000Y-15703571D01*
X69142857Y-15703571D01*
X69000000Y-15775000D01*
X68928571Y-15846428D01*
X68857142Y-15989285D01*
X68857142Y-16132142D01*
X68928571Y-16346428D01*
X69785714Y-17203571D01*
X68857142Y-17203571D01*
X102571428Y-14653571D02*
X102571428Y-13153571D01*
X101714285Y-14653571D02*
X102357142Y-13796428D01*
X101714285Y-13153571D02*
X102571428Y-14010714D01*
X101071428Y-13867857D02*
X100571428Y-13867857D01*
X100357142Y-14653571D02*
X101071428Y-14653571D01*
X101071428Y-13153571D01*
X100357142Y-13153571D01*
X99428571Y-13939285D02*
X99428571Y-14653571D01*
X99928571Y-13153571D02*
X99428571Y-13939285D01*
X98928571Y-13153571D01*
X97357142Y-14582142D02*
X97142857Y-14653571D01*
X96785714Y-14653571D01*
X96642857Y-14582142D01*
X96571428Y-14510714D01*
X96500000Y-14367857D01*
X96500000Y-14225000D01*
X96571428Y-14082142D01*
X96642857Y-14010714D01*
X96785714Y-13939285D01*
X97071428Y-13867857D01*
X97214285Y-13796428D01*
X97285714Y-13725000D01*
X97357142Y-13582142D01*
X97357142Y-13439285D01*
X97285714Y-13296428D01*
X97214285Y-13225000D01*
X97071428Y-13153571D01*
X96714285Y-13153571D01*
X96500000Y-13225000D01*
X96000000Y-13153571D02*
X95642857Y-14653571D01*
X95357142Y-13582142D01*
X95071428Y-14653571D01*
X94714285Y-13153571D01*
X94142857Y-14653571D02*
X94142857Y-13153571D01*
X93642857Y-13153571D02*
X92785714Y-13153571D01*
X93214285Y-14653571D02*
X93214285Y-13153571D01*
X91428571Y-14510714D02*
X91500000Y-14582142D01*
X91714285Y-14653571D01*
X91857142Y-14653571D01*
X92071428Y-14582142D01*
X92214285Y-14439285D01*
X92285714Y-14296428D01*
X92357142Y-14010714D01*
X92357142Y-13796428D01*
X92285714Y-13510714D01*
X92214285Y-13367857D01*
X92071428Y-13225000D01*
X91857142Y-13153571D01*
X91714285Y-13153571D01*
X91500000Y-13225000D01*
X91428571Y-13296428D01*
X90785714Y-14653571D02*
X90785714Y-13153571D01*
X90785714Y-13867857D02*
X89928571Y-13867857D01*
X89928571Y-14653571D02*
X89928571Y-13153571D01*
X103464285Y-15703571D02*
X103107142Y-17203571D01*
X102821428Y-16132142D01*
X102535714Y-17203571D01*
X102178571Y-15703571D01*
X101607142Y-17203571D02*
X101607142Y-15703571D01*
X100035714Y-17203571D02*
X100535714Y-16489285D01*
X100892857Y-17203571D02*
X100892857Y-15703571D01*
X100321428Y-15703571D01*
X100178571Y-15775000D01*
X100107142Y-15846428D01*
X100035714Y-15989285D01*
X100035714Y-16203571D01*
X100107142Y-16346428D01*
X100178571Y-16417857D01*
X100321428Y-16489285D01*
X100892857Y-16489285D01*
X99392857Y-16417857D02*
X98892857Y-16417857D01*
X98678571Y-17203571D02*
X99392857Y-17203571D01*
X99392857Y-15703571D01*
X98678571Y-15703571D01*
X98107142Y-17132142D02*
X97892857Y-17203571D01*
X97535714Y-17203571D01*
X97392857Y-17132142D01*
X97321428Y-17060714D01*
X97250000Y-16917857D01*
X97250000Y-16775000D01*
X97321428Y-16632142D01*
X97392857Y-16560714D01*
X97535714Y-16489285D01*
X97821428Y-16417857D01*
X97964285Y-16346428D01*
X98035714Y-16275000D01*
X98107142Y-16132142D01*
X98107142Y-15989285D01*
X98035714Y-15846428D01*
X97964285Y-15775000D01*
X97821428Y-15703571D01*
X97464285Y-15703571D01*
X97250000Y-15775000D01*
X95607142Y-15703571D02*
X94678571Y-15703571D01*
X95178571Y-16275000D01*
X94964285Y-16275000D01*
X94821428Y-16346428D01*
X94750000Y-16417857D01*
X94678571Y-16560714D01*
X94678571Y-16917857D01*
X94750000Y-17060714D01*
X94821428Y-17132142D01*
X94964285Y-17203571D01*
X95392857Y-17203571D01*
X95535714Y-17132142D01*
X95607142Y-17060714D01*
X91678571Y-17203571D02*
X91750000Y-17203571D01*
X91892857Y-17132142D01*
X92107142Y-16917857D01*
X92464285Y-16489285D01*
X92607142Y-16275000D01*
X92678571Y-16060714D01*
X92678571Y-15917857D01*
X92607142Y-15775000D01*
X92464285Y-15703571D01*
X92392857Y-15703571D01*
X92250000Y-15775000D01*
X92178571Y-15917857D01*
X92178571Y-15989285D01*
X92250000Y-16132142D01*
X92321428Y-16203571D01*
X92750000Y-16489285D01*
X92821428Y-16560714D01*
X92892857Y-16703571D01*
X92892857Y-16917857D01*
X92821428Y-17060714D01*
X92750000Y-17132142D01*
X92607142Y-17203571D01*
X92392857Y-17203571D01*
X92250000Y-17132142D01*
X92178571Y-17060714D01*
X91964285Y-16775000D01*
X91892857Y-16560714D01*
X91892857Y-16417857D01*
X89250000Y-16203571D02*
X89250000Y-17203571D01*
X89607142Y-15632142D02*
X89964285Y-16703571D01*
X89035714Y-16703571D01*
X147392857Y-14653571D02*
X147392857Y-13153571D01*
X147035714Y-13153571D01*
X146821428Y-13225000D01*
X146678571Y-13367857D01*
X146607142Y-13510714D01*
X146535714Y-13796428D01*
X146535714Y-14010714D01*
X146607142Y-14296428D01*
X146678571Y-14439285D01*
X146821428Y-14582142D01*
X147035714Y-14653571D01*
X147392857Y-14653571D01*
X145035714Y-14653571D02*
X145535714Y-13939285D01*
X145892857Y-14653571D02*
X145892857Y-13153571D01*
X145321428Y-13153571D01*
X145178571Y-13225000D01*
X145107142Y-13296428D01*
X145035714Y-13439285D01*
X145035714Y-13653571D01*
X145107142Y-13796428D01*
X145178571Y-13867857D01*
X145321428Y-13939285D01*
X145892857Y-13939285D01*
X144107142Y-13153571D02*
X143821428Y-13153571D01*
X143678571Y-13225000D01*
X143535714Y-13367857D01*
X143464285Y-13653571D01*
X143464285Y-14153571D01*
X143535714Y-14439285D01*
X143678571Y-14582142D01*
X143821428Y-14653571D01*
X144107142Y-14653571D01*
X144250000Y-14582142D01*
X144392857Y-14439285D01*
X144464285Y-14153571D01*
X144464285Y-13653571D01*
X144392857Y-13367857D01*
X144250000Y-13225000D01*
X144107142Y-13153571D01*
X142035714Y-13225000D02*
X142178571Y-13153571D01*
X142392857Y-13153571D01*
X142607142Y-13225000D01*
X142750000Y-13367857D01*
X142821428Y-13510714D01*
X142892857Y-13796428D01*
X142892857Y-14010714D01*
X142821428Y-14296428D01*
X142750000Y-14439285D01*
X142607142Y-14582142D01*
X142392857Y-14653571D01*
X142250000Y-14653571D01*
X142035714Y-14582142D01*
X141964285Y-14510714D01*
X141964285Y-14010714D01*
X142250000Y-14010714D01*
X141321428Y-13153571D02*
X141321428Y-14367857D01*
X141250000Y-14510714D01*
X141178571Y-14582142D01*
X141035714Y-14653571D01*
X140750000Y-14653571D01*
X140607142Y-14582142D01*
X140535714Y-14510714D01*
X140464285Y-14367857D01*
X140464285Y-13153571D01*
X139750000Y-13867857D02*
X139250000Y-13867857D01*
X139035714Y-14653571D02*
X139750000Y-14653571D01*
X139750000Y-13153571D01*
X139035714Y-13153571D01*
X147178571Y-16417857D02*
X146678571Y-16417857D01*
X146464285Y-17203571D02*
X147178571Y-17203571D01*
X147178571Y-15703571D01*
X146464285Y-15703571D01*
X145821428Y-17203571D02*
X145821428Y-15703571D01*
X145321428Y-16775000D01*
X144821428Y-15703571D01*
X144821428Y-17203571D01*
X144178571Y-16775000D02*
X143464285Y-16775000D01*
X144321428Y-17203571D02*
X143821428Y-15703571D01*
X143321428Y-17203571D01*
X143035714Y-15703571D02*
X142178571Y-15703571D01*
X142607142Y-17203571D02*
X142607142Y-15703571D01*
X140821428Y-17060714D02*
X140892857Y-17132142D01*
X141107142Y-17203571D01*
X141250000Y-17203571D01*
X141464285Y-17132142D01*
X141607142Y-16989285D01*
X141678571Y-16846428D01*
X141750000Y-16560714D01*
X141750000Y-16346428D01*
X141678571Y-16060714D01*
X141607142Y-15917857D01*
X141464285Y-15775000D01*
X141250000Y-15703571D01*
X141107142Y-15703571D01*
X140892857Y-15775000D01*
X140821428Y-15846428D01*
X140178571Y-17203571D02*
X140178571Y-15703571D01*
X140178571Y-16417857D02*
X139321428Y-16417857D01*
X139321428Y-17203571D02*
X139321428Y-15703571D01*
X125285714Y-14653571D02*
X125285714Y-13153571D01*
X124785714Y-14225000D01*
X124285714Y-13153571D01*
X124285714Y-14653571D01*
X123642857Y-14225000D02*
X122928571Y-14225000D01*
X123785714Y-14653571D02*
X123285714Y-13153571D01*
X122785714Y-14653571D01*
X122285714Y-14653571D02*
X122285714Y-13153571D01*
X121571428Y-14653571D02*
X121571428Y-13153571D01*
X120714285Y-14653571D01*
X120714285Y-13153571D01*
X126928571Y-16417857D02*
X126428571Y-16417857D01*
X126214285Y-17203571D02*
X126928571Y-17203571D01*
X126928571Y-15703571D01*
X126214285Y-15703571D01*
X125571428Y-17203571D02*
X125571428Y-15703571D01*
X125071428Y-16775000D01*
X124571428Y-15703571D01*
X124571428Y-17203571D01*
X123928571Y-16775000D02*
X123214285Y-16775000D01*
X124071428Y-17203571D02*
X123571428Y-15703571D01*
X123071428Y-17203571D01*
X122785714Y-15703571D02*
X121928571Y-15703571D01*
X122357142Y-17203571D02*
X122357142Y-15703571D01*
X120571428Y-17060714D02*
X120642857Y-17132142D01*
X120857142Y-17203571D01*
X121000000Y-17203571D01*
X121214285Y-17132142D01*
X121357142Y-16989285D01*
X121428571Y-16846428D01*
X121500000Y-16560714D01*
X121500000Y-16346428D01*
X121428571Y-16060714D01*
X121357142Y-15917857D01*
X121214285Y-15775000D01*
X121000000Y-15703571D01*
X120857142Y-15703571D01*
X120642857Y-15775000D01*
X120571428Y-15846428D01*
X119928571Y-17203571D02*
X119928571Y-15703571D01*
X119928571Y-16417857D02*
X119071428Y-16417857D01*
X119071428Y-17203571D02*
X119071428Y-15703571D01*
D13*
G36*
X89825140Y-137137075D02*
G01*
X89678225Y-137150772D01*
X89402214Y-137226084D01*
X89054133Y-137347195D01*
X89018791Y-137360739D01*
X88639626Y-137505678D01*
X88303063Y-137631563D01*
X88081209Y-137711429D01*
X88079365Y-137712057D01*
X87872231Y-137785670D01*
X87536463Y-137908361D01*
X87132070Y-138058137D01*
X86970635Y-138118422D01*
X86455545Y-138311132D01*
X85889826Y-138522612D01*
X85386094Y-138710766D01*
X85332738Y-138730681D01*
X84822800Y-138921435D01*
X84252159Y-139135545D01*
X83770437Y-139316832D01*
X83268244Y-139506230D01*
X82699727Y-139720637D01*
X82187182Y-139913930D01*
X82182937Y-139915531D01*
X81808456Y-140056370D01*
X81298171Y-140247746D01*
X80705169Y-140469778D01*
X80082532Y-140702583D01*
X79713492Y-140840405D01*
X78764020Y-141194907D01*
X77945512Y-141500740D01*
X77200014Y-141779578D01*
X76469577Y-142053097D01*
X75696247Y-142342974D01*
X75681746Y-142348412D01*
X75164173Y-142542502D01*
X74583884Y-142760111D01*
X74069048Y-142953174D01*
X73551474Y-143147264D01*
X72971186Y-143364872D01*
X72456349Y-143557936D01*
X71944782Y-143749584D01*
X71376074Y-143962353D01*
X70872618Y-144150451D01*
X70868849Y-144151858D01*
X70366657Y-144339621D01*
X69798141Y-144552684D01*
X69285596Y-144745212D01*
X69281349Y-144746810D01*
X68711894Y-144960723D01*
X68018686Y-145220565D01*
X67257920Y-145505323D01*
X66485790Y-145793984D01*
X65758490Y-146065534D01*
X65132213Y-146298959D01*
X64846429Y-146405244D01*
X64428639Y-146558668D01*
X64042978Y-146697225D01*
X63759319Y-146795886D01*
X63714079Y-146810881D01*
X63490067Y-146912654D01*
X63362432Y-147065251D01*
X63319876Y-147309033D01*
X63351102Y-147684361D01*
X63394247Y-147953540D01*
X63482731Y-149008959D01*
X63377280Y-150026257D01*
X63080559Y-150992126D01*
X62609353Y-151872067D01*
X62391761Y-152216567D01*
X62295160Y-152416896D01*
X62315937Y-152487351D01*
X62450479Y-152442228D01*
X62467541Y-152433256D01*
X62634559Y-152316361D01*
X62894031Y-152105109D01*
X63191926Y-151843632D01*
X63213380Y-151824077D01*
X63770294Y-151185452D01*
X64178000Y-150439977D01*
X64413135Y-149633094D01*
X64441222Y-149435978D01*
X64505071Y-149015087D01*
X64605042Y-148740114D01*
X64778030Y-148555391D01*
X65060931Y-148405248D01*
X65148810Y-148368368D01*
X65385981Y-148270326D01*
X65763690Y-148113025D01*
X66236657Y-147915369D01*
X66759604Y-147696262D01*
X66963095Y-147610855D01*
X67579788Y-147352301D01*
X68247330Y-147073107D01*
X68889731Y-146805017D01*
X69431000Y-146579776D01*
X69482937Y-146558218D01*
X70607172Y-146091349D01*
X71578415Y-145687178D01*
X72430113Y-145331732D01*
X73195710Y-145011038D01*
X73908653Y-144711121D01*
X74347028Y-144526044D01*
X74825678Y-144324996D01*
X75235096Y-144155495D01*
X75541035Y-144031530D01*
X75709246Y-143967089D01*
X75730185Y-143961111D01*
X75840000Y-143922671D01*
X76075808Y-143823200D01*
X76308951Y-143719287D01*
X76657190Y-143565356D01*
X77108660Y-143371752D01*
X77579657Y-143174261D01*
X77697619Y-143125611D01*
X78092326Y-142962681D01*
X78617672Y-142744641D01*
X79218445Y-142494467D01*
X79839436Y-142235132D01*
X80167064Y-142097979D01*
X80816762Y-141825906D01*
X81515469Y-141533601D01*
X82194463Y-141249796D01*
X82785018Y-141003225D01*
X82989286Y-140918039D01*
X83462323Y-140720549D01*
X83881954Y-140544773D01*
X84205513Y-140408623D01*
X84390330Y-140330013D01*
X84400397Y-140325630D01*
X84558345Y-140257865D01*
X84866104Y-140126953D01*
X85287762Y-139948130D01*
X85787405Y-139736631D01*
X86153419Y-139581907D01*
X86735328Y-139326645D01*
X87308907Y-139058390D01*
X87823016Y-138802199D01*
X88226519Y-138583130D01*
X88370487Y-138495556D01*
X88752278Y-138230275D01*
X89117205Y-137945106D01*
X89436570Y-137666852D01*
X89681672Y-137422316D01*
X89823811Y-137238300D01*
X89834288Y-137141607D01*
X89825140Y-137137075D01*
G37*
X89825140Y-137137075D02*
X89678225Y-137150772D01*
X89402214Y-137226084D01*
X89054133Y-137347195D01*
X89018791Y-137360739D01*
X88639626Y-137505678D01*
X88303063Y-137631563D01*
X88081209Y-137711429D01*
X88079365Y-137712057D01*
X87872231Y-137785670D01*
X87536463Y-137908361D01*
X87132070Y-138058137D01*
X86970635Y-138118422D01*
X86455545Y-138311132D01*
X85889826Y-138522612D01*
X85386094Y-138710766D01*
X85332738Y-138730681D01*
X84822800Y-138921435D01*
X84252159Y-139135545D01*
X83770437Y-139316832D01*
X83268244Y-139506230D01*
X82699727Y-139720637D01*
X82187182Y-139913930D01*
X82182937Y-139915531D01*
X81808456Y-140056370D01*
X81298171Y-140247746D01*
X80705169Y-140469778D01*
X80082532Y-140702583D01*
X79713492Y-140840405D01*
X78764020Y-141194907D01*
X77945512Y-141500740D01*
X77200014Y-141779578D01*
X76469577Y-142053097D01*
X75696247Y-142342974D01*
X75681746Y-142348412D01*
X75164173Y-142542502D01*
X74583884Y-142760111D01*
X74069048Y-142953174D01*
X73551474Y-143147264D01*
X72971186Y-143364872D01*
X72456349Y-143557936D01*
X71944782Y-143749584D01*
X71376074Y-143962353D01*
X70872618Y-144150451D01*
X70868849Y-144151858D01*
X70366657Y-144339621D01*
X69798141Y-144552684D01*
X69285596Y-144745212D01*
X69281349Y-144746810D01*
X68711894Y-144960723D01*
X68018686Y-145220565D01*
X67257920Y-145505323D01*
X66485790Y-145793984D01*
X65758490Y-146065534D01*
X65132213Y-146298959D01*
X64846429Y-146405244D01*
X64428639Y-146558668D01*
X64042978Y-146697225D01*
X63759319Y-146795886D01*
X63714079Y-146810881D01*
X63490067Y-146912654D01*
X63362432Y-147065251D01*
X63319876Y-147309033D01*
X63351102Y-147684361D01*
X63394247Y-147953540D01*
X63482731Y-149008959D01*
X63377280Y-150026257D01*
X63080559Y-150992126D01*
X62609353Y-151872067D01*
X62391761Y-152216567D01*
X62295160Y-152416896D01*
X62315937Y-152487351D01*
X62450479Y-152442228D01*
X62467541Y-152433256D01*
X62634559Y-152316361D01*
X62894031Y-152105109D01*
X63191926Y-151843632D01*
X63213380Y-151824077D01*
X63770294Y-151185452D01*
X64178000Y-150439977D01*
X64413135Y-149633094D01*
X64441222Y-149435978D01*
X64505071Y-149015087D01*
X64605042Y-148740114D01*
X64778030Y-148555391D01*
X65060931Y-148405248D01*
X65148810Y-148368368D01*
X65385981Y-148270326D01*
X65763690Y-148113025D01*
X66236657Y-147915369D01*
X66759604Y-147696262D01*
X66963095Y-147610855D01*
X67579788Y-147352301D01*
X68247330Y-147073107D01*
X68889731Y-146805017D01*
X69431000Y-146579776D01*
X69482937Y-146558218D01*
X70607172Y-146091349D01*
X71578415Y-145687178D01*
X72430113Y-145331732D01*
X73195710Y-145011038D01*
X73908653Y-144711121D01*
X74347028Y-144526044D01*
X74825678Y-144324996D01*
X75235096Y-144155495D01*
X75541035Y-144031530D01*
X75709246Y-143967089D01*
X75730185Y-143961111D01*
X75840000Y-143922671D01*
X76075808Y-143823200D01*
X76308951Y-143719287D01*
X76657190Y-143565356D01*
X77108660Y-143371752D01*
X77579657Y-143174261D01*
X77697619Y-143125611D01*
X78092326Y-142962681D01*
X78617672Y-142744641D01*
X79218445Y-142494467D01*
X79839436Y-142235132D01*
X80167064Y-142097979D01*
X80816762Y-141825906D01*
X81515469Y-141533601D01*
X82194463Y-141249796D01*
X82785018Y-141003225D01*
X82989286Y-140918039D01*
X83462323Y-140720549D01*
X83881954Y-140544773D01*
X84205513Y-140408623D01*
X84390330Y-140330013D01*
X84400397Y-140325630D01*
X84558345Y-140257865D01*
X84866104Y-140126953D01*
X85287762Y-139948130D01*
X85787405Y-139736631D01*
X86153419Y-139581907D01*
X86735328Y-139326645D01*
X87308907Y-139058390D01*
X87823016Y-138802199D01*
X88226519Y-138583130D01*
X88370487Y-138495556D01*
X88752278Y-138230275D01*
X89117205Y-137945106D01*
X89436570Y-137666852D01*
X89681672Y-137422316D01*
X89823811Y-137238300D01*
X89834288Y-137141607D01*
X89825140Y-137137075D01*
G36*
X91161876Y-138240976D02*
G01*
X91061577Y-138267692D01*
X90852037Y-138384178D01*
X90681885Y-138495138D01*
X90071896Y-138869638D01*
X89350494Y-139227821D01*
X88484240Y-139585262D01*
X87827381Y-139824675D01*
X84620881Y-140968973D01*
X81580241Y-142102081D01*
X78671255Y-143237511D01*
X75859716Y-144388773D01*
X73111415Y-145569380D01*
X71750794Y-146174683D01*
X70898799Y-146561564D01*
X70044226Y-146956136D01*
X69207427Y-147348454D01*
X68408756Y-147728574D01*
X67668566Y-148086549D01*
X67007212Y-148412436D01*
X66445046Y-148696290D01*
X66002422Y-148928166D01*
X65699693Y-149098118D01*
X65557214Y-149196202D01*
X65551021Y-149203940D01*
X65503078Y-149383572D01*
X65485022Y-149666324D01*
X65486766Y-149747638D01*
X65422470Y-150602435D01*
X65163256Y-151436421D01*
X64715749Y-152232917D01*
X64287377Y-152766494D01*
X64050258Y-153034461D01*
X63888147Y-153234426D01*
X63829280Y-153331036D01*
X63833384Y-153334920D01*
X64039025Y-153267950D01*
X64342634Y-153086638D01*
X64700841Y-152820385D01*
X65070276Y-152498590D01*
X65078334Y-152490983D01*
X65565091Y-151952486D01*
X65930271Y-151353950D01*
X66211058Y-150632107D01*
X66253348Y-150491637D01*
X66362784Y-150166891D01*
X66473503Y-149919548D01*
X66539420Y-149825935D01*
X66664181Y-149765798D01*
X66951911Y-149648211D01*
X67375724Y-149483492D01*
X67908734Y-149281954D01*
X68524053Y-149053915D01*
X69079762Y-148851274D01*
X73193128Y-147301253D01*
X77358919Y-145612500D01*
X81513364Y-143811013D01*
X82182937Y-143509444D01*
X83117227Y-143080919D01*
X84070050Y-142633759D01*
X85019437Y-142179045D01*
X85943418Y-141727859D01*
X86820022Y-141291281D01*
X87627282Y-140880393D01*
X88343226Y-140506276D01*
X88945886Y-140180010D01*
X89413292Y-139912678D01*
X89723475Y-139715360D01*
X89764568Y-139685381D01*
X90086346Y-139424137D01*
X90414875Y-139127778D01*
X90718557Y-138828965D01*
X90965796Y-138560360D01*
X91124995Y-138354626D01*
X91164557Y-138244424D01*
X91161876Y-138240976D01*
G37*
X91161876Y-138240976D02*
X91061577Y-138267692D01*
X90852037Y-138384178D01*
X90681885Y-138495138D01*
X90071896Y-138869638D01*
X89350494Y-139227821D01*
X88484240Y-139585262D01*
X87827381Y-139824675D01*
X84620881Y-140968973D01*
X81580241Y-142102081D01*
X78671255Y-143237511D01*
X75859716Y-144388773D01*
X73111415Y-145569380D01*
X71750794Y-146174683D01*
X70898799Y-146561564D01*
X70044226Y-146956136D01*
X69207427Y-147348454D01*
X68408756Y-147728574D01*
X67668566Y-148086549D01*
X67007212Y-148412436D01*
X66445046Y-148696290D01*
X66002422Y-148928166D01*
X65699693Y-149098118D01*
X65557214Y-149196202D01*
X65551021Y-149203940D01*
X65503078Y-149383572D01*
X65485022Y-149666324D01*
X65486766Y-149747638D01*
X65422470Y-150602435D01*
X65163256Y-151436421D01*
X64715749Y-152232917D01*
X64287377Y-152766494D01*
X64050258Y-153034461D01*
X63888147Y-153234426D01*
X63829280Y-153331036D01*
X63833384Y-153334920D01*
X64039025Y-153267950D01*
X64342634Y-153086638D01*
X64700841Y-152820385D01*
X65070276Y-152498590D01*
X65078334Y-152490983D01*
X65565091Y-151952486D01*
X65930271Y-151353950D01*
X66211058Y-150632107D01*
X66253348Y-150491637D01*
X66362784Y-150166891D01*
X66473503Y-149919548D01*
X66539420Y-149825935D01*
X66664181Y-149765798D01*
X66951911Y-149648211D01*
X67375724Y-149483492D01*
X67908734Y-149281954D01*
X68524053Y-149053915D01*
X69079762Y-148851274D01*
X73193128Y-147301253D01*
X77358919Y-145612500D01*
X81513364Y-143811013D01*
X82182937Y-143509444D01*
X83117227Y-143080919D01*
X84070050Y-142633759D01*
X85019437Y-142179045D01*
X85943418Y-141727859D01*
X86820022Y-141291281D01*
X87627282Y-140880393D01*
X88343226Y-140506276D01*
X88945886Y-140180010D01*
X89413292Y-139912678D01*
X89723475Y-139715360D01*
X89764568Y-139685381D01*
X90086346Y-139424137D01*
X90414875Y-139127778D01*
X90718557Y-138828965D01*
X90965796Y-138560360D01*
X91124995Y-138354626D01*
X91164557Y-138244424D01*
X91161876Y-138240976D01*
G36*
X84339268Y-74057821D02*
G01*
X84289735Y-73778554D01*
X84175392Y-73642331D01*
X83970232Y-73620086D01*
X83648247Y-73682749D01*
X83617386Y-73690379D01*
X83396295Y-73736366D01*
X83013532Y-73805893D01*
X82491913Y-73895429D01*
X81854254Y-74001441D01*
X81123370Y-74120397D01*
X80322078Y-74248765D01*
X79473192Y-74383013D01*
X78599530Y-74519608D01*
X77723906Y-74655020D01*
X76869137Y-74785715D01*
X76058038Y-74908162D01*
X75313426Y-75018828D01*
X74658115Y-75114181D01*
X74114922Y-75190690D01*
X73706662Y-75244822D01*
X73456151Y-75273045D01*
X73384570Y-75274517D01*
X73389886Y-75167681D01*
X73420608Y-75132311D01*
X73523064Y-75068498D01*
X73785224Y-74914173D01*
X74191464Y-74678311D01*
X74726164Y-74369889D01*
X75373699Y-73997883D01*
X76118448Y-73571269D01*
X76944788Y-73099025D01*
X77837096Y-72590125D01*
X78705556Y-72095742D01*
X79650357Y-71556918D01*
X80547469Y-71042487D01*
X81380694Y-70561924D01*
X82133837Y-70124702D01*
X82790698Y-69740297D01*
X83335083Y-69418181D01*
X83750793Y-69167830D01*
X84021631Y-68998717D01*
X84127784Y-68924136D01*
X84246348Y-68790730D01*
X84312461Y-68634909D01*
X84337512Y-68400916D01*
X84332894Y-68032996D01*
X84329372Y-67937396D01*
X84299603Y-67169863D01*
X75681746Y-72343481D01*
X74229502Y-73215924D01*
X72940246Y-73991911D01*
X71803640Y-74677917D01*
X70809342Y-75280418D01*
X69947015Y-75805886D01*
X69206317Y-76260798D01*
X68576909Y-76651628D01*
X68048451Y-76984850D01*
X67610603Y-77266940D01*
X67253027Y-77504372D01*
X66965381Y-77703621D01*
X66737327Y-77871161D01*
X66558524Y-78013468D01*
X66418633Y-78137016D01*
X66397000Y-78157557D01*
X65759837Y-78894796D01*
X65270925Y-79726562D01*
X64946311Y-80616818D01*
X64802042Y-81529526D01*
X64796032Y-81753135D01*
X64801463Y-82064701D01*
X64832515Y-82218799D01*
X64911327Y-82259519D01*
X65038663Y-82236353D01*
X65279457Y-82159371D01*
X65599903Y-82037293D01*
X65729316Y-81983413D01*
X65977279Y-81869447D01*
X66116188Y-81756664D01*
X66185088Y-81583010D01*
X66223025Y-81286429D01*
X66232425Y-81183840D01*
X66373547Y-80531775D01*
X66656882Y-79901596D01*
X67045652Y-79371461D01*
X67120870Y-79295676D01*
X67535785Y-78941917D01*
X68073060Y-78546899D01*
X68671257Y-78152167D01*
X69268940Y-77799267D01*
X69563393Y-77643949D01*
X69999444Y-77443585D01*
X70462453Y-77271111D01*
X70980410Y-77120418D01*
X71581305Y-76985398D01*
X72293130Y-76859941D01*
X73143874Y-76737939D01*
X74161528Y-76613282D01*
X74421825Y-76583629D01*
X75068074Y-76509563D01*
X75816089Y-76421676D01*
X76642253Y-76322923D01*
X77522953Y-76216265D01*
X78434572Y-76104657D01*
X79353496Y-75991059D01*
X80256110Y-75878428D01*
X81118799Y-75769722D01*
X81917947Y-75667898D01*
X82629939Y-75575915D01*
X83231161Y-75496730D01*
X83697998Y-75433301D01*
X84006833Y-75388586D01*
X84123214Y-75368519D01*
X84236130Y-75328336D01*
X84303708Y-75242255D01*
X84337483Y-75066578D01*
X84348987Y-74757606D01*
X84350000Y-74509202D01*
X84339268Y-74057821D01*
G37*
X84339268Y-74057821D02*
X84289735Y-73778554D01*
X84175392Y-73642331D01*
X83970232Y-73620086D01*
X83648247Y-73682749D01*
X83617386Y-73690379D01*
X83396295Y-73736366D01*
X83013532Y-73805893D01*
X82491913Y-73895429D01*
X81854254Y-74001441D01*
X81123370Y-74120397D01*
X80322078Y-74248765D01*
X79473192Y-74383013D01*
X78599530Y-74519608D01*
X77723906Y-74655020D01*
X76869137Y-74785715D01*
X76058038Y-74908162D01*
X75313426Y-75018828D01*
X74658115Y-75114181D01*
X74114922Y-75190690D01*
X73706662Y-75244822D01*
X73456151Y-75273045D01*
X73384570Y-75274517D01*
X73389886Y-75167681D01*
X73420608Y-75132311D01*
X73523064Y-75068498D01*
X73785224Y-74914173D01*
X74191464Y-74678311D01*
X74726164Y-74369889D01*
X75373699Y-73997883D01*
X76118448Y-73571269D01*
X76944788Y-73099025D01*
X77837096Y-72590125D01*
X78705556Y-72095742D01*
X79650357Y-71556918D01*
X80547469Y-71042487D01*
X81380694Y-70561924D01*
X82133837Y-70124702D01*
X82790698Y-69740297D01*
X83335083Y-69418181D01*
X83750793Y-69167830D01*
X84021631Y-68998717D01*
X84127784Y-68924136D01*
X84246348Y-68790730D01*
X84312461Y-68634909D01*
X84337512Y-68400916D01*
X84332894Y-68032996D01*
X84329372Y-67937396D01*
X84299603Y-67169863D01*
X75681746Y-72343481D01*
X74229502Y-73215924D01*
X72940246Y-73991911D01*
X71803640Y-74677917D01*
X70809342Y-75280418D01*
X69947015Y-75805886D01*
X69206317Y-76260798D01*
X68576909Y-76651628D01*
X68048451Y-76984850D01*
X67610603Y-77266940D01*
X67253027Y-77504372D01*
X66965381Y-77703621D01*
X66737327Y-77871161D01*
X66558524Y-78013468D01*
X66418633Y-78137016D01*
X66397000Y-78157557D01*
X65759837Y-78894796D01*
X65270925Y-79726562D01*
X64946311Y-80616818D01*
X64802042Y-81529526D01*
X64796032Y-81753135D01*
X64801463Y-82064701D01*
X64832515Y-82218799D01*
X64911327Y-82259519D01*
X65038663Y-82236353D01*
X65279457Y-82159371D01*
X65599903Y-82037293D01*
X65729316Y-81983413D01*
X65977279Y-81869447D01*
X66116188Y-81756664D01*
X66185088Y-81583010D01*
X66223025Y-81286429D01*
X66232425Y-81183840D01*
X66373547Y-80531775D01*
X66656882Y-79901596D01*
X67045652Y-79371461D01*
X67120870Y-79295676D01*
X67535785Y-78941917D01*
X68073060Y-78546899D01*
X68671257Y-78152167D01*
X69268940Y-77799267D01*
X69563393Y-77643949D01*
X69999444Y-77443585D01*
X70462453Y-77271111D01*
X70980410Y-77120418D01*
X71581305Y-76985398D01*
X72293130Y-76859941D01*
X73143874Y-76737939D01*
X74161528Y-76613282D01*
X74421825Y-76583629D01*
X75068074Y-76509563D01*
X75816089Y-76421676D01*
X76642253Y-76322923D01*
X77522953Y-76216265D01*
X78434572Y-76104657D01*
X79353496Y-75991059D01*
X80256110Y-75878428D01*
X81118799Y-75769722D01*
X81917947Y-75667898D01*
X82629939Y-75575915D01*
X83231161Y-75496730D01*
X83697998Y-75433301D01*
X84006833Y-75388586D01*
X84123214Y-75368519D01*
X84236130Y-75328336D01*
X84303708Y-75242255D01*
X84337483Y-75066578D01*
X84348987Y-74757606D01*
X84350000Y-74509202D01*
X84339268Y-74057821D01*
G36*
X90117784Y-168067376D02*
G01*
X90000094Y-167456757D01*
X89795061Y-166969917D01*
X89391556Y-166492458D01*
X88854382Y-166162126D01*
X88189047Y-165980215D01*
X87401057Y-165948019D01*
X86495917Y-166066829D01*
X86214683Y-166129143D01*
X85853228Y-166226993D01*
X85325797Y-166385422D01*
X84656054Y-166596641D01*
X83867664Y-166852864D01*
X82984292Y-167146303D01*
X82029602Y-167469171D01*
X81027259Y-167813681D01*
X80000928Y-168172045D01*
X79921278Y-168200098D01*
X79009496Y-168532162D01*
X78021244Y-168910748D01*
X77005778Y-169315683D01*
X76012357Y-169726795D01*
X75090239Y-170123911D01*
X74288682Y-170486856D01*
X73987739Y-170630113D01*
X73428422Y-170907583D01*
X73004501Y-171137489D01*
X72666655Y-171352994D01*
X72365561Y-171587260D01*
X72051899Y-171873450D01*
X71861413Y-172059789D01*
X71208413Y-172814177D01*
X70702492Y-173624494D01*
X70352284Y-174464775D01*
X70166422Y-175309054D01*
X70153540Y-176131364D01*
X70286181Y-176797305D01*
X70557870Y-177437774D01*
X70928370Y-177910192D01*
X71412909Y-178225334D01*
X72026718Y-178393978D01*
X72594651Y-178430789D01*
X72972548Y-178420043D01*
X73294782Y-178390655D01*
X73294782Y-176809093D01*
X72708807Y-176764463D01*
X72245364Y-176592940D01*
X71892256Y-176293481D01*
X71868511Y-176264097D01*
X71720789Y-175943714D01*
X71651591Y-175495843D01*
X71662544Y-174979345D01*
X71755276Y-174453078D01*
X71813085Y-174260455D01*
X72119304Y-173660517D01*
X72612943Y-173090222D01*
X73280548Y-172562316D01*
X74101022Y-172093276D01*
X74878197Y-171732078D01*
X75823442Y-171324701D01*
X76911144Y-170880847D01*
X78115686Y-170410218D01*
X79411452Y-169922517D01*
X80772827Y-169427445D01*
X82174196Y-168934706D01*
X83589942Y-168454000D01*
X84501190Y-168154073D01*
X85476540Y-167859590D01*
X86291780Y-167665334D01*
X86961914Y-167571672D01*
X87501947Y-167578973D01*
X87926886Y-167687604D01*
X88251734Y-167897933D01*
X88491498Y-168210327D01*
X88514070Y-168252381D01*
X88623244Y-168537636D01*
X88664799Y-168878289D01*
X88654605Y-169270354D01*
X88508971Y-170021823D01*
X88171959Y-170712051D01*
X87644698Y-171339620D01*
X86928314Y-171903113D01*
X86248681Y-172292371D01*
X85712768Y-172545236D01*
X85013137Y-172849688D01*
X84177874Y-173195276D01*
X83235065Y-173571549D01*
X82212795Y-173968054D01*
X81139152Y-174374340D01*
X80042220Y-174779956D01*
X78950085Y-175174450D01*
X77890833Y-175547370D01*
X76892550Y-175888264D01*
X75983321Y-176186682D01*
X75191234Y-176432172D01*
X74883115Y-176521846D01*
X74015486Y-176727873D01*
X73294782Y-176809093D01*
X73294782Y-178390655D01*
X73352947Y-178385350D01*
X73761966Y-178320216D01*
X74225723Y-178218145D01*
X74770336Y-178072640D01*
X75421925Y-177877205D01*
X76206607Y-177625346D01*
X77150501Y-177310565D01*
X77294444Y-177261915D01*
X79107628Y-176638833D01*
X80739532Y-176057604D01*
X82204766Y-175512493D01*
X83517942Y-174997770D01*
X84693671Y-174507703D01*
X85746564Y-174036559D01*
X86691231Y-173578606D01*
X86718651Y-173564708D01*
X87726881Y-172956523D01*
X88565158Y-172242450D01*
X89232030Y-171424295D01*
X89726046Y-170503861D01*
X90045755Y-169482954D01*
X90061617Y-169407541D01*
X90140557Y-168738351D01*
X90117784Y-168067376D01*
G37*
X90117784Y-168067376D02*
X90000094Y-167456757D01*
X89795061Y-166969917D01*
X89391556Y-166492458D01*
X88854382Y-166162126D01*
X88189047Y-165980215D01*
X87401057Y-165948019D01*
X86495917Y-166066829D01*
X86214683Y-166129143D01*
X85853228Y-166226993D01*
X85325797Y-166385422D01*
X84656054Y-166596641D01*
X83867664Y-166852864D01*
X82984292Y-167146303D01*
X82029602Y-167469171D01*
X81027259Y-167813681D01*
X80000928Y-168172045D01*
X79921278Y-168200098D01*
X79009496Y-168532162D01*
X78021244Y-168910748D01*
X77005778Y-169315683D01*
X76012357Y-169726795D01*
X75090239Y-170123911D01*
X74288682Y-170486856D01*
X73987739Y-170630113D01*
X73428422Y-170907583D01*
X73004501Y-171137489D01*
X72666655Y-171352994D01*
X72365561Y-171587260D01*
X72051899Y-171873450D01*
X71861413Y-172059789D01*
X71208413Y-172814177D01*
X70702492Y-173624494D01*
X70352284Y-174464775D01*
X70166422Y-175309054D01*
X70153540Y-176131364D01*
X70286181Y-176797305D01*
X70557870Y-177437774D01*
X70928370Y-177910192D01*
X71412909Y-178225334D01*
X72026718Y-178393978D01*
X72594651Y-178430789D01*
X72972548Y-178420043D01*
X73294782Y-178390655D01*
X73294782Y-176809093D01*
X72708807Y-176764463D01*
X72245364Y-176592940D01*
X71892256Y-176293481D01*
X71868511Y-176264097D01*
X71720789Y-175943714D01*
X71651591Y-175495843D01*
X71662544Y-174979345D01*
X71755276Y-174453078D01*
X71813085Y-174260455D01*
X72119304Y-173660517D01*
X72612943Y-173090222D01*
X73280548Y-172562316D01*
X74101022Y-172093276D01*
X74878197Y-171732078D01*
X75823442Y-171324701D01*
X76911144Y-170880847D01*
X78115686Y-170410218D01*
X79411452Y-169922517D01*
X80772827Y-169427445D01*
X82174196Y-168934706D01*
X83589942Y-168454000D01*
X84501190Y-168154073D01*
X85476540Y-167859590D01*
X86291780Y-167665334D01*
X86961914Y-167571672D01*
X87501947Y-167578973D01*
X87926886Y-167687604D01*
X88251734Y-167897933D01*
X88491498Y-168210327D01*
X88514070Y-168252381D01*
X88623244Y-168537636D01*
X88664799Y-168878289D01*
X88654605Y-169270354D01*
X88508971Y-170021823D01*
X88171959Y-170712051D01*
X87644698Y-171339620D01*
X86928314Y-171903113D01*
X86248681Y-172292371D01*
X85712768Y-172545236D01*
X85013137Y-172849688D01*
X84177874Y-173195276D01*
X83235065Y-173571549D01*
X82212795Y-173968054D01*
X81139152Y-174374340D01*
X80042220Y-174779956D01*
X78950085Y-175174450D01*
X77890833Y-175547370D01*
X76892550Y-175888264D01*
X75983321Y-176186682D01*
X75191234Y-176432172D01*
X74883115Y-176521846D01*
X74015486Y-176727873D01*
X73294782Y-176809093D01*
X73294782Y-178390655D01*
X73352947Y-178385350D01*
X73761966Y-178320216D01*
X74225723Y-178218145D01*
X74770336Y-178072640D01*
X75421925Y-177877205D01*
X76206607Y-177625346D01*
X77150501Y-177310565D01*
X77294444Y-177261915D01*
X79107628Y-176638833D01*
X80739532Y-176057604D01*
X82204766Y-175512493D01*
X83517942Y-174997770D01*
X84693671Y-174507703D01*
X85746564Y-174036559D01*
X86691231Y-173578606D01*
X86718651Y-173564708D01*
X87726881Y-172956523D01*
X88565158Y-172242450D01*
X89232030Y-171424295D01*
X89726046Y-170503861D01*
X90045755Y-169482954D01*
X90061617Y-169407541D01*
X90140557Y-168738351D01*
X90117784Y-168067376D01*
G36*
X84438636Y-122083231D02*
G01*
X84197940Y-121542006D01*
X84073114Y-121372120D01*
X83620602Y-120989118D01*
X83033935Y-120756301D01*
X82313026Y-120673661D01*
X81457787Y-120741187D01*
X80468130Y-120958871D01*
X80411330Y-120974766D01*
X79427705Y-121270749D01*
X78369967Y-121620676D01*
X77281340Y-122008029D01*
X76205046Y-122416291D01*
X75184310Y-122828943D01*
X74262356Y-123229467D01*
X73482407Y-123601345D01*
X73322431Y-123683827D01*
X72669739Y-124076082D01*
X72036641Y-124546787D01*
X71466647Y-125057392D01*
X71003266Y-125569344D01*
X70717335Y-125992013D01*
X70429248Y-126654028D01*
X70236864Y-127376964D01*
X70147744Y-128103956D01*
X70169452Y-128778136D01*
X70281518Y-129269521D01*
X70495302Y-129745706D01*
X70768698Y-130118062D01*
X71115581Y-130387605D01*
X71549822Y-130555353D01*
X72085294Y-130622321D01*
X72735870Y-130589527D01*
X72876692Y-130565765D01*
X72876692Y-128988664D01*
X72490107Y-128985798D01*
X72243537Y-128958390D01*
X72075479Y-128887117D01*
X71924428Y-128752657D01*
X71843557Y-128664084D01*
X71662486Y-128426248D01*
X71574677Y-128183974D01*
X71549482Y-127845924D01*
X71549206Y-127786882D01*
X71571861Y-127416789D01*
X71629577Y-127085194D01*
X71670829Y-126956925D01*
X72078147Y-126257998D01*
X72636427Y-125673019D01*
X72910918Y-125469227D01*
X73343061Y-125216759D01*
X73942384Y-124917807D01*
X74682826Y-124583284D01*
X75538321Y-124224100D01*
X76482807Y-123851168D01*
X77490222Y-123475397D01*
X78534500Y-123107701D01*
X78626787Y-123076266D01*
X79333103Y-122837857D01*
X79883110Y-122657804D01*
X80310786Y-122527910D01*
X80650107Y-122439980D01*
X80935051Y-122385820D01*
X81199595Y-122357236D01*
X81477714Y-122346031D01*
X81661812Y-122344255D01*
X82089597Y-122345522D01*
X82368225Y-122362890D01*
X82550117Y-122410778D01*
X82687699Y-122503607D01*
X82833392Y-122655799D01*
X82846138Y-122670042D01*
X83082116Y-123076637D01*
X83158417Y-123561959D01*
X83083024Y-124092806D01*
X82863921Y-124635980D01*
X82509091Y-125158280D01*
X82162509Y-125512986D01*
X81835519Y-125766904D01*
X81416411Y-126028993D01*
X80887366Y-126307633D01*
X80230566Y-126611201D01*
X79428194Y-126948076D01*
X78462431Y-127326636D01*
X77680035Y-127620770D01*
X76669144Y-127991580D01*
X75821852Y-128292275D01*
X75115303Y-128529363D01*
X74526640Y-128709354D01*
X74033007Y-128838756D01*
X73611546Y-128924080D01*
X73239400Y-128971834D01*
X72893714Y-128988528D01*
X72876692Y-128988664D01*
X72876692Y-130565765D01*
X73515422Y-130457987D01*
X74437824Y-130228718D01*
X75516948Y-129902735D01*
X76135317Y-129698491D01*
X77577548Y-129196682D01*
X78836120Y-128726281D01*
X79925152Y-128279691D01*
X80858762Y-127849313D01*
X81651069Y-127427550D01*
X82316193Y-127006804D01*
X82868251Y-126579478D01*
X83321363Y-126137973D01*
X83689646Y-125674692D01*
X83734125Y-125609334D01*
X84120054Y-124911934D01*
X84386282Y-124175478D01*
X84529996Y-123435112D01*
X84548384Y-122725981D01*
X84438636Y-122083231D01*
G37*
X84438636Y-122083231D02*
X84197940Y-121542006D01*
X84073114Y-121372120D01*
X83620602Y-120989118D01*
X83033935Y-120756301D01*
X82313026Y-120673661D01*
X81457787Y-120741187D01*
X80468130Y-120958871D01*
X80411330Y-120974766D01*
X79427705Y-121270749D01*
X78369967Y-121620676D01*
X77281340Y-122008029D01*
X76205046Y-122416291D01*
X75184310Y-122828943D01*
X74262356Y-123229467D01*
X73482407Y-123601345D01*
X73322431Y-123683827D01*
X72669739Y-124076082D01*
X72036641Y-124546787D01*
X71466647Y-125057392D01*
X71003266Y-125569344D01*
X70717335Y-125992013D01*
X70429248Y-126654028D01*
X70236864Y-127376964D01*
X70147744Y-128103956D01*
X70169452Y-128778136D01*
X70281518Y-129269521D01*
X70495302Y-129745706D01*
X70768698Y-130118062D01*
X71115581Y-130387605D01*
X71549822Y-130555353D01*
X72085294Y-130622321D01*
X72735870Y-130589527D01*
X72876692Y-130565765D01*
X72876692Y-128988664D01*
X72490107Y-128985798D01*
X72243537Y-128958390D01*
X72075479Y-128887117D01*
X71924428Y-128752657D01*
X71843557Y-128664084D01*
X71662486Y-128426248D01*
X71574677Y-128183974D01*
X71549482Y-127845924D01*
X71549206Y-127786882D01*
X71571861Y-127416789D01*
X71629577Y-127085194D01*
X71670829Y-126956925D01*
X72078147Y-126257998D01*
X72636427Y-125673019D01*
X72910918Y-125469227D01*
X73343061Y-125216759D01*
X73942384Y-124917807D01*
X74682826Y-124583284D01*
X75538321Y-124224100D01*
X76482807Y-123851168D01*
X77490222Y-123475397D01*
X78534500Y-123107701D01*
X78626787Y-123076266D01*
X79333103Y-122837857D01*
X79883110Y-122657804D01*
X80310786Y-122527910D01*
X80650107Y-122439980D01*
X80935051Y-122385820D01*
X81199595Y-122357236D01*
X81477714Y-122346031D01*
X81661812Y-122344255D01*
X82089597Y-122345522D01*
X82368225Y-122362890D01*
X82550117Y-122410778D01*
X82687699Y-122503607D01*
X82833392Y-122655799D01*
X82846138Y-122670042D01*
X83082116Y-123076637D01*
X83158417Y-123561959D01*
X83083024Y-124092806D01*
X82863921Y-124635980D01*
X82509091Y-125158280D01*
X82162509Y-125512986D01*
X81835519Y-125766904D01*
X81416411Y-126028993D01*
X80887366Y-126307633D01*
X80230566Y-126611201D01*
X79428194Y-126948076D01*
X78462431Y-127326636D01*
X77680035Y-127620770D01*
X76669144Y-127991580D01*
X75821852Y-128292275D01*
X75115303Y-128529363D01*
X74526640Y-128709354D01*
X74033007Y-128838756D01*
X73611546Y-128924080D01*
X73239400Y-128971834D01*
X72893714Y-128988528D01*
X72876692Y-128988664D01*
X72876692Y-130565765D01*
X73515422Y-130457987D01*
X74437824Y-130228718D01*
X75516948Y-129902735D01*
X76135317Y-129698491D01*
X77577548Y-129196682D01*
X78836120Y-128726281D01*
X79925152Y-128279691D01*
X80858762Y-127849313D01*
X81651069Y-127427550D01*
X82316193Y-127006804D01*
X82868251Y-126579478D01*
X83321363Y-126137973D01*
X83689646Y-125674692D01*
X83734125Y-125609334D01*
X84120054Y-124911934D01*
X84386282Y-124175478D01*
X84529996Y-123435112D01*
X84548384Y-122725981D01*
X84438636Y-122083231D01*
G36*
X84514157Y-112713062D02*
G01*
X84381148Y-112108675D01*
X84156184Y-111612811D01*
X83955053Y-111362247D01*
X83503736Y-111065716D01*
X82926064Y-110906337D01*
X82245113Y-110885960D01*
X81483965Y-111006434D01*
X81051413Y-111129500D01*
X80671032Y-111253786D01*
X80641162Y-111997076D01*
X80611293Y-112740365D01*
X80893147Y-112674923D01*
X81148844Y-112629078D01*
X81512222Y-112579587D01*
X81789330Y-112548941D01*
X82140194Y-112522542D01*
X82366321Y-112542048D01*
X82542689Y-112625955D01*
X82731581Y-112781399D01*
X82965134Y-113044634D01*
X83082422Y-113351401D01*
X83113095Y-113549873D01*
X83117472Y-114135847D01*
X82976747Y-114658459D01*
X82673780Y-115160164D01*
X82290277Y-115587698D01*
X82012489Y-115844903D01*
X81713574Y-116080136D01*
X81369872Y-116305316D01*
X80957724Y-116532363D01*
X80453470Y-116773196D01*
X79833450Y-117039734D01*
X79074005Y-117343897D01*
X78151474Y-117697605D01*
X77955469Y-117771520D01*
X76809814Y-118194404D01*
X75828813Y-118537831D01*
X74994260Y-118807197D01*
X74287949Y-119007893D01*
X73691675Y-119145315D01*
X73187230Y-119224854D01*
X72988500Y-119242985D01*
X72609289Y-119264948D01*
X72366720Y-119254509D01*
X72196350Y-119193470D01*
X72033734Y-119063635D01*
X71904968Y-118937031D01*
X71678744Y-118678413D01*
X71574281Y-118441383D01*
X71549206Y-118135574D01*
X71646461Y-117428208D01*
X71929750Y-116773629D01*
X72386361Y-116190906D01*
X73003580Y-115699107D01*
X73280748Y-115538359D01*
X73606741Y-115356616D01*
X73860564Y-115197919D01*
X73989633Y-115095262D01*
X73991909Y-115092132D01*
X74030950Y-114939626D01*
X74058360Y-114652143D01*
X74067504Y-114344967D01*
X74069048Y-113706998D01*
X73741468Y-113776240D01*
X73094230Y-114004737D01*
X72444550Y-114399704D01*
X71822460Y-114928657D01*
X71257995Y-115559111D01*
X70781188Y-116258581D01*
X70422073Y-116994584D01*
X70246893Y-117555977D01*
X70164279Y-118134888D01*
X70158266Y-118754719D01*
X70227332Y-119320962D01*
X70278578Y-119520762D01*
X70488699Y-120031041D01*
X70770570Y-120397742D01*
X71133656Y-120658711D01*
X71573860Y-120820194D01*
X72146654Y-120881641D01*
X72857255Y-120841925D01*
X73710879Y-120699916D01*
X74712740Y-120454486D01*
X75868053Y-120104508D01*
X77182036Y-119648853D01*
X78659902Y-119086393D01*
X78968225Y-118963933D01*
X80136929Y-118473722D01*
X81125213Y-118004675D01*
X81951109Y-117542515D01*
X82632644Y-117072966D01*
X83187849Y-116581751D01*
X83634751Y-116054595D01*
X83991380Y-115477220D01*
X84275766Y-114835351D01*
X84313903Y-114730952D01*
X84485290Y-114068842D01*
X84550456Y-113381331D01*
X84514157Y-112713062D01*
G37*
X84514157Y-112713062D02*
X84381148Y-112108675D01*
X84156184Y-111612811D01*
X83955053Y-111362247D01*
X83503736Y-111065716D01*
X82926064Y-110906337D01*
X82245113Y-110885960D01*
X81483965Y-111006434D01*
X81051413Y-111129500D01*
X80671032Y-111253786D01*
X80641162Y-111997076D01*
X80611293Y-112740365D01*
X80893147Y-112674923D01*
X81148844Y-112629078D01*
X81512222Y-112579587D01*
X81789330Y-112548941D01*
X82140194Y-112522542D01*
X82366321Y-112542048D01*
X82542689Y-112625955D01*
X82731581Y-112781399D01*
X82965134Y-113044634D01*
X83082422Y-113351401D01*
X83113095Y-113549873D01*
X83117472Y-114135847D01*
X82976747Y-114658459D01*
X82673780Y-115160164D01*
X82290277Y-115587698D01*
X82012489Y-115844903D01*
X81713574Y-116080136D01*
X81369872Y-116305316D01*
X80957724Y-116532363D01*
X80453470Y-116773196D01*
X79833450Y-117039734D01*
X79074005Y-117343897D01*
X78151474Y-117697605D01*
X77955469Y-117771520D01*
X76809814Y-118194404D01*
X75828813Y-118537831D01*
X74994260Y-118807197D01*
X74287949Y-119007893D01*
X73691675Y-119145315D01*
X73187230Y-119224854D01*
X72988500Y-119242985D01*
X72609289Y-119264948D01*
X72366720Y-119254509D01*
X72196350Y-119193470D01*
X72033734Y-119063635D01*
X71904968Y-118937031D01*
X71678744Y-118678413D01*
X71574281Y-118441383D01*
X71549206Y-118135574D01*
X71646461Y-117428208D01*
X71929750Y-116773629D01*
X72386361Y-116190906D01*
X73003580Y-115699107D01*
X73280748Y-115538359D01*
X73606741Y-115356616D01*
X73860564Y-115197919D01*
X73989633Y-115095262D01*
X73991909Y-115092132D01*
X74030950Y-114939626D01*
X74058360Y-114652143D01*
X74067504Y-114344967D01*
X74069048Y-113706998D01*
X73741468Y-113776240D01*
X73094230Y-114004737D01*
X72444550Y-114399704D01*
X71822460Y-114928657D01*
X71257995Y-115559111D01*
X70781188Y-116258581D01*
X70422073Y-116994584D01*
X70246893Y-117555977D01*
X70164279Y-118134888D01*
X70158266Y-118754719D01*
X70227332Y-119320962D01*
X70278578Y-119520762D01*
X70488699Y-120031041D01*
X70770570Y-120397742D01*
X71133656Y-120658711D01*
X71573860Y-120820194D01*
X72146654Y-120881641D01*
X72857255Y-120841925D01*
X73710879Y-120699916D01*
X74712740Y-120454486D01*
X75868053Y-120104508D01*
X77182036Y-119648853D01*
X78659902Y-119086393D01*
X78968225Y-118963933D01*
X80136929Y-118473722D01*
X81125213Y-118004675D01*
X81951109Y-117542515D01*
X82632644Y-117072966D01*
X83187849Y-116581751D01*
X83634751Y-116054595D01*
X83991380Y-115477220D01*
X84275766Y-114835351D01*
X84313903Y-114730952D01*
X84485290Y-114068842D01*
X84550456Y-113381331D01*
X84514157Y-112713062D01*
G36*
X84430629Y-93074236D02*
G01*
X84220173Y-92511873D01*
X83891796Y-92092042D01*
X83438325Y-91811472D01*
X82852588Y-91666888D01*
X82127411Y-91655016D01*
X81255622Y-91772584D01*
X80501455Y-91943682D01*
X79821305Y-92129873D01*
X79158939Y-92330558D01*
X78545578Y-92534458D01*
X78012444Y-92730295D01*
X77590757Y-92906793D01*
X77311739Y-93052674D01*
X77218849Y-93129411D01*
X77177746Y-93243848D01*
X77145675Y-93473862D01*
X77121895Y-93836279D01*
X77105664Y-94347926D01*
X77096242Y-95025630D01*
X77092888Y-95886218D01*
X77092857Y-95990256D01*
X77090415Y-96854543D01*
X77082562Y-97534764D01*
X77068511Y-98048388D01*
X77047472Y-98412883D01*
X77018657Y-98645718D01*
X76981278Y-98764361D01*
X76966865Y-98781483D01*
X76813070Y-98857748D01*
X76504786Y-98976141D01*
X76081549Y-99124079D01*
X75582890Y-99288976D01*
X75048342Y-99458251D01*
X74517440Y-99619318D01*
X74029716Y-99759595D01*
X73624703Y-99866496D01*
X73398746Y-99917251D01*
X72773179Y-99966582D01*
X72266773Y-99858303D01*
X71889535Y-99604281D01*
X71651475Y-99216384D01*
X71562600Y-98706483D01*
X71632919Y-98086444D01*
X71685230Y-97885272D01*
X71973665Y-97246266D01*
X72432790Y-96696943D01*
X73042999Y-96260465D01*
X73075343Y-96242968D01*
X73514932Y-95995912D01*
X73802240Y-95787969D01*
X73969096Y-95576145D01*
X74047327Y-95317447D01*
X74068762Y-94968879D01*
X74069048Y-94900638D01*
X74065133Y-94590808D01*
X74033243Y-94397526D01*
X73943161Y-94315157D01*
X73764670Y-94338069D01*
X73467550Y-94460626D01*
X73021586Y-94677196D01*
X72980159Y-94697633D01*
X72229140Y-95165649D01*
X71571050Y-95767662D01*
X71020499Y-96473463D01*
X70592097Y-97252839D01*
X70300454Y-98075580D01*
X70160179Y-98911476D01*
X70185882Y-99730315D01*
X70299229Y-100241427D01*
X70564540Y-100790433D01*
X70971334Y-101207290D01*
X71499928Y-101480950D01*
X72130643Y-101600358D01*
X72681559Y-101579214D01*
X73322669Y-101465998D01*
X74110186Y-101276881D01*
X75009228Y-101024120D01*
X75984911Y-100719969D01*
X77002353Y-100376686D01*
X78026672Y-100006526D01*
X78394464Y-99864483D01*
X78394464Y-98245807D01*
X78363145Y-98127078D01*
X78339957Y-97829186D01*
X78325637Y-97374419D01*
X78320919Y-96785066D01*
X78325515Y-96156276D01*
X78352778Y-94126206D01*
X79511905Y-93736257D01*
X80177149Y-93528575D01*
X80739785Y-93394018D01*
X81277703Y-93315949D01*
X81597690Y-93290670D01*
X82524348Y-93235031D01*
X82832412Y-93543095D01*
X83005205Y-93737178D01*
X83097900Y-93926928D01*
X83134797Y-94186432D01*
X83140476Y-94482249D01*
X83083864Y-95059982D01*
X82905541Y-95583385D01*
X82592772Y-96064484D01*
X82132826Y-96515305D01*
X81512969Y-96947873D01*
X80720470Y-97374214D01*
X79742595Y-97806355D01*
X79530457Y-97891833D01*
X79103630Y-98053228D01*
X78743369Y-98173924D01*
X78491621Y-98240848D01*
X78394464Y-98245807D01*
X78394464Y-99864483D01*
X79022985Y-99621744D01*
X79956409Y-99234596D01*
X80792062Y-98857339D01*
X81495061Y-98502228D01*
X81593028Y-98448213D01*
X82519031Y-97838978D01*
X83279071Y-97144354D01*
X83866490Y-96374918D01*
X84274630Y-95541246D01*
X84496832Y-94653915D01*
X84530338Y-93782407D01*
X84430629Y-93074236D01*
G37*
X84430629Y-93074236D02*
X84220173Y-92511873D01*
X83891796Y-92092042D01*
X83438325Y-91811472D01*
X82852588Y-91666888D01*
X82127411Y-91655016D01*
X81255622Y-91772584D01*
X80501455Y-91943682D01*
X79821305Y-92129873D01*
X79158939Y-92330558D01*
X78545578Y-92534458D01*
X78012444Y-92730295D01*
X77590757Y-92906793D01*
X77311739Y-93052674D01*
X77218849Y-93129411D01*
X77177746Y-93243848D01*
X77145675Y-93473862D01*
X77121895Y-93836279D01*
X77105664Y-94347926D01*
X77096242Y-95025630D01*
X77092888Y-95886218D01*
X77092857Y-95990256D01*
X77090415Y-96854543D01*
X77082562Y-97534764D01*
X77068511Y-98048388D01*
X77047472Y-98412883D01*
X77018657Y-98645718D01*
X76981278Y-98764361D01*
X76966865Y-98781483D01*
X76813070Y-98857748D01*
X76504786Y-98976141D01*
X76081549Y-99124079D01*
X75582890Y-99288976D01*
X75048342Y-99458251D01*
X74517440Y-99619318D01*
X74029716Y-99759595D01*
X73624703Y-99866496D01*
X73398746Y-99917251D01*
X72773179Y-99966582D01*
X72266773Y-99858303D01*
X71889535Y-99604281D01*
X71651475Y-99216384D01*
X71562600Y-98706483D01*
X71632919Y-98086444D01*
X71685230Y-97885272D01*
X71973665Y-97246266D01*
X72432790Y-96696943D01*
X73042999Y-96260465D01*
X73075343Y-96242968D01*
X73514932Y-95995912D01*
X73802240Y-95787969D01*
X73969096Y-95576145D01*
X74047327Y-95317447D01*
X74068762Y-94968879D01*
X74069048Y-94900638D01*
X74065133Y-94590808D01*
X74033243Y-94397526D01*
X73943161Y-94315157D01*
X73764670Y-94338069D01*
X73467550Y-94460626D01*
X73021586Y-94677196D01*
X72980159Y-94697633D01*
X72229140Y-95165649D01*
X71571050Y-95767662D01*
X71020499Y-96473463D01*
X70592097Y-97252839D01*
X70300454Y-98075580D01*
X70160179Y-98911476D01*
X70185882Y-99730315D01*
X70299229Y-100241427D01*
X70564540Y-100790433D01*
X70971334Y-101207290D01*
X71499928Y-101480950D01*
X72130643Y-101600358D01*
X72681559Y-101579214D01*
X73322669Y-101465998D01*
X74110186Y-101276881D01*
X75009228Y-101024120D01*
X75984911Y-100719969D01*
X77002353Y-100376686D01*
X78026672Y-100006526D01*
X78394464Y-99864483D01*
X78394464Y-98245807D01*
X78363145Y-98127078D01*
X78339957Y-97829186D01*
X78325637Y-97374419D01*
X78320919Y-96785066D01*
X78325515Y-96156276D01*
X78352778Y-94126206D01*
X79511905Y-93736257D01*
X80177149Y-93528575D01*
X80739785Y-93394018D01*
X81277703Y-93315949D01*
X81597690Y-93290670D01*
X82524348Y-93235031D01*
X82832412Y-93543095D01*
X83005205Y-93737178D01*
X83097900Y-93926928D01*
X83134797Y-94186432D01*
X83140476Y-94482249D01*
X83083864Y-95059982D01*
X82905541Y-95583385D01*
X82592772Y-96064484D01*
X82132826Y-96515305D01*
X81512969Y-96947873D01*
X80720470Y-97374214D01*
X79742595Y-97806355D01*
X79530457Y-97891833D01*
X79103630Y-98053228D01*
X78743369Y-98173924D01*
X78491621Y-98240848D01*
X78394464Y-98245807D01*
X78394464Y-99864483D01*
X79022985Y-99621744D01*
X79956409Y-99234596D01*
X80792062Y-98857339D01*
X81495061Y-98502228D01*
X81593028Y-98448213D01*
X82519031Y-97838978D01*
X83279071Y-97144354D01*
X83866490Y-96374918D01*
X84274630Y-95541246D01*
X84496832Y-94653915D01*
X84530338Y-93782407D01*
X84430629Y-93074236D01*
G36*
X84318776Y-156970652D02*
G01*
X84263001Y-156821838D01*
X84256021Y-156816513D01*
X84151089Y-156841682D01*
X83875309Y-156929237D01*
X83447237Y-157072550D01*
X82885429Y-157264990D01*
X82208441Y-157499929D01*
X81434832Y-157770738D01*
X80583157Y-158070788D01*
X79671972Y-158393450D01*
X78719835Y-158732095D01*
X77745302Y-159080094D01*
X76766929Y-159430818D01*
X75803274Y-159777638D01*
X74872892Y-160113925D01*
X73994340Y-160433050D01*
X73186175Y-160728384D01*
X72466954Y-160993298D01*
X71855233Y-161221163D01*
X71369568Y-161405350D01*
X71028516Y-161539230D01*
X70979532Y-161559287D01*
X70620989Y-161721522D01*
X70413575Y-161878140D01*
X70321264Y-162087799D01*
X70308030Y-162409157D01*
X70320007Y-162633135D01*
X70352520Y-162928229D01*
X70416314Y-163071259D01*
X70535386Y-163111613D01*
X70552609Y-163111904D01*
X70684838Y-163077376D01*
X71000585Y-162975132D01*
X71494218Y-162807179D01*
X72160111Y-162575527D01*
X72992634Y-162282184D01*
X73986159Y-161929158D01*
X75135057Y-161518459D01*
X76433700Y-161052095D01*
X77876458Y-160532075D01*
X79457704Y-159960407D01*
X81171808Y-159339100D01*
X83013142Y-158670163D01*
X83721190Y-158412575D01*
X84006117Y-158277068D01*
X84210720Y-158122718D01*
X84250357Y-158070072D01*
X84310548Y-157861663D01*
X84342229Y-157561600D01*
X84345079Y-157240917D01*
X84318776Y-156970652D01*
G37*
X84318776Y-156970652D02*
X84263001Y-156821838D01*
X84256021Y-156816513D01*
X84151089Y-156841682D01*
X83875309Y-156929237D01*
X83447237Y-157072550D01*
X82885429Y-157264990D01*
X82208441Y-157499929D01*
X81434832Y-157770738D01*
X80583157Y-158070788D01*
X79671972Y-158393450D01*
X78719835Y-158732095D01*
X77745302Y-159080094D01*
X76766929Y-159430818D01*
X75803274Y-159777638D01*
X74872892Y-160113925D01*
X73994340Y-160433050D01*
X73186175Y-160728384D01*
X72466954Y-160993298D01*
X71855233Y-161221163D01*
X71369568Y-161405350D01*
X71028516Y-161539230D01*
X70979532Y-161559287D01*
X70620989Y-161721522D01*
X70413575Y-161878140D01*
X70321264Y-162087799D01*
X70308030Y-162409157D01*
X70320007Y-162633135D01*
X70352520Y-162928229D01*
X70416314Y-163071259D01*
X70535386Y-163111613D01*
X70552609Y-163111904D01*
X70684838Y-163077376D01*
X71000585Y-162975132D01*
X71494218Y-162807179D01*
X72160111Y-162575527D01*
X72992634Y-162282184D01*
X73986159Y-161929158D01*
X75135057Y-161518459D01*
X76433700Y-161052095D01*
X77876458Y-160532075D01*
X79457704Y-159960407D01*
X81171808Y-159339100D01*
X83013142Y-158670163D01*
X83721190Y-158412575D01*
X84006117Y-158277068D01*
X84210720Y-158122718D01*
X84250357Y-158070072D01*
X84310548Y-157861663D01*
X84342229Y-157561600D01*
X84345079Y-157240917D01*
X84318776Y-156970652D01*
G36*
X89959578Y-160925951D02*
G01*
X89905824Y-160639117D01*
X89812912Y-160441629D01*
X89724524Y-160390476D01*
X89607871Y-160424306D01*
X89316150Y-160522408D01*
X88863574Y-160679698D01*
X88264357Y-160891089D01*
X87532713Y-161151499D01*
X86682853Y-161455842D01*
X85728991Y-161799034D01*
X84685340Y-162175991D01*
X83566114Y-162581628D01*
X82385525Y-163010860D01*
X81642010Y-163281850D01*
X80143531Y-163828191D01*
X78822375Y-164308602D01*
X77666593Y-164726530D01*
X76664235Y-165085422D01*
X75803351Y-165388723D01*
X75071990Y-165639881D01*
X74458204Y-165842342D01*
X73950042Y-165999552D01*
X73535555Y-166114959D01*
X73202792Y-166192008D01*
X72939803Y-166234146D01*
X72734640Y-166244820D01*
X72575351Y-166227476D01*
X72449988Y-166185561D01*
X72346600Y-166122522D01*
X72253237Y-166041804D01*
X72212242Y-166001563D01*
X72025876Y-165741303D01*
X71867822Y-165398055D01*
X71829690Y-165276703D01*
X71745885Y-164997243D01*
X71661386Y-164869395D01*
X71529561Y-164848486D01*
X71404556Y-164869446D01*
X71106198Y-164956604D01*
X70778645Y-165089169D01*
X70747241Y-165104222D01*
X70508367Y-165248995D01*
X70400502Y-165425806D01*
X70367169Y-165682142D01*
X70392494Y-166021754D01*
X70482972Y-166415402D01*
X70539799Y-166579847D01*
X70802037Y-167096501D01*
X71134917Y-167476000D01*
X71552939Y-167720961D01*
X72070604Y-167834007D01*
X72702412Y-167817755D01*
X73462862Y-167674827D01*
X74366456Y-167407842D01*
X74626915Y-167318328D01*
X74961937Y-167199169D01*
X75457235Y-167021329D01*
X76092963Y-166792036D01*
X76849269Y-166518517D01*
X77706307Y-166207999D01*
X78644227Y-165867710D01*
X79643181Y-165504877D01*
X80683319Y-165126727D01*
X81744794Y-164740487D01*
X82807756Y-164353384D01*
X83852358Y-163972646D01*
X84858750Y-163605500D01*
X85807083Y-163259173D01*
X86677510Y-162940892D01*
X87450180Y-162657885D01*
X88105247Y-162417379D01*
X88622860Y-162226601D01*
X88983172Y-162092778D01*
X89119412Y-162041370D01*
X89517161Y-161871831D01*
X89760073Y-161718906D01*
X89889899Y-161554606D01*
X89907955Y-161512785D01*
X89963760Y-161238414D01*
X89959578Y-160925951D01*
G37*
X89959578Y-160925951D02*
X89905824Y-160639117D01*
X89812912Y-160441629D01*
X89724524Y-160390476D01*
X89607871Y-160424306D01*
X89316150Y-160522408D01*
X88863574Y-160679698D01*
X88264357Y-160891089D01*
X87532713Y-161151499D01*
X86682853Y-161455842D01*
X85728991Y-161799034D01*
X84685340Y-162175991D01*
X83566114Y-162581628D01*
X82385525Y-163010860D01*
X81642010Y-163281850D01*
X80143531Y-163828191D01*
X78822375Y-164308602D01*
X77666593Y-164726530D01*
X76664235Y-165085422D01*
X75803351Y-165388723D01*
X75071990Y-165639881D01*
X74458204Y-165842342D01*
X73950042Y-165999552D01*
X73535555Y-166114959D01*
X73202792Y-166192008D01*
X72939803Y-166234146D01*
X72734640Y-166244820D01*
X72575351Y-166227476D01*
X72449988Y-166185561D01*
X72346600Y-166122522D01*
X72253237Y-166041804D01*
X72212242Y-166001563D01*
X72025876Y-165741303D01*
X71867822Y-165398055D01*
X71829690Y-165276703D01*
X71745885Y-164997243D01*
X71661386Y-164869395D01*
X71529561Y-164848486D01*
X71404556Y-164869446D01*
X71106198Y-164956604D01*
X70778645Y-165089169D01*
X70747241Y-165104222D01*
X70508367Y-165248995D01*
X70400502Y-165425806D01*
X70367169Y-165682142D01*
X70392494Y-166021754D01*
X70482972Y-166415402D01*
X70539799Y-166579847D01*
X70802037Y-167096501D01*
X71134917Y-167476000D01*
X71552939Y-167720961D01*
X72070604Y-167834007D01*
X72702412Y-167817755D01*
X73462862Y-167674827D01*
X74366456Y-167407842D01*
X74626915Y-167318328D01*
X74961937Y-167199169D01*
X75457235Y-167021329D01*
X76092963Y-166792036D01*
X76849269Y-166518517D01*
X77706307Y-166207999D01*
X78644227Y-165867710D01*
X79643181Y-165504877D01*
X80683319Y-165126727D01*
X81744794Y-164740487D01*
X82807756Y-164353384D01*
X83852358Y-163972646D01*
X84858750Y-163605500D01*
X85807083Y-163259173D01*
X86677510Y-162940892D01*
X87450180Y-162657885D01*
X88105247Y-162417379D01*
X88622860Y-162226601D01*
X88983172Y-162092778D01*
X89119412Y-162041370D01*
X89517161Y-161871831D01*
X89760073Y-161718906D01*
X89889899Y-161554606D01*
X89907955Y-161512785D01*
X89963760Y-161238414D01*
X89959578Y-160925951D01*
G36*
X84505709Y-149328212D02*
G01*
X84326189Y-148761359D01*
X84002522Y-148315249D01*
X83550663Y-148001154D01*
X82986564Y-147830348D01*
X82326179Y-147814105D01*
X81621667Y-147952841D01*
X81441556Y-148012394D01*
X81094026Y-148133179D01*
X80601010Y-148307266D01*
X79984441Y-148526725D01*
X79266253Y-148783625D01*
X78468378Y-149070037D01*
X77612749Y-149378030D01*
X76721300Y-149699675D01*
X75815963Y-150027041D01*
X74918670Y-150352197D01*
X74051356Y-150667215D01*
X73235953Y-150964163D01*
X72494394Y-151235112D01*
X71848612Y-151472131D01*
X71320540Y-151667290D01*
X70932111Y-151812660D01*
X70717659Y-151895322D01*
X70339683Y-152046491D01*
X70339683Y-152741103D01*
X70352508Y-153085819D01*
X70386221Y-153334392D01*
X70433674Y-153435454D01*
X70436325Y-153435714D01*
X70546388Y-153402165D01*
X70828572Y-153305623D01*
X71265642Y-153152246D01*
X71840365Y-152948193D01*
X72535504Y-152699620D01*
X73333827Y-152412687D01*
X74218098Y-152093550D01*
X75171082Y-151748368D01*
X75904381Y-151481974D01*
X76908537Y-151118164D01*
X77866213Y-150773948D01*
X78758817Y-150455822D01*
X79567760Y-150170284D01*
X80274450Y-149923831D01*
X80860299Y-149722960D01*
X81306714Y-149574170D01*
X81595107Y-149483957D01*
X81691373Y-149459403D01*
X82191464Y-149451460D01*
X82587798Y-149592672D01*
X82876350Y-149857005D01*
X83053093Y-150218424D01*
X83114003Y-150650895D01*
X83055051Y-151128383D01*
X82872213Y-151624853D01*
X82561462Y-152114272D01*
X82166190Y-152529754D01*
X81953529Y-152700859D01*
X81708041Y-152862055D01*
X81403028Y-153025530D01*
X81011792Y-153203470D01*
X80507634Y-153408062D01*
X79863856Y-153651494D01*
X79100464Y-153929168D01*
X78054452Y-154305928D01*
X77008991Y-154683762D01*
X75981981Y-155056108D01*
X74991322Y-155416403D01*
X74054915Y-155758084D01*
X73190660Y-156074588D01*
X72416457Y-156359353D01*
X71750207Y-156605815D01*
X71209811Y-156807412D01*
X70813168Y-156957580D01*
X70578179Y-157049757D01*
X70523625Y-157073729D01*
X70423909Y-157162599D01*
X70367340Y-157327210D01*
X70343148Y-157615060D01*
X70339683Y-157884965D01*
X70349671Y-158274605D01*
X70382886Y-158489221D01*
X70444199Y-158554540D01*
X70465675Y-158550118D01*
X70579084Y-158508564D01*
X70866528Y-158403715D01*
X71312596Y-158241183D01*
X71901877Y-158026576D01*
X72618961Y-157765505D01*
X73448437Y-157463580D01*
X74374895Y-157126411D01*
X75382922Y-156759609D01*
X76457109Y-156368783D01*
X77331732Y-156050601D01*
X78447775Y-155643393D01*
X79509946Y-155253481D01*
X80502773Y-154886691D01*
X81410785Y-154548851D01*
X82218510Y-154245787D01*
X82910478Y-153983327D01*
X83471215Y-153767299D01*
X83885251Y-153603529D01*
X84137115Y-153497845D01*
X84210899Y-153459622D01*
X84300462Y-153258060D01*
X84345883Y-152898292D01*
X84350000Y-152722959D01*
X84330749Y-152351314D01*
X84257902Y-152157557D01*
X84108815Y-152120383D01*
X83860844Y-152218481D01*
X83830773Y-152234356D01*
X83633011Y-152304940D01*
X83576118Y-152237282D01*
X83663814Y-152040883D01*
X83721316Y-151954811D01*
X84079816Y-151360022D01*
X84351282Y-150734875D01*
X84506559Y-150150110D01*
X84525128Y-150004533D01*
X84505709Y-149328212D01*
G37*
X84505709Y-149328212D02*
X84326189Y-148761359D01*
X84002522Y-148315249D01*
X83550663Y-148001154D01*
X82986564Y-147830348D01*
X82326179Y-147814105D01*
X81621667Y-147952841D01*
X81441556Y-148012394D01*
X81094026Y-148133179D01*
X80601010Y-148307266D01*
X79984441Y-148526725D01*
X79266253Y-148783625D01*
X78468378Y-149070037D01*
X77612749Y-149378030D01*
X76721300Y-149699675D01*
X75815963Y-150027041D01*
X74918670Y-150352197D01*
X74051356Y-150667215D01*
X73235953Y-150964163D01*
X72494394Y-151235112D01*
X71848612Y-151472131D01*
X71320540Y-151667290D01*
X70932111Y-151812660D01*
X70717659Y-151895322D01*
X70339683Y-152046491D01*
X70339683Y-152741103D01*
X70352508Y-153085819D01*
X70386221Y-153334392D01*
X70433674Y-153435454D01*
X70436325Y-153435714D01*
X70546388Y-153402165D01*
X70828572Y-153305623D01*
X71265642Y-153152246D01*
X71840365Y-152948193D01*
X72535504Y-152699620D01*
X73333827Y-152412687D01*
X74218098Y-152093550D01*
X75171082Y-151748368D01*
X75904381Y-151481974D01*
X76908537Y-151118164D01*
X77866213Y-150773948D01*
X78758817Y-150455822D01*
X79567760Y-150170284D01*
X80274450Y-149923831D01*
X80860299Y-149722960D01*
X81306714Y-149574170D01*
X81595107Y-149483957D01*
X81691373Y-149459403D01*
X82191464Y-149451460D01*
X82587798Y-149592672D01*
X82876350Y-149857005D01*
X83053093Y-150218424D01*
X83114003Y-150650895D01*
X83055051Y-151128383D01*
X82872213Y-151624853D01*
X82561462Y-152114272D01*
X82166190Y-152529754D01*
X81953529Y-152700859D01*
X81708041Y-152862055D01*
X81403028Y-153025530D01*
X81011792Y-153203470D01*
X80507634Y-153408062D01*
X79863856Y-153651494D01*
X79100464Y-153929168D01*
X78054452Y-154305928D01*
X77008991Y-154683762D01*
X75981981Y-155056108D01*
X74991322Y-155416403D01*
X74054915Y-155758084D01*
X73190660Y-156074588D01*
X72416457Y-156359353D01*
X71750207Y-156605815D01*
X71209811Y-156807412D01*
X70813168Y-156957580D01*
X70578179Y-157049757D01*
X70523625Y-157073729D01*
X70423909Y-157162599D01*
X70367340Y-157327210D01*
X70343148Y-157615060D01*
X70339683Y-157884965D01*
X70349671Y-158274605D01*
X70382886Y-158489221D01*
X70444199Y-158554540D01*
X70465675Y-158550118D01*
X70579084Y-158508564D01*
X70866528Y-158403715D01*
X71312596Y-158241183D01*
X71901877Y-158026576D01*
X72618961Y-157765505D01*
X73448437Y-157463580D01*
X74374895Y-157126411D01*
X75382922Y-156759609D01*
X76457109Y-156368783D01*
X77331732Y-156050601D01*
X78447775Y-155643393D01*
X79509946Y-155253481D01*
X80502773Y-154886691D01*
X81410785Y-154548851D01*
X82218510Y-154245787D01*
X82910478Y-153983327D01*
X83471215Y-153767299D01*
X83885251Y-153603529D01*
X84137115Y-153497845D01*
X84210899Y-153459622D01*
X84300462Y-153258060D01*
X84345883Y-152898292D01*
X84350000Y-152722959D01*
X84330749Y-152351314D01*
X84257902Y-152157557D01*
X84108815Y-152120383D01*
X83860844Y-152218481D01*
X83830773Y-152234356D01*
X83633011Y-152304940D01*
X83576118Y-152237282D01*
X83663814Y-152040883D01*
X83721316Y-151954811D01*
X84079816Y-151360022D01*
X84351282Y-150734875D01*
X84506559Y-150150110D01*
X84525128Y-150004533D01*
X84505709Y-149328212D01*
G36*
X89980542Y-132167985D02*
G01*
X89938500Y-131281117D01*
X89862247Y-130556669D01*
X89746473Y-129975748D01*
X89585868Y-129519463D01*
X89375121Y-129168922D01*
X89108922Y-128905235D01*
X88781962Y-128709510D01*
X88712563Y-128678459D01*
X88230764Y-128557025D01*
X87606387Y-128531032D01*
X86871104Y-128594554D01*
X86056585Y-128741667D01*
X85194503Y-128966446D01*
X84316527Y-129262968D01*
X83454330Y-129625307D01*
X83326005Y-129686081D01*
X82185482Y-130297827D01*
X81241921Y-130941277D01*
X80492876Y-131618584D01*
X79935899Y-132331901D01*
X79620437Y-132946063D01*
X79493554Y-133200676D01*
X79363906Y-133374898D01*
X79357620Y-133380346D01*
X79217260Y-133413589D01*
X78878736Y-133446588D01*
X78345472Y-133479180D01*
X77620890Y-133511202D01*
X76708414Y-133542492D01*
X75611467Y-133572886D01*
X75009138Y-133587368D01*
X74098825Y-133610441D01*
X73245252Y-133636167D01*
X72470802Y-133663571D01*
X71797858Y-133691679D01*
X71248802Y-133719516D01*
X70846016Y-133746107D01*
X70611882Y-133770476D01*
X70566468Y-133780885D01*
X70442235Y-133855977D01*
X70373723Y-133982379D01*
X70344916Y-134212824D01*
X70339683Y-134527544D01*
X70342925Y-134856512D01*
X70369622Y-135102012D01*
X70445232Y-135275117D01*
X70595212Y-135386899D01*
X70845017Y-135448431D01*
X71220105Y-135470785D01*
X71745932Y-135465034D01*
X72443064Y-135442420D01*
X73205880Y-135413727D01*
X74073040Y-135377388D01*
X74952229Y-135337484D01*
X75751131Y-135298094D01*
X75970110Y-135286515D01*
X76604765Y-135254490D01*
X77226131Y-135227114D01*
X77782389Y-135206390D01*
X78221716Y-135194322D01*
X78414356Y-135192063D01*
X79108730Y-135192063D01*
X79108730Y-136244776D01*
X79110268Y-136647080D01*
X79101446Y-136966796D01*
X79062107Y-137221611D01*
X78972097Y-137429215D01*
X78811261Y-137607294D01*
X78559443Y-137773538D01*
X78196488Y-137945635D01*
X77702241Y-138141272D01*
X77056546Y-138378139D01*
X76412500Y-138610982D01*
X75479140Y-138949589D01*
X74706358Y-139230217D01*
X74065165Y-139463450D01*
X73526567Y-139659870D01*
X73061575Y-139830060D01*
X72641196Y-139984603D01*
X72236440Y-140134081D01*
X71998505Y-140222223D01*
X71552735Y-140384333D01*
X71172941Y-140516511D01*
X70900660Y-140604698D01*
X70779405Y-140634920D01*
X70572903Y-140727777D01*
X70425233Y-140983829D01*
X70352330Y-141369305D01*
X70347640Y-141550000D01*
X70361038Y-141880175D01*
X70386769Y-142134954D01*
X70406436Y-142222420D01*
X70539329Y-142337161D01*
X70604517Y-142348412D01*
X70779220Y-142311463D01*
X71139117Y-142201129D01*
X71681948Y-142018180D01*
X72405452Y-141763383D01*
X73307372Y-141437508D01*
X73665873Y-141306400D01*
X74187196Y-141115785D01*
X74802916Y-140891485D01*
X75417787Y-140668170D01*
X75732143Y-140554330D01*
X77112018Y-140054579D01*
X78444891Y-139570390D01*
X79674329Y-139122280D01*
X80267857Y-138905268D01*
X80803820Y-138709456D01*
X80803820Y-137000994D01*
X80691174Y-136911688D01*
X80634888Y-136699915D01*
X80619490Y-136344130D01*
X80629506Y-135822789D01*
X80642778Y-135368452D01*
X80662448Y-134745620D01*
X80684824Y-134286679D01*
X80715141Y-133953952D01*
X80758637Y-133709758D01*
X80820548Y-133516417D01*
X80906110Y-133336251D01*
X80931794Y-133288880D01*
X81233367Y-132874022D01*
X81683968Y-132426861D01*
X82242287Y-131981486D01*
X82867010Y-131571988D01*
X83296592Y-131337454D01*
X84233830Y-130929932D01*
X85204666Y-130620274D01*
X86150030Y-130424228D01*
X86971665Y-130357558D01*
X87376640Y-130363407D01*
X87640939Y-130395392D01*
X87825145Y-130468123D01*
X87989841Y-130596210D01*
X87999946Y-130605530D01*
X88182660Y-130817189D01*
X88315134Y-131084195D01*
X88404213Y-131439078D01*
X88456742Y-131914374D01*
X88479566Y-132542615D01*
X88481978Y-132896419D01*
X88482540Y-134178950D01*
X88195713Y-134327274D01*
X87968884Y-134429001D01*
X87615750Y-134570163D01*
X87200854Y-134725273D01*
X87061784Y-134775035D01*
X86575191Y-134948720D01*
X85996840Y-135157653D01*
X85423865Y-135366672D01*
X85206746Y-135446558D01*
X84644363Y-135652367D01*
X84015442Y-135879742D01*
X83427649Y-136089835D01*
X83241270Y-136155720D01*
X82739045Y-136335576D01*
X82220852Y-136526164D01*
X81772972Y-136695591D01*
X81634658Y-136749572D01*
X81260089Y-136898391D01*
X80988301Y-136989381D01*
X80803820Y-137000994D01*
X80803820Y-138709456D01*
X81242315Y-138549253D01*
X82254494Y-138180993D01*
X83334923Y-137789443D01*
X84514130Y-137363560D01*
X85822642Y-136892301D01*
X87273016Y-136371074D01*
X88040575Y-136093058D01*
X88639193Y-135870080D01*
X89091026Y-135692989D01*
X89418226Y-135552633D01*
X89642947Y-135439858D01*
X89787345Y-135345513D01*
X89818056Y-135319667D01*
X89880026Y-135244459D01*
X89925685Y-135127587D01*
X89957435Y-134940561D01*
X89977678Y-134654893D01*
X89988815Y-134242095D01*
X89993247Y-133673677D01*
X89993683Y-133236164D01*
X89980542Y-132167985D01*
G37*
X89980542Y-132167985D02*
X89938500Y-131281117D01*
X89862247Y-130556669D01*
X89746473Y-129975748D01*
X89585868Y-129519463D01*
X89375121Y-129168922D01*
X89108922Y-128905235D01*
X88781962Y-128709510D01*
X88712563Y-128678459D01*
X88230764Y-128557025D01*
X87606387Y-128531032D01*
X86871104Y-128594554D01*
X86056585Y-128741667D01*
X85194503Y-128966446D01*
X84316527Y-129262968D01*
X83454330Y-129625307D01*
X83326005Y-129686081D01*
X82185482Y-130297827D01*
X81241921Y-130941277D01*
X80492876Y-131618584D01*
X79935899Y-132331901D01*
X79620437Y-132946063D01*
X79493554Y-133200676D01*
X79363906Y-133374898D01*
X79357620Y-133380346D01*
X79217260Y-133413589D01*
X78878736Y-133446588D01*
X78345472Y-133479180D01*
X77620890Y-133511202D01*
X76708414Y-133542492D01*
X75611467Y-133572886D01*
X75009138Y-133587368D01*
X74098825Y-133610441D01*
X73245252Y-133636167D01*
X72470802Y-133663571D01*
X71797858Y-133691679D01*
X71248802Y-133719516D01*
X70846016Y-133746107D01*
X70611882Y-133770476D01*
X70566468Y-133780885D01*
X70442235Y-133855977D01*
X70373723Y-133982379D01*
X70344916Y-134212824D01*
X70339683Y-134527544D01*
X70342925Y-134856512D01*
X70369622Y-135102012D01*
X70445232Y-135275117D01*
X70595212Y-135386899D01*
X70845017Y-135448431D01*
X71220105Y-135470785D01*
X71745932Y-135465034D01*
X72443064Y-135442420D01*
X73205880Y-135413727D01*
X74073040Y-135377388D01*
X74952229Y-135337484D01*
X75751131Y-135298094D01*
X75970110Y-135286515D01*
X76604765Y-135254490D01*
X77226131Y-135227114D01*
X77782389Y-135206390D01*
X78221716Y-135194322D01*
X78414356Y-135192063D01*
X79108730Y-135192063D01*
X79108730Y-136244776D01*
X79110268Y-136647080D01*
X79101446Y-136966796D01*
X79062107Y-137221611D01*
X78972097Y-137429215D01*
X78811261Y-137607294D01*
X78559443Y-137773538D01*
X78196488Y-137945635D01*
X77702241Y-138141272D01*
X77056546Y-138378139D01*
X76412500Y-138610982D01*
X75479140Y-138949589D01*
X74706358Y-139230217D01*
X74065165Y-139463450D01*
X73526567Y-139659870D01*
X73061575Y-139830060D01*
X72641196Y-139984603D01*
X72236440Y-140134081D01*
X71998505Y-140222223D01*
X71552735Y-140384333D01*
X71172941Y-140516511D01*
X70900660Y-140604698D01*
X70779405Y-140634920D01*
X70572903Y-140727777D01*
X70425233Y-140983829D01*
X70352330Y-141369305D01*
X70347640Y-141550000D01*
X70361038Y-141880175D01*
X70386769Y-142134954D01*
X70406436Y-142222420D01*
X70539329Y-142337161D01*
X70604517Y-142348412D01*
X70779220Y-142311463D01*
X71139117Y-142201129D01*
X71681948Y-142018180D01*
X72405452Y-141763383D01*
X73307372Y-141437508D01*
X73665873Y-141306400D01*
X74187196Y-141115785D01*
X74802916Y-140891485D01*
X75417787Y-140668170D01*
X75732143Y-140554330D01*
X77112018Y-140054579D01*
X78444891Y-139570390D01*
X79674329Y-139122280D01*
X80267857Y-138905268D01*
X80803820Y-138709456D01*
X80803820Y-137000994D01*
X80691174Y-136911688D01*
X80634888Y-136699915D01*
X80619490Y-136344130D01*
X80629506Y-135822789D01*
X80642778Y-135368452D01*
X80662448Y-134745620D01*
X80684824Y-134286679D01*
X80715141Y-133953952D01*
X80758637Y-133709758D01*
X80820548Y-133516417D01*
X80906110Y-133336251D01*
X80931794Y-133288880D01*
X81233367Y-132874022D01*
X81683968Y-132426861D01*
X82242287Y-131981486D01*
X82867010Y-131571988D01*
X83296592Y-131337454D01*
X84233830Y-130929932D01*
X85204666Y-130620274D01*
X86150030Y-130424228D01*
X86971665Y-130357558D01*
X87376640Y-130363407D01*
X87640939Y-130395392D01*
X87825145Y-130468123D01*
X87989841Y-130596210D01*
X87999946Y-130605530D01*
X88182660Y-130817189D01*
X88315134Y-131084195D01*
X88404213Y-131439078D01*
X88456742Y-131914374D01*
X88479566Y-132542615D01*
X88481978Y-132896419D01*
X88482540Y-134178950D01*
X88195713Y-134327274D01*
X87968884Y-134429001D01*
X87615750Y-134570163D01*
X87200854Y-134725273D01*
X87061784Y-134775035D01*
X86575191Y-134948720D01*
X85996840Y-135157653D01*
X85423865Y-135366672D01*
X85206746Y-135446558D01*
X84644363Y-135652367D01*
X84015442Y-135879742D01*
X83427649Y-136089835D01*
X83241270Y-136155720D01*
X82739045Y-136335576D01*
X82220852Y-136526164D01*
X81772972Y-136695591D01*
X81634658Y-136749572D01*
X81260089Y-136898391D01*
X80988301Y-136989381D01*
X80803820Y-137000994D01*
X80803820Y-138709456D01*
X81242315Y-138549253D01*
X82254494Y-138180993D01*
X83334923Y-137789443D01*
X84514130Y-137363560D01*
X85822642Y-136892301D01*
X87273016Y-136371074D01*
X88040575Y-136093058D01*
X88639193Y-135870080D01*
X89091026Y-135692989D01*
X89418226Y-135552633D01*
X89642947Y-135439858D01*
X89787345Y-135345513D01*
X89818056Y-135319667D01*
X89880026Y-135244459D01*
X89925685Y-135127587D01*
X89957435Y-134940561D01*
X89977678Y-134654893D01*
X89988815Y-134242095D01*
X89993247Y-133673677D01*
X89993683Y-133236164D01*
X89980542Y-132167985D01*
G36*
X89944204Y-104249553D02*
G01*
X89895613Y-103945267D01*
X89837276Y-103796445D01*
X89736568Y-103758265D01*
X89600803Y-103777815D01*
X89459837Y-103821170D01*
X89146592Y-103927526D01*
X88678171Y-104090796D01*
X88071675Y-104304893D01*
X87344204Y-104563731D01*
X86512860Y-104861223D01*
X85594744Y-105191282D01*
X84606958Y-105547822D01*
X83566601Y-105924755D01*
X83456068Y-105964884D01*
X82418690Y-106340150D01*
X81437650Y-106692269D01*
X80529273Y-107015563D01*
X79709887Y-107304353D01*
X78995819Y-107552961D01*
X78403394Y-107755708D01*
X77948941Y-107906915D01*
X77648785Y-108000905D01*
X77519255Y-108031998D01*
X77515640Y-108030984D01*
X77521590Y-107993676D01*
X77579679Y-107910059D01*
X77698841Y-107771169D01*
X77888012Y-107568040D01*
X78156124Y-107291707D01*
X78512113Y-106933205D01*
X78964912Y-106483567D01*
X79523455Y-105933830D01*
X80196677Y-105275028D01*
X80993511Y-104498196D01*
X81922893Y-103594368D01*
X82359325Y-103170443D01*
X84350000Y-101237373D01*
X84350000Y-99588447D01*
X83921627Y-99966510D01*
X83742411Y-100132384D01*
X83442118Y-100419215D01*
X83042569Y-100805773D01*
X82565588Y-101270828D01*
X82032997Y-101793152D01*
X81466620Y-102351514D01*
X81267524Y-102548477D01*
X80642741Y-103166197D01*
X80143185Y-103656292D01*
X79751336Y-104033476D01*
X79449675Y-104312464D01*
X79220681Y-104507970D01*
X79046835Y-104634708D01*
X78910616Y-104707395D01*
X78794505Y-104740743D01*
X78680983Y-104749468D01*
X78646889Y-104749500D01*
X78459220Y-104741392D01*
X78095245Y-104719535D01*
X77579653Y-104685634D01*
X76937132Y-104641393D01*
X76192370Y-104588516D01*
X75370056Y-104528706D01*
X74494877Y-104463669D01*
X74371429Y-104454386D01*
X73506713Y-104391376D01*
X72704924Y-104337010D01*
X71988308Y-104292491D01*
X71379109Y-104259020D01*
X70899573Y-104237801D01*
X70571945Y-104230036D01*
X70418470Y-104236928D01*
X70410551Y-104240247D01*
X70375147Y-104372804D01*
X70356657Y-104649426D01*
X70358616Y-105013033D01*
X70360154Y-105053969D01*
X70392358Y-105486822D01*
X70450266Y-105747854D01*
X70540309Y-105865907D01*
X70541270Y-105866401D01*
X70675207Y-105889411D01*
X70985782Y-105919368D01*
X71448230Y-105954608D01*
X72037786Y-105993464D01*
X72729686Y-106034271D01*
X73499163Y-106075364D01*
X74051448Y-106102494D01*
X74855972Y-106142128D01*
X75596703Y-106181464D01*
X76249461Y-106218997D01*
X76790067Y-106253220D01*
X77194341Y-106282629D01*
X77438103Y-106305719D01*
X77500088Y-106317189D01*
X77464290Y-106401675D01*
X77304970Y-106594805D01*
X77048695Y-106870650D01*
X76722031Y-107203278D01*
X76351546Y-107566760D01*
X75963808Y-107935164D01*
X75585382Y-108282560D01*
X75242836Y-108583017D01*
X74962738Y-108810604D01*
X74891865Y-108862930D01*
X74550134Y-109089545D01*
X74179161Y-109296773D01*
X73743517Y-109500296D01*
X73207775Y-109715801D01*
X72536506Y-109958971D01*
X72002778Y-110141980D01*
X71494698Y-110317505D01*
X71050095Y-110478501D01*
X70706468Y-110610827D01*
X70501313Y-110700344D01*
X70465675Y-110721599D01*
X70393544Y-110871170D01*
X70349655Y-111138830D01*
X70333585Y-111465051D01*
X70344912Y-111790306D01*
X70383211Y-112055070D01*
X70448061Y-112199814D01*
X70476260Y-112211111D01*
X70589503Y-112177395D01*
X70878201Y-112079566D01*
X71328431Y-111922602D01*
X71926269Y-111711482D01*
X72657792Y-111451181D01*
X73509077Y-111146680D01*
X74466202Y-110802955D01*
X75515242Y-110424985D01*
X76642275Y-110017748D01*
X77833377Y-109586220D01*
X78816934Y-109229072D01*
X80082434Y-108769110D01*
X81318745Y-108319802D01*
X82509209Y-107887199D01*
X83637167Y-107477353D01*
X84685961Y-107096316D01*
X85638934Y-106750139D01*
X86479426Y-106444873D01*
X87190779Y-106186571D01*
X87756336Y-105981282D01*
X88159437Y-105835060D01*
X88320647Y-105776654D01*
X88941074Y-105543276D01*
X89391663Y-105344636D01*
X89695971Y-105158579D01*
X89877552Y-104962948D01*
X89959962Y-104735588D01*
X89966757Y-104454343D01*
X89944204Y-104249553D01*
G37*
X89944204Y-104249553D02*
X89895613Y-103945267D01*
X89837276Y-103796445D01*
X89736568Y-103758265D01*
X89600803Y-103777815D01*
X89459837Y-103821170D01*
X89146592Y-103927526D01*
X88678171Y-104090796D01*
X88071675Y-104304893D01*
X87344204Y-104563731D01*
X86512860Y-104861223D01*
X85594744Y-105191282D01*
X84606958Y-105547822D01*
X83566601Y-105924755D01*
X83456068Y-105964884D01*
X82418690Y-106340150D01*
X81437650Y-106692269D01*
X80529273Y-107015563D01*
X79709887Y-107304353D01*
X78995819Y-107552961D01*
X78403394Y-107755708D01*
X77948941Y-107906915D01*
X77648785Y-108000905D01*
X77519255Y-108031998D01*
X77515640Y-108030984D01*
X77521590Y-107993676D01*
X77579679Y-107910059D01*
X77698841Y-107771169D01*
X77888012Y-107568040D01*
X78156124Y-107291707D01*
X78512113Y-106933205D01*
X78964912Y-106483567D01*
X79523455Y-105933830D01*
X80196677Y-105275028D01*
X80993511Y-104498196D01*
X81922893Y-103594368D01*
X82359325Y-103170443D01*
X84350000Y-101237373D01*
X84350000Y-99588447D01*
X83921627Y-99966510D01*
X83742411Y-100132384D01*
X83442118Y-100419215D01*
X83042569Y-100805773D01*
X82565588Y-101270828D01*
X82032997Y-101793152D01*
X81466620Y-102351514D01*
X81267524Y-102548477D01*
X80642741Y-103166197D01*
X80143185Y-103656292D01*
X79751336Y-104033476D01*
X79449675Y-104312464D01*
X79220681Y-104507970D01*
X79046835Y-104634708D01*
X78910616Y-104707395D01*
X78794505Y-104740743D01*
X78680983Y-104749468D01*
X78646889Y-104749500D01*
X78459220Y-104741392D01*
X78095245Y-104719535D01*
X77579653Y-104685634D01*
X76937132Y-104641393D01*
X76192370Y-104588516D01*
X75370056Y-104528706D01*
X74494877Y-104463669D01*
X74371429Y-104454386D01*
X73506713Y-104391376D01*
X72704924Y-104337010D01*
X71988308Y-104292491D01*
X71379109Y-104259020D01*
X70899573Y-104237801D01*
X70571945Y-104230036D01*
X70418470Y-104236928D01*
X70410551Y-104240247D01*
X70375147Y-104372804D01*
X70356657Y-104649426D01*
X70358616Y-105013033D01*
X70360154Y-105053969D01*
X70392358Y-105486822D01*
X70450266Y-105747854D01*
X70540309Y-105865907D01*
X70541270Y-105866401D01*
X70675207Y-105889411D01*
X70985782Y-105919368D01*
X71448230Y-105954608D01*
X72037786Y-105993464D01*
X72729686Y-106034271D01*
X73499163Y-106075364D01*
X74051448Y-106102494D01*
X74855972Y-106142128D01*
X75596703Y-106181464D01*
X76249461Y-106218997D01*
X76790067Y-106253220D01*
X77194341Y-106282629D01*
X77438103Y-106305719D01*
X77500088Y-106317189D01*
X77464290Y-106401675D01*
X77304970Y-106594805D01*
X77048695Y-106870650D01*
X76722031Y-107203278D01*
X76351546Y-107566760D01*
X75963808Y-107935164D01*
X75585382Y-108282560D01*
X75242836Y-108583017D01*
X74962738Y-108810604D01*
X74891865Y-108862930D01*
X74550134Y-109089545D01*
X74179161Y-109296773D01*
X73743517Y-109500296D01*
X73207775Y-109715801D01*
X72536506Y-109958971D01*
X72002778Y-110141980D01*
X71494698Y-110317505D01*
X71050095Y-110478501D01*
X70706468Y-110610827D01*
X70501313Y-110700344D01*
X70465675Y-110721599D01*
X70393544Y-110871170D01*
X70349655Y-111138830D01*
X70333585Y-111465051D01*
X70344912Y-111790306D01*
X70383211Y-112055070D01*
X70448061Y-112199814D01*
X70476260Y-112211111D01*
X70589503Y-112177395D01*
X70878201Y-112079566D01*
X71328431Y-111922602D01*
X71926269Y-111711482D01*
X72657792Y-111451181D01*
X73509077Y-111146680D01*
X74466202Y-110802955D01*
X75515242Y-110424985D01*
X76642275Y-110017748D01*
X77833377Y-109586220D01*
X78816934Y-109229072D01*
X80082434Y-108769110D01*
X81318745Y-108319802D01*
X82509209Y-107887199D01*
X83637167Y-107477353D01*
X84685961Y-107096316D01*
X85638934Y-106750139D01*
X86479426Y-106444873D01*
X87190779Y-106186571D01*
X87756336Y-105981282D01*
X88159437Y-105835060D01*
X88320647Y-105776654D01*
X88941074Y-105543276D01*
X89391663Y-105344636D01*
X89695971Y-105158579D01*
X89877552Y-104962948D01*
X89959962Y-104735588D01*
X89966757Y-104454343D01*
X89944204Y-104249553D01*
G36*
X88459576Y-84607024D02*
G01*
X88421359Y-84450704D01*
X88280591Y-84314277D01*
X88177547Y-84291269D01*
X88028441Y-84324758D01*
X87723615Y-84417906D01*
X87296152Y-84559733D01*
X86779140Y-84739261D01*
X86205664Y-84945512D01*
X86203159Y-84946428D01*
X85641762Y-85151139D01*
X85149104Y-85329709D01*
X84754967Y-85471431D01*
X84489129Y-85565601D01*
X84381370Y-85601512D01*
X84380700Y-85601587D01*
X84368613Y-85507427D01*
X84358766Y-85251475D01*
X84352214Y-84873522D01*
X84350000Y-84442460D01*
X84348583Y-83921826D01*
X84331783Y-83577025D01*
X84280778Y-83382333D01*
X84176747Y-83312024D01*
X84000868Y-83340373D01*
X83734319Y-83441655D01*
X83644444Y-83478136D01*
X83190873Y-83661675D01*
X83090079Y-86045779D01*
X82535714Y-86275315D01*
X82322926Y-86358582D01*
X81943540Y-86501844D01*
X81420557Y-86696616D01*
X80776979Y-86934413D01*
X80035805Y-87206750D01*
X79220039Y-87505140D01*
X78352679Y-87821098D01*
X77899206Y-87985783D01*
X76775662Y-88391453D01*
X75824174Y-88729359D01*
X75028321Y-89003246D01*
X74371683Y-89216856D01*
X73837835Y-89373932D01*
X73410358Y-89478218D01*
X73072828Y-89533457D01*
X72808825Y-89543392D01*
X72601926Y-89511766D01*
X72435709Y-89442322D01*
X72293753Y-89338804D01*
X72229443Y-89278144D01*
X71958971Y-88885431D01*
X71791513Y-88384524D01*
X71751356Y-87995436D01*
X71743019Y-87794064D01*
X71725595Y-87718304D01*
X71591660Y-87755987D01*
X71339847Y-87850681D01*
X71035428Y-87975178D01*
X70743677Y-88102269D01*
X70529867Y-88204747D01*
X70465675Y-88243488D01*
X70383887Y-88420699D01*
X70353930Y-88737820D01*
X70376488Y-89139773D01*
X70449351Y-89559303D01*
X70664295Y-90210633D01*
X70970054Y-90689256D01*
X71382838Y-91009741D01*
X71918856Y-91186656D01*
X72308426Y-91230056D01*
X72601885Y-91237838D01*
X72870262Y-91222701D01*
X73156935Y-91175468D01*
X73505284Y-91086965D01*
X73958687Y-90948015D01*
X74526331Y-90760896D01*
X74995204Y-90600355D01*
X75616599Y-90382239D01*
X76354223Y-90119578D01*
X77171780Y-89825404D01*
X78032974Y-89512747D01*
X78901511Y-89194638D01*
X79360714Y-89025211D01*
X80142578Y-88737629D01*
X80870466Y-88473162D01*
X81521331Y-88239935D01*
X82072126Y-88046073D01*
X82499806Y-87899700D01*
X82781324Y-87808940D01*
X82888492Y-87781587D01*
X82990445Y-87793074D01*
X83053825Y-87870316D01*
X83090547Y-88053376D01*
X83112528Y-88382319D01*
X83119681Y-88558895D01*
X83139233Y-88953894D01*
X83167908Y-89183291D01*
X83215780Y-89283066D01*
X83292922Y-89289202D01*
X83321269Y-89278988D01*
X83520613Y-89203057D01*
X83814386Y-89096718D01*
X83925751Y-89057426D01*
X84358249Y-88906017D01*
X84334600Y-88165257D01*
X84342685Y-87677975D01*
X84424150Y-87342702D01*
X84609425Y-87114490D01*
X84928943Y-86948388D01*
X85223486Y-86852305D01*
X85576085Y-86741847D01*
X86019876Y-86591195D01*
X86514799Y-86415331D01*
X87020797Y-86229239D01*
X87497809Y-86047900D01*
X87905777Y-85886298D01*
X88204643Y-85759415D01*
X88354348Y-85682233D01*
X88356548Y-85680490D01*
X88427184Y-85524688D01*
X88470540Y-85243766D01*
X88482657Y-84912840D01*
X88459576Y-84607024D01*
G37*
X88459576Y-84607024D02*
X88421359Y-84450704D01*
X88280591Y-84314277D01*
X88177547Y-84291269D01*
X88028441Y-84324758D01*
X87723615Y-84417906D01*
X87296152Y-84559733D01*
X86779140Y-84739261D01*
X86205664Y-84945512D01*
X86203159Y-84946428D01*
X85641762Y-85151139D01*
X85149104Y-85329709D01*
X84754967Y-85471431D01*
X84489129Y-85565601D01*
X84381370Y-85601512D01*
X84380700Y-85601587D01*
X84368613Y-85507427D01*
X84358766Y-85251475D01*
X84352214Y-84873522D01*
X84350000Y-84442460D01*
X84348583Y-83921826D01*
X84331783Y-83577025D01*
X84280778Y-83382333D01*
X84176747Y-83312024D01*
X84000868Y-83340373D01*
X83734319Y-83441655D01*
X83644444Y-83478136D01*
X83190873Y-83661675D01*
X83090079Y-86045779D01*
X82535714Y-86275315D01*
X82322926Y-86358582D01*
X81943540Y-86501844D01*
X81420557Y-86696616D01*
X80776979Y-86934413D01*
X80035805Y-87206750D01*
X79220039Y-87505140D01*
X78352679Y-87821098D01*
X77899206Y-87985783D01*
X76775662Y-88391453D01*
X75824174Y-88729359D01*
X75028321Y-89003246D01*
X74371683Y-89216856D01*
X73837835Y-89373932D01*
X73410358Y-89478218D01*
X73072828Y-89533457D01*
X72808825Y-89543392D01*
X72601926Y-89511766D01*
X72435709Y-89442322D01*
X72293753Y-89338804D01*
X72229443Y-89278144D01*
X71958971Y-88885431D01*
X71791513Y-88384524D01*
X71751356Y-87995436D01*
X71743019Y-87794064D01*
X71725595Y-87718304D01*
X71591660Y-87755987D01*
X71339847Y-87850681D01*
X71035428Y-87975178D01*
X70743677Y-88102269D01*
X70529867Y-88204747D01*
X70465675Y-88243488D01*
X70383887Y-88420699D01*
X70353930Y-88737820D01*
X70376488Y-89139773D01*
X70449351Y-89559303D01*
X70664295Y-90210633D01*
X70970054Y-90689256D01*
X71382838Y-91009741D01*
X71918856Y-91186656D01*
X72308426Y-91230056D01*
X72601885Y-91237838D01*
X72870262Y-91222701D01*
X73156935Y-91175468D01*
X73505284Y-91086965D01*
X73958687Y-90948015D01*
X74526331Y-90760896D01*
X74995204Y-90600355D01*
X75616599Y-90382239D01*
X76354223Y-90119578D01*
X77171780Y-89825404D01*
X78032974Y-89512747D01*
X78901511Y-89194638D01*
X79360714Y-89025211D01*
X80142578Y-88737629D01*
X80870466Y-88473162D01*
X81521331Y-88239935D01*
X82072126Y-88046073D01*
X82499806Y-87899700D01*
X82781324Y-87808940D01*
X82888492Y-87781587D01*
X82990445Y-87793074D01*
X83053825Y-87870316D01*
X83090547Y-88053376D01*
X83112528Y-88382319D01*
X83119681Y-88558895D01*
X83139233Y-88953894D01*
X83167908Y-89183291D01*
X83215780Y-89283066D01*
X83292922Y-89289202D01*
X83321269Y-89278988D01*
X83520613Y-89203057D01*
X83814386Y-89096718D01*
X83925751Y-89057426D01*
X84358249Y-88906017D01*
X84334600Y-88165257D01*
X84342685Y-87677975D01*
X84424150Y-87342702D01*
X84609425Y-87114490D01*
X84928943Y-86948388D01*
X85223486Y-86852305D01*
X85576085Y-86741847D01*
X86019876Y-86591195D01*
X86514799Y-86415331D01*
X87020797Y-86229239D01*
X87497809Y-86047900D01*
X87905777Y-85886298D01*
X88204643Y-85759415D01*
X88354348Y-85682233D01*
X88356548Y-85680490D01*
X88427184Y-85524688D01*
X88470540Y-85243766D01*
X88482657Y-84912840D01*
X88459576Y-84607024D01*
G36*
X84545180Y-76379929D02*
G01*
X84507032Y-76287086D01*
X84399776Y-76269324D01*
X84188507Y-76325932D01*
X83838321Y-76456199D01*
X83647847Y-76530205D01*
X83386411Y-76641780D01*
X83215888Y-76761825D01*
X83107391Y-76937852D01*
X83032031Y-77217371D01*
X82960921Y-77647894D01*
X82958508Y-77663925D01*
X82738410Y-78527251D01*
X82355858Y-79271286D01*
X81811210Y-79895525D01*
X81104825Y-80399467D01*
X80952724Y-80481386D01*
X80722856Y-80585044D01*
X80324386Y-80748147D01*
X79778649Y-80962593D01*
X79106977Y-81220283D01*
X78330705Y-81513116D01*
X77471166Y-81832992D01*
X76549693Y-82171810D01*
X75587620Y-82521470D01*
X75429762Y-82578452D01*
X74486565Y-82919574D01*
X73599230Y-83242401D01*
X72786171Y-83540102D01*
X72065802Y-83805843D01*
X71456536Y-84032792D01*
X70976789Y-84214116D01*
X70644974Y-84342984D01*
X70479505Y-84412563D01*
X70465675Y-84420346D01*
X70390852Y-84585833D01*
X70348397Y-84929113D01*
X70339683Y-85255722D01*
X70339683Y-85993904D01*
X70868849Y-85807024D01*
X71649914Y-85529553D01*
X72518378Y-85218160D01*
X73456939Y-84879258D01*
X74448292Y-84519266D01*
X75475135Y-84144597D01*
X76520162Y-83761670D01*
X77566070Y-83376899D01*
X78595556Y-82996700D01*
X79591315Y-82627490D01*
X80536044Y-82275684D01*
X81412438Y-81947699D01*
X82203195Y-81649950D01*
X82891009Y-81388854D01*
X83458578Y-81170826D01*
X83888597Y-81002282D01*
X84163763Y-80889639D01*
X84266772Y-80839312D01*
X84266799Y-80839272D01*
X84307907Y-80678994D01*
X84337345Y-80382775D01*
X84348457Y-80033149D01*
X84350000Y-79353202D01*
X83820833Y-79554328D01*
X83501103Y-79675717D01*
X83327062Y-79733752D01*
X83254797Y-79733556D01*
X83240397Y-79680252D01*
X83241270Y-79621934D01*
X83309443Y-79465210D01*
X83474421Y-79269375D01*
X83483604Y-79260653D01*
X83763055Y-78910696D01*
X84032536Y-78421097D01*
X84267907Y-77853303D01*
X84445027Y-77268759D01*
X84539754Y-76728913D01*
X84549123Y-76548565D01*
X84545180Y-76379929D01*
G37*
X84545180Y-76379929D02*
X84507032Y-76287086D01*
X84399776Y-76269324D01*
X84188507Y-76325932D01*
X83838321Y-76456199D01*
X83647847Y-76530205D01*
X83386411Y-76641780D01*
X83215888Y-76761825D01*
X83107391Y-76937852D01*
X83032031Y-77217371D01*
X82960921Y-77647894D01*
X82958508Y-77663925D01*
X82738410Y-78527251D01*
X82355858Y-79271286D01*
X81811210Y-79895525D01*
X81104825Y-80399467D01*
X80952724Y-80481386D01*
X80722856Y-80585044D01*
X80324386Y-80748147D01*
X79778649Y-80962593D01*
X79106977Y-81220283D01*
X78330705Y-81513116D01*
X77471166Y-81832992D01*
X76549693Y-82171810D01*
X75587620Y-82521470D01*
X75429762Y-82578452D01*
X74486565Y-82919574D01*
X73599230Y-83242401D01*
X72786171Y-83540102D01*
X72065802Y-83805843D01*
X71456536Y-84032792D01*
X70976789Y-84214116D01*
X70644974Y-84342984D01*
X70479505Y-84412563D01*
X70465675Y-84420346D01*
X70390852Y-84585833D01*
X70348397Y-84929113D01*
X70339683Y-85255722D01*
X70339683Y-85993904D01*
X70868849Y-85807024D01*
X71649914Y-85529553D01*
X72518378Y-85218160D01*
X73456939Y-84879258D01*
X74448292Y-84519266D01*
X75475135Y-84144597D01*
X76520162Y-83761670D01*
X77566070Y-83376899D01*
X78595556Y-82996700D01*
X79591315Y-82627490D01*
X80536044Y-82275684D01*
X81412438Y-81947699D01*
X82203195Y-81649950D01*
X82891009Y-81388854D01*
X83458578Y-81170826D01*
X83888597Y-81002282D01*
X84163763Y-80889639D01*
X84266772Y-80839312D01*
X84266799Y-80839272D01*
X84307907Y-80678994D01*
X84337345Y-80382775D01*
X84348457Y-80033149D01*
X84350000Y-79353202D01*
X83820833Y-79554328D01*
X83501103Y-79675717D01*
X83327062Y-79733752D01*
X83254797Y-79733556D01*
X83240397Y-79680252D01*
X83241270Y-79621934D01*
X83309443Y-79465210D01*
X83474421Y-79269375D01*
X83483604Y-79260653D01*
X83763055Y-78910696D01*
X84032536Y-78421097D01*
X84267907Y-77853303D01*
X84445027Y-77268759D01*
X84539754Y-76728913D01*
X84549123Y-76548565D01*
X84545180Y-76379929D01*
G36*
X89561836Y-154819822D02*
G01*
X89520932Y-154677202D01*
X89469060Y-154647518D01*
X89320932Y-154684546D01*
X89038783Y-154781249D01*
X88674525Y-154919421D01*
X88535046Y-154975097D01*
X88070867Y-155181861D01*
X87757641Y-155387493D01*
X87573272Y-155633781D01*
X87495667Y-155962509D01*
X87502732Y-156415466D01*
X87547864Y-156842155D01*
X87565913Y-156989301D01*
X87598437Y-157081641D01*
X87677368Y-157117081D01*
X87834636Y-157093526D01*
X88102170Y-157008882D01*
X88511902Y-156861056D01*
X88784921Y-156761021D01*
X89540873Y-156484622D01*
X89569854Y-155564930D01*
X89577102Y-155106259D01*
X89561836Y-154819822D01*
G37*
X89561836Y-154819822D02*
X89520932Y-154677202D01*
X89469060Y-154647518D01*
X89320932Y-154684546D01*
X89038783Y-154781249D01*
X88674525Y-154919421D01*
X88535046Y-154975097D01*
X88070867Y-155181861D01*
X87757641Y-155387493D01*
X87573272Y-155633781D01*
X87495667Y-155962509D01*
X87502732Y-156415466D01*
X87547864Y-156842155D01*
X87565913Y-156989301D01*
X87598437Y-157081641D01*
X87677368Y-157117081D01*
X87834636Y-157093526D01*
X88102170Y-157008882D01*
X88511902Y-156861056D01*
X88784921Y-156761021D01*
X89540873Y-156484622D01*
X89569854Y-155564930D01*
X89577102Y-155106259D01*
X89561836Y-154819822D01*
G36*
X134279518Y-227186818D02*
G01*
X134792463Y-227102695D01*
X135537693Y-226952068D01*
X136544718Y-226736653D01*
X136722246Y-226698413D01*
X139365262Y-226073895D01*
X141955873Y-225354353D01*
X144443794Y-224557007D01*
X146778740Y-223699078D01*
X148910426Y-222797787D01*
X150733333Y-221900034D01*
X151606651Y-221403481D01*
X152598042Y-220792833D01*
X153638401Y-220114874D01*
X154658624Y-219416391D01*
X155589609Y-218744168D01*
X156362252Y-218144992D01*
X156692331Y-217865607D01*
X158315466Y-216263434D01*
X159664257Y-214577593D01*
X160731108Y-212819187D01*
X161508424Y-210999316D01*
X161615895Y-210669643D01*
X161857223Y-209627394D01*
X162004526Y-208423584D01*
X162049711Y-207186564D01*
X161984683Y-206044686D01*
X161931043Y-205671860D01*
X161457240Y-203819682D01*
X160694119Y-202002764D01*
X159653330Y-200227148D01*
X158346523Y-198498879D01*
X156785346Y-196823999D01*
X154981448Y-195208554D01*
X152946479Y-193658586D01*
X150692088Y-192180140D01*
X148229923Y-190779259D01*
X145571635Y-189461986D01*
X142728873Y-188234367D01*
X139713284Y-187102444D01*
X136536519Y-186072262D01*
X133210228Y-185149863D01*
X129746058Y-184341293D01*
X126155659Y-183652594D01*
X122450680Y-183089810D01*
X118642771Y-182658985D01*
X117356913Y-182546097D01*
X116098828Y-182459332D01*
X114648162Y-182385702D01*
X113069142Y-182326370D01*
X111425996Y-182282502D01*
X109782950Y-182255260D01*
X108204232Y-182245811D01*
X106754069Y-182255317D01*
X105496687Y-182284944D01*
X104771428Y-182317938D01*
X104009434Y-182363539D01*
X103353433Y-182405033D01*
X102863944Y-182438426D01*
X102601485Y-182459726D01*
X102579166Y-182462567D01*
X102649820Y-182519746D01*
X102955708Y-182655718D01*
X103446589Y-182849581D01*
X104015476Y-183060049D01*
X105002149Y-183446632D01*
X106119407Y-183935266D01*
X107277777Y-184482689D01*
X108387788Y-185045638D01*
X109359969Y-185580852D01*
X109877043Y-185894301D01*
X110305030Y-186160044D01*
X110625237Y-186344306D01*
X110756658Y-186403571D01*
X110933818Y-186491231D01*
X111309137Y-186734315D01*
X111841793Y-187102984D01*
X112490967Y-187567398D01*
X113215837Y-188097716D01*
X113975583Y-188664098D01*
X114729384Y-189236704D01*
X115436420Y-189785693D01*
X116009540Y-190243474D01*
X116644358Y-190782097D01*
X117433743Y-191486725D01*
X118322253Y-192305808D01*
X119254445Y-193187795D01*
X120174877Y-194081139D01*
X120725175Y-194627998D01*
X122930302Y-196917730D01*
X124901091Y-199128722D01*
X126677182Y-201310175D01*
X128298218Y-203511289D01*
X129803841Y-205781266D01*
X130117574Y-206285119D01*
X131506784Y-208672295D01*
X132698051Y-210994714D01*
X133688600Y-213238494D01*
X134475658Y-215389749D01*
X135056451Y-217434598D01*
X135428205Y-219359156D01*
X135588146Y-221149539D01*
X135533501Y-222791864D01*
X135261496Y-224272249D01*
X134769357Y-225576808D01*
X134166166Y-226549842D01*
X133960358Y-226823967D01*
X133839277Y-227023012D01*
X133832436Y-227148692D01*
X133969346Y-227202722D01*
X134279518Y-227186818D01*
G37*
X134279518Y-227186818D02*
X134792463Y-227102695D01*
X135537693Y-226952068D01*
X136544718Y-226736653D01*
X136722246Y-226698413D01*
X139365262Y-226073895D01*
X141955873Y-225354353D01*
X144443794Y-224557007D01*
X146778740Y-223699078D01*
X148910426Y-222797787D01*
X150733333Y-221900034D01*
X151606651Y-221403481D01*
X152598042Y-220792833D01*
X153638401Y-220114874D01*
X154658624Y-219416391D01*
X155589609Y-218744168D01*
X156362252Y-218144992D01*
X156692331Y-217865607D01*
X158315466Y-216263434D01*
X159664257Y-214577593D01*
X160731108Y-212819187D01*
X161508424Y-210999316D01*
X161615895Y-210669643D01*
X161857223Y-209627394D01*
X162004526Y-208423584D01*
X162049711Y-207186564D01*
X161984683Y-206044686D01*
X161931043Y-205671860D01*
X161457240Y-203819682D01*
X160694119Y-202002764D01*
X159653330Y-200227148D01*
X158346523Y-198498879D01*
X156785346Y-196823999D01*
X154981448Y-195208554D01*
X152946479Y-193658586D01*
X150692088Y-192180140D01*
X148229923Y-190779259D01*
X145571635Y-189461986D01*
X142728873Y-188234367D01*
X139713284Y-187102444D01*
X136536519Y-186072262D01*
X133210228Y-185149863D01*
X129746058Y-184341293D01*
X126155659Y-183652594D01*
X122450680Y-183089810D01*
X118642771Y-182658985D01*
X117356913Y-182546097D01*
X116098828Y-182459332D01*
X114648162Y-182385702D01*
X113069142Y-182326370D01*
X111425996Y-182282502D01*
X109782950Y-182255260D01*
X108204232Y-182245811D01*
X106754069Y-182255317D01*
X105496687Y-182284944D01*
X104771428Y-182317938D01*
X104009434Y-182363539D01*
X103353433Y-182405033D01*
X102863944Y-182438426D01*
X102601485Y-182459726D01*
X102579166Y-182462567D01*
X102649820Y-182519746D01*
X102955708Y-182655718D01*
X103446589Y-182849581D01*
X104015476Y-183060049D01*
X105002149Y-183446632D01*
X106119407Y-183935266D01*
X107277777Y-184482689D01*
X108387788Y-185045638D01*
X109359969Y-185580852D01*
X109877043Y-185894301D01*
X110305030Y-186160044D01*
X110625237Y-186344306D01*
X110756658Y-186403571D01*
X110933818Y-186491231D01*
X111309137Y-186734315D01*
X111841793Y-187102984D01*
X112490967Y-187567398D01*
X113215837Y-188097716D01*
X113975583Y-188664098D01*
X114729384Y-189236704D01*
X115436420Y-189785693D01*
X116009540Y-190243474D01*
X116644358Y-190782097D01*
X117433743Y-191486725D01*
X118322253Y-192305808D01*
X119254445Y-193187795D01*
X120174877Y-194081139D01*
X120725175Y-194627998D01*
X122930302Y-196917730D01*
X124901091Y-199128722D01*
X126677182Y-201310175D01*
X128298218Y-203511289D01*
X129803841Y-205781266D01*
X130117574Y-206285119D01*
X131506784Y-208672295D01*
X132698051Y-210994714D01*
X133688600Y-213238494D01*
X134475658Y-215389749D01*
X135056451Y-217434598D01*
X135428205Y-219359156D01*
X135588146Y-221149539D01*
X135533501Y-222791864D01*
X135261496Y-224272249D01*
X134769357Y-225576808D01*
X134166166Y-226549842D01*
X133960358Y-226823967D01*
X133839277Y-227023012D01*
X133832436Y-227148692D01*
X133969346Y-227202722D01*
X134279518Y-227186818D01*
G36*
X120023014Y-228493504D02*
G01*
X121224299Y-228486251D01*
X122296784Y-228471538D01*
X123197816Y-228449148D01*
X123884737Y-228418863D01*
X124314893Y-228380465D01*
X124333402Y-228377611D01*
X125072161Y-228258626D01*
X123728640Y-227809527D01*
X122765236Y-227446679D01*
X121629334Y-226953103D01*
X120398788Y-226367656D01*
X119151452Y-225729194D01*
X117965178Y-225076574D01*
X116917819Y-224448653D01*
X116654035Y-224278596D01*
X116065857Y-223895216D01*
X115575263Y-223581595D01*
X115233927Y-223370340D01*
X115093822Y-223294048D01*
X114948323Y-223204607D01*
X114610947Y-222958902D01*
X114124898Y-222590860D01*
X113533376Y-222134407D01*
X112879585Y-221623471D01*
X112206725Y-221091978D01*
X111558000Y-220573854D01*
X110976610Y-220103027D01*
X110505759Y-219713423D01*
X110214285Y-219462129D01*
X108658933Y-218046831D01*
X107292663Y-216755839D01*
X106061923Y-215533006D01*
X104913162Y-214322188D01*
X103792827Y-213067238D01*
X102647366Y-211712011D01*
X101643830Y-210476593D01*
X101000569Y-209654152D01*
X100313770Y-208742893D01*
X99614672Y-207787486D01*
X98934513Y-206832600D01*
X98304532Y-205922904D01*
X97755967Y-205103069D01*
X97320057Y-204417763D01*
X97028040Y-203911655D01*
X96968068Y-203790476D01*
X96780595Y-203473351D01*
X96679747Y-203336905D01*
X96479149Y-203032622D01*
X96182095Y-202509917D01*
X95817393Y-201825579D01*
X95413853Y-201036399D01*
X95000284Y-200199168D01*
X94605495Y-199370677D01*
X94258295Y-198607717D01*
X94126374Y-198303524D01*
X93274436Y-196126975D01*
X92641291Y-194108611D01*
X92216643Y-192209255D01*
X91990199Y-190389725D01*
X91971671Y-190103346D01*
X91965071Y-188422259D01*
X92152092Y-186953167D01*
X92538960Y-185670755D01*
X93131900Y-184549703D01*
X93442428Y-184122728D01*
X93712441Y-183773281D01*
X93805402Y-183601219D01*
X93733209Y-183547850D01*
X93558240Y-183551542D01*
X93114301Y-183595356D01*
X92827381Y-183637129D01*
X92151350Y-183766931D01*
X91262102Y-183957152D01*
X90238308Y-184189249D01*
X89158639Y-184444677D01*
X88101766Y-184704892D01*
X87146361Y-184951350D01*
X86495872Y-185129589D01*
X83157054Y-186177324D01*
X80091984Y-187340251D01*
X77301948Y-188617671D01*
X74788229Y-190008886D01*
X72552112Y-191513197D01*
X70594883Y-193129905D01*
X69205005Y-194532272D01*
X67950734Y-196058240D01*
X66973998Y-197555077D01*
X66257518Y-199060878D01*
X65784016Y-200613739D01*
X65536212Y-202251759D01*
X65507173Y-202685440D01*
X65520776Y-204328052D01*
X65751137Y-205858159D01*
X66217126Y-207362112D01*
X66822263Y-208703468D01*
X67501803Y-209948617D01*
X68210209Y-211044509D01*
X69013017Y-212079603D01*
X69975764Y-213142358D01*
X70519145Y-213693452D01*
X71532348Y-214673997D01*
X72461597Y-215510642D01*
X73383190Y-216263672D01*
X74373425Y-216993371D01*
X75508600Y-217760025D01*
X76347619Y-218298681D01*
X79288772Y-220007557D01*
X82485579Y-221577063D01*
X85923153Y-223002884D01*
X89586602Y-224280706D01*
X93461037Y-225406214D01*
X97531570Y-226375095D01*
X101783312Y-227183032D01*
X106201371Y-227825714D01*
X110770861Y-228298824D01*
X110894643Y-228309078D01*
X111590719Y-228353673D01*
X112499240Y-228392548D01*
X113577552Y-228425486D01*
X114782998Y-228452269D01*
X116072922Y-228472680D01*
X117404670Y-228486501D01*
X118735586Y-228493515D01*
X120023014Y-228493504D01*
G37*
X120023014Y-228493504D02*
X121224299Y-228486251D01*
X122296784Y-228471538D01*
X123197816Y-228449148D01*
X123884737Y-228418863D01*
X124314893Y-228380465D01*
X124333402Y-228377611D01*
X125072161Y-228258626D01*
X123728640Y-227809527D01*
X122765236Y-227446679D01*
X121629334Y-226953103D01*
X120398788Y-226367656D01*
X119151452Y-225729194D01*
X117965178Y-225076574D01*
X116917819Y-224448653D01*
X116654035Y-224278596D01*
X116065857Y-223895216D01*
X115575263Y-223581595D01*
X115233927Y-223370340D01*
X115093822Y-223294048D01*
X114948323Y-223204607D01*
X114610947Y-222958902D01*
X114124898Y-222590860D01*
X113533376Y-222134407D01*
X112879585Y-221623471D01*
X112206725Y-221091978D01*
X111558000Y-220573854D01*
X110976610Y-220103027D01*
X110505759Y-219713423D01*
X110214285Y-219462129D01*
X108658933Y-218046831D01*
X107292663Y-216755839D01*
X106061923Y-215533006D01*
X104913162Y-214322188D01*
X103792827Y-213067238D01*
X102647366Y-211712011D01*
X101643830Y-210476593D01*
X101000569Y-209654152D01*
X100313770Y-208742893D01*
X99614672Y-207787486D01*
X98934513Y-206832600D01*
X98304532Y-205922904D01*
X97755967Y-205103069D01*
X97320057Y-204417763D01*
X97028040Y-203911655D01*
X96968068Y-203790476D01*
X96780595Y-203473351D01*
X96679747Y-203336905D01*
X96479149Y-203032622D01*
X96182095Y-202509917D01*
X95817393Y-201825579D01*
X95413853Y-201036399D01*
X95000284Y-200199168D01*
X94605495Y-199370677D01*
X94258295Y-198607717D01*
X94126374Y-198303524D01*
X93274436Y-196126975D01*
X92641291Y-194108611D01*
X92216643Y-192209255D01*
X91990199Y-190389725D01*
X91971671Y-190103346D01*
X91965071Y-188422259D01*
X92152092Y-186953167D01*
X92538960Y-185670755D01*
X93131900Y-184549703D01*
X93442428Y-184122728D01*
X93712441Y-183773281D01*
X93805402Y-183601219D01*
X93733209Y-183547850D01*
X93558240Y-183551542D01*
X93114301Y-183595356D01*
X92827381Y-183637129D01*
X92151350Y-183766931D01*
X91262102Y-183957152D01*
X90238308Y-184189249D01*
X89158639Y-184444677D01*
X88101766Y-184704892D01*
X87146361Y-184951350D01*
X86495872Y-185129589D01*
X83157054Y-186177324D01*
X80091984Y-187340251D01*
X77301948Y-188617671D01*
X74788229Y-190008886D01*
X72552112Y-191513197D01*
X70594883Y-193129905D01*
X69205005Y-194532272D01*
X67950734Y-196058240D01*
X66973998Y-197555077D01*
X66257518Y-199060878D01*
X65784016Y-200613739D01*
X65536212Y-202251759D01*
X65507173Y-202685440D01*
X65520776Y-204328052D01*
X65751137Y-205858159D01*
X66217126Y-207362112D01*
X66822263Y-208703468D01*
X67501803Y-209948617D01*
X68210209Y-211044509D01*
X69013017Y-212079603D01*
X69975764Y-213142358D01*
X70519145Y-213693452D01*
X71532348Y-214673997D01*
X72461597Y-215510642D01*
X73383190Y-216263672D01*
X74373425Y-216993371D01*
X75508600Y-217760025D01*
X76347619Y-218298681D01*
X79288772Y-220007557D01*
X82485579Y-221577063D01*
X85923153Y-223002884D01*
X89586602Y-224280706D01*
X93461037Y-225406214D01*
X97531570Y-226375095D01*
X101783312Y-227183032D01*
X106201371Y-227825714D01*
X110770861Y-228298824D01*
X110894643Y-228309078D01*
X111590719Y-228353673D01*
X112499240Y-228392548D01*
X113577552Y-228425486D01*
X114782998Y-228452269D01*
X116072922Y-228472680D01*
X117404670Y-228486501D01*
X118735586Y-228493515D01*
X120023014Y-228493504D01*
D14*
X97540000Y-48590000D02*
X97540000Y-35310000D01*
X100460000Y-48590000D02*
X100460000Y-35310000D01*
X92140000Y-48590000D02*
X92140000Y-35310000D01*
X95060000Y-48590000D02*
X95060000Y-35310000D01*
X75060000Y-48590000D02*
X75060000Y-35310000D01*
X72140000Y-48590000D02*
X72140000Y-35310000D01*
X80460000Y-48590000D02*
X80460000Y-35310000D01*
X77540000Y-48590000D02*
X77540000Y-35310000D01*
X142060000Y-48590000D02*
X142060000Y-35310000D01*
X139140000Y-48590000D02*
X139140000Y-35310000D01*
X147460000Y-48590000D02*
X147460000Y-35310000D01*
X144540000Y-48590000D02*
X144540000Y-35310000D01*
X122060000Y-48590000D02*
X122060000Y-35310000D01*
X119140000Y-48590000D02*
X119140000Y-35310000D01*
X127460000Y-48590000D02*
X127460000Y-35310000D01*
X124540000Y-48590000D02*
X124540000Y-35310000D01*
M02*
