M48
; DRILL file {KiCad (5.1.7)-1} date 01/29/22 11:50:15
; FORMAT={-:-/ absolute / metric / decimal}
; #@! TF.CreationDate,2022-01-29T11:50:15-05:00
; #@! TF.GenerationSoftware,Kicad,Pcbnew,(5.1.7)-1
FMAT,2
METRIC
T1C0.400
T2C0.635
T3C1.000
T4C1.100
T5C1.270
T6C1.520
T7C1.750
T8C3.200
%
G90
G05
T1
X98.0Y-91.25
X98.0Y-93.75
X98.0Y-96.25
X99.75Y-157.75
X99.75Y-161.0
X107.25Y-153.5
X114.0Y-153.5
X119.0Y-170.5
X120.0Y-108.25
X120.25Y-101.75
X120.25Y-104.75
X120.299Y-98.799
X121.5Y-119.5
X122.0Y-82.75
X122.331Y-108.419
X123.25Y-101.75
X123.5Y-167.25
X124.0Y-122.0
X124.0Y-124.75
X124.0Y-126.75
X124.0Y-128.25
X124.0Y-129.75
X128.5Y-124.75
X128.5Y-126.75
X128.5Y-128.25
X128.5Y-129.75
X132.5Y-164.5
X133.5Y-174.0
X138.0Y-124.75
X138.0Y-126.75
X138.0Y-128.25
X138.0Y-129.75
X142.0Y-82.75
X142.5Y-119.25
X144.75Y-121.5
X145.75Y-116.0
X147.0Y-123.75
X148.0Y-118.25
X149.0Y-112.75
X150.25Y-120.5
X151.25Y-115.0
X152.25Y-109.5
X153.5Y-117.25
X154.5Y-111.75
X156.75Y-114.0
X157.5Y-115.5
X157.5Y-134.0
X157.5Y-156.0
X161.0Y-73.0
X161.0Y-95.0
T2
X65.5Y-177.5
X68.0Y-177.5
X70.5Y-177.5
X73.0Y-177.5
X75.5Y-177.5
X78.0Y-177.5
X80.5Y-177.5
X83.0Y-177.5
X85.5Y-177.5
X87.025Y-128.525
X88.0Y-177.5
X90.5Y-177.5
X93.0Y-177.5
X94.5Y-128.5
X95.5Y-177.5
X97.5Y-144.5
X97.5Y-151.5
X97.5Y-155.0
X98.0Y-177.5
X100.15Y-122.175
X100.5Y-177.5
X103.0Y-177.5
X104.0Y-161.0
X105.5Y-177.5
X105.75Y-164.5
X108.0Y-177.5
X110.5Y-177.5
X113.0Y-177.5
X115.5Y-177.5
X118.0Y-177.5
X120.5Y-177.5
X123.0Y-177.5
X125.5Y-177.5
X128.0Y-177.5
X130.5Y-177.5
X133.0Y-177.5
X135.0Y-164.0
X135.5Y-177.5
X137.5Y-164.0
X138.0Y-173.5
X138.0Y-177.5
X140.5Y-173.5
X140.5Y-177.5
X143.0Y-177.5
X144.5Y-164.0
X147.0Y-164.0
X147.0Y-174.0
X149.0Y-166.0
X149.5Y-174.0
X150.5Y-177.5
X151.0Y-168.0
X152.0Y-174.0
X153.0Y-170.0
X153.0Y-177.5
X154.5Y-174.0
X155.0Y-172.0
X155.5Y-176.25
X155.5Y-180.0
X155.5Y-182.5
X156.75Y-184.5
X157.0Y-174.0
X158.0Y-177.5
X158.0Y-180.0
X158.0Y-182.5
X159.25Y-184.5
X160.5Y-177.5
X160.5Y-180.0
X160.5Y-182.5
T3
X123.42Y-76.75
X125.96Y-76.75
X128.5Y-76.75
X143.46Y-76.75
X146.0Y-76.75
X148.54Y-76.75
T4
X79.405Y-121.417
X81.945Y-103.637
X81.945Y-121.417
X84.485Y-103.637
X84.485Y-121.417
X87.025Y-103.637
X87.025Y-121.417
X89.565Y-103.637
X89.565Y-121.417
X92.105Y-121.417
X81.945Y-134.879
X84.485Y-134.879
X87.025Y-134.879
X89.565Y-134.879
X92.105Y-134.879
X94.645Y-134.879
X97.185Y-134.879
X78.5Y-77.6
X78.5Y-92.35
X124.935Y-95.59
X124.935Y-98.13
X124.935Y-100.67
X124.935Y-103.21
X124.935Y-105.75
X124.935Y-108.29
X124.935Y-110.83
X124.935Y-113.37
X124.935Y-115.91
X150.335Y-95.59
X150.335Y-98.13
X150.335Y-100.67
X150.335Y-103.21
X150.335Y-105.75
X124.395Y-133.59
X124.395Y-136.13
X124.395Y-138.67
X124.395Y-141.21
X124.395Y-143.75
X124.395Y-146.29
X124.395Y-148.83
X124.395Y-151.37
X124.395Y-153.91
X102.265Y-90.429
X102.265Y-92.969
X102.265Y-95.509
X102.265Y-98.049
X102.265Y-100.589
X102.265Y-103.129
X102.265Y-105.669
X102.265Y-108.209
X102.265Y-110.749
X102.265Y-113.289
X102.265Y-115.829
X102.265Y-118.369
X102.265Y-120.909
X102.265Y-123.449
X102.265Y-125.989
X102.265Y-128.529
X102.265Y-131.069
X102.265Y-133.609
X102.265Y-136.149
X102.265Y-138.689
X102.265Y-141.229
X102.265Y-143.769
X102.265Y-146.309
X102.265Y-148.849
X104.805Y-103.129
X104.805Y-136.149
X104.805Y-138.689
X104.805Y-141.229
X104.805Y-146.309
X107.345Y-90.429
X107.345Y-92.969
X107.345Y-95.509
X107.345Y-98.049
X107.345Y-100.589
X107.345Y-103.129
X107.345Y-105.669
X107.345Y-108.209
X107.345Y-110.749
X107.345Y-125.989
X107.345Y-128.529
X107.345Y-131.069
X107.345Y-133.609
X108.875Y-147.579
X109.885Y-90.429
X109.885Y-92.969
X109.885Y-95.509
X109.885Y-98.049
X109.885Y-100.589
X109.885Y-103.129
X109.885Y-105.669
X109.885Y-108.209
X109.885Y-110.749
X109.885Y-125.989
X109.885Y-128.529
X109.885Y-131.069
X109.885Y-133.609
X110.895Y-147.579
X112.425Y-103.129
X114.505Y-132.339
X114.505Y-134.879
X114.505Y-137.419
X114.505Y-139.959
X114.505Y-142.499
X114.965Y-103.129
X117.505Y-90.429
X117.505Y-92.969
X117.505Y-95.509
X117.505Y-98.049
X117.505Y-100.589
X117.505Y-103.129
X117.505Y-105.669
X117.505Y-108.209
X117.505Y-110.749
X117.505Y-113.289
X117.505Y-115.829
X117.505Y-118.369
X117.505Y-120.909
X117.505Y-123.449
X117.505Y-125.989
X117.505Y-128.529
X117.505Y-131.069
X117.505Y-133.609
X117.505Y-136.149
X117.505Y-138.689
X117.505Y-141.229
X117.505Y-143.769
X117.505Y-146.309
X117.505Y-148.849
T5
X65.0Y-181.5
X65.0Y-188.5
X65.0Y-195.5
X65.0Y-203.0
X65.0Y-210.0
X65.0Y-217.0
X65.0Y-226.0
X66.0Y-12.0
X66.0Y-28.0
X66.0Y-36.0
X66.0Y-44.0
X66.0Y-52.0
X66.0Y-60.0
X66.0Y-68.0
X68.5Y-76.5
X68.5Y-84.5
X68.5Y-92.5
X68.5Y-100.5
X68.5Y-108.5
X68.5Y-116.5
X68.5Y-124.5
X68.5Y-132.5
X68.5Y-140.5
X68.5Y-148.5
X68.5Y-156.5
X72.0Y-181.5
X72.0Y-195.5
X72.0Y-203.0
X72.0Y-217.0
X73.0Y-226.0
X74.0Y-12.0
X74.5Y-162.5
X78.5Y-84.5
X78.5Y-100.5
X78.5Y-108.5
X78.5Y-116.5
X78.5Y-132.5
X78.5Y-140.5
X78.5Y-148.5
X80.5Y-168.5
X81.0Y-226.0
X82.0Y-12.0
X84.5Y-154.5
X86.5Y-28.0
X86.5Y-36.0
X86.5Y-44.0
X86.5Y-52.0
X86.5Y-60.0
X86.5Y-68.0
X88.5Y-76.5
X88.5Y-84.5
X89.0Y-226.0
X90.0Y-12.0
X90.5Y-154.5
X90.5Y-160.5
X90.5Y-172.5
X96.5Y-76.5
X97.0Y-226.0
X98.0Y-12.0
X98.5Y-172.5
X104.0Y-76.5
X105.0Y-226.0
X106.0Y-12.0
X110.0Y-28.0
X110.0Y-36.0
X110.0Y-44.0
X110.0Y-52.0
X110.0Y-60.0
X110.0Y-68.0
X113.0Y-226.0
X114.0Y-12.0
X116.0Y-76.5
X120.5Y-173.0
X121.0Y-226.0
X122.0Y-12.0
X128.5Y-89.0
X129.0Y-226.0
X130.0Y-12.0
X130.0Y-121.0
X133.5Y-28.0
X133.5Y-36.0
X133.5Y-44.0
X133.5Y-52.0
X133.5Y-60.0
X133.5Y-68.0
X134.0Y-132.0
X135.0Y-159.0
X136.0Y-76.5
X137.0Y-226.0
X138.0Y-12.0
X138.0Y-121.0
X138.5Y-89.0
X142.0Y-132.0
X143.0Y-159.0
X145.0Y-226.0
X146.0Y-12.0
X148.5Y-89.0
X151.0Y-129.0
X151.0Y-159.0
X153.0Y-226.0
X154.0Y-12.0
X154.0Y-20.0
X154.0Y-28.0
X154.0Y-36.0
X154.0Y-44.0
X154.0Y-52.0
X154.0Y-60.0
X154.0Y-68.0
X156.0Y-76.5
X156.0Y-124.0
X156.0Y-164.0
X158.0Y-195.0
X158.0Y-202.0
X158.0Y-218.0
X160.0Y-226.0
X161.0Y-12.0
X161.0Y-20.0
X161.0Y-28.0
X161.0Y-36.0
X161.0Y-44.0
X161.0Y-52.0
X161.0Y-119.0
X161.0Y-141.0
X161.0Y-169.0
T6
X73.92Y-24.3
X79.0Y-24.3
X140.92Y-24.2
X146.0Y-24.2
X93.92Y-24.3
X99.0Y-24.3
X120.67Y-24.25
X125.75Y-24.25
T7
X73.6Y-66.25
X79.0Y-66.25
X120.6Y-66.25
X126.0Y-66.25
X140.6Y-66.25
X146.0Y-66.25
X93.6Y-66.25
X99.0Y-66.25
T8
X140.6Y-33.85
X140.6Y-50.05
X146.0Y-33.85
X146.0Y-50.05
X93.6Y-33.85
X93.6Y-50.05
X99.0Y-33.85
X99.0Y-50.05
X73.6Y-33.85
X73.6Y-50.05
X79.0Y-33.85
X79.0Y-50.05
X120.6Y-33.85
X120.6Y-50.05
X126.0Y-33.85
X126.0Y-50.05
T0
M30
