%TF.GenerationSoftware,KiCad,Pcbnew,(5.1.7)-1*%
%TF.CreationDate,2021-04-25T20:49:28-04:00*%
%TF.ProjectId,rev2,72657632-2e6b-4696-9361-645f70636258,rev?*%
%TF.SameCoordinates,Original*%
%TF.FileFunction,Legend,Top*%
%TF.FilePolarity,Positive*%
%FSLAX46Y46*%
G04 Gerber Fmt 4.6, Leading zero omitted, Abs format (unit mm)*
G04 Created by KiCad (PCBNEW (5.1.7)-1) date 2021-04-25 20:49:28*
%MOMM*%
%LPD*%
G01*
G04 APERTURE LIST*
%ADD10C,0.200000*%
%ADD11C,0.508000*%
%ADD12C,0.120000*%
%ADD13C,0.150000*%
%ADD14C,0.127000*%
%ADD15C,0.100000*%
%ADD16C,0.015000*%
G04 APERTURE END LIST*
D10*
X117000000Y-111400000D02*
X117700000Y-110700000D01*
D11*
X116600000Y-109400000D02*
X116600000Y-109500000D01*
D12*
X110606840Y-82687160D02*
X110987840Y-82687160D01*
X109717840Y-82687160D02*
X110098840Y-82687160D01*
X110606840Y-82433160D02*
X110606840Y-82941160D01*
X110606840Y-82687160D02*
X110098840Y-82306160D01*
X110098840Y-83068160D02*
X110606840Y-82687160D01*
X110098840Y-82306160D02*
X110098840Y-83068160D01*
D13*
X136380952Y-40177380D02*
X136571428Y-40177380D01*
X136666666Y-40225000D01*
X136761904Y-40320238D01*
X136809523Y-40510714D01*
X136809523Y-40844047D01*
X136761904Y-41034523D01*
X136666666Y-41129761D01*
X136571428Y-41177380D01*
X136380952Y-41177380D01*
X136285714Y-41129761D01*
X136190476Y-41034523D01*
X136142857Y-40844047D01*
X136142857Y-40510714D01*
X136190476Y-40320238D01*
X136285714Y-40225000D01*
X136380952Y-40177380D01*
X137380952Y-41177380D02*
X137285714Y-41129761D01*
X137238095Y-41034523D01*
X137238095Y-40177380D01*
X137761904Y-41177380D02*
X137761904Y-40510714D01*
X137761904Y-40177380D02*
X137714285Y-40225000D01*
X137761904Y-40272619D01*
X137809523Y-40225000D01*
X137761904Y-40177380D01*
X137761904Y-40272619D01*
X138238095Y-40510714D02*
X138238095Y-41177380D01*
X138238095Y-40605952D02*
X138285714Y-40558333D01*
X138380952Y-40510714D01*
X138523809Y-40510714D01*
X138619047Y-40558333D01*
X138666666Y-40653571D01*
X138666666Y-41177380D01*
X140476190Y-41177380D02*
X140142857Y-40701190D01*
X139904761Y-41177380D02*
X139904761Y-40177380D01*
X140285714Y-40177380D01*
X140380952Y-40225000D01*
X140428571Y-40272619D01*
X140476190Y-40367857D01*
X140476190Y-40510714D01*
X140428571Y-40605952D01*
X140380952Y-40653571D01*
X140285714Y-40701190D01*
X139904761Y-40701190D01*
X141047619Y-41177380D02*
X140952380Y-41129761D01*
X140904761Y-41082142D01*
X140857142Y-40986904D01*
X140857142Y-40701190D01*
X140904761Y-40605952D01*
X140952380Y-40558333D01*
X141047619Y-40510714D01*
X141190476Y-40510714D01*
X141285714Y-40558333D01*
X141333333Y-40605952D01*
X141380952Y-40701190D01*
X141380952Y-40986904D01*
X141333333Y-41082142D01*
X141285714Y-41129761D01*
X141190476Y-41177380D01*
X141047619Y-41177380D01*
X142238095Y-41129761D02*
X142142857Y-41177380D01*
X141952380Y-41177380D01*
X141857142Y-41129761D01*
X141809523Y-41082142D01*
X141761904Y-40986904D01*
X141761904Y-40701190D01*
X141809523Y-40605952D01*
X141857142Y-40558333D01*
X141952380Y-40510714D01*
X142142857Y-40510714D01*
X142238095Y-40558333D01*
X142666666Y-41177380D02*
X142666666Y-40177380D01*
X142761904Y-40796428D02*
X143047619Y-41177380D01*
X143047619Y-40510714D02*
X142666666Y-40891666D01*
X143857142Y-41129761D02*
X143761904Y-41177380D01*
X143571428Y-41177380D01*
X143476190Y-41129761D01*
X143428571Y-41034523D01*
X143428571Y-40653571D01*
X143476190Y-40558333D01*
X143571428Y-40510714D01*
X143761904Y-40510714D01*
X143857142Y-40558333D01*
X143904761Y-40653571D01*
X143904761Y-40748809D01*
X143428571Y-40844047D01*
X144190476Y-40510714D02*
X144571428Y-40510714D01*
X144333333Y-40177380D02*
X144333333Y-41034523D01*
X144380952Y-41129761D01*
X144476190Y-41177380D01*
X144571428Y-41177380D01*
X144904761Y-41177380D02*
X144904761Y-40510714D01*
X144904761Y-40701190D02*
X144952380Y-40605952D01*
X145000000Y-40558333D01*
X145095238Y-40510714D01*
X145190476Y-40510714D01*
X145428571Y-40510714D02*
X145666666Y-41177380D01*
X145904761Y-40510714D02*
X145666666Y-41177380D01*
X145571428Y-41415476D01*
X145523809Y-41463095D01*
X145428571Y-41510714D01*
X139642857Y-42827380D02*
X139309523Y-42351190D01*
X139071428Y-42827380D02*
X139071428Y-41827380D01*
X139452380Y-41827380D01*
X139547619Y-41875000D01*
X139595238Y-41922619D01*
X139642857Y-42017857D01*
X139642857Y-42160714D01*
X139595238Y-42255952D01*
X139547619Y-42303571D01*
X139452380Y-42351190D01*
X139071428Y-42351190D01*
X140452380Y-42779761D02*
X140357142Y-42827380D01*
X140166666Y-42827380D01*
X140071428Y-42779761D01*
X140023809Y-42684523D01*
X140023809Y-42303571D01*
X140071428Y-42208333D01*
X140166666Y-42160714D01*
X140357142Y-42160714D01*
X140452380Y-42208333D01*
X140500000Y-42303571D01*
X140500000Y-42398809D01*
X140023809Y-42494047D01*
X140833333Y-42160714D02*
X141071428Y-42827380D01*
X141309523Y-42160714D01*
X142404761Y-41922619D02*
X142452380Y-41875000D01*
X142547619Y-41827380D01*
X142785714Y-41827380D01*
X142880952Y-41875000D01*
X142928571Y-41922619D01*
X142976190Y-42017857D01*
X142976190Y-42113095D01*
X142928571Y-42255952D01*
X142357142Y-42827380D01*
X142976190Y-42827380D01*
X137761904Y-43810714D02*
X137761904Y-44477380D01*
X137523809Y-43429761D02*
X137285714Y-44144047D01*
X137904761Y-44144047D01*
X139000000Y-43429761D02*
X138142857Y-44715476D01*
X139380952Y-44477380D02*
X139571428Y-44477380D01*
X139666666Y-44429761D01*
X139714285Y-44382142D01*
X139809523Y-44239285D01*
X139857142Y-44048809D01*
X139857142Y-43667857D01*
X139809523Y-43572619D01*
X139761904Y-43525000D01*
X139666666Y-43477380D01*
X139476190Y-43477380D01*
X139380952Y-43525000D01*
X139333333Y-43572619D01*
X139285714Y-43667857D01*
X139285714Y-43905952D01*
X139333333Y-44001190D01*
X139380952Y-44048809D01*
X139476190Y-44096428D01*
X139666666Y-44096428D01*
X139761904Y-44048809D01*
X139809523Y-44001190D01*
X139857142Y-43905952D01*
X141000000Y-43429761D02*
X140142857Y-44715476D01*
X141285714Y-43572619D02*
X141333333Y-43525000D01*
X141428571Y-43477380D01*
X141666666Y-43477380D01*
X141761904Y-43525000D01*
X141809523Y-43572619D01*
X141857142Y-43667857D01*
X141857142Y-43763095D01*
X141809523Y-43905952D01*
X141238095Y-44477380D01*
X141857142Y-44477380D01*
X142476190Y-43477380D02*
X142571428Y-43477380D01*
X142666666Y-43525000D01*
X142714285Y-43572619D01*
X142761904Y-43667857D01*
X142809523Y-43858333D01*
X142809523Y-44096428D01*
X142761904Y-44286904D01*
X142714285Y-44382142D01*
X142666666Y-44429761D01*
X142571428Y-44477380D01*
X142476190Y-44477380D01*
X142380952Y-44429761D01*
X142333333Y-44382142D01*
X142285714Y-44286904D01*
X142238095Y-44096428D01*
X142238095Y-43858333D01*
X142285714Y-43667857D01*
X142333333Y-43572619D01*
X142380952Y-43525000D01*
X142476190Y-43477380D01*
X143190476Y-43572619D02*
X143238095Y-43525000D01*
X143333333Y-43477380D01*
X143571428Y-43477380D01*
X143666666Y-43525000D01*
X143714285Y-43572619D01*
X143761904Y-43667857D01*
X143761904Y-43763095D01*
X143714285Y-43905952D01*
X143142857Y-44477380D01*
X143761904Y-44477380D01*
X144714285Y-44477380D02*
X144142857Y-44477380D01*
X144428571Y-44477380D02*
X144428571Y-43477380D01*
X144333333Y-43620238D01*
X144238095Y-43715476D01*
X144142857Y-43763095D01*
X136904761Y-46127380D02*
X136904761Y-45127380D01*
X137809523Y-46127380D02*
X137809523Y-45603571D01*
X137761904Y-45508333D01*
X137666666Y-45460714D01*
X137476190Y-45460714D01*
X137380952Y-45508333D01*
X137809523Y-46079761D02*
X137714285Y-46127380D01*
X137476190Y-46127380D01*
X137380952Y-46079761D01*
X137333333Y-45984523D01*
X137333333Y-45889285D01*
X137380952Y-45794047D01*
X137476190Y-45746428D01*
X137714285Y-45746428D01*
X137809523Y-45698809D01*
X138285714Y-45460714D02*
X138285714Y-46127380D01*
X138285714Y-45555952D02*
X138333333Y-45508333D01*
X138428571Y-45460714D01*
X138571428Y-45460714D01*
X138666666Y-45508333D01*
X138714285Y-45603571D01*
X138714285Y-46127380D01*
X139952380Y-45603571D02*
X140285714Y-45603571D01*
X140428571Y-46127380D02*
X139952380Y-46127380D01*
X139952380Y-45127380D01*
X140428571Y-45127380D01*
X140761904Y-45460714D02*
X141000000Y-46127380D01*
X141238095Y-45460714D02*
X141000000Y-46127380D01*
X140904761Y-46365476D01*
X140857142Y-46413095D01*
X140761904Y-46460714D01*
X141619047Y-46127380D02*
X141619047Y-45127380D01*
X141714285Y-45746428D02*
X142000000Y-46127380D01*
X142000000Y-45460714D02*
X141619047Y-45841666D01*
X142857142Y-46127380D02*
X142857142Y-45603571D01*
X142809523Y-45508333D01*
X142714285Y-45460714D01*
X142523809Y-45460714D01*
X142428571Y-45508333D01*
X142857142Y-46079761D02*
X142761904Y-46127380D01*
X142523809Y-46127380D01*
X142428571Y-46079761D01*
X142380952Y-45984523D01*
X142380952Y-45889285D01*
X142428571Y-45794047D01*
X142523809Y-45746428D01*
X142761904Y-45746428D01*
X142857142Y-45698809D01*
X143333333Y-46127380D02*
X143333333Y-45460714D01*
X143333333Y-45555952D02*
X143380952Y-45508333D01*
X143476190Y-45460714D01*
X143619047Y-45460714D01*
X143714285Y-45508333D01*
X143761904Y-45603571D01*
X143761904Y-46127380D01*
X143761904Y-45603571D02*
X143809523Y-45508333D01*
X143904761Y-45460714D01*
X144047619Y-45460714D01*
X144142857Y-45508333D01*
X144190476Y-45603571D01*
X144190476Y-46127380D01*
X144666666Y-45460714D02*
X144666666Y-46460714D01*
X144666666Y-45508333D02*
X144761904Y-45460714D01*
X144952380Y-45460714D01*
X145047619Y-45508333D01*
X145095238Y-45555952D01*
X145142857Y-45651190D01*
X145142857Y-45936904D01*
X145095238Y-46032142D01*
X145047619Y-46079761D01*
X144952380Y-46127380D01*
X144761904Y-46127380D01*
X144666666Y-46079761D01*
D12*
%TO.C,J3*%
X122150000Y-111775000D02*
X122150000Y-115775000D01*
X123150000Y-111775000D02*
X122150000Y-111775000D01*
X123150000Y-109775000D02*
X123150000Y-111775000D01*
X133150000Y-109775000D02*
X123150000Y-109775000D01*
X133150000Y-111775000D02*
X133150000Y-109775000D01*
X134150000Y-111775000D02*
X133150000Y-111775000D01*
X134150000Y-115775000D02*
X134150000Y-111775000D01*
X122150000Y-115775000D02*
X134150000Y-115775000D01*
%TO.C,D2*%
X165210000Y-113976000D02*
X165210000Y-112776000D01*
X163210000Y-112776000D02*
X165210000Y-113976000D01*
X165210000Y-111576000D02*
X163210000Y-112776000D01*
X165210000Y-112776000D02*
X165210000Y-111576000D01*
X163210000Y-111576000D02*
X163210000Y-113976000D01*
X163210000Y-112776000D02*
X162310000Y-112776000D01*
X165210000Y-112776000D02*
X166110000Y-112776000D01*
%TO.C,D3*%
X131800000Y-53200000D02*
X131800000Y-52000000D01*
X129800000Y-52000000D02*
X131800000Y-53200000D01*
X131800000Y-50800000D02*
X129800000Y-52000000D01*
X131800000Y-52000000D02*
X131800000Y-50800000D01*
X129800000Y-50800000D02*
X129800000Y-53200000D01*
X129800000Y-52000000D02*
X128900000Y-52000000D01*
X131800000Y-52000000D02*
X132700000Y-52000000D01*
%TO.C,D4*%
X146300000Y-72800000D02*
X147500000Y-72800000D01*
X147500000Y-70800000D02*
X146300000Y-72800000D01*
X148700000Y-72800000D02*
X147500000Y-70800000D01*
X147500000Y-72800000D02*
X148700000Y-72800000D01*
X148700000Y-70800000D02*
X146300000Y-70800000D01*
X147500000Y-70800000D02*
X147500000Y-69900000D01*
X147500000Y-72800000D02*
X147500000Y-73700000D01*
%TO.C,D5*%
X141800000Y-72800000D02*
X143000000Y-72800000D01*
X143000000Y-70800000D02*
X141800000Y-72800000D01*
X144200000Y-72800000D02*
X143000000Y-70800000D01*
X143000000Y-72800000D02*
X144200000Y-72800000D01*
X144200000Y-70800000D02*
X141800000Y-70800000D01*
X143000000Y-70800000D02*
X143000000Y-69900000D01*
X143000000Y-72800000D02*
X143000000Y-73700000D01*
%TO.C,D6*%
X137300000Y-72800000D02*
X138500000Y-72800000D01*
X138500000Y-70800000D02*
X137300000Y-72800000D01*
X139700000Y-72800000D02*
X138500000Y-70800000D01*
X138500000Y-72800000D02*
X139700000Y-72800000D01*
X139700000Y-70800000D02*
X137300000Y-70800000D01*
X138500000Y-70800000D02*
X138500000Y-69900000D01*
X138500000Y-72800000D02*
X138500000Y-73700000D01*
%TO.C,D7*%
X132800000Y-72800000D02*
X134000000Y-72800000D01*
X134000000Y-70800000D02*
X132800000Y-72800000D01*
X135200000Y-72800000D02*
X134000000Y-70800000D01*
X134000000Y-72800000D02*
X135200000Y-72800000D01*
X135200000Y-70800000D02*
X132800000Y-70800000D01*
X134000000Y-70800000D02*
X134000000Y-69900000D01*
X134000000Y-72800000D02*
X134000000Y-73700000D01*
D14*
%TO.C,LS1*%
X148500000Y-63750000D02*
G75*
G03*
X148500000Y-63750000I-7000000J0D01*
G01*
D12*
%TO.C,C7*%
X157232720Y-112377600D02*
X157232720Y-113377600D01*
X155532720Y-113377600D02*
X155532720Y-112377600D01*
%TO.C,C8*%
X152858100Y-113390300D02*
X152858100Y-112390300D01*
X154558100Y-112390300D02*
X154558100Y-113390300D01*
%TO.C,C9*%
X158214960Y-113367440D02*
X158214960Y-112367440D01*
X159914960Y-112367440D02*
X159914960Y-113367440D01*
%TO.C,R1*%
X151901000Y-105953000D02*
X151901000Y-107153000D01*
X153661000Y-107153000D02*
X153661000Y-105953000D01*
%TO.C,R2*%
X158106000Y-108677000D02*
X158106000Y-107477000D01*
X156346000Y-107477000D02*
X156346000Y-108677000D01*
%TO.C,U2*%
X165529900Y-106792900D02*
X160529900Y-106792900D01*
X165529900Y-109792900D02*
X165529900Y-106792900D01*
X160529900Y-109792900D02*
X165529900Y-109792900D01*
X160529900Y-106792900D02*
X160529900Y-109792900D01*
D15*
%TO.C,U3*%
G36*
X145923000Y-91186000D02*
G01*
X146177000Y-91440000D01*
X145796000Y-91694000D01*
X145542000Y-91440000D01*
X145923000Y-91186000D01*
G37*
X145923000Y-91186000D02*
X146177000Y-91440000D01*
X145796000Y-91694000D01*
X145542000Y-91440000D01*
X145923000Y-91186000D01*
G36*
X146050000Y-90424000D02*
G01*
X146304000Y-90678000D01*
X145923000Y-90932000D01*
X145669000Y-90678000D01*
X146050000Y-90424000D01*
G37*
X146050000Y-90424000D02*
X146304000Y-90678000D01*
X145923000Y-90932000D01*
X145669000Y-90678000D01*
X146050000Y-90424000D01*
G36*
X146304000Y-91567000D02*
G01*
X146558000Y-91821000D01*
X146177000Y-92075000D01*
X145923000Y-91821000D01*
X146304000Y-91567000D01*
G37*
X146304000Y-91567000D02*
X146558000Y-91821000D01*
X146177000Y-92075000D01*
X145923000Y-91821000D01*
X146304000Y-91567000D01*
G36*
X145796000Y-91948000D02*
G01*
X146050000Y-92202000D01*
X145669000Y-92456000D01*
X145415000Y-92202000D01*
X145796000Y-91948000D01*
G37*
X145796000Y-91948000D02*
X146050000Y-92202000D01*
X145669000Y-92456000D01*
X145415000Y-92202000D01*
X145796000Y-91948000D01*
G36*
X146431000Y-90805000D02*
G01*
X146685000Y-91059000D01*
X146304000Y-91313000D01*
X146050000Y-91059000D01*
X146431000Y-90805000D01*
G37*
X146431000Y-90805000D02*
X146685000Y-91059000D01*
X146304000Y-91313000D01*
X146050000Y-91059000D01*
X146431000Y-90805000D01*
G36*
X145288000Y-92329000D02*
G01*
X145542000Y-92583000D01*
X145161000Y-92837000D01*
X144907000Y-92583000D01*
X145288000Y-92329000D01*
G37*
X145288000Y-92329000D02*
X145542000Y-92583000D01*
X145161000Y-92837000D01*
X144907000Y-92583000D01*
X145288000Y-92329000D01*
G36*
X145415000Y-91567000D02*
G01*
X145669000Y-91821000D01*
X145288000Y-92075000D01*
X145034000Y-91821000D01*
X145415000Y-91567000D01*
G37*
X145415000Y-91567000D02*
X145669000Y-91821000D01*
X145288000Y-92075000D01*
X145034000Y-91821000D01*
X145415000Y-91567000D01*
G36*
X145669000Y-90043000D02*
G01*
X145923000Y-90297000D01*
X145542000Y-90551000D01*
X145288000Y-90297000D01*
X145669000Y-90043000D01*
G37*
X145669000Y-90043000D02*
X145923000Y-90297000D01*
X145542000Y-90551000D01*
X145288000Y-90297000D01*
X145669000Y-90043000D01*
D13*
X114173000Y-103886000D02*
X114173000Y-86106000D01*
X175133000Y-86106000D02*
X175133000Y-103886000D01*
X156083000Y-92456000D02*
X158623000Y-92456000D01*
X156083000Y-97536000D02*
X156083000Y-92456000D01*
X158623000Y-97536000D02*
X156083000Y-97536000D01*
X158623000Y-92456000D02*
X158623000Y-97536000D01*
X119253000Y-98806000D02*
X114173000Y-98806000D01*
X119253000Y-91186000D02*
X114173000Y-91186000D01*
X119253000Y-98806000D02*
X119253000Y-91186000D01*
X112903000Y-91186000D02*
X114173000Y-91186000D01*
X112903000Y-98806000D02*
X112903000Y-91186000D01*
X114173000Y-98806000D02*
X112903000Y-98806000D01*
X114173000Y-103886000D02*
X175133000Y-103886000D01*
X175133000Y-86106000D02*
X114173000Y-86106000D01*
X162433000Y-101346000D02*
X175133000Y-101346000D01*
X162433000Y-88646000D02*
X162433000Y-101346000D01*
X175133000Y-88646000D02*
X162433000Y-88646000D01*
X173863000Y-89916000D02*
X175133000Y-88646000D01*
X173863000Y-100076000D02*
X173863000Y-89916000D01*
X175133000Y-101346000D02*
X173863000Y-100076000D01*
X173863000Y-89916000D02*
X175133000Y-89916000D01*
X173863000Y-91186000D02*
X175133000Y-91186000D01*
X173863000Y-92456000D02*
X175133000Y-92456000D01*
X173863000Y-93726000D02*
X175133000Y-93726000D01*
X173863000Y-94996000D02*
X175133000Y-94996000D01*
X173863000Y-96266000D02*
X175133000Y-96266000D01*
X173863000Y-97536000D02*
X175133000Y-97536000D01*
X173863000Y-98806000D02*
X175133000Y-98806000D01*
X173863000Y-100076000D02*
X175133000Y-100076000D01*
X139573000Y-88646000D02*
X152273000Y-88646000D01*
X139573000Y-101346000D02*
X152273000Y-101346000D01*
X139573000Y-88646000D02*
X139573000Y-101346000D01*
X152273000Y-101346000D02*
X152273000Y-88646000D01*
X138303000Y-97536000D02*
X138303000Y-100076000D01*
X134493000Y-97536000D02*
X138303000Y-97536000D01*
X134493000Y-100076000D02*
X134493000Y-97536000D01*
X138303000Y-100076000D02*
X134493000Y-100076000D01*
X133223000Y-91186000D02*
X130683000Y-91186000D01*
X133223000Y-93726000D02*
X133223000Y-91186000D01*
X130683000Y-93726000D02*
X133223000Y-93726000D01*
X130683000Y-91186000D02*
X130683000Y-93726000D01*
D12*
%TO.C,C10*%
X140550000Y-112260000D02*
X140550000Y-111260000D01*
X138850000Y-111260000D02*
X138850000Y-112260000D01*
%TO.C,C11*%
X142025000Y-111260000D02*
X142025000Y-112260000D01*
X143725000Y-112260000D02*
X143725000Y-111260000D01*
D10*
%TO.C,U5*%
X145102500Y-107437500D02*
G75*
G03*
X145102500Y-107437500I-100000J0D01*
G01*
D14*
X147622500Y-112156500D02*
X148502500Y-112156500D01*
X145502500Y-112156500D02*
X146382500Y-112156500D01*
X147622500Y-106918500D02*
X148502500Y-106918500D01*
X145502500Y-106918500D02*
X146382500Y-106918500D01*
D12*
%TO.C,J2*%
X109601000Y-83372000D02*
X109601000Y-80712000D01*
X109601000Y-83372000D02*
X119821000Y-83372000D01*
X109601000Y-80712000D02*
X119821000Y-80712000D01*
X107001000Y-80712000D02*
X108331000Y-80712000D01*
X107001000Y-82042000D02*
X107001000Y-80712000D01*
X106747000Y-56540400D02*
X106747000Y-55210400D01*
X106747000Y-55210400D02*
X108077000Y-55210400D01*
X109347000Y-55210400D02*
X119567000Y-55210400D01*
X119567000Y-57870400D02*
X119567000Y-55210400D01*
X109347000Y-57870400D02*
X119567000Y-57870400D01*
X109347000Y-57870400D02*
X109347000Y-55210400D01*
%TO.C,J1*%
X171450000Y-80966000D02*
X171450000Y-83626000D01*
X171450000Y-80966000D02*
X151070000Y-80966000D01*
X151070000Y-80966000D02*
X151070000Y-83626000D01*
X171450000Y-83626000D02*
X151070000Y-83626000D01*
X174050000Y-83626000D02*
X172720000Y-83626000D01*
X174050000Y-82296000D02*
X174050000Y-83626000D01*
%TO.C,R5*%
X120356740Y-109512660D02*
X120356740Y-108312660D01*
X122116740Y-108312660D02*
X122116740Y-109512660D01*
%TO.C,C14*%
X110440840Y-108302680D02*
X110440840Y-107302680D01*
X108740840Y-107302680D02*
X108740840Y-108302680D01*
%TO.C,R6*%
X119424340Y-108261860D02*
X119424340Y-109461860D01*
X117664340Y-109461860D02*
X117664340Y-108261860D01*
%TO.C,R7*%
X119304360Y-106792920D02*
X118104360Y-106792920D01*
X118104360Y-105032920D02*
X119304360Y-105032920D01*
D10*
%TO.C,U7*%
X116707140Y-109430460D02*
G75*
G03*
X116707140Y-109430460I-100000J0D01*
G01*
D14*
X115777140Y-109955460D02*
X115037140Y-109955460D01*
X113517140Y-109955460D02*
X112777140Y-109955460D01*
X115777140Y-106955460D02*
X115037140Y-106955460D01*
X113517140Y-106955460D02*
X112777140Y-106955460D01*
D12*
%TO.C,C1*%
X108821600Y-86956000D02*
X109821600Y-86956000D01*
X109821600Y-85256000D02*
X108821600Y-85256000D01*
%TO.C,D1*%
X107174760Y-101528760D02*
X107174760Y-102458760D01*
X107174760Y-104688760D02*
X107174760Y-103758760D01*
X107174760Y-104688760D02*
X109334760Y-104688760D01*
X107174760Y-101528760D02*
X108634760Y-101528760D01*
%TO.C,R3*%
X107732720Y-107146800D02*
X107732720Y-108346800D01*
X105972720Y-108346800D02*
X105972720Y-107146800D01*
%TO.C,R4*%
X170215000Y-108213000D02*
X171415000Y-108213000D01*
X171415000Y-109973000D02*
X170215000Y-109973000D01*
%TO.C,R8*%
X143900000Y-51120000D02*
X145100000Y-51120000D01*
X145100000Y-52880000D02*
X143900000Y-52880000D01*
%TO.C,R9*%
X146620000Y-83100000D02*
X146620000Y-81900000D01*
X148380000Y-81900000D02*
X148380000Y-83100000D01*
%TO.C,R10*%
X143880000Y-81900000D02*
X143880000Y-83100000D01*
X142120000Y-83100000D02*
X142120000Y-81900000D01*
%TO.C,R11*%
X137620000Y-83100000D02*
X137620000Y-81900000D01*
X139380000Y-81900000D02*
X139380000Y-83100000D01*
%TO.C,R12*%
X134880000Y-81900000D02*
X134880000Y-83100000D01*
X133120000Y-83100000D02*
X133120000Y-81900000D01*
%TO.C,J3*%
D13*
X127816666Y-113727380D02*
X127816666Y-114441666D01*
X127769047Y-114584523D01*
X127673809Y-114679761D01*
X127530952Y-114727380D01*
X127435714Y-114727380D01*
X128197619Y-113727380D02*
X128816666Y-113727380D01*
X128483333Y-114108333D01*
X128626190Y-114108333D01*
X128721428Y-114155952D01*
X128769047Y-114203571D01*
X128816666Y-114298809D01*
X128816666Y-114536904D01*
X128769047Y-114632142D01*
X128721428Y-114679761D01*
X128626190Y-114727380D01*
X128340476Y-114727380D01*
X128245238Y-114679761D01*
X128197619Y-114632142D01*
%TO.C,D2*%
X168261904Y-115552380D02*
X168261904Y-114552380D01*
X168500000Y-114552380D01*
X168642857Y-114600000D01*
X168738095Y-114695238D01*
X168785714Y-114790476D01*
X168833333Y-114980952D01*
X168833333Y-115123809D01*
X168785714Y-115314285D01*
X168738095Y-115409523D01*
X168642857Y-115504761D01*
X168500000Y-115552380D01*
X168261904Y-115552380D01*
X169214285Y-114647619D02*
X169261904Y-114600000D01*
X169357142Y-114552380D01*
X169595238Y-114552380D01*
X169690476Y-114600000D01*
X169738095Y-114647619D01*
X169785714Y-114742857D01*
X169785714Y-114838095D01*
X169738095Y-114980952D01*
X169166666Y-115552380D01*
X169785714Y-115552380D01*
%TO.C,D3*%
X134761904Y-49952380D02*
X134761904Y-48952380D01*
X135000000Y-48952380D01*
X135142857Y-49000000D01*
X135238095Y-49095238D01*
X135285714Y-49190476D01*
X135333333Y-49380952D01*
X135333333Y-49523809D01*
X135285714Y-49714285D01*
X135238095Y-49809523D01*
X135142857Y-49904761D01*
X135000000Y-49952380D01*
X134761904Y-49952380D01*
X135666666Y-48952380D02*
X136285714Y-48952380D01*
X135952380Y-49333333D01*
X136095238Y-49333333D01*
X136190476Y-49380952D01*
X136238095Y-49428571D01*
X136285714Y-49523809D01*
X136285714Y-49761904D01*
X136238095Y-49857142D01*
X136190476Y-49904761D01*
X136095238Y-49952380D01*
X135809523Y-49952380D01*
X135714285Y-49904761D01*
X135666666Y-49857142D01*
%TO.C,D4*%
X145852380Y-77238095D02*
X144852380Y-77238095D01*
X144852380Y-77000000D01*
X144900000Y-76857142D01*
X144995238Y-76761904D01*
X145090476Y-76714285D01*
X145280952Y-76666666D01*
X145423809Y-76666666D01*
X145614285Y-76714285D01*
X145709523Y-76761904D01*
X145804761Y-76857142D01*
X145852380Y-77000000D01*
X145852380Y-77238095D01*
X145185714Y-75809523D02*
X145852380Y-75809523D01*
X144804761Y-76047619D02*
X145519047Y-76285714D01*
X145519047Y-75666666D01*
%TO.C,D5*%
X141352380Y-77238095D02*
X140352380Y-77238095D01*
X140352380Y-77000000D01*
X140400000Y-76857142D01*
X140495238Y-76761904D01*
X140590476Y-76714285D01*
X140780952Y-76666666D01*
X140923809Y-76666666D01*
X141114285Y-76714285D01*
X141209523Y-76761904D01*
X141304761Y-76857142D01*
X141352380Y-77000000D01*
X141352380Y-77238095D01*
X140352380Y-75761904D02*
X140352380Y-76238095D01*
X140828571Y-76285714D01*
X140780952Y-76238095D01*
X140733333Y-76142857D01*
X140733333Y-75904761D01*
X140780952Y-75809523D01*
X140828571Y-75761904D01*
X140923809Y-75714285D01*
X141161904Y-75714285D01*
X141257142Y-75761904D01*
X141304761Y-75809523D01*
X141352380Y-75904761D01*
X141352380Y-76142857D01*
X141304761Y-76238095D01*
X141257142Y-76285714D01*
%TO.C,D6*%
X136752380Y-77238095D02*
X135752380Y-77238095D01*
X135752380Y-77000000D01*
X135800000Y-76857142D01*
X135895238Y-76761904D01*
X135990476Y-76714285D01*
X136180952Y-76666666D01*
X136323809Y-76666666D01*
X136514285Y-76714285D01*
X136609523Y-76761904D01*
X136704761Y-76857142D01*
X136752380Y-77000000D01*
X136752380Y-77238095D01*
X135752380Y-75809523D02*
X135752380Y-76000000D01*
X135800000Y-76095238D01*
X135847619Y-76142857D01*
X135990476Y-76238095D01*
X136180952Y-76285714D01*
X136561904Y-76285714D01*
X136657142Y-76238095D01*
X136704761Y-76190476D01*
X136752380Y-76095238D01*
X136752380Y-75904761D01*
X136704761Y-75809523D01*
X136657142Y-75761904D01*
X136561904Y-75714285D01*
X136323809Y-75714285D01*
X136228571Y-75761904D01*
X136180952Y-75809523D01*
X136133333Y-75904761D01*
X136133333Y-76095238D01*
X136180952Y-76190476D01*
X136228571Y-76238095D01*
X136323809Y-76285714D01*
%TO.C,D7*%
X132252380Y-77238095D02*
X131252380Y-77238095D01*
X131252380Y-77000000D01*
X131300000Y-76857142D01*
X131395238Y-76761904D01*
X131490476Y-76714285D01*
X131680952Y-76666666D01*
X131823809Y-76666666D01*
X132014285Y-76714285D01*
X132109523Y-76761904D01*
X132204761Y-76857142D01*
X132252380Y-77000000D01*
X132252380Y-77238095D01*
X131252380Y-76333333D02*
X131252380Y-75666666D01*
X132252380Y-76095238D01*
%TO.C,LS1*%
D16*
X141856205Y-64256187D02*
X141856205Y-64631140D01*
X141068803Y-64631140D01*
X141818710Y-64031215D02*
X141856205Y-63918729D01*
X141856205Y-63731252D01*
X141818710Y-63656261D01*
X141781215Y-63618766D01*
X141706224Y-63581271D01*
X141631233Y-63581271D01*
X141556243Y-63618766D01*
X141518747Y-63656261D01*
X141481252Y-63731252D01*
X141443757Y-63881233D01*
X141406261Y-63956224D01*
X141368766Y-63993719D01*
X141293775Y-64031215D01*
X141218785Y-64031215D01*
X141143794Y-63993719D01*
X141106299Y-63956224D01*
X141068803Y-63881233D01*
X141068803Y-63693757D01*
X141106299Y-63581271D01*
X141856205Y-62831364D02*
X141856205Y-63281308D01*
X141856205Y-63056336D02*
X141068803Y-63056336D01*
X141181289Y-63131327D01*
X141256280Y-63206317D01*
X141293775Y-63281308D01*
%TO.C,C7*%
D13*
X156857142Y-115966666D02*
X156904761Y-116014285D01*
X156952380Y-116157142D01*
X156952380Y-116252380D01*
X156904761Y-116395238D01*
X156809523Y-116490476D01*
X156714285Y-116538095D01*
X156523809Y-116585714D01*
X156380952Y-116585714D01*
X156190476Y-116538095D01*
X156095238Y-116490476D01*
X156000000Y-116395238D01*
X155952380Y-116252380D01*
X155952380Y-116157142D01*
X156000000Y-116014285D01*
X156047619Y-115966666D01*
X155952380Y-115633333D02*
X155952380Y-114966666D01*
X156952380Y-115395238D01*
%TO.C,C8*%
X154157142Y-115966666D02*
X154204761Y-116014285D01*
X154252380Y-116157142D01*
X154252380Y-116252380D01*
X154204761Y-116395238D01*
X154109523Y-116490476D01*
X154014285Y-116538095D01*
X153823809Y-116585714D01*
X153680952Y-116585714D01*
X153490476Y-116538095D01*
X153395238Y-116490476D01*
X153300000Y-116395238D01*
X153252380Y-116252380D01*
X153252380Y-116157142D01*
X153300000Y-116014285D01*
X153347619Y-115966666D01*
X153680952Y-115395238D02*
X153633333Y-115490476D01*
X153585714Y-115538095D01*
X153490476Y-115585714D01*
X153442857Y-115585714D01*
X153347619Y-115538095D01*
X153300000Y-115490476D01*
X153252380Y-115395238D01*
X153252380Y-115204761D01*
X153300000Y-115109523D01*
X153347619Y-115061904D01*
X153442857Y-115014285D01*
X153490476Y-115014285D01*
X153585714Y-115061904D01*
X153633333Y-115109523D01*
X153680952Y-115204761D01*
X153680952Y-115395238D01*
X153728571Y-115490476D01*
X153776190Y-115538095D01*
X153871428Y-115585714D01*
X154061904Y-115585714D01*
X154157142Y-115538095D01*
X154204761Y-115490476D01*
X154252380Y-115395238D01*
X154252380Y-115204761D01*
X154204761Y-115109523D01*
X154157142Y-115061904D01*
X154061904Y-115014285D01*
X153871428Y-115014285D01*
X153776190Y-115061904D01*
X153728571Y-115109523D01*
X153680952Y-115204761D01*
%TO.C,C9*%
X159457142Y-115966666D02*
X159504761Y-116014285D01*
X159552380Y-116157142D01*
X159552380Y-116252380D01*
X159504761Y-116395238D01*
X159409523Y-116490476D01*
X159314285Y-116538095D01*
X159123809Y-116585714D01*
X158980952Y-116585714D01*
X158790476Y-116538095D01*
X158695238Y-116490476D01*
X158600000Y-116395238D01*
X158552380Y-116252380D01*
X158552380Y-116157142D01*
X158600000Y-116014285D01*
X158647619Y-115966666D01*
X159552380Y-115490476D02*
X159552380Y-115300000D01*
X159504761Y-115204761D01*
X159457142Y-115157142D01*
X159314285Y-115061904D01*
X159123809Y-115014285D01*
X158742857Y-115014285D01*
X158647619Y-115061904D01*
X158600000Y-115109523D01*
X158552380Y-115204761D01*
X158552380Y-115395238D01*
X158600000Y-115490476D01*
X158647619Y-115538095D01*
X158742857Y-115585714D01*
X158980952Y-115585714D01*
X159076190Y-115538095D01*
X159123809Y-115490476D01*
X159171428Y-115395238D01*
X159171428Y-115204761D01*
X159123809Y-115109523D01*
X159076190Y-115061904D01*
X158980952Y-115014285D01*
%TO.C,R1*%
X152347619Y-109033333D02*
X152823809Y-108700000D01*
X152347619Y-108461904D02*
X153347619Y-108461904D01*
X153347619Y-108842857D01*
X153300000Y-108938095D01*
X153252380Y-108985714D01*
X153157142Y-109033333D01*
X153014285Y-109033333D01*
X152919047Y-108985714D01*
X152871428Y-108938095D01*
X152823809Y-108842857D01*
X152823809Y-108461904D01*
X152347619Y-109985714D02*
X152347619Y-109414285D01*
X152347619Y-109700000D02*
X153347619Y-109700000D01*
X153204761Y-109604761D01*
X153109523Y-109509523D01*
X153061904Y-109414285D01*
%TO.C,R2*%
X157059333Y-106014780D02*
X156726000Y-105538590D01*
X156487904Y-106014780D02*
X156487904Y-105014780D01*
X156868857Y-105014780D01*
X156964095Y-105062400D01*
X157011714Y-105110019D01*
X157059333Y-105205257D01*
X157059333Y-105348114D01*
X157011714Y-105443352D01*
X156964095Y-105490971D01*
X156868857Y-105538590D01*
X156487904Y-105538590D01*
X157440285Y-105110019D02*
X157487904Y-105062400D01*
X157583142Y-105014780D01*
X157821238Y-105014780D01*
X157916476Y-105062400D01*
X157964095Y-105110019D01*
X158011714Y-105205257D01*
X158011714Y-105300495D01*
X157964095Y-105443352D01*
X157392666Y-106014780D01*
X158011714Y-106014780D01*
%TO.C,U2*%
X162255295Y-104811580D02*
X162255295Y-105621104D01*
X162302914Y-105716342D01*
X162350533Y-105763961D01*
X162445771Y-105811580D01*
X162636247Y-105811580D01*
X162731485Y-105763961D01*
X162779104Y-105716342D01*
X162826723Y-105621104D01*
X162826723Y-104811580D01*
X163255295Y-104906819D02*
X163302914Y-104859200D01*
X163398152Y-104811580D01*
X163636247Y-104811580D01*
X163731485Y-104859200D01*
X163779104Y-104906819D01*
X163826723Y-105002057D01*
X163826723Y-105097295D01*
X163779104Y-105240152D01*
X163207676Y-105811580D01*
X163826723Y-105811580D01*
%TO.C,U3*%
X147574095Y-84161380D02*
X147574095Y-84970904D01*
X147621714Y-85066142D01*
X147669333Y-85113761D01*
X147764571Y-85161380D01*
X147955047Y-85161380D01*
X148050285Y-85113761D01*
X148097904Y-85066142D01*
X148145523Y-84970904D01*
X148145523Y-84161380D01*
X148526476Y-84161380D02*
X149145523Y-84161380D01*
X148812190Y-84542333D01*
X148955047Y-84542333D01*
X149050285Y-84589952D01*
X149097904Y-84637571D01*
X149145523Y-84732809D01*
X149145523Y-84970904D01*
X149097904Y-85066142D01*
X149050285Y-85113761D01*
X148955047Y-85161380D01*
X148669333Y-85161380D01*
X148574095Y-85113761D01*
X148526476Y-85066142D01*
X140873000Y-95312666D02*
X140873000Y-94612666D01*
X141106333Y-95112666D01*
X141339666Y-94612666D01*
X141339666Y-95312666D01*
X141673000Y-95312666D02*
X141673000Y-94612666D01*
X142073000Y-95312666D02*
X141773000Y-94912666D01*
X142073000Y-94612666D02*
X141673000Y-95012666D01*
X142673000Y-94612666D02*
X142539666Y-94612666D01*
X142473000Y-94646000D01*
X142439666Y-94679333D01*
X142373000Y-94779333D01*
X142339666Y-94912666D01*
X142339666Y-95179333D01*
X142373000Y-95246000D01*
X142406333Y-95279333D01*
X142473000Y-95312666D01*
X142606333Y-95312666D01*
X142673000Y-95279333D01*
X142706333Y-95246000D01*
X142739666Y-95179333D01*
X142739666Y-95012666D01*
X142706333Y-94946000D01*
X142673000Y-94912666D01*
X142606333Y-94879333D01*
X142473000Y-94879333D01*
X142406333Y-94912666D01*
X142373000Y-94946000D01*
X142339666Y-95012666D01*
X143339666Y-94612666D02*
X143206333Y-94612666D01*
X143139666Y-94646000D01*
X143106333Y-94679333D01*
X143039666Y-94779333D01*
X143006333Y-94912666D01*
X143006333Y-95179333D01*
X143039666Y-95246000D01*
X143073000Y-95279333D01*
X143139666Y-95312666D01*
X143273000Y-95312666D01*
X143339666Y-95279333D01*
X143373000Y-95246000D01*
X143406333Y-95179333D01*
X143406333Y-95012666D01*
X143373000Y-94946000D01*
X143339666Y-94912666D01*
X143273000Y-94879333D01*
X143139666Y-94879333D01*
X143073000Y-94912666D01*
X143039666Y-94946000D01*
X143006333Y-95012666D01*
X143939666Y-94946000D02*
X143706333Y-94946000D01*
X143706333Y-95312666D02*
X143706333Y-94612666D01*
X144039666Y-94612666D01*
X144239666Y-94612666D02*
X144706333Y-95312666D01*
X144706333Y-94612666D02*
X144239666Y-95312666D01*
X145339666Y-95312666D02*
X144939666Y-95312666D01*
X145139666Y-95312666D02*
X145139666Y-94612666D01*
X145073000Y-94712666D01*
X145006333Y-94779333D01*
X144939666Y-94812666D01*
X145639666Y-95312666D02*
X145639666Y-94612666D01*
X145873000Y-95112666D01*
X146106333Y-94612666D01*
X146106333Y-95312666D01*
X146673000Y-94946000D02*
X146773000Y-94979333D01*
X146806333Y-95012666D01*
X146839666Y-95079333D01*
X146839666Y-95179333D01*
X146806333Y-95246000D01*
X146773000Y-95279333D01*
X146706333Y-95312666D01*
X146439666Y-95312666D01*
X146439666Y-94612666D01*
X146673000Y-94612666D01*
X146739666Y-94646000D01*
X146773000Y-94679333D01*
X146806333Y-94746000D01*
X146806333Y-94812666D01*
X146773000Y-94879333D01*
X146739666Y-94912666D01*
X146673000Y-94946000D01*
X146439666Y-94946000D01*
X147039666Y-94612666D02*
X147273000Y-95312666D01*
X147506333Y-94612666D01*
X147739666Y-95312666D02*
X147739666Y-94612666D01*
X147973000Y-95112666D01*
X148206333Y-94612666D01*
X148206333Y-95312666D01*
X148539666Y-95312666D02*
X148539666Y-94612666D01*
X148706333Y-94612666D01*
X148806333Y-94646000D01*
X148873000Y-94712666D01*
X148906333Y-94779333D01*
X148939666Y-94912666D01*
X148939666Y-95012666D01*
X148906333Y-95146000D01*
X148873000Y-95212666D01*
X148806333Y-95279333D01*
X148706333Y-95312666D01*
X148539666Y-95312666D01*
X149606333Y-95312666D02*
X149206333Y-95312666D01*
X149406333Y-95312666D02*
X149406333Y-94612666D01*
X149339666Y-94712666D01*
X149273000Y-94779333D01*
X149206333Y-94812666D01*
X150006333Y-94912666D02*
X149939666Y-94879333D01*
X149906333Y-94846000D01*
X149873000Y-94779333D01*
X149873000Y-94746000D01*
X149906333Y-94679333D01*
X149939666Y-94646000D01*
X150006333Y-94612666D01*
X150139666Y-94612666D01*
X150206333Y-94646000D01*
X150239666Y-94679333D01*
X150273000Y-94746000D01*
X150273000Y-94779333D01*
X150239666Y-94846000D01*
X150206333Y-94879333D01*
X150139666Y-94912666D01*
X150006333Y-94912666D01*
X149939666Y-94946000D01*
X149906333Y-94979333D01*
X149873000Y-95046000D01*
X149873000Y-95179333D01*
X149906333Y-95246000D01*
X149939666Y-95279333D01*
X150006333Y-95312666D01*
X150139666Y-95312666D01*
X150206333Y-95279333D01*
X150239666Y-95246000D01*
X150273000Y-95179333D01*
X150273000Y-95046000D01*
X150239666Y-94979333D01*
X150206333Y-94946000D01*
X150139666Y-94912666D01*
X151073000Y-94579333D02*
X150473000Y-95479333D01*
X141323000Y-96455666D02*
X141323000Y-95755666D01*
X141556333Y-96255666D01*
X141789666Y-95755666D01*
X141789666Y-96455666D01*
X142123000Y-96455666D02*
X142123000Y-95755666D01*
X142523000Y-96455666D02*
X142223000Y-96055666D01*
X142523000Y-95755666D02*
X142123000Y-96155666D01*
X143123000Y-95755666D02*
X142989666Y-95755666D01*
X142923000Y-95789000D01*
X142889666Y-95822333D01*
X142823000Y-95922333D01*
X142789666Y-96055666D01*
X142789666Y-96322333D01*
X142823000Y-96389000D01*
X142856333Y-96422333D01*
X142923000Y-96455666D01*
X143056333Y-96455666D01*
X143123000Y-96422333D01*
X143156333Y-96389000D01*
X143189666Y-96322333D01*
X143189666Y-96155666D01*
X143156333Y-96089000D01*
X143123000Y-96055666D01*
X143056333Y-96022333D01*
X142923000Y-96022333D01*
X142856333Y-96055666D01*
X142823000Y-96089000D01*
X142789666Y-96155666D01*
X143789666Y-95989000D02*
X143789666Y-96455666D01*
X143623000Y-95722333D02*
X143456333Y-96222333D01*
X143889666Y-96222333D01*
X144389666Y-96089000D02*
X144156333Y-96089000D01*
X144156333Y-96455666D02*
X144156333Y-95755666D01*
X144489666Y-95755666D01*
X144689666Y-95755666D02*
X145156333Y-96455666D01*
X145156333Y-95755666D02*
X144689666Y-96455666D01*
X145756333Y-95755666D02*
X145423000Y-95755666D01*
X145389666Y-96089000D01*
X145423000Y-96055666D01*
X145489666Y-96022333D01*
X145656333Y-96022333D01*
X145723000Y-96055666D01*
X145756333Y-96089000D01*
X145789666Y-96155666D01*
X145789666Y-96322333D01*
X145756333Y-96389000D01*
X145723000Y-96422333D01*
X145656333Y-96455666D01*
X145489666Y-96455666D01*
X145423000Y-96422333D01*
X145389666Y-96389000D01*
X146456333Y-96455666D02*
X146056333Y-96455666D01*
X146256333Y-96455666D02*
X146256333Y-95755666D01*
X146189666Y-95855666D01*
X146123000Y-95922333D01*
X146056333Y-95955666D01*
X146723000Y-95822333D02*
X146756333Y-95789000D01*
X146823000Y-95755666D01*
X146989666Y-95755666D01*
X147056333Y-95789000D01*
X147089666Y-95822333D01*
X147123000Y-95889000D01*
X147123000Y-95955666D01*
X147089666Y-96055666D01*
X146689666Y-96455666D01*
X147123000Y-96455666D01*
X147323000Y-95755666D02*
X147556333Y-96455666D01*
X147789666Y-95755666D01*
X148023000Y-96455666D02*
X148023000Y-95755666D01*
X148256333Y-96255666D01*
X148489666Y-95755666D01*
X148489666Y-96455666D01*
X148823000Y-96455666D02*
X148823000Y-95755666D01*
X148989666Y-95755666D01*
X149089666Y-95789000D01*
X149156333Y-95855666D01*
X149189666Y-95922333D01*
X149223000Y-96055666D01*
X149223000Y-96155666D01*
X149189666Y-96289000D01*
X149156333Y-96355666D01*
X149089666Y-96422333D01*
X148989666Y-96455666D01*
X148823000Y-96455666D01*
X149889666Y-96455666D02*
X149489666Y-96455666D01*
X149689666Y-96455666D02*
X149689666Y-95755666D01*
X149623000Y-95855666D01*
X149556333Y-95922333D01*
X149489666Y-95955666D01*
X150156333Y-95822333D02*
X150189666Y-95789000D01*
X150256333Y-95755666D01*
X150423000Y-95755666D01*
X150489666Y-95789000D01*
X150523000Y-95822333D01*
X150556333Y-95889000D01*
X150556333Y-95955666D01*
X150523000Y-96055666D01*
X150123000Y-96455666D01*
X150556333Y-96455666D01*
%TO.C,C10*%
X140057142Y-115842857D02*
X140104761Y-115890476D01*
X140152380Y-116033333D01*
X140152380Y-116128571D01*
X140104761Y-116271428D01*
X140009523Y-116366666D01*
X139914285Y-116414285D01*
X139723809Y-116461904D01*
X139580952Y-116461904D01*
X139390476Y-116414285D01*
X139295238Y-116366666D01*
X139200000Y-116271428D01*
X139152380Y-116128571D01*
X139152380Y-116033333D01*
X139200000Y-115890476D01*
X139247619Y-115842857D01*
X140152380Y-114890476D02*
X140152380Y-115461904D01*
X140152380Y-115176190D02*
X139152380Y-115176190D01*
X139295238Y-115271428D01*
X139390476Y-115366666D01*
X139438095Y-115461904D01*
X139152380Y-114271428D02*
X139152380Y-114176190D01*
X139200000Y-114080952D01*
X139247619Y-114033333D01*
X139342857Y-113985714D01*
X139533333Y-113938095D01*
X139771428Y-113938095D01*
X139961904Y-113985714D01*
X140057142Y-114033333D01*
X140104761Y-114080952D01*
X140152380Y-114176190D01*
X140152380Y-114271428D01*
X140104761Y-114366666D01*
X140057142Y-114414285D01*
X139961904Y-114461904D01*
X139771428Y-114509523D01*
X139533333Y-114509523D01*
X139342857Y-114461904D01*
X139247619Y-114414285D01*
X139200000Y-114366666D01*
X139152380Y-114271428D01*
%TO.C,C11*%
X143257142Y-115742857D02*
X143304761Y-115790476D01*
X143352380Y-115933333D01*
X143352380Y-116028571D01*
X143304761Y-116171428D01*
X143209523Y-116266666D01*
X143114285Y-116314285D01*
X142923809Y-116361904D01*
X142780952Y-116361904D01*
X142590476Y-116314285D01*
X142495238Y-116266666D01*
X142400000Y-116171428D01*
X142352380Y-116028571D01*
X142352380Y-115933333D01*
X142400000Y-115790476D01*
X142447619Y-115742857D01*
X143352380Y-114790476D02*
X143352380Y-115361904D01*
X143352380Y-115076190D02*
X142352380Y-115076190D01*
X142495238Y-115171428D01*
X142590476Y-115266666D01*
X142638095Y-115361904D01*
X143352380Y-113838095D02*
X143352380Y-114409523D01*
X143352380Y-114123809D02*
X142352380Y-114123809D01*
X142495238Y-114219047D01*
X142590476Y-114314285D01*
X142638095Y-114409523D01*
%TO.C,U5*%
X145351595Y-105306880D02*
X145351595Y-106116404D01*
X145399214Y-106211642D01*
X145446833Y-106259261D01*
X145542071Y-106306880D01*
X145732547Y-106306880D01*
X145827785Y-106259261D01*
X145875404Y-106211642D01*
X145923023Y-106116404D01*
X145923023Y-105306880D01*
X146875404Y-105306880D02*
X146399214Y-105306880D01*
X146351595Y-105783071D01*
X146399214Y-105735452D01*
X146494452Y-105687833D01*
X146732547Y-105687833D01*
X146827785Y-105735452D01*
X146875404Y-105783071D01*
X146923023Y-105878309D01*
X146923023Y-106116404D01*
X146875404Y-106211642D01*
X146827785Y-106259261D01*
X146732547Y-106306880D01*
X146494452Y-106306880D01*
X146399214Y-106259261D01*
X146351595Y-106211642D01*
%TO.C,J2*%
X118157666Y-78319380D02*
X118157666Y-79033666D01*
X118110047Y-79176523D01*
X118014809Y-79271761D01*
X117871952Y-79319380D01*
X117776714Y-79319380D01*
X118586238Y-78414619D02*
X118633857Y-78367000D01*
X118729095Y-78319380D01*
X118967190Y-78319380D01*
X119062428Y-78367000D01*
X119110047Y-78414619D01*
X119157666Y-78509857D01*
X119157666Y-78605095D01*
X119110047Y-78747952D01*
X118538619Y-79319380D01*
X119157666Y-79319380D01*
%TO.C,J1*%
X161972666Y-78573380D02*
X161972666Y-79287666D01*
X161925047Y-79430523D01*
X161829809Y-79525761D01*
X161686952Y-79573380D01*
X161591714Y-79573380D01*
X162972666Y-79573380D02*
X162401238Y-79573380D01*
X162686952Y-79573380D02*
X162686952Y-78573380D01*
X162591714Y-78716238D01*
X162496476Y-78811476D01*
X162401238Y-78859095D01*
%TO.C,R5*%
X123467120Y-109206326D02*
X122990930Y-109539660D01*
X123467120Y-109777755D02*
X122467120Y-109777755D01*
X122467120Y-109396802D01*
X122514740Y-109301564D01*
X122562359Y-109253945D01*
X122657597Y-109206326D01*
X122800454Y-109206326D01*
X122895692Y-109253945D01*
X122943311Y-109301564D01*
X122990930Y-109396802D01*
X122990930Y-109777755D01*
X122467120Y-108301564D02*
X122467120Y-108777755D01*
X122943311Y-108825374D01*
X122895692Y-108777755D01*
X122848073Y-108682517D01*
X122848073Y-108444421D01*
X122895692Y-108349183D01*
X122943311Y-108301564D01*
X123038549Y-108253945D01*
X123276644Y-108253945D01*
X123371882Y-108301564D01*
X123419501Y-108349183D01*
X123467120Y-108444421D01*
X123467120Y-108682517D01*
X123419501Y-108777755D01*
X123371882Y-108825374D01*
%TO.C,C14*%
X107157142Y-111642857D02*
X107204761Y-111690476D01*
X107252380Y-111833333D01*
X107252380Y-111928571D01*
X107204761Y-112071428D01*
X107109523Y-112166666D01*
X107014285Y-112214285D01*
X106823809Y-112261904D01*
X106680952Y-112261904D01*
X106490476Y-112214285D01*
X106395238Y-112166666D01*
X106300000Y-112071428D01*
X106252380Y-111928571D01*
X106252380Y-111833333D01*
X106300000Y-111690476D01*
X106347619Y-111642857D01*
X107252380Y-110690476D02*
X107252380Y-111261904D01*
X107252380Y-110976190D02*
X106252380Y-110976190D01*
X106395238Y-111071428D01*
X106490476Y-111166666D01*
X106538095Y-111261904D01*
X106585714Y-109833333D02*
X107252380Y-109833333D01*
X106204761Y-110071428D02*
X106919047Y-110309523D01*
X106919047Y-109690476D01*
%TO.C,R6*%
X115733333Y-112452380D02*
X115400000Y-111976190D01*
X115161904Y-112452380D02*
X115161904Y-111452380D01*
X115542857Y-111452380D01*
X115638095Y-111500000D01*
X115685714Y-111547619D01*
X115733333Y-111642857D01*
X115733333Y-111785714D01*
X115685714Y-111880952D01*
X115638095Y-111928571D01*
X115542857Y-111976190D01*
X115161904Y-111976190D01*
X116590476Y-111452380D02*
X116400000Y-111452380D01*
X116304761Y-111500000D01*
X116257142Y-111547619D01*
X116161904Y-111690476D01*
X116114285Y-111880952D01*
X116114285Y-112261904D01*
X116161904Y-112357142D01*
X116209523Y-112404761D01*
X116304761Y-112452380D01*
X116495238Y-112452380D01*
X116590476Y-112404761D01*
X116638095Y-112357142D01*
X116685714Y-112261904D01*
X116685714Y-112023809D01*
X116638095Y-111928571D01*
X116590476Y-111880952D01*
X116495238Y-111833333D01*
X116304761Y-111833333D01*
X116209523Y-111880952D01*
X116161904Y-111928571D01*
X116114285Y-112023809D01*
%TO.C,R7*%
X121333333Y-106352380D02*
X121000000Y-105876190D01*
X120761904Y-106352380D02*
X120761904Y-105352380D01*
X121142857Y-105352380D01*
X121238095Y-105400000D01*
X121285714Y-105447619D01*
X121333333Y-105542857D01*
X121333333Y-105685714D01*
X121285714Y-105780952D01*
X121238095Y-105828571D01*
X121142857Y-105876190D01*
X120761904Y-105876190D01*
X121666666Y-105352380D02*
X122333333Y-105352380D01*
X121904761Y-106352380D01*
%TO.C,U7*%
D16*
X113340235Y-110792840D02*
X113340235Y-111602364D01*
X113387854Y-111697602D01*
X113435473Y-111745221D01*
X113530711Y-111792840D01*
X113721187Y-111792840D01*
X113816425Y-111745221D01*
X113864044Y-111697602D01*
X113911663Y-111602364D01*
X113911663Y-110792840D01*
X114292616Y-110792840D02*
X114959282Y-110792840D01*
X114530711Y-111792840D01*
%TO.C,C1*%
D13*
X109154933Y-84963142D02*
X109107314Y-85010761D01*
X108964457Y-85058380D01*
X108869219Y-85058380D01*
X108726361Y-85010761D01*
X108631123Y-84915523D01*
X108583504Y-84820285D01*
X108535885Y-84629809D01*
X108535885Y-84486952D01*
X108583504Y-84296476D01*
X108631123Y-84201238D01*
X108726361Y-84106000D01*
X108869219Y-84058380D01*
X108964457Y-84058380D01*
X109107314Y-84106000D01*
X109154933Y-84153619D01*
X110107314Y-85058380D02*
X109535885Y-85058380D01*
X109821600Y-85058380D02*
X109821600Y-84058380D01*
X109726361Y-84201238D01*
X109631123Y-84296476D01*
X109535885Y-84344095D01*
%TO.C,D1*%
X111052380Y-103738095D02*
X110052380Y-103738095D01*
X110052380Y-103500000D01*
X110100000Y-103357142D01*
X110195238Y-103261904D01*
X110290476Y-103214285D01*
X110480952Y-103166666D01*
X110623809Y-103166666D01*
X110814285Y-103214285D01*
X110909523Y-103261904D01*
X111004761Y-103357142D01*
X111052380Y-103500000D01*
X111052380Y-103738095D01*
X111052380Y-102214285D02*
X111052380Y-102785714D01*
X111052380Y-102500000D02*
X110052380Y-102500000D01*
X110195238Y-102595238D01*
X110290476Y-102690476D01*
X110338095Y-102785714D01*
%TO.C,R3*%
X110052380Y-110966666D02*
X109576190Y-111300000D01*
X110052380Y-111538095D02*
X109052380Y-111538095D01*
X109052380Y-111157142D01*
X109100000Y-111061904D01*
X109147619Y-111014285D01*
X109242857Y-110966666D01*
X109385714Y-110966666D01*
X109480952Y-111014285D01*
X109528571Y-111061904D01*
X109576190Y-111157142D01*
X109576190Y-111538095D01*
X109052380Y-110633333D02*
X109052380Y-110014285D01*
X109433333Y-110347619D01*
X109433333Y-110204761D01*
X109480952Y-110109523D01*
X109528571Y-110061904D01*
X109623809Y-110014285D01*
X109861904Y-110014285D01*
X109957142Y-110061904D01*
X110004761Y-110109523D01*
X110052380Y-110204761D01*
X110052380Y-110490476D01*
X110004761Y-110585714D01*
X109957142Y-110633333D01*
%TO.C,R4*%
X170648333Y-107895380D02*
X170315000Y-107419190D01*
X170076904Y-107895380D02*
X170076904Y-106895380D01*
X170457857Y-106895380D01*
X170553095Y-106943000D01*
X170600714Y-106990619D01*
X170648333Y-107085857D01*
X170648333Y-107228714D01*
X170600714Y-107323952D01*
X170553095Y-107371571D01*
X170457857Y-107419190D01*
X170076904Y-107419190D01*
X171505476Y-107228714D02*
X171505476Y-107895380D01*
X171267380Y-106847761D02*
X171029285Y-107562047D01*
X171648333Y-107562047D01*
%TO.C,R8*%
X144333333Y-54102380D02*
X144000000Y-53626190D01*
X143761904Y-54102380D02*
X143761904Y-53102380D01*
X144142857Y-53102380D01*
X144238095Y-53150000D01*
X144285714Y-53197619D01*
X144333333Y-53292857D01*
X144333333Y-53435714D01*
X144285714Y-53530952D01*
X144238095Y-53578571D01*
X144142857Y-53626190D01*
X143761904Y-53626190D01*
X144904761Y-53530952D02*
X144809523Y-53483333D01*
X144761904Y-53435714D01*
X144714285Y-53340476D01*
X144714285Y-53292857D01*
X144761904Y-53197619D01*
X144809523Y-53150000D01*
X144904761Y-53102380D01*
X145095238Y-53102380D01*
X145190476Y-53150000D01*
X145238095Y-53197619D01*
X145285714Y-53292857D01*
X145285714Y-53340476D01*
X145238095Y-53435714D01*
X145190476Y-53483333D01*
X145095238Y-53530952D01*
X144904761Y-53530952D01*
X144809523Y-53578571D01*
X144761904Y-53626190D01*
X144714285Y-53721428D01*
X144714285Y-53911904D01*
X144761904Y-54007142D01*
X144809523Y-54054761D01*
X144904761Y-54102380D01*
X145095238Y-54102380D01*
X145190476Y-54054761D01*
X145238095Y-54007142D01*
X145285714Y-53911904D01*
X145285714Y-53721428D01*
X145238095Y-53626190D01*
X145190476Y-53578571D01*
X145095238Y-53530952D01*
%TO.C,R9*%
X146302380Y-82666666D02*
X145826190Y-83000000D01*
X146302380Y-83238095D02*
X145302380Y-83238095D01*
X145302380Y-82857142D01*
X145350000Y-82761904D01*
X145397619Y-82714285D01*
X145492857Y-82666666D01*
X145635714Y-82666666D01*
X145730952Y-82714285D01*
X145778571Y-82761904D01*
X145826190Y-82857142D01*
X145826190Y-83238095D01*
X146302380Y-82190476D02*
X146302380Y-82000000D01*
X146254761Y-81904761D01*
X146207142Y-81857142D01*
X146064285Y-81761904D01*
X145873809Y-81714285D01*
X145492857Y-81714285D01*
X145397619Y-81761904D01*
X145350000Y-81809523D01*
X145302380Y-81904761D01*
X145302380Y-82095238D01*
X145350000Y-82190476D01*
X145397619Y-82238095D01*
X145492857Y-82285714D01*
X145730952Y-82285714D01*
X145826190Y-82238095D01*
X145873809Y-82190476D01*
X145921428Y-82095238D01*
X145921428Y-81904761D01*
X145873809Y-81809523D01*
X145826190Y-81761904D01*
X145730952Y-81714285D01*
%TO.C,R10*%
X141802380Y-83142857D02*
X141326190Y-83476190D01*
X141802380Y-83714285D02*
X140802380Y-83714285D01*
X140802380Y-83333333D01*
X140850000Y-83238095D01*
X140897619Y-83190476D01*
X140992857Y-83142857D01*
X141135714Y-83142857D01*
X141230952Y-83190476D01*
X141278571Y-83238095D01*
X141326190Y-83333333D01*
X141326190Y-83714285D01*
X141802380Y-82190476D02*
X141802380Y-82761904D01*
X141802380Y-82476190D02*
X140802380Y-82476190D01*
X140945238Y-82571428D01*
X141040476Y-82666666D01*
X141088095Y-82761904D01*
X140802380Y-81571428D02*
X140802380Y-81476190D01*
X140850000Y-81380952D01*
X140897619Y-81333333D01*
X140992857Y-81285714D01*
X141183333Y-81238095D01*
X141421428Y-81238095D01*
X141611904Y-81285714D01*
X141707142Y-81333333D01*
X141754761Y-81380952D01*
X141802380Y-81476190D01*
X141802380Y-81571428D01*
X141754761Y-81666666D01*
X141707142Y-81714285D01*
X141611904Y-81761904D01*
X141421428Y-81809523D01*
X141183333Y-81809523D01*
X140992857Y-81761904D01*
X140897619Y-81714285D01*
X140850000Y-81666666D01*
X140802380Y-81571428D01*
%TO.C,R11*%
X137302380Y-83142857D02*
X136826190Y-83476190D01*
X137302380Y-83714285D02*
X136302380Y-83714285D01*
X136302380Y-83333333D01*
X136350000Y-83238095D01*
X136397619Y-83190476D01*
X136492857Y-83142857D01*
X136635714Y-83142857D01*
X136730952Y-83190476D01*
X136778571Y-83238095D01*
X136826190Y-83333333D01*
X136826190Y-83714285D01*
X137302380Y-82190476D02*
X137302380Y-82761904D01*
X137302380Y-82476190D02*
X136302380Y-82476190D01*
X136445238Y-82571428D01*
X136540476Y-82666666D01*
X136588095Y-82761904D01*
X137302380Y-81238095D02*
X137302380Y-81809523D01*
X137302380Y-81523809D02*
X136302380Y-81523809D01*
X136445238Y-81619047D01*
X136540476Y-81714285D01*
X136588095Y-81809523D01*
%TO.C,R12*%
X132802380Y-83142857D02*
X132326190Y-83476190D01*
X132802380Y-83714285D02*
X131802380Y-83714285D01*
X131802380Y-83333333D01*
X131850000Y-83238095D01*
X131897619Y-83190476D01*
X131992857Y-83142857D01*
X132135714Y-83142857D01*
X132230952Y-83190476D01*
X132278571Y-83238095D01*
X132326190Y-83333333D01*
X132326190Y-83714285D01*
X132802380Y-82190476D02*
X132802380Y-82761904D01*
X132802380Y-82476190D02*
X131802380Y-82476190D01*
X131945238Y-82571428D01*
X132040476Y-82666666D01*
X132088095Y-82761904D01*
X131897619Y-81809523D02*
X131850000Y-81761904D01*
X131802380Y-81666666D01*
X131802380Y-81428571D01*
X131850000Y-81333333D01*
X131897619Y-81285714D01*
X131992857Y-81238095D01*
X132088095Y-81238095D01*
X132230952Y-81285714D01*
X132802380Y-81857142D01*
X132802380Y-81238095D01*
%TD*%
M02*
