G04 #@! TF.GenerationSoftware,KiCad,Pcbnew,(5.1.7)-1*
G04 #@! TF.CreationDate,2021-11-24T22:39:04-05:00*
G04 #@! TF.ProjectId,REV1_FALL_2021,52455631-5f46-4414-9c4c-5f323032312e,rev?*
G04 #@! TF.SameCoordinates,Original*
G04 #@! TF.FileFunction,Legend,Top*
G04 #@! TF.FilePolarity,Positive*
%FSLAX46Y46*%
G04 Gerber Fmt 4.6, Leading zero omitted, Abs format (unit mm)*
G04 Created by KiCad (PCBNEW (5.1.7)-1) date 2021-11-24 22:39:04*
%MOMM*%
%LPD*%
G01*
G04 APERTURE LIST*
%ADD10C,0.300000*%
%ADD11C,0.120000*%
%ADD12C,0.100000*%
%ADD13C,0.150000*%
%ADD14C,0.200000*%
%ADD15C,0.127000*%
%ADD16C,0.015000*%
%ADD17C,0.010000*%
%ADD18R,10.000000X5.000000*%
%ADD19C,1.600000*%
%ADD20R,1.600000X1.600000*%
%ADD21R,3.000000X3.000000*%
%ADD22C,3.000000*%
%ADD23R,2.000000X2.000000*%
%ADD24C,2.000000*%
G04 APERTURE END LIST*
D10*
X133168571Y-45992142D02*
X136071428Y-45992142D01*
X69668571Y-45992142D02*
X72571428Y-45992142D01*
X71120000Y-47443571D02*
X71120000Y-44540714D01*
D11*
X64945000Y-71230000D02*
X142945000Y-71230000D01*
X142945000Y-71230000D02*
X142945000Y-91330000D01*
X142945000Y-91330000D02*
X64945000Y-91330000D01*
X64945000Y-91330000D02*
X64945000Y-71230000D01*
X64945000Y-49640000D02*
X142945000Y-49640000D01*
X142945000Y-49640000D02*
X142945000Y-69740000D01*
X142945000Y-69740000D02*
X64945000Y-69740000D01*
X64945000Y-69740000D02*
X64945000Y-49640000D01*
X141986000Y-135001000D02*
X141986000Y-156337000D01*
X110490000Y-132969000D02*
X139954000Y-132969000D01*
X108458000Y-135509000D02*
X108458000Y-135001000D01*
X108458000Y-145669000D02*
X108458000Y-146050000D01*
X108458000Y-145669000D02*
X108458000Y-135509000D01*
X108458000Y-145669000D02*
X108458000Y-155829000D01*
X110490000Y-158369000D02*
X139954000Y-158369000D01*
X108458000Y-156337000D02*
X108458000Y-155829000D01*
X110490000Y-158369000D02*
G75*
G02*
X108458000Y-156337000I0J2032000D01*
G01*
X108458000Y-135001000D02*
G75*
G02*
X110490000Y-132969000I2032000J0D01*
G01*
X141986000Y-156337000D02*
G75*
G02*
X139954000Y-158369000I-2032000J0D01*
G01*
X139954000Y-132969000D02*
G75*
G02*
X141986000Y-135001000I0J-2032000D01*
G01*
X75565000Y-139954000D02*
X82550000Y-139954000D01*
X75565000Y-139954000D02*
X68580000Y-139954000D01*
X85090000Y-142494000D02*
X85090000Y-149479000D01*
X85090000Y-149479000D02*
X85090000Y-155829000D01*
X82550000Y-158369000D02*
X68580000Y-158369000D01*
X66040000Y-155829000D02*
X66040000Y-142494000D01*
X68580000Y-158369000D02*
G75*
G02*
X66040000Y-155829000I0J2540000D01*
G01*
X85090000Y-155829000D02*
G75*
G02*
X82550000Y-158369000I-2540000J0D01*
G01*
X82550000Y-139954000D02*
G75*
G02*
X85090000Y-142494000I0J-2540000D01*
G01*
X66040000Y-142494000D02*
G75*
G02*
X68580000Y-139954000I2540000J0D01*
G01*
X60960000Y-130937000D02*
X82550000Y-130937000D01*
X82550000Y-110617000D02*
X60960000Y-110617000D01*
X58420000Y-113157000D02*
X58420000Y-128397000D01*
X85090000Y-113157000D02*
X85090000Y-128397000D01*
X85090000Y-128397000D02*
G75*
G02*
X82550000Y-130937000I-2540000J0D01*
G01*
X60960000Y-130937000D02*
G75*
G02*
X58420000Y-128397000I0J2540000D01*
G01*
X58420000Y-113157000D02*
G75*
G02*
X60960000Y-110617000I2540000J0D01*
G01*
X82550000Y-110617000D02*
G75*
G02*
X85090000Y-113157000I0J-2540000D01*
G01*
X137668000Y-122174000D02*
X137668000Y-122809000D01*
X135128000Y-97409000D02*
X110998000Y-97409000D01*
X137668000Y-122174000D02*
X137668000Y-99949000D01*
X110998000Y-122809000D02*
X137668000Y-122809000D01*
X108458000Y-110109000D02*
X108458000Y-120269000D01*
X108458000Y-110109000D02*
X108458000Y-99949000D01*
X108458000Y-99949000D02*
G75*
G02*
X110998000Y-97409000I2540000J0D01*
G01*
X110998000Y-122809000D02*
G75*
G02*
X108458000Y-120269000I0J2540000D01*
G01*
X135128000Y-97409000D02*
G75*
G02*
X137668000Y-99949000I0J-2540000D01*
G01*
D12*
G36*
X92075000Y-126619000D02*
G01*
X92329000Y-126365000D01*
X92583000Y-126746000D01*
X92329000Y-127000000D01*
X92075000Y-126619000D01*
G37*
X92075000Y-126619000D02*
X92329000Y-126365000D01*
X92583000Y-126746000D01*
X92329000Y-127000000D01*
X92075000Y-126619000D01*
G36*
X91313000Y-126492000D02*
G01*
X91567000Y-126238000D01*
X91821000Y-126619000D01*
X91567000Y-126873000D01*
X91313000Y-126492000D01*
G37*
X91313000Y-126492000D02*
X91567000Y-126238000D01*
X91821000Y-126619000D01*
X91567000Y-126873000D01*
X91313000Y-126492000D01*
G36*
X92456000Y-126238000D02*
G01*
X92710000Y-125984000D01*
X92964000Y-126365000D01*
X92710000Y-126619000D01*
X92456000Y-126238000D01*
G37*
X92456000Y-126238000D02*
X92710000Y-125984000D01*
X92964000Y-126365000D01*
X92710000Y-126619000D01*
X92456000Y-126238000D01*
G36*
X92837000Y-126746000D02*
G01*
X93091000Y-126492000D01*
X93345000Y-126873000D01*
X93091000Y-127127000D01*
X92837000Y-126746000D01*
G37*
X92837000Y-126746000D02*
X93091000Y-126492000D01*
X93345000Y-126873000D01*
X93091000Y-127127000D01*
X92837000Y-126746000D01*
G36*
X91694000Y-126111000D02*
G01*
X91948000Y-125857000D01*
X92202000Y-126238000D01*
X91948000Y-126492000D01*
X91694000Y-126111000D01*
G37*
X91694000Y-126111000D02*
X91948000Y-125857000D01*
X92202000Y-126238000D01*
X91948000Y-126492000D01*
X91694000Y-126111000D01*
G36*
X93218000Y-127254000D02*
G01*
X93472000Y-127000000D01*
X93726000Y-127381000D01*
X93472000Y-127635000D01*
X93218000Y-127254000D01*
G37*
X93218000Y-127254000D02*
X93472000Y-127000000D01*
X93726000Y-127381000D01*
X93472000Y-127635000D01*
X93218000Y-127254000D01*
G36*
X92456000Y-127127000D02*
G01*
X92710000Y-126873000D01*
X92964000Y-127254000D01*
X92710000Y-127508000D01*
X92456000Y-127127000D01*
G37*
X92456000Y-127127000D02*
X92710000Y-126873000D01*
X92964000Y-127254000D01*
X92710000Y-127508000D01*
X92456000Y-127127000D01*
G36*
X90932000Y-126873000D02*
G01*
X91186000Y-126619000D01*
X91440000Y-127000000D01*
X91186000Y-127254000D01*
X90932000Y-126873000D01*
G37*
X90932000Y-126873000D02*
X91186000Y-126619000D01*
X91440000Y-127000000D01*
X91186000Y-127254000D01*
X90932000Y-126873000D01*
D13*
X104775000Y-158369000D02*
X86995000Y-158369000D01*
X86995000Y-97409000D02*
X104775000Y-97409000D01*
X93345000Y-116459000D02*
X93345000Y-113919000D01*
X98425000Y-116459000D02*
X93345000Y-116459000D01*
X98425000Y-113919000D02*
X98425000Y-116459000D01*
X93345000Y-113919000D02*
X98425000Y-113919000D01*
X99695000Y-153289000D02*
X99695000Y-158369000D01*
X92075000Y-153289000D02*
X92075000Y-158369000D01*
X99695000Y-153289000D02*
X92075000Y-153289000D01*
X92075000Y-159639000D02*
X92075000Y-158369000D01*
X99695000Y-159639000D02*
X92075000Y-159639000D01*
X99695000Y-158369000D02*
X99695000Y-159639000D01*
X104775000Y-158369000D02*
X104775000Y-97409000D01*
X86995000Y-97409000D02*
X86995000Y-158369000D01*
X102235000Y-110109000D02*
X102235000Y-97409000D01*
X89535000Y-110109000D02*
X102235000Y-110109000D01*
X89535000Y-97409000D02*
X89535000Y-110109000D01*
X90805000Y-98679000D02*
X89535000Y-97409000D01*
X100965000Y-98679000D02*
X90805000Y-98679000D01*
X102235000Y-97409000D02*
X100965000Y-98679000D01*
X90805000Y-98679000D02*
X90805000Y-97409000D01*
X92075000Y-98679000D02*
X92075000Y-97409000D01*
X93345000Y-98679000D02*
X93345000Y-97409000D01*
X94615000Y-98679000D02*
X94615000Y-97409000D01*
X95885000Y-98679000D02*
X95885000Y-97409000D01*
X97155000Y-98679000D02*
X97155000Y-97409000D01*
X98425000Y-98679000D02*
X98425000Y-97409000D01*
X99695000Y-98679000D02*
X99695000Y-97409000D01*
X100965000Y-98679000D02*
X100965000Y-97409000D01*
X89535000Y-132969000D02*
X89535000Y-120269000D01*
X102235000Y-132969000D02*
X102235000Y-120269000D01*
X89535000Y-132969000D02*
X102235000Y-132969000D01*
X102235000Y-120269000D02*
X89535000Y-120269000D01*
X98425000Y-134239000D02*
X100965000Y-134239000D01*
X98425000Y-138049000D02*
X98425000Y-134239000D01*
X100965000Y-138049000D02*
X98425000Y-138049000D01*
X100965000Y-134239000D02*
X100965000Y-138049000D01*
X92075000Y-139319000D02*
X92075000Y-141859000D01*
X94615000Y-139319000D02*
X92075000Y-139319000D01*
X94615000Y-141859000D02*
X94615000Y-139319000D01*
X92075000Y-141859000D02*
X94615000Y-141859000D01*
D11*
X47598000Y-103243748D02*
X47598000Y-103766252D01*
X46128000Y-103243748D02*
X46128000Y-103766252D01*
X35440252Y-101754000D02*
X34917748Y-101754000D01*
X35440252Y-103224000D02*
X34917748Y-103224000D01*
X42518000Y-103243748D02*
X42518000Y-103766252D01*
X41048000Y-103243748D02*
X41048000Y-103766252D01*
X50201500Y-87051248D02*
X50201500Y-87573752D01*
X48731500Y-87051248D02*
X48731500Y-87573752D01*
X37301500Y-87051248D02*
X37301500Y-87573752D01*
X38771500Y-87051248D02*
X38771500Y-87573752D01*
X43651500Y-87051248D02*
X43651500Y-87573752D01*
X45121500Y-87051248D02*
X45121500Y-87573752D01*
X44069000Y-115951000D02*
X33909000Y-115951000D01*
X44069000Y-117221000D02*
X44069000Y-109601000D01*
X44069000Y-109601000D02*
X33909000Y-109601000D01*
X33909000Y-109601000D02*
X33909000Y-117221000D01*
X33909000Y-117221000D02*
X44069000Y-117221000D01*
D12*
X52598000Y-113772000D02*
X52598000Y-123872000D01*
X48908000Y-123972000D02*
X49308000Y-123972000D01*
X48908000Y-123972000D02*
X48908000Y-123572000D01*
X48908000Y-113772000D02*
X53308000Y-113772000D01*
X48908000Y-113772000D02*
X48908000Y-114172000D01*
X53708000Y-113772000D02*
X53308000Y-113772000D01*
X53708000Y-113772000D02*
X53708000Y-114172000D01*
X53708000Y-123572000D02*
X53708000Y-123972000D01*
X53708000Y-123972000D02*
X53308000Y-123972000D01*
D11*
X46137564Y-77633500D02*
X45683436Y-77633500D01*
X46137564Y-76163500D02*
X45683436Y-76163500D01*
X45683436Y-73696500D02*
X46137564Y-73696500D01*
X45683436Y-72226500D02*
X46137564Y-72226500D01*
X55017936Y-108685000D02*
X55472064Y-108685000D01*
X55017936Y-107215000D02*
X55472064Y-107215000D01*
X34951936Y-96493000D02*
X35406064Y-96493000D01*
X34951936Y-95023000D02*
X35406064Y-95023000D01*
X45493000Y-97382064D02*
X45493000Y-96927936D01*
X46963000Y-97382064D02*
X46963000Y-96927936D01*
X41946500Y-75655436D02*
X41946500Y-76109564D01*
X40476500Y-75655436D02*
X40476500Y-76109564D01*
X48677564Y-82586500D02*
X48223436Y-82586500D01*
X48677564Y-81116500D02*
X48223436Y-81116500D01*
D14*
X42223000Y-94825000D02*
G75*
G03*
X42223000Y-94825000I-100000J0D01*
G01*
D15*
X42648000Y-95655000D02*
X42648000Y-96395000D01*
X42648000Y-97915000D02*
X42648000Y-98655000D01*
X39648000Y-95655000D02*
X39648000Y-96395000D01*
X39648000Y-97915000D02*
X39648000Y-98655000D01*
X42251500Y-82357500D02*
X42251500Y-83097500D01*
X42251500Y-80097500D02*
X42251500Y-80837500D01*
X45251500Y-82357500D02*
X45251500Y-83097500D01*
X45251500Y-80097500D02*
X45251500Y-80837500D01*
D14*
X44826500Y-79267500D02*
G75*
G03*
X44826500Y-79267500I-100000J0D01*
G01*
D11*
X148860000Y-121864000D02*
X151720000Y-121864000D01*
X151720000Y-121864000D02*
X151720000Y-119944000D01*
X151720000Y-119944000D02*
X148860000Y-119944000D01*
X151720000Y-113848000D02*
X148860000Y-113848000D01*
X151720000Y-115768000D02*
X151720000Y-113848000D01*
X148860000Y-115768000D02*
X151720000Y-115768000D01*
X151720000Y-107752000D02*
X148860000Y-107752000D01*
X151720000Y-109672000D02*
X151720000Y-107752000D01*
X148860000Y-109672000D02*
X151720000Y-109672000D01*
X148860000Y-103576000D02*
X151720000Y-103576000D01*
X151720000Y-103576000D02*
X151720000Y-101656000D01*
X151720000Y-101656000D02*
X148860000Y-101656000D01*
X148672000Y-95560000D02*
X145812000Y-95560000D01*
X148672000Y-97480000D02*
X148672000Y-95560000D01*
X145812000Y-97480000D02*
X148672000Y-97480000D01*
X157252936Y-121639000D02*
X157707064Y-121639000D01*
X157252936Y-120169000D02*
X157707064Y-120169000D01*
X157252936Y-114073000D02*
X157707064Y-114073000D01*
X157252936Y-115543000D02*
X157707064Y-115543000D01*
X157252936Y-109447000D02*
X157707064Y-109447000D01*
X157252936Y-107977000D02*
X157707064Y-107977000D01*
X157252936Y-103351000D02*
X157707064Y-103351000D01*
X157252936Y-101881000D02*
X157707064Y-101881000D01*
X154204936Y-95785000D02*
X154659064Y-95785000D01*
X154204936Y-97255000D02*
X154659064Y-97255000D01*
X87383252Y-159666000D02*
X86860748Y-159666000D01*
X87383252Y-161136000D02*
X86860748Y-161136000D01*
X54737000Y-143383000D02*
X44577000Y-143383000D01*
X54737000Y-144653000D02*
X54737000Y-137033000D01*
X54737000Y-137033000D02*
X44577000Y-137033000D01*
X44577000Y-137033000D02*
X44577000Y-144653000D01*
X44577000Y-144653000D02*
X54737000Y-144653000D01*
D12*
X61996000Y-133330000D02*
X61996000Y-143430000D01*
X58306000Y-143530000D02*
X58706000Y-143530000D01*
X58306000Y-143530000D02*
X58306000Y-143130000D01*
X58306000Y-133330000D02*
X62706000Y-133330000D01*
X58306000Y-133330000D02*
X58306000Y-133730000D01*
X63106000Y-133330000D02*
X62706000Y-133330000D01*
X63106000Y-133330000D02*
X63106000Y-133730000D01*
X63106000Y-143130000D02*
X63106000Y-143530000D01*
X63106000Y-143530000D02*
X62706000Y-143530000D01*
D11*
X55780000Y-128497064D02*
X55780000Y-128042936D01*
X57250000Y-128497064D02*
X57250000Y-128042936D01*
D13*
X102206904Y-82208571D02*
X102349761Y-82256190D01*
X102397380Y-82303809D01*
X102445000Y-82399047D01*
X102445000Y-82541904D01*
X102397380Y-82637142D01*
X102349761Y-82684761D01*
X102254523Y-82732380D01*
X101873571Y-82732380D01*
X101873571Y-81732380D01*
X102206904Y-81732380D01*
X102302142Y-81780000D01*
X102349761Y-81827619D01*
X102397380Y-81922857D01*
X102397380Y-82018095D01*
X102349761Y-82113333D01*
X102302142Y-82160952D01*
X102206904Y-82208571D01*
X101873571Y-82208571D01*
X102730714Y-81732380D02*
X103302142Y-81732380D01*
X103016428Y-82732380D02*
X103016428Y-81732380D01*
X104159285Y-82732380D02*
X103587857Y-82732380D01*
X103873571Y-82732380D02*
X103873571Y-81732380D01*
X103778333Y-81875238D01*
X103683095Y-81970476D01*
X103587857Y-82018095D01*
X104778333Y-81732380D02*
X104873571Y-81732380D01*
X104968809Y-81780000D01*
X105016428Y-81827619D01*
X105064047Y-81922857D01*
X105111666Y-82113333D01*
X105111666Y-82351428D01*
X105064047Y-82541904D01*
X105016428Y-82637142D01*
X104968809Y-82684761D01*
X104873571Y-82732380D01*
X104778333Y-82732380D01*
X104683095Y-82684761D01*
X104635476Y-82637142D01*
X104587857Y-82541904D01*
X104540238Y-82351428D01*
X104540238Y-82113333D01*
X104587857Y-81922857D01*
X104635476Y-81827619D01*
X104683095Y-81780000D01*
X104778333Y-81732380D01*
X106064047Y-82732380D02*
X105492619Y-82732380D01*
X105778333Y-82732380D02*
X105778333Y-81732380D01*
X105683095Y-81875238D01*
X105587857Y-81970476D01*
X105492619Y-82018095D01*
X102206904Y-60618571D02*
X102349761Y-60666190D01*
X102397380Y-60713809D01*
X102445000Y-60809047D01*
X102445000Y-60951904D01*
X102397380Y-61047142D01*
X102349761Y-61094761D01*
X102254523Y-61142380D01*
X101873571Y-61142380D01*
X101873571Y-60142380D01*
X102206904Y-60142380D01*
X102302142Y-60190000D01*
X102349761Y-60237619D01*
X102397380Y-60332857D01*
X102397380Y-60428095D01*
X102349761Y-60523333D01*
X102302142Y-60570952D01*
X102206904Y-60618571D01*
X101873571Y-60618571D01*
X102730714Y-60142380D02*
X103302142Y-60142380D01*
X103016428Y-61142380D02*
X103016428Y-60142380D01*
X104159285Y-61142380D02*
X103587857Y-61142380D01*
X103873571Y-61142380D02*
X103873571Y-60142380D01*
X103778333Y-60285238D01*
X103683095Y-60380476D01*
X103587857Y-60428095D01*
X104778333Y-60142380D02*
X104873571Y-60142380D01*
X104968809Y-60190000D01*
X105016428Y-60237619D01*
X105064047Y-60332857D01*
X105111666Y-60523333D01*
X105111666Y-60761428D01*
X105064047Y-60951904D01*
X105016428Y-61047142D01*
X104968809Y-61094761D01*
X104873571Y-61142380D01*
X104778333Y-61142380D01*
X104683095Y-61094761D01*
X104635476Y-61047142D01*
X104587857Y-60951904D01*
X104540238Y-60761428D01*
X104540238Y-60523333D01*
X104587857Y-60332857D01*
X104635476Y-60237619D01*
X104683095Y-60190000D01*
X104778333Y-60142380D01*
X105492619Y-60237619D02*
X105540238Y-60190000D01*
X105635476Y-60142380D01*
X105873571Y-60142380D01*
X105968809Y-60190000D01*
X106016428Y-60237619D01*
X106064047Y-60332857D01*
X106064047Y-60428095D01*
X106016428Y-60570952D01*
X105445000Y-61142380D01*
X106064047Y-61142380D01*
X142962380Y-146430904D02*
X143771904Y-146430904D01*
X143867142Y-146383285D01*
X143914761Y-146335666D01*
X143962380Y-146240428D01*
X143962380Y-146049952D01*
X143914761Y-145954714D01*
X143867142Y-145907095D01*
X143771904Y-145859476D01*
X142962380Y-145859476D01*
X143057619Y-145430904D02*
X143010000Y-145383285D01*
X142962380Y-145288047D01*
X142962380Y-145049952D01*
X143010000Y-144954714D01*
X143057619Y-144907095D01*
X143152857Y-144859476D01*
X143248095Y-144859476D01*
X143390952Y-144907095D01*
X143962380Y-145478523D01*
X143962380Y-144859476D01*
X140787380Y-148740428D02*
X139787380Y-148740428D01*
X139787380Y-148359476D01*
X139835000Y-148264238D01*
X139882619Y-148216619D01*
X139977857Y-148169000D01*
X140120714Y-148169000D01*
X140215952Y-148216619D01*
X140263571Y-148264238D01*
X140311190Y-148359476D01*
X140311190Y-148740428D01*
X140501666Y-147788047D02*
X140501666Y-147311857D01*
X140787380Y-147883285D02*
X139787380Y-147549952D01*
X140787380Y-147216619D01*
X140787380Y-146359476D02*
X140787380Y-146930904D01*
X140787380Y-146645190D02*
X139787380Y-146645190D01*
X139930238Y-146740428D01*
X140025476Y-146835666D01*
X140073095Y-146930904D01*
X139787380Y-145502333D02*
X139787380Y-145692809D01*
X139835000Y-145788047D01*
X139882619Y-145835666D01*
X140025476Y-145930904D01*
X140215952Y-145978523D01*
X140596904Y-145978523D01*
X140692142Y-145930904D01*
X140739761Y-145883285D01*
X140787380Y-145788047D01*
X140787380Y-145597571D01*
X140739761Y-145502333D01*
X140692142Y-145454714D01*
X140596904Y-145407095D01*
X140358809Y-145407095D01*
X140263571Y-145454714D01*
X140215952Y-145502333D01*
X140168333Y-145597571D01*
X140168333Y-145788047D01*
X140215952Y-145883285D01*
X140263571Y-145930904D01*
X140358809Y-145978523D01*
X140787380Y-144454714D02*
X140787380Y-145026142D01*
X140787380Y-144740428D02*
X139787380Y-144740428D01*
X139930238Y-144835666D01*
X140025476Y-144930904D01*
X140073095Y-145026142D01*
X139787380Y-143597571D02*
X139787380Y-143788047D01*
X139835000Y-143883285D01*
X139882619Y-143930904D01*
X140025476Y-144026142D01*
X140215952Y-144073761D01*
X140596904Y-144073761D01*
X140692142Y-144026142D01*
X140739761Y-143978523D01*
X140787380Y-143883285D01*
X140787380Y-143692809D01*
X140739761Y-143597571D01*
X140692142Y-143549952D01*
X140596904Y-143502333D01*
X140358809Y-143502333D01*
X140263571Y-143549952D01*
X140215952Y-143597571D01*
X140168333Y-143692809D01*
X140168333Y-143883285D01*
X140215952Y-143978523D01*
X140263571Y-144026142D01*
X140358809Y-144073761D01*
X139787380Y-142597571D02*
X139787380Y-143073761D01*
X140263571Y-143121380D01*
X140215952Y-143073761D01*
X140168333Y-142978523D01*
X140168333Y-142740428D01*
X140215952Y-142645190D01*
X140263571Y-142597571D01*
X140358809Y-142549952D01*
X140596904Y-142549952D01*
X140692142Y-142597571D01*
X140739761Y-142645190D01*
X140787380Y-142740428D01*
X140787380Y-142978523D01*
X140739761Y-143073761D01*
X140692142Y-143121380D01*
X74803095Y-159091380D02*
X74803095Y-159900904D01*
X74850714Y-159996142D01*
X74898333Y-160043761D01*
X74993571Y-160091380D01*
X75184047Y-160091380D01*
X75279285Y-160043761D01*
X75326904Y-159996142D01*
X75374523Y-159900904D01*
X75374523Y-159091380D01*
X75755476Y-159091380D02*
X76374523Y-159091380D01*
X76041190Y-159472333D01*
X76184047Y-159472333D01*
X76279285Y-159519952D01*
X76326904Y-159567571D01*
X76374523Y-159662809D01*
X76374523Y-159900904D01*
X76326904Y-159996142D01*
X76279285Y-160043761D01*
X76184047Y-160091380D01*
X75898333Y-160091380D01*
X75803095Y-160043761D01*
X75755476Y-159996142D01*
X71517380Y-156916380D02*
X71517380Y-155916380D01*
X71850714Y-156630666D01*
X72184047Y-155916380D01*
X72184047Y-156916380D01*
X72660238Y-156916380D02*
X72660238Y-155916380D01*
X73041190Y-155916380D01*
X73136428Y-155964000D01*
X73184047Y-156011619D01*
X73231666Y-156106857D01*
X73231666Y-156249714D01*
X73184047Y-156344952D01*
X73136428Y-156392571D01*
X73041190Y-156440190D01*
X72660238Y-156440190D01*
X74136428Y-156916380D02*
X73660238Y-156916380D01*
X73660238Y-155916380D01*
X74374523Y-155916380D02*
X74993571Y-155916380D01*
X74660238Y-156297333D01*
X74803095Y-156297333D01*
X74898333Y-156344952D01*
X74945952Y-156392571D01*
X74993571Y-156487809D01*
X74993571Y-156725904D01*
X74945952Y-156821142D01*
X74898333Y-156868761D01*
X74803095Y-156916380D01*
X74517380Y-156916380D01*
X74422142Y-156868761D01*
X74374523Y-156821142D01*
X75945952Y-156916380D02*
X75374523Y-156916380D01*
X75660238Y-156916380D02*
X75660238Y-155916380D01*
X75565000Y-156059238D01*
X75469761Y-156154476D01*
X75374523Y-156202095D01*
X76898333Y-156916380D02*
X76326904Y-156916380D01*
X76612619Y-156916380D02*
X76612619Y-155916380D01*
X76517380Y-156059238D01*
X76422142Y-156154476D01*
X76326904Y-156202095D01*
X77803095Y-155916380D02*
X77326904Y-155916380D01*
X77279285Y-156392571D01*
X77326904Y-156344952D01*
X77422142Y-156297333D01*
X77660238Y-156297333D01*
X77755476Y-156344952D01*
X77803095Y-156392571D01*
X77850714Y-156487809D01*
X77850714Y-156725904D01*
X77803095Y-156821142D01*
X77755476Y-156868761D01*
X77660238Y-156916380D01*
X77422142Y-156916380D01*
X77326904Y-156868761D01*
X77279285Y-156821142D01*
X78231666Y-156630666D02*
X78707857Y-156630666D01*
X78136428Y-156916380D02*
X78469761Y-155916380D01*
X78803095Y-156916380D01*
X79088809Y-156011619D02*
X79136428Y-155964000D01*
X79231666Y-155916380D01*
X79469761Y-155916380D01*
X79565000Y-155964000D01*
X79612619Y-156011619D01*
X79660238Y-156106857D01*
X79660238Y-156202095D01*
X79612619Y-156344952D01*
X79041190Y-156916380D01*
X79660238Y-156916380D01*
X70993095Y-108664380D02*
X70993095Y-109473904D01*
X71040714Y-109569142D01*
X71088333Y-109616761D01*
X71183571Y-109664380D01*
X71374047Y-109664380D01*
X71469285Y-109616761D01*
X71516904Y-109569142D01*
X71564523Y-109473904D01*
X71564523Y-108664380D01*
X72469285Y-108997714D02*
X72469285Y-109664380D01*
X72231190Y-108616761D02*
X71993095Y-109331047D01*
X72612142Y-109331047D01*
X59761428Y-118372238D02*
X59713809Y-118515095D01*
X59666190Y-118562714D01*
X59570952Y-118610333D01*
X59428095Y-118610333D01*
X59332857Y-118562714D01*
X59285238Y-118515095D01*
X59237619Y-118419857D01*
X59237619Y-118038904D01*
X60237619Y-118038904D01*
X60237619Y-118372238D01*
X60190000Y-118467476D01*
X60142380Y-118515095D01*
X60047142Y-118562714D01*
X59951904Y-118562714D01*
X59856666Y-118515095D01*
X59809047Y-118467476D01*
X59761428Y-118372238D01*
X59761428Y-118038904D01*
X59237619Y-119038904D02*
X60237619Y-119038904D01*
X59237619Y-119610333D01*
X60237619Y-119610333D01*
X60237619Y-120277000D02*
X60237619Y-120467476D01*
X60190000Y-120562714D01*
X60094761Y-120657952D01*
X59904285Y-120705571D01*
X59570952Y-120705571D01*
X59380476Y-120657952D01*
X59285238Y-120562714D01*
X59237619Y-120467476D01*
X59237619Y-120277000D01*
X59285238Y-120181761D01*
X59380476Y-120086523D01*
X59570952Y-120038904D01*
X59904285Y-120038904D01*
X60094761Y-120086523D01*
X60190000Y-120181761D01*
X60237619Y-120277000D01*
X60237619Y-121324619D02*
X60237619Y-121419857D01*
X60190000Y-121515095D01*
X60142380Y-121562714D01*
X60047142Y-121610333D01*
X59856666Y-121657952D01*
X59618571Y-121657952D01*
X59428095Y-121610333D01*
X59332857Y-121562714D01*
X59285238Y-121515095D01*
X59237619Y-121419857D01*
X59237619Y-121324619D01*
X59285238Y-121229380D01*
X59332857Y-121181761D01*
X59428095Y-121134142D01*
X59618571Y-121086523D01*
X59856666Y-121086523D01*
X60047142Y-121134142D01*
X60142380Y-121181761D01*
X60190000Y-121229380D01*
X60237619Y-121324619D01*
X60237619Y-122562714D02*
X60237619Y-122086523D01*
X59761428Y-122038904D01*
X59809047Y-122086523D01*
X59856666Y-122181761D01*
X59856666Y-122419857D01*
X59809047Y-122515095D01*
X59761428Y-122562714D01*
X59666190Y-122610333D01*
X59428095Y-122610333D01*
X59332857Y-122562714D01*
X59285238Y-122515095D01*
X59237619Y-122419857D01*
X59237619Y-122181761D01*
X59285238Y-122086523D01*
X59332857Y-122038904D01*
X60237619Y-123515095D02*
X60237619Y-123038904D01*
X59761428Y-122991285D01*
X59809047Y-123038904D01*
X59856666Y-123134142D01*
X59856666Y-123372238D01*
X59809047Y-123467476D01*
X59761428Y-123515095D01*
X59666190Y-123562714D01*
X59428095Y-123562714D01*
X59332857Y-123515095D01*
X59285238Y-123467476D01*
X59237619Y-123372238D01*
X59237619Y-123134142D01*
X59285238Y-123038904D01*
X59332857Y-122991285D01*
X122301095Y-123666380D02*
X122301095Y-124475904D01*
X122348714Y-124571142D01*
X122396333Y-124618761D01*
X122491571Y-124666380D01*
X122682047Y-124666380D01*
X122777285Y-124618761D01*
X122824904Y-124571142D01*
X122872523Y-124475904D01*
X122872523Y-123666380D01*
X123824904Y-123666380D02*
X123348714Y-123666380D01*
X123301095Y-124142571D01*
X123348714Y-124094952D01*
X123443952Y-124047333D01*
X123682047Y-124047333D01*
X123777285Y-124094952D01*
X123824904Y-124142571D01*
X123872523Y-124237809D01*
X123872523Y-124475904D01*
X123824904Y-124571142D01*
X123777285Y-124618761D01*
X123682047Y-124666380D01*
X123443952Y-124666380D01*
X123348714Y-124618761D01*
X123301095Y-124571142D01*
X114744904Y-121991380D02*
X114411571Y-121515190D01*
X114173476Y-121991380D02*
X114173476Y-120991380D01*
X114554428Y-120991380D01*
X114649666Y-121039000D01*
X114697285Y-121086619D01*
X114744904Y-121181857D01*
X114744904Y-121324714D01*
X114697285Y-121419952D01*
X114649666Y-121467571D01*
X114554428Y-121515190D01*
X114173476Y-121515190D01*
X115506809Y-121467571D02*
X115173476Y-121467571D01*
X115173476Y-121991380D02*
X115173476Y-120991380D01*
X115649666Y-120991380D01*
X116030619Y-121991380D02*
X116030619Y-120991380D01*
X116363952Y-121705666D01*
X116697285Y-120991380D01*
X116697285Y-121991380D01*
X117602047Y-120991380D02*
X117411571Y-120991380D01*
X117316333Y-121039000D01*
X117268714Y-121086619D01*
X117173476Y-121229476D01*
X117125857Y-121419952D01*
X117125857Y-121800904D01*
X117173476Y-121896142D01*
X117221095Y-121943761D01*
X117316333Y-121991380D01*
X117506809Y-121991380D01*
X117602047Y-121943761D01*
X117649666Y-121896142D01*
X117697285Y-121800904D01*
X117697285Y-121562809D01*
X117649666Y-121467571D01*
X117602047Y-121419952D01*
X117506809Y-121372333D01*
X117316333Y-121372333D01*
X117221095Y-121419952D01*
X117173476Y-121467571D01*
X117125857Y-121562809D01*
X118173476Y-121991380D02*
X118363952Y-121991380D01*
X118459190Y-121943761D01*
X118506809Y-121896142D01*
X118602047Y-121753285D01*
X118649666Y-121562809D01*
X118649666Y-121181857D01*
X118602047Y-121086619D01*
X118554428Y-121039000D01*
X118459190Y-120991380D01*
X118268714Y-120991380D01*
X118173476Y-121039000D01*
X118125857Y-121086619D01*
X118078238Y-121181857D01*
X118078238Y-121419952D01*
X118125857Y-121515190D01*
X118173476Y-121562809D01*
X118268714Y-121610428D01*
X118459190Y-121610428D01*
X118554428Y-121562809D01*
X118602047Y-121515190D01*
X118649666Y-121419952D01*
X119078238Y-121991380D02*
X119078238Y-120991380D01*
X119078238Y-121467571D02*
X119649666Y-121467571D01*
X119649666Y-121991380D02*
X119649666Y-120991380D01*
X120697285Y-121896142D02*
X120649666Y-121943761D01*
X120506809Y-121991380D01*
X120411571Y-121991380D01*
X120268714Y-121943761D01*
X120173476Y-121848523D01*
X120125857Y-121753285D01*
X120078238Y-121562809D01*
X120078238Y-121419952D01*
X120125857Y-121229476D01*
X120173476Y-121134238D01*
X120268714Y-121039000D01*
X120411571Y-120991380D01*
X120506809Y-120991380D01*
X120649666Y-121039000D01*
X120697285Y-121086619D01*
X121030619Y-120991380D02*
X121268714Y-121991380D01*
X121459190Y-121277095D01*
X121649666Y-121991380D01*
X121887761Y-120991380D01*
X85177380Y-128650904D02*
X85986904Y-128650904D01*
X86082142Y-128603285D01*
X86129761Y-128555666D01*
X86177380Y-128460428D01*
X86177380Y-128269952D01*
X86129761Y-128174714D01*
X86082142Y-128127095D01*
X85986904Y-128079476D01*
X85177380Y-128079476D01*
X86177380Y-127079476D02*
X86177380Y-127650904D01*
X86177380Y-127365190D02*
X85177380Y-127365190D01*
X85320238Y-127460428D01*
X85415476Y-127555666D01*
X85463095Y-127650904D01*
X96201666Y-131669000D02*
X95501666Y-131669000D01*
X96001666Y-131435666D01*
X95501666Y-131202333D01*
X96201666Y-131202333D01*
X96201666Y-130869000D02*
X95501666Y-130869000D01*
X96201666Y-130469000D02*
X95801666Y-130769000D01*
X95501666Y-130469000D02*
X95901666Y-130869000D01*
X95501666Y-129869000D02*
X95501666Y-130002333D01*
X95535000Y-130069000D01*
X95568333Y-130102333D01*
X95668333Y-130169000D01*
X95801666Y-130202333D01*
X96068333Y-130202333D01*
X96135000Y-130169000D01*
X96168333Y-130135666D01*
X96201666Y-130069000D01*
X96201666Y-129935666D01*
X96168333Y-129869000D01*
X96135000Y-129835666D01*
X96068333Y-129802333D01*
X95901666Y-129802333D01*
X95835000Y-129835666D01*
X95801666Y-129869000D01*
X95768333Y-129935666D01*
X95768333Y-130069000D01*
X95801666Y-130135666D01*
X95835000Y-130169000D01*
X95901666Y-130202333D01*
X95501666Y-129202333D02*
X95501666Y-129335666D01*
X95535000Y-129402333D01*
X95568333Y-129435666D01*
X95668333Y-129502333D01*
X95801666Y-129535666D01*
X96068333Y-129535666D01*
X96135000Y-129502333D01*
X96168333Y-129469000D01*
X96201666Y-129402333D01*
X96201666Y-129269000D01*
X96168333Y-129202333D01*
X96135000Y-129169000D01*
X96068333Y-129135666D01*
X95901666Y-129135666D01*
X95835000Y-129169000D01*
X95801666Y-129202333D01*
X95768333Y-129269000D01*
X95768333Y-129402333D01*
X95801666Y-129469000D01*
X95835000Y-129502333D01*
X95901666Y-129535666D01*
X95835000Y-128602333D02*
X95835000Y-128835666D01*
X96201666Y-128835666D02*
X95501666Y-128835666D01*
X95501666Y-128502333D01*
X95501666Y-128302333D02*
X96201666Y-127835666D01*
X95501666Y-127835666D02*
X96201666Y-128302333D01*
X96201666Y-127202333D02*
X96201666Y-127602333D01*
X96201666Y-127402333D02*
X95501666Y-127402333D01*
X95601666Y-127469000D01*
X95668333Y-127535666D01*
X95701666Y-127602333D01*
X96201666Y-126902333D02*
X95501666Y-126902333D01*
X96001666Y-126669000D01*
X95501666Y-126435666D01*
X96201666Y-126435666D01*
X95835000Y-125869000D02*
X95868333Y-125769000D01*
X95901666Y-125735666D01*
X95968333Y-125702333D01*
X96068333Y-125702333D01*
X96135000Y-125735666D01*
X96168333Y-125769000D01*
X96201666Y-125835666D01*
X96201666Y-126102333D01*
X95501666Y-126102333D01*
X95501666Y-125869000D01*
X95535000Y-125802333D01*
X95568333Y-125769000D01*
X95635000Y-125735666D01*
X95701666Y-125735666D01*
X95768333Y-125769000D01*
X95801666Y-125802333D01*
X95835000Y-125869000D01*
X95835000Y-126102333D01*
X95501666Y-125502333D02*
X96201666Y-125269000D01*
X95501666Y-125035666D01*
X96201666Y-124802333D02*
X95501666Y-124802333D01*
X96001666Y-124569000D01*
X95501666Y-124335666D01*
X96201666Y-124335666D01*
X96201666Y-124002333D02*
X95501666Y-124002333D01*
X95501666Y-123835666D01*
X95535000Y-123735666D01*
X95601666Y-123669000D01*
X95668333Y-123635666D01*
X95801666Y-123602333D01*
X95901666Y-123602333D01*
X96035000Y-123635666D01*
X96101666Y-123669000D01*
X96168333Y-123735666D01*
X96201666Y-123835666D01*
X96201666Y-124002333D01*
X96201666Y-122935666D02*
X96201666Y-123335666D01*
X96201666Y-123135666D02*
X95501666Y-123135666D01*
X95601666Y-123202333D01*
X95668333Y-123269000D01*
X95701666Y-123335666D01*
X95801666Y-122535666D02*
X95768333Y-122602333D01*
X95735000Y-122635666D01*
X95668333Y-122669000D01*
X95635000Y-122669000D01*
X95568333Y-122635666D01*
X95535000Y-122602333D01*
X95501666Y-122535666D01*
X95501666Y-122402333D01*
X95535000Y-122335666D01*
X95568333Y-122302333D01*
X95635000Y-122269000D01*
X95668333Y-122269000D01*
X95735000Y-122302333D01*
X95768333Y-122335666D01*
X95801666Y-122402333D01*
X95801666Y-122535666D01*
X95835000Y-122602333D01*
X95868333Y-122635666D01*
X95935000Y-122669000D01*
X96068333Y-122669000D01*
X96135000Y-122635666D01*
X96168333Y-122602333D01*
X96201666Y-122535666D01*
X96201666Y-122402333D01*
X96168333Y-122335666D01*
X96135000Y-122302333D01*
X96068333Y-122269000D01*
X95935000Y-122269000D01*
X95868333Y-122302333D01*
X95835000Y-122335666D01*
X95801666Y-122402333D01*
X95468333Y-121469000D02*
X96368333Y-122069000D01*
X97344666Y-131219000D02*
X96644666Y-131219000D01*
X97144666Y-130985666D01*
X96644666Y-130752333D01*
X97344666Y-130752333D01*
X97344666Y-130419000D02*
X96644666Y-130419000D01*
X97344666Y-130019000D02*
X96944666Y-130319000D01*
X96644666Y-130019000D02*
X97044666Y-130419000D01*
X96644666Y-129419000D02*
X96644666Y-129552333D01*
X96678000Y-129619000D01*
X96711333Y-129652333D01*
X96811333Y-129719000D01*
X96944666Y-129752333D01*
X97211333Y-129752333D01*
X97278000Y-129719000D01*
X97311333Y-129685666D01*
X97344666Y-129619000D01*
X97344666Y-129485666D01*
X97311333Y-129419000D01*
X97278000Y-129385666D01*
X97211333Y-129352333D01*
X97044666Y-129352333D01*
X96978000Y-129385666D01*
X96944666Y-129419000D01*
X96911333Y-129485666D01*
X96911333Y-129619000D01*
X96944666Y-129685666D01*
X96978000Y-129719000D01*
X97044666Y-129752333D01*
X96878000Y-128752333D02*
X97344666Y-128752333D01*
X96611333Y-128919000D02*
X97111333Y-129085666D01*
X97111333Y-128652333D01*
X96978000Y-128152333D02*
X96978000Y-128385666D01*
X97344666Y-128385666D02*
X96644666Y-128385666D01*
X96644666Y-128052333D01*
X96644666Y-127852333D02*
X97344666Y-127385666D01*
X96644666Y-127385666D02*
X97344666Y-127852333D01*
X96644666Y-126785666D02*
X96644666Y-127119000D01*
X96978000Y-127152333D01*
X96944666Y-127119000D01*
X96911333Y-127052333D01*
X96911333Y-126885666D01*
X96944666Y-126819000D01*
X96978000Y-126785666D01*
X97044666Y-126752333D01*
X97211333Y-126752333D01*
X97278000Y-126785666D01*
X97311333Y-126819000D01*
X97344666Y-126885666D01*
X97344666Y-127052333D01*
X97311333Y-127119000D01*
X97278000Y-127152333D01*
X97344666Y-126085666D02*
X97344666Y-126485666D01*
X97344666Y-126285666D02*
X96644666Y-126285666D01*
X96744666Y-126352333D01*
X96811333Y-126419000D01*
X96844666Y-126485666D01*
X96711333Y-125819000D02*
X96678000Y-125785666D01*
X96644666Y-125719000D01*
X96644666Y-125552333D01*
X96678000Y-125485666D01*
X96711333Y-125452333D01*
X96778000Y-125419000D01*
X96844666Y-125419000D01*
X96944666Y-125452333D01*
X97344666Y-125852333D01*
X97344666Y-125419000D01*
X96644666Y-125219000D02*
X97344666Y-124985666D01*
X96644666Y-124752333D01*
X97344666Y-124519000D02*
X96644666Y-124519000D01*
X97144666Y-124285666D01*
X96644666Y-124052333D01*
X97344666Y-124052333D01*
X97344666Y-123719000D02*
X96644666Y-123719000D01*
X96644666Y-123552333D01*
X96678000Y-123452333D01*
X96744666Y-123385666D01*
X96811333Y-123352333D01*
X96944666Y-123319000D01*
X97044666Y-123319000D01*
X97178000Y-123352333D01*
X97244666Y-123385666D01*
X97311333Y-123452333D01*
X97344666Y-123552333D01*
X97344666Y-123719000D01*
X97344666Y-122652333D02*
X97344666Y-123052333D01*
X97344666Y-122852333D02*
X96644666Y-122852333D01*
X96744666Y-122919000D01*
X96811333Y-122985666D01*
X96844666Y-123052333D01*
X96711333Y-122385666D02*
X96678000Y-122352333D01*
X96644666Y-122285666D01*
X96644666Y-122119000D01*
X96678000Y-122052333D01*
X96711333Y-122019000D01*
X96778000Y-121985666D01*
X96844666Y-121985666D01*
X96944666Y-122019000D01*
X97344666Y-122419000D01*
X97344666Y-121985666D01*
X48900142Y-104624047D02*
X48947761Y-104671666D01*
X48995380Y-104814523D01*
X48995380Y-104909761D01*
X48947761Y-105052619D01*
X48852523Y-105147857D01*
X48757285Y-105195476D01*
X48566809Y-105243095D01*
X48423952Y-105243095D01*
X48233476Y-105195476D01*
X48138238Y-105147857D01*
X48043000Y-105052619D01*
X47995380Y-104909761D01*
X47995380Y-104814523D01*
X48043000Y-104671666D01*
X48090619Y-104624047D01*
X48090619Y-104243095D02*
X48043000Y-104195476D01*
X47995380Y-104100238D01*
X47995380Y-103862142D01*
X48043000Y-103766904D01*
X48090619Y-103719285D01*
X48185857Y-103671666D01*
X48281095Y-103671666D01*
X48423952Y-103719285D01*
X48995380Y-104290714D01*
X48995380Y-103671666D01*
X47995380Y-103052619D02*
X47995380Y-102957380D01*
X48043000Y-102862142D01*
X48090619Y-102814523D01*
X48185857Y-102766904D01*
X48376333Y-102719285D01*
X48614428Y-102719285D01*
X48804904Y-102766904D01*
X48900142Y-102814523D01*
X48947761Y-102862142D01*
X48995380Y-102957380D01*
X48995380Y-103052619D01*
X48947761Y-103147857D01*
X48900142Y-103195476D01*
X48804904Y-103243095D01*
X48614428Y-103290714D01*
X48376333Y-103290714D01*
X48185857Y-103243095D01*
X48090619Y-103195476D01*
X48043000Y-103147857D01*
X47995380Y-103052619D01*
X48995380Y-101766904D02*
X48995380Y-102338333D01*
X48995380Y-102052619D02*
X47995380Y-102052619D01*
X48138238Y-102147857D01*
X48233476Y-102243095D01*
X48281095Y-102338333D01*
X34059952Y-104526142D02*
X34012333Y-104573761D01*
X33869476Y-104621380D01*
X33774238Y-104621380D01*
X33631380Y-104573761D01*
X33536142Y-104478523D01*
X33488523Y-104383285D01*
X33440904Y-104192809D01*
X33440904Y-104049952D01*
X33488523Y-103859476D01*
X33536142Y-103764238D01*
X33631380Y-103669000D01*
X33774238Y-103621380D01*
X33869476Y-103621380D01*
X34012333Y-103669000D01*
X34059952Y-103716619D01*
X34440904Y-103716619D02*
X34488523Y-103669000D01*
X34583761Y-103621380D01*
X34821857Y-103621380D01*
X34917095Y-103669000D01*
X34964714Y-103716619D01*
X35012333Y-103811857D01*
X35012333Y-103907095D01*
X34964714Y-104049952D01*
X34393285Y-104621380D01*
X35012333Y-104621380D01*
X35631380Y-103621380D02*
X35726619Y-103621380D01*
X35821857Y-103669000D01*
X35869476Y-103716619D01*
X35917095Y-103811857D01*
X35964714Y-104002333D01*
X35964714Y-104240428D01*
X35917095Y-104430904D01*
X35869476Y-104526142D01*
X35821857Y-104573761D01*
X35726619Y-104621380D01*
X35631380Y-104621380D01*
X35536142Y-104573761D01*
X35488523Y-104526142D01*
X35440904Y-104430904D01*
X35393285Y-104240428D01*
X35393285Y-104002333D01*
X35440904Y-103811857D01*
X35488523Y-103716619D01*
X35536142Y-103669000D01*
X35631380Y-103621380D01*
X36345666Y-103716619D02*
X36393285Y-103669000D01*
X36488523Y-103621380D01*
X36726619Y-103621380D01*
X36821857Y-103669000D01*
X36869476Y-103716619D01*
X36917095Y-103811857D01*
X36917095Y-103907095D01*
X36869476Y-104049952D01*
X36298047Y-104621380D01*
X36917095Y-104621380D01*
X43820142Y-104624047D02*
X43867761Y-104671666D01*
X43915380Y-104814523D01*
X43915380Y-104909761D01*
X43867761Y-105052619D01*
X43772523Y-105147857D01*
X43677285Y-105195476D01*
X43486809Y-105243095D01*
X43343952Y-105243095D01*
X43153476Y-105195476D01*
X43058238Y-105147857D01*
X42963000Y-105052619D01*
X42915380Y-104909761D01*
X42915380Y-104814523D01*
X42963000Y-104671666D01*
X43010619Y-104624047D01*
X43010619Y-104243095D02*
X42963000Y-104195476D01*
X42915380Y-104100238D01*
X42915380Y-103862142D01*
X42963000Y-103766904D01*
X43010619Y-103719285D01*
X43105857Y-103671666D01*
X43201095Y-103671666D01*
X43343952Y-103719285D01*
X43915380Y-104290714D01*
X43915380Y-103671666D01*
X42915380Y-103052619D02*
X42915380Y-102957380D01*
X42963000Y-102862142D01*
X43010619Y-102814523D01*
X43105857Y-102766904D01*
X43296333Y-102719285D01*
X43534428Y-102719285D01*
X43724904Y-102766904D01*
X43820142Y-102814523D01*
X43867761Y-102862142D01*
X43915380Y-102957380D01*
X43915380Y-103052619D01*
X43867761Y-103147857D01*
X43820142Y-103195476D01*
X43724904Y-103243095D01*
X43534428Y-103290714D01*
X43296333Y-103290714D01*
X43105857Y-103243095D01*
X43010619Y-103195476D01*
X42963000Y-103147857D01*
X42915380Y-103052619D01*
X42915380Y-102385952D02*
X42915380Y-101766904D01*
X43296333Y-102100238D01*
X43296333Y-101957380D01*
X43343952Y-101862142D01*
X43391571Y-101814523D01*
X43486809Y-101766904D01*
X43724904Y-101766904D01*
X43820142Y-101814523D01*
X43867761Y-101862142D01*
X43915380Y-101957380D01*
X43915380Y-102243095D01*
X43867761Y-102338333D01*
X43820142Y-102385952D01*
X51503642Y-88431547D02*
X51551261Y-88479166D01*
X51598880Y-88622023D01*
X51598880Y-88717261D01*
X51551261Y-88860119D01*
X51456023Y-88955357D01*
X51360785Y-89002976D01*
X51170309Y-89050595D01*
X51027452Y-89050595D01*
X50836976Y-89002976D01*
X50741738Y-88955357D01*
X50646500Y-88860119D01*
X50598880Y-88717261D01*
X50598880Y-88622023D01*
X50646500Y-88479166D01*
X50694119Y-88431547D01*
X50598880Y-88098214D02*
X50598880Y-87479166D01*
X50979833Y-87812500D01*
X50979833Y-87669642D01*
X51027452Y-87574404D01*
X51075071Y-87526785D01*
X51170309Y-87479166D01*
X51408404Y-87479166D01*
X51503642Y-87526785D01*
X51551261Y-87574404D01*
X51598880Y-87669642D01*
X51598880Y-87955357D01*
X51551261Y-88050595D01*
X51503642Y-88098214D01*
X50598880Y-86860119D02*
X50598880Y-86764880D01*
X50646500Y-86669642D01*
X50694119Y-86622023D01*
X50789357Y-86574404D01*
X50979833Y-86526785D01*
X51217928Y-86526785D01*
X51408404Y-86574404D01*
X51503642Y-86622023D01*
X51551261Y-86669642D01*
X51598880Y-86764880D01*
X51598880Y-86860119D01*
X51551261Y-86955357D01*
X51503642Y-87002976D01*
X51408404Y-87050595D01*
X51217928Y-87098214D01*
X50979833Y-87098214D01*
X50789357Y-87050595D01*
X50694119Y-87002976D01*
X50646500Y-86955357D01*
X50598880Y-86860119D01*
X51598880Y-85574404D02*
X51598880Y-86145833D01*
X51598880Y-85860119D02*
X50598880Y-85860119D01*
X50741738Y-85955357D01*
X50836976Y-86050595D01*
X50884595Y-86145833D01*
X40073642Y-88431547D02*
X40121261Y-88479166D01*
X40168880Y-88622023D01*
X40168880Y-88717261D01*
X40121261Y-88860119D01*
X40026023Y-88955357D01*
X39930785Y-89002976D01*
X39740309Y-89050595D01*
X39597452Y-89050595D01*
X39406976Y-89002976D01*
X39311738Y-88955357D01*
X39216500Y-88860119D01*
X39168880Y-88717261D01*
X39168880Y-88622023D01*
X39216500Y-88479166D01*
X39264119Y-88431547D01*
X39168880Y-88098214D02*
X39168880Y-87479166D01*
X39549833Y-87812500D01*
X39549833Y-87669642D01*
X39597452Y-87574404D01*
X39645071Y-87526785D01*
X39740309Y-87479166D01*
X39978404Y-87479166D01*
X40073642Y-87526785D01*
X40121261Y-87574404D01*
X40168880Y-87669642D01*
X40168880Y-87955357D01*
X40121261Y-88050595D01*
X40073642Y-88098214D01*
X39168880Y-86860119D02*
X39168880Y-86764880D01*
X39216500Y-86669642D01*
X39264119Y-86622023D01*
X39359357Y-86574404D01*
X39549833Y-86526785D01*
X39787928Y-86526785D01*
X39978404Y-86574404D01*
X40073642Y-86622023D01*
X40121261Y-86669642D01*
X40168880Y-86764880D01*
X40168880Y-86860119D01*
X40121261Y-86955357D01*
X40073642Y-87002976D01*
X39978404Y-87050595D01*
X39787928Y-87098214D01*
X39549833Y-87098214D01*
X39359357Y-87050595D01*
X39264119Y-87002976D01*
X39216500Y-86955357D01*
X39168880Y-86860119D01*
X39264119Y-86145833D02*
X39216500Y-86098214D01*
X39168880Y-86002976D01*
X39168880Y-85764880D01*
X39216500Y-85669642D01*
X39264119Y-85622023D01*
X39359357Y-85574404D01*
X39454595Y-85574404D01*
X39597452Y-85622023D01*
X40168880Y-86193452D01*
X40168880Y-85574404D01*
X46423642Y-88431547D02*
X46471261Y-88479166D01*
X46518880Y-88622023D01*
X46518880Y-88717261D01*
X46471261Y-88860119D01*
X46376023Y-88955357D01*
X46280785Y-89002976D01*
X46090309Y-89050595D01*
X45947452Y-89050595D01*
X45756976Y-89002976D01*
X45661738Y-88955357D01*
X45566500Y-88860119D01*
X45518880Y-88717261D01*
X45518880Y-88622023D01*
X45566500Y-88479166D01*
X45614119Y-88431547D01*
X45518880Y-88098214D02*
X45518880Y-87479166D01*
X45899833Y-87812500D01*
X45899833Y-87669642D01*
X45947452Y-87574404D01*
X45995071Y-87526785D01*
X46090309Y-87479166D01*
X46328404Y-87479166D01*
X46423642Y-87526785D01*
X46471261Y-87574404D01*
X46518880Y-87669642D01*
X46518880Y-87955357D01*
X46471261Y-88050595D01*
X46423642Y-88098214D01*
X45518880Y-86860119D02*
X45518880Y-86764880D01*
X45566500Y-86669642D01*
X45614119Y-86622023D01*
X45709357Y-86574404D01*
X45899833Y-86526785D01*
X46137928Y-86526785D01*
X46328404Y-86574404D01*
X46423642Y-86622023D01*
X46471261Y-86669642D01*
X46518880Y-86764880D01*
X46518880Y-86860119D01*
X46471261Y-86955357D01*
X46423642Y-87002976D01*
X46328404Y-87050595D01*
X46137928Y-87098214D01*
X45899833Y-87098214D01*
X45709357Y-87050595D01*
X45614119Y-87002976D01*
X45566500Y-86955357D01*
X45518880Y-86860119D01*
X45518880Y-86193452D02*
X45518880Y-85574404D01*
X45899833Y-85907738D01*
X45899833Y-85764880D01*
X45947452Y-85669642D01*
X45995071Y-85622023D01*
X46090309Y-85574404D01*
X46328404Y-85574404D01*
X46423642Y-85622023D01*
X46471261Y-85669642D01*
X46518880Y-85764880D01*
X46518880Y-86050595D01*
X46471261Y-86145833D01*
X46423642Y-86193452D01*
X37703285Y-107783380D02*
X37703285Y-108497666D01*
X37655666Y-108640523D01*
X37560428Y-108735761D01*
X37417571Y-108783380D01*
X37322333Y-108783380D01*
X38703285Y-108783380D02*
X38131857Y-108783380D01*
X38417571Y-108783380D02*
X38417571Y-107783380D01*
X38322333Y-107926238D01*
X38227095Y-108021476D01*
X38131857Y-108069095D01*
X39322333Y-107783380D02*
X39417571Y-107783380D01*
X39512809Y-107831000D01*
X39560428Y-107878619D01*
X39608047Y-107973857D01*
X39655666Y-108164333D01*
X39655666Y-108402428D01*
X39608047Y-108592904D01*
X39560428Y-108688142D01*
X39512809Y-108735761D01*
X39417571Y-108783380D01*
X39322333Y-108783380D01*
X39227095Y-108735761D01*
X39179476Y-108688142D01*
X39131857Y-108592904D01*
X39084238Y-108402428D01*
X39084238Y-108164333D01*
X39131857Y-107973857D01*
X39179476Y-107878619D01*
X39227095Y-107831000D01*
X39322333Y-107783380D01*
X40608047Y-108783380D02*
X40036619Y-108783380D01*
X40322333Y-108783380D02*
X40322333Y-107783380D01*
X40227095Y-107926238D01*
X40131857Y-108021476D01*
X40036619Y-108069095D01*
X55075619Y-119999619D02*
X55028000Y-120094857D01*
X54932761Y-120190095D01*
X54789904Y-120332952D01*
X54742285Y-120428190D01*
X54742285Y-120523428D01*
X54980380Y-120475809D02*
X54932761Y-120571047D01*
X54837523Y-120666285D01*
X54647047Y-120713904D01*
X54313714Y-120713904D01*
X54123238Y-120666285D01*
X54028000Y-120571047D01*
X53980380Y-120475809D01*
X53980380Y-120285333D01*
X54028000Y-120190095D01*
X54123238Y-120094857D01*
X54313714Y-120047238D01*
X54647047Y-120047238D01*
X54837523Y-120094857D01*
X54932761Y-120190095D01*
X54980380Y-120285333D01*
X54980380Y-120475809D01*
X54980380Y-119094857D02*
X54980380Y-119666285D01*
X54980380Y-119380571D02*
X53980380Y-119380571D01*
X54123238Y-119475809D01*
X54218476Y-119571047D01*
X54266095Y-119666285D01*
X53980380Y-118475809D02*
X53980380Y-118380571D01*
X54028000Y-118285333D01*
X54075619Y-118237714D01*
X54170857Y-118190095D01*
X54361333Y-118142476D01*
X54599428Y-118142476D01*
X54789904Y-118190095D01*
X54885142Y-118237714D01*
X54932761Y-118285333D01*
X54980380Y-118380571D01*
X54980380Y-118475809D01*
X54932761Y-118571047D01*
X54885142Y-118618666D01*
X54789904Y-118666285D01*
X54599428Y-118713904D01*
X54361333Y-118713904D01*
X54170857Y-118666285D01*
X54075619Y-118618666D01*
X54028000Y-118571047D01*
X53980380Y-118475809D01*
X54980380Y-117190095D02*
X54980380Y-117761523D01*
X54980380Y-117475809D02*
X53980380Y-117475809D01*
X54123238Y-117571047D01*
X54218476Y-117666285D01*
X54266095Y-117761523D01*
X44791452Y-79000880D02*
X44458119Y-78524690D01*
X44220023Y-79000880D02*
X44220023Y-78000880D01*
X44600976Y-78000880D01*
X44696214Y-78048500D01*
X44743833Y-78096119D01*
X44791452Y-78191357D01*
X44791452Y-78334214D01*
X44743833Y-78429452D01*
X44696214Y-78477071D01*
X44600976Y-78524690D01*
X44220023Y-78524690D01*
X45743833Y-79000880D02*
X45172404Y-79000880D01*
X45458119Y-79000880D02*
X45458119Y-78000880D01*
X45362880Y-78143738D01*
X45267642Y-78238976D01*
X45172404Y-78286595D01*
X46362880Y-78000880D02*
X46458119Y-78000880D01*
X46553357Y-78048500D01*
X46600976Y-78096119D01*
X46648595Y-78191357D01*
X46696214Y-78381833D01*
X46696214Y-78619928D01*
X46648595Y-78810404D01*
X46600976Y-78905642D01*
X46553357Y-78953261D01*
X46458119Y-79000880D01*
X46362880Y-79000880D01*
X46267642Y-78953261D01*
X46220023Y-78905642D01*
X46172404Y-78810404D01*
X46124785Y-78619928D01*
X46124785Y-78381833D01*
X46172404Y-78191357D01*
X46220023Y-78096119D01*
X46267642Y-78048500D01*
X46362880Y-78000880D01*
X47648595Y-79000880D02*
X47077166Y-79000880D01*
X47362880Y-79000880D02*
X47362880Y-78000880D01*
X47267642Y-78143738D01*
X47172404Y-78238976D01*
X47077166Y-78286595D01*
X44791452Y-71763880D02*
X44458119Y-71287690D01*
X44220023Y-71763880D02*
X44220023Y-70763880D01*
X44600976Y-70763880D01*
X44696214Y-70811500D01*
X44743833Y-70859119D01*
X44791452Y-70954357D01*
X44791452Y-71097214D01*
X44743833Y-71192452D01*
X44696214Y-71240071D01*
X44600976Y-71287690D01*
X44220023Y-71287690D01*
X45743833Y-71763880D02*
X45172404Y-71763880D01*
X45458119Y-71763880D02*
X45458119Y-70763880D01*
X45362880Y-70906738D01*
X45267642Y-71001976D01*
X45172404Y-71049595D01*
X46362880Y-70763880D02*
X46458119Y-70763880D01*
X46553357Y-70811500D01*
X46600976Y-70859119D01*
X46648595Y-70954357D01*
X46696214Y-71144833D01*
X46696214Y-71382928D01*
X46648595Y-71573404D01*
X46600976Y-71668642D01*
X46553357Y-71716261D01*
X46458119Y-71763880D01*
X46362880Y-71763880D01*
X46267642Y-71716261D01*
X46220023Y-71668642D01*
X46172404Y-71573404D01*
X46124785Y-71382928D01*
X46124785Y-71144833D01*
X46172404Y-70954357D01*
X46220023Y-70859119D01*
X46267642Y-70811500D01*
X46362880Y-70763880D01*
X47077166Y-70859119D02*
X47124785Y-70811500D01*
X47220023Y-70763880D01*
X47458119Y-70763880D01*
X47553357Y-70811500D01*
X47600976Y-70859119D01*
X47648595Y-70954357D01*
X47648595Y-71049595D01*
X47600976Y-71192452D01*
X47029547Y-71763880D01*
X47648595Y-71763880D01*
X54125952Y-106752380D02*
X53792619Y-106276190D01*
X53554523Y-106752380D02*
X53554523Y-105752380D01*
X53935476Y-105752380D01*
X54030714Y-105800000D01*
X54078333Y-105847619D01*
X54125952Y-105942857D01*
X54125952Y-106085714D01*
X54078333Y-106180952D01*
X54030714Y-106228571D01*
X53935476Y-106276190D01*
X53554523Y-106276190D01*
X55078333Y-106752380D02*
X54506904Y-106752380D01*
X54792619Y-106752380D02*
X54792619Y-105752380D01*
X54697380Y-105895238D01*
X54602142Y-105990476D01*
X54506904Y-106038095D01*
X55697380Y-105752380D02*
X55792619Y-105752380D01*
X55887857Y-105800000D01*
X55935476Y-105847619D01*
X55983095Y-105942857D01*
X56030714Y-106133333D01*
X56030714Y-106371428D01*
X55983095Y-106561904D01*
X55935476Y-106657142D01*
X55887857Y-106704761D01*
X55792619Y-106752380D01*
X55697380Y-106752380D01*
X55602142Y-106704761D01*
X55554523Y-106657142D01*
X55506904Y-106561904D01*
X55459285Y-106371428D01*
X55459285Y-106133333D01*
X55506904Y-105942857D01*
X55554523Y-105847619D01*
X55602142Y-105800000D01*
X55697380Y-105752380D01*
X56364047Y-105752380D02*
X56983095Y-105752380D01*
X56649761Y-106133333D01*
X56792619Y-106133333D01*
X56887857Y-106180952D01*
X56935476Y-106228571D01*
X56983095Y-106323809D01*
X56983095Y-106561904D01*
X56935476Y-106657142D01*
X56887857Y-106704761D01*
X56792619Y-106752380D01*
X56506904Y-106752380D01*
X56411666Y-106704761D01*
X56364047Y-106657142D01*
X34059952Y-94560380D02*
X33726619Y-94084190D01*
X33488523Y-94560380D02*
X33488523Y-93560380D01*
X33869476Y-93560380D01*
X33964714Y-93608000D01*
X34012333Y-93655619D01*
X34059952Y-93750857D01*
X34059952Y-93893714D01*
X34012333Y-93988952D01*
X33964714Y-94036571D01*
X33869476Y-94084190D01*
X33488523Y-94084190D01*
X34440904Y-93655619D02*
X34488523Y-93608000D01*
X34583761Y-93560380D01*
X34821857Y-93560380D01*
X34917095Y-93608000D01*
X34964714Y-93655619D01*
X35012333Y-93750857D01*
X35012333Y-93846095D01*
X34964714Y-93988952D01*
X34393285Y-94560380D01*
X35012333Y-94560380D01*
X35631380Y-93560380D02*
X35726619Y-93560380D01*
X35821857Y-93608000D01*
X35869476Y-93655619D01*
X35917095Y-93750857D01*
X35964714Y-93941333D01*
X35964714Y-94179428D01*
X35917095Y-94369904D01*
X35869476Y-94465142D01*
X35821857Y-94512761D01*
X35726619Y-94560380D01*
X35631380Y-94560380D01*
X35536142Y-94512761D01*
X35488523Y-94465142D01*
X35440904Y-94369904D01*
X35393285Y-94179428D01*
X35393285Y-93941333D01*
X35440904Y-93750857D01*
X35488523Y-93655619D01*
X35536142Y-93608000D01*
X35631380Y-93560380D01*
X36917095Y-94560380D02*
X36345666Y-94560380D01*
X36631380Y-94560380D02*
X36631380Y-93560380D01*
X36536142Y-93703238D01*
X36440904Y-93798476D01*
X36345666Y-93846095D01*
X45030380Y-98274047D02*
X44554190Y-98607380D01*
X45030380Y-98845476D02*
X44030380Y-98845476D01*
X44030380Y-98464523D01*
X44078000Y-98369285D01*
X44125619Y-98321666D01*
X44220857Y-98274047D01*
X44363714Y-98274047D01*
X44458952Y-98321666D01*
X44506571Y-98369285D01*
X44554190Y-98464523D01*
X44554190Y-98845476D01*
X44125619Y-97893095D02*
X44078000Y-97845476D01*
X44030380Y-97750238D01*
X44030380Y-97512142D01*
X44078000Y-97416904D01*
X44125619Y-97369285D01*
X44220857Y-97321666D01*
X44316095Y-97321666D01*
X44458952Y-97369285D01*
X45030380Y-97940714D01*
X45030380Y-97321666D01*
X44030380Y-96702619D02*
X44030380Y-96607380D01*
X44078000Y-96512142D01*
X44125619Y-96464523D01*
X44220857Y-96416904D01*
X44411333Y-96369285D01*
X44649428Y-96369285D01*
X44839904Y-96416904D01*
X44935142Y-96464523D01*
X44982761Y-96512142D01*
X45030380Y-96607380D01*
X45030380Y-96702619D01*
X44982761Y-96797857D01*
X44935142Y-96845476D01*
X44839904Y-96893095D01*
X44649428Y-96940714D01*
X44411333Y-96940714D01*
X44220857Y-96893095D01*
X44125619Y-96845476D01*
X44078000Y-96797857D01*
X44030380Y-96702619D01*
X44125619Y-95988333D02*
X44078000Y-95940714D01*
X44030380Y-95845476D01*
X44030380Y-95607380D01*
X44078000Y-95512142D01*
X44125619Y-95464523D01*
X44220857Y-95416904D01*
X44316095Y-95416904D01*
X44458952Y-95464523D01*
X45030380Y-96035952D01*
X45030380Y-95416904D01*
X43313880Y-77001547D02*
X42837690Y-77334880D01*
X43313880Y-77572976D02*
X42313880Y-77572976D01*
X42313880Y-77192023D01*
X42361500Y-77096785D01*
X42409119Y-77049166D01*
X42504357Y-77001547D01*
X42647214Y-77001547D01*
X42742452Y-77049166D01*
X42790071Y-77096785D01*
X42837690Y-77192023D01*
X42837690Y-77572976D01*
X42313880Y-76668214D02*
X42313880Y-76049166D01*
X42694833Y-76382500D01*
X42694833Y-76239642D01*
X42742452Y-76144404D01*
X42790071Y-76096785D01*
X42885309Y-76049166D01*
X43123404Y-76049166D01*
X43218642Y-76096785D01*
X43266261Y-76144404D01*
X43313880Y-76239642D01*
X43313880Y-76525357D01*
X43266261Y-76620595D01*
X43218642Y-76668214D01*
X42313880Y-75430119D02*
X42313880Y-75334880D01*
X42361500Y-75239642D01*
X42409119Y-75192023D01*
X42504357Y-75144404D01*
X42694833Y-75096785D01*
X42932928Y-75096785D01*
X43123404Y-75144404D01*
X43218642Y-75192023D01*
X43266261Y-75239642D01*
X43313880Y-75334880D01*
X43313880Y-75430119D01*
X43266261Y-75525357D01*
X43218642Y-75572976D01*
X43123404Y-75620595D01*
X42932928Y-75668214D01*
X42694833Y-75668214D01*
X42504357Y-75620595D01*
X42409119Y-75572976D01*
X42361500Y-75525357D01*
X42313880Y-75430119D01*
X43313880Y-74144404D02*
X43313880Y-74715833D01*
X43313880Y-74430119D02*
X42313880Y-74430119D01*
X42456738Y-74525357D01*
X42551976Y-74620595D01*
X42599595Y-74715833D01*
X47331452Y-83953880D02*
X46998119Y-83477690D01*
X46760023Y-83953880D02*
X46760023Y-82953880D01*
X47140976Y-82953880D01*
X47236214Y-83001500D01*
X47283833Y-83049119D01*
X47331452Y-83144357D01*
X47331452Y-83287214D01*
X47283833Y-83382452D01*
X47236214Y-83430071D01*
X47140976Y-83477690D01*
X46760023Y-83477690D01*
X47664785Y-82953880D02*
X48283833Y-82953880D01*
X47950500Y-83334833D01*
X48093357Y-83334833D01*
X48188595Y-83382452D01*
X48236214Y-83430071D01*
X48283833Y-83525309D01*
X48283833Y-83763404D01*
X48236214Y-83858642D01*
X48188595Y-83906261D01*
X48093357Y-83953880D01*
X47807642Y-83953880D01*
X47712404Y-83906261D01*
X47664785Y-83858642D01*
X48902880Y-82953880D02*
X48998119Y-82953880D01*
X49093357Y-83001500D01*
X49140976Y-83049119D01*
X49188595Y-83144357D01*
X49236214Y-83334833D01*
X49236214Y-83572928D01*
X49188595Y-83763404D01*
X49140976Y-83858642D01*
X49093357Y-83906261D01*
X48998119Y-83953880D01*
X48902880Y-83953880D01*
X48807642Y-83906261D01*
X48760023Y-83858642D01*
X48712404Y-83763404D01*
X48664785Y-83572928D01*
X48664785Y-83334833D01*
X48712404Y-83144357D01*
X48760023Y-83049119D01*
X48807642Y-83001500D01*
X48902880Y-82953880D01*
X49617166Y-83049119D02*
X49664785Y-83001500D01*
X49760023Y-82953880D01*
X49998119Y-82953880D01*
X50093357Y-83001500D01*
X50140976Y-83049119D01*
X50188595Y-83144357D01*
X50188595Y-83239595D01*
X50140976Y-83382452D01*
X49569547Y-83953880D01*
X50188595Y-83953880D01*
D16*
X43485380Y-99044285D02*
X44294904Y-99044285D01*
X44390142Y-98996666D01*
X44437761Y-98949047D01*
X44485380Y-98853809D01*
X44485380Y-98663333D01*
X44437761Y-98568095D01*
X44390142Y-98520476D01*
X44294904Y-98472857D01*
X43485380Y-98472857D01*
X43580619Y-98044285D02*
X43533000Y-97996666D01*
X43485380Y-97901428D01*
X43485380Y-97663333D01*
X43533000Y-97568095D01*
X43580619Y-97520476D01*
X43675857Y-97472857D01*
X43771095Y-97472857D01*
X43913952Y-97520476D01*
X44485380Y-98091904D01*
X44485380Y-97472857D01*
X43485380Y-96853809D02*
X43485380Y-96758571D01*
X43533000Y-96663333D01*
X43580619Y-96615714D01*
X43675857Y-96568095D01*
X43866333Y-96520476D01*
X44104428Y-96520476D01*
X44294904Y-96568095D01*
X44390142Y-96615714D01*
X44437761Y-96663333D01*
X44485380Y-96758571D01*
X44485380Y-96853809D01*
X44437761Y-96949047D01*
X44390142Y-96996666D01*
X44294904Y-97044285D01*
X44104428Y-97091904D01*
X43866333Y-97091904D01*
X43675857Y-97044285D01*
X43580619Y-96996666D01*
X43533000Y-96949047D01*
X43485380Y-96853809D01*
X44485380Y-95568095D02*
X44485380Y-96139523D01*
X44485380Y-95853809D02*
X43485380Y-95853809D01*
X43628238Y-95949047D01*
X43723476Y-96044285D01*
X43771095Y-96139523D01*
X46088880Y-83486785D02*
X46898404Y-83486785D01*
X46993642Y-83439166D01*
X47041261Y-83391547D01*
X47088880Y-83296309D01*
X47088880Y-83105833D01*
X47041261Y-83010595D01*
X46993642Y-82962976D01*
X46898404Y-82915357D01*
X46088880Y-82915357D01*
X46088880Y-82534404D02*
X46088880Y-81915357D01*
X46469833Y-82248690D01*
X46469833Y-82105833D01*
X46517452Y-82010595D01*
X46565071Y-81962976D01*
X46660309Y-81915357D01*
X46898404Y-81915357D01*
X46993642Y-81962976D01*
X47041261Y-82010595D01*
X47088880Y-82105833D01*
X47088880Y-82391547D01*
X47041261Y-82486785D01*
X46993642Y-82534404D01*
X46088880Y-81296309D02*
X46088880Y-81201071D01*
X46136500Y-81105833D01*
X46184119Y-81058214D01*
X46279357Y-81010595D01*
X46469833Y-80962976D01*
X46707928Y-80962976D01*
X46898404Y-81010595D01*
X46993642Y-81058214D01*
X47041261Y-81105833D01*
X47088880Y-81201071D01*
X47088880Y-81296309D01*
X47041261Y-81391547D01*
X46993642Y-81439166D01*
X46898404Y-81486785D01*
X46707928Y-81534404D01*
X46469833Y-81534404D01*
X46279357Y-81486785D01*
X46184119Y-81439166D01*
X46136500Y-81391547D01*
X46088880Y-81296309D01*
X47088880Y-80010595D02*
X47088880Y-80582023D01*
X47088880Y-80296309D02*
X46088880Y-80296309D01*
X46231738Y-80391547D01*
X46326976Y-80486785D01*
X46374595Y-80582023D01*
D13*
X148169523Y-119324380D02*
X148169523Y-118324380D01*
X148407619Y-118324380D01*
X148550476Y-118372000D01*
X148645714Y-118467238D01*
X148693333Y-118562476D01*
X148740952Y-118752952D01*
X148740952Y-118895809D01*
X148693333Y-119086285D01*
X148645714Y-119181523D01*
X148550476Y-119276761D01*
X148407619Y-119324380D01*
X148169523Y-119324380D01*
X149693333Y-119324380D02*
X149121904Y-119324380D01*
X149407619Y-119324380D02*
X149407619Y-118324380D01*
X149312380Y-118467238D01*
X149217142Y-118562476D01*
X149121904Y-118610095D01*
X150312380Y-118324380D02*
X150407619Y-118324380D01*
X150502857Y-118372000D01*
X150550476Y-118419619D01*
X150598095Y-118514857D01*
X150645714Y-118705333D01*
X150645714Y-118943428D01*
X150598095Y-119133904D01*
X150550476Y-119229142D01*
X150502857Y-119276761D01*
X150407619Y-119324380D01*
X150312380Y-119324380D01*
X150217142Y-119276761D01*
X150169523Y-119229142D01*
X150121904Y-119133904D01*
X150074285Y-118943428D01*
X150074285Y-118705333D01*
X150121904Y-118514857D01*
X150169523Y-118419619D01*
X150217142Y-118372000D01*
X150312380Y-118324380D01*
X151598095Y-119324380D02*
X151026666Y-119324380D01*
X151312380Y-119324380D02*
X151312380Y-118324380D01*
X151217142Y-118467238D01*
X151121904Y-118562476D01*
X151026666Y-118610095D01*
X148169523Y-113228380D02*
X148169523Y-112228380D01*
X148407619Y-112228380D01*
X148550476Y-112276000D01*
X148645714Y-112371238D01*
X148693333Y-112466476D01*
X148740952Y-112656952D01*
X148740952Y-112799809D01*
X148693333Y-112990285D01*
X148645714Y-113085523D01*
X148550476Y-113180761D01*
X148407619Y-113228380D01*
X148169523Y-113228380D01*
X149693333Y-113228380D02*
X149121904Y-113228380D01*
X149407619Y-113228380D02*
X149407619Y-112228380D01*
X149312380Y-112371238D01*
X149217142Y-112466476D01*
X149121904Y-112514095D01*
X150312380Y-112228380D02*
X150407619Y-112228380D01*
X150502857Y-112276000D01*
X150550476Y-112323619D01*
X150598095Y-112418857D01*
X150645714Y-112609333D01*
X150645714Y-112847428D01*
X150598095Y-113037904D01*
X150550476Y-113133142D01*
X150502857Y-113180761D01*
X150407619Y-113228380D01*
X150312380Y-113228380D01*
X150217142Y-113180761D01*
X150169523Y-113133142D01*
X150121904Y-113037904D01*
X150074285Y-112847428D01*
X150074285Y-112609333D01*
X150121904Y-112418857D01*
X150169523Y-112323619D01*
X150217142Y-112276000D01*
X150312380Y-112228380D01*
X151026666Y-112323619D02*
X151074285Y-112276000D01*
X151169523Y-112228380D01*
X151407619Y-112228380D01*
X151502857Y-112276000D01*
X151550476Y-112323619D01*
X151598095Y-112418857D01*
X151598095Y-112514095D01*
X151550476Y-112656952D01*
X150979047Y-113228380D01*
X151598095Y-113228380D01*
X148169523Y-107132380D02*
X148169523Y-106132380D01*
X148407619Y-106132380D01*
X148550476Y-106180000D01*
X148645714Y-106275238D01*
X148693333Y-106370476D01*
X148740952Y-106560952D01*
X148740952Y-106703809D01*
X148693333Y-106894285D01*
X148645714Y-106989523D01*
X148550476Y-107084761D01*
X148407619Y-107132380D01*
X148169523Y-107132380D01*
X149693333Y-107132380D02*
X149121904Y-107132380D01*
X149407619Y-107132380D02*
X149407619Y-106132380D01*
X149312380Y-106275238D01*
X149217142Y-106370476D01*
X149121904Y-106418095D01*
X150312380Y-106132380D02*
X150407619Y-106132380D01*
X150502857Y-106180000D01*
X150550476Y-106227619D01*
X150598095Y-106322857D01*
X150645714Y-106513333D01*
X150645714Y-106751428D01*
X150598095Y-106941904D01*
X150550476Y-107037142D01*
X150502857Y-107084761D01*
X150407619Y-107132380D01*
X150312380Y-107132380D01*
X150217142Y-107084761D01*
X150169523Y-107037142D01*
X150121904Y-106941904D01*
X150074285Y-106751428D01*
X150074285Y-106513333D01*
X150121904Y-106322857D01*
X150169523Y-106227619D01*
X150217142Y-106180000D01*
X150312380Y-106132380D01*
X150979047Y-106132380D02*
X151598095Y-106132380D01*
X151264761Y-106513333D01*
X151407619Y-106513333D01*
X151502857Y-106560952D01*
X151550476Y-106608571D01*
X151598095Y-106703809D01*
X151598095Y-106941904D01*
X151550476Y-107037142D01*
X151502857Y-107084761D01*
X151407619Y-107132380D01*
X151121904Y-107132380D01*
X151026666Y-107084761D01*
X150979047Y-107037142D01*
X148169523Y-101036380D02*
X148169523Y-100036380D01*
X148407619Y-100036380D01*
X148550476Y-100084000D01*
X148645714Y-100179238D01*
X148693333Y-100274476D01*
X148740952Y-100464952D01*
X148740952Y-100607809D01*
X148693333Y-100798285D01*
X148645714Y-100893523D01*
X148550476Y-100988761D01*
X148407619Y-101036380D01*
X148169523Y-101036380D01*
X149693333Y-101036380D02*
X149121904Y-101036380D01*
X149407619Y-101036380D02*
X149407619Y-100036380D01*
X149312380Y-100179238D01*
X149217142Y-100274476D01*
X149121904Y-100322095D01*
X150312380Y-100036380D02*
X150407619Y-100036380D01*
X150502857Y-100084000D01*
X150550476Y-100131619D01*
X150598095Y-100226857D01*
X150645714Y-100417333D01*
X150645714Y-100655428D01*
X150598095Y-100845904D01*
X150550476Y-100941142D01*
X150502857Y-100988761D01*
X150407619Y-101036380D01*
X150312380Y-101036380D01*
X150217142Y-100988761D01*
X150169523Y-100941142D01*
X150121904Y-100845904D01*
X150074285Y-100655428D01*
X150074285Y-100417333D01*
X150121904Y-100226857D01*
X150169523Y-100131619D01*
X150217142Y-100084000D01*
X150312380Y-100036380D01*
X151502857Y-100369714D02*
X151502857Y-101036380D01*
X151264761Y-99988761D02*
X151026666Y-100703047D01*
X151645714Y-100703047D01*
X145121523Y-94940380D02*
X145121523Y-93940380D01*
X145359619Y-93940380D01*
X145502476Y-93988000D01*
X145597714Y-94083238D01*
X145645333Y-94178476D01*
X145692952Y-94368952D01*
X145692952Y-94511809D01*
X145645333Y-94702285D01*
X145597714Y-94797523D01*
X145502476Y-94892761D01*
X145359619Y-94940380D01*
X145121523Y-94940380D01*
X146645333Y-94940380D02*
X146073904Y-94940380D01*
X146359619Y-94940380D02*
X146359619Y-93940380D01*
X146264380Y-94083238D01*
X146169142Y-94178476D01*
X146073904Y-94226095D01*
X147264380Y-93940380D02*
X147359619Y-93940380D01*
X147454857Y-93988000D01*
X147502476Y-94035619D01*
X147550095Y-94130857D01*
X147597714Y-94321333D01*
X147597714Y-94559428D01*
X147550095Y-94749904D01*
X147502476Y-94845142D01*
X147454857Y-94892761D01*
X147359619Y-94940380D01*
X147264380Y-94940380D01*
X147169142Y-94892761D01*
X147121523Y-94845142D01*
X147073904Y-94749904D01*
X147026285Y-94559428D01*
X147026285Y-94321333D01*
X147073904Y-94130857D01*
X147121523Y-94035619D01*
X147169142Y-93988000D01*
X147264380Y-93940380D01*
X148502476Y-93940380D02*
X148026285Y-93940380D01*
X147978666Y-94416571D01*
X148026285Y-94368952D01*
X148121523Y-94321333D01*
X148359619Y-94321333D01*
X148454857Y-94368952D01*
X148502476Y-94416571D01*
X148550095Y-94511809D01*
X148550095Y-94749904D01*
X148502476Y-94845142D01*
X148454857Y-94892761D01*
X148359619Y-94940380D01*
X148121523Y-94940380D01*
X148026285Y-94892761D01*
X147978666Y-94845142D01*
X156360952Y-119324380D02*
X156027619Y-118848190D01*
X155789523Y-119324380D02*
X155789523Y-118324380D01*
X156170476Y-118324380D01*
X156265714Y-118372000D01*
X156313333Y-118419619D01*
X156360952Y-118514857D01*
X156360952Y-118657714D01*
X156313333Y-118752952D01*
X156265714Y-118800571D01*
X156170476Y-118848190D01*
X155789523Y-118848190D01*
X157313333Y-119324380D02*
X156741904Y-119324380D01*
X157027619Y-119324380D02*
X157027619Y-118324380D01*
X156932380Y-118467238D01*
X156837142Y-118562476D01*
X156741904Y-118610095D01*
X157932380Y-118324380D02*
X158027619Y-118324380D01*
X158122857Y-118372000D01*
X158170476Y-118419619D01*
X158218095Y-118514857D01*
X158265714Y-118705333D01*
X158265714Y-118943428D01*
X158218095Y-119133904D01*
X158170476Y-119229142D01*
X158122857Y-119276761D01*
X158027619Y-119324380D01*
X157932380Y-119324380D01*
X157837142Y-119276761D01*
X157789523Y-119229142D01*
X157741904Y-119133904D01*
X157694285Y-118943428D01*
X157694285Y-118705333D01*
X157741904Y-118514857D01*
X157789523Y-118419619D01*
X157837142Y-118372000D01*
X157932380Y-118324380D01*
X159122857Y-118657714D02*
X159122857Y-119324380D01*
X158884761Y-118276761D02*
X158646666Y-118991047D01*
X159265714Y-118991047D01*
X156360952Y-113228380D02*
X156027619Y-112752190D01*
X155789523Y-113228380D02*
X155789523Y-112228380D01*
X156170476Y-112228380D01*
X156265714Y-112276000D01*
X156313333Y-112323619D01*
X156360952Y-112418857D01*
X156360952Y-112561714D01*
X156313333Y-112656952D01*
X156265714Y-112704571D01*
X156170476Y-112752190D01*
X155789523Y-112752190D01*
X157313333Y-113228380D02*
X156741904Y-113228380D01*
X157027619Y-113228380D02*
X157027619Y-112228380D01*
X156932380Y-112371238D01*
X156837142Y-112466476D01*
X156741904Y-112514095D01*
X157932380Y-112228380D02*
X158027619Y-112228380D01*
X158122857Y-112276000D01*
X158170476Y-112323619D01*
X158218095Y-112418857D01*
X158265714Y-112609333D01*
X158265714Y-112847428D01*
X158218095Y-113037904D01*
X158170476Y-113133142D01*
X158122857Y-113180761D01*
X158027619Y-113228380D01*
X157932380Y-113228380D01*
X157837142Y-113180761D01*
X157789523Y-113133142D01*
X157741904Y-113037904D01*
X157694285Y-112847428D01*
X157694285Y-112609333D01*
X157741904Y-112418857D01*
X157789523Y-112323619D01*
X157837142Y-112276000D01*
X157932380Y-112228380D01*
X159170476Y-112228380D02*
X158694285Y-112228380D01*
X158646666Y-112704571D01*
X158694285Y-112656952D01*
X158789523Y-112609333D01*
X159027619Y-112609333D01*
X159122857Y-112656952D01*
X159170476Y-112704571D01*
X159218095Y-112799809D01*
X159218095Y-113037904D01*
X159170476Y-113133142D01*
X159122857Y-113180761D01*
X159027619Y-113228380D01*
X158789523Y-113228380D01*
X158694285Y-113180761D01*
X158646666Y-113133142D01*
X156360952Y-107132380D02*
X156027619Y-106656190D01*
X155789523Y-107132380D02*
X155789523Y-106132380D01*
X156170476Y-106132380D01*
X156265714Y-106180000D01*
X156313333Y-106227619D01*
X156360952Y-106322857D01*
X156360952Y-106465714D01*
X156313333Y-106560952D01*
X156265714Y-106608571D01*
X156170476Y-106656190D01*
X155789523Y-106656190D01*
X157313333Y-107132380D02*
X156741904Y-107132380D01*
X157027619Y-107132380D02*
X157027619Y-106132380D01*
X156932380Y-106275238D01*
X156837142Y-106370476D01*
X156741904Y-106418095D01*
X157932380Y-106132380D02*
X158027619Y-106132380D01*
X158122857Y-106180000D01*
X158170476Y-106227619D01*
X158218095Y-106322857D01*
X158265714Y-106513333D01*
X158265714Y-106751428D01*
X158218095Y-106941904D01*
X158170476Y-107037142D01*
X158122857Y-107084761D01*
X158027619Y-107132380D01*
X157932380Y-107132380D01*
X157837142Y-107084761D01*
X157789523Y-107037142D01*
X157741904Y-106941904D01*
X157694285Y-106751428D01*
X157694285Y-106513333D01*
X157741904Y-106322857D01*
X157789523Y-106227619D01*
X157837142Y-106180000D01*
X157932380Y-106132380D01*
X159122857Y-106132380D02*
X158932380Y-106132380D01*
X158837142Y-106180000D01*
X158789523Y-106227619D01*
X158694285Y-106370476D01*
X158646666Y-106560952D01*
X158646666Y-106941904D01*
X158694285Y-107037142D01*
X158741904Y-107084761D01*
X158837142Y-107132380D01*
X159027619Y-107132380D01*
X159122857Y-107084761D01*
X159170476Y-107037142D01*
X159218095Y-106941904D01*
X159218095Y-106703809D01*
X159170476Y-106608571D01*
X159122857Y-106560952D01*
X159027619Y-106513333D01*
X158837142Y-106513333D01*
X158741904Y-106560952D01*
X158694285Y-106608571D01*
X158646666Y-106703809D01*
X156360952Y-101036380D02*
X156027619Y-100560190D01*
X155789523Y-101036380D02*
X155789523Y-100036380D01*
X156170476Y-100036380D01*
X156265714Y-100084000D01*
X156313333Y-100131619D01*
X156360952Y-100226857D01*
X156360952Y-100369714D01*
X156313333Y-100464952D01*
X156265714Y-100512571D01*
X156170476Y-100560190D01*
X155789523Y-100560190D01*
X157313333Y-101036380D02*
X156741904Y-101036380D01*
X157027619Y-101036380D02*
X157027619Y-100036380D01*
X156932380Y-100179238D01*
X156837142Y-100274476D01*
X156741904Y-100322095D01*
X157932380Y-100036380D02*
X158027619Y-100036380D01*
X158122857Y-100084000D01*
X158170476Y-100131619D01*
X158218095Y-100226857D01*
X158265714Y-100417333D01*
X158265714Y-100655428D01*
X158218095Y-100845904D01*
X158170476Y-100941142D01*
X158122857Y-100988761D01*
X158027619Y-101036380D01*
X157932380Y-101036380D01*
X157837142Y-100988761D01*
X157789523Y-100941142D01*
X157741904Y-100845904D01*
X157694285Y-100655428D01*
X157694285Y-100417333D01*
X157741904Y-100226857D01*
X157789523Y-100131619D01*
X157837142Y-100084000D01*
X157932380Y-100036380D01*
X158599047Y-100036380D02*
X159265714Y-100036380D01*
X158837142Y-101036380D01*
X153312952Y-94940380D02*
X152979619Y-94464190D01*
X152741523Y-94940380D02*
X152741523Y-93940380D01*
X153122476Y-93940380D01*
X153217714Y-93988000D01*
X153265333Y-94035619D01*
X153312952Y-94130857D01*
X153312952Y-94273714D01*
X153265333Y-94368952D01*
X153217714Y-94416571D01*
X153122476Y-94464190D01*
X152741523Y-94464190D01*
X154265333Y-94940380D02*
X153693904Y-94940380D01*
X153979619Y-94940380D02*
X153979619Y-93940380D01*
X153884380Y-94083238D01*
X153789142Y-94178476D01*
X153693904Y-94226095D01*
X154884380Y-93940380D02*
X154979619Y-93940380D01*
X155074857Y-93988000D01*
X155122476Y-94035619D01*
X155170095Y-94130857D01*
X155217714Y-94321333D01*
X155217714Y-94559428D01*
X155170095Y-94749904D01*
X155122476Y-94845142D01*
X155074857Y-94892761D01*
X154979619Y-94940380D01*
X154884380Y-94940380D01*
X154789142Y-94892761D01*
X154741523Y-94845142D01*
X154693904Y-94749904D01*
X154646285Y-94559428D01*
X154646285Y-94321333D01*
X154693904Y-94130857D01*
X154741523Y-94035619D01*
X154789142Y-93988000D01*
X154884380Y-93940380D01*
X155789142Y-94368952D02*
X155693904Y-94321333D01*
X155646285Y-94273714D01*
X155598666Y-94178476D01*
X155598666Y-94130857D01*
X155646285Y-94035619D01*
X155693904Y-93988000D01*
X155789142Y-93940380D01*
X155979619Y-93940380D01*
X156074857Y-93988000D01*
X156122476Y-94035619D01*
X156170095Y-94130857D01*
X156170095Y-94178476D01*
X156122476Y-94273714D01*
X156074857Y-94321333D01*
X155979619Y-94368952D01*
X155789142Y-94368952D01*
X155693904Y-94416571D01*
X155646285Y-94464190D01*
X155598666Y-94559428D01*
X155598666Y-94749904D01*
X155646285Y-94845142D01*
X155693904Y-94892761D01*
X155789142Y-94940380D01*
X155979619Y-94940380D01*
X156074857Y-94892761D01*
X156122476Y-94845142D01*
X156170095Y-94749904D01*
X156170095Y-94559428D01*
X156122476Y-94464190D01*
X156074857Y-94416571D01*
X155979619Y-94368952D01*
X86002952Y-162438142D02*
X85955333Y-162485761D01*
X85812476Y-162533380D01*
X85717238Y-162533380D01*
X85574380Y-162485761D01*
X85479142Y-162390523D01*
X85431523Y-162295285D01*
X85383904Y-162104809D01*
X85383904Y-161961952D01*
X85431523Y-161771476D01*
X85479142Y-161676238D01*
X85574380Y-161581000D01*
X85717238Y-161533380D01*
X85812476Y-161533380D01*
X85955333Y-161581000D01*
X86002952Y-161628619D01*
X86955333Y-162533380D02*
X86383904Y-162533380D01*
X86669619Y-162533380D02*
X86669619Y-161533380D01*
X86574380Y-161676238D01*
X86479142Y-161771476D01*
X86383904Y-161819095D01*
X87574380Y-161533380D02*
X87669619Y-161533380D01*
X87764857Y-161581000D01*
X87812476Y-161628619D01*
X87860095Y-161723857D01*
X87907714Y-161914333D01*
X87907714Y-162152428D01*
X87860095Y-162342904D01*
X87812476Y-162438142D01*
X87764857Y-162485761D01*
X87669619Y-162533380D01*
X87574380Y-162533380D01*
X87479142Y-162485761D01*
X87431523Y-162438142D01*
X87383904Y-162342904D01*
X87336285Y-162152428D01*
X87336285Y-161914333D01*
X87383904Y-161723857D01*
X87431523Y-161628619D01*
X87479142Y-161581000D01*
X87574380Y-161533380D01*
X88860095Y-162533380D02*
X88288666Y-162533380D01*
X88574380Y-162533380D02*
X88574380Y-161533380D01*
X88479142Y-161676238D01*
X88383904Y-161771476D01*
X88288666Y-161819095D01*
X48371285Y-135215380D02*
X48371285Y-135929666D01*
X48323666Y-136072523D01*
X48228428Y-136167761D01*
X48085571Y-136215380D01*
X47990333Y-136215380D01*
X49371285Y-136215380D02*
X48799857Y-136215380D01*
X49085571Y-136215380D02*
X49085571Y-135215380D01*
X48990333Y-135358238D01*
X48895095Y-135453476D01*
X48799857Y-135501095D01*
X49990333Y-135215380D02*
X50085571Y-135215380D01*
X50180809Y-135263000D01*
X50228428Y-135310619D01*
X50276047Y-135405857D01*
X50323666Y-135596333D01*
X50323666Y-135834428D01*
X50276047Y-136024904D01*
X50228428Y-136120142D01*
X50180809Y-136167761D01*
X50085571Y-136215380D01*
X49990333Y-136215380D01*
X49895095Y-136167761D01*
X49847476Y-136120142D01*
X49799857Y-136024904D01*
X49752238Y-135834428D01*
X49752238Y-135596333D01*
X49799857Y-135405857D01*
X49847476Y-135310619D01*
X49895095Y-135263000D01*
X49990333Y-135215380D01*
X50704619Y-135310619D02*
X50752238Y-135263000D01*
X50847476Y-135215380D01*
X51085571Y-135215380D01*
X51180809Y-135263000D01*
X51228428Y-135310619D01*
X51276047Y-135405857D01*
X51276047Y-135501095D01*
X51228428Y-135643952D01*
X50657000Y-136215380D01*
X51276047Y-136215380D01*
X64473619Y-139557619D02*
X64426000Y-139652857D01*
X64330761Y-139748095D01*
X64187904Y-139890952D01*
X64140285Y-139986190D01*
X64140285Y-140081428D01*
X64378380Y-140033809D02*
X64330761Y-140129047D01*
X64235523Y-140224285D01*
X64045047Y-140271904D01*
X63711714Y-140271904D01*
X63521238Y-140224285D01*
X63426000Y-140129047D01*
X63378380Y-140033809D01*
X63378380Y-139843333D01*
X63426000Y-139748095D01*
X63521238Y-139652857D01*
X63711714Y-139605238D01*
X64045047Y-139605238D01*
X64235523Y-139652857D01*
X64330761Y-139748095D01*
X64378380Y-139843333D01*
X64378380Y-140033809D01*
X64378380Y-138652857D02*
X64378380Y-139224285D01*
X64378380Y-138938571D02*
X63378380Y-138938571D01*
X63521238Y-139033809D01*
X63616476Y-139129047D01*
X63664095Y-139224285D01*
X63378380Y-138033809D02*
X63378380Y-137938571D01*
X63426000Y-137843333D01*
X63473619Y-137795714D01*
X63568857Y-137748095D01*
X63759333Y-137700476D01*
X63997428Y-137700476D01*
X64187904Y-137748095D01*
X64283142Y-137795714D01*
X64330761Y-137843333D01*
X64378380Y-137938571D01*
X64378380Y-138033809D01*
X64330761Y-138129047D01*
X64283142Y-138176666D01*
X64187904Y-138224285D01*
X63997428Y-138271904D01*
X63759333Y-138271904D01*
X63568857Y-138224285D01*
X63473619Y-138176666D01*
X63426000Y-138129047D01*
X63378380Y-138033809D01*
X63473619Y-137319523D02*
X63426000Y-137271904D01*
X63378380Y-137176666D01*
X63378380Y-136938571D01*
X63426000Y-136843333D01*
X63473619Y-136795714D01*
X63568857Y-136748095D01*
X63664095Y-136748095D01*
X63806952Y-136795714D01*
X64378380Y-137367142D01*
X64378380Y-136748095D01*
X55317380Y-129389047D02*
X54841190Y-129722380D01*
X55317380Y-129960476D02*
X54317380Y-129960476D01*
X54317380Y-129579523D01*
X54365000Y-129484285D01*
X54412619Y-129436666D01*
X54507857Y-129389047D01*
X54650714Y-129389047D01*
X54745952Y-129436666D01*
X54793571Y-129484285D01*
X54841190Y-129579523D01*
X54841190Y-129960476D01*
X55317380Y-128436666D02*
X55317380Y-129008095D01*
X55317380Y-128722380D02*
X54317380Y-128722380D01*
X54460238Y-128817619D01*
X54555476Y-128912857D01*
X54603095Y-129008095D01*
X54317380Y-127817619D02*
X54317380Y-127722380D01*
X54365000Y-127627142D01*
X54412619Y-127579523D01*
X54507857Y-127531904D01*
X54698333Y-127484285D01*
X54936428Y-127484285D01*
X55126904Y-127531904D01*
X55222142Y-127579523D01*
X55269761Y-127627142D01*
X55317380Y-127722380D01*
X55317380Y-127817619D01*
X55269761Y-127912857D01*
X55222142Y-127960476D01*
X55126904Y-128008095D01*
X54936428Y-128055714D01*
X54698333Y-128055714D01*
X54507857Y-128008095D01*
X54412619Y-127960476D01*
X54365000Y-127912857D01*
X54317380Y-127817619D01*
X55317380Y-127008095D02*
X55317380Y-126817619D01*
X55269761Y-126722380D01*
X55222142Y-126674761D01*
X55079285Y-126579523D01*
X54888809Y-126531904D01*
X54507857Y-126531904D01*
X54412619Y-126579523D01*
X54365000Y-126627142D01*
X54317380Y-126722380D01*
X54317380Y-126912857D01*
X54365000Y-127008095D01*
X54412619Y-127055714D01*
X54507857Y-127103333D01*
X54745952Y-127103333D01*
X54841190Y-127055714D01*
X54888809Y-127008095D01*
X54936428Y-126912857D01*
X54936428Y-126722380D01*
X54888809Y-126627142D01*
X54841190Y-126579523D01*
X54745952Y-126531904D01*
%LPC*%
D17*
G36*
X42093000Y-96335000D02*
G01*
X42093000Y-96645000D01*
X42918000Y-96645000D01*
X42918000Y-97015000D01*
X42093000Y-97015000D01*
X42093000Y-97295000D01*
X42918000Y-97295000D01*
X42918000Y-97665000D01*
X42093000Y-97665000D01*
X42093000Y-97975000D01*
X40203000Y-97975000D01*
X40203000Y-97665000D01*
X39378000Y-97665000D01*
X39378000Y-97295000D01*
X40203000Y-97295000D01*
X40203000Y-97015000D01*
X39378000Y-97015000D01*
X39378000Y-96645000D01*
X40203000Y-96645000D01*
X40203000Y-96335000D01*
X42093000Y-96335000D01*
G37*
X42093000Y-96335000D02*
X42093000Y-96645000D01*
X42918000Y-96645000D01*
X42918000Y-97015000D01*
X42093000Y-97015000D01*
X42093000Y-97295000D01*
X42918000Y-97295000D01*
X42918000Y-97665000D01*
X42093000Y-97665000D01*
X42093000Y-97975000D01*
X40203000Y-97975000D01*
X40203000Y-97665000D01*
X39378000Y-97665000D01*
X39378000Y-97295000D01*
X40203000Y-97295000D01*
X40203000Y-97015000D01*
X39378000Y-97015000D01*
X39378000Y-96645000D01*
X40203000Y-96645000D01*
X40203000Y-96335000D01*
X42093000Y-96335000D01*
G36*
X42348000Y-95385000D02*
G01*
X42348000Y-96125000D01*
X41898000Y-96125000D01*
X41898000Y-95385000D01*
X42348000Y-95385000D01*
G37*
X42348000Y-95385000D02*
X42348000Y-96125000D01*
X41898000Y-96125000D01*
X41898000Y-95385000D01*
X42348000Y-95385000D01*
G36*
X42348000Y-98185000D02*
G01*
X42348000Y-98925000D01*
X41898000Y-98925000D01*
X41898000Y-98185000D01*
X42348000Y-98185000D01*
G37*
X42348000Y-98185000D02*
X42348000Y-98925000D01*
X41898000Y-98925000D01*
X41898000Y-98185000D01*
X42348000Y-98185000D01*
G36*
X41698000Y-95385000D02*
G01*
X41698000Y-96125000D01*
X41248000Y-96125000D01*
X41248000Y-95385000D01*
X41698000Y-95385000D01*
G37*
X41698000Y-95385000D02*
X41698000Y-96125000D01*
X41248000Y-96125000D01*
X41248000Y-95385000D01*
X41698000Y-95385000D01*
G36*
X41048000Y-95385000D02*
G01*
X41048000Y-96125000D01*
X40598000Y-96125000D01*
X40598000Y-95385000D01*
X41048000Y-95385000D01*
G37*
X41048000Y-95385000D02*
X41048000Y-96125000D01*
X40598000Y-96125000D01*
X40598000Y-95385000D01*
X41048000Y-95385000D01*
G36*
X40398000Y-95385000D02*
G01*
X40398000Y-96125000D01*
X39948000Y-96125000D01*
X39948000Y-95385000D01*
X40398000Y-95385000D01*
G37*
X40398000Y-95385000D02*
X40398000Y-96125000D01*
X39948000Y-96125000D01*
X39948000Y-95385000D01*
X40398000Y-95385000D01*
G36*
X41698000Y-98185000D02*
G01*
X41698000Y-98925000D01*
X41248000Y-98925000D01*
X41248000Y-98185000D01*
X41698000Y-98185000D01*
G37*
X41698000Y-98185000D02*
X41698000Y-98925000D01*
X41248000Y-98925000D01*
X41248000Y-98185000D01*
X41698000Y-98185000D01*
G36*
X41048000Y-98185000D02*
G01*
X41048000Y-98925000D01*
X40598000Y-98925000D01*
X40598000Y-98185000D01*
X41048000Y-98185000D01*
G37*
X41048000Y-98185000D02*
X41048000Y-98925000D01*
X40598000Y-98925000D01*
X40598000Y-98185000D01*
X41048000Y-98185000D01*
G36*
X40398000Y-98185000D02*
G01*
X40398000Y-98925000D01*
X39948000Y-98925000D01*
X39948000Y-98185000D01*
X40398000Y-98185000D01*
G37*
X40398000Y-98185000D02*
X40398000Y-98925000D01*
X39948000Y-98925000D01*
X39948000Y-98185000D01*
X40398000Y-98185000D01*
G36*
X43001500Y-82627500D02*
G01*
X43001500Y-83367500D01*
X42551500Y-83367500D01*
X42551500Y-82627500D01*
X43001500Y-82627500D01*
G37*
X43001500Y-82627500D02*
X43001500Y-83367500D01*
X42551500Y-83367500D01*
X42551500Y-82627500D01*
X43001500Y-82627500D01*
G36*
X43651500Y-82627500D02*
G01*
X43651500Y-83367500D01*
X43201500Y-83367500D01*
X43201500Y-82627500D01*
X43651500Y-82627500D01*
G37*
X43651500Y-82627500D02*
X43651500Y-83367500D01*
X43201500Y-83367500D01*
X43201500Y-82627500D01*
X43651500Y-82627500D01*
G36*
X44301500Y-82627500D02*
G01*
X44301500Y-83367500D01*
X43851500Y-83367500D01*
X43851500Y-82627500D01*
X44301500Y-82627500D01*
G37*
X44301500Y-82627500D02*
X44301500Y-83367500D01*
X43851500Y-83367500D01*
X43851500Y-82627500D01*
X44301500Y-82627500D01*
G36*
X43001500Y-79827500D02*
G01*
X43001500Y-80567500D01*
X42551500Y-80567500D01*
X42551500Y-79827500D01*
X43001500Y-79827500D01*
G37*
X43001500Y-79827500D02*
X43001500Y-80567500D01*
X42551500Y-80567500D01*
X42551500Y-79827500D01*
X43001500Y-79827500D01*
G36*
X43651500Y-79827500D02*
G01*
X43651500Y-80567500D01*
X43201500Y-80567500D01*
X43201500Y-79827500D01*
X43651500Y-79827500D01*
G37*
X43651500Y-79827500D02*
X43651500Y-80567500D01*
X43201500Y-80567500D01*
X43201500Y-79827500D01*
X43651500Y-79827500D01*
G36*
X44301500Y-79827500D02*
G01*
X44301500Y-80567500D01*
X43851500Y-80567500D01*
X43851500Y-79827500D01*
X44301500Y-79827500D01*
G37*
X44301500Y-79827500D02*
X44301500Y-80567500D01*
X43851500Y-80567500D01*
X43851500Y-79827500D01*
X44301500Y-79827500D01*
G36*
X44951500Y-82627500D02*
G01*
X44951500Y-83367500D01*
X44501500Y-83367500D01*
X44501500Y-82627500D01*
X44951500Y-82627500D01*
G37*
X44951500Y-82627500D02*
X44951500Y-83367500D01*
X44501500Y-83367500D01*
X44501500Y-82627500D01*
X44951500Y-82627500D01*
G36*
X44951500Y-79827500D02*
G01*
X44951500Y-80567500D01*
X44501500Y-80567500D01*
X44501500Y-79827500D01*
X44951500Y-79827500D01*
G37*
X44951500Y-79827500D02*
X44951500Y-80567500D01*
X44501500Y-80567500D01*
X44501500Y-79827500D01*
X44951500Y-79827500D01*
G36*
X44696500Y-80777500D02*
G01*
X44696500Y-81087500D01*
X45521500Y-81087500D01*
X45521500Y-81457500D01*
X44696500Y-81457500D01*
X44696500Y-81737500D01*
X45521500Y-81737500D01*
X45521500Y-82107500D01*
X44696500Y-82107500D01*
X44696500Y-82417500D01*
X42806500Y-82417500D01*
X42806500Y-82107500D01*
X41981500Y-82107500D01*
X41981500Y-81737500D01*
X42806500Y-81737500D01*
X42806500Y-81457500D01*
X41981500Y-81457500D01*
X41981500Y-81087500D01*
X42806500Y-81087500D01*
X42806500Y-80777500D01*
X44696500Y-80777500D01*
G37*
X44696500Y-80777500D02*
X44696500Y-81087500D01*
X45521500Y-81087500D01*
X45521500Y-81457500D01*
X44696500Y-81457500D01*
X44696500Y-81737500D01*
X45521500Y-81737500D01*
X45521500Y-82107500D01*
X44696500Y-82107500D01*
X44696500Y-82417500D01*
X42806500Y-82417500D01*
X42806500Y-82107500D01*
X41981500Y-82107500D01*
X41981500Y-81737500D01*
X42806500Y-81737500D01*
X42806500Y-81457500D01*
X41981500Y-81457500D01*
X41981500Y-81087500D01*
X42806500Y-81087500D01*
X42806500Y-80777500D01*
X44696500Y-80777500D01*
D18*
X144945000Y-81280000D03*
X62945000Y-81280000D03*
X144945000Y-59690000D03*
X62945000Y-59690000D03*
D19*
X110490000Y-155829000D03*
X110490000Y-153289000D03*
X110490000Y-150749000D03*
X110490000Y-148209000D03*
X110490000Y-145669000D03*
X110490000Y-143129000D03*
X110490000Y-140589000D03*
X110490000Y-138049000D03*
X110490000Y-135509000D03*
X83185000Y-143129000D03*
X80645000Y-143129000D03*
X78105000Y-143129000D03*
X75565000Y-143129000D03*
X73025000Y-143129000D03*
X70485000Y-143129000D03*
X67945000Y-143129000D03*
X65405000Y-129667000D03*
X67945000Y-129667000D03*
X70485000Y-129667000D03*
X73025000Y-129667000D03*
X75565000Y-129667000D03*
X78105000Y-129667000D03*
X67945000Y-111887000D03*
X70485000Y-111887000D03*
X73025000Y-111887000D03*
X75565000Y-111887000D03*
X110998000Y-99949000D03*
X110998000Y-102489000D03*
X110998000Y-105029000D03*
X110998000Y-107569000D03*
X110998000Y-110109000D03*
X110998000Y-112649000D03*
X110998000Y-115189000D03*
X110998000Y-117729000D03*
X110998000Y-120269000D03*
X136398000Y-110109000D03*
X136398000Y-107569000D03*
X136398000Y-105029000D03*
X136398000Y-102489000D03*
X136398000Y-99949000D03*
X103505000Y-116459000D03*
X103505000Y-113919000D03*
X103505000Y-111379000D03*
X103505000Y-108839000D03*
X103505000Y-118999000D03*
X103505000Y-121539000D03*
X103505000Y-124079000D03*
X103505000Y-106299000D03*
X103505000Y-103759000D03*
X103505000Y-101219000D03*
X103505000Y-98679000D03*
X100965000Y-111379000D03*
X98425000Y-111379000D03*
X95885000Y-111379000D03*
X93345000Y-111379000D03*
X90805000Y-111379000D03*
X88265000Y-98679000D03*
X88265000Y-101219000D03*
X88265000Y-103759000D03*
X88265000Y-106299000D03*
X88265000Y-108839000D03*
X88265000Y-111379000D03*
X88265000Y-113919000D03*
X88265000Y-116459000D03*
X103505000Y-126619000D03*
X103505000Y-129159000D03*
X103505000Y-131699000D03*
X103505000Y-134239000D03*
X103505000Y-136779000D03*
X103505000Y-139319000D03*
X103505000Y-141859000D03*
X103505000Y-144399000D03*
X103505000Y-146939000D03*
X103505000Y-149479000D03*
X103505000Y-152019000D03*
X103505000Y-154559000D03*
D20*
X103505000Y-157099000D03*
D19*
X88265000Y-118999000D03*
X88265000Y-121539000D03*
X88265000Y-124079000D03*
X88265000Y-126619000D03*
X88265000Y-129159000D03*
X88265000Y-131699000D03*
X88265000Y-134239000D03*
X88265000Y-136779000D03*
X88265000Y-139319000D03*
X88265000Y-141859000D03*
X88265000Y-144399000D03*
X88265000Y-146939000D03*
X88265000Y-149479000D03*
X88265000Y-152019000D03*
X88265000Y-154559000D03*
X88265000Y-157099000D03*
X90805000Y-154559000D03*
X90805000Y-149479000D03*
X90805000Y-146939000D03*
X90805000Y-144399000D03*
X100505000Y-150749000D03*
X100505000Y-148209000D03*
X100505000Y-145669000D03*
X100505000Y-143129000D03*
X100505000Y-140589000D03*
X93345000Y-108839000D03*
X93345000Y-106299000D03*
X93345000Y-103759000D03*
X93345000Y-101219000D03*
X95885000Y-101219000D03*
X95885000Y-103759000D03*
X95885000Y-106299000D03*
X95885000Y-108839000D03*
X93345000Y-98679000D03*
X95885000Y-98679000D03*
X93345000Y-113919000D03*
X95885000Y-113919000D03*
X93345000Y-116459000D03*
X95885000Y-116459000D03*
X93345000Y-118999000D03*
X95885000Y-118999000D03*
X95885000Y-139319000D03*
X95885000Y-141859000D03*
X95885000Y-136779000D03*
X95885000Y-134239000D03*
X93345000Y-134239000D03*
X93345000Y-136779000D03*
X93345000Y-139319000D03*
X93345000Y-141859000D03*
X96895000Y-155829000D03*
X94875000Y-155829000D03*
G36*
G01*
X46388000Y-101880000D02*
X47338000Y-101880000D01*
G75*
G02*
X47588000Y-102130000I0J-250000D01*
G01*
X47588000Y-102805000D01*
G75*
G02*
X47338000Y-103055000I-250000J0D01*
G01*
X46388000Y-103055000D01*
G75*
G02*
X46138000Y-102805000I0J250000D01*
G01*
X46138000Y-102130000D01*
G75*
G02*
X46388000Y-101880000I250000J0D01*
G01*
G37*
G36*
G01*
X46388000Y-103955000D02*
X47338000Y-103955000D01*
G75*
G02*
X47588000Y-104205000I0J-250000D01*
G01*
X47588000Y-104880000D01*
G75*
G02*
X47338000Y-105130000I-250000J0D01*
G01*
X46388000Y-105130000D01*
G75*
G02*
X46138000Y-104880000I0J250000D01*
G01*
X46138000Y-104205000D01*
G75*
G02*
X46388000Y-103955000I250000J0D01*
G01*
G37*
G36*
G01*
X34729000Y-102014000D02*
X34729000Y-102964000D01*
G75*
G02*
X34479000Y-103214000I-250000J0D01*
G01*
X33804000Y-103214000D01*
G75*
G02*
X33554000Y-102964000I0J250000D01*
G01*
X33554000Y-102014000D01*
G75*
G02*
X33804000Y-101764000I250000J0D01*
G01*
X34479000Y-101764000D01*
G75*
G02*
X34729000Y-102014000I0J-250000D01*
G01*
G37*
G36*
G01*
X36804000Y-102014000D02*
X36804000Y-102964000D01*
G75*
G02*
X36554000Y-103214000I-250000J0D01*
G01*
X35879000Y-103214000D01*
G75*
G02*
X35629000Y-102964000I0J250000D01*
G01*
X35629000Y-102014000D01*
G75*
G02*
X35879000Y-101764000I250000J0D01*
G01*
X36554000Y-101764000D01*
G75*
G02*
X36804000Y-102014000I0J-250000D01*
G01*
G37*
G36*
G01*
X41308000Y-101880000D02*
X42258000Y-101880000D01*
G75*
G02*
X42508000Y-102130000I0J-250000D01*
G01*
X42508000Y-102805000D01*
G75*
G02*
X42258000Y-103055000I-250000J0D01*
G01*
X41308000Y-103055000D01*
G75*
G02*
X41058000Y-102805000I0J250000D01*
G01*
X41058000Y-102130000D01*
G75*
G02*
X41308000Y-101880000I250000J0D01*
G01*
G37*
G36*
G01*
X41308000Y-103955000D02*
X42258000Y-103955000D01*
G75*
G02*
X42508000Y-104205000I0J-250000D01*
G01*
X42508000Y-104880000D01*
G75*
G02*
X42258000Y-105130000I-250000J0D01*
G01*
X41308000Y-105130000D01*
G75*
G02*
X41058000Y-104880000I0J250000D01*
G01*
X41058000Y-104205000D01*
G75*
G02*
X41308000Y-103955000I250000J0D01*
G01*
G37*
G36*
G01*
X48991500Y-85687500D02*
X49941500Y-85687500D01*
G75*
G02*
X50191500Y-85937500I0J-250000D01*
G01*
X50191500Y-86612500D01*
G75*
G02*
X49941500Y-86862500I-250000J0D01*
G01*
X48991500Y-86862500D01*
G75*
G02*
X48741500Y-86612500I0J250000D01*
G01*
X48741500Y-85937500D01*
G75*
G02*
X48991500Y-85687500I250000J0D01*
G01*
G37*
G36*
G01*
X48991500Y-87762500D02*
X49941500Y-87762500D01*
G75*
G02*
X50191500Y-88012500I0J-250000D01*
G01*
X50191500Y-88687500D01*
G75*
G02*
X49941500Y-88937500I-250000J0D01*
G01*
X48991500Y-88937500D01*
G75*
G02*
X48741500Y-88687500I0J250000D01*
G01*
X48741500Y-88012500D01*
G75*
G02*
X48991500Y-87762500I250000J0D01*
G01*
G37*
G36*
G01*
X37561500Y-87762500D02*
X38511500Y-87762500D01*
G75*
G02*
X38761500Y-88012500I0J-250000D01*
G01*
X38761500Y-88687500D01*
G75*
G02*
X38511500Y-88937500I-250000J0D01*
G01*
X37561500Y-88937500D01*
G75*
G02*
X37311500Y-88687500I0J250000D01*
G01*
X37311500Y-88012500D01*
G75*
G02*
X37561500Y-87762500I250000J0D01*
G01*
G37*
G36*
G01*
X37561500Y-85687500D02*
X38511500Y-85687500D01*
G75*
G02*
X38761500Y-85937500I0J-250000D01*
G01*
X38761500Y-86612500D01*
G75*
G02*
X38511500Y-86862500I-250000J0D01*
G01*
X37561500Y-86862500D01*
G75*
G02*
X37311500Y-86612500I0J250000D01*
G01*
X37311500Y-85937500D01*
G75*
G02*
X37561500Y-85687500I250000J0D01*
G01*
G37*
G36*
G01*
X43911500Y-87762500D02*
X44861500Y-87762500D01*
G75*
G02*
X45111500Y-88012500I0J-250000D01*
G01*
X45111500Y-88687500D01*
G75*
G02*
X44861500Y-88937500I-250000J0D01*
G01*
X43911500Y-88937500D01*
G75*
G02*
X43661500Y-88687500I0J250000D01*
G01*
X43661500Y-88012500D01*
G75*
G02*
X43911500Y-87762500I250000J0D01*
G01*
G37*
G36*
G01*
X43911500Y-85687500D02*
X44861500Y-85687500D01*
G75*
G02*
X45111500Y-85937500I0J-250000D01*
G01*
X45111500Y-86612500D01*
G75*
G02*
X44861500Y-86862500I-250000J0D01*
G01*
X43911500Y-86862500D01*
G75*
G02*
X43661500Y-86612500I0J250000D01*
G01*
X43661500Y-85937500D01*
G75*
G02*
X43911500Y-85687500I250000J0D01*
G01*
G37*
D21*
X36449000Y-113411000D03*
D22*
X41529000Y-113411000D03*
D23*
X51308000Y-116332000D03*
D24*
X51308000Y-118872000D03*
X51308000Y-121412000D03*
G36*
G01*
X47510500Y-76448499D02*
X47510500Y-77348501D01*
G75*
G02*
X47260501Y-77598500I-249999J0D01*
G01*
X46560499Y-77598500D01*
G75*
G02*
X46310500Y-77348501I0J249999D01*
G01*
X46310500Y-76448499D01*
G75*
G02*
X46560499Y-76198500I249999J0D01*
G01*
X47260501Y-76198500D01*
G75*
G02*
X47510500Y-76448499I0J-249999D01*
G01*
G37*
G36*
G01*
X45510500Y-76448499D02*
X45510500Y-77348501D01*
G75*
G02*
X45260501Y-77598500I-249999J0D01*
G01*
X44560499Y-77598500D01*
G75*
G02*
X44310500Y-77348501I0J249999D01*
G01*
X44310500Y-76448499D01*
G75*
G02*
X44560499Y-76198500I249999J0D01*
G01*
X45260501Y-76198500D01*
G75*
G02*
X45510500Y-76448499I0J-249999D01*
G01*
G37*
G36*
G01*
X46310500Y-73411501D02*
X46310500Y-72511499D01*
G75*
G02*
X46560499Y-72261500I249999J0D01*
G01*
X47260501Y-72261500D01*
G75*
G02*
X47510500Y-72511499I0J-249999D01*
G01*
X47510500Y-73411501D01*
G75*
G02*
X47260501Y-73661500I-249999J0D01*
G01*
X46560499Y-73661500D01*
G75*
G02*
X46310500Y-73411501I0J249999D01*
G01*
G37*
G36*
G01*
X44310500Y-73411501D02*
X44310500Y-72511499D01*
G75*
G02*
X44560499Y-72261500I249999J0D01*
G01*
X45260501Y-72261500D01*
G75*
G02*
X45510500Y-72511499I0J-249999D01*
G01*
X45510500Y-73411501D01*
G75*
G02*
X45260501Y-73661500I-249999J0D01*
G01*
X44560499Y-73661500D01*
G75*
G02*
X44310500Y-73411501I0J249999D01*
G01*
G37*
G36*
G01*
X55645000Y-108400001D02*
X55645000Y-107499999D01*
G75*
G02*
X55894999Y-107250000I249999J0D01*
G01*
X56595001Y-107250000D01*
G75*
G02*
X56845000Y-107499999I0J-249999D01*
G01*
X56845000Y-108400001D01*
G75*
G02*
X56595001Y-108650000I-249999J0D01*
G01*
X55894999Y-108650000D01*
G75*
G02*
X55645000Y-108400001I0J249999D01*
G01*
G37*
G36*
G01*
X53645000Y-108400001D02*
X53645000Y-107499999D01*
G75*
G02*
X53894999Y-107250000I249999J0D01*
G01*
X54595001Y-107250000D01*
G75*
G02*
X54845000Y-107499999I0J-249999D01*
G01*
X54845000Y-108400001D01*
G75*
G02*
X54595001Y-108650000I-249999J0D01*
G01*
X53894999Y-108650000D01*
G75*
G02*
X53645000Y-108400001I0J249999D01*
G01*
G37*
G36*
G01*
X35579000Y-96208001D02*
X35579000Y-95307999D01*
G75*
G02*
X35828999Y-95058000I249999J0D01*
G01*
X36529001Y-95058000D01*
G75*
G02*
X36779000Y-95307999I0J-249999D01*
G01*
X36779000Y-96208001D01*
G75*
G02*
X36529001Y-96458000I-249999J0D01*
G01*
X35828999Y-96458000D01*
G75*
G02*
X35579000Y-96208001I0J249999D01*
G01*
G37*
G36*
G01*
X33579000Y-96208001D02*
X33579000Y-95307999D01*
G75*
G02*
X33828999Y-95058000I249999J0D01*
G01*
X34529001Y-95058000D01*
G75*
G02*
X34779000Y-95307999I0J-249999D01*
G01*
X34779000Y-96208001D01*
G75*
G02*
X34529001Y-96458000I-249999J0D01*
G01*
X33828999Y-96458000D01*
G75*
G02*
X33579000Y-96208001I0J249999D01*
G01*
G37*
G36*
G01*
X46678001Y-98755000D02*
X45777999Y-98755000D01*
G75*
G02*
X45528000Y-98505001I0J249999D01*
G01*
X45528000Y-97804999D01*
G75*
G02*
X45777999Y-97555000I249999J0D01*
G01*
X46678001Y-97555000D01*
G75*
G02*
X46928000Y-97804999I0J-249999D01*
G01*
X46928000Y-98505001D01*
G75*
G02*
X46678001Y-98755000I-249999J0D01*
G01*
G37*
G36*
G01*
X46678001Y-96755000D02*
X45777999Y-96755000D01*
G75*
G02*
X45528000Y-96505001I0J249999D01*
G01*
X45528000Y-95804999D01*
G75*
G02*
X45777999Y-95555000I249999J0D01*
G01*
X46678001Y-95555000D01*
G75*
G02*
X46928000Y-95804999I0J-249999D01*
G01*
X46928000Y-96505001D01*
G75*
G02*
X46678001Y-96755000I-249999J0D01*
G01*
G37*
G36*
G01*
X40761499Y-74282500D02*
X41661501Y-74282500D01*
G75*
G02*
X41911500Y-74532499I0J-249999D01*
G01*
X41911500Y-75232501D01*
G75*
G02*
X41661501Y-75482500I-249999J0D01*
G01*
X40761499Y-75482500D01*
G75*
G02*
X40511500Y-75232501I0J249999D01*
G01*
X40511500Y-74532499D01*
G75*
G02*
X40761499Y-74282500I249999J0D01*
G01*
G37*
G36*
G01*
X40761499Y-76282500D02*
X41661501Y-76282500D01*
G75*
G02*
X41911500Y-76532499I0J-249999D01*
G01*
X41911500Y-77232501D01*
G75*
G02*
X41661501Y-77482500I-249999J0D01*
G01*
X40761499Y-77482500D01*
G75*
G02*
X40511500Y-77232501I0J249999D01*
G01*
X40511500Y-76532499D01*
G75*
G02*
X40761499Y-76282500I249999J0D01*
G01*
G37*
G36*
G01*
X50050500Y-81401499D02*
X50050500Y-82301501D01*
G75*
G02*
X49800501Y-82551500I-249999J0D01*
G01*
X49100499Y-82551500D01*
G75*
G02*
X48850500Y-82301501I0J249999D01*
G01*
X48850500Y-81401499D01*
G75*
G02*
X49100499Y-81151500I249999J0D01*
G01*
X49800501Y-81151500D01*
G75*
G02*
X50050500Y-81401499I0J-249999D01*
G01*
G37*
G36*
G01*
X48050500Y-81401499D02*
X48050500Y-82301501D01*
G75*
G02*
X47800501Y-82551500I-249999J0D01*
G01*
X47100499Y-82551500D01*
G75*
G02*
X46850500Y-82301501I0J249999D01*
G01*
X46850500Y-81401499D01*
G75*
G02*
X47100499Y-81151500I249999J0D01*
G01*
X47800501Y-81151500D01*
G75*
G02*
X48050500Y-81401499I0J-249999D01*
G01*
G37*
G36*
G01*
X149410000Y-120453999D02*
X149410000Y-121354001D01*
G75*
G02*
X149160001Y-121604000I-249999J0D01*
G01*
X148509999Y-121604000D01*
G75*
G02*
X148260000Y-121354001I0J249999D01*
G01*
X148260000Y-120453999D01*
G75*
G02*
X148509999Y-120204000I249999J0D01*
G01*
X149160001Y-120204000D01*
G75*
G02*
X149410000Y-120453999I0J-249999D01*
G01*
G37*
G36*
G01*
X151460000Y-120453999D02*
X151460000Y-121354001D01*
G75*
G02*
X151210001Y-121604000I-249999J0D01*
G01*
X150559999Y-121604000D01*
G75*
G02*
X150310000Y-121354001I0J249999D01*
G01*
X150310000Y-120453999D01*
G75*
G02*
X150559999Y-120204000I249999J0D01*
G01*
X151210001Y-120204000D01*
G75*
G02*
X151460000Y-120453999I0J-249999D01*
G01*
G37*
G36*
G01*
X151460000Y-114357999D02*
X151460000Y-115258001D01*
G75*
G02*
X151210001Y-115508000I-249999J0D01*
G01*
X150559999Y-115508000D01*
G75*
G02*
X150310000Y-115258001I0J249999D01*
G01*
X150310000Y-114357999D01*
G75*
G02*
X150559999Y-114108000I249999J0D01*
G01*
X151210001Y-114108000D01*
G75*
G02*
X151460000Y-114357999I0J-249999D01*
G01*
G37*
G36*
G01*
X149410000Y-114357999D02*
X149410000Y-115258001D01*
G75*
G02*
X149160001Y-115508000I-249999J0D01*
G01*
X148509999Y-115508000D01*
G75*
G02*
X148260000Y-115258001I0J249999D01*
G01*
X148260000Y-114357999D01*
G75*
G02*
X148509999Y-114108000I249999J0D01*
G01*
X149160001Y-114108000D01*
G75*
G02*
X149410000Y-114357999I0J-249999D01*
G01*
G37*
G36*
G01*
X151460000Y-108261999D02*
X151460000Y-109162001D01*
G75*
G02*
X151210001Y-109412000I-249999J0D01*
G01*
X150559999Y-109412000D01*
G75*
G02*
X150310000Y-109162001I0J249999D01*
G01*
X150310000Y-108261999D01*
G75*
G02*
X150559999Y-108012000I249999J0D01*
G01*
X151210001Y-108012000D01*
G75*
G02*
X151460000Y-108261999I0J-249999D01*
G01*
G37*
G36*
G01*
X149410000Y-108261999D02*
X149410000Y-109162001D01*
G75*
G02*
X149160001Y-109412000I-249999J0D01*
G01*
X148509999Y-109412000D01*
G75*
G02*
X148260000Y-109162001I0J249999D01*
G01*
X148260000Y-108261999D01*
G75*
G02*
X148509999Y-108012000I249999J0D01*
G01*
X149160001Y-108012000D01*
G75*
G02*
X149410000Y-108261999I0J-249999D01*
G01*
G37*
G36*
G01*
X149410000Y-102165999D02*
X149410000Y-103066001D01*
G75*
G02*
X149160001Y-103316000I-249999J0D01*
G01*
X148509999Y-103316000D01*
G75*
G02*
X148260000Y-103066001I0J249999D01*
G01*
X148260000Y-102165999D01*
G75*
G02*
X148509999Y-101916000I249999J0D01*
G01*
X149160001Y-101916000D01*
G75*
G02*
X149410000Y-102165999I0J-249999D01*
G01*
G37*
G36*
G01*
X151460000Y-102165999D02*
X151460000Y-103066001D01*
G75*
G02*
X151210001Y-103316000I-249999J0D01*
G01*
X150559999Y-103316000D01*
G75*
G02*
X150310000Y-103066001I0J249999D01*
G01*
X150310000Y-102165999D01*
G75*
G02*
X150559999Y-101916000I249999J0D01*
G01*
X151210001Y-101916000D01*
G75*
G02*
X151460000Y-102165999I0J-249999D01*
G01*
G37*
G36*
G01*
X148412000Y-96069999D02*
X148412000Y-96970001D01*
G75*
G02*
X148162001Y-97220000I-249999J0D01*
G01*
X147511999Y-97220000D01*
G75*
G02*
X147262000Y-96970001I0J249999D01*
G01*
X147262000Y-96069999D01*
G75*
G02*
X147511999Y-95820000I249999J0D01*
G01*
X148162001Y-95820000D01*
G75*
G02*
X148412000Y-96069999I0J-249999D01*
G01*
G37*
G36*
G01*
X146362000Y-96069999D02*
X146362000Y-96970001D01*
G75*
G02*
X146112001Y-97220000I-249999J0D01*
G01*
X145461999Y-97220000D01*
G75*
G02*
X145212000Y-96970001I0J249999D01*
G01*
X145212000Y-96069999D01*
G75*
G02*
X145461999Y-95820000I249999J0D01*
G01*
X146112001Y-95820000D01*
G75*
G02*
X146362000Y-96069999I0J-249999D01*
G01*
G37*
G36*
G01*
X155880000Y-121354001D02*
X155880000Y-120453999D01*
G75*
G02*
X156129999Y-120204000I249999J0D01*
G01*
X156830001Y-120204000D01*
G75*
G02*
X157080000Y-120453999I0J-249999D01*
G01*
X157080000Y-121354001D01*
G75*
G02*
X156830001Y-121604000I-249999J0D01*
G01*
X156129999Y-121604000D01*
G75*
G02*
X155880000Y-121354001I0J249999D01*
G01*
G37*
G36*
G01*
X157880000Y-121354001D02*
X157880000Y-120453999D01*
G75*
G02*
X158129999Y-120204000I249999J0D01*
G01*
X158830001Y-120204000D01*
G75*
G02*
X159080000Y-120453999I0J-249999D01*
G01*
X159080000Y-121354001D01*
G75*
G02*
X158830001Y-121604000I-249999J0D01*
G01*
X158129999Y-121604000D01*
G75*
G02*
X157880000Y-121354001I0J249999D01*
G01*
G37*
G36*
G01*
X157880000Y-115258001D02*
X157880000Y-114357999D01*
G75*
G02*
X158129999Y-114108000I249999J0D01*
G01*
X158830001Y-114108000D01*
G75*
G02*
X159080000Y-114357999I0J-249999D01*
G01*
X159080000Y-115258001D01*
G75*
G02*
X158830001Y-115508000I-249999J0D01*
G01*
X158129999Y-115508000D01*
G75*
G02*
X157880000Y-115258001I0J249999D01*
G01*
G37*
G36*
G01*
X155880000Y-115258001D02*
X155880000Y-114357999D01*
G75*
G02*
X156129999Y-114108000I249999J0D01*
G01*
X156830001Y-114108000D01*
G75*
G02*
X157080000Y-114357999I0J-249999D01*
G01*
X157080000Y-115258001D01*
G75*
G02*
X156830001Y-115508000I-249999J0D01*
G01*
X156129999Y-115508000D01*
G75*
G02*
X155880000Y-115258001I0J249999D01*
G01*
G37*
G36*
G01*
X155880000Y-109162001D02*
X155880000Y-108261999D01*
G75*
G02*
X156129999Y-108012000I249999J0D01*
G01*
X156830001Y-108012000D01*
G75*
G02*
X157080000Y-108261999I0J-249999D01*
G01*
X157080000Y-109162001D01*
G75*
G02*
X156830001Y-109412000I-249999J0D01*
G01*
X156129999Y-109412000D01*
G75*
G02*
X155880000Y-109162001I0J249999D01*
G01*
G37*
G36*
G01*
X157880000Y-109162001D02*
X157880000Y-108261999D01*
G75*
G02*
X158129999Y-108012000I249999J0D01*
G01*
X158830001Y-108012000D01*
G75*
G02*
X159080000Y-108261999I0J-249999D01*
G01*
X159080000Y-109162001D01*
G75*
G02*
X158830001Y-109412000I-249999J0D01*
G01*
X158129999Y-109412000D01*
G75*
G02*
X157880000Y-109162001I0J249999D01*
G01*
G37*
G36*
G01*
X155880000Y-103066001D02*
X155880000Y-102165999D01*
G75*
G02*
X156129999Y-101916000I249999J0D01*
G01*
X156830001Y-101916000D01*
G75*
G02*
X157080000Y-102165999I0J-249999D01*
G01*
X157080000Y-103066001D01*
G75*
G02*
X156830001Y-103316000I-249999J0D01*
G01*
X156129999Y-103316000D01*
G75*
G02*
X155880000Y-103066001I0J249999D01*
G01*
G37*
G36*
G01*
X157880000Y-103066001D02*
X157880000Y-102165999D01*
G75*
G02*
X158129999Y-101916000I249999J0D01*
G01*
X158830001Y-101916000D01*
G75*
G02*
X159080000Y-102165999I0J-249999D01*
G01*
X159080000Y-103066001D01*
G75*
G02*
X158830001Y-103316000I-249999J0D01*
G01*
X158129999Y-103316000D01*
G75*
G02*
X157880000Y-103066001I0J249999D01*
G01*
G37*
G36*
G01*
X154832000Y-96970001D02*
X154832000Y-96069999D01*
G75*
G02*
X155081999Y-95820000I249999J0D01*
G01*
X155782001Y-95820000D01*
G75*
G02*
X156032000Y-96069999I0J-249999D01*
G01*
X156032000Y-96970001D01*
G75*
G02*
X155782001Y-97220000I-249999J0D01*
G01*
X155081999Y-97220000D01*
G75*
G02*
X154832000Y-96970001I0J249999D01*
G01*
G37*
G36*
G01*
X152832000Y-96970001D02*
X152832000Y-96069999D01*
G75*
G02*
X153081999Y-95820000I249999J0D01*
G01*
X153782001Y-95820000D01*
G75*
G02*
X154032000Y-96069999I0J-249999D01*
G01*
X154032000Y-96970001D01*
G75*
G02*
X153782001Y-97220000I-249999J0D01*
G01*
X153081999Y-97220000D01*
G75*
G02*
X152832000Y-96970001I0J249999D01*
G01*
G37*
G36*
G01*
X88747000Y-159926000D02*
X88747000Y-160876000D01*
G75*
G02*
X88497000Y-161126000I-250000J0D01*
G01*
X87822000Y-161126000D01*
G75*
G02*
X87572000Y-160876000I0J250000D01*
G01*
X87572000Y-159926000D01*
G75*
G02*
X87822000Y-159676000I250000J0D01*
G01*
X88497000Y-159676000D01*
G75*
G02*
X88747000Y-159926000I0J-250000D01*
G01*
G37*
G36*
G01*
X86672000Y-159926000D02*
X86672000Y-160876000D01*
G75*
G02*
X86422000Y-161126000I-250000J0D01*
G01*
X85747000Y-161126000D01*
G75*
G02*
X85497000Y-160876000I0J250000D01*
G01*
X85497000Y-159926000D01*
G75*
G02*
X85747000Y-159676000I250000J0D01*
G01*
X86422000Y-159676000D01*
G75*
G02*
X86672000Y-159926000I0J-250000D01*
G01*
G37*
D21*
X47117000Y-140843000D03*
D22*
X52197000Y-140843000D03*
D23*
X60706000Y-135890000D03*
D24*
X60706000Y-138430000D03*
X60706000Y-140970000D03*
G36*
G01*
X56965001Y-129870000D02*
X56064999Y-129870000D01*
G75*
G02*
X55815000Y-129620001I0J249999D01*
G01*
X55815000Y-128919999D01*
G75*
G02*
X56064999Y-128670000I249999J0D01*
G01*
X56965001Y-128670000D01*
G75*
G02*
X57215000Y-128919999I0J-249999D01*
G01*
X57215000Y-129620001D01*
G75*
G02*
X56965001Y-129870000I-249999J0D01*
G01*
G37*
G36*
G01*
X56965001Y-127870000D02*
X56064999Y-127870000D01*
G75*
G02*
X55815000Y-127620001I0J249999D01*
G01*
X55815000Y-126919999D01*
G75*
G02*
X56064999Y-126670000I249999J0D01*
G01*
X56965001Y-126670000D01*
G75*
G02*
X57215000Y-126919999I0J-249999D01*
G01*
X57215000Y-127620001D01*
G75*
G02*
X56965001Y-127870000I-249999J0D01*
G01*
G37*
M02*
