G04 #@! TF.GenerationSoftware,KiCad,Pcbnew,(5.1.7)-1*
G04 #@! TF.CreationDate,2021-11-25T13:01:40-05:00*
G04 #@! TF.ProjectId,REV1_FALL_2021,52455631-5f46-4414-9c4c-5f323032312e,rev?*
G04 #@! TF.SameCoordinates,Original*
G04 #@! TF.FileFunction,Paste,Top*
G04 #@! TF.FilePolarity,Positive*
%FSLAX46Y46*%
G04 Gerber Fmt 4.6, Leading zero omitted, Abs format (unit mm)*
G04 Created by KiCad (PCBNEW (5.1.7)-1) date 2021-11-25 13:01:40*
%MOMM*%
%LPD*%
G01*
G04 APERTURE LIST*
%ADD10R,10.000000X5.000000*%
G04 APERTURE END LIST*
D10*
X144945000Y-81280000D03*
X62945000Y-81280000D03*
X144945000Y-59690000D03*
X62945000Y-59690000D03*
G36*
G01*
X46388000Y-101880000D02*
X47338000Y-101880000D01*
G75*
G02*
X47588000Y-102130000I0J-250000D01*
G01*
X47588000Y-102805000D01*
G75*
G02*
X47338000Y-103055000I-250000J0D01*
G01*
X46388000Y-103055000D01*
G75*
G02*
X46138000Y-102805000I0J250000D01*
G01*
X46138000Y-102130000D01*
G75*
G02*
X46388000Y-101880000I250000J0D01*
G01*
G37*
G36*
G01*
X46388000Y-103955000D02*
X47338000Y-103955000D01*
G75*
G02*
X47588000Y-104205000I0J-250000D01*
G01*
X47588000Y-104880000D01*
G75*
G02*
X47338000Y-105130000I-250000J0D01*
G01*
X46388000Y-105130000D01*
G75*
G02*
X46138000Y-104880000I0J250000D01*
G01*
X46138000Y-104205000D01*
G75*
G02*
X46388000Y-103955000I250000J0D01*
G01*
G37*
G36*
G01*
X34729000Y-102014000D02*
X34729000Y-102964000D01*
G75*
G02*
X34479000Y-103214000I-250000J0D01*
G01*
X33804000Y-103214000D01*
G75*
G02*
X33554000Y-102964000I0J250000D01*
G01*
X33554000Y-102014000D01*
G75*
G02*
X33804000Y-101764000I250000J0D01*
G01*
X34479000Y-101764000D01*
G75*
G02*
X34729000Y-102014000I0J-250000D01*
G01*
G37*
G36*
G01*
X36804000Y-102014000D02*
X36804000Y-102964000D01*
G75*
G02*
X36554000Y-103214000I-250000J0D01*
G01*
X35879000Y-103214000D01*
G75*
G02*
X35629000Y-102964000I0J250000D01*
G01*
X35629000Y-102014000D01*
G75*
G02*
X35879000Y-101764000I250000J0D01*
G01*
X36554000Y-101764000D01*
G75*
G02*
X36804000Y-102014000I0J-250000D01*
G01*
G37*
G36*
G01*
X41308000Y-101880000D02*
X42258000Y-101880000D01*
G75*
G02*
X42508000Y-102130000I0J-250000D01*
G01*
X42508000Y-102805000D01*
G75*
G02*
X42258000Y-103055000I-250000J0D01*
G01*
X41308000Y-103055000D01*
G75*
G02*
X41058000Y-102805000I0J250000D01*
G01*
X41058000Y-102130000D01*
G75*
G02*
X41308000Y-101880000I250000J0D01*
G01*
G37*
G36*
G01*
X41308000Y-103955000D02*
X42258000Y-103955000D01*
G75*
G02*
X42508000Y-104205000I0J-250000D01*
G01*
X42508000Y-104880000D01*
G75*
G02*
X42258000Y-105130000I-250000J0D01*
G01*
X41308000Y-105130000D01*
G75*
G02*
X41058000Y-104880000I0J250000D01*
G01*
X41058000Y-104205000D01*
G75*
G02*
X41308000Y-103955000I250000J0D01*
G01*
G37*
G36*
G01*
X48991500Y-85687500D02*
X49941500Y-85687500D01*
G75*
G02*
X50191500Y-85937500I0J-250000D01*
G01*
X50191500Y-86612500D01*
G75*
G02*
X49941500Y-86862500I-250000J0D01*
G01*
X48991500Y-86862500D01*
G75*
G02*
X48741500Y-86612500I0J250000D01*
G01*
X48741500Y-85937500D01*
G75*
G02*
X48991500Y-85687500I250000J0D01*
G01*
G37*
G36*
G01*
X48991500Y-87762500D02*
X49941500Y-87762500D01*
G75*
G02*
X50191500Y-88012500I0J-250000D01*
G01*
X50191500Y-88687500D01*
G75*
G02*
X49941500Y-88937500I-250000J0D01*
G01*
X48991500Y-88937500D01*
G75*
G02*
X48741500Y-88687500I0J250000D01*
G01*
X48741500Y-88012500D01*
G75*
G02*
X48991500Y-87762500I250000J0D01*
G01*
G37*
G36*
G01*
X37561500Y-87762500D02*
X38511500Y-87762500D01*
G75*
G02*
X38761500Y-88012500I0J-250000D01*
G01*
X38761500Y-88687500D01*
G75*
G02*
X38511500Y-88937500I-250000J0D01*
G01*
X37561500Y-88937500D01*
G75*
G02*
X37311500Y-88687500I0J250000D01*
G01*
X37311500Y-88012500D01*
G75*
G02*
X37561500Y-87762500I250000J0D01*
G01*
G37*
G36*
G01*
X37561500Y-85687500D02*
X38511500Y-85687500D01*
G75*
G02*
X38761500Y-85937500I0J-250000D01*
G01*
X38761500Y-86612500D01*
G75*
G02*
X38511500Y-86862500I-250000J0D01*
G01*
X37561500Y-86862500D01*
G75*
G02*
X37311500Y-86612500I0J250000D01*
G01*
X37311500Y-85937500D01*
G75*
G02*
X37561500Y-85687500I250000J0D01*
G01*
G37*
G36*
G01*
X43975000Y-88588000D02*
X44925000Y-88588000D01*
G75*
G02*
X45175000Y-88838000I0J-250000D01*
G01*
X45175000Y-89513000D01*
G75*
G02*
X44925000Y-89763000I-250000J0D01*
G01*
X43975000Y-89763000D01*
G75*
G02*
X43725000Y-89513000I0J250000D01*
G01*
X43725000Y-88838000D01*
G75*
G02*
X43975000Y-88588000I250000J0D01*
G01*
G37*
G36*
G01*
X43975000Y-86513000D02*
X44925000Y-86513000D01*
G75*
G02*
X45175000Y-86763000I0J-250000D01*
G01*
X45175000Y-87438000D01*
G75*
G02*
X44925000Y-87688000I-250000J0D01*
G01*
X43975000Y-87688000D01*
G75*
G02*
X43725000Y-87438000I0J250000D01*
G01*
X43725000Y-86763000D01*
G75*
G02*
X43975000Y-86513000I250000J0D01*
G01*
G37*
G36*
G01*
X47447000Y-74987999D02*
X47447000Y-75888001D01*
G75*
G02*
X47197001Y-76138000I-249999J0D01*
G01*
X46496999Y-76138000D01*
G75*
G02*
X46247000Y-75888001I0J249999D01*
G01*
X46247000Y-74987999D01*
G75*
G02*
X46496999Y-74738000I249999J0D01*
G01*
X47197001Y-74738000D01*
G75*
G02*
X47447000Y-74987999I0J-249999D01*
G01*
G37*
G36*
G01*
X45447000Y-74987999D02*
X45447000Y-75888001D01*
G75*
G02*
X45197001Y-76138000I-249999J0D01*
G01*
X44496999Y-76138000D01*
G75*
G02*
X44247000Y-75888001I0J249999D01*
G01*
X44247000Y-74987999D01*
G75*
G02*
X44496999Y-74738000I249999J0D01*
G01*
X45197001Y-74738000D01*
G75*
G02*
X45447000Y-74987999I0J-249999D01*
G01*
G37*
G36*
G01*
X46374000Y-72332001D02*
X46374000Y-71431999D01*
G75*
G02*
X46623999Y-71182000I249999J0D01*
G01*
X47324001Y-71182000D01*
G75*
G02*
X47574000Y-71431999I0J-249999D01*
G01*
X47574000Y-72332001D01*
G75*
G02*
X47324001Y-72582000I-249999J0D01*
G01*
X46623999Y-72582000D01*
G75*
G02*
X46374000Y-72332001I0J249999D01*
G01*
G37*
G36*
G01*
X44374000Y-72332001D02*
X44374000Y-71431999D01*
G75*
G02*
X44623999Y-71182000I249999J0D01*
G01*
X45324001Y-71182000D01*
G75*
G02*
X45574000Y-71431999I0J-249999D01*
G01*
X45574000Y-72332001D01*
G75*
G02*
X45324001Y-72582000I-249999J0D01*
G01*
X44623999Y-72582000D01*
G75*
G02*
X44374000Y-72332001I0J249999D01*
G01*
G37*
G36*
G01*
X55645000Y-108400001D02*
X55645000Y-107499999D01*
G75*
G02*
X55894999Y-107250000I249999J0D01*
G01*
X56595001Y-107250000D01*
G75*
G02*
X56845000Y-107499999I0J-249999D01*
G01*
X56845000Y-108400001D01*
G75*
G02*
X56595001Y-108650000I-249999J0D01*
G01*
X55894999Y-108650000D01*
G75*
G02*
X55645000Y-108400001I0J249999D01*
G01*
G37*
G36*
G01*
X53645000Y-108400001D02*
X53645000Y-107499999D01*
G75*
G02*
X53894999Y-107250000I249999J0D01*
G01*
X54595001Y-107250000D01*
G75*
G02*
X54845000Y-107499999I0J-249999D01*
G01*
X54845000Y-108400001D01*
G75*
G02*
X54595001Y-108650000I-249999J0D01*
G01*
X53894999Y-108650000D01*
G75*
G02*
X53645000Y-108400001I0J249999D01*
G01*
G37*
G36*
G01*
X35579000Y-96208001D02*
X35579000Y-95307999D01*
G75*
G02*
X35828999Y-95058000I249999J0D01*
G01*
X36529001Y-95058000D01*
G75*
G02*
X36779000Y-95307999I0J-249999D01*
G01*
X36779000Y-96208001D01*
G75*
G02*
X36529001Y-96458000I-249999J0D01*
G01*
X35828999Y-96458000D01*
G75*
G02*
X35579000Y-96208001I0J249999D01*
G01*
G37*
G36*
G01*
X33579000Y-96208001D02*
X33579000Y-95307999D01*
G75*
G02*
X33828999Y-95058000I249999J0D01*
G01*
X34529001Y-95058000D01*
G75*
G02*
X34779000Y-95307999I0J-249999D01*
G01*
X34779000Y-96208001D01*
G75*
G02*
X34529001Y-96458000I-249999J0D01*
G01*
X33828999Y-96458000D01*
G75*
G02*
X33579000Y-96208001I0J249999D01*
G01*
G37*
G36*
G01*
X46678001Y-98755000D02*
X45777999Y-98755000D01*
G75*
G02*
X45528000Y-98505001I0J249999D01*
G01*
X45528000Y-97804999D01*
G75*
G02*
X45777999Y-97555000I249999J0D01*
G01*
X46678001Y-97555000D01*
G75*
G02*
X46928000Y-97804999I0J-249999D01*
G01*
X46928000Y-98505001D01*
G75*
G02*
X46678001Y-98755000I-249999J0D01*
G01*
G37*
G36*
G01*
X46678001Y-96755000D02*
X45777999Y-96755000D01*
G75*
G02*
X45528000Y-96505001I0J249999D01*
G01*
X45528000Y-95804999D01*
G75*
G02*
X45777999Y-95555000I249999J0D01*
G01*
X46678001Y-95555000D01*
G75*
G02*
X46928000Y-95804999I0J-249999D01*
G01*
X46928000Y-96505001D01*
G75*
G02*
X46678001Y-96755000I-249999J0D01*
G01*
G37*
G36*
G01*
X40824999Y-72949000D02*
X41725001Y-72949000D01*
G75*
G02*
X41975000Y-73198999I0J-249999D01*
G01*
X41975000Y-73899001D01*
G75*
G02*
X41725001Y-74149000I-249999J0D01*
G01*
X40824999Y-74149000D01*
G75*
G02*
X40575000Y-73899001I0J249999D01*
G01*
X40575000Y-73198999D01*
G75*
G02*
X40824999Y-72949000I249999J0D01*
G01*
G37*
G36*
G01*
X40824999Y-74949000D02*
X41725001Y-74949000D01*
G75*
G02*
X41975000Y-75198999I0J-249999D01*
G01*
X41975000Y-75899001D01*
G75*
G02*
X41725001Y-76149000I-249999J0D01*
G01*
X40824999Y-76149000D01*
G75*
G02*
X40575000Y-75899001I0J249999D01*
G01*
X40575000Y-75198999D01*
G75*
G02*
X40824999Y-74949000I249999J0D01*
G01*
G37*
G36*
G01*
X50050500Y-81401499D02*
X50050500Y-82301501D01*
G75*
G02*
X49800501Y-82551500I-249999J0D01*
G01*
X49100499Y-82551500D01*
G75*
G02*
X48850500Y-82301501I0J249999D01*
G01*
X48850500Y-81401499D01*
G75*
G02*
X49100499Y-81151500I249999J0D01*
G01*
X49800501Y-81151500D01*
G75*
G02*
X50050500Y-81401499I0J-249999D01*
G01*
G37*
G36*
G01*
X48050500Y-81401499D02*
X48050500Y-82301501D01*
G75*
G02*
X47800501Y-82551500I-249999J0D01*
G01*
X47100499Y-82551500D01*
G75*
G02*
X46850500Y-82301501I0J249999D01*
G01*
X46850500Y-81401499D01*
G75*
G02*
X47100499Y-81151500I249999J0D01*
G01*
X47800501Y-81151500D01*
G75*
G02*
X48050500Y-81401499I0J-249999D01*
G01*
G37*
G36*
G01*
X149410000Y-120453999D02*
X149410000Y-121354001D01*
G75*
G02*
X149160001Y-121604000I-249999J0D01*
G01*
X148509999Y-121604000D01*
G75*
G02*
X148260000Y-121354001I0J249999D01*
G01*
X148260000Y-120453999D01*
G75*
G02*
X148509999Y-120204000I249999J0D01*
G01*
X149160001Y-120204000D01*
G75*
G02*
X149410000Y-120453999I0J-249999D01*
G01*
G37*
G36*
G01*
X151460000Y-120453999D02*
X151460000Y-121354001D01*
G75*
G02*
X151210001Y-121604000I-249999J0D01*
G01*
X150559999Y-121604000D01*
G75*
G02*
X150310000Y-121354001I0J249999D01*
G01*
X150310000Y-120453999D01*
G75*
G02*
X150559999Y-120204000I249999J0D01*
G01*
X151210001Y-120204000D01*
G75*
G02*
X151460000Y-120453999I0J-249999D01*
G01*
G37*
G36*
G01*
X151460000Y-114357999D02*
X151460000Y-115258001D01*
G75*
G02*
X151210001Y-115508000I-249999J0D01*
G01*
X150559999Y-115508000D01*
G75*
G02*
X150310000Y-115258001I0J249999D01*
G01*
X150310000Y-114357999D01*
G75*
G02*
X150559999Y-114108000I249999J0D01*
G01*
X151210001Y-114108000D01*
G75*
G02*
X151460000Y-114357999I0J-249999D01*
G01*
G37*
G36*
G01*
X149410000Y-114357999D02*
X149410000Y-115258001D01*
G75*
G02*
X149160001Y-115508000I-249999J0D01*
G01*
X148509999Y-115508000D01*
G75*
G02*
X148260000Y-115258001I0J249999D01*
G01*
X148260000Y-114357999D01*
G75*
G02*
X148509999Y-114108000I249999J0D01*
G01*
X149160001Y-114108000D01*
G75*
G02*
X149410000Y-114357999I0J-249999D01*
G01*
G37*
G36*
G01*
X151460000Y-108261999D02*
X151460000Y-109162001D01*
G75*
G02*
X151210001Y-109412000I-249999J0D01*
G01*
X150559999Y-109412000D01*
G75*
G02*
X150310000Y-109162001I0J249999D01*
G01*
X150310000Y-108261999D01*
G75*
G02*
X150559999Y-108012000I249999J0D01*
G01*
X151210001Y-108012000D01*
G75*
G02*
X151460000Y-108261999I0J-249999D01*
G01*
G37*
G36*
G01*
X149410000Y-108261999D02*
X149410000Y-109162001D01*
G75*
G02*
X149160001Y-109412000I-249999J0D01*
G01*
X148509999Y-109412000D01*
G75*
G02*
X148260000Y-109162001I0J249999D01*
G01*
X148260000Y-108261999D01*
G75*
G02*
X148509999Y-108012000I249999J0D01*
G01*
X149160001Y-108012000D01*
G75*
G02*
X149410000Y-108261999I0J-249999D01*
G01*
G37*
G36*
G01*
X149410000Y-102165999D02*
X149410000Y-103066001D01*
G75*
G02*
X149160001Y-103316000I-249999J0D01*
G01*
X148509999Y-103316000D01*
G75*
G02*
X148260000Y-103066001I0J249999D01*
G01*
X148260000Y-102165999D01*
G75*
G02*
X148509999Y-101916000I249999J0D01*
G01*
X149160001Y-101916000D01*
G75*
G02*
X149410000Y-102165999I0J-249999D01*
G01*
G37*
G36*
G01*
X151460000Y-102165999D02*
X151460000Y-103066001D01*
G75*
G02*
X151210001Y-103316000I-249999J0D01*
G01*
X150559999Y-103316000D01*
G75*
G02*
X150310000Y-103066001I0J249999D01*
G01*
X150310000Y-102165999D01*
G75*
G02*
X150559999Y-101916000I249999J0D01*
G01*
X151210001Y-101916000D01*
G75*
G02*
X151460000Y-102165999I0J-249999D01*
G01*
G37*
G36*
G01*
X148412000Y-96069999D02*
X148412000Y-96970001D01*
G75*
G02*
X148162001Y-97220000I-249999J0D01*
G01*
X147511999Y-97220000D01*
G75*
G02*
X147262000Y-96970001I0J249999D01*
G01*
X147262000Y-96069999D01*
G75*
G02*
X147511999Y-95820000I249999J0D01*
G01*
X148162001Y-95820000D01*
G75*
G02*
X148412000Y-96069999I0J-249999D01*
G01*
G37*
G36*
G01*
X146362000Y-96069999D02*
X146362000Y-96970001D01*
G75*
G02*
X146112001Y-97220000I-249999J0D01*
G01*
X145461999Y-97220000D01*
G75*
G02*
X145212000Y-96970001I0J249999D01*
G01*
X145212000Y-96069999D01*
G75*
G02*
X145461999Y-95820000I249999J0D01*
G01*
X146112001Y-95820000D01*
G75*
G02*
X146362000Y-96069999I0J-249999D01*
G01*
G37*
G36*
G01*
X155880000Y-121354001D02*
X155880000Y-120453999D01*
G75*
G02*
X156129999Y-120204000I249999J0D01*
G01*
X156830001Y-120204000D01*
G75*
G02*
X157080000Y-120453999I0J-249999D01*
G01*
X157080000Y-121354001D01*
G75*
G02*
X156830001Y-121604000I-249999J0D01*
G01*
X156129999Y-121604000D01*
G75*
G02*
X155880000Y-121354001I0J249999D01*
G01*
G37*
G36*
G01*
X157880000Y-121354001D02*
X157880000Y-120453999D01*
G75*
G02*
X158129999Y-120204000I249999J0D01*
G01*
X158830001Y-120204000D01*
G75*
G02*
X159080000Y-120453999I0J-249999D01*
G01*
X159080000Y-121354001D01*
G75*
G02*
X158830001Y-121604000I-249999J0D01*
G01*
X158129999Y-121604000D01*
G75*
G02*
X157880000Y-121354001I0J249999D01*
G01*
G37*
G36*
G01*
X157880000Y-115258001D02*
X157880000Y-114357999D01*
G75*
G02*
X158129999Y-114108000I249999J0D01*
G01*
X158830001Y-114108000D01*
G75*
G02*
X159080000Y-114357999I0J-249999D01*
G01*
X159080000Y-115258001D01*
G75*
G02*
X158830001Y-115508000I-249999J0D01*
G01*
X158129999Y-115508000D01*
G75*
G02*
X157880000Y-115258001I0J249999D01*
G01*
G37*
G36*
G01*
X155880000Y-115258001D02*
X155880000Y-114357999D01*
G75*
G02*
X156129999Y-114108000I249999J0D01*
G01*
X156830001Y-114108000D01*
G75*
G02*
X157080000Y-114357999I0J-249999D01*
G01*
X157080000Y-115258001D01*
G75*
G02*
X156830001Y-115508000I-249999J0D01*
G01*
X156129999Y-115508000D01*
G75*
G02*
X155880000Y-115258001I0J249999D01*
G01*
G37*
G36*
G01*
X155880000Y-109162001D02*
X155880000Y-108261999D01*
G75*
G02*
X156129999Y-108012000I249999J0D01*
G01*
X156830001Y-108012000D01*
G75*
G02*
X157080000Y-108261999I0J-249999D01*
G01*
X157080000Y-109162001D01*
G75*
G02*
X156830001Y-109412000I-249999J0D01*
G01*
X156129999Y-109412000D01*
G75*
G02*
X155880000Y-109162001I0J249999D01*
G01*
G37*
G36*
G01*
X157880000Y-109162001D02*
X157880000Y-108261999D01*
G75*
G02*
X158129999Y-108012000I249999J0D01*
G01*
X158830001Y-108012000D01*
G75*
G02*
X159080000Y-108261999I0J-249999D01*
G01*
X159080000Y-109162001D01*
G75*
G02*
X158830001Y-109412000I-249999J0D01*
G01*
X158129999Y-109412000D01*
G75*
G02*
X157880000Y-109162001I0J249999D01*
G01*
G37*
G36*
G01*
X155880000Y-103066001D02*
X155880000Y-102165999D01*
G75*
G02*
X156129999Y-101916000I249999J0D01*
G01*
X156830001Y-101916000D01*
G75*
G02*
X157080000Y-102165999I0J-249999D01*
G01*
X157080000Y-103066001D01*
G75*
G02*
X156830001Y-103316000I-249999J0D01*
G01*
X156129999Y-103316000D01*
G75*
G02*
X155880000Y-103066001I0J249999D01*
G01*
G37*
G36*
G01*
X157880000Y-103066001D02*
X157880000Y-102165999D01*
G75*
G02*
X158129999Y-101916000I249999J0D01*
G01*
X158830001Y-101916000D01*
G75*
G02*
X159080000Y-102165999I0J-249999D01*
G01*
X159080000Y-103066001D01*
G75*
G02*
X158830001Y-103316000I-249999J0D01*
G01*
X158129999Y-103316000D01*
G75*
G02*
X157880000Y-103066001I0J249999D01*
G01*
G37*
G36*
G01*
X154832000Y-96970001D02*
X154832000Y-96069999D01*
G75*
G02*
X155081999Y-95820000I249999J0D01*
G01*
X155782001Y-95820000D01*
G75*
G02*
X156032000Y-96069999I0J-249999D01*
G01*
X156032000Y-96970001D01*
G75*
G02*
X155782001Y-97220000I-249999J0D01*
G01*
X155081999Y-97220000D01*
G75*
G02*
X154832000Y-96970001I0J249999D01*
G01*
G37*
G36*
G01*
X152832000Y-96970001D02*
X152832000Y-96069999D01*
G75*
G02*
X153081999Y-95820000I249999J0D01*
G01*
X153782001Y-95820000D01*
G75*
G02*
X154032000Y-96069999I0J-249999D01*
G01*
X154032000Y-96970001D01*
G75*
G02*
X153782001Y-97220000I-249999J0D01*
G01*
X153081999Y-97220000D01*
G75*
G02*
X152832000Y-96970001I0J249999D01*
G01*
G37*
G36*
G01*
X88747000Y-159926000D02*
X88747000Y-160876000D01*
G75*
G02*
X88497000Y-161126000I-250000J0D01*
G01*
X87822000Y-161126000D01*
G75*
G02*
X87572000Y-160876000I0J250000D01*
G01*
X87572000Y-159926000D01*
G75*
G02*
X87822000Y-159676000I250000J0D01*
G01*
X88497000Y-159676000D01*
G75*
G02*
X88747000Y-159926000I0J-250000D01*
G01*
G37*
G36*
G01*
X86672000Y-159926000D02*
X86672000Y-160876000D01*
G75*
G02*
X86422000Y-161126000I-250000J0D01*
G01*
X85747000Y-161126000D01*
G75*
G02*
X85497000Y-160876000I0J250000D01*
G01*
X85497000Y-159926000D01*
G75*
G02*
X85747000Y-159676000I250000J0D01*
G01*
X86422000Y-159676000D01*
G75*
G02*
X86672000Y-159926000I0J-250000D01*
G01*
G37*
G36*
G01*
X56965001Y-129870000D02*
X56064999Y-129870000D01*
G75*
G02*
X55815000Y-129620001I0J249999D01*
G01*
X55815000Y-128919999D01*
G75*
G02*
X56064999Y-128670000I249999J0D01*
G01*
X56965001Y-128670000D01*
G75*
G02*
X57215000Y-128919999I0J-249999D01*
G01*
X57215000Y-129620001D01*
G75*
G02*
X56965001Y-129870000I-249999J0D01*
G01*
G37*
G36*
G01*
X56965001Y-127870000D02*
X56064999Y-127870000D01*
G75*
G02*
X55815000Y-127620001I0J249999D01*
G01*
X55815000Y-126919999D01*
G75*
G02*
X56064999Y-126670000I249999J0D01*
G01*
X56965001Y-126670000D01*
G75*
G02*
X57215000Y-126919999I0J-249999D01*
G01*
X57215000Y-127620001D01*
G75*
G02*
X56965001Y-127870000I-249999J0D01*
G01*
G37*
G36*
G01*
X42023000Y-93555000D02*
X42223000Y-93555000D01*
G75*
G02*
X42323000Y-93655000I0J-100000D01*
G01*
X42323000Y-94930000D01*
G75*
G02*
X42223000Y-95030000I-100000J0D01*
G01*
X42023000Y-95030000D01*
G75*
G02*
X41923000Y-94930000I0J100000D01*
G01*
X41923000Y-93655000D01*
G75*
G02*
X42023000Y-93555000I100000J0D01*
G01*
G37*
G36*
G01*
X41373000Y-93555000D02*
X41573000Y-93555000D01*
G75*
G02*
X41673000Y-93655000I0J-100000D01*
G01*
X41673000Y-94930000D01*
G75*
G02*
X41573000Y-95030000I-100000J0D01*
G01*
X41373000Y-95030000D01*
G75*
G02*
X41273000Y-94930000I0J100000D01*
G01*
X41273000Y-93655000D01*
G75*
G02*
X41373000Y-93555000I100000J0D01*
G01*
G37*
G36*
G01*
X40723000Y-93555000D02*
X40923000Y-93555000D01*
G75*
G02*
X41023000Y-93655000I0J-100000D01*
G01*
X41023000Y-94930000D01*
G75*
G02*
X40923000Y-95030000I-100000J0D01*
G01*
X40723000Y-95030000D01*
G75*
G02*
X40623000Y-94930000I0J100000D01*
G01*
X40623000Y-93655000D01*
G75*
G02*
X40723000Y-93555000I100000J0D01*
G01*
G37*
G36*
G01*
X40073000Y-93555000D02*
X40273000Y-93555000D01*
G75*
G02*
X40373000Y-93655000I0J-100000D01*
G01*
X40373000Y-94930000D01*
G75*
G02*
X40273000Y-95030000I-100000J0D01*
G01*
X40073000Y-95030000D01*
G75*
G02*
X39973000Y-94930000I0J100000D01*
G01*
X39973000Y-93655000D01*
G75*
G02*
X40073000Y-93555000I100000J0D01*
G01*
G37*
G36*
G01*
X40073000Y-99280000D02*
X40273000Y-99280000D01*
G75*
G02*
X40373000Y-99380000I0J-100000D01*
G01*
X40373000Y-100655000D01*
G75*
G02*
X40273000Y-100755000I-100000J0D01*
G01*
X40073000Y-100755000D01*
G75*
G02*
X39973000Y-100655000I0J100000D01*
G01*
X39973000Y-99380000D01*
G75*
G02*
X40073000Y-99280000I100000J0D01*
G01*
G37*
G36*
G01*
X40723000Y-99280000D02*
X40923000Y-99280000D01*
G75*
G02*
X41023000Y-99380000I0J-100000D01*
G01*
X41023000Y-100655000D01*
G75*
G02*
X40923000Y-100755000I-100000J0D01*
G01*
X40723000Y-100755000D01*
G75*
G02*
X40623000Y-100655000I0J100000D01*
G01*
X40623000Y-99380000D01*
G75*
G02*
X40723000Y-99280000I100000J0D01*
G01*
G37*
G36*
G01*
X41373000Y-99280000D02*
X41573000Y-99280000D01*
G75*
G02*
X41673000Y-99380000I0J-100000D01*
G01*
X41673000Y-100655000D01*
G75*
G02*
X41573000Y-100755000I-100000J0D01*
G01*
X41373000Y-100755000D01*
G75*
G02*
X41273000Y-100655000I0J100000D01*
G01*
X41273000Y-99380000D01*
G75*
G02*
X41373000Y-99280000I100000J0D01*
G01*
G37*
G36*
G01*
X42023000Y-99280000D02*
X42223000Y-99280000D01*
G75*
G02*
X42323000Y-99380000I0J-100000D01*
G01*
X42323000Y-100655000D01*
G75*
G02*
X42223000Y-100755000I-100000J0D01*
G01*
X42023000Y-100755000D01*
G75*
G02*
X41923000Y-100655000I0J100000D01*
G01*
X41923000Y-99380000D01*
G75*
G02*
X42023000Y-99280000I100000J0D01*
G01*
G37*
G36*
G01*
X44626500Y-83722500D02*
X44826500Y-83722500D01*
G75*
G02*
X44926500Y-83822500I0J-100000D01*
G01*
X44926500Y-85097500D01*
G75*
G02*
X44826500Y-85197500I-100000J0D01*
G01*
X44626500Y-85197500D01*
G75*
G02*
X44526500Y-85097500I0J100000D01*
G01*
X44526500Y-83822500D01*
G75*
G02*
X44626500Y-83722500I100000J0D01*
G01*
G37*
G36*
G01*
X43976500Y-83722500D02*
X44176500Y-83722500D01*
G75*
G02*
X44276500Y-83822500I0J-100000D01*
G01*
X44276500Y-85097500D01*
G75*
G02*
X44176500Y-85197500I-100000J0D01*
G01*
X43976500Y-85197500D01*
G75*
G02*
X43876500Y-85097500I0J100000D01*
G01*
X43876500Y-83822500D01*
G75*
G02*
X43976500Y-83722500I100000J0D01*
G01*
G37*
G36*
G01*
X43326500Y-83722500D02*
X43526500Y-83722500D01*
G75*
G02*
X43626500Y-83822500I0J-100000D01*
G01*
X43626500Y-85097500D01*
G75*
G02*
X43526500Y-85197500I-100000J0D01*
G01*
X43326500Y-85197500D01*
G75*
G02*
X43226500Y-85097500I0J100000D01*
G01*
X43226500Y-83822500D01*
G75*
G02*
X43326500Y-83722500I100000J0D01*
G01*
G37*
G36*
G01*
X42676500Y-83722500D02*
X42876500Y-83722500D01*
G75*
G02*
X42976500Y-83822500I0J-100000D01*
G01*
X42976500Y-85097500D01*
G75*
G02*
X42876500Y-85197500I-100000J0D01*
G01*
X42676500Y-85197500D01*
G75*
G02*
X42576500Y-85097500I0J100000D01*
G01*
X42576500Y-83822500D01*
G75*
G02*
X42676500Y-83722500I100000J0D01*
G01*
G37*
G36*
G01*
X42676500Y-77997500D02*
X42876500Y-77997500D01*
G75*
G02*
X42976500Y-78097500I0J-100000D01*
G01*
X42976500Y-79372500D01*
G75*
G02*
X42876500Y-79472500I-100000J0D01*
G01*
X42676500Y-79472500D01*
G75*
G02*
X42576500Y-79372500I0J100000D01*
G01*
X42576500Y-78097500D01*
G75*
G02*
X42676500Y-77997500I100000J0D01*
G01*
G37*
G36*
G01*
X43326500Y-77997500D02*
X43526500Y-77997500D01*
G75*
G02*
X43626500Y-78097500I0J-100000D01*
G01*
X43626500Y-79372500D01*
G75*
G02*
X43526500Y-79472500I-100000J0D01*
G01*
X43326500Y-79472500D01*
G75*
G02*
X43226500Y-79372500I0J100000D01*
G01*
X43226500Y-78097500D01*
G75*
G02*
X43326500Y-77997500I100000J0D01*
G01*
G37*
G36*
G01*
X43976500Y-77997500D02*
X44176500Y-77997500D01*
G75*
G02*
X44276500Y-78097500I0J-100000D01*
G01*
X44276500Y-79372500D01*
G75*
G02*
X44176500Y-79472500I-100000J0D01*
G01*
X43976500Y-79472500D01*
G75*
G02*
X43876500Y-79372500I0J100000D01*
G01*
X43876500Y-78097500D01*
G75*
G02*
X43976500Y-77997500I100000J0D01*
G01*
G37*
G36*
G01*
X44626500Y-77997500D02*
X44826500Y-77997500D01*
G75*
G02*
X44926500Y-78097500I0J-100000D01*
G01*
X44926500Y-79372500D01*
G75*
G02*
X44826500Y-79472500I-100000J0D01*
G01*
X44626500Y-79472500D01*
G75*
G02*
X44526500Y-79372500I0J100000D01*
G01*
X44526500Y-78097500D01*
G75*
G02*
X44626500Y-77997500I100000J0D01*
G01*
G37*
G36*
G01*
X34779000Y-91497999D02*
X34779000Y-92398001D01*
G75*
G02*
X34529001Y-92648000I-249999J0D01*
G01*
X33828999Y-92648000D01*
G75*
G02*
X33579000Y-92398001I0J249999D01*
G01*
X33579000Y-91497999D01*
G75*
G02*
X33828999Y-91248000I249999J0D01*
G01*
X34529001Y-91248000D01*
G75*
G02*
X34779000Y-91497999I0J-249999D01*
G01*
G37*
G36*
G01*
X36779000Y-91497999D02*
X36779000Y-92398001D01*
G75*
G02*
X36529001Y-92648000I-249999J0D01*
G01*
X35828999Y-92648000D01*
G75*
G02*
X35579000Y-92398001I0J249999D01*
G01*
X35579000Y-91497999D01*
G75*
G02*
X35828999Y-91248000I249999J0D01*
G01*
X36529001Y-91248000D01*
G75*
G02*
X36779000Y-91497999I0J-249999D01*
G01*
G37*
G36*
G01*
X47574000Y-67621999D02*
X47574000Y-68522001D01*
G75*
G02*
X47324001Y-68772000I-249999J0D01*
G01*
X46623999Y-68772000D01*
G75*
G02*
X46374000Y-68522001I0J249999D01*
G01*
X46374000Y-67621999D01*
G75*
G02*
X46623999Y-67372000I249999J0D01*
G01*
X47324001Y-67372000D01*
G75*
G02*
X47574000Y-67621999I0J-249999D01*
G01*
G37*
G36*
G01*
X45574000Y-67621999D02*
X45574000Y-68522001D01*
G75*
G02*
X45324001Y-68772000I-249999J0D01*
G01*
X44623999Y-68772000D01*
G75*
G02*
X44374000Y-68522001I0J249999D01*
G01*
X44374000Y-67621999D01*
G75*
G02*
X44623999Y-67372000I249999J0D01*
G01*
X45324001Y-67372000D01*
G75*
G02*
X45574000Y-67621999I0J-249999D01*
G01*
G37*
M02*
