%FSLAX45Y45*%
G04 Gerber Fmt 4.5, Leading zero omitted, Abs format (unit mm)*
G04 Created by KiCad (PCBNEW (5.1.7)-1) date 2021-11-25 13:01:49*
%MOMM*%
%LPD*%
G01*
G04 APERTURE LIST*
%TA.AperFunction,Profile*%
%ADD10C,0.200000*%
%TD*%
%ADD11C,0.200000*%
%ADD12C,0.300000*%
G04 APERTURE END LIST*
D10*
X5917730Y-16319500D02*
X14148270Y-16319500D01*
X5917972Y-16319665D02*
G75*
G02*
X14148270Y-16319500I4115028J6032665D01*
G01*
X15299835Y-13144500D02*
G75*
G03*
X15299835Y-13144500I-317500J0D01*
G01*
X5401165Y-13144500D02*
G75*
G03*
X5401165Y-13144500I-317500J0D01*
G01*
X10350500Y-4572000D02*
G75*
G03*
X10350500Y-4572000I-317500J0D01*
G01*
D11*
D12*
X3006928Y-16795380D02*
X3006928Y-16495380D01*
X3078357Y-16495380D01*
X3121214Y-16509666D01*
X3149786Y-16538237D01*
X3164071Y-16566808D01*
X3178357Y-16623951D01*
X3178357Y-16666808D01*
X3164071Y-16723951D01*
X3149786Y-16752523D01*
X3121214Y-16781094D01*
X3078357Y-16795380D01*
X3006928Y-16795380D01*
X3306928Y-16795380D02*
X3306928Y-16595380D01*
X3306928Y-16652523D02*
X3321214Y-16623951D01*
X3335500Y-16609666D01*
X3364071Y-16595380D01*
X3392643Y-16595380D01*
X3492643Y-16795380D02*
X3492643Y-16595380D01*
X3492643Y-16495380D02*
X3478357Y-16509666D01*
X3492643Y-16523951D01*
X3506928Y-16509666D01*
X3492643Y-16495380D01*
X3492643Y-16523951D01*
X3678357Y-16795380D02*
X3649786Y-16781094D01*
X3635500Y-16752523D01*
X3635500Y-16495380D01*
X3835500Y-16795380D02*
X3806928Y-16781094D01*
X3792643Y-16752523D01*
X3792643Y-16495380D01*
X4178357Y-16795380D02*
X4178357Y-16495380D01*
X4278357Y-16709666D01*
X4378357Y-16495380D01*
X4378357Y-16795380D01*
X4649786Y-16795380D02*
X4649786Y-16638237D01*
X4635500Y-16609666D01*
X4606929Y-16595380D01*
X4549786Y-16595380D01*
X4521214Y-16609666D01*
X4649786Y-16781094D02*
X4621214Y-16795380D01*
X4549786Y-16795380D01*
X4521214Y-16781094D01*
X4506929Y-16752523D01*
X4506929Y-16723951D01*
X4521214Y-16695380D01*
X4549786Y-16681094D01*
X4621214Y-16681094D01*
X4649786Y-16666808D01*
X4792643Y-16595380D02*
X4792643Y-16895380D01*
X4792643Y-16609666D02*
X4821214Y-16595380D01*
X4878357Y-16595380D01*
X4906929Y-16609666D01*
X4921214Y-16623951D01*
X4935500Y-16652523D01*
X4935500Y-16738237D01*
X4921214Y-16766808D01*
X4906929Y-16781094D01*
X4878357Y-16795380D01*
X4821214Y-16795380D01*
X4792643Y-16781094D01*
X5064071Y-16766808D02*
X5078357Y-16781094D01*
X5064071Y-16795380D01*
X5049786Y-16781094D01*
X5064071Y-16766808D01*
X5064071Y-16795380D01*
X5064071Y-16609666D02*
X5078357Y-16623951D01*
X5064071Y-16638237D01*
X5049786Y-16623951D01*
X5064071Y-16609666D01*
X5064071Y-16638237D01*
M02*
