G04 #@! TF.GenerationSoftware,KiCad,Pcbnew,(5.1.7)-1*
G04 #@! TF.CreationDate,2021-11-24T22:39:04-05:00*
G04 #@! TF.ProjectId,REV1_FALL_2021,52455631-5f46-4414-9c4c-5f323032312e,rev?*
G04 #@! TF.SameCoordinates,Original*
G04 #@! TF.FileFunction,Legend,Bot*
G04 #@! TF.FilePolarity,Positive*
%FSLAX46Y46*%
G04 Gerber Fmt 4.6, Leading zero omitted, Abs format (unit mm)*
G04 Created by KiCad (PCBNEW (5.1.7)-1) date 2021-11-24 22:39:04*
%MOMM*%
%LPD*%
G01*
G04 APERTURE LIST*
%ADD10C,0.300000*%
%ADD11C,0.010000*%
%ADD12C,1.600000*%
%ADD13R,1.600000X1.600000*%
%ADD14R,3.000000X3.000000*%
%ADD15C,3.000000*%
%ADD16R,2.000000X2.000000*%
%ADD17C,2.000000*%
G04 APERTURE END LIST*
D10*
X139687904Y-134742047D02*
X139687904Y-132202047D01*
X137389809Y-134742047D02*
X137389809Y-133411571D01*
X137510761Y-133169666D01*
X137752666Y-133048714D01*
X138236476Y-133048714D01*
X138478380Y-133169666D01*
X137389809Y-134621095D02*
X137631714Y-134742047D01*
X138236476Y-134742047D01*
X138478380Y-134621095D01*
X138599333Y-134379190D01*
X138599333Y-134137285D01*
X138478380Y-133895380D01*
X138236476Y-133774428D01*
X137631714Y-133774428D01*
X137389809Y-133653476D01*
X136180285Y-133048714D02*
X136180285Y-134742047D01*
X136180285Y-133290619D02*
X136059333Y-133169666D01*
X135817428Y-133048714D01*
X135454571Y-133048714D01*
X135212666Y-133169666D01*
X135091714Y-133411571D01*
X135091714Y-134742047D01*
X131946952Y-133411571D02*
X131100285Y-133411571D01*
X130737428Y-134742047D02*
X131946952Y-134742047D01*
X131946952Y-132202047D01*
X130737428Y-132202047D01*
X129890761Y-133048714D02*
X129286000Y-134742047D01*
X128681238Y-133048714D02*
X129286000Y-134742047D01*
X129527904Y-135346809D01*
X129648857Y-135467761D01*
X129890761Y-135588714D01*
X127713619Y-134742047D02*
X127713619Y-132202047D01*
X127471714Y-133774428D02*
X126746000Y-134742047D01*
X126746000Y-133048714D02*
X127713619Y-134016333D01*
X124568857Y-134742047D02*
X124568857Y-133411571D01*
X124689809Y-133169666D01*
X124931714Y-133048714D01*
X125415523Y-133048714D01*
X125657428Y-133169666D01*
X124568857Y-134621095D02*
X124810761Y-134742047D01*
X125415523Y-134742047D01*
X125657428Y-134621095D01*
X125778380Y-134379190D01*
X125778380Y-134137285D01*
X125657428Y-133895380D01*
X125415523Y-133774428D01*
X124810761Y-133774428D01*
X124568857Y-133653476D01*
X123359333Y-134742047D02*
X123359333Y-133048714D01*
X123359333Y-133290619D02*
X123238380Y-133169666D01*
X122996476Y-133048714D01*
X122633619Y-133048714D01*
X122391714Y-133169666D01*
X122270761Y-133411571D01*
X122270761Y-134742047D01*
X122270761Y-133411571D02*
X122149809Y-133169666D01*
X121907904Y-133048714D01*
X121545047Y-133048714D01*
X121303142Y-133169666D01*
X121182190Y-133411571D01*
X121182190Y-134742047D01*
X119972666Y-133048714D02*
X119972666Y-135588714D01*
X119972666Y-133169666D02*
X119730761Y-133048714D01*
X119246952Y-133048714D01*
X119005047Y-133169666D01*
X118884095Y-133290619D01*
X118763142Y-133532523D01*
X118763142Y-134258238D01*
X118884095Y-134500142D01*
X119005047Y-134621095D01*
X119246952Y-134742047D01*
X119730761Y-134742047D01*
X119972666Y-134621095D01*
X140716000Y-138852047D02*
X140716000Y-136312047D01*
X139869333Y-138126333D01*
X139022666Y-136312047D01*
X139022666Y-138852047D01*
X136724571Y-138852047D02*
X136724571Y-137521571D01*
X136845523Y-137279666D01*
X137087428Y-137158714D01*
X137571238Y-137158714D01*
X137813142Y-137279666D01*
X136724571Y-138731095D02*
X136966476Y-138852047D01*
X137571238Y-138852047D01*
X137813142Y-138731095D01*
X137934095Y-138489190D01*
X137934095Y-138247285D01*
X137813142Y-138005380D01*
X137571238Y-137884428D01*
X136966476Y-137884428D01*
X136724571Y-137763476D01*
X135515047Y-138852047D02*
X135515047Y-137158714D01*
X135515047Y-137642523D02*
X135394095Y-137400619D01*
X135273142Y-137279666D01*
X135031238Y-137158714D01*
X134789333Y-137158714D01*
X132854095Y-138731095D02*
X133096000Y-138852047D01*
X133579809Y-138852047D01*
X133821714Y-138731095D01*
X133942666Y-138610142D01*
X134063619Y-138368238D01*
X134063619Y-137642523D01*
X133942666Y-137400619D01*
X133821714Y-137279666D01*
X133579809Y-137158714D01*
X133096000Y-137158714D01*
X132854095Y-137279666D01*
X129830285Y-137521571D02*
X128983619Y-137521571D01*
X128620761Y-138852047D02*
X129830285Y-138852047D01*
X129830285Y-136312047D01*
X128620761Y-136312047D01*
X127895047Y-137158714D02*
X126927428Y-137158714D01*
X127532190Y-138852047D02*
X127532190Y-136674904D01*
X127411238Y-136433000D01*
X127169333Y-136312047D01*
X126927428Y-136312047D01*
X126443619Y-137158714D02*
X125476000Y-137158714D01*
X126080761Y-136312047D02*
X126080761Y-138489190D01*
X125959809Y-138731095D01*
X125717904Y-138852047D01*
X125476000Y-138852047D01*
X124629333Y-138852047D02*
X124629333Y-137158714D01*
X124629333Y-136312047D02*
X124750285Y-136433000D01*
X124629333Y-136553952D01*
X124508380Y-136433000D01*
X124629333Y-136312047D01*
X124629333Y-136553952D01*
X123419809Y-138852047D02*
X123419809Y-137158714D01*
X123419809Y-137400619D02*
X123298857Y-137279666D01*
X123056952Y-137158714D01*
X122694095Y-137158714D01*
X122452190Y-137279666D01*
X122331238Y-137521571D01*
X122331238Y-138852047D01*
X122331238Y-137521571D02*
X122210285Y-137279666D01*
X121968380Y-137158714D01*
X121605523Y-137158714D01*
X121363619Y-137279666D01*
X121242666Y-137521571D01*
X121242666Y-138852047D01*
X120033142Y-138852047D02*
X120033142Y-137158714D01*
X120033142Y-136312047D02*
X120154095Y-136433000D01*
X120033142Y-136553952D01*
X119912190Y-136433000D01*
X120033142Y-136312047D01*
X120033142Y-136553952D01*
X117856000Y-138731095D02*
X118097904Y-138852047D01*
X118581714Y-138852047D01*
X118823619Y-138731095D01*
X118944571Y-138489190D01*
X118944571Y-137521571D01*
X118823619Y-137279666D01*
X118581714Y-137158714D01*
X118097904Y-137158714D01*
X117856000Y-137279666D01*
X117735047Y-137521571D01*
X117735047Y-137763476D01*
X118944571Y-138005380D01*
X139566952Y-142720142D02*
X139687904Y-142841095D01*
X140050761Y-142962047D01*
X140292666Y-142962047D01*
X140655523Y-142841095D01*
X140897428Y-142599190D01*
X141018380Y-142357285D01*
X141139333Y-141873476D01*
X141139333Y-141510619D01*
X141018380Y-141026809D01*
X140897428Y-140784904D01*
X140655523Y-140543000D01*
X140292666Y-140422047D01*
X140050761Y-140422047D01*
X139687904Y-140543000D01*
X139566952Y-140663952D01*
X138478380Y-142962047D02*
X138478380Y-140422047D01*
X137389809Y-142962047D02*
X137389809Y-141631571D01*
X137510761Y-141389666D01*
X137752666Y-141268714D01*
X138115523Y-141268714D01*
X138357428Y-141389666D01*
X138478380Y-141510619D01*
X135091714Y-142962047D02*
X135091714Y-141631571D01*
X135212666Y-141389666D01*
X135454571Y-141268714D01*
X135938380Y-141268714D01*
X136180285Y-141389666D01*
X135091714Y-142841095D02*
X135333619Y-142962047D01*
X135938380Y-142962047D01*
X136180285Y-142841095D01*
X136301238Y-142599190D01*
X136301238Y-142357285D01*
X136180285Y-142115380D01*
X135938380Y-141994428D01*
X135333619Y-141994428D01*
X135091714Y-141873476D01*
X133882190Y-142962047D02*
X133882190Y-141268714D01*
X133882190Y-141752523D02*
X133761238Y-141510619D01*
X133640285Y-141389666D01*
X133398380Y-141268714D01*
X133156476Y-141268714D01*
X131946952Y-142962047D02*
X132188857Y-142841095D01*
X132309809Y-142599190D01*
X132309809Y-140422047D01*
X130979333Y-142962047D02*
X130979333Y-141268714D01*
X130979333Y-140422047D02*
X131100285Y-140543000D01*
X130979333Y-140663952D01*
X130858380Y-140543000D01*
X130979333Y-140422047D01*
X130979333Y-140663952D01*
X128802190Y-142841095D02*
X129044095Y-142962047D01*
X129527904Y-142962047D01*
X129769809Y-142841095D01*
X129890761Y-142599190D01*
X129890761Y-141631571D01*
X129769809Y-141389666D01*
X129527904Y-141268714D01*
X129044095Y-141268714D01*
X128802190Y-141389666D01*
X128681238Y-141631571D01*
X128681238Y-141873476D01*
X129890761Y-142115380D01*
X124810761Y-141631571D02*
X124447904Y-141752523D01*
X124326952Y-141873476D01*
X124206000Y-142115380D01*
X124206000Y-142478238D01*
X124326952Y-142720142D01*
X124447904Y-142841095D01*
X124689809Y-142962047D01*
X125657428Y-142962047D01*
X125657428Y-140422047D01*
X124810761Y-140422047D01*
X124568857Y-140543000D01*
X124447904Y-140663952D01*
X124326952Y-140905857D01*
X124326952Y-141147761D01*
X124447904Y-141389666D01*
X124568857Y-141510619D01*
X124810761Y-141631571D01*
X125657428Y-141631571D01*
X122028857Y-142962047D02*
X122028857Y-141631571D01*
X122149809Y-141389666D01*
X122391714Y-141268714D01*
X122875523Y-141268714D01*
X123117428Y-141389666D01*
X122028857Y-142841095D02*
X122270761Y-142962047D01*
X122875523Y-142962047D01*
X123117428Y-142841095D01*
X123238380Y-142599190D01*
X123238380Y-142357285D01*
X123117428Y-142115380D01*
X122875523Y-141994428D01*
X122270761Y-141994428D01*
X122028857Y-141873476D01*
X120819333Y-142962047D02*
X120819333Y-140422047D01*
X120819333Y-141389666D02*
X120577428Y-141268714D01*
X120093619Y-141268714D01*
X119851714Y-141389666D01*
X119730761Y-141510619D01*
X119609809Y-141752523D01*
X119609809Y-142478238D01*
X119730761Y-142720142D01*
X119851714Y-142841095D01*
X120093619Y-142962047D01*
X120577428Y-142962047D01*
X120819333Y-142841095D01*
X117553619Y-142841095D02*
X117795523Y-142962047D01*
X118279333Y-142962047D01*
X118521238Y-142841095D01*
X118642190Y-142599190D01*
X118642190Y-141631571D01*
X118521238Y-141389666D01*
X118279333Y-141268714D01*
X117795523Y-141268714D01*
X117553619Y-141389666D01*
X117432666Y-141631571D01*
X117432666Y-141873476D01*
X118642190Y-142115380D01*
X142530285Y-151182047D02*
X142530285Y-148642047D01*
X141078857Y-151182047D01*
X141078857Y-148642047D01*
X139506476Y-151182047D02*
X139748380Y-151061095D01*
X139869333Y-150940142D01*
X139990285Y-150698238D01*
X139990285Y-149972523D01*
X139869333Y-149730619D01*
X139748380Y-149609666D01*
X139506476Y-149488714D01*
X139143619Y-149488714D01*
X138901714Y-149609666D01*
X138780761Y-149730619D01*
X138659809Y-149972523D01*
X138659809Y-150698238D01*
X138780761Y-150940142D01*
X138901714Y-151061095D01*
X139143619Y-151182047D01*
X139506476Y-151182047D01*
X137813142Y-149488714D02*
X137208380Y-151182047D01*
X136603619Y-149488714D01*
X135636000Y-150940142D02*
X135515047Y-151061095D01*
X135636000Y-151182047D01*
X135756952Y-151061095D01*
X135636000Y-150940142D01*
X135636000Y-151182047D01*
X132612190Y-148883952D02*
X132491238Y-148763000D01*
X132249333Y-148642047D01*
X131644571Y-148642047D01*
X131402666Y-148763000D01*
X131281714Y-148883952D01*
X131160761Y-149125857D01*
X131160761Y-149367761D01*
X131281714Y-149730619D01*
X132733142Y-151182047D01*
X131160761Y-151182047D01*
X128983619Y-149488714D02*
X128983619Y-151182047D01*
X129588380Y-148521095D02*
X130193142Y-150335380D01*
X128620761Y-150335380D01*
X127532190Y-151061095D02*
X127532190Y-151182047D01*
X127653142Y-151423952D01*
X127774095Y-151544904D01*
X124629333Y-148883952D02*
X124508380Y-148763000D01*
X124266476Y-148642047D01*
X123661714Y-148642047D01*
X123419809Y-148763000D01*
X123298857Y-148883952D01*
X123177904Y-149125857D01*
X123177904Y-149367761D01*
X123298857Y-149730619D01*
X124750285Y-151182047D01*
X123177904Y-151182047D01*
X121605523Y-148642047D02*
X121363619Y-148642047D01*
X121121714Y-148763000D01*
X121000761Y-148883952D01*
X120879809Y-149125857D01*
X120758857Y-149609666D01*
X120758857Y-150214428D01*
X120879809Y-150698238D01*
X121000761Y-150940142D01*
X121121714Y-151061095D01*
X121363619Y-151182047D01*
X121605523Y-151182047D01*
X121847428Y-151061095D01*
X121968380Y-150940142D01*
X122089333Y-150698238D01*
X122210285Y-150214428D01*
X122210285Y-149609666D01*
X122089333Y-149125857D01*
X121968380Y-148883952D01*
X121847428Y-148763000D01*
X121605523Y-148642047D01*
X119791238Y-148883952D02*
X119670285Y-148763000D01*
X119428380Y-148642047D01*
X118823619Y-148642047D01*
X118581714Y-148763000D01*
X118460761Y-148883952D01*
X118339809Y-149125857D01*
X118339809Y-149367761D01*
X118460761Y-149730619D01*
X119912190Y-151182047D01*
X118339809Y-151182047D01*
X115920761Y-151182047D02*
X117372190Y-151182047D01*
X116646476Y-151182047D02*
X116646476Y-148642047D01*
X116888380Y-149004904D01*
X117130285Y-149246809D01*
X117372190Y-149367761D01*
X138780761Y-155292047D02*
X138780761Y-152752047D01*
X137813142Y-152752047D01*
X137571238Y-152873000D01*
X137450285Y-152993952D01*
X137329333Y-153235857D01*
X137329333Y-153598714D01*
X137450285Y-153840619D01*
X137571238Y-153961571D01*
X137813142Y-154082523D01*
X138780761Y-154082523D01*
X136240761Y-155292047D02*
X136240761Y-152752047D01*
X135152190Y-155292047D02*
X135152190Y-153961571D01*
X135273142Y-153719666D01*
X135515047Y-153598714D01*
X135877904Y-153598714D01*
X136119809Y-153719666D01*
X136240761Y-153840619D01*
X132975047Y-155171095D02*
X133216952Y-155292047D01*
X133700761Y-155292047D01*
X133942666Y-155171095D01*
X134063619Y-154929190D01*
X134063619Y-153961571D01*
X133942666Y-153719666D01*
X133700761Y-153598714D01*
X133216952Y-153598714D01*
X132975047Y-153719666D01*
X132854095Y-153961571D01*
X132854095Y-154203476D01*
X134063619Y-154445380D01*
X131402666Y-155292047D02*
X131644571Y-155171095D01*
X131765523Y-155050142D01*
X131886476Y-154808238D01*
X131886476Y-154082523D01*
X131765523Y-153840619D01*
X131644571Y-153719666D01*
X131402666Y-153598714D01*
X131039809Y-153598714D01*
X130797904Y-153719666D01*
X130676952Y-153840619D01*
X130556000Y-154082523D01*
X130556000Y-154808238D01*
X130676952Y-155050142D01*
X130797904Y-155171095D01*
X131039809Y-155292047D01*
X131402666Y-155292047D01*
X129467428Y-153598714D02*
X129467428Y-155292047D01*
X129467428Y-153840619D02*
X129346476Y-153719666D01*
X129104571Y-153598714D01*
X128741714Y-153598714D01*
X128499809Y-153719666D01*
X128378857Y-153961571D01*
X128378857Y-155292047D01*
X127169333Y-155292047D02*
X127169333Y-153598714D01*
X127169333Y-152752047D02*
X127290285Y-152873000D01*
X127169333Y-152993952D01*
X127048380Y-152873000D01*
X127169333Y-152752047D01*
X127169333Y-152993952D01*
X126201714Y-155292047D02*
X124871238Y-153598714D01*
X126201714Y-153598714D02*
X124871238Y-155292047D01*
X121968380Y-155292047D02*
X121968380Y-152752047D01*
X121121714Y-152752047D02*
X120275047Y-155292047D01*
X119428380Y-152752047D01*
X133337904Y-159402047D02*
X134184571Y-158192523D01*
X134789333Y-159402047D02*
X134789333Y-156862047D01*
X133821714Y-156862047D01*
X133579809Y-156983000D01*
X133458857Y-157103952D01*
X133337904Y-157345857D01*
X133337904Y-157708714D01*
X133458857Y-157950619D01*
X133579809Y-158071571D01*
X133821714Y-158192523D01*
X134789333Y-158192523D01*
X131281714Y-159281095D02*
X131523619Y-159402047D01*
X132007428Y-159402047D01*
X132249333Y-159281095D01*
X132370285Y-159039190D01*
X132370285Y-158071571D01*
X132249333Y-157829666D01*
X132007428Y-157708714D01*
X131523619Y-157708714D01*
X131281714Y-157829666D01*
X131160761Y-158071571D01*
X131160761Y-158313476D01*
X132370285Y-158555380D01*
X130314095Y-157708714D02*
X129709333Y-159402047D01*
X129104571Y-157708714D01*
X128136952Y-159160142D02*
X128016000Y-159281095D01*
X128136952Y-159402047D01*
X128257904Y-159281095D01*
X128136952Y-159160142D01*
X128136952Y-159402047D01*
X123661714Y-159402047D02*
X125113142Y-159402047D01*
X124387428Y-159402047D02*
X124387428Y-156862047D01*
X124629333Y-157224904D01*
X124871238Y-157466809D01*
X125113142Y-157587761D01*
D11*
G36*
X78387482Y-52743182D02*
G01*
X77874537Y-52827305D01*
X77129307Y-52977932D01*
X76122282Y-53193347D01*
X75944754Y-53231587D01*
X73301738Y-53856105D01*
X70711127Y-54575647D01*
X68223206Y-55372993D01*
X65888260Y-56230922D01*
X63756574Y-57132213D01*
X61933667Y-58029966D01*
X61060349Y-58526519D01*
X60068958Y-59137167D01*
X59028599Y-59815126D01*
X58008376Y-60513609D01*
X57077391Y-61185832D01*
X56304748Y-61785008D01*
X55974669Y-62064393D01*
X54351534Y-63666566D01*
X53002743Y-65352407D01*
X51935892Y-67110813D01*
X51158576Y-68930684D01*
X51051105Y-69260357D01*
X50809777Y-70302606D01*
X50662474Y-71506416D01*
X50617289Y-72743436D01*
X50682317Y-73885314D01*
X50735957Y-74258140D01*
X51209760Y-76110318D01*
X51972881Y-77927236D01*
X53013670Y-79702852D01*
X54320477Y-81431121D01*
X55881654Y-83106001D01*
X57685552Y-84721446D01*
X59720521Y-86271414D01*
X61974912Y-87749860D01*
X64437077Y-89150741D01*
X67095365Y-90468014D01*
X69938127Y-91695633D01*
X72953716Y-92827556D01*
X76130481Y-93857738D01*
X79456772Y-94780137D01*
X82920942Y-95588707D01*
X86511341Y-96277406D01*
X90216320Y-96840190D01*
X94024229Y-97271015D01*
X95310087Y-97383903D01*
X96568172Y-97470668D01*
X98018838Y-97544298D01*
X99597858Y-97603630D01*
X101241004Y-97647498D01*
X102884050Y-97674740D01*
X104462768Y-97684189D01*
X105912931Y-97674683D01*
X107170313Y-97645056D01*
X107895572Y-97612062D01*
X108657566Y-97566461D01*
X109313567Y-97524967D01*
X109803056Y-97491574D01*
X110065515Y-97470274D01*
X110087834Y-97467433D01*
X110017180Y-97410254D01*
X109711292Y-97274282D01*
X109220411Y-97080419D01*
X108651524Y-96869951D01*
X107664851Y-96483368D01*
X106547593Y-95994734D01*
X105389223Y-95447311D01*
X104279212Y-94884362D01*
X103307031Y-94349148D01*
X102789957Y-94035699D01*
X102361970Y-93769956D01*
X102041763Y-93585694D01*
X101910342Y-93526429D01*
X101733182Y-93438769D01*
X101357863Y-93195685D01*
X100825207Y-92827016D01*
X100176033Y-92362602D01*
X99451163Y-91832284D01*
X98691417Y-91265902D01*
X97937616Y-90693296D01*
X97230580Y-90144307D01*
X96657460Y-89686526D01*
X96022642Y-89147903D01*
X95233257Y-88443275D01*
X94344747Y-87624192D01*
X93412555Y-86742205D01*
X92492123Y-85848861D01*
X91941825Y-85302002D01*
X89736698Y-83012270D01*
X87765909Y-80801278D01*
X85989818Y-78619825D01*
X84368782Y-76418711D01*
X82863159Y-74148734D01*
X82549426Y-73644881D01*
X81160216Y-71257705D01*
X79968949Y-68935286D01*
X78978400Y-66691506D01*
X78191342Y-64540251D01*
X77610549Y-62495402D01*
X77238795Y-60570844D01*
X77078854Y-58780461D01*
X77133499Y-57138136D01*
X77405504Y-55657751D01*
X77897643Y-54353192D01*
X78500834Y-53380158D01*
X78706642Y-53106033D01*
X78827723Y-52906988D01*
X78834564Y-52781308D01*
X78697654Y-52727278D01*
X78387482Y-52743182D01*
G37*
X78387482Y-52743182D02*
X77874537Y-52827305D01*
X77129307Y-52977932D01*
X76122282Y-53193347D01*
X75944754Y-53231587D01*
X73301738Y-53856105D01*
X70711127Y-54575647D01*
X68223206Y-55372993D01*
X65888260Y-56230922D01*
X63756574Y-57132213D01*
X61933667Y-58029966D01*
X61060349Y-58526519D01*
X60068958Y-59137167D01*
X59028599Y-59815126D01*
X58008376Y-60513609D01*
X57077391Y-61185832D01*
X56304748Y-61785008D01*
X55974669Y-62064393D01*
X54351534Y-63666566D01*
X53002743Y-65352407D01*
X51935892Y-67110813D01*
X51158576Y-68930684D01*
X51051105Y-69260357D01*
X50809777Y-70302606D01*
X50662474Y-71506416D01*
X50617289Y-72743436D01*
X50682317Y-73885314D01*
X50735957Y-74258140D01*
X51209760Y-76110318D01*
X51972881Y-77927236D01*
X53013670Y-79702852D01*
X54320477Y-81431121D01*
X55881654Y-83106001D01*
X57685552Y-84721446D01*
X59720521Y-86271414D01*
X61974912Y-87749860D01*
X64437077Y-89150741D01*
X67095365Y-90468014D01*
X69938127Y-91695633D01*
X72953716Y-92827556D01*
X76130481Y-93857738D01*
X79456772Y-94780137D01*
X82920942Y-95588707D01*
X86511341Y-96277406D01*
X90216320Y-96840190D01*
X94024229Y-97271015D01*
X95310087Y-97383903D01*
X96568172Y-97470668D01*
X98018838Y-97544298D01*
X99597858Y-97603630D01*
X101241004Y-97647498D01*
X102884050Y-97674740D01*
X104462768Y-97684189D01*
X105912931Y-97674683D01*
X107170313Y-97645056D01*
X107895572Y-97612062D01*
X108657566Y-97566461D01*
X109313567Y-97524967D01*
X109803056Y-97491574D01*
X110065515Y-97470274D01*
X110087834Y-97467433D01*
X110017180Y-97410254D01*
X109711292Y-97274282D01*
X109220411Y-97080419D01*
X108651524Y-96869951D01*
X107664851Y-96483368D01*
X106547593Y-95994734D01*
X105389223Y-95447311D01*
X104279212Y-94884362D01*
X103307031Y-94349148D01*
X102789957Y-94035699D01*
X102361970Y-93769956D01*
X102041763Y-93585694D01*
X101910342Y-93526429D01*
X101733182Y-93438769D01*
X101357863Y-93195685D01*
X100825207Y-92827016D01*
X100176033Y-92362602D01*
X99451163Y-91832284D01*
X98691417Y-91265902D01*
X97937616Y-90693296D01*
X97230580Y-90144307D01*
X96657460Y-89686526D01*
X96022642Y-89147903D01*
X95233257Y-88443275D01*
X94344747Y-87624192D01*
X93412555Y-86742205D01*
X92492123Y-85848861D01*
X91941825Y-85302002D01*
X89736698Y-83012270D01*
X87765909Y-80801278D01*
X85989818Y-78619825D01*
X84368782Y-76418711D01*
X82863159Y-74148734D01*
X82549426Y-73644881D01*
X81160216Y-71257705D01*
X79968949Y-68935286D01*
X78978400Y-66691506D01*
X78191342Y-64540251D01*
X77610549Y-62495402D01*
X77238795Y-60570844D01*
X77078854Y-58780461D01*
X77133499Y-57138136D01*
X77405504Y-55657751D01*
X77897643Y-54353192D01*
X78500834Y-53380158D01*
X78706642Y-53106033D01*
X78827723Y-52906988D01*
X78834564Y-52781308D01*
X78697654Y-52727278D01*
X78387482Y-52743182D01*
G36*
X92643986Y-51436496D02*
G01*
X91442701Y-51443749D01*
X90370216Y-51458462D01*
X89469184Y-51480852D01*
X88782263Y-51511137D01*
X88352107Y-51549535D01*
X88333598Y-51552389D01*
X87594839Y-51671374D01*
X88938360Y-52120473D01*
X89901764Y-52483321D01*
X91037666Y-52976897D01*
X92268212Y-53562344D01*
X93515548Y-54200806D01*
X94701822Y-54853426D01*
X95749181Y-55481347D01*
X96012965Y-55651404D01*
X96601143Y-56034784D01*
X97091737Y-56348405D01*
X97433073Y-56559660D01*
X97573178Y-56635952D01*
X97718677Y-56725393D01*
X98056053Y-56971098D01*
X98542102Y-57339140D01*
X99133624Y-57795593D01*
X99787415Y-58306529D01*
X100460275Y-58838022D01*
X101109000Y-59356146D01*
X101690390Y-59826973D01*
X102161241Y-60216577D01*
X102452715Y-60467871D01*
X104008067Y-61883169D01*
X105374337Y-63174161D01*
X106605077Y-64396994D01*
X107753838Y-65607812D01*
X108874173Y-66862762D01*
X110019634Y-68217989D01*
X111023170Y-69453407D01*
X111666431Y-70275848D01*
X112353230Y-71187107D01*
X113052328Y-72142514D01*
X113732487Y-73097400D01*
X114362468Y-74007096D01*
X114911033Y-74826931D01*
X115346943Y-75512237D01*
X115638960Y-76018345D01*
X115698932Y-76139524D01*
X115886405Y-76456649D01*
X115987253Y-76593095D01*
X116187851Y-76897378D01*
X116484905Y-77420083D01*
X116849607Y-78104421D01*
X117253147Y-78893601D01*
X117666716Y-79730832D01*
X118061505Y-80559323D01*
X118408705Y-81322283D01*
X118540626Y-81626476D01*
X119392564Y-83803025D01*
X120025709Y-85821389D01*
X120450357Y-87720745D01*
X120676801Y-89540275D01*
X120695329Y-89826654D01*
X120701929Y-91507741D01*
X120514908Y-92976833D01*
X120128040Y-94259245D01*
X119535100Y-95380297D01*
X119224572Y-95807272D01*
X118954559Y-96156719D01*
X118861598Y-96328781D01*
X118933791Y-96382150D01*
X119108760Y-96378458D01*
X119552699Y-96334644D01*
X119839619Y-96292871D01*
X120515650Y-96163069D01*
X121404898Y-95972848D01*
X122428692Y-95740751D01*
X123508361Y-95485323D01*
X124565234Y-95225108D01*
X125520639Y-94978650D01*
X126171128Y-94800411D01*
X129509946Y-93752676D01*
X132575016Y-92589749D01*
X135365052Y-91312329D01*
X137878771Y-89921114D01*
X140114888Y-88416803D01*
X142072117Y-86800095D01*
X143461995Y-85397728D01*
X144716266Y-83871760D01*
X145693002Y-82374923D01*
X146409482Y-80869122D01*
X146882984Y-79316261D01*
X147130788Y-77678241D01*
X147159827Y-77244560D01*
X147146224Y-75601948D01*
X146915863Y-74071841D01*
X146449874Y-72567888D01*
X145844737Y-71226532D01*
X145165197Y-69981383D01*
X144456791Y-68885491D01*
X143653983Y-67850397D01*
X142691236Y-66787642D01*
X142147855Y-66236548D01*
X141134652Y-65256003D01*
X140205403Y-64419358D01*
X139283810Y-63666328D01*
X138293575Y-62936629D01*
X137158400Y-62169975D01*
X136319381Y-61631319D01*
X133378228Y-59922443D01*
X130181421Y-58352937D01*
X126743847Y-56927116D01*
X123080398Y-55649294D01*
X119205963Y-54523786D01*
X115135430Y-53554905D01*
X110883688Y-52746968D01*
X106465629Y-52104286D01*
X101896139Y-51631176D01*
X101772357Y-51620922D01*
X101076281Y-51576327D01*
X100167760Y-51537452D01*
X99089448Y-51504514D01*
X97884002Y-51477731D01*
X96594078Y-51457320D01*
X95262330Y-51443499D01*
X93931414Y-51436485D01*
X92643986Y-51436496D01*
G37*
X92643986Y-51436496D02*
X91442701Y-51443749D01*
X90370216Y-51458462D01*
X89469184Y-51480852D01*
X88782263Y-51511137D01*
X88352107Y-51549535D01*
X88333598Y-51552389D01*
X87594839Y-51671374D01*
X88938360Y-52120473D01*
X89901764Y-52483321D01*
X91037666Y-52976897D01*
X92268212Y-53562344D01*
X93515548Y-54200806D01*
X94701822Y-54853426D01*
X95749181Y-55481347D01*
X96012965Y-55651404D01*
X96601143Y-56034784D01*
X97091737Y-56348405D01*
X97433073Y-56559660D01*
X97573178Y-56635952D01*
X97718677Y-56725393D01*
X98056053Y-56971098D01*
X98542102Y-57339140D01*
X99133624Y-57795593D01*
X99787415Y-58306529D01*
X100460275Y-58838022D01*
X101109000Y-59356146D01*
X101690390Y-59826973D01*
X102161241Y-60216577D01*
X102452715Y-60467871D01*
X104008067Y-61883169D01*
X105374337Y-63174161D01*
X106605077Y-64396994D01*
X107753838Y-65607812D01*
X108874173Y-66862762D01*
X110019634Y-68217989D01*
X111023170Y-69453407D01*
X111666431Y-70275848D01*
X112353230Y-71187107D01*
X113052328Y-72142514D01*
X113732487Y-73097400D01*
X114362468Y-74007096D01*
X114911033Y-74826931D01*
X115346943Y-75512237D01*
X115638960Y-76018345D01*
X115698932Y-76139524D01*
X115886405Y-76456649D01*
X115987253Y-76593095D01*
X116187851Y-76897378D01*
X116484905Y-77420083D01*
X116849607Y-78104421D01*
X117253147Y-78893601D01*
X117666716Y-79730832D01*
X118061505Y-80559323D01*
X118408705Y-81322283D01*
X118540626Y-81626476D01*
X119392564Y-83803025D01*
X120025709Y-85821389D01*
X120450357Y-87720745D01*
X120676801Y-89540275D01*
X120695329Y-89826654D01*
X120701929Y-91507741D01*
X120514908Y-92976833D01*
X120128040Y-94259245D01*
X119535100Y-95380297D01*
X119224572Y-95807272D01*
X118954559Y-96156719D01*
X118861598Y-96328781D01*
X118933791Y-96382150D01*
X119108760Y-96378458D01*
X119552699Y-96334644D01*
X119839619Y-96292871D01*
X120515650Y-96163069D01*
X121404898Y-95972848D01*
X122428692Y-95740751D01*
X123508361Y-95485323D01*
X124565234Y-95225108D01*
X125520639Y-94978650D01*
X126171128Y-94800411D01*
X129509946Y-93752676D01*
X132575016Y-92589749D01*
X135365052Y-91312329D01*
X137878771Y-89921114D01*
X140114888Y-88416803D01*
X142072117Y-86800095D01*
X143461995Y-85397728D01*
X144716266Y-83871760D01*
X145693002Y-82374923D01*
X146409482Y-80869122D01*
X146882984Y-79316261D01*
X147130788Y-77678241D01*
X147159827Y-77244560D01*
X147146224Y-75601948D01*
X146915863Y-74071841D01*
X146449874Y-72567888D01*
X145844737Y-71226532D01*
X145165197Y-69981383D01*
X144456791Y-68885491D01*
X143653983Y-67850397D01*
X142691236Y-66787642D01*
X142147855Y-66236548D01*
X141134652Y-65256003D01*
X140205403Y-64419358D01*
X139283810Y-63666328D01*
X138293575Y-62936629D01*
X137158400Y-62169975D01*
X136319381Y-61631319D01*
X133378228Y-59922443D01*
X130181421Y-58352937D01*
X126743847Y-56927116D01*
X123080398Y-55649294D01*
X119205963Y-54523786D01*
X115135430Y-53554905D01*
X110883688Y-52746968D01*
X106465629Y-52104286D01*
X101896139Y-51631176D01*
X101772357Y-51620922D01*
X101076281Y-51576327D01*
X100167760Y-51537452D01*
X99089448Y-51504514D01*
X97884002Y-51477731D01*
X96594078Y-51457320D01*
X95262330Y-51443499D01*
X93931414Y-51436485D01*
X92643986Y-51436496D01*
G36*
X113840075Y-103109860D02*
G01*
X113853772Y-103256775D01*
X113929084Y-103532786D01*
X114050195Y-103880867D01*
X114063739Y-103916209D01*
X114208678Y-104295374D01*
X114334563Y-104631937D01*
X114414429Y-104853791D01*
X114415057Y-104855635D01*
X114488670Y-105062769D01*
X114611361Y-105398537D01*
X114761137Y-105802930D01*
X114821422Y-105964365D01*
X115014132Y-106479455D01*
X115225612Y-107045174D01*
X115413766Y-107548906D01*
X115433681Y-107602262D01*
X115624435Y-108112200D01*
X115838545Y-108682841D01*
X116019832Y-109164563D01*
X116209230Y-109666756D01*
X116423637Y-110235273D01*
X116616930Y-110747818D01*
X116618531Y-110752063D01*
X116759370Y-111126544D01*
X116950746Y-111636829D01*
X117172778Y-112229831D01*
X117405583Y-112852468D01*
X117543405Y-113221508D01*
X117897907Y-114170980D01*
X118203740Y-114989488D01*
X118482578Y-115734986D01*
X118756097Y-116465423D01*
X119045974Y-117238753D01*
X119051412Y-117253254D01*
X119245502Y-117770827D01*
X119463111Y-118351116D01*
X119656174Y-118865952D01*
X119850264Y-119383526D01*
X120067872Y-119963814D01*
X120260936Y-120478651D01*
X120452584Y-120990218D01*
X120665353Y-121558926D01*
X120853451Y-122062382D01*
X120854858Y-122066151D01*
X121042621Y-122568343D01*
X121255684Y-123136859D01*
X121448212Y-123649404D01*
X121449810Y-123653651D01*
X121663723Y-124223106D01*
X121923565Y-124916314D01*
X122208323Y-125677080D01*
X122496984Y-126449210D01*
X122768534Y-127176510D01*
X123001959Y-127802787D01*
X123108244Y-128088571D01*
X123261668Y-128506361D01*
X123400225Y-128892022D01*
X123498886Y-129175681D01*
X123513881Y-129220921D01*
X123615654Y-129444933D01*
X123768251Y-129572568D01*
X124012033Y-129615124D01*
X124387361Y-129583898D01*
X124656540Y-129540753D01*
X125711959Y-129452269D01*
X126729257Y-129557720D01*
X127695126Y-129854441D01*
X128575067Y-130325647D01*
X128919567Y-130543239D01*
X129119896Y-130639840D01*
X129190351Y-130619063D01*
X129145228Y-130484521D01*
X129136256Y-130467459D01*
X129019361Y-130300441D01*
X128808109Y-130040969D01*
X128546632Y-129743074D01*
X128527077Y-129721620D01*
X127888452Y-129164706D01*
X127142977Y-128757000D01*
X126336094Y-128521865D01*
X126138978Y-128493778D01*
X125718087Y-128429929D01*
X125443114Y-128329958D01*
X125258391Y-128156970D01*
X125108248Y-127874069D01*
X125071368Y-127786190D01*
X124973326Y-127549019D01*
X124816025Y-127171310D01*
X124618369Y-126698343D01*
X124399262Y-126175396D01*
X124313855Y-125971905D01*
X124055301Y-125355212D01*
X123776107Y-124687670D01*
X123508017Y-124045269D01*
X123282776Y-123504000D01*
X123261218Y-123452063D01*
X122794349Y-122327828D01*
X122390178Y-121356585D01*
X122034732Y-120504887D01*
X121714038Y-119739290D01*
X121414121Y-119026347D01*
X121229044Y-118587972D01*
X121027996Y-118109322D01*
X120858495Y-117699904D01*
X120734530Y-117393965D01*
X120670089Y-117225754D01*
X120664111Y-117204815D01*
X120625671Y-117095000D01*
X120526200Y-116859192D01*
X120422287Y-116626049D01*
X120268356Y-116277810D01*
X120074752Y-115826340D01*
X119877261Y-115355343D01*
X119828611Y-115237381D01*
X119665681Y-114842674D01*
X119447641Y-114317328D01*
X119197467Y-113716555D01*
X118938132Y-113095564D01*
X118800979Y-112767936D01*
X118528906Y-112118238D01*
X118236601Y-111419531D01*
X117952796Y-110740537D01*
X117706225Y-110149982D01*
X117621039Y-109945714D01*
X117423549Y-109472677D01*
X117247773Y-109053046D01*
X117111623Y-108729487D01*
X117033013Y-108544670D01*
X117028630Y-108534603D01*
X116960865Y-108376655D01*
X116829953Y-108068896D01*
X116651130Y-107647238D01*
X116439631Y-107147595D01*
X116284907Y-106781581D01*
X116029645Y-106199672D01*
X115761390Y-105626093D01*
X115505199Y-105111984D01*
X115286130Y-104708481D01*
X115198556Y-104564513D01*
X114933275Y-104182722D01*
X114648106Y-103817795D01*
X114369852Y-103498430D01*
X114125316Y-103253328D01*
X113941300Y-103111189D01*
X113844607Y-103100712D01*
X113840075Y-103109860D01*
G37*
X113840075Y-103109860D02*
X113853772Y-103256775D01*
X113929084Y-103532786D01*
X114050195Y-103880867D01*
X114063739Y-103916209D01*
X114208678Y-104295374D01*
X114334563Y-104631937D01*
X114414429Y-104853791D01*
X114415057Y-104855635D01*
X114488670Y-105062769D01*
X114611361Y-105398537D01*
X114761137Y-105802930D01*
X114821422Y-105964365D01*
X115014132Y-106479455D01*
X115225612Y-107045174D01*
X115413766Y-107548906D01*
X115433681Y-107602262D01*
X115624435Y-108112200D01*
X115838545Y-108682841D01*
X116019832Y-109164563D01*
X116209230Y-109666756D01*
X116423637Y-110235273D01*
X116616930Y-110747818D01*
X116618531Y-110752063D01*
X116759370Y-111126544D01*
X116950746Y-111636829D01*
X117172778Y-112229831D01*
X117405583Y-112852468D01*
X117543405Y-113221508D01*
X117897907Y-114170980D01*
X118203740Y-114989488D01*
X118482578Y-115734986D01*
X118756097Y-116465423D01*
X119045974Y-117238753D01*
X119051412Y-117253254D01*
X119245502Y-117770827D01*
X119463111Y-118351116D01*
X119656174Y-118865952D01*
X119850264Y-119383526D01*
X120067872Y-119963814D01*
X120260936Y-120478651D01*
X120452584Y-120990218D01*
X120665353Y-121558926D01*
X120853451Y-122062382D01*
X120854858Y-122066151D01*
X121042621Y-122568343D01*
X121255684Y-123136859D01*
X121448212Y-123649404D01*
X121449810Y-123653651D01*
X121663723Y-124223106D01*
X121923565Y-124916314D01*
X122208323Y-125677080D01*
X122496984Y-126449210D01*
X122768534Y-127176510D01*
X123001959Y-127802787D01*
X123108244Y-128088571D01*
X123261668Y-128506361D01*
X123400225Y-128892022D01*
X123498886Y-129175681D01*
X123513881Y-129220921D01*
X123615654Y-129444933D01*
X123768251Y-129572568D01*
X124012033Y-129615124D01*
X124387361Y-129583898D01*
X124656540Y-129540753D01*
X125711959Y-129452269D01*
X126729257Y-129557720D01*
X127695126Y-129854441D01*
X128575067Y-130325647D01*
X128919567Y-130543239D01*
X129119896Y-130639840D01*
X129190351Y-130619063D01*
X129145228Y-130484521D01*
X129136256Y-130467459D01*
X129019361Y-130300441D01*
X128808109Y-130040969D01*
X128546632Y-129743074D01*
X128527077Y-129721620D01*
X127888452Y-129164706D01*
X127142977Y-128757000D01*
X126336094Y-128521865D01*
X126138978Y-128493778D01*
X125718087Y-128429929D01*
X125443114Y-128329958D01*
X125258391Y-128156970D01*
X125108248Y-127874069D01*
X125071368Y-127786190D01*
X124973326Y-127549019D01*
X124816025Y-127171310D01*
X124618369Y-126698343D01*
X124399262Y-126175396D01*
X124313855Y-125971905D01*
X124055301Y-125355212D01*
X123776107Y-124687670D01*
X123508017Y-124045269D01*
X123282776Y-123504000D01*
X123261218Y-123452063D01*
X122794349Y-122327828D01*
X122390178Y-121356585D01*
X122034732Y-120504887D01*
X121714038Y-119739290D01*
X121414121Y-119026347D01*
X121229044Y-118587972D01*
X121027996Y-118109322D01*
X120858495Y-117699904D01*
X120734530Y-117393965D01*
X120670089Y-117225754D01*
X120664111Y-117204815D01*
X120625671Y-117095000D01*
X120526200Y-116859192D01*
X120422287Y-116626049D01*
X120268356Y-116277810D01*
X120074752Y-115826340D01*
X119877261Y-115355343D01*
X119828611Y-115237381D01*
X119665681Y-114842674D01*
X119447641Y-114317328D01*
X119197467Y-113716555D01*
X118938132Y-113095564D01*
X118800979Y-112767936D01*
X118528906Y-112118238D01*
X118236601Y-111419531D01*
X117952796Y-110740537D01*
X117706225Y-110149982D01*
X117621039Y-109945714D01*
X117423549Y-109472677D01*
X117247773Y-109053046D01*
X117111623Y-108729487D01*
X117033013Y-108544670D01*
X117028630Y-108534603D01*
X116960865Y-108376655D01*
X116829953Y-108068896D01*
X116651130Y-107647238D01*
X116439631Y-107147595D01*
X116284907Y-106781581D01*
X116029645Y-106199672D01*
X115761390Y-105626093D01*
X115505199Y-105111984D01*
X115286130Y-104708481D01*
X115198556Y-104564513D01*
X114933275Y-104182722D01*
X114648106Y-103817795D01*
X114369852Y-103498430D01*
X114125316Y-103253328D01*
X113941300Y-103111189D01*
X113844607Y-103100712D01*
X113840075Y-103109860D01*
G36*
X114943976Y-101773124D02*
G01*
X114970692Y-101873423D01*
X115087178Y-102082963D01*
X115198138Y-102253115D01*
X115572638Y-102863104D01*
X115930821Y-103584506D01*
X116288262Y-104450760D01*
X116527675Y-105107619D01*
X117671973Y-108314119D01*
X118805081Y-111354759D01*
X119940511Y-114263745D01*
X121091773Y-117075284D01*
X122272380Y-119823585D01*
X122877683Y-121184206D01*
X123264564Y-122036201D01*
X123659136Y-122890774D01*
X124051454Y-123727573D01*
X124431574Y-124526244D01*
X124789549Y-125266434D01*
X125115436Y-125927788D01*
X125399290Y-126489954D01*
X125631166Y-126932578D01*
X125801118Y-127235307D01*
X125899202Y-127377786D01*
X125906940Y-127383979D01*
X126086572Y-127431922D01*
X126369324Y-127449978D01*
X126450638Y-127448234D01*
X127305435Y-127512530D01*
X128139421Y-127771744D01*
X128935917Y-128219251D01*
X129469494Y-128647623D01*
X129737461Y-128884742D01*
X129937426Y-129046853D01*
X130034036Y-129105720D01*
X130037920Y-129101616D01*
X129970950Y-128895975D01*
X129789638Y-128592366D01*
X129523385Y-128234159D01*
X129201590Y-127864724D01*
X129193983Y-127856666D01*
X128655486Y-127369909D01*
X128056950Y-127004729D01*
X127335107Y-126723942D01*
X127194637Y-126681652D01*
X126869891Y-126572216D01*
X126622548Y-126461497D01*
X126528935Y-126395580D01*
X126468798Y-126270819D01*
X126351211Y-125983089D01*
X126186492Y-125559276D01*
X125984954Y-125026266D01*
X125756915Y-124410947D01*
X125554274Y-123855238D01*
X124004253Y-119741872D01*
X122315500Y-115576081D01*
X120514013Y-111421636D01*
X120212444Y-110752063D01*
X119783919Y-109817773D01*
X119336759Y-108864950D01*
X118882045Y-107915563D01*
X118430859Y-106991582D01*
X117994281Y-106114978D01*
X117583393Y-105307718D01*
X117209276Y-104591774D01*
X116883010Y-103989114D01*
X116615678Y-103521708D01*
X116418360Y-103211525D01*
X116388381Y-103170432D01*
X116127137Y-102848654D01*
X115830778Y-102520125D01*
X115531965Y-102216443D01*
X115263360Y-101969204D01*
X115057626Y-101810005D01*
X114947424Y-101770443D01*
X114943976Y-101773124D01*
G37*
X114943976Y-101773124D02*
X114970692Y-101873423D01*
X115087178Y-102082963D01*
X115198138Y-102253115D01*
X115572638Y-102863104D01*
X115930821Y-103584506D01*
X116288262Y-104450760D01*
X116527675Y-105107619D01*
X117671973Y-108314119D01*
X118805081Y-111354759D01*
X119940511Y-114263745D01*
X121091773Y-117075284D01*
X122272380Y-119823585D01*
X122877683Y-121184206D01*
X123264564Y-122036201D01*
X123659136Y-122890774D01*
X124051454Y-123727573D01*
X124431574Y-124526244D01*
X124789549Y-125266434D01*
X125115436Y-125927788D01*
X125399290Y-126489954D01*
X125631166Y-126932578D01*
X125801118Y-127235307D01*
X125899202Y-127377786D01*
X125906940Y-127383979D01*
X126086572Y-127431922D01*
X126369324Y-127449978D01*
X126450638Y-127448234D01*
X127305435Y-127512530D01*
X128139421Y-127771744D01*
X128935917Y-128219251D01*
X129469494Y-128647623D01*
X129737461Y-128884742D01*
X129937426Y-129046853D01*
X130034036Y-129105720D01*
X130037920Y-129101616D01*
X129970950Y-128895975D01*
X129789638Y-128592366D01*
X129523385Y-128234159D01*
X129201590Y-127864724D01*
X129193983Y-127856666D01*
X128655486Y-127369909D01*
X128056950Y-127004729D01*
X127335107Y-126723942D01*
X127194637Y-126681652D01*
X126869891Y-126572216D01*
X126622548Y-126461497D01*
X126528935Y-126395580D01*
X126468798Y-126270819D01*
X126351211Y-125983089D01*
X126186492Y-125559276D01*
X125984954Y-125026266D01*
X125756915Y-124410947D01*
X125554274Y-123855238D01*
X124004253Y-119741872D01*
X122315500Y-115576081D01*
X120514013Y-111421636D01*
X120212444Y-110752063D01*
X119783919Y-109817773D01*
X119336759Y-108864950D01*
X118882045Y-107915563D01*
X118430859Y-106991582D01*
X117994281Y-106114978D01*
X117583393Y-105307718D01*
X117209276Y-104591774D01*
X116883010Y-103989114D01*
X116615678Y-103521708D01*
X116418360Y-103211525D01*
X116388381Y-103170432D01*
X116127137Y-102848654D01*
X115830778Y-102520125D01*
X115531965Y-102216443D01*
X115263360Y-101969204D01*
X115057626Y-101810005D01*
X114947424Y-101770443D01*
X114943976Y-101773124D01*
G36*
X50760821Y-108595732D02*
G01*
X50481554Y-108645265D01*
X50345331Y-108759608D01*
X50323086Y-108964768D01*
X50385749Y-109286753D01*
X50393379Y-109317614D01*
X50439366Y-109538705D01*
X50508893Y-109921468D01*
X50598429Y-110443087D01*
X50704441Y-111080746D01*
X50823397Y-111811630D01*
X50951765Y-112612922D01*
X51086013Y-113461808D01*
X51222608Y-114335470D01*
X51358020Y-115211094D01*
X51488715Y-116065863D01*
X51611162Y-116876962D01*
X51721828Y-117621574D01*
X51817181Y-118276885D01*
X51893690Y-118820078D01*
X51947822Y-119228338D01*
X51976045Y-119478849D01*
X51977517Y-119550430D01*
X51870681Y-119545114D01*
X51835311Y-119514392D01*
X51771498Y-119411936D01*
X51617173Y-119149776D01*
X51381311Y-118743536D01*
X51072889Y-118208836D01*
X50700883Y-117561301D01*
X50274269Y-116816552D01*
X49802025Y-115990212D01*
X49293125Y-115097904D01*
X48798742Y-114229444D01*
X48259918Y-113284643D01*
X47745487Y-112387531D01*
X47264924Y-111554306D01*
X46827702Y-110801163D01*
X46443297Y-110144302D01*
X46121181Y-109599917D01*
X45870830Y-109184207D01*
X45701717Y-108913369D01*
X45627136Y-108807216D01*
X45493730Y-108688652D01*
X45337909Y-108622539D01*
X45103916Y-108597488D01*
X44735996Y-108602106D01*
X44640396Y-108605628D01*
X43872863Y-108635397D01*
X49046481Y-117253254D01*
X49918924Y-118705498D01*
X50694911Y-119994754D01*
X51380917Y-121131360D01*
X51983418Y-122125658D01*
X52508886Y-122987985D01*
X52963798Y-123728683D01*
X53354628Y-124358091D01*
X53687850Y-124886549D01*
X53969940Y-125324397D01*
X54207372Y-125681973D01*
X54406621Y-125969619D01*
X54574161Y-126197673D01*
X54716468Y-126376476D01*
X54840016Y-126516367D01*
X54860557Y-126538000D01*
X55597796Y-127175163D01*
X56429562Y-127664075D01*
X57319818Y-127988689D01*
X58232526Y-128132958D01*
X58456135Y-128138968D01*
X58767701Y-128133537D01*
X58921799Y-128102485D01*
X58962519Y-128023673D01*
X58939353Y-127896337D01*
X58862371Y-127655543D01*
X58740293Y-127335097D01*
X58686413Y-127205684D01*
X58572447Y-126957721D01*
X58459664Y-126818812D01*
X58286010Y-126749912D01*
X57989429Y-126711975D01*
X57886840Y-126702575D01*
X57234775Y-126561453D01*
X56604596Y-126278118D01*
X56074461Y-125889348D01*
X55998676Y-125814130D01*
X55644917Y-125399215D01*
X55249899Y-124861940D01*
X54855167Y-124263743D01*
X54502267Y-123666060D01*
X54346949Y-123371607D01*
X54146585Y-122935556D01*
X53974111Y-122472547D01*
X53823418Y-121954590D01*
X53688398Y-121353695D01*
X53562941Y-120641870D01*
X53440939Y-119791126D01*
X53316282Y-118773472D01*
X53286629Y-118513175D01*
X53212563Y-117866926D01*
X53124676Y-117118911D01*
X53025923Y-116292747D01*
X52919265Y-115412047D01*
X52807657Y-114500428D01*
X52694059Y-113581504D01*
X52581428Y-112678890D01*
X52472722Y-111816201D01*
X52370898Y-111017053D01*
X52278915Y-110305061D01*
X52199730Y-109703839D01*
X52136301Y-109237002D01*
X52091586Y-108928167D01*
X52071519Y-108811786D01*
X52031336Y-108698870D01*
X51945255Y-108631292D01*
X51769578Y-108597517D01*
X51460606Y-108586013D01*
X51212202Y-108585000D01*
X50760821Y-108595732D01*
G37*
X50760821Y-108595732D02*
X50481554Y-108645265D01*
X50345331Y-108759608D01*
X50323086Y-108964768D01*
X50385749Y-109286753D01*
X50393379Y-109317614D01*
X50439366Y-109538705D01*
X50508893Y-109921468D01*
X50598429Y-110443087D01*
X50704441Y-111080746D01*
X50823397Y-111811630D01*
X50951765Y-112612922D01*
X51086013Y-113461808D01*
X51222608Y-114335470D01*
X51358020Y-115211094D01*
X51488715Y-116065863D01*
X51611162Y-116876962D01*
X51721828Y-117621574D01*
X51817181Y-118276885D01*
X51893690Y-118820078D01*
X51947822Y-119228338D01*
X51976045Y-119478849D01*
X51977517Y-119550430D01*
X51870681Y-119545114D01*
X51835311Y-119514392D01*
X51771498Y-119411936D01*
X51617173Y-119149776D01*
X51381311Y-118743536D01*
X51072889Y-118208836D01*
X50700883Y-117561301D01*
X50274269Y-116816552D01*
X49802025Y-115990212D01*
X49293125Y-115097904D01*
X48798742Y-114229444D01*
X48259918Y-113284643D01*
X47745487Y-112387531D01*
X47264924Y-111554306D01*
X46827702Y-110801163D01*
X46443297Y-110144302D01*
X46121181Y-109599917D01*
X45870830Y-109184207D01*
X45701717Y-108913369D01*
X45627136Y-108807216D01*
X45493730Y-108688652D01*
X45337909Y-108622539D01*
X45103916Y-108597488D01*
X44735996Y-108602106D01*
X44640396Y-108605628D01*
X43872863Y-108635397D01*
X49046481Y-117253254D01*
X49918924Y-118705498D01*
X50694911Y-119994754D01*
X51380917Y-121131360D01*
X51983418Y-122125658D01*
X52508886Y-122987985D01*
X52963798Y-123728683D01*
X53354628Y-124358091D01*
X53687850Y-124886549D01*
X53969940Y-125324397D01*
X54207372Y-125681973D01*
X54406621Y-125969619D01*
X54574161Y-126197673D01*
X54716468Y-126376476D01*
X54840016Y-126516367D01*
X54860557Y-126538000D01*
X55597796Y-127175163D01*
X56429562Y-127664075D01*
X57319818Y-127988689D01*
X58232526Y-128132958D01*
X58456135Y-128138968D01*
X58767701Y-128133537D01*
X58921799Y-128102485D01*
X58962519Y-128023673D01*
X58939353Y-127896337D01*
X58862371Y-127655543D01*
X58740293Y-127335097D01*
X58686413Y-127205684D01*
X58572447Y-126957721D01*
X58459664Y-126818812D01*
X58286010Y-126749912D01*
X57989429Y-126711975D01*
X57886840Y-126702575D01*
X57234775Y-126561453D01*
X56604596Y-126278118D01*
X56074461Y-125889348D01*
X55998676Y-125814130D01*
X55644917Y-125399215D01*
X55249899Y-124861940D01*
X54855167Y-124263743D01*
X54502267Y-123666060D01*
X54346949Y-123371607D01*
X54146585Y-122935556D01*
X53974111Y-122472547D01*
X53823418Y-121954590D01*
X53688398Y-121353695D01*
X53562941Y-120641870D01*
X53440939Y-119791126D01*
X53316282Y-118773472D01*
X53286629Y-118513175D01*
X53212563Y-117866926D01*
X53124676Y-117118911D01*
X53025923Y-116292747D01*
X52919265Y-115412047D01*
X52807657Y-114500428D01*
X52694059Y-113581504D01*
X52581428Y-112678890D01*
X52472722Y-111816201D01*
X52370898Y-111017053D01*
X52278915Y-110305061D01*
X52199730Y-109703839D01*
X52136301Y-109237002D01*
X52091586Y-108928167D01*
X52071519Y-108811786D01*
X52031336Y-108698870D01*
X51945255Y-108631292D01*
X51769578Y-108597517D01*
X51460606Y-108586013D01*
X51212202Y-108585000D01*
X50760821Y-108595732D01*
G36*
X144770376Y-102817216D02*
G01*
X144159757Y-102934906D01*
X143672917Y-103139939D01*
X143195458Y-103543444D01*
X142865126Y-104080618D01*
X142683215Y-104745953D01*
X142651019Y-105533943D01*
X142769829Y-106439083D01*
X142832143Y-106720317D01*
X142929993Y-107081772D01*
X143088422Y-107609203D01*
X143299641Y-108278946D01*
X143555864Y-109067336D01*
X143849303Y-109950708D01*
X144172171Y-110905398D01*
X144516681Y-111907741D01*
X144875045Y-112934072D01*
X144903098Y-113013722D01*
X145235162Y-113925504D01*
X145613748Y-114913756D01*
X146018683Y-115929222D01*
X146429795Y-116922643D01*
X146826911Y-117844761D01*
X147189856Y-118646318D01*
X147333113Y-118947261D01*
X147610583Y-119506578D01*
X147840489Y-119930499D01*
X148055994Y-120268345D01*
X148290260Y-120569439D01*
X148576450Y-120883101D01*
X148762789Y-121073587D01*
X149517177Y-121726587D01*
X150327494Y-122232508D01*
X151167775Y-122582716D01*
X152012054Y-122768578D01*
X152834364Y-122781460D01*
X153500305Y-122648819D01*
X154140774Y-122377130D01*
X154613192Y-122006630D01*
X154928334Y-121522091D01*
X155096978Y-120908282D01*
X155133789Y-120340349D01*
X155123043Y-119962452D01*
X155093655Y-119640218D01*
X153512093Y-119640218D01*
X153467463Y-120226193D01*
X153295940Y-120689636D01*
X152996481Y-121042744D01*
X152967097Y-121066489D01*
X152646714Y-121214211D01*
X152198843Y-121283409D01*
X151682345Y-121272456D01*
X151156078Y-121179724D01*
X150963455Y-121121915D01*
X150363517Y-120815696D01*
X149793222Y-120322057D01*
X149265316Y-119654452D01*
X148796276Y-118833978D01*
X148435078Y-118056803D01*
X148027701Y-117111558D01*
X147583847Y-116023856D01*
X147113218Y-114819314D01*
X146625517Y-113523548D01*
X146130445Y-112162173D01*
X145637706Y-110760804D01*
X145157000Y-109345058D01*
X144857073Y-108433810D01*
X144562590Y-107458460D01*
X144368334Y-106643220D01*
X144274672Y-105973086D01*
X144281973Y-105433053D01*
X144390604Y-105008114D01*
X144600933Y-104683266D01*
X144913327Y-104443502D01*
X144955381Y-104420930D01*
X145240636Y-104311756D01*
X145581289Y-104270201D01*
X145973354Y-104280395D01*
X146724823Y-104426029D01*
X147415051Y-104763041D01*
X148042620Y-105290302D01*
X148606113Y-106006686D01*
X148995371Y-106686319D01*
X149248236Y-107222232D01*
X149552688Y-107921863D01*
X149898276Y-108757126D01*
X150274549Y-109699935D01*
X150671054Y-110722205D01*
X151077340Y-111795848D01*
X151482956Y-112892780D01*
X151877450Y-113984915D01*
X152250370Y-115044167D01*
X152591264Y-116042450D01*
X152889682Y-116951679D01*
X153135172Y-117743766D01*
X153224846Y-118051885D01*
X153430873Y-118919514D01*
X153512093Y-119640218D01*
X155093655Y-119640218D01*
X155088350Y-119582053D01*
X155023216Y-119173034D01*
X154921145Y-118709277D01*
X154775640Y-118164664D01*
X154580205Y-117513075D01*
X154328346Y-116728393D01*
X154013565Y-115784499D01*
X153964915Y-115640556D01*
X153341833Y-113827372D01*
X152760604Y-112195468D01*
X152215493Y-110730234D01*
X151700770Y-109417058D01*
X151210703Y-108241329D01*
X150739559Y-107188436D01*
X150281606Y-106243769D01*
X150267708Y-106216349D01*
X149659523Y-105208119D01*
X148945450Y-104369842D01*
X148127295Y-103702970D01*
X147206861Y-103208954D01*
X146185954Y-102889245D01*
X146110541Y-102873383D01*
X145441351Y-102794443D01*
X144770376Y-102817216D01*
G37*
X144770376Y-102817216D02*
X144159757Y-102934906D01*
X143672917Y-103139939D01*
X143195458Y-103543444D01*
X142865126Y-104080618D01*
X142683215Y-104745953D01*
X142651019Y-105533943D01*
X142769829Y-106439083D01*
X142832143Y-106720317D01*
X142929993Y-107081772D01*
X143088422Y-107609203D01*
X143299641Y-108278946D01*
X143555864Y-109067336D01*
X143849303Y-109950708D01*
X144172171Y-110905398D01*
X144516681Y-111907741D01*
X144875045Y-112934072D01*
X144903098Y-113013722D01*
X145235162Y-113925504D01*
X145613748Y-114913756D01*
X146018683Y-115929222D01*
X146429795Y-116922643D01*
X146826911Y-117844761D01*
X147189856Y-118646318D01*
X147333113Y-118947261D01*
X147610583Y-119506578D01*
X147840489Y-119930499D01*
X148055994Y-120268345D01*
X148290260Y-120569439D01*
X148576450Y-120883101D01*
X148762789Y-121073587D01*
X149517177Y-121726587D01*
X150327494Y-122232508D01*
X151167775Y-122582716D01*
X152012054Y-122768578D01*
X152834364Y-122781460D01*
X153500305Y-122648819D01*
X154140774Y-122377130D01*
X154613192Y-122006630D01*
X154928334Y-121522091D01*
X155096978Y-120908282D01*
X155133789Y-120340349D01*
X155123043Y-119962452D01*
X155093655Y-119640218D01*
X153512093Y-119640218D01*
X153467463Y-120226193D01*
X153295940Y-120689636D01*
X152996481Y-121042744D01*
X152967097Y-121066489D01*
X152646714Y-121214211D01*
X152198843Y-121283409D01*
X151682345Y-121272456D01*
X151156078Y-121179724D01*
X150963455Y-121121915D01*
X150363517Y-120815696D01*
X149793222Y-120322057D01*
X149265316Y-119654452D01*
X148796276Y-118833978D01*
X148435078Y-118056803D01*
X148027701Y-117111558D01*
X147583847Y-116023856D01*
X147113218Y-114819314D01*
X146625517Y-113523548D01*
X146130445Y-112162173D01*
X145637706Y-110760804D01*
X145157000Y-109345058D01*
X144857073Y-108433810D01*
X144562590Y-107458460D01*
X144368334Y-106643220D01*
X144274672Y-105973086D01*
X144281973Y-105433053D01*
X144390604Y-105008114D01*
X144600933Y-104683266D01*
X144913327Y-104443502D01*
X144955381Y-104420930D01*
X145240636Y-104311756D01*
X145581289Y-104270201D01*
X145973354Y-104280395D01*
X146724823Y-104426029D01*
X147415051Y-104763041D01*
X148042620Y-105290302D01*
X148606113Y-106006686D01*
X148995371Y-106686319D01*
X149248236Y-107222232D01*
X149552688Y-107921863D01*
X149898276Y-108757126D01*
X150274549Y-109699935D01*
X150671054Y-110722205D01*
X151077340Y-111795848D01*
X151482956Y-112892780D01*
X151877450Y-113984915D01*
X152250370Y-115044167D01*
X152591264Y-116042450D01*
X152889682Y-116951679D01*
X153135172Y-117743766D01*
X153224846Y-118051885D01*
X153430873Y-118919514D01*
X153512093Y-119640218D01*
X155093655Y-119640218D01*
X155088350Y-119582053D01*
X155023216Y-119173034D01*
X154921145Y-118709277D01*
X154775640Y-118164664D01*
X154580205Y-117513075D01*
X154328346Y-116728393D01*
X154013565Y-115784499D01*
X153964915Y-115640556D01*
X153341833Y-113827372D01*
X152760604Y-112195468D01*
X152215493Y-110730234D01*
X151700770Y-109417058D01*
X151210703Y-108241329D01*
X150739559Y-107188436D01*
X150281606Y-106243769D01*
X150267708Y-106216349D01*
X149659523Y-105208119D01*
X148945450Y-104369842D01*
X148127295Y-103702970D01*
X147206861Y-103208954D01*
X146185954Y-102889245D01*
X146110541Y-102873383D01*
X145441351Y-102794443D01*
X144770376Y-102817216D01*
G36*
X98786231Y-108496364D02*
G01*
X98245006Y-108737060D01*
X98075120Y-108861886D01*
X97692118Y-109314398D01*
X97459301Y-109901065D01*
X97376661Y-110621974D01*
X97444187Y-111477213D01*
X97661871Y-112466870D01*
X97677766Y-112523670D01*
X97973749Y-113507295D01*
X98323676Y-114565033D01*
X98711029Y-115653660D01*
X99119291Y-116729954D01*
X99531943Y-117750690D01*
X99932467Y-118672644D01*
X100304345Y-119452593D01*
X100386827Y-119612569D01*
X100779082Y-120265261D01*
X101249787Y-120898359D01*
X101760392Y-121468353D01*
X102272344Y-121931734D01*
X102695013Y-122217665D01*
X103357028Y-122505752D01*
X104079964Y-122698136D01*
X104806956Y-122787256D01*
X105481136Y-122765548D01*
X105972521Y-122653482D01*
X106448706Y-122439698D01*
X106821062Y-122166302D01*
X107090605Y-121819419D01*
X107258353Y-121385178D01*
X107325321Y-120849706D01*
X107292527Y-120199130D01*
X107268765Y-120058308D01*
X105691664Y-120058308D01*
X105688798Y-120444893D01*
X105661390Y-120691463D01*
X105590117Y-120859521D01*
X105455657Y-121010572D01*
X105367084Y-121091443D01*
X105129248Y-121272514D01*
X104886974Y-121360323D01*
X104548924Y-121385518D01*
X104489882Y-121385794D01*
X104119789Y-121363139D01*
X103788194Y-121305423D01*
X103659925Y-121264171D01*
X102960998Y-120856853D01*
X102376019Y-120298573D01*
X102172227Y-120024082D01*
X101919759Y-119591939D01*
X101620807Y-118992616D01*
X101286284Y-118252174D01*
X100927100Y-117396679D01*
X100554168Y-116452193D01*
X100178397Y-115444778D01*
X99810701Y-114400500D01*
X99779266Y-114308213D01*
X99540857Y-113601897D01*
X99360804Y-113051890D01*
X99230910Y-112624214D01*
X99142980Y-112284893D01*
X99088820Y-111999949D01*
X99060236Y-111735405D01*
X99049031Y-111457286D01*
X99047255Y-111273188D01*
X99048522Y-110845403D01*
X99065890Y-110566775D01*
X99113778Y-110384883D01*
X99206607Y-110247301D01*
X99358799Y-110101608D01*
X99373042Y-110088862D01*
X99779637Y-109852884D01*
X100264959Y-109776583D01*
X100795806Y-109851976D01*
X101338980Y-110071079D01*
X101861280Y-110425909D01*
X102215986Y-110772491D01*
X102469904Y-111099481D01*
X102731993Y-111518589D01*
X103010633Y-112047634D01*
X103314201Y-112704434D01*
X103651076Y-113506806D01*
X104029636Y-114472569D01*
X104323770Y-115254965D01*
X104694580Y-116265856D01*
X104995275Y-117113148D01*
X105232363Y-117819697D01*
X105412354Y-118408360D01*
X105541756Y-118901993D01*
X105627080Y-119323454D01*
X105674834Y-119695600D01*
X105691528Y-120041286D01*
X105691664Y-120058308D01*
X107268765Y-120058308D01*
X107160987Y-119419578D01*
X106931718Y-118497176D01*
X106605735Y-117418052D01*
X106401491Y-116799683D01*
X105899682Y-115357452D01*
X105429281Y-114098880D01*
X104982691Y-113009848D01*
X104552313Y-112076238D01*
X104130550Y-111283931D01*
X103709804Y-110618807D01*
X103282478Y-110066749D01*
X102840973Y-109613637D01*
X102377692Y-109245354D01*
X102312334Y-109200875D01*
X101614934Y-108814946D01*
X100878478Y-108548718D01*
X100138112Y-108405004D01*
X99428981Y-108386616D01*
X98786231Y-108496364D01*
G37*
X98786231Y-108496364D02*
X98245006Y-108737060D01*
X98075120Y-108861886D01*
X97692118Y-109314398D01*
X97459301Y-109901065D01*
X97376661Y-110621974D01*
X97444187Y-111477213D01*
X97661871Y-112466870D01*
X97677766Y-112523670D01*
X97973749Y-113507295D01*
X98323676Y-114565033D01*
X98711029Y-115653660D01*
X99119291Y-116729954D01*
X99531943Y-117750690D01*
X99932467Y-118672644D01*
X100304345Y-119452593D01*
X100386827Y-119612569D01*
X100779082Y-120265261D01*
X101249787Y-120898359D01*
X101760392Y-121468353D01*
X102272344Y-121931734D01*
X102695013Y-122217665D01*
X103357028Y-122505752D01*
X104079964Y-122698136D01*
X104806956Y-122787256D01*
X105481136Y-122765548D01*
X105972521Y-122653482D01*
X106448706Y-122439698D01*
X106821062Y-122166302D01*
X107090605Y-121819419D01*
X107258353Y-121385178D01*
X107325321Y-120849706D01*
X107292527Y-120199130D01*
X107268765Y-120058308D01*
X105691664Y-120058308D01*
X105688798Y-120444893D01*
X105661390Y-120691463D01*
X105590117Y-120859521D01*
X105455657Y-121010572D01*
X105367084Y-121091443D01*
X105129248Y-121272514D01*
X104886974Y-121360323D01*
X104548924Y-121385518D01*
X104489882Y-121385794D01*
X104119789Y-121363139D01*
X103788194Y-121305423D01*
X103659925Y-121264171D01*
X102960998Y-120856853D01*
X102376019Y-120298573D01*
X102172227Y-120024082D01*
X101919759Y-119591939D01*
X101620807Y-118992616D01*
X101286284Y-118252174D01*
X100927100Y-117396679D01*
X100554168Y-116452193D01*
X100178397Y-115444778D01*
X99810701Y-114400500D01*
X99779266Y-114308213D01*
X99540857Y-113601897D01*
X99360804Y-113051890D01*
X99230910Y-112624214D01*
X99142980Y-112284893D01*
X99088820Y-111999949D01*
X99060236Y-111735405D01*
X99049031Y-111457286D01*
X99047255Y-111273188D01*
X99048522Y-110845403D01*
X99065890Y-110566775D01*
X99113778Y-110384883D01*
X99206607Y-110247301D01*
X99358799Y-110101608D01*
X99373042Y-110088862D01*
X99779637Y-109852884D01*
X100264959Y-109776583D01*
X100795806Y-109851976D01*
X101338980Y-110071079D01*
X101861280Y-110425909D01*
X102215986Y-110772491D01*
X102469904Y-111099481D01*
X102731993Y-111518589D01*
X103010633Y-112047634D01*
X103314201Y-112704434D01*
X103651076Y-113506806D01*
X104029636Y-114472569D01*
X104323770Y-115254965D01*
X104694580Y-116265856D01*
X104995275Y-117113148D01*
X105232363Y-117819697D01*
X105412354Y-118408360D01*
X105541756Y-118901993D01*
X105627080Y-119323454D01*
X105674834Y-119695600D01*
X105691528Y-120041286D01*
X105691664Y-120058308D01*
X107268765Y-120058308D01*
X107160987Y-119419578D01*
X106931718Y-118497176D01*
X106605735Y-117418052D01*
X106401491Y-116799683D01*
X105899682Y-115357452D01*
X105429281Y-114098880D01*
X104982691Y-113009848D01*
X104552313Y-112076238D01*
X104130550Y-111283931D01*
X103709804Y-110618807D01*
X103282478Y-110066749D01*
X102840973Y-109613637D01*
X102377692Y-109245354D01*
X102312334Y-109200875D01*
X101614934Y-108814946D01*
X100878478Y-108548718D01*
X100138112Y-108405004D01*
X99428981Y-108386616D01*
X98786231Y-108496364D01*
G36*
X89416062Y-108420843D02*
G01*
X88811675Y-108553852D01*
X88315811Y-108778816D01*
X88065247Y-108979947D01*
X87768716Y-109431264D01*
X87609337Y-110008936D01*
X87588960Y-110689887D01*
X87709434Y-111451035D01*
X87832500Y-111883587D01*
X87956786Y-112263968D01*
X88700076Y-112293838D01*
X89443365Y-112323707D01*
X89377923Y-112041853D01*
X89332078Y-111786156D01*
X89282587Y-111422778D01*
X89251941Y-111145670D01*
X89225542Y-110794806D01*
X89245048Y-110568679D01*
X89328955Y-110392311D01*
X89484399Y-110203419D01*
X89747634Y-109969866D01*
X90054401Y-109852578D01*
X90252873Y-109821905D01*
X90838847Y-109817528D01*
X91361459Y-109958253D01*
X91863164Y-110261220D01*
X92290698Y-110644723D01*
X92547903Y-110922511D01*
X92783136Y-111221426D01*
X93008316Y-111565128D01*
X93235363Y-111977276D01*
X93476196Y-112481530D01*
X93742734Y-113101550D01*
X94046897Y-113860995D01*
X94400605Y-114783526D01*
X94474520Y-114979531D01*
X94897404Y-116125186D01*
X95240831Y-117106187D01*
X95510197Y-117940740D01*
X95710893Y-118647051D01*
X95848315Y-119243325D01*
X95927854Y-119747770D01*
X95945985Y-119946500D01*
X95967948Y-120325711D01*
X95957509Y-120568280D01*
X95896470Y-120738650D01*
X95766635Y-120901266D01*
X95640031Y-121030032D01*
X95381413Y-121256256D01*
X95144383Y-121360719D01*
X94838574Y-121385794D01*
X94131208Y-121288539D01*
X93476629Y-121005250D01*
X92893906Y-120548639D01*
X92402107Y-119931420D01*
X92241359Y-119654252D01*
X92059616Y-119328259D01*
X91900919Y-119074436D01*
X91798262Y-118945367D01*
X91795132Y-118943091D01*
X91642626Y-118904050D01*
X91355143Y-118876640D01*
X91047967Y-118867496D01*
X90409998Y-118865952D01*
X90479240Y-119193532D01*
X90707737Y-119840770D01*
X91102704Y-120490450D01*
X91631657Y-121112540D01*
X92262111Y-121677005D01*
X92961581Y-122153812D01*
X93697584Y-122512927D01*
X94258977Y-122688107D01*
X94837888Y-122770721D01*
X95457719Y-122776734D01*
X96023962Y-122707668D01*
X96223762Y-122656422D01*
X96734041Y-122446301D01*
X97100742Y-122164430D01*
X97361711Y-121801344D01*
X97523194Y-121361140D01*
X97584641Y-120788346D01*
X97544925Y-120077745D01*
X97402916Y-119224121D01*
X97157486Y-118222260D01*
X96807508Y-117066947D01*
X96351853Y-115752964D01*
X95789393Y-114275098D01*
X95666933Y-113966775D01*
X95176722Y-112798071D01*
X94707675Y-111809787D01*
X94245515Y-110983891D01*
X93775966Y-110302356D01*
X93284751Y-109747151D01*
X92757595Y-109300249D01*
X92180220Y-108943620D01*
X91538351Y-108659234D01*
X91433952Y-108621097D01*
X90771842Y-108449710D01*
X90084331Y-108384544D01*
X89416062Y-108420843D01*
G37*
X89416062Y-108420843D02*
X88811675Y-108553852D01*
X88315811Y-108778816D01*
X88065247Y-108979947D01*
X87768716Y-109431264D01*
X87609337Y-110008936D01*
X87588960Y-110689887D01*
X87709434Y-111451035D01*
X87832500Y-111883587D01*
X87956786Y-112263968D01*
X88700076Y-112293838D01*
X89443365Y-112323707D01*
X89377923Y-112041853D01*
X89332078Y-111786156D01*
X89282587Y-111422778D01*
X89251941Y-111145670D01*
X89225542Y-110794806D01*
X89245048Y-110568679D01*
X89328955Y-110392311D01*
X89484399Y-110203419D01*
X89747634Y-109969866D01*
X90054401Y-109852578D01*
X90252873Y-109821905D01*
X90838847Y-109817528D01*
X91361459Y-109958253D01*
X91863164Y-110261220D01*
X92290698Y-110644723D01*
X92547903Y-110922511D01*
X92783136Y-111221426D01*
X93008316Y-111565128D01*
X93235363Y-111977276D01*
X93476196Y-112481530D01*
X93742734Y-113101550D01*
X94046897Y-113860995D01*
X94400605Y-114783526D01*
X94474520Y-114979531D01*
X94897404Y-116125186D01*
X95240831Y-117106187D01*
X95510197Y-117940740D01*
X95710893Y-118647051D01*
X95848315Y-119243325D01*
X95927854Y-119747770D01*
X95945985Y-119946500D01*
X95967948Y-120325711D01*
X95957509Y-120568280D01*
X95896470Y-120738650D01*
X95766635Y-120901266D01*
X95640031Y-121030032D01*
X95381413Y-121256256D01*
X95144383Y-121360719D01*
X94838574Y-121385794D01*
X94131208Y-121288539D01*
X93476629Y-121005250D01*
X92893906Y-120548639D01*
X92402107Y-119931420D01*
X92241359Y-119654252D01*
X92059616Y-119328259D01*
X91900919Y-119074436D01*
X91798262Y-118945367D01*
X91795132Y-118943091D01*
X91642626Y-118904050D01*
X91355143Y-118876640D01*
X91047967Y-118867496D01*
X90409998Y-118865952D01*
X90479240Y-119193532D01*
X90707737Y-119840770D01*
X91102704Y-120490450D01*
X91631657Y-121112540D01*
X92262111Y-121677005D01*
X92961581Y-122153812D01*
X93697584Y-122512927D01*
X94258977Y-122688107D01*
X94837888Y-122770721D01*
X95457719Y-122776734D01*
X96023962Y-122707668D01*
X96223762Y-122656422D01*
X96734041Y-122446301D01*
X97100742Y-122164430D01*
X97361711Y-121801344D01*
X97523194Y-121361140D01*
X97584641Y-120788346D01*
X97544925Y-120077745D01*
X97402916Y-119224121D01*
X97157486Y-118222260D01*
X96807508Y-117066947D01*
X96351853Y-115752964D01*
X95789393Y-114275098D01*
X95666933Y-113966775D01*
X95176722Y-112798071D01*
X94707675Y-111809787D01*
X94245515Y-110983891D01*
X93775966Y-110302356D01*
X93284751Y-109747151D01*
X92757595Y-109300249D01*
X92180220Y-108943620D01*
X91538351Y-108659234D01*
X91433952Y-108621097D01*
X90771842Y-108449710D01*
X90084331Y-108384544D01*
X89416062Y-108420843D01*
G36*
X69777236Y-108504371D02*
G01*
X69214873Y-108714827D01*
X68795042Y-109043204D01*
X68514472Y-109496675D01*
X68369888Y-110082412D01*
X68358016Y-110807589D01*
X68475584Y-111679378D01*
X68646682Y-112433545D01*
X68832873Y-113113695D01*
X69033558Y-113776061D01*
X69237458Y-114389422D01*
X69433295Y-114922556D01*
X69609793Y-115344243D01*
X69755674Y-115623261D01*
X69832411Y-115716151D01*
X69946848Y-115757254D01*
X70176862Y-115789325D01*
X70539279Y-115813105D01*
X71050926Y-115829336D01*
X71728630Y-115838758D01*
X72589218Y-115842112D01*
X72693256Y-115842143D01*
X73557543Y-115844585D01*
X74237764Y-115852438D01*
X74751388Y-115866489D01*
X75115883Y-115887528D01*
X75348718Y-115916343D01*
X75467361Y-115953722D01*
X75484483Y-115968135D01*
X75560748Y-116121930D01*
X75679141Y-116430214D01*
X75827079Y-116853451D01*
X75991976Y-117352110D01*
X76161251Y-117886658D01*
X76322318Y-118417560D01*
X76462595Y-118905284D01*
X76569496Y-119310297D01*
X76620251Y-119536254D01*
X76669582Y-120161821D01*
X76561303Y-120668227D01*
X76307281Y-121045465D01*
X75919384Y-121283525D01*
X75409483Y-121372400D01*
X74789444Y-121302081D01*
X74588272Y-121249770D01*
X73949266Y-120961335D01*
X73399943Y-120502210D01*
X72963465Y-119892001D01*
X72945968Y-119859657D01*
X72698912Y-119420068D01*
X72490969Y-119132760D01*
X72279145Y-118965904D01*
X72020447Y-118887673D01*
X71671879Y-118866238D01*
X71603638Y-118865952D01*
X71293808Y-118869867D01*
X71100526Y-118901757D01*
X71018157Y-118991839D01*
X71041069Y-119170330D01*
X71163626Y-119467450D01*
X71380196Y-119913414D01*
X71400633Y-119954841D01*
X71868649Y-120705860D01*
X72470662Y-121363950D01*
X73176463Y-121914501D01*
X73955839Y-122342903D01*
X74778580Y-122634546D01*
X75614476Y-122774821D01*
X76433315Y-122749118D01*
X76944427Y-122635771D01*
X77493433Y-122370460D01*
X77910290Y-121963666D01*
X78183950Y-121435072D01*
X78303358Y-120804357D01*
X78282214Y-120253441D01*
X78168998Y-119612331D01*
X77979881Y-118824814D01*
X77727120Y-117925772D01*
X77422969Y-116950089D01*
X77079686Y-115932647D01*
X76709526Y-114908328D01*
X76567483Y-114540536D01*
X74948807Y-114540536D01*
X74830078Y-114571855D01*
X74532186Y-114595043D01*
X74077419Y-114609363D01*
X73488066Y-114614081D01*
X72859276Y-114609485D01*
X70829206Y-114582222D01*
X70439257Y-113423095D01*
X70231575Y-112757851D01*
X70097018Y-112195215D01*
X70018949Y-111657297D01*
X69993670Y-111337310D01*
X69938031Y-110410652D01*
X70246095Y-110102588D01*
X70440178Y-109929795D01*
X70629928Y-109837100D01*
X70889432Y-109800203D01*
X71185249Y-109794524D01*
X71762982Y-109851136D01*
X72286385Y-110029459D01*
X72767484Y-110342228D01*
X73218305Y-110802174D01*
X73650873Y-111422031D01*
X74077214Y-112214530D01*
X74509355Y-113192405D01*
X74594833Y-113404543D01*
X74756228Y-113831370D01*
X74876924Y-114191631D01*
X74943848Y-114443379D01*
X74948807Y-114540536D01*
X76567483Y-114540536D01*
X76324744Y-113912015D01*
X75937596Y-112978591D01*
X75560339Y-112142938D01*
X75205228Y-111439939D01*
X75151213Y-111341972D01*
X74541978Y-110415969D01*
X73847354Y-109655929D01*
X73077918Y-109068510D01*
X72244246Y-108660370D01*
X71356915Y-108438168D01*
X70485407Y-108404662D01*
X69777236Y-108504371D01*
G37*
X69777236Y-108504371D02*
X69214873Y-108714827D01*
X68795042Y-109043204D01*
X68514472Y-109496675D01*
X68369888Y-110082412D01*
X68358016Y-110807589D01*
X68475584Y-111679378D01*
X68646682Y-112433545D01*
X68832873Y-113113695D01*
X69033558Y-113776061D01*
X69237458Y-114389422D01*
X69433295Y-114922556D01*
X69609793Y-115344243D01*
X69755674Y-115623261D01*
X69832411Y-115716151D01*
X69946848Y-115757254D01*
X70176862Y-115789325D01*
X70539279Y-115813105D01*
X71050926Y-115829336D01*
X71728630Y-115838758D01*
X72589218Y-115842112D01*
X72693256Y-115842143D01*
X73557543Y-115844585D01*
X74237764Y-115852438D01*
X74751388Y-115866489D01*
X75115883Y-115887528D01*
X75348718Y-115916343D01*
X75467361Y-115953722D01*
X75484483Y-115968135D01*
X75560748Y-116121930D01*
X75679141Y-116430214D01*
X75827079Y-116853451D01*
X75991976Y-117352110D01*
X76161251Y-117886658D01*
X76322318Y-118417560D01*
X76462595Y-118905284D01*
X76569496Y-119310297D01*
X76620251Y-119536254D01*
X76669582Y-120161821D01*
X76561303Y-120668227D01*
X76307281Y-121045465D01*
X75919384Y-121283525D01*
X75409483Y-121372400D01*
X74789444Y-121302081D01*
X74588272Y-121249770D01*
X73949266Y-120961335D01*
X73399943Y-120502210D01*
X72963465Y-119892001D01*
X72945968Y-119859657D01*
X72698912Y-119420068D01*
X72490969Y-119132760D01*
X72279145Y-118965904D01*
X72020447Y-118887673D01*
X71671879Y-118866238D01*
X71603638Y-118865952D01*
X71293808Y-118869867D01*
X71100526Y-118901757D01*
X71018157Y-118991839D01*
X71041069Y-119170330D01*
X71163626Y-119467450D01*
X71380196Y-119913414D01*
X71400633Y-119954841D01*
X71868649Y-120705860D01*
X72470662Y-121363950D01*
X73176463Y-121914501D01*
X73955839Y-122342903D01*
X74778580Y-122634546D01*
X75614476Y-122774821D01*
X76433315Y-122749118D01*
X76944427Y-122635771D01*
X77493433Y-122370460D01*
X77910290Y-121963666D01*
X78183950Y-121435072D01*
X78303358Y-120804357D01*
X78282214Y-120253441D01*
X78168998Y-119612331D01*
X77979881Y-118824814D01*
X77727120Y-117925772D01*
X77422969Y-116950089D01*
X77079686Y-115932647D01*
X76709526Y-114908328D01*
X76567483Y-114540536D01*
X74948807Y-114540536D01*
X74830078Y-114571855D01*
X74532186Y-114595043D01*
X74077419Y-114609363D01*
X73488066Y-114614081D01*
X72859276Y-114609485D01*
X70829206Y-114582222D01*
X70439257Y-113423095D01*
X70231575Y-112757851D01*
X70097018Y-112195215D01*
X70018949Y-111657297D01*
X69993670Y-111337310D01*
X69938031Y-110410652D01*
X70246095Y-110102588D01*
X70440178Y-109929795D01*
X70629928Y-109837100D01*
X70889432Y-109800203D01*
X71185249Y-109794524D01*
X71762982Y-109851136D01*
X72286385Y-110029459D01*
X72767484Y-110342228D01*
X73218305Y-110802174D01*
X73650873Y-111422031D01*
X74077214Y-112214530D01*
X74509355Y-113192405D01*
X74594833Y-113404543D01*
X74756228Y-113831370D01*
X74876924Y-114191631D01*
X74943848Y-114443379D01*
X74948807Y-114540536D01*
X76567483Y-114540536D01*
X76324744Y-113912015D01*
X75937596Y-112978591D01*
X75560339Y-112142938D01*
X75205228Y-111439939D01*
X75151213Y-111341972D01*
X74541978Y-110415969D01*
X73847354Y-109655929D01*
X73077918Y-109068510D01*
X72244246Y-108660370D01*
X71356915Y-108438168D01*
X70485407Y-108404662D01*
X69777236Y-108504371D01*
G36*
X133673652Y-108616224D02*
G01*
X133524838Y-108671999D01*
X133519513Y-108678979D01*
X133544682Y-108783911D01*
X133632237Y-109059691D01*
X133775550Y-109487763D01*
X133967990Y-110049571D01*
X134202929Y-110726559D01*
X134473738Y-111500168D01*
X134773788Y-112351843D01*
X135096450Y-113263028D01*
X135435095Y-114215165D01*
X135783094Y-115189698D01*
X136133818Y-116168071D01*
X136480638Y-117131726D01*
X136816925Y-118062108D01*
X137136050Y-118940660D01*
X137431384Y-119748825D01*
X137696298Y-120468046D01*
X137924163Y-121079767D01*
X138108350Y-121565432D01*
X138242230Y-121906484D01*
X138262287Y-121955468D01*
X138424522Y-122314011D01*
X138581140Y-122521425D01*
X138790799Y-122613736D01*
X139112157Y-122626970D01*
X139336135Y-122614993D01*
X139631229Y-122582480D01*
X139774259Y-122518686D01*
X139814613Y-122399614D01*
X139814904Y-122382391D01*
X139780376Y-122250162D01*
X139678132Y-121934415D01*
X139510179Y-121440782D01*
X139278527Y-120774889D01*
X138985184Y-119942366D01*
X138632158Y-118948841D01*
X138221459Y-117799943D01*
X137755095Y-116501300D01*
X137235075Y-115058542D01*
X136663407Y-113477296D01*
X136042100Y-111763192D01*
X135373163Y-109921858D01*
X135115575Y-109213810D01*
X134980068Y-108928883D01*
X134825718Y-108724280D01*
X134773072Y-108684643D01*
X134564663Y-108624452D01*
X134264600Y-108592771D01*
X133943917Y-108589921D01*
X133673652Y-108616224D01*
G37*
X133673652Y-108616224D02*
X133524838Y-108671999D01*
X133519513Y-108678979D01*
X133544682Y-108783911D01*
X133632237Y-109059691D01*
X133775550Y-109487763D01*
X133967990Y-110049571D01*
X134202929Y-110726559D01*
X134473738Y-111500168D01*
X134773788Y-112351843D01*
X135096450Y-113263028D01*
X135435095Y-114215165D01*
X135783094Y-115189698D01*
X136133818Y-116168071D01*
X136480638Y-117131726D01*
X136816925Y-118062108D01*
X137136050Y-118940660D01*
X137431384Y-119748825D01*
X137696298Y-120468046D01*
X137924163Y-121079767D01*
X138108350Y-121565432D01*
X138242230Y-121906484D01*
X138262287Y-121955468D01*
X138424522Y-122314011D01*
X138581140Y-122521425D01*
X138790799Y-122613736D01*
X139112157Y-122626970D01*
X139336135Y-122614993D01*
X139631229Y-122582480D01*
X139774259Y-122518686D01*
X139814613Y-122399614D01*
X139814904Y-122382391D01*
X139780376Y-122250162D01*
X139678132Y-121934415D01*
X139510179Y-121440782D01*
X139278527Y-120774889D01*
X138985184Y-119942366D01*
X138632158Y-118948841D01*
X138221459Y-117799943D01*
X137755095Y-116501300D01*
X137235075Y-115058542D01*
X136663407Y-113477296D01*
X136042100Y-111763192D01*
X135373163Y-109921858D01*
X135115575Y-109213810D01*
X134980068Y-108928883D01*
X134825718Y-108724280D01*
X134773072Y-108684643D01*
X134564663Y-108624452D01*
X134264600Y-108592771D01*
X133943917Y-108589921D01*
X133673652Y-108616224D01*
G36*
X137628951Y-102975422D02*
G01*
X137342117Y-103029176D01*
X137144629Y-103122088D01*
X137093476Y-103210476D01*
X137127306Y-103327129D01*
X137225408Y-103618850D01*
X137382698Y-104071426D01*
X137594089Y-104670643D01*
X137854499Y-105402287D01*
X138158842Y-106252147D01*
X138502034Y-107206009D01*
X138878991Y-108249660D01*
X139284628Y-109368886D01*
X139713860Y-110549475D01*
X139984850Y-111292990D01*
X140531191Y-112791469D01*
X141011602Y-114112625D01*
X141429530Y-115268407D01*
X141788422Y-116270765D01*
X142091723Y-117131649D01*
X142342881Y-117863010D01*
X142545342Y-118476796D01*
X142702552Y-118984958D01*
X142817959Y-119399445D01*
X142895008Y-119732208D01*
X142937146Y-119995197D01*
X142947820Y-120200360D01*
X142930476Y-120359649D01*
X142888561Y-120485012D01*
X142825522Y-120588400D01*
X142744804Y-120681763D01*
X142704563Y-120722758D01*
X142444303Y-120909124D01*
X142101055Y-121067178D01*
X141979703Y-121105310D01*
X141700243Y-121189115D01*
X141572395Y-121273614D01*
X141551486Y-121405439D01*
X141572446Y-121530444D01*
X141659604Y-121828802D01*
X141792169Y-122156355D01*
X141807222Y-122187759D01*
X141951995Y-122426633D01*
X142128806Y-122534498D01*
X142385142Y-122567831D01*
X142724754Y-122542506D01*
X143118402Y-122452028D01*
X143282847Y-122395201D01*
X143799501Y-122132963D01*
X144179000Y-121800083D01*
X144423961Y-121382061D01*
X144537007Y-120864396D01*
X144520755Y-120232588D01*
X144377827Y-119472138D01*
X144110842Y-118568544D01*
X144021328Y-118308085D01*
X143902169Y-117973063D01*
X143724329Y-117477765D01*
X143495036Y-116842037D01*
X143221517Y-116085731D01*
X142910999Y-115228693D01*
X142570710Y-114290773D01*
X142207877Y-113291819D01*
X141829727Y-112251681D01*
X141443487Y-111190206D01*
X141056384Y-110127244D01*
X140675646Y-109082642D01*
X140308500Y-108076250D01*
X139962173Y-107127917D01*
X139643892Y-106257490D01*
X139360885Y-105484820D01*
X139120379Y-104829753D01*
X138929601Y-104312140D01*
X138795778Y-103951828D01*
X138744370Y-103815588D01*
X138574831Y-103417839D01*
X138421906Y-103174927D01*
X138257606Y-103045101D01*
X138215785Y-103027045D01*
X137941414Y-102971240D01*
X137628951Y-102975422D01*
G37*
X137628951Y-102975422D02*
X137342117Y-103029176D01*
X137144629Y-103122088D01*
X137093476Y-103210476D01*
X137127306Y-103327129D01*
X137225408Y-103618850D01*
X137382698Y-104071426D01*
X137594089Y-104670643D01*
X137854499Y-105402287D01*
X138158842Y-106252147D01*
X138502034Y-107206009D01*
X138878991Y-108249660D01*
X139284628Y-109368886D01*
X139713860Y-110549475D01*
X139984850Y-111292990D01*
X140531191Y-112791469D01*
X141011602Y-114112625D01*
X141429530Y-115268407D01*
X141788422Y-116270765D01*
X142091723Y-117131649D01*
X142342881Y-117863010D01*
X142545342Y-118476796D01*
X142702552Y-118984958D01*
X142817959Y-119399445D01*
X142895008Y-119732208D01*
X142937146Y-119995197D01*
X142947820Y-120200360D01*
X142930476Y-120359649D01*
X142888561Y-120485012D01*
X142825522Y-120588400D01*
X142744804Y-120681763D01*
X142704563Y-120722758D01*
X142444303Y-120909124D01*
X142101055Y-121067178D01*
X141979703Y-121105310D01*
X141700243Y-121189115D01*
X141572395Y-121273614D01*
X141551486Y-121405439D01*
X141572446Y-121530444D01*
X141659604Y-121828802D01*
X141792169Y-122156355D01*
X141807222Y-122187759D01*
X141951995Y-122426633D01*
X142128806Y-122534498D01*
X142385142Y-122567831D01*
X142724754Y-122542506D01*
X143118402Y-122452028D01*
X143282847Y-122395201D01*
X143799501Y-122132963D01*
X144179000Y-121800083D01*
X144423961Y-121382061D01*
X144537007Y-120864396D01*
X144520755Y-120232588D01*
X144377827Y-119472138D01*
X144110842Y-118568544D01*
X144021328Y-118308085D01*
X143902169Y-117973063D01*
X143724329Y-117477765D01*
X143495036Y-116842037D01*
X143221517Y-116085731D01*
X142910999Y-115228693D01*
X142570710Y-114290773D01*
X142207877Y-113291819D01*
X141829727Y-112251681D01*
X141443487Y-111190206D01*
X141056384Y-110127244D01*
X140675646Y-109082642D01*
X140308500Y-108076250D01*
X139962173Y-107127917D01*
X139643892Y-106257490D01*
X139360885Y-105484820D01*
X139120379Y-104829753D01*
X138929601Y-104312140D01*
X138795778Y-103951828D01*
X138744370Y-103815588D01*
X138574831Y-103417839D01*
X138421906Y-103174927D01*
X138257606Y-103045101D01*
X138215785Y-103027045D01*
X137941414Y-102971240D01*
X137628951Y-102975422D01*
G36*
X126031212Y-108429291D02*
G01*
X125464359Y-108608811D01*
X125018249Y-108932478D01*
X124704154Y-109384337D01*
X124533348Y-109948436D01*
X124517105Y-110608821D01*
X124655841Y-111313333D01*
X124715394Y-111493444D01*
X124836179Y-111840974D01*
X125010266Y-112333990D01*
X125229725Y-112950559D01*
X125486625Y-113668747D01*
X125773037Y-114466622D01*
X126081030Y-115322251D01*
X126402675Y-116213700D01*
X126730041Y-117119037D01*
X127055197Y-118016330D01*
X127370215Y-118883644D01*
X127667163Y-119699047D01*
X127938112Y-120440606D01*
X128175131Y-121086388D01*
X128370290Y-121614460D01*
X128515660Y-122002889D01*
X128598322Y-122217341D01*
X128749491Y-122595317D01*
X129444103Y-122595317D01*
X129788819Y-122582492D01*
X130037392Y-122548779D01*
X130138454Y-122501326D01*
X130138714Y-122498675D01*
X130105165Y-122388612D01*
X130008623Y-122106428D01*
X129855246Y-121669358D01*
X129651193Y-121094635D01*
X129402620Y-120399496D01*
X129115687Y-119601173D01*
X128796550Y-118716902D01*
X128451368Y-117763918D01*
X128184974Y-117030619D01*
X127821164Y-116026463D01*
X127476948Y-115068787D01*
X127158822Y-114176183D01*
X126873284Y-113367240D01*
X126626831Y-112660550D01*
X126425960Y-112074701D01*
X126277170Y-111628286D01*
X126186957Y-111339893D01*
X126162403Y-111243627D01*
X126154460Y-110743536D01*
X126295672Y-110347202D01*
X126560005Y-110058650D01*
X126921424Y-109881907D01*
X127353895Y-109820997D01*
X127831383Y-109879949D01*
X128327853Y-110062787D01*
X128817272Y-110373538D01*
X129232754Y-110768810D01*
X129403859Y-110981471D01*
X129565055Y-111226959D01*
X129728530Y-111531972D01*
X129906470Y-111923208D01*
X130111062Y-112427366D01*
X130354494Y-113071144D01*
X130632168Y-113834536D01*
X131008928Y-114880548D01*
X131386762Y-115926009D01*
X131759108Y-116953019D01*
X132119403Y-117943678D01*
X132461084Y-118880085D01*
X132777588Y-119744340D01*
X133062353Y-120518543D01*
X133308815Y-121184793D01*
X133510412Y-121725189D01*
X133660580Y-122121832D01*
X133752757Y-122356821D01*
X133776729Y-122411375D01*
X133865599Y-122511091D01*
X134030210Y-122567660D01*
X134318060Y-122591852D01*
X134587965Y-122595317D01*
X134977605Y-122585329D01*
X135192221Y-122552114D01*
X135257540Y-122490801D01*
X135253118Y-122469325D01*
X135211564Y-122355916D01*
X135106715Y-122068472D01*
X134944183Y-121622404D01*
X134729576Y-121033123D01*
X134468505Y-120316039D01*
X134166580Y-119486563D01*
X133829411Y-118560105D01*
X133462609Y-117552078D01*
X133071783Y-116477891D01*
X132753601Y-115603268D01*
X132346393Y-114487225D01*
X131956481Y-113425054D01*
X131589691Y-112432227D01*
X131251851Y-111524215D01*
X130948787Y-110716490D01*
X130686327Y-110024522D01*
X130470299Y-109463785D01*
X130306529Y-109049749D01*
X130200845Y-108797885D01*
X130162622Y-108724101D01*
X129961060Y-108634538D01*
X129601292Y-108589117D01*
X129425959Y-108585000D01*
X129054314Y-108604251D01*
X128860557Y-108677098D01*
X128823383Y-108826185D01*
X128921481Y-109074156D01*
X128937356Y-109104227D01*
X129007940Y-109301989D01*
X128940282Y-109358882D01*
X128743883Y-109271186D01*
X128657811Y-109213684D01*
X128063022Y-108855184D01*
X127437875Y-108583718D01*
X126853110Y-108428441D01*
X126707533Y-108409872D01*
X126031212Y-108429291D01*
G37*
X126031212Y-108429291D02*
X125464359Y-108608811D01*
X125018249Y-108932478D01*
X124704154Y-109384337D01*
X124533348Y-109948436D01*
X124517105Y-110608821D01*
X124655841Y-111313333D01*
X124715394Y-111493444D01*
X124836179Y-111840974D01*
X125010266Y-112333990D01*
X125229725Y-112950559D01*
X125486625Y-113668747D01*
X125773037Y-114466622D01*
X126081030Y-115322251D01*
X126402675Y-116213700D01*
X126730041Y-117119037D01*
X127055197Y-118016330D01*
X127370215Y-118883644D01*
X127667163Y-119699047D01*
X127938112Y-120440606D01*
X128175131Y-121086388D01*
X128370290Y-121614460D01*
X128515660Y-122002889D01*
X128598322Y-122217341D01*
X128749491Y-122595317D01*
X129444103Y-122595317D01*
X129788819Y-122582492D01*
X130037392Y-122548779D01*
X130138454Y-122501326D01*
X130138714Y-122498675D01*
X130105165Y-122388612D01*
X130008623Y-122106428D01*
X129855246Y-121669358D01*
X129651193Y-121094635D01*
X129402620Y-120399496D01*
X129115687Y-119601173D01*
X128796550Y-118716902D01*
X128451368Y-117763918D01*
X128184974Y-117030619D01*
X127821164Y-116026463D01*
X127476948Y-115068787D01*
X127158822Y-114176183D01*
X126873284Y-113367240D01*
X126626831Y-112660550D01*
X126425960Y-112074701D01*
X126277170Y-111628286D01*
X126186957Y-111339893D01*
X126162403Y-111243627D01*
X126154460Y-110743536D01*
X126295672Y-110347202D01*
X126560005Y-110058650D01*
X126921424Y-109881907D01*
X127353895Y-109820997D01*
X127831383Y-109879949D01*
X128327853Y-110062787D01*
X128817272Y-110373538D01*
X129232754Y-110768810D01*
X129403859Y-110981471D01*
X129565055Y-111226959D01*
X129728530Y-111531972D01*
X129906470Y-111923208D01*
X130111062Y-112427366D01*
X130354494Y-113071144D01*
X130632168Y-113834536D01*
X131008928Y-114880548D01*
X131386762Y-115926009D01*
X131759108Y-116953019D01*
X132119403Y-117943678D01*
X132461084Y-118880085D01*
X132777588Y-119744340D01*
X133062353Y-120518543D01*
X133308815Y-121184793D01*
X133510412Y-121725189D01*
X133660580Y-122121832D01*
X133752757Y-122356821D01*
X133776729Y-122411375D01*
X133865599Y-122511091D01*
X134030210Y-122567660D01*
X134318060Y-122591852D01*
X134587965Y-122595317D01*
X134977605Y-122585329D01*
X135192221Y-122552114D01*
X135257540Y-122490801D01*
X135253118Y-122469325D01*
X135211564Y-122355916D01*
X135106715Y-122068472D01*
X134944183Y-121622404D01*
X134729576Y-121033123D01*
X134468505Y-120316039D01*
X134166580Y-119486563D01*
X133829411Y-118560105D01*
X133462609Y-117552078D01*
X133071783Y-116477891D01*
X132753601Y-115603268D01*
X132346393Y-114487225D01*
X131956481Y-113425054D01*
X131589691Y-112432227D01*
X131251851Y-111524215D01*
X130948787Y-110716490D01*
X130686327Y-110024522D01*
X130470299Y-109463785D01*
X130306529Y-109049749D01*
X130200845Y-108797885D01*
X130162622Y-108724101D01*
X129961060Y-108634538D01*
X129601292Y-108589117D01*
X129425959Y-108585000D01*
X129054314Y-108604251D01*
X128860557Y-108677098D01*
X128823383Y-108826185D01*
X128921481Y-109074156D01*
X128937356Y-109104227D01*
X129007940Y-109301989D01*
X128940282Y-109358882D01*
X128743883Y-109271186D01*
X128657811Y-109213684D01*
X128063022Y-108855184D01*
X127437875Y-108583718D01*
X126853110Y-108428441D01*
X126707533Y-108409872D01*
X126031212Y-108429291D01*
G36*
X108870985Y-102954458D02*
G01*
X107984117Y-102996500D01*
X107259669Y-103072753D01*
X106678748Y-103188527D01*
X106222463Y-103349132D01*
X105871922Y-103559879D01*
X105608235Y-103826078D01*
X105412510Y-104153038D01*
X105381459Y-104222437D01*
X105260025Y-104704236D01*
X105234032Y-105328613D01*
X105297554Y-106063896D01*
X105444667Y-106878415D01*
X105669446Y-107740497D01*
X105965968Y-108618473D01*
X106328307Y-109480670D01*
X106389081Y-109608995D01*
X107000827Y-110749518D01*
X107644277Y-111693079D01*
X108321584Y-112442124D01*
X109034901Y-112999101D01*
X109649063Y-113314563D01*
X109903676Y-113441446D01*
X110077898Y-113571094D01*
X110083346Y-113577380D01*
X110116589Y-113717740D01*
X110149588Y-114056264D01*
X110182180Y-114589528D01*
X110214202Y-115314110D01*
X110245492Y-116226586D01*
X110275886Y-117323533D01*
X110290368Y-117925862D01*
X110313441Y-118836175D01*
X110339167Y-119689748D01*
X110366571Y-120464198D01*
X110394679Y-121137142D01*
X110422516Y-121686198D01*
X110449107Y-122088984D01*
X110473476Y-122323118D01*
X110483885Y-122368532D01*
X110558977Y-122492765D01*
X110685379Y-122561277D01*
X110915824Y-122590084D01*
X111230544Y-122595317D01*
X111559512Y-122592075D01*
X111805012Y-122565378D01*
X111978117Y-122489768D01*
X112089899Y-122339788D01*
X112151431Y-122089983D01*
X112173785Y-121714895D01*
X112168034Y-121189068D01*
X112145420Y-120491936D01*
X112116727Y-119729120D01*
X112080388Y-118861960D01*
X112040484Y-117982771D01*
X112001094Y-117183869D01*
X111989515Y-116964890D01*
X111957490Y-116330235D01*
X111930114Y-115708869D01*
X111909390Y-115152611D01*
X111897322Y-114713284D01*
X111895063Y-114520644D01*
X111895063Y-113826270D01*
X112947776Y-113826270D01*
X113350080Y-113824732D01*
X113669796Y-113833554D01*
X113924611Y-113872893D01*
X114132215Y-113962903D01*
X114310294Y-114123739D01*
X114476538Y-114375557D01*
X114648635Y-114738512D01*
X114844272Y-115232759D01*
X115081139Y-115878454D01*
X115313982Y-116522500D01*
X115652589Y-117455860D01*
X115933217Y-118228642D01*
X116166450Y-118869835D01*
X116362870Y-119408433D01*
X116533060Y-119873425D01*
X116687603Y-120293804D01*
X116837081Y-120698560D01*
X116925223Y-120936495D01*
X117087333Y-121382265D01*
X117219511Y-121762059D01*
X117307698Y-122034340D01*
X117337920Y-122155595D01*
X117430777Y-122362097D01*
X117686829Y-122509767D01*
X118072305Y-122582670D01*
X118253000Y-122587360D01*
X118583175Y-122573962D01*
X118837954Y-122548231D01*
X118925420Y-122528564D01*
X119040161Y-122395671D01*
X119051412Y-122330483D01*
X119014463Y-122155780D01*
X118904129Y-121795883D01*
X118721180Y-121253052D01*
X118466383Y-120529548D01*
X118140508Y-119627628D01*
X118009400Y-119269127D01*
X117818785Y-118747804D01*
X117594485Y-118132084D01*
X117371170Y-117517213D01*
X117257330Y-117202857D01*
X116757579Y-115822982D01*
X116273390Y-114490109D01*
X115825280Y-113260671D01*
X115608268Y-112667143D01*
X115412456Y-112131180D01*
X113703994Y-112131180D01*
X113614688Y-112243826D01*
X113402915Y-112300112D01*
X113047130Y-112315510D01*
X112525789Y-112305494D01*
X112071452Y-112292222D01*
X111448620Y-112272552D01*
X110989679Y-112250176D01*
X110656952Y-112219859D01*
X110412758Y-112176363D01*
X110219417Y-112114452D01*
X110039251Y-112028890D01*
X109991880Y-112003206D01*
X109577022Y-111701633D01*
X109129861Y-111251032D01*
X108684486Y-110692713D01*
X108274988Y-110067990D01*
X108040454Y-109638408D01*
X107632932Y-108701170D01*
X107323274Y-107730334D01*
X107127228Y-106784970D01*
X107060558Y-105963335D01*
X107066407Y-105558360D01*
X107098392Y-105294061D01*
X107171123Y-105109855D01*
X107299210Y-104945159D01*
X107308530Y-104935054D01*
X107520189Y-104752340D01*
X107787195Y-104619866D01*
X108142078Y-104530787D01*
X108617374Y-104478258D01*
X109245615Y-104455434D01*
X109599419Y-104453022D01*
X110881950Y-104452460D01*
X111030274Y-104739287D01*
X111132001Y-104966116D01*
X111273163Y-105319250D01*
X111428273Y-105734146D01*
X111478035Y-105873216D01*
X111651720Y-106359809D01*
X111860653Y-106938160D01*
X112069672Y-107511135D01*
X112149558Y-107728254D01*
X112355367Y-108290637D01*
X112582742Y-108919558D01*
X112792835Y-109507351D01*
X112858720Y-109693730D01*
X113038576Y-110195955D01*
X113229164Y-110714148D01*
X113398591Y-111162028D01*
X113452572Y-111300342D01*
X113601391Y-111674911D01*
X113692381Y-111946699D01*
X113703994Y-112131180D01*
X115412456Y-112131180D01*
X115252253Y-111692685D01*
X114883993Y-110680506D01*
X114492443Y-109600077D01*
X114066560Y-108420870D01*
X113595301Y-107112358D01*
X113074074Y-105661984D01*
X112796058Y-104894425D01*
X112573080Y-104295807D01*
X112395989Y-103843974D01*
X112255633Y-103516774D01*
X112142858Y-103292053D01*
X112048513Y-103147655D01*
X112022667Y-103116944D01*
X111947459Y-103054974D01*
X111830587Y-103009315D01*
X111643561Y-102977565D01*
X111357893Y-102957322D01*
X110945095Y-102946185D01*
X110376677Y-102941753D01*
X109939164Y-102941317D01*
X108870985Y-102954458D01*
G37*
X108870985Y-102954458D02*
X107984117Y-102996500D01*
X107259669Y-103072753D01*
X106678748Y-103188527D01*
X106222463Y-103349132D01*
X105871922Y-103559879D01*
X105608235Y-103826078D01*
X105412510Y-104153038D01*
X105381459Y-104222437D01*
X105260025Y-104704236D01*
X105234032Y-105328613D01*
X105297554Y-106063896D01*
X105444667Y-106878415D01*
X105669446Y-107740497D01*
X105965968Y-108618473D01*
X106328307Y-109480670D01*
X106389081Y-109608995D01*
X107000827Y-110749518D01*
X107644277Y-111693079D01*
X108321584Y-112442124D01*
X109034901Y-112999101D01*
X109649063Y-113314563D01*
X109903676Y-113441446D01*
X110077898Y-113571094D01*
X110083346Y-113577380D01*
X110116589Y-113717740D01*
X110149588Y-114056264D01*
X110182180Y-114589528D01*
X110214202Y-115314110D01*
X110245492Y-116226586D01*
X110275886Y-117323533D01*
X110290368Y-117925862D01*
X110313441Y-118836175D01*
X110339167Y-119689748D01*
X110366571Y-120464198D01*
X110394679Y-121137142D01*
X110422516Y-121686198D01*
X110449107Y-122088984D01*
X110473476Y-122323118D01*
X110483885Y-122368532D01*
X110558977Y-122492765D01*
X110685379Y-122561277D01*
X110915824Y-122590084D01*
X111230544Y-122595317D01*
X111559512Y-122592075D01*
X111805012Y-122565378D01*
X111978117Y-122489768D01*
X112089899Y-122339788D01*
X112151431Y-122089983D01*
X112173785Y-121714895D01*
X112168034Y-121189068D01*
X112145420Y-120491936D01*
X112116727Y-119729120D01*
X112080388Y-118861960D01*
X112040484Y-117982771D01*
X112001094Y-117183869D01*
X111989515Y-116964890D01*
X111957490Y-116330235D01*
X111930114Y-115708869D01*
X111909390Y-115152611D01*
X111897322Y-114713284D01*
X111895063Y-114520644D01*
X111895063Y-113826270D01*
X112947776Y-113826270D01*
X113350080Y-113824732D01*
X113669796Y-113833554D01*
X113924611Y-113872893D01*
X114132215Y-113962903D01*
X114310294Y-114123739D01*
X114476538Y-114375557D01*
X114648635Y-114738512D01*
X114844272Y-115232759D01*
X115081139Y-115878454D01*
X115313982Y-116522500D01*
X115652589Y-117455860D01*
X115933217Y-118228642D01*
X116166450Y-118869835D01*
X116362870Y-119408433D01*
X116533060Y-119873425D01*
X116687603Y-120293804D01*
X116837081Y-120698560D01*
X116925223Y-120936495D01*
X117087333Y-121382265D01*
X117219511Y-121762059D01*
X117307698Y-122034340D01*
X117337920Y-122155595D01*
X117430777Y-122362097D01*
X117686829Y-122509767D01*
X118072305Y-122582670D01*
X118253000Y-122587360D01*
X118583175Y-122573962D01*
X118837954Y-122548231D01*
X118925420Y-122528564D01*
X119040161Y-122395671D01*
X119051412Y-122330483D01*
X119014463Y-122155780D01*
X118904129Y-121795883D01*
X118721180Y-121253052D01*
X118466383Y-120529548D01*
X118140508Y-119627628D01*
X118009400Y-119269127D01*
X117818785Y-118747804D01*
X117594485Y-118132084D01*
X117371170Y-117517213D01*
X117257330Y-117202857D01*
X116757579Y-115822982D01*
X116273390Y-114490109D01*
X115825280Y-113260671D01*
X115608268Y-112667143D01*
X115412456Y-112131180D01*
X113703994Y-112131180D01*
X113614688Y-112243826D01*
X113402915Y-112300112D01*
X113047130Y-112315510D01*
X112525789Y-112305494D01*
X112071452Y-112292222D01*
X111448620Y-112272552D01*
X110989679Y-112250176D01*
X110656952Y-112219859D01*
X110412758Y-112176363D01*
X110219417Y-112114452D01*
X110039251Y-112028890D01*
X109991880Y-112003206D01*
X109577022Y-111701633D01*
X109129861Y-111251032D01*
X108684486Y-110692713D01*
X108274988Y-110067990D01*
X108040454Y-109638408D01*
X107632932Y-108701170D01*
X107323274Y-107730334D01*
X107127228Y-106784970D01*
X107060558Y-105963335D01*
X107066407Y-105558360D01*
X107098392Y-105294061D01*
X107171123Y-105109855D01*
X107299210Y-104945159D01*
X107308530Y-104935054D01*
X107520189Y-104752340D01*
X107787195Y-104619866D01*
X108142078Y-104530787D01*
X108617374Y-104478258D01*
X109245615Y-104455434D01*
X109599419Y-104453022D01*
X110881950Y-104452460D01*
X111030274Y-104739287D01*
X111132001Y-104966116D01*
X111273163Y-105319250D01*
X111428273Y-105734146D01*
X111478035Y-105873216D01*
X111651720Y-106359809D01*
X111860653Y-106938160D01*
X112069672Y-107511135D01*
X112149558Y-107728254D01*
X112355367Y-108290637D01*
X112582742Y-108919558D01*
X112792835Y-109507351D01*
X112858720Y-109693730D01*
X113038576Y-110195955D01*
X113229164Y-110714148D01*
X113398591Y-111162028D01*
X113452572Y-111300342D01*
X113601391Y-111674911D01*
X113692381Y-111946699D01*
X113703994Y-112131180D01*
X115412456Y-112131180D01*
X115252253Y-111692685D01*
X114883993Y-110680506D01*
X114492443Y-109600077D01*
X114066560Y-108420870D01*
X113595301Y-107112358D01*
X113074074Y-105661984D01*
X112796058Y-104894425D01*
X112573080Y-104295807D01*
X112395989Y-103843974D01*
X112255633Y-103516774D01*
X112142858Y-103292053D01*
X112048513Y-103147655D01*
X112022667Y-103116944D01*
X111947459Y-103054974D01*
X111830587Y-103009315D01*
X111643561Y-102977565D01*
X111357893Y-102957322D01*
X110945095Y-102946185D01*
X110376677Y-102941753D01*
X109939164Y-102941317D01*
X108870985Y-102954458D01*
G36*
X80952553Y-102990796D02*
G01*
X80648267Y-103039387D01*
X80499445Y-103097724D01*
X80461265Y-103198432D01*
X80480815Y-103334197D01*
X80524170Y-103475163D01*
X80630526Y-103788408D01*
X80793796Y-104256829D01*
X81007893Y-104863325D01*
X81266731Y-105590796D01*
X81564223Y-106422140D01*
X81894282Y-107340256D01*
X82250822Y-108328042D01*
X82627755Y-109368399D01*
X82667884Y-109478932D01*
X83043150Y-110516310D01*
X83395269Y-111497350D01*
X83718563Y-112405727D01*
X84007353Y-113225113D01*
X84255961Y-113939181D01*
X84458708Y-114531606D01*
X84609915Y-114986059D01*
X84703905Y-115286215D01*
X84734998Y-115415745D01*
X84733984Y-115419360D01*
X84696676Y-115413410D01*
X84613059Y-115355321D01*
X84474169Y-115236159D01*
X84271040Y-115046988D01*
X83994707Y-114778876D01*
X83636205Y-114422887D01*
X83186567Y-113970088D01*
X82636830Y-113411545D01*
X81978028Y-112738323D01*
X81201196Y-111941489D01*
X80297368Y-111012107D01*
X79873443Y-110575675D01*
X77940373Y-108585000D01*
X76291447Y-108585000D01*
X76669510Y-109013373D01*
X76835384Y-109192589D01*
X77122215Y-109492882D01*
X77508773Y-109892431D01*
X77973828Y-110369412D01*
X78496152Y-110902003D01*
X79054514Y-111468380D01*
X79251477Y-111667476D01*
X79869197Y-112292259D01*
X80359292Y-112791815D01*
X80736476Y-113183664D01*
X81015464Y-113485325D01*
X81210970Y-113714319D01*
X81337708Y-113888165D01*
X81410395Y-114024384D01*
X81443743Y-114140495D01*
X81452468Y-114254017D01*
X81452500Y-114288111D01*
X81444392Y-114475780D01*
X81422535Y-114839755D01*
X81388634Y-115355347D01*
X81344393Y-115997868D01*
X81291516Y-116742630D01*
X81231706Y-117564944D01*
X81166669Y-118440123D01*
X81157386Y-118563571D01*
X81094376Y-119428287D01*
X81040010Y-120230076D01*
X80995491Y-120946692D01*
X80962020Y-121555891D01*
X80940801Y-122035427D01*
X80933036Y-122363055D01*
X80939928Y-122516530D01*
X80943247Y-122524449D01*
X81075804Y-122559853D01*
X81352426Y-122578343D01*
X81716033Y-122576384D01*
X81756969Y-122574846D01*
X82189822Y-122542642D01*
X82450854Y-122484734D01*
X82568907Y-122394691D01*
X82569401Y-122393730D01*
X82592411Y-122259793D01*
X82622368Y-121949218D01*
X82657608Y-121486770D01*
X82696464Y-120897214D01*
X82737271Y-120205314D01*
X82778364Y-119435837D01*
X82805494Y-118883552D01*
X82845128Y-118079028D01*
X82884464Y-117338297D01*
X82921997Y-116685539D01*
X82956220Y-116144933D01*
X82985629Y-115740659D01*
X83008719Y-115496897D01*
X83020189Y-115434912D01*
X83104675Y-115470710D01*
X83297805Y-115630030D01*
X83573650Y-115886305D01*
X83906278Y-116212969D01*
X84269760Y-116583454D01*
X84638164Y-116971192D01*
X84985560Y-117349618D01*
X85286017Y-117692164D01*
X85513604Y-117972262D01*
X85565930Y-118043135D01*
X85792545Y-118384866D01*
X85999773Y-118755839D01*
X86203296Y-119191483D01*
X86418801Y-119727225D01*
X86661971Y-120398494D01*
X86844980Y-120932222D01*
X87020505Y-121440302D01*
X87181501Y-121884905D01*
X87313827Y-122228532D01*
X87403344Y-122433687D01*
X87424599Y-122469325D01*
X87574170Y-122541456D01*
X87841830Y-122585345D01*
X88168051Y-122601415D01*
X88493306Y-122590088D01*
X88758070Y-122551789D01*
X88902814Y-122486939D01*
X88914111Y-122458740D01*
X88880395Y-122345497D01*
X88782566Y-122056799D01*
X88625602Y-121606569D01*
X88414482Y-121008731D01*
X88154181Y-120277208D01*
X87849680Y-119425923D01*
X87505955Y-118468798D01*
X87127985Y-117419758D01*
X86720748Y-116292725D01*
X86289220Y-115101623D01*
X85932072Y-114118066D01*
X85472110Y-112852566D01*
X85022802Y-111616255D01*
X84590199Y-110425791D01*
X84180353Y-109297833D01*
X83799316Y-108249039D01*
X83453139Y-107296066D01*
X83147873Y-106455574D01*
X82889571Y-105744221D01*
X82684282Y-105178664D01*
X82538060Y-104775563D01*
X82479654Y-104614353D01*
X82246276Y-103993926D01*
X82047636Y-103543337D01*
X81861579Y-103239029D01*
X81665948Y-103057448D01*
X81438588Y-102975038D01*
X81157343Y-102968243D01*
X80952553Y-102990796D01*
G37*
X80952553Y-102990796D02*
X80648267Y-103039387D01*
X80499445Y-103097724D01*
X80461265Y-103198432D01*
X80480815Y-103334197D01*
X80524170Y-103475163D01*
X80630526Y-103788408D01*
X80793796Y-104256829D01*
X81007893Y-104863325D01*
X81266731Y-105590796D01*
X81564223Y-106422140D01*
X81894282Y-107340256D01*
X82250822Y-108328042D01*
X82627755Y-109368399D01*
X82667884Y-109478932D01*
X83043150Y-110516310D01*
X83395269Y-111497350D01*
X83718563Y-112405727D01*
X84007353Y-113225113D01*
X84255961Y-113939181D01*
X84458708Y-114531606D01*
X84609915Y-114986059D01*
X84703905Y-115286215D01*
X84734998Y-115415745D01*
X84733984Y-115419360D01*
X84696676Y-115413410D01*
X84613059Y-115355321D01*
X84474169Y-115236159D01*
X84271040Y-115046988D01*
X83994707Y-114778876D01*
X83636205Y-114422887D01*
X83186567Y-113970088D01*
X82636830Y-113411545D01*
X81978028Y-112738323D01*
X81201196Y-111941489D01*
X80297368Y-111012107D01*
X79873443Y-110575675D01*
X77940373Y-108585000D01*
X76291447Y-108585000D01*
X76669510Y-109013373D01*
X76835384Y-109192589D01*
X77122215Y-109492882D01*
X77508773Y-109892431D01*
X77973828Y-110369412D01*
X78496152Y-110902003D01*
X79054514Y-111468380D01*
X79251477Y-111667476D01*
X79869197Y-112292259D01*
X80359292Y-112791815D01*
X80736476Y-113183664D01*
X81015464Y-113485325D01*
X81210970Y-113714319D01*
X81337708Y-113888165D01*
X81410395Y-114024384D01*
X81443743Y-114140495D01*
X81452468Y-114254017D01*
X81452500Y-114288111D01*
X81444392Y-114475780D01*
X81422535Y-114839755D01*
X81388634Y-115355347D01*
X81344393Y-115997868D01*
X81291516Y-116742630D01*
X81231706Y-117564944D01*
X81166669Y-118440123D01*
X81157386Y-118563571D01*
X81094376Y-119428287D01*
X81040010Y-120230076D01*
X80995491Y-120946692D01*
X80962020Y-121555891D01*
X80940801Y-122035427D01*
X80933036Y-122363055D01*
X80939928Y-122516530D01*
X80943247Y-122524449D01*
X81075804Y-122559853D01*
X81352426Y-122578343D01*
X81716033Y-122576384D01*
X81756969Y-122574846D01*
X82189822Y-122542642D01*
X82450854Y-122484734D01*
X82568907Y-122394691D01*
X82569401Y-122393730D01*
X82592411Y-122259793D01*
X82622368Y-121949218D01*
X82657608Y-121486770D01*
X82696464Y-120897214D01*
X82737271Y-120205314D01*
X82778364Y-119435837D01*
X82805494Y-118883552D01*
X82845128Y-118079028D01*
X82884464Y-117338297D01*
X82921997Y-116685539D01*
X82956220Y-116144933D01*
X82985629Y-115740659D01*
X83008719Y-115496897D01*
X83020189Y-115434912D01*
X83104675Y-115470710D01*
X83297805Y-115630030D01*
X83573650Y-115886305D01*
X83906278Y-116212969D01*
X84269760Y-116583454D01*
X84638164Y-116971192D01*
X84985560Y-117349618D01*
X85286017Y-117692164D01*
X85513604Y-117972262D01*
X85565930Y-118043135D01*
X85792545Y-118384866D01*
X85999773Y-118755839D01*
X86203296Y-119191483D01*
X86418801Y-119727225D01*
X86661971Y-120398494D01*
X86844980Y-120932222D01*
X87020505Y-121440302D01*
X87181501Y-121884905D01*
X87313827Y-122228532D01*
X87403344Y-122433687D01*
X87424599Y-122469325D01*
X87574170Y-122541456D01*
X87841830Y-122585345D01*
X88168051Y-122601415D01*
X88493306Y-122590088D01*
X88758070Y-122551789D01*
X88902814Y-122486939D01*
X88914111Y-122458740D01*
X88880395Y-122345497D01*
X88782566Y-122056799D01*
X88625602Y-121606569D01*
X88414482Y-121008731D01*
X88154181Y-120277208D01*
X87849680Y-119425923D01*
X87505955Y-118468798D01*
X87127985Y-117419758D01*
X86720748Y-116292725D01*
X86289220Y-115101623D01*
X85932072Y-114118066D01*
X85472110Y-112852566D01*
X85022802Y-111616255D01*
X84590199Y-110425791D01*
X84180353Y-109297833D01*
X83799316Y-108249039D01*
X83453139Y-107296066D01*
X83147873Y-106455574D01*
X82889571Y-105744221D01*
X82684282Y-105178664D01*
X82538060Y-104775563D01*
X82479654Y-104614353D01*
X82246276Y-103993926D01*
X82047636Y-103543337D01*
X81861579Y-103239029D01*
X81665948Y-103057448D01*
X81438588Y-102975038D01*
X81157343Y-102968243D01*
X80952553Y-102990796D01*
G36*
X61310024Y-104475424D02*
G01*
X61153704Y-104513641D01*
X61017277Y-104654409D01*
X60994269Y-104757453D01*
X61027758Y-104906559D01*
X61120906Y-105211385D01*
X61262733Y-105638848D01*
X61442261Y-106155860D01*
X61648512Y-106729336D01*
X61649428Y-106731841D01*
X61854139Y-107293238D01*
X62032709Y-107785896D01*
X62174431Y-108180033D01*
X62268601Y-108445871D01*
X62304512Y-108553630D01*
X62304587Y-108554300D01*
X62210427Y-108566387D01*
X61954475Y-108576234D01*
X61576522Y-108582786D01*
X61145460Y-108585000D01*
X60624826Y-108586417D01*
X60280025Y-108603217D01*
X60085333Y-108654222D01*
X60015024Y-108758253D01*
X60043373Y-108934132D01*
X60144655Y-109200681D01*
X60181136Y-109290556D01*
X60364675Y-109744127D01*
X62748779Y-109844921D01*
X62978315Y-110399286D01*
X63061582Y-110612074D01*
X63204844Y-110991460D01*
X63399616Y-111514443D01*
X63637413Y-112158021D01*
X63909750Y-112899195D01*
X64208140Y-113714961D01*
X64524098Y-114582321D01*
X64688783Y-115035794D01*
X65094453Y-116159338D01*
X65432359Y-117110826D01*
X65706246Y-117906679D01*
X65919856Y-118563317D01*
X66076932Y-119097165D01*
X66181218Y-119524642D01*
X66236457Y-119862172D01*
X66246392Y-120126175D01*
X66214766Y-120333074D01*
X66145322Y-120499291D01*
X66041804Y-120641247D01*
X65981144Y-120705557D01*
X65588431Y-120976029D01*
X65087524Y-121143487D01*
X64698436Y-121183644D01*
X64497064Y-121191981D01*
X64421304Y-121209405D01*
X64458987Y-121343340D01*
X64553681Y-121595153D01*
X64678178Y-121899572D01*
X64805269Y-122191323D01*
X64907747Y-122405133D01*
X64946488Y-122469325D01*
X65123699Y-122551113D01*
X65440820Y-122581070D01*
X65842773Y-122558512D01*
X66262303Y-122485649D01*
X66913633Y-122270705D01*
X67392256Y-121964946D01*
X67712741Y-121552162D01*
X67889656Y-121016144D01*
X67933056Y-120626574D01*
X67940838Y-120333115D01*
X67925701Y-120064738D01*
X67878468Y-119778065D01*
X67789965Y-119429716D01*
X67651015Y-118976313D01*
X67463896Y-118408669D01*
X67303355Y-117939796D01*
X67085239Y-117318401D01*
X66822578Y-116580777D01*
X66528404Y-115763220D01*
X66215747Y-114902026D01*
X65897638Y-114033489D01*
X65728211Y-113574286D01*
X65440629Y-112792422D01*
X65176162Y-112064534D01*
X64942935Y-111413669D01*
X64749073Y-110862874D01*
X64602700Y-110435194D01*
X64511940Y-110153676D01*
X64484587Y-110046508D01*
X64496074Y-109944555D01*
X64573316Y-109881175D01*
X64756376Y-109844453D01*
X65085319Y-109822472D01*
X65261895Y-109815319D01*
X65656894Y-109795767D01*
X65886291Y-109767092D01*
X65986066Y-109719220D01*
X65992202Y-109642078D01*
X65981988Y-109613731D01*
X65906057Y-109414387D01*
X65799718Y-109120614D01*
X65760426Y-109009249D01*
X65609017Y-108576751D01*
X64868257Y-108600400D01*
X64380975Y-108592315D01*
X64045702Y-108510850D01*
X63817490Y-108325575D01*
X63651388Y-108006057D01*
X63555305Y-107711514D01*
X63444847Y-107358915D01*
X63294195Y-106915124D01*
X63118331Y-106420201D01*
X62932239Y-105914203D01*
X62750900Y-105437191D01*
X62589298Y-105029223D01*
X62462415Y-104730357D01*
X62385233Y-104580652D01*
X62383490Y-104578452D01*
X62227688Y-104507816D01*
X61946766Y-104464460D01*
X61615840Y-104452343D01*
X61310024Y-104475424D01*
G37*
X61310024Y-104475424D02*
X61153704Y-104513641D01*
X61017277Y-104654409D01*
X60994269Y-104757453D01*
X61027758Y-104906559D01*
X61120906Y-105211385D01*
X61262733Y-105638848D01*
X61442261Y-106155860D01*
X61648512Y-106729336D01*
X61649428Y-106731841D01*
X61854139Y-107293238D01*
X62032709Y-107785896D01*
X62174431Y-108180033D01*
X62268601Y-108445871D01*
X62304512Y-108553630D01*
X62304587Y-108554300D01*
X62210427Y-108566387D01*
X61954475Y-108576234D01*
X61576522Y-108582786D01*
X61145460Y-108585000D01*
X60624826Y-108586417D01*
X60280025Y-108603217D01*
X60085333Y-108654222D01*
X60015024Y-108758253D01*
X60043373Y-108934132D01*
X60144655Y-109200681D01*
X60181136Y-109290556D01*
X60364675Y-109744127D01*
X62748779Y-109844921D01*
X62978315Y-110399286D01*
X63061582Y-110612074D01*
X63204844Y-110991460D01*
X63399616Y-111514443D01*
X63637413Y-112158021D01*
X63909750Y-112899195D01*
X64208140Y-113714961D01*
X64524098Y-114582321D01*
X64688783Y-115035794D01*
X65094453Y-116159338D01*
X65432359Y-117110826D01*
X65706246Y-117906679D01*
X65919856Y-118563317D01*
X66076932Y-119097165D01*
X66181218Y-119524642D01*
X66236457Y-119862172D01*
X66246392Y-120126175D01*
X66214766Y-120333074D01*
X66145322Y-120499291D01*
X66041804Y-120641247D01*
X65981144Y-120705557D01*
X65588431Y-120976029D01*
X65087524Y-121143487D01*
X64698436Y-121183644D01*
X64497064Y-121191981D01*
X64421304Y-121209405D01*
X64458987Y-121343340D01*
X64553681Y-121595153D01*
X64678178Y-121899572D01*
X64805269Y-122191323D01*
X64907747Y-122405133D01*
X64946488Y-122469325D01*
X65123699Y-122551113D01*
X65440820Y-122581070D01*
X65842773Y-122558512D01*
X66262303Y-122485649D01*
X66913633Y-122270705D01*
X67392256Y-121964946D01*
X67712741Y-121552162D01*
X67889656Y-121016144D01*
X67933056Y-120626574D01*
X67940838Y-120333115D01*
X67925701Y-120064738D01*
X67878468Y-119778065D01*
X67789965Y-119429716D01*
X67651015Y-118976313D01*
X67463896Y-118408669D01*
X67303355Y-117939796D01*
X67085239Y-117318401D01*
X66822578Y-116580777D01*
X66528404Y-115763220D01*
X66215747Y-114902026D01*
X65897638Y-114033489D01*
X65728211Y-113574286D01*
X65440629Y-112792422D01*
X65176162Y-112064534D01*
X64942935Y-111413669D01*
X64749073Y-110862874D01*
X64602700Y-110435194D01*
X64511940Y-110153676D01*
X64484587Y-110046508D01*
X64496074Y-109944555D01*
X64573316Y-109881175D01*
X64756376Y-109844453D01*
X65085319Y-109822472D01*
X65261895Y-109815319D01*
X65656894Y-109795767D01*
X65886291Y-109767092D01*
X65986066Y-109719220D01*
X65992202Y-109642078D01*
X65981988Y-109613731D01*
X65906057Y-109414387D01*
X65799718Y-109120614D01*
X65760426Y-109009249D01*
X65609017Y-108576751D01*
X64868257Y-108600400D01*
X64380975Y-108592315D01*
X64045702Y-108510850D01*
X63817490Y-108325575D01*
X63651388Y-108006057D01*
X63555305Y-107711514D01*
X63444847Y-107358915D01*
X63294195Y-106915124D01*
X63118331Y-106420201D01*
X62932239Y-105914203D01*
X62750900Y-105437191D01*
X62589298Y-105029223D01*
X62462415Y-104730357D01*
X62385233Y-104580652D01*
X62383490Y-104578452D01*
X62227688Y-104507816D01*
X61946766Y-104464460D01*
X61615840Y-104452343D01*
X61310024Y-104475424D01*
G36*
X53082929Y-108389820D02*
G01*
X52990086Y-108427968D01*
X52972324Y-108535224D01*
X53028932Y-108746493D01*
X53159199Y-109096679D01*
X53233205Y-109287153D01*
X53344780Y-109548589D01*
X53464825Y-109719112D01*
X53640852Y-109827609D01*
X53920371Y-109902969D01*
X54350894Y-109974079D01*
X54366925Y-109976492D01*
X55230251Y-110196590D01*
X55974286Y-110579142D01*
X56598525Y-111123790D01*
X57102467Y-111830175D01*
X57184386Y-111982276D01*
X57288044Y-112212144D01*
X57451147Y-112610614D01*
X57665593Y-113156351D01*
X57923283Y-113828023D01*
X58216116Y-114604295D01*
X58535992Y-115463834D01*
X58874810Y-116385307D01*
X59224470Y-117347380D01*
X59281452Y-117505238D01*
X59622574Y-118448435D01*
X59945401Y-119335770D01*
X60243102Y-120148829D01*
X60508843Y-120869198D01*
X60735792Y-121478464D01*
X60917116Y-121958211D01*
X61045984Y-122290026D01*
X61115563Y-122455495D01*
X61123346Y-122469325D01*
X61288833Y-122544148D01*
X61632113Y-122586603D01*
X61958722Y-122595317D01*
X62696904Y-122595317D01*
X62510024Y-122066151D01*
X62232553Y-121285086D01*
X61921160Y-120416622D01*
X61582258Y-119478061D01*
X61222266Y-118486708D01*
X60847597Y-117459865D01*
X60464670Y-116414838D01*
X60079899Y-115368930D01*
X59699700Y-114339444D01*
X59330490Y-113343685D01*
X58978684Y-112398956D01*
X58650699Y-111522562D01*
X58352950Y-110731805D01*
X58091854Y-110043991D01*
X57873826Y-109476422D01*
X57705282Y-109046403D01*
X57592639Y-108771237D01*
X57542312Y-108668228D01*
X57542272Y-108668201D01*
X57381994Y-108627093D01*
X57085775Y-108597655D01*
X56736149Y-108586543D01*
X56056202Y-108585000D01*
X56257328Y-109114167D01*
X56378717Y-109433897D01*
X56436752Y-109607938D01*
X56436556Y-109680203D01*
X56383252Y-109694603D01*
X56324934Y-109693730D01*
X56168210Y-109625557D01*
X55972375Y-109460579D01*
X55963653Y-109451396D01*
X55613696Y-109171945D01*
X55124097Y-108902464D01*
X54556303Y-108667093D01*
X53971759Y-108489973D01*
X53431913Y-108395246D01*
X53251565Y-108385877D01*
X53082929Y-108389820D01*
G37*
X53082929Y-108389820D02*
X52990086Y-108427968D01*
X52972324Y-108535224D01*
X53028932Y-108746493D01*
X53159199Y-109096679D01*
X53233205Y-109287153D01*
X53344780Y-109548589D01*
X53464825Y-109719112D01*
X53640852Y-109827609D01*
X53920371Y-109902969D01*
X54350894Y-109974079D01*
X54366925Y-109976492D01*
X55230251Y-110196590D01*
X55974286Y-110579142D01*
X56598525Y-111123790D01*
X57102467Y-111830175D01*
X57184386Y-111982276D01*
X57288044Y-112212144D01*
X57451147Y-112610614D01*
X57665593Y-113156351D01*
X57923283Y-113828023D01*
X58216116Y-114604295D01*
X58535992Y-115463834D01*
X58874810Y-116385307D01*
X59224470Y-117347380D01*
X59281452Y-117505238D01*
X59622574Y-118448435D01*
X59945401Y-119335770D01*
X60243102Y-120148829D01*
X60508843Y-120869198D01*
X60735792Y-121478464D01*
X60917116Y-121958211D01*
X61045984Y-122290026D01*
X61115563Y-122455495D01*
X61123346Y-122469325D01*
X61288833Y-122544148D01*
X61632113Y-122586603D01*
X61958722Y-122595317D01*
X62696904Y-122595317D01*
X62510024Y-122066151D01*
X62232553Y-121285086D01*
X61921160Y-120416622D01*
X61582258Y-119478061D01*
X61222266Y-118486708D01*
X60847597Y-117459865D01*
X60464670Y-116414838D01*
X60079899Y-115368930D01*
X59699700Y-114339444D01*
X59330490Y-113343685D01*
X58978684Y-112398956D01*
X58650699Y-111522562D01*
X58352950Y-110731805D01*
X58091854Y-110043991D01*
X57873826Y-109476422D01*
X57705282Y-109046403D01*
X57592639Y-108771237D01*
X57542312Y-108668228D01*
X57542272Y-108668201D01*
X57381994Y-108627093D01*
X57085775Y-108597655D01*
X56736149Y-108586543D01*
X56056202Y-108585000D01*
X56257328Y-109114167D01*
X56378717Y-109433897D01*
X56436752Y-109607938D01*
X56436556Y-109680203D01*
X56383252Y-109694603D01*
X56324934Y-109693730D01*
X56168210Y-109625557D01*
X55972375Y-109460579D01*
X55963653Y-109451396D01*
X55613696Y-109171945D01*
X55124097Y-108902464D01*
X54556303Y-108667093D01*
X53971759Y-108489973D01*
X53431913Y-108395246D01*
X53251565Y-108385877D01*
X53082929Y-108389820D01*
G36*
X131522822Y-103373164D02*
G01*
X131380202Y-103414068D01*
X131350518Y-103465940D01*
X131387546Y-103614068D01*
X131484249Y-103896217D01*
X131622421Y-104260475D01*
X131678097Y-104399954D01*
X131884861Y-104864133D01*
X132090493Y-105177359D01*
X132336781Y-105361728D01*
X132665509Y-105439333D01*
X133118466Y-105432268D01*
X133545155Y-105387136D01*
X133692301Y-105369087D01*
X133784641Y-105336563D01*
X133820081Y-105257632D01*
X133796526Y-105100364D01*
X133711882Y-104832830D01*
X133564056Y-104423098D01*
X133464021Y-104150079D01*
X133187622Y-103394127D01*
X132267930Y-103365146D01*
X131809259Y-103357898D01*
X131522822Y-103373164D01*
G37*
X131522822Y-103373164D02*
X131380202Y-103414068D01*
X131350518Y-103465940D01*
X131387546Y-103614068D01*
X131484249Y-103896217D01*
X131622421Y-104260475D01*
X131678097Y-104399954D01*
X131884861Y-104864133D01*
X132090493Y-105177359D01*
X132336781Y-105361728D01*
X132665509Y-105439333D01*
X133118466Y-105432268D01*
X133545155Y-105387136D01*
X133692301Y-105369087D01*
X133784641Y-105336563D01*
X133820081Y-105257632D01*
X133796526Y-105100364D01*
X133711882Y-104832830D01*
X133564056Y-104423098D01*
X133464021Y-104150079D01*
X133187622Y-103394127D01*
X132267930Y-103365146D01*
X131809259Y-103357898D01*
X131522822Y-103373164D01*
%LPC*%
D12*
X110490000Y-155829000D03*
X110490000Y-153289000D03*
X110490000Y-150749000D03*
X110490000Y-148209000D03*
X110490000Y-145669000D03*
X110490000Y-143129000D03*
X110490000Y-140589000D03*
X110490000Y-138049000D03*
X110490000Y-135509000D03*
X83185000Y-143129000D03*
X80645000Y-143129000D03*
X78105000Y-143129000D03*
X75565000Y-143129000D03*
X73025000Y-143129000D03*
X70485000Y-143129000D03*
X67945000Y-143129000D03*
X65405000Y-129667000D03*
X67945000Y-129667000D03*
X70485000Y-129667000D03*
X73025000Y-129667000D03*
X75565000Y-129667000D03*
X78105000Y-129667000D03*
X67945000Y-111887000D03*
X70485000Y-111887000D03*
X73025000Y-111887000D03*
X75565000Y-111887000D03*
X110998000Y-99949000D03*
X110998000Y-102489000D03*
X110998000Y-105029000D03*
X110998000Y-107569000D03*
X110998000Y-110109000D03*
X110998000Y-112649000D03*
X110998000Y-115189000D03*
X110998000Y-117729000D03*
X110998000Y-120269000D03*
X136398000Y-110109000D03*
X136398000Y-107569000D03*
X136398000Y-105029000D03*
X136398000Y-102489000D03*
X136398000Y-99949000D03*
X103505000Y-116459000D03*
X103505000Y-113919000D03*
X103505000Y-111379000D03*
X103505000Y-108839000D03*
X103505000Y-118999000D03*
X103505000Y-121539000D03*
X103505000Y-124079000D03*
X103505000Y-106299000D03*
X103505000Y-103759000D03*
X103505000Y-101219000D03*
X103505000Y-98679000D03*
X100965000Y-111379000D03*
X98425000Y-111379000D03*
X95885000Y-111379000D03*
X93345000Y-111379000D03*
X90805000Y-111379000D03*
X88265000Y-98679000D03*
X88265000Y-101219000D03*
X88265000Y-103759000D03*
X88265000Y-106299000D03*
X88265000Y-108839000D03*
X88265000Y-111379000D03*
X88265000Y-113919000D03*
X88265000Y-116459000D03*
X103505000Y-126619000D03*
X103505000Y-129159000D03*
X103505000Y-131699000D03*
X103505000Y-134239000D03*
X103505000Y-136779000D03*
X103505000Y-139319000D03*
X103505000Y-141859000D03*
X103505000Y-144399000D03*
X103505000Y-146939000D03*
X103505000Y-149479000D03*
X103505000Y-152019000D03*
X103505000Y-154559000D03*
D13*
X103505000Y-157099000D03*
D12*
X88265000Y-118999000D03*
X88265000Y-121539000D03*
X88265000Y-124079000D03*
X88265000Y-126619000D03*
X88265000Y-129159000D03*
X88265000Y-131699000D03*
X88265000Y-134239000D03*
X88265000Y-136779000D03*
X88265000Y-139319000D03*
X88265000Y-141859000D03*
X88265000Y-144399000D03*
X88265000Y-146939000D03*
X88265000Y-149479000D03*
X88265000Y-152019000D03*
X88265000Y-154559000D03*
X88265000Y-157099000D03*
X90805000Y-154559000D03*
X90805000Y-149479000D03*
X90805000Y-146939000D03*
X90805000Y-144399000D03*
X100505000Y-150749000D03*
X100505000Y-148209000D03*
X100505000Y-145669000D03*
X100505000Y-143129000D03*
X100505000Y-140589000D03*
X93345000Y-108839000D03*
X93345000Y-106299000D03*
X93345000Y-103759000D03*
X93345000Y-101219000D03*
X95885000Y-101219000D03*
X95885000Y-103759000D03*
X95885000Y-106299000D03*
X95885000Y-108839000D03*
X93345000Y-98679000D03*
X95885000Y-98679000D03*
X93345000Y-113919000D03*
X95885000Y-113919000D03*
X93345000Y-116459000D03*
X95885000Y-116459000D03*
X93345000Y-118999000D03*
X95885000Y-118999000D03*
X95885000Y-139319000D03*
X95885000Y-141859000D03*
X95885000Y-136779000D03*
X95885000Y-134239000D03*
X93345000Y-134239000D03*
X93345000Y-136779000D03*
X93345000Y-139319000D03*
X93345000Y-141859000D03*
X96895000Y-155829000D03*
X94875000Y-155829000D03*
D14*
X36449000Y-113411000D03*
D15*
X41529000Y-113411000D03*
D16*
X51308000Y-116332000D03*
D17*
X51308000Y-118872000D03*
X51308000Y-121412000D03*
D14*
X47117000Y-140843000D03*
D15*
X52197000Y-140843000D03*
D16*
X60706000Y-135890000D03*
D17*
X60706000Y-138430000D03*
X60706000Y-140970000D03*
M02*
