G04 #@! TF.GenerationSoftware,KiCad,Pcbnew,(5.1.7)-1*
G04 #@! TF.CreationDate,2021-11-24T22:39:04-05:00*
G04 #@! TF.ProjectId,REV1_FALL_2021,52455631-5f46-4414-9c4c-5f323032312e,rev?*
G04 #@! TF.SameCoordinates,Original*
G04 #@! TF.FileFunction,Soldermask,Top*
G04 #@! TF.FilePolarity,Negative*
%FSLAX46Y46*%
G04 Gerber Fmt 4.6, Leading zero omitted, Abs format (unit mm)*
G04 Created by KiCad (PCBNEW (5.1.7)-1) date 2021-11-24 22:39:04*
%MOMM*%
%LPD*%
G01*
G04 APERTURE LIST*
%ADD10C,0.010000*%
%ADD11R,10.000000X5.000000*%
%ADD12C,1.600000*%
%ADD13R,1.600000X1.600000*%
%ADD14R,3.000000X3.000000*%
%ADD15C,3.000000*%
%ADD16R,2.000000X2.000000*%
%ADD17C,2.000000*%
G04 APERTURE END LIST*
D10*
G36*
X42093000Y-96335000D02*
G01*
X42093000Y-96645000D01*
X42918000Y-96645000D01*
X42918000Y-97015000D01*
X42093000Y-97015000D01*
X42093000Y-97295000D01*
X42918000Y-97295000D01*
X42918000Y-97665000D01*
X42093000Y-97665000D01*
X42093000Y-97975000D01*
X40203000Y-97975000D01*
X40203000Y-97665000D01*
X39378000Y-97665000D01*
X39378000Y-97295000D01*
X40203000Y-97295000D01*
X40203000Y-97015000D01*
X39378000Y-97015000D01*
X39378000Y-96645000D01*
X40203000Y-96645000D01*
X40203000Y-96335000D01*
X42093000Y-96335000D01*
G37*
X42093000Y-96335000D02*
X42093000Y-96645000D01*
X42918000Y-96645000D01*
X42918000Y-97015000D01*
X42093000Y-97015000D01*
X42093000Y-97295000D01*
X42918000Y-97295000D01*
X42918000Y-97665000D01*
X42093000Y-97665000D01*
X42093000Y-97975000D01*
X40203000Y-97975000D01*
X40203000Y-97665000D01*
X39378000Y-97665000D01*
X39378000Y-97295000D01*
X40203000Y-97295000D01*
X40203000Y-97015000D01*
X39378000Y-97015000D01*
X39378000Y-96645000D01*
X40203000Y-96645000D01*
X40203000Y-96335000D01*
X42093000Y-96335000D01*
G36*
X42348000Y-95385000D02*
G01*
X42348000Y-96125000D01*
X41898000Y-96125000D01*
X41898000Y-95385000D01*
X42348000Y-95385000D01*
G37*
X42348000Y-95385000D02*
X42348000Y-96125000D01*
X41898000Y-96125000D01*
X41898000Y-95385000D01*
X42348000Y-95385000D01*
G36*
X42348000Y-98185000D02*
G01*
X42348000Y-98925000D01*
X41898000Y-98925000D01*
X41898000Y-98185000D01*
X42348000Y-98185000D01*
G37*
X42348000Y-98185000D02*
X42348000Y-98925000D01*
X41898000Y-98925000D01*
X41898000Y-98185000D01*
X42348000Y-98185000D01*
G36*
X41698000Y-95385000D02*
G01*
X41698000Y-96125000D01*
X41248000Y-96125000D01*
X41248000Y-95385000D01*
X41698000Y-95385000D01*
G37*
X41698000Y-95385000D02*
X41698000Y-96125000D01*
X41248000Y-96125000D01*
X41248000Y-95385000D01*
X41698000Y-95385000D01*
G36*
X41048000Y-95385000D02*
G01*
X41048000Y-96125000D01*
X40598000Y-96125000D01*
X40598000Y-95385000D01*
X41048000Y-95385000D01*
G37*
X41048000Y-95385000D02*
X41048000Y-96125000D01*
X40598000Y-96125000D01*
X40598000Y-95385000D01*
X41048000Y-95385000D01*
G36*
X40398000Y-95385000D02*
G01*
X40398000Y-96125000D01*
X39948000Y-96125000D01*
X39948000Y-95385000D01*
X40398000Y-95385000D01*
G37*
X40398000Y-95385000D02*
X40398000Y-96125000D01*
X39948000Y-96125000D01*
X39948000Y-95385000D01*
X40398000Y-95385000D01*
G36*
X41698000Y-98185000D02*
G01*
X41698000Y-98925000D01*
X41248000Y-98925000D01*
X41248000Y-98185000D01*
X41698000Y-98185000D01*
G37*
X41698000Y-98185000D02*
X41698000Y-98925000D01*
X41248000Y-98925000D01*
X41248000Y-98185000D01*
X41698000Y-98185000D01*
G36*
X41048000Y-98185000D02*
G01*
X41048000Y-98925000D01*
X40598000Y-98925000D01*
X40598000Y-98185000D01*
X41048000Y-98185000D01*
G37*
X41048000Y-98185000D02*
X41048000Y-98925000D01*
X40598000Y-98925000D01*
X40598000Y-98185000D01*
X41048000Y-98185000D01*
G36*
X40398000Y-98185000D02*
G01*
X40398000Y-98925000D01*
X39948000Y-98925000D01*
X39948000Y-98185000D01*
X40398000Y-98185000D01*
G37*
X40398000Y-98185000D02*
X40398000Y-98925000D01*
X39948000Y-98925000D01*
X39948000Y-98185000D01*
X40398000Y-98185000D01*
G36*
X43001500Y-82627500D02*
G01*
X43001500Y-83367500D01*
X42551500Y-83367500D01*
X42551500Y-82627500D01*
X43001500Y-82627500D01*
G37*
X43001500Y-82627500D02*
X43001500Y-83367500D01*
X42551500Y-83367500D01*
X42551500Y-82627500D01*
X43001500Y-82627500D01*
G36*
X43651500Y-82627500D02*
G01*
X43651500Y-83367500D01*
X43201500Y-83367500D01*
X43201500Y-82627500D01*
X43651500Y-82627500D01*
G37*
X43651500Y-82627500D02*
X43651500Y-83367500D01*
X43201500Y-83367500D01*
X43201500Y-82627500D01*
X43651500Y-82627500D01*
G36*
X44301500Y-82627500D02*
G01*
X44301500Y-83367500D01*
X43851500Y-83367500D01*
X43851500Y-82627500D01*
X44301500Y-82627500D01*
G37*
X44301500Y-82627500D02*
X44301500Y-83367500D01*
X43851500Y-83367500D01*
X43851500Y-82627500D01*
X44301500Y-82627500D01*
G36*
X43001500Y-79827500D02*
G01*
X43001500Y-80567500D01*
X42551500Y-80567500D01*
X42551500Y-79827500D01*
X43001500Y-79827500D01*
G37*
X43001500Y-79827500D02*
X43001500Y-80567500D01*
X42551500Y-80567500D01*
X42551500Y-79827500D01*
X43001500Y-79827500D01*
G36*
X43651500Y-79827500D02*
G01*
X43651500Y-80567500D01*
X43201500Y-80567500D01*
X43201500Y-79827500D01*
X43651500Y-79827500D01*
G37*
X43651500Y-79827500D02*
X43651500Y-80567500D01*
X43201500Y-80567500D01*
X43201500Y-79827500D01*
X43651500Y-79827500D01*
G36*
X44301500Y-79827500D02*
G01*
X44301500Y-80567500D01*
X43851500Y-80567500D01*
X43851500Y-79827500D01*
X44301500Y-79827500D01*
G37*
X44301500Y-79827500D02*
X44301500Y-80567500D01*
X43851500Y-80567500D01*
X43851500Y-79827500D01*
X44301500Y-79827500D01*
G36*
X44951500Y-82627500D02*
G01*
X44951500Y-83367500D01*
X44501500Y-83367500D01*
X44501500Y-82627500D01*
X44951500Y-82627500D01*
G37*
X44951500Y-82627500D02*
X44951500Y-83367500D01*
X44501500Y-83367500D01*
X44501500Y-82627500D01*
X44951500Y-82627500D01*
G36*
X44951500Y-79827500D02*
G01*
X44951500Y-80567500D01*
X44501500Y-80567500D01*
X44501500Y-79827500D01*
X44951500Y-79827500D01*
G37*
X44951500Y-79827500D02*
X44951500Y-80567500D01*
X44501500Y-80567500D01*
X44501500Y-79827500D01*
X44951500Y-79827500D01*
G36*
X44696500Y-80777500D02*
G01*
X44696500Y-81087500D01*
X45521500Y-81087500D01*
X45521500Y-81457500D01*
X44696500Y-81457500D01*
X44696500Y-81737500D01*
X45521500Y-81737500D01*
X45521500Y-82107500D01*
X44696500Y-82107500D01*
X44696500Y-82417500D01*
X42806500Y-82417500D01*
X42806500Y-82107500D01*
X41981500Y-82107500D01*
X41981500Y-81737500D01*
X42806500Y-81737500D01*
X42806500Y-81457500D01*
X41981500Y-81457500D01*
X41981500Y-81087500D01*
X42806500Y-81087500D01*
X42806500Y-80777500D01*
X44696500Y-80777500D01*
G37*
X44696500Y-80777500D02*
X44696500Y-81087500D01*
X45521500Y-81087500D01*
X45521500Y-81457500D01*
X44696500Y-81457500D01*
X44696500Y-81737500D01*
X45521500Y-81737500D01*
X45521500Y-82107500D01*
X44696500Y-82107500D01*
X44696500Y-82417500D01*
X42806500Y-82417500D01*
X42806500Y-82107500D01*
X41981500Y-82107500D01*
X41981500Y-81737500D01*
X42806500Y-81737500D01*
X42806500Y-81457500D01*
X41981500Y-81457500D01*
X41981500Y-81087500D01*
X42806500Y-81087500D01*
X42806500Y-80777500D01*
X44696500Y-80777500D01*
D11*
X144945000Y-81280000D03*
X62945000Y-81280000D03*
X144945000Y-59690000D03*
X62945000Y-59690000D03*
D12*
X110490000Y-155829000D03*
X110490000Y-153289000D03*
X110490000Y-150749000D03*
X110490000Y-148209000D03*
X110490000Y-145669000D03*
X110490000Y-143129000D03*
X110490000Y-140589000D03*
X110490000Y-138049000D03*
X110490000Y-135509000D03*
X83185000Y-143129000D03*
X80645000Y-143129000D03*
X78105000Y-143129000D03*
X75565000Y-143129000D03*
X73025000Y-143129000D03*
X70485000Y-143129000D03*
X67945000Y-143129000D03*
X65405000Y-129667000D03*
X67945000Y-129667000D03*
X70485000Y-129667000D03*
X73025000Y-129667000D03*
X75565000Y-129667000D03*
X78105000Y-129667000D03*
X67945000Y-111887000D03*
X70485000Y-111887000D03*
X73025000Y-111887000D03*
X75565000Y-111887000D03*
X110998000Y-99949000D03*
X110998000Y-102489000D03*
X110998000Y-105029000D03*
X110998000Y-107569000D03*
X110998000Y-110109000D03*
X110998000Y-112649000D03*
X110998000Y-115189000D03*
X110998000Y-117729000D03*
X110998000Y-120269000D03*
X136398000Y-110109000D03*
X136398000Y-107569000D03*
X136398000Y-105029000D03*
X136398000Y-102489000D03*
X136398000Y-99949000D03*
X103505000Y-116459000D03*
X103505000Y-113919000D03*
X103505000Y-111379000D03*
X103505000Y-108839000D03*
X103505000Y-118999000D03*
X103505000Y-121539000D03*
X103505000Y-124079000D03*
X103505000Y-106299000D03*
X103505000Y-103759000D03*
X103505000Y-101219000D03*
X103505000Y-98679000D03*
X100965000Y-111379000D03*
X98425000Y-111379000D03*
X95885000Y-111379000D03*
X93345000Y-111379000D03*
X90805000Y-111379000D03*
X88265000Y-98679000D03*
X88265000Y-101219000D03*
X88265000Y-103759000D03*
X88265000Y-106299000D03*
X88265000Y-108839000D03*
X88265000Y-111379000D03*
X88265000Y-113919000D03*
X88265000Y-116459000D03*
X103505000Y-126619000D03*
X103505000Y-129159000D03*
X103505000Y-131699000D03*
X103505000Y-134239000D03*
X103505000Y-136779000D03*
X103505000Y-139319000D03*
X103505000Y-141859000D03*
X103505000Y-144399000D03*
X103505000Y-146939000D03*
X103505000Y-149479000D03*
X103505000Y-152019000D03*
X103505000Y-154559000D03*
D13*
X103505000Y-157099000D03*
D12*
X88265000Y-118999000D03*
X88265000Y-121539000D03*
X88265000Y-124079000D03*
X88265000Y-126619000D03*
X88265000Y-129159000D03*
X88265000Y-131699000D03*
X88265000Y-134239000D03*
X88265000Y-136779000D03*
X88265000Y-139319000D03*
X88265000Y-141859000D03*
X88265000Y-144399000D03*
X88265000Y-146939000D03*
X88265000Y-149479000D03*
X88265000Y-152019000D03*
X88265000Y-154559000D03*
X88265000Y-157099000D03*
X90805000Y-154559000D03*
X90805000Y-149479000D03*
X90805000Y-146939000D03*
X90805000Y-144399000D03*
X100505000Y-150749000D03*
X100505000Y-148209000D03*
X100505000Y-145669000D03*
X100505000Y-143129000D03*
X100505000Y-140589000D03*
X93345000Y-108839000D03*
X93345000Y-106299000D03*
X93345000Y-103759000D03*
X93345000Y-101219000D03*
X95885000Y-101219000D03*
X95885000Y-103759000D03*
X95885000Y-106299000D03*
X95885000Y-108839000D03*
X93345000Y-98679000D03*
X95885000Y-98679000D03*
X93345000Y-113919000D03*
X95885000Y-113919000D03*
X93345000Y-116459000D03*
X95885000Y-116459000D03*
X93345000Y-118999000D03*
X95885000Y-118999000D03*
X95885000Y-139319000D03*
X95885000Y-141859000D03*
X95885000Y-136779000D03*
X95885000Y-134239000D03*
X93345000Y-134239000D03*
X93345000Y-136779000D03*
X93345000Y-139319000D03*
X93345000Y-141859000D03*
X96895000Y-155829000D03*
X94875000Y-155829000D03*
G36*
G01*
X46388000Y-101880000D02*
X47338000Y-101880000D01*
G75*
G02*
X47588000Y-102130000I0J-250000D01*
G01*
X47588000Y-102805000D01*
G75*
G02*
X47338000Y-103055000I-250000J0D01*
G01*
X46388000Y-103055000D01*
G75*
G02*
X46138000Y-102805000I0J250000D01*
G01*
X46138000Y-102130000D01*
G75*
G02*
X46388000Y-101880000I250000J0D01*
G01*
G37*
G36*
G01*
X46388000Y-103955000D02*
X47338000Y-103955000D01*
G75*
G02*
X47588000Y-104205000I0J-250000D01*
G01*
X47588000Y-104880000D01*
G75*
G02*
X47338000Y-105130000I-250000J0D01*
G01*
X46388000Y-105130000D01*
G75*
G02*
X46138000Y-104880000I0J250000D01*
G01*
X46138000Y-104205000D01*
G75*
G02*
X46388000Y-103955000I250000J0D01*
G01*
G37*
G36*
G01*
X34729000Y-102014000D02*
X34729000Y-102964000D01*
G75*
G02*
X34479000Y-103214000I-250000J0D01*
G01*
X33804000Y-103214000D01*
G75*
G02*
X33554000Y-102964000I0J250000D01*
G01*
X33554000Y-102014000D01*
G75*
G02*
X33804000Y-101764000I250000J0D01*
G01*
X34479000Y-101764000D01*
G75*
G02*
X34729000Y-102014000I0J-250000D01*
G01*
G37*
G36*
G01*
X36804000Y-102014000D02*
X36804000Y-102964000D01*
G75*
G02*
X36554000Y-103214000I-250000J0D01*
G01*
X35879000Y-103214000D01*
G75*
G02*
X35629000Y-102964000I0J250000D01*
G01*
X35629000Y-102014000D01*
G75*
G02*
X35879000Y-101764000I250000J0D01*
G01*
X36554000Y-101764000D01*
G75*
G02*
X36804000Y-102014000I0J-250000D01*
G01*
G37*
G36*
G01*
X41308000Y-101880000D02*
X42258000Y-101880000D01*
G75*
G02*
X42508000Y-102130000I0J-250000D01*
G01*
X42508000Y-102805000D01*
G75*
G02*
X42258000Y-103055000I-250000J0D01*
G01*
X41308000Y-103055000D01*
G75*
G02*
X41058000Y-102805000I0J250000D01*
G01*
X41058000Y-102130000D01*
G75*
G02*
X41308000Y-101880000I250000J0D01*
G01*
G37*
G36*
G01*
X41308000Y-103955000D02*
X42258000Y-103955000D01*
G75*
G02*
X42508000Y-104205000I0J-250000D01*
G01*
X42508000Y-104880000D01*
G75*
G02*
X42258000Y-105130000I-250000J0D01*
G01*
X41308000Y-105130000D01*
G75*
G02*
X41058000Y-104880000I0J250000D01*
G01*
X41058000Y-104205000D01*
G75*
G02*
X41308000Y-103955000I250000J0D01*
G01*
G37*
G36*
G01*
X48991500Y-85687500D02*
X49941500Y-85687500D01*
G75*
G02*
X50191500Y-85937500I0J-250000D01*
G01*
X50191500Y-86612500D01*
G75*
G02*
X49941500Y-86862500I-250000J0D01*
G01*
X48991500Y-86862500D01*
G75*
G02*
X48741500Y-86612500I0J250000D01*
G01*
X48741500Y-85937500D01*
G75*
G02*
X48991500Y-85687500I250000J0D01*
G01*
G37*
G36*
G01*
X48991500Y-87762500D02*
X49941500Y-87762500D01*
G75*
G02*
X50191500Y-88012500I0J-250000D01*
G01*
X50191500Y-88687500D01*
G75*
G02*
X49941500Y-88937500I-250000J0D01*
G01*
X48991500Y-88937500D01*
G75*
G02*
X48741500Y-88687500I0J250000D01*
G01*
X48741500Y-88012500D01*
G75*
G02*
X48991500Y-87762500I250000J0D01*
G01*
G37*
G36*
G01*
X37561500Y-87762500D02*
X38511500Y-87762500D01*
G75*
G02*
X38761500Y-88012500I0J-250000D01*
G01*
X38761500Y-88687500D01*
G75*
G02*
X38511500Y-88937500I-250000J0D01*
G01*
X37561500Y-88937500D01*
G75*
G02*
X37311500Y-88687500I0J250000D01*
G01*
X37311500Y-88012500D01*
G75*
G02*
X37561500Y-87762500I250000J0D01*
G01*
G37*
G36*
G01*
X37561500Y-85687500D02*
X38511500Y-85687500D01*
G75*
G02*
X38761500Y-85937500I0J-250000D01*
G01*
X38761500Y-86612500D01*
G75*
G02*
X38511500Y-86862500I-250000J0D01*
G01*
X37561500Y-86862500D01*
G75*
G02*
X37311500Y-86612500I0J250000D01*
G01*
X37311500Y-85937500D01*
G75*
G02*
X37561500Y-85687500I250000J0D01*
G01*
G37*
G36*
G01*
X43911500Y-87762500D02*
X44861500Y-87762500D01*
G75*
G02*
X45111500Y-88012500I0J-250000D01*
G01*
X45111500Y-88687500D01*
G75*
G02*
X44861500Y-88937500I-250000J0D01*
G01*
X43911500Y-88937500D01*
G75*
G02*
X43661500Y-88687500I0J250000D01*
G01*
X43661500Y-88012500D01*
G75*
G02*
X43911500Y-87762500I250000J0D01*
G01*
G37*
G36*
G01*
X43911500Y-85687500D02*
X44861500Y-85687500D01*
G75*
G02*
X45111500Y-85937500I0J-250000D01*
G01*
X45111500Y-86612500D01*
G75*
G02*
X44861500Y-86862500I-250000J0D01*
G01*
X43911500Y-86862500D01*
G75*
G02*
X43661500Y-86612500I0J250000D01*
G01*
X43661500Y-85937500D01*
G75*
G02*
X43911500Y-85687500I250000J0D01*
G01*
G37*
D14*
X36449000Y-113411000D03*
D15*
X41529000Y-113411000D03*
D16*
X51308000Y-116332000D03*
D17*
X51308000Y-118872000D03*
X51308000Y-121412000D03*
G36*
G01*
X47510500Y-76448499D02*
X47510500Y-77348501D01*
G75*
G02*
X47260501Y-77598500I-249999J0D01*
G01*
X46560499Y-77598500D01*
G75*
G02*
X46310500Y-77348501I0J249999D01*
G01*
X46310500Y-76448499D01*
G75*
G02*
X46560499Y-76198500I249999J0D01*
G01*
X47260501Y-76198500D01*
G75*
G02*
X47510500Y-76448499I0J-249999D01*
G01*
G37*
G36*
G01*
X45510500Y-76448499D02*
X45510500Y-77348501D01*
G75*
G02*
X45260501Y-77598500I-249999J0D01*
G01*
X44560499Y-77598500D01*
G75*
G02*
X44310500Y-77348501I0J249999D01*
G01*
X44310500Y-76448499D01*
G75*
G02*
X44560499Y-76198500I249999J0D01*
G01*
X45260501Y-76198500D01*
G75*
G02*
X45510500Y-76448499I0J-249999D01*
G01*
G37*
G36*
G01*
X46310500Y-73411501D02*
X46310500Y-72511499D01*
G75*
G02*
X46560499Y-72261500I249999J0D01*
G01*
X47260501Y-72261500D01*
G75*
G02*
X47510500Y-72511499I0J-249999D01*
G01*
X47510500Y-73411501D01*
G75*
G02*
X47260501Y-73661500I-249999J0D01*
G01*
X46560499Y-73661500D01*
G75*
G02*
X46310500Y-73411501I0J249999D01*
G01*
G37*
G36*
G01*
X44310500Y-73411501D02*
X44310500Y-72511499D01*
G75*
G02*
X44560499Y-72261500I249999J0D01*
G01*
X45260501Y-72261500D01*
G75*
G02*
X45510500Y-72511499I0J-249999D01*
G01*
X45510500Y-73411501D01*
G75*
G02*
X45260501Y-73661500I-249999J0D01*
G01*
X44560499Y-73661500D01*
G75*
G02*
X44310500Y-73411501I0J249999D01*
G01*
G37*
G36*
G01*
X55645000Y-108400001D02*
X55645000Y-107499999D01*
G75*
G02*
X55894999Y-107250000I249999J0D01*
G01*
X56595001Y-107250000D01*
G75*
G02*
X56845000Y-107499999I0J-249999D01*
G01*
X56845000Y-108400001D01*
G75*
G02*
X56595001Y-108650000I-249999J0D01*
G01*
X55894999Y-108650000D01*
G75*
G02*
X55645000Y-108400001I0J249999D01*
G01*
G37*
G36*
G01*
X53645000Y-108400001D02*
X53645000Y-107499999D01*
G75*
G02*
X53894999Y-107250000I249999J0D01*
G01*
X54595001Y-107250000D01*
G75*
G02*
X54845000Y-107499999I0J-249999D01*
G01*
X54845000Y-108400001D01*
G75*
G02*
X54595001Y-108650000I-249999J0D01*
G01*
X53894999Y-108650000D01*
G75*
G02*
X53645000Y-108400001I0J249999D01*
G01*
G37*
G36*
G01*
X35579000Y-96208001D02*
X35579000Y-95307999D01*
G75*
G02*
X35828999Y-95058000I249999J0D01*
G01*
X36529001Y-95058000D01*
G75*
G02*
X36779000Y-95307999I0J-249999D01*
G01*
X36779000Y-96208001D01*
G75*
G02*
X36529001Y-96458000I-249999J0D01*
G01*
X35828999Y-96458000D01*
G75*
G02*
X35579000Y-96208001I0J249999D01*
G01*
G37*
G36*
G01*
X33579000Y-96208001D02*
X33579000Y-95307999D01*
G75*
G02*
X33828999Y-95058000I249999J0D01*
G01*
X34529001Y-95058000D01*
G75*
G02*
X34779000Y-95307999I0J-249999D01*
G01*
X34779000Y-96208001D01*
G75*
G02*
X34529001Y-96458000I-249999J0D01*
G01*
X33828999Y-96458000D01*
G75*
G02*
X33579000Y-96208001I0J249999D01*
G01*
G37*
G36*
G01*
X46678001Y-98755000D02*
X45777999Y-98755000D01*
G75*
G02*
X45528000Y-98505001I0J249999D01*
G01*
X45528000Y-97804999D01*
G75*
G02*
X45777999Y-97555000I249999J0D01*
G01*
X46678001Y-97555000D01*
G75*
G02*
X46928000Y-97804999I0J-249999D01*
G01*
X46928000Y-98505001D01*
G75*
G02*
X46678001Y-98755000I-249999J0D01*
G01*
G37*
G36*
G01*
X46678001Y-96755000D02*
X45777999Y-96755000D01*
G75*
G02*
X45528000Y-96505001I0J249999D01*
G01*
X45528000Y-95804999D01*
G75*
G02*
X45777999Y-95555000I249999J0D01*
G01*
X46678001Y-95555000D01*
G75*
G02*
X46928000Y-95804999I0J-249999D01*
G01*
X46928000Y-96505001D01*
G75*
G02*
X46678001Y-96755000I-249999J0D01*
G01*
G37*
G36*
G01*
X40761499Y-74282500D02*
X41661501Y-74282500D01*
G75*
G02*
X41911500Y-74532499I0J-249999D01*
G01*
X41911500Y-75232501D01*
G75*
G02*
X41661501Y-75482500I-249999J0D01*
G01*
X40761499Y-75482500D01*
G75*
G02*
X40511500Y-75232501I0J249999D01*
G01*
X40511500Y-74532499D01*
G75*
G02*
X40761499Y-74282500I249999J0D01*
G01*
G37*
G36*
G01*
X40761499Y-76282500D02*
X41661501Y-76282500D01*
G75*
G02*
X41911500Y-76532499I0J-249999D01*
G01*
X41911500Y-77232501D01*
G75*
G02*
X41661501Y-77482500I-249999J0D01*
G01*
X40761499Y-77482500D01*
G75*
G02*
X40511500Y-77232501I0J249999D01*
G01*
X40511500Y-76532499D01*
G75*
G02*
X40761499Y-76282500I249999J0D01*
G01*
G37*
G36*
G01*
X50050500Y-81401499D02*
X50050500Y-82301501D01*
G75*
G02*
X49800501Y-82551500I-249999J0D01*
G01*
X49100499Y-82551500D01*
G75*
G02*
X48850500Y-82301501I0J249999D01*
G01*
X48850500Y-81401499D01*
G75*
G02*
X49100499Y-81151500I249999J0D01*
G01*
X49800501Y-81151500D01*
G75*
G02*
X50050500Y-81401499I0J-249999D01*
G01*
G37*
G36*
G01*
X48050500Y-81401499D02*
X48050500Y-82301501D01*
G75*
G02*
X47800501Y-82551500I-249999J0D01*
G01*
X47100499Y-82551500D01*
G75*
G02*
X46850500Y-82301501I0J249999D01*
G01*
X46850500Y-81401499D01*
G75*
G02*
X47100499Y-81151500I249999J0D01*
G01*
X47800501Y-81151500D01*
G75*
G02*
X48050500Y-81401499I0J-249999D01*
G01*
G37*
G36*
G01*
X149410000Y-120453999D02*
X149410000Y-121354001D01*
G75*
G02*
X149160001Y-121604000I-249999J0D01*
G01*
X148509999Y-121604000D01*
G75*
G02*
X148260000Y-121354001I0J249999D01*
G01*
X148260000Y-120453999D01*
G75*
G02*
X148509999Y-120204000I249999J0D01*
G01*
X149160001Y-120204000D01*
G75*
G02*
X149410000Y-120453999I0J-249999D01*
G01*
G37*
G36*
G01*
X151460000Y-120453999D02*
X151460000Y-121354001D01*
G75*
G02*
X151210001Y-121604000I-249999J0D01*
G01*
X150559999Y-121604000D01*
G75*
G02*
X150310000Y-121354001I0J249999D01*
G01*
X150310000Y-120453999D01*
G75*
G02*
X150559999Y-120204000I249999J0D01*
G01*
X151210001Y-120204000D01*
G75*
G02*
X151460000Y-120453999I0J-249999D01*
G01*
G37*
G36*
G01*
X151460000Y-114357999D02*
X151460000Y-115258001D01*
G75*
G02*
X151210001Y-115508000I-249999J0D01*
G01*
X150559999Y-115508000D01*
G75*
G02*
X150310000Y-115258001I0J249999D01*
G01*
X150310000Y-114357999D01*
G75*
G02*
X150559999Y-114108000I249999J0D01*
G01*
X151210001Y-114108000D01*
G75*
G02*
X151460000Y-114357999I0J-249999D01*
G01*
G37*
G36*
G01*
X149410000Y-114357999D02*
X149410000Y-115258001D01*
G75*
G02*
X149160001Y-115508000I-249999J0D01*
G01*
X148509999Y-115508000D01*
G75*
G02*
X148260000Y-115258001I0J249999D01*
G01*
X148260000Y-114357999D01*
G75*
G02*
X148509999Y-114108000I249999J0D01*
G01*
X149160001Y-114108000D01*
G75*
G02*
X149410000Y-114357999I0J-249999D01*
G01*
G37*
G36*
G01*
X151460000Y-108261999D02*
X151460000Y-109162001D01*
G75*
G02*
X151210001Y-109412000I-249999J0D01*
G01*
X150559999Y-109412000D01*
G75*
G02*
X150310000Y-109162001I0J249999D01*
G01*
X150310000Y-108261999D01*
G75*
G02*
X150559999Y-108012000I249999J0D01*
G01*
X151210001Y-108012000D01*
G75*
G02*
X151460000Y-108261999I0J-249999D01*
G01*
G37*
G36*
G01*
X149410000Y-108261999D02*
X149410000Y-109162001D01*
G75*
G02*
X149160001Y-109412000I-249999J0D01*
G01*
X148509999Y-109412000D01*
G75*
G02*
X148260000Y-109162001I0J249999D01*
G01*
X148260000Y-108261999D01*
G75*
G02*
X148509999Y-108012000I249999J0D01*
G01*
X149160001Y-108012000D01*
G75*
G02*
X149410000Y-108261999I0J-249999D01*
G01*
G37*
G36*
G01*
X149410000Y-102165999D02*
X149410000Y-103066001D01*
G75*
G02*
X149160001Y-103316000I-249999J0D01*
G01*
X148509999Y-103316000D01*
G75*
G02*
X148260000Y-103066001I0J249999D01*
G01*
X148260000Y-102165999D01*
G75*
G02*
X148509999Y-101916000I249999J0D01*
G01*
X149160001Y-101916000D01*
G75*
G02*
X149410000Y-102165999I0J-249999D01*
G01*
G37*
G36*
G01*
X151460000Y-102165999D02*
X151460000Y-103066001D01*
G75*
G02*
X151210001Y-103316000I-249999J0D01*
G01*
X150559999Y-103316000D01*
G75*
G02*
X150310000Y-103066001I0J249999D01*
G01*
X150310000Y-102165999D01*
G75*
G02*
X150559999Y-101916000I249999J0D01*
G01*
X151210001Y-101916000D01*
G75*
G02*
X151460000Y-102165999I0J-249999D01*
G01*
G37*
G36*
G01*
X148412000Y-96069999D02*
X148412000Y-96970001D01*
G75*
G02*
X148162001Y-97220000I-249999J0D01*
G01*
X147511999Y-97220000D01*
G75*
G02*
X147262000Y-96970001I0J249999D01*
G01*
X147262000Y-96069999D01*
G75*
G02*
X147511999Y-95820000I249999J0D01*
G01*
X148162001Y-95820000D01*
G75*
G02*
X148412000Y-96069999I0J-249999D01*
G01*
G37*
G36*
G01*
X146362000Y-96069999D02*
X146362000Y-96970001D01*
G75*
G02*
X146112001Y-97220000I-249999J0D01*
G01*
X145461999Y-97220000D01*
G75*
G02*
X145212000Y-96970001I0J249999D01*
G01*
X145212000Y-96069999D01*
G75*
G02*
X145461999Y-95820000I249999J0D01*
G01*
X146112001Y-95820000D01*
G75*
G02*
X146362000Y-96069999I0J-249999D01*
G01*
G37*
G36*
G01*
X155880000Y-121354001D02*
X155880000Y-120453999D01*
G75*
G02*
X156129999Y-120204000I249999J0D01*
G01*
X156830001Y-120204000D01*
G75*
G02*
X157080000Y-120453999I0J-249999D01*
G01*
X157080000Y-121354001D01*
G75*
G02*
X156830001Y-121604000I-249999J0D01*
G01*
X156129999Y-121604000D01*
G75*
G02*
X155880000Y-121354001I0J249999D01*
G01*
G37*
G36*
G01*
X157880000Y-121354001D02*
X157880000Y-120453999D01*
G75*
G02*
X158129999Y-120204000I249999J0D01*
G01*
X158830001Y-120204000D01*
G75*
G02*
X159080000Y-120453999I0J-249999D01*
G01*
X159080000Y-121354001D01*
G75*
G02*
X158830001Y-121604000I-249999J0D01*
G01*
X158129999Y-121604000D01*
G75*
G02*
X157880000Y-121354001I0J249999D01*
G01*
G37*
G36*
G01*
X157880000Y-115258001D02*
X157880000Y-114357999D01*
G75*
G02*
X158129999Y-114108000I249999J0D01*
G01*
X158830001Y-114108000D01*
G75*
G02*
X159080000Y-114357999I0J-249999D01*
G01*
X159080000Y-115258001D01*
G75*
G02*
X158830001Y-115508000I-249999J0D01*
G01*
X158129999Y-115508000D01*
G75*
G02*
X157880000Y-115258001I0J249999D01*
G01*
G37*
G36*
G01*
X155880000Y-115258001D02*
X155880000Y-114357999D01*
G75*
G02*
X156129999Y-114108000I249999J0D01*
G01*
X156830001Y-114108000D01*
G75*
G02*
X157080000Y-114357999I0J-249999D01*
G01*
X157080000Y-115258001D01*
G75*
G02*
X156830001Y-115508000I-249999J0D01*
G01*
X156129999Y-115508000D01*
G75*
G02*
X155880000Y-115258001I0J249999D01*
G01*
G37*
G36*
G01*
X155880000Y-109162001D02*
X155880000Y-108261999D01*
G75*
G02*
X156129999Y-108012000I249999J0D01*
G01*
X156830001Y-108012000D01*
G75*
G02*
X157080000Y-108261999I0J-249999D01*
G01*
X157080000Y-109162001D01*
G75*
G02*
X156830001Y-109412000I-249999J0D01*
G01*
X156129999Y-109412000D01*
G75*
G02*
X155880000Y-109162001I0J249999D01*
G01*
G37*
G36*
G01*
X157880000Y-109162001D02*
X157880000Y-108261999D01*
G75*
G02*
X158129999Y-108012000I249999J0D01*
G01*
X158830001Y-108012000D01*
G75*
G02*
X159080000Y-108261999I0J-249999D01*
G01*
X159080000Y-109162001D01*
G75*
G02*
X158830001Y-109412000I-249999J0D01*
G01*
X158129999Y-109412000D01*
G75*
G02*
X157880000Y-109162001I0J249999D01*
G01*
G37*
G36*
G01*
X155880000Y-103066001D02*
X155880000Y-102165999D01*
G75*
G02*
X156129999Y-101916000I249999J0D01*
G01*
X156830001Y-101916000D01*
G75*
G02*
X157080000Y-102165999I0J-249999D01*
G01*
X157080000Y-103066001D01*
G75*
G02*
X156830001Y-103316000I-249999J0D01*
G01*
X156129999Y-103316000D01*
G75*
G02*
X155880000Y-103066001I0J249999D01*
G01*
G37*
G36*
G01*
X157880000Y-103066001D02*
X157880000Y-102165999D01*
G75*
G02*
X158129999Y-101916000I249999J0D01*
G01*
X158830001Y-101916000D01*
G75*
G02*
X159080000Y-102165999I0J-249999D01*
G01*
X159080000Y-103066001D01*
G75*
G02*
X158830001Y-103316000I-249999J0D01*
G01*
X158129999Y-103316000D01*
G75*
G02*
X157880000Y-103066001I0J249999D01*
G01*
G37*
G36*
G01*
X154832000Y-96970001D02*
X154832000Y-96069999D01*
G75*
G02*
X155081999Y-95820000I249999J0D01*
G01*
X155782001Y-95820000D01*
G75*
G02*
X156032000Y-96069999I0J-249999D01*
G01*
X156032000Y-96970001D01*
G75*
G02*
X155782001Y-97220000I-249999J0D01*
G01*
X155081999Y-97220000D01*
G75*
G02*
X154832000Y-96970001I0J249999D01*
G01*
G37*
G36*
G01*
X152832000Y-96970001D02*
X152832000Y-96069999D01*
G75*
G02*
X153081999Y-95820000I249999J0D01*
G01*
X153782001Y-95820000D01*
G75*
G02*
X154032000Y-96069999I0J-249999D01*
G01*
X154032000Y-96970001D01*
G75*
G02*
X153782001Y-97220000I-249999J0D01*
G01*
X153081999Y-97220000D01*
G75*
G02*
X152832000Y-96970001I0J249999D01*
G01*
G37*
G36*
G01*
X88747000Y-159926000D02*
X88747000Y-160876000D01*
G75*
G02*
X88497000Y-161126000I-250000J0D01*
G01*
X87822000Y-161126000D01*
G75*
G02*
X87572000Y-160876000I0J250000D01*
G01*
X87572000Y-159926000D01*
G75*
G02*
X87822000Y-159676000I250000J0D01*
G01*
X88497000Y-159676000D01*
G75*
G02*
X88747000Y-159926000I0J-250000D01*
G01*
G37*
G36*
G01*
X86672000Y-159926000D02*
X86672000Y-160876000D01*
G75*
G02*
X86422000Y-161126000I-250000J0D01*
G01*
X85747000Y-161126000D01*
G75*
G02*
X85497000Y-160876000I0J250000D01*
G01*
X85497000Y-159926000D01*
G75*
G02*
X85747000Y-159676000I250000J0D01*
G01*
X86422000Y-159676000D01*
G75*
G02*
X86672000Y-159926000I0J-250000D01*
G01*
G37*
D14*
X47117000Y-140843000D03*
D15*
X52197000Y-140843000D03*
D16*
X60706000Y-135890000D03*
D17*
X60706000Y-138430000D03*
X60706000Y-140970000D03*
G36*
G01*
X56965001Y-129870000D02*
X56064999Y-129870000D01*
G75*
G02*
X55815000Y-129620001I0J249999D01*
G01*
X55815000Y-128919999D01*
G75*
G02*
X56064999Y-128670000I249999J0D01*
G01*
X56965001Y-128670000D01*
G75*
G02*
X57215000Y-128919999I0J-249999D01*
G01*
X57215000Y-129620001D01*
G75*
G02*
X56965001Y-129870000I-249999J0D01*
G01*
G37*
G36*
G01*
X56965001Y-127870000D02*
X56064999Y-127870000D01*
G75*
G02*
X55815000Y-127620001I0J249999D01*
G01*
X55815000Y-126919999D01*
G75*
G02*
X56064999Y-126670000I249999J0D01*
G01*
X56965001Y-126670000D01*
G75*
G02*
X57215000Y-126919999I0J-249999D01*
G01*
X57215000Y-127620001D01*
G75*
G02*
X56965001Y-127870000I-249999J0D01*
G01*
G37*
M02*
