G04 #@! TF.GenerationSoftware,KiCad,Pcbnew,(5.1.7)-1*
G04 #@! TF.CreationDate,2021-11-25T13:01:40-05:00*
G04 #@! TF.ProjectId,REV1_FALL_2021,52455631-5f46-4414-9c4c-5f323032312e,rev?*
G04 #@! TF.SameCoordinates,Original*
G04 #@! TF.FileFunction,Legend,Bot*
G04 #@! TF.FilePolarity,Positive*
%FSLAX46Y46*%
G04 Gerber Fmt 4.6, Leading zero omitted, Abs format (unit mm)*
G04 Created by KiCad (PCBNEW (5.1.7)-1) date 2021-11-25 13:01:40*
%MOMM*%
%LPD*%
G01*
G04 APERTURE LIST*
%ADD10C,0.300000*%
%ADD11C,0.010000*%
%ADD12C,1.600000*%
%ADD13R,1.600000X1.600000*%
%ADD14R,3.000000X3.000000*%
%ADD15C,3.000000*%
%ADD16R,2.000000X2.000000*%
%ADD17C,2.000000*%
G04 APERTURE END LIST*
D10*
X139941904Y-133599047D02*
X139941904Y-131059047D01*
X137643809Y-133599047D02*
X137643809Y-132268571D01*
X137764761Y-132026666D01*
X138006666Y-131905714D01*
X138490476Y-131905714D01*
X138732380Y-132026666D01*
X137643809Y-133478095D02*
X137885714Y-133599047D01*
X138490476Y-133599047D01*
X138732380Y-133478095D01*
X138853333Y-133236190D01*
X138853333Y-132994285D01*
X138732380Y-132752380D01*
X138490476Y-132631428D01*
X137885714Y-132631428D01*
X137643809Y-132510476D01*
X136434285Y-131905714D02*
X136434285Y-133599047D01*
X136434285Y-132147619D02*
X136313333Y-132026666D01*
X136071428Y-131905714D01*
X135708571Y-131905714D01*
X135466666Y-132026666D01*
X135345714Y-132268571D01*
X135345714Y-133599047D01*
X132200952Y-132268571D02*
X131354285Y-132268571D01*
X130991428Y-133599047D02*
X132200952Y-133599047D01*
X132200952Y-131059047D01*
X130991428Y-131059047D01*
X130144761Y-131905714D02*
X129540000Y-133599047D01*
X128935238Y-131905714D02*
X129540000Y-133599047D01*
X129781904Y-134203809D01*
X129902857Y-134324761D01*
X130144761Y-134445714D01*
X127967619Y-133599047D02*
X127967619Y-131059047D01*
X127725714Y-132631428D02*
X127000000Y-133599047D01*
X127000000Y-131905714D02*
X127967619Y-132873333D01*
X124822857Y-133599047D02*
X124822857Y-132268571D01*
X124943809Y-132026666D01*
X125185714Y-131905714D01*
X125669523Y-131905714D01*
X125911428Y-132026666D01*
X124822857Y-133478095D02*
X125064761Y-133599047D01*
X125669523Y-133599047D01*
X125911428Y-133478095D01*
X126032380Y-133236190D01*
X126032380Y-132994285D01*
X125911428Y-132752380D01*
X125669523Y-132631428D01*
X125064761Y-132631428D01*
X124822857Y-132510476D01*
X123613333Y-133599047D02*
X123613333Y-131905714D01*
X123613333Y-132147619D02*
X123492380Y-132026666D01*
X123250476Y-131905714D01*
X122887619Y-131905714D01*
X122645714Y-132026666D01*
X122524761Y-132268571D01*
X122524761Y-133599047D01*
X122524761Y-132268571D02*
X122403809Y-132026666D01*
X122161904Y-131905714D01*
X121799047Y-131905714D01*
X121557142Y-132026666D01*
X121436190Y-132268571D01*
X121436190Y-133599047D01*
X120226666Y-131905714D02*
X120226666Y-134445714D01*
X120226666Y-132026666D02*
X119984761Y-131905714D01*
X119500952Y-131905714D01*
X119259047Y-132026666D01*
X119138095Y-132147619D01*
X119017142Y-132389523D01*
X119017142Y-133115238D01*
X119138095Y-133357142D01*
X119259047Y-133478095D01*
X119500952Y-133599047D01*
X119984761Y-133599047D01*
X120226666Y-133478095D01*
X140970000Y-137709047D02*
X140970000Y-135169047D01*
X140123333Y-136983333D01*
X139276666Y-135169047D01*
X139276666Y-137709047D01*
X136978571Y-137709047D02*
X136978571Y-136378571D01*
X137099523Y-136136666D01*
X137341428Y-136015714D01*
X137825238Y-136015714D01*
X138067142Y-136136666D01*
X136978571Y-137588095D02*
X137220476Y-137709047D01*
X137825238Y-137709047D01*
X138067142Y-137588095D01*
X138188095Y-137346190D01*
X138188095Y-137104285D01*
X138067142Y-136862380D01*
X137825238Y-136741428D01*
X137220476Y-136741428D01*
X136978571Y-136620476D01*
X135769047Y-137709047D02*
X135769047Y-136015714D01*
X135769047Y-136499523D02*
X135648095Y-136257619D01*
X135527142Y-136136666D01*
X135285238Y-136015714D01*
X135043333Y-136015714D01*
X133108095Y-137588095D02*
X133350000Y-137709047D01*
X133833809Y-137709047D01*
X134075714Y-137588095D01*
X134196666Y-137467142D01*
X134317619Y-137225238D01*
X134317619Y-136499523D01*
X134196666Y-136257619D01*
X134075714Y-136136666D01*
X133833809Y-136015714D01*
X133350000Y-136015714D01*
X133108095Y-136136666D01*
X130084285Y-136378571D02*
X129237619Y-136378571D01*
X128874761Y-137709047D02*
X130084285Y-137709047D01*
X130084285Y-135169047D01*
X128874761Y-135169047D01*
X128149047Y-136015714D02*
X127181428Y-136015714D01*
X127786190Y-137709047D02*
X127786190Y-135531904D01*
X127665238Y-135290000D01*
X127423333Y-135169047D01*
X127181428Y-135169047D01*
X126697619Y-136015714D02*
X125730000Y-136015714D01*
X126334761Y-135169047D02*
X126334761Y-137346190D01*
X126213809Y-137588095D01*
X125971904Y-137709047D01*
X125730000Y-137709047D01*
X124883333Y-137709047D02*
X124883333Y-136015714D01*
X124883333Y-135169047D02*
X125004285Y-135290000D01*
X124883333Y-135410952D01*
X124762380Y-135290000D01*
X124883333Y-135169047D01*
X124883333Y-135410952D01*
X123673809Y-137709047D02*
X123673809Y-136015714D01*
X123673809Y-136257619D02*
X123552857Y-136136666D01*
X123310952Y-136015714D01*
X122948095Y-136015714D01*
X122706190Y-136136666D01*
X122585238Y-136378571D01*
X122585238Y-137709047D01*
X122585238Y-136378571D02*
X122464285Y-136136666D01*
X122222380Y-136015714D01*
X121859523Y-136015714D01*
X121617619Y-136136666D01*
X121496666Y-136378571D01*
X121496666Y-137709047D01*
X120287142Y-137709047D02*
X120287142Y-136015714D01*
X120287142Y-135169047D02*
X120408095Y-135290000D01*
X120287142Y-135410952D01*
X120166190Y-135290000D01*
X120287142Y-135169047D01*
X120287142Y-135410952D01*
X118110000Y-137588095D02*
X118351904Y-137709047D01*
X118835714Y-137709047D01*
X119077619Y-137588095D01*
X119198571Y-137346190D01*
X119198571Y-136378571D01*
X119077619Y-136136666D01*
X118835714Y-136015714D01*
X118351904Y-136015714D01*
X118110000Y-136136666D01*
X117989047Y-136378571D01*
X117989047Y-136620476D01*
X119198571Y-136862380D01*
X139820952Y-141577142D02*
X139941904Y-141698095D01*
X140304761Y-141819047D01*
X140546666Y-141819047D01*
X140909523Y-141698095D01*
X141151428Y-141456190D01*
X141272380Y-141214285D01*
X141393333Y-140730476D01*
X141393333Y-140367619D01*
X141272380Y-139883809D01*
X141151428Y-139641904D01*
X140909523Y-139400000D01*
X140546666Y-139279047D01*
X140304761Y-139279047D01*
X139941904Y-139400000D01*
X139820952Y-139520952D01*
X138732380Y-141819047D02*
X138732380Y-139279047D01*
X137643809Y-141819047D02*
X137643809Y-140488571D01*
X137764761Y-140246666D01*
X138006666Y-140125714D01*
X138369523Y-140125714D01*
X138611428Y-140246666D01*
X138732380Y-140367619D01*
X135345714Y-141819047D02*
X135345714Y-140488571D01*
X135466666Y-140246666D01*
X135708571Y-140125714D01*
X136192380Y-140125714D01*
X136434285Y-140246666D01*
X135345714Y-141698095D02*
X135587619Y-141819047D01*
X136192380Y-141819047D01*
X136434285Y-141698095D01*
X136555238Y-141456190D01*
X136555238Y-141214285D01*
X136434285Y-140972380D01*
X136192380Y-140851428D01*
X135587619Y-140851428D01*
X135345714Y-140730476D01*
X134136190Y-141819047D02*
X134136190Y-140125714D01*
X134136190Y-140609523D02*
X134015238Y-140367619D01*
X133894285Y-140246666D01*
X133652380Y-140125714D01*
X133410476Y-140125714D01*
X132200952Y-141819047D02*
X132442857Y-141698095D01*
X132563809Y-141456190D01*
X132563809Y-139279047D01*
X131233333Y-141819047D02*
X131233333Y-140125714D01*
X131233333Y-139279047D02*
X131354285Y-139400000D01*
X131233333Y-139520952D01*
X131112380Y-139400000D01*
X131233333Y-139279047D01*
X131233333Y-139520952D01*
X129056190Y-141698095D02*
X129298095Y-141819047D01*
X129781904Y-141819047D01*
X130023809Y-141698095D01*
X130144761Y-141456190D01*
X130144761Y-140488571D01*
X130023809Y-140246666D01*
X129781904Y-140125714D01*
X129298095Y-140125714D01*
X129056190Y-140246666D01*
X128935238Y-140488571D01*
X128935238Y-140730476D01*
X130144761Y-140972380D01*
X125064761Y-140488571D02*
X124701904Y-140609523D01*
X124580952Y-140730476D01*
X124460000Y-140972380D01*
X124460000Y-141335238D01*
X124580952Y-141577142D01*
X124701904Y-141698095D01*
X124943809Y-141819047D01*
X125911428Y-141819047D01*
X125911428Y-139279047D01*
X125064761Y-139279047D01*
X124822857Y-139400000D01*
X124701904Y-139520952D01*
X124580952Y-139762857D01*
X124580952Y-140004761D01*
X124701904Y-140246666D01*
X124822857Y-140367619D01*
X125064761Y-140488571D01*
X125911428Y-140488571D01*
X122282857Y-141819047D02*
X122282857Y-140488571D01*
X122403809Y-140246666D01*
X122645714Y-140125714D01*
X123129523Y-140125714D01*
X123371428Y-140246666D01*
X122282857Y-141698095D02*
X122524761Y-141819047D01*
X123129523Y-141819047D01*
X123371428Y-141698095D01*
X123492380Y-141456190D01*
X123492380Y-141214285D01*
X123371428Y-140972380D01*
X123129523Y-140851428D01*
X122524761Y-140851428D01*
X122282857Y-140730476D01*
X121073333Y-141819047D02*
X121073333Y-139279047D01*
X121073333Y-140246666D02*
X120831428Y-140125714D01*
X120347619Y-140125714D01*
X120105714Y-140246666D01*
X119984761Y-140367619D01*
X119863809Y-140609523D01*
X119863809Y-141335238D01*
X119984761Y-141577142D01*
X120105714Y-141698095D01*
X120347619Y-141819047D01*
X120831428Y-141819047D01*
X121073333Y-141698095D01*
X117807619Y-141698095D02*
X118049523Y-141819047D01*
X118533333Y-141819047D01*
X118775238Y-141698095D01*
X118896190Y-141456190D01*
X118896190Y-140488571D01*
X118775238Y-140246666D01*
X118533333Y-140125714D01*
X118049523Y-140125714D01*
X117807619Y-140246666D01*
X117686666Y-140488571D01*
X117686666Y-140730476D01*
X118896190Y-140972380D01*
X142784285Y-150039047D02*
X142784285Y-147499047D01*
X141332857Y-150039047D01*
X141332857Y-147499047D01*
X139760476Y-150039047D02*
X140002380Y-149918095D01*
X140123333Y-149797142D01*
X140244285Y-149555238D01*
X140244285Y-148829523D01*
X140123333Y-148587619D01*
X140002380Y-148466666D01*
X139760476Y-148345714D01*
X139397619Y-148345714D01*
X139155714Y-148466666D01*
X139034761Y-148587619D01*
X138913809Y-148829523D01*
X138913809Y-149555238D01*
X139034761Y-149797142D01*
X139155714Y-149918095D01*
X139397619Y-150039047D01*
X139760476Y-150039047D01*
X138067142Y-148345714D02*
X137462380Y-150039047D01*
X136857619Y-148345714D01*
X135890000Y-149797142D02*
X135769047Y-149918095D01*
X135890000Y-150039047D01*
X136010952Y-149918095D01*
X135890000Y-149797142D01*
X135890000Y-150039047D01*
X132866190Y-147740952D02*
X132745238Y-147620000D01*
X132503333Y-147499047D01*
X131898571Y-147499047D01*
X131656666Y-147620000D01*
X131535714Y-147740952D01*
X131414761Y-147982857D01*
X131414761Y-148224761D01*
X131535714Y-148587619D01*
X132987142Y-150039047D01*
X131414761Y-150039047D01*
X129237619Y-148345714D02*
X129237619Y-150039047D01*
X129842380Y-147378095D02*
X130447142Y-149192380D01*
X128874761Y-149192380D01*
X127786190Y-149918095D02*
X127786190Y-150039047D01*
X127907142Y-150280952D01*
X128028095Y-150401904D01*
X124883333Y-147740952D02*
X124762380Y-147620000D01*
X124520476Y-147499047D01*
X123915714Y-147499047D01*
X123673809Y-147620000D01*
X123552857Y-147740952D01*
X123431904Y-147982857D01*
X123431904Y-148224761D01*
X123552857Y-148587619D01*
X125004285Y-150039047D01*
X123431904Y-150039047D01*
X121859523Y-147499047D02*
X121617619Y-147499047D01*
X121375714Y-147620000D01*
X121254761Y-147740952D01*
X121133809Y-147982857D01*
X121012857Y-148466666D01*
X121012857Y-149071428D01*
X121133809Y-149555238D01*
X121254761Y-149797142D01*
X121375714Y-149918095D01*
X121617619Y-150039047D01*
X121859523Y-150039047D01*
X122101428Y-149918095D01*
X122222380Y-149797142D01*
X122343333Y-149555238D01*
X122464285Y-149071428D01*
X122464285Y-148466666D01*
X122343333Y-147982857D01*
X122222380Y-147740952D01*
X122101428Y-147620000D01*
X121859523Y-147499047D01*
X120045238Y-147740952D02*
X119924285Y-147620000D01*
X119682380Y-147499047D01*
X119077619Y-147499047D01*
X118835714Y-147620000D01*
X118714761Y-147740952D01*
X118593809Y-147982857D01*
X118593809Y-148224761D01*
X118714761Y-148587619D01*
X120166190Y-150039047D01*
X118593809Y-150039047D01*
X116174761Y-150039047D02*
X117626190Y-150039047D01*
X116900476Y-150039047D02*
X116900476Y-147499047D01*
X117142380Y-147861904D01*
X117384285Y-148103809D01*
X117626190Y-148224761D01*
X139034761Y-154149047D02*
X139034761Y-151609047D01*
X138067142Y-151609047D01*
X137825238Y-151730000D01*
X137704285Y-151850952D01*
X137583333Y-152092857D01*
X137583333Y-152455714D01*
X137704285Y-152697619D01*
X137825238Y-152818571D01*
X138067142Y-152939523D01*
X139034761Y-152939523D01*
X136494761Y-154149047D02*
X136494761Y-151609047D01*
X135406190Y-154149047D02*
X135406190Y-152818571D01*
X135527142Y-152576666D01*
X135769047Y-152455714D01*
X136131904Y-152455714D01*
X136373809Y-152576666D01*
X136494761Y-152697619D01*
X133229047Y-154028095D02*
X133470952Y-154149047D01*
X133954761Y-154149047D01*
X134196666Y-154028095D01*
X134317619Y-153786190D01*
X134317619Y-152818571D01*
X134196666Y-152576666D01*
X133954761Y-152455714D01*
X133470952Y-152455714D01*
X133229047Y-152576666D01*
X133108095Y-152818571D01*
X133108095Y-153060476D01*
X134317619Y-153302380D01*
X131656666Y-154149047D02*
X131898571Y-154028095D01*
X132019523Y-153907142D01*
X132140476Y-153665238D01*
X132140476Y-152939523D01*
X132019523Y-152697619D01*
X131898571Y-152576666D01*
X131656666Y-152455714D01*
X131293809Y-152455714D01*
X131051904Y-152576666D01*
X130930952Y-152697619D01*
X130810000Y-152939523D01*
X130810000Y-153665238D01*
X130930952Y-153907142D01*
X131051904Y-154028095D01*
X131293809Y-154149047D01*
X131656666Y-154149047D01*
X129721428Y-152455714D02*
X129721428Y-154149047D01*
X129721428Y-152697619D02*
X129600476Y-152576666D01*
X129358571Y-152455714D01*
X128995714Y-152455714D01*
X128753809Y-152576666D01*
X128632857Y-152818571D01*
X128632857Y-154149047D01*
X127423333Y-154149047D02*
X127423333Y-152455714D01*
X127423333Y-151609047D02*
X127544285Y-151730000D01*
X127423333Y-151850952D01*
X127302380Y-151730000D01*
X127423333Y-151609047D01*
X127423333Y-151850952D01*
X126455714Y-154149047D02*
X125125238Y-152455714D01*
X126455714Y-152455714D02*
X125125238Y-154149047D01*
X122222380Y-154149047D02*
X122222380Y-151609047D01*
X121375714Y-151609047D02*
X120529047Y-154149047D01*
X119682380Y-151609047D01*
X133591904Y-158259047D02*
X134438571Y-157049523D01*
X135043333Y-158259047D02*
X135043333Y-155719047D01*
X134075714Y-155719047D01*
X133833809Y-155840000D01*
X133712857Y-155960952D01*
X133591904Y-156202857D01*
X133591904Y-156565714D01*
X133712857Y-156807619D01*
X133833809Y-156928571D01*
X134075714Y-157049523D01*
X135043333Y-157049523D01*
X131535714Y-158138095D02*
X131777619Y-158259047D01*
X132261428Y-158259047D01*
X132503333Y-158138095D01*
X132624285Y-157896190D01*
X132624285Y-156928571D01*
X132503333Y-156686666D01*
X132261428Y-156565714D01*
X131777619Y-156565714D01*
X131535714Y-156686666D01*
X131414761Y-156928571D01*
X131414761Y-157170476D01*
X132624285Y-157412380D01*
X130568095Y-156565714D02*
X129963333Y-158259047D01*
X129358571Y-156565714D01*
X128390952Y-158017142D02*
X128270000Y-158138095D01*
X128390952Y-158259047D01*
X128511904Y-158138095D01*
X128390952Y-158017142D01*
X128390952Y-158259047D01*
X123915714Y-158259047D02*
X125367142Y-158259047D01*
X124641428Y-158259047D02*
X124641428Y-155719047D01*
X124883333Y-156081904D01*
X125125238Y-156323809D01*
X125367142Y-156444761D01*
D11*
G36*
X80800482Y-51473182D02*
G01*
X80287537Y-51557305D01*
X79542307Y-51707932D01*
X78535282Y-51923347D01*
X78357754Y-51961587D01*
X75714738Y-52586105D01*
X73124127Y-53305647D01*
X70636206Y-54102993D01*
X68301260Y-54960922D01*
X66169574Y-55862213D01*
X64346667Y-56759966D01*
X63473349Y-57256519D01*
X62481958Y-57867167D01*
X61441599Y-58545126D01*
X60421376Y-59243609D01*
X59490391Y-59915832D01*
X58717748Y-60515008D01*
X58387669Y-60794393D01*
X56764534Y-62396566D01*
X55415743Y-64082407D01*
X54348892Y-65840813D01*
X53571576Y-67660684D01*
X53464105Y-67990357D01*
X53222777Y-69032606D01*
X53075474Y-70236416D01*
X53030289Y-71473436D01*
X53095317Y-72615314D01*
X53148957Y-72988140D01*
X53622760Y-74840318D01*
X54385881Y-76657236D01*
X55426670Y-78432852D01*
X56733477Y-80161121D01*
X58294654Y-81836001D01*
X60098552Y-83451446D01*
X62133521Y-85001414D01*
X64387912Y-86479860D01*
X66850077Y-87880741D01*
X69508365Y-89198014D01*
X72351127Y-90425633D01*
X75366716Y-91557556D01*
X78543481Y-92587738D01*
X81869772Y-93510137D01*
X85333942Y-94318707D01*
X88924341Y-95007406D01*
X92629320Y-95570190D01*
X96437229Y-96001015D01*
X97723087Y-96113903D01*
X98981172Y-96200668D01*
X100431838Y-96274298D01*
X102010858Y-96333630D01*
X103654004Y-96377498D01*
X105297050Y-96404740D01*
X106875768Y-96414189D01*
X108325931Y-96404683D01*
X109583313Y-96375056D01*
X110308572Y-96342062D01*
X111070566Y-96296461D01*
X111726567Y-96254967D01*
X112216056Y-96221574D01*
X112478515Y-96200274D01*
X112500834Y-96197433D01*
X112430180Y-96140254D01*
X112124292Y-96004282D01*
X111633411Y-95810419D01*
X111064524Y-95599951D01*
X110077851Y-95213368D01*
X108960593Y-94724734D01*
X107802223Y-94177311D01*
X106692212Y-93614362D01*
X105720031Y-93079148D01*
X105202957Y-92765699D01*
X104774970Y-92499956D01*
X104454763Y-92315694D01*
X104323342Y-92256429D01*
X104146182Y-92168769D01*
X103770863Y-91925685D01*
X103238207Y-91557016D01*
X102589033Y-91092602D01*
X101864163Y-90562284D01*
X101104417Y-89995902D01*
X100350616Y-89423296D01*
X99643580Y-88874307D01*
X99070460Y-88416526D01*
X98435642Y-87877903D01*
X97646257Y-87173275D01*
X96757747Y-86354192D01*
X95825555Y-85472205D01*
X94905123Y-84578861D01*
X94354825Y-84032002D01*
X92149698Y-81742270D01*
X90178909Y-79531278D01*
X88402818Y-77349825D01*
X86781782Y-75148711D01*
X85276159Y-72878734D01*
X84962426Y-72374881D01*
X83573216Y-69987705D01*
X82381949Y-67665286D01*
X81391400Y-65421506D01*
X80604342Y-63270251D01*
X80023549Y-61225402D01*
X79651795Y-59300844D01*
X79491854Y-57510461D01*
X79546499Y-55868136D01*
X79818504Y-54387751D01*
X80310643Y-53083192D01*
X80913834Y-52110158D01*
X81119642Y-51836033D01*
X81240723Y-51636988D01*
X81247564Y-51511308D01*
X81110654Y-51457278D01*
X80800482Y-51473182D01*
G37*
X80800482Y-51473182D02*
X80287537Y-51557305D01*
X79542307Y-51707932D01*
X78535282Y-51923347D01*
X78357754Y-51961587D01*
X75714738Y-52586105D01*
X73124127Y-53305647D01*
X70636206Y-54102993D01*
X68301260Y-54960922D01*
X66169574Y-55862213D01*
X64346667Y-56759966D01*
X63473349Y-57256519D01*
X62481958Y-57867167D01*
X61441599Y-58545126D01*
X60421376Y-59243609D01*
X59490391Y-59915832D01*
X58717748Y-60515008D01*
X58387669Y-60794393D01*
X56764534Y-62396566D01*
X55415743Y-64082407D01*
X54348892Y-65840813D01*
X53571576Y-67660684D01*
X53464105Y-67990357D01*
X53222777Y-69032606D01*
X53075474Y-70236416D01*
X53030289Y-71473436D01*
X53095317Y-72615314D01*
X53148957Y-72988140D01*
X53622760Y-74840318D01*
X54385881Y-76657236D01*
X55426670Y-78432852D01*
X56733477Y-80161121D01*
X58294654Y-81836001D01*
X60098552Y-83451446D01*
X62133521Y-85001414D01*
X64387912Y-86479860D01*
X66850077Y-87880741D01*
X69508365Y-89198014D01*
X72351127Y-90425633D01*
X75366716Y-91557556D01*
X78543481Y-92587738D01*
X81869772Y-93510137D01*
X85333942Y-94318707D01*
X88924341Y-95007406D01*
X92629320Y-95570190D01*
X96437229Y-96001015D01*
X97723087Y-96113903D01*
X98981172Y-96200668D01*
X100431838Y-96274298D01*
X102010858Y-96333630D01*
X103654004Y-96377498D01*
X105297050Y-96404740D01*
X106875768Y-96414189D01*
X108325931Y-96404683D01*
X109583313Y-96375056D01*
X110308572Y-96342062D01*
X111070566Y-96296461D01*
X111726567Y-96254967D01*
X112216056Y-96221574D01*
X112478515Y-96200274D01*
X112500834Y-96197433D01*
X112430180Y-96140254D01*
X112124292Y-96004282D01*
X111633411Y-95810419D01*
X111064524Y-95599951D01*
X110077851Y-95213368D01*
X108960593Y-94724734D01*
X107802223Y-94177311D01*
X106692212Y-93614362D01*
X105720031Y-93079148D01*
X105202957Y-92765699D01*
X104774970Y-92499956D01*
X104454763Y-92315694D01*
X104323342Y-92256429D01*
X104146182Y-92168769D01*
X103770863Y-91925685D01*
X103238207Y-91557016D01*
X102589033Y-91092602D01*
X101864163Y-90562284D01*
X101104417Y-89995902D01*
X100350616Y-89423296D01*
X99643580Y-88874307D01*
X99070460Y-88416526D01*
X98435642Y-87877903D01*
X97646257Y-87173275D01*
X96757747Y-86354192D01*
X95825555Y-85472205D01*
X94905123Y-84578861D01*
X94354825Y-84032002D01*
X92149698Y-81742270D01*
X90178909Y-79531278D01*
X88402818Y-77349825D01*
X86781782Y-75148711D01*
X85276159Y-72878734D01*
X84962426Y-72374881D01*
X83573216Y-69987705D01*
X82381949Y-67665286D01*
X81391400Y-65421506D01*
X80604342Y-63270251D01*
X80023549Y-61225402D01*
X79651795Y-59300844D01*
X79491854Y-57510461D01*
X79546499Y-55868136D01*
X79818504Y-54387751D01*
X80310643Y-53083192D01*
X80913834Y-52110158D01*
X81119642Y-51836033D01*
X81240723Y-51636988D01*
X81247564Y-51511308D01*
X81110654Y-51457278D01*
X80800482Y-51473182D01*
G36*
X95056986Y-50166496D02*
G01*
X93855701Y-50173749D01*
X92783216Y-50188462D01*
X91882184Y-50210852D01*
X91195263Y-50241137D01*
X90765107Y-50279535D01*
X90746598Y-50282389D01*
X90007839Y-50401374D01*
X91351360Y-50850473D01*
X92314764Y-51213321D01*
X93450666Y-51706897D01*
X94681212Y-52292344D01*
X95928548Y-52930806D01*
X97114822Y-53583426D01*
X98162181Y-54211347D01*
X98425965Y-54381404D01*
X99014143Y-54764784D01*
X99504737Y-55078405D01*
X99846073Y-55289660D01*
X99986178Y-55365952D01*
X100131677Y-55455393D01*
X100469053Y-55701098D01*
X100955102Y-56069140D01*
X101546624Y-56525593D01*
X102200415Y-57036529D01*
X102873275Y-57568022D01*
X103522000Y-58086146D01*
X104103390Y-58556973D01*
X104574241Y-58946577D01*
X104865715Y-59197871D01*
X106421067Y-60613169D01*
X107787337Y-61904161D01*
X109018077Y-63126994D01*
X110166838Y-64337812D01*
X111287173Y-65592762D01*
X112432634Y-66947989D01*
X113436170Y-68183407D01*
X114079431Y-69005848D01*
X114766230Y-69917107D01*
X115465328Y-70872514D01*
X116145487Y-71827400D01*
X116775468Y-72737096D01*
X117324033Y-73556931D01*
X117759943Y-74242237D01*
X118051960Y-74748345D01*
X118111932Y-74869524D01*
X118299405Y-75186649D01*
X118400253Y-75323095D01*
X118600851Y-75627378D01*
X118897905Y-76150083D01*
X119262607Y-76834421D01*
X119666147Y-77623601D01*
X120079716Y-78460832D01*
X120474505Y-79289323D01*
X120821705Y-80052283D01*
X120953626Y-80356476D01*
X121805564Y-82533025D01*
X122438709Y-84551389D01*
X122863357Y-86450745D01*
X123089801Y-88270275D01*
X123108329Y-88556654D01*
X123114929Y-90237741D01*
X122927908Y-91706833D01*
X122541040Y-92989245D01*
X121948100Y-94110297D01*
X121637572Y-94537272D01*
X121367559Y-94886719D01*
X121274598Y-95058781D01*
X121346791Y-95112150D01*
X121521760Y-95108458D01*
X121965699Y-95064644D01*
X122252619Y-95022871D01*
X122928650Y-94893069D01*
X123817898Y-94702848D01*
X124841692Y-94470751D01*
X125921361Y-94215323D01*
X126978234Y-93955108D01*
X127933639Y-93708650D01*
X128584128Y-93530411D01*
X131922946Y-92482676D01*
X134988016Y-91319749D01*
X137778052Y-90042329D01*
X140291771Y-88651114D01*
X142527888Y-87146803D01*
X144485117Y-85530095D01*
X145874995Y-84127728D01*
X147129266Y-82601760D01*
X148106002Y-81104923D01*
X148822482Y-79599122D01*
X149295984Y-78046261D01*
X149543788Y-76408241D01*
X149572827Y-75974560D01*
X149559224Y-74331948D01*
X149328863Y-72801841D01*
X148862874Y-71297888D01*
X148257737Y-69956532D01*
X147578197Y-68711383D01*
X146869791Y-67615491D01*
X146066983Y-66580397D01*
X145104236Y-65517642D01*
X144560855Y-64966548D01*
X143547652Y-63986003D01*
X142618403Y-63149358D01*
X141696810Y-62396328D01*
X140706575Y-61666629D01*
X139571400Y-60899975D01*
X138732381Y-60361319D01*
X135791228Y-58652443D01*
X132594421Y-57082937D01*
X129156847Y-55657116D01*
X125493398Y-54379294D01*
X121618963Y-53253786D01*
X117548430Y-52284905D01*
X113296688Y-51476968D01*
X108878629Y-50834286D01*
X104309139Y-50361176D01*
X104185357Y-50350922D01*
X103489281Y-50306327D01*
X102580760Y-50267452D01*
X101502448Y-50234514D01*
X100297002Y-50207731D01*
X99007078Y-50187320D01*
X97675330Y-50173499D01*
X96344414Y-50166485D01*
X95056986Y-50166496D01*
G37*
X95056986Y-50166496D02*
X93855701Y-50173749D01*
X92783216Y-50188462D01*
X91882184Y-50210852D01*
X91195263Y-50241137D01*
X90765107Y-50279535D01*
X90746598Y-50282389D01*
X90007839Y-50401374D01*
X91351360Y-50850473D01*
X92314764Y-51213321D01*
X93450666Y-51706897D01*
X94681212Y-52292344D01*
X95928548Y-52930806D01*
X97114822Y-53583426D01*
X98162181Y-54211347D01*
X98425965Y-54381404D01*
X99014143Y-54764784D01*
X99504737Y-55078405D01*
X99846073Y-55289660D01*
X99986178Y-55365952D01*
X100131677Y-55455393D01*
X100469053Y-55701098D01*
X100955102Y-56069140D01*
X101546624Y-56525593D01*
X102200415Y-57036529D01*
X102873275Y-57568022D01*
X103522000Y-58086146D01*
X104103390Y-58556973D01*
X104574241Y-58946577D01*
X104865715Y-59197871D01*
X106421067Y-60613169D01*
X107787337Y-61904161D01*
X109018077Y-63126994D01*
X110166838Y-64337812D01*
X111287173Y-65592762D01*
X112432634Y-66947989D01*
X113436170Y-68183407D01*
X114079431Y-69005848D01*
X114766230Y-69917107D01*
X115465328Y-70872514D01*
X116145487Y-71827400D01*
X116775468Y-72737096D01*
X117324033Y-73556931D01*
X117759943Y-74242237D01*
X118051960Y-74748345D01*
X118111932Y-74869524D01*
X118299405Y-75186649D01*
X118400253Y-75323095D01*
X118600851Y-75627378D01*
X118897905Y-76150083D01*
X119262607Y-76834421D01*
X119666147Y-77623601D01*
X120079716Y-78460832D01*
X120474505Y-79289323D01*
X120821705Y-80052283D01*
X120953626Y-80356476D01*
X121805564Y-82533025D01*
X122438709Y-84551389D01*
X122863357Y-86450745D01*
X123089801Y-88270275D01*
X123108329Y-88556654D01*
X123114929Y-90237741D01*
X122927908Y-91706833D01*
X122541040Y-92989245D01*
X121948100Y-94110297D01*
X121637572Y-94537272D01*
X121367559Y-94886719D01*
X121274598Y-95058781D01*
X121346791Y-95112150D01*
X121521760Y-95108458D01*
X121965699Y-95064644D01*
X122252619Y-95022871D01*
X122928650Y-94893069D01*
X123817898Y-94702848D01*
X124841692Y-94470751D01*
X125921361Y-94215323D01*
X126978234Y-93955108D01*
X127933639Y-93708650D01*
X128584128Y-93530411D01*
X131922946Y-92482676D01*
X134988016Y-91319749D01*
X137778052Y-90042329D01*
X140291771Y-88651114D01*
X142527888Y-87146803D01*
X144485117Y-85530095D01*
X145874995Y-84127728D01*
X147129266Y-82601760D01*
X148106002Y-81104923D01*
X148822482Y-79599122D01*
X149295984Y-78046261D01*
X149543788Y-76408241D01*
X149572827Y-75974560D01*
X149559224Y-74331948D01*
X149328863Y-72801841D01*
X148862874Y-71297888D01*
X148257737Y-69956532D01*
X147578197Y-68711383D01*
X146869791Y-67615491D01*
X146066983Y-66580397D01*
X145104236Y-65517642D01*
X144560855Y-64966548D01*
X143547652Y-63986003D01*
X142618403Y-63149358D01*
X141696810Y-62396328D01*
X140706575Y-61666629D01*
X139571400Y-60899975D01*
X138732381Y-60361319D01*
X135791228Y-58652443D01*
X132594421Y-57082937D01*
X129156847Y-55657116D01*
X125493398Y-54379294D01*
X121618963Y-53253786D01*
X117548430Y-52284905D01*
X113296688Y-51476968D01*
X108878629Y-50834286D01*
X104309139Y-50361176D01*
X104185357Y-50350922D01*
X103489281Y-50306327D01*
X102580760Y-50267452D01*
X101502448Y-50234514D01*
X100297002Y-50207731D01*
X99007078Y-50187320D01*
X97675330Y-50173499D01*
X96344414Y-50166485D01*
X95056986Y-50166496D01*
G36*
X113967075Y-101204860D02*
G01*
X113980772Y-101351775D01*
X114056084Y-101627786D01*
X114177195Y-101975867D01*
X114190739Y-102011209D01*
X114335678Y-102390374D01*
X114461563Y-102726937D01*
X114541429Y-102948791D01*
X114542057Y-102950635D01*
X114615670Y-103157769D01*
X114738361Y-103493537D01*
X114888137Y-103897930D01*
X114948422Y-104059365D01*
X115141132Y-104574455D01*
X115352612Y-105140174D01*
X115540766Y-105643906D01*
X115560681Y-105697262D01*
X115751435Y-106207200D01*
X115965545Y-106777841D01*
X116146832Y-107259563D01*
X116336230Y-107761756D01*
X116550637Y-108330273D01*
X116743930Y-108842818D01*
X116745531Y-108847063D01*
X116886370Y-109221544D01*
X117077746Y-109731829D01*
X117299778Y-110324831D01*
X117532583Y-110947468D01*
X117670405Y-111316508D01*
X118024907Y-112265980D01*
X118330740Y-113084488D01*
X118609578Y-113829986D01*
X118883097Y-114560423D01*
X119172974Y-115333753D01*
X119178412Y-115348254D01*
X119372502Y-115865827D01*
X119590111Y-116446116D01*
X119783174Y-116960952D01*
X119977264Y-117478526D01*
X120194872Y-118058814D01*
X120387936Y-118573651D01*
X120579584Y-119085218D01*
X120792353Y-119653926D01*
X120980451Y-120157382D01*
X120981858Y-120161151D01*
X121169621Y-120663343D01*
X121382684Y-121231859D01*
X121575212Y-121744404D01*
X121576810Y-121748651D01*
X121790723Y-122318106D01*
X122050565Y-123011314D01*
X122335323Y-123772080D01*
X122623984Y-124544210D01*
X122895534Y-125271510D01*
X123128959Y-125897787D01*
X123235244Y-126183571D01*
X123388668Y-126601361D01*
X123527225Y-126987022D01*
X123625886Y-127270681D01*
X123640881Y-127315921D01*
X123742654Y-127539933D01*
X123895251Y-127667568D01*
X124139033Y-127710124D01*
X124514361Y-127678898D01*
X124783540Y-127635753D01*
X125838959Y-127547269D01*
X126856257Y-127652720D01*
X127822126Y-127949441D01*
X128702067Y-128420647D01*
X129046567Y-128638239D01*
X129246896Y-128734840D01*
X129317351Y-128714063D01*
X129272228Y-128579521D01*
X129263256Y-128562459D01*
X129146361Y-128395441D01*
X128935109Y-128135969D01*
X128673632Y-127838074D01*
X128654077Y-127816620D01*
X128015452Y-127259706D01*
X127269977Y-126852000D01*
X126463094Y-126616865D01*
X126265978Y-126588778D01*
X125845087Y-126524929D01*
X125570114Y-126424958D01*
X125385391Y-126251970D01*
X125235248Y-125969069D01*
X125198368Y-125881190D01*
X125100326Y-125644019D01*
X124943025Y-125266310D01*
X124745369Y-124793343D01*
X124526262Y-124270396D01*
X124440855Y-124066905D01*
X124182301Y-123450212D01*
X123903107Y-122782670D01*
X123635017Y-122140269D01*
X123409776Y-121599000D01*
X123388218Y-121547063D01*
X122921349Y-120422828D01*
X122517178Y-119451585D01*
X122161732Y-118599887D01*
X121841038Y-117834290D01*
X121541121Y-117121347D01*
X121356044Y-116682972D01*
X121154996Y-116204322D01*
X120985495Y-115794904D01*
X120861530Y-115488965D01*
X120797089Y-115320754D01*
X120791111Y-115299815D01*
X120752671Y-115190000D01*
X120653200Y-114954192D01*
X120549287Y-114721049D01*
X120395356Y-114372810D01*
X120201752Y-113921340D01*
X120004261Y-113450343D01*
X119955611Y-113332381D01*
X119792681Y-112937674D01*
X119574641Y-112412328D01*
X119324467Y-111811555D01*
X119065132Y-111190564D01*
X118927979Y-110862936D01*
X118655906Y-110213238D01*
X118363601Y-109514531D01*
X118079796Y-108835537D01*
X117833225Y-108244982D01*
X117748039Y-108040714D01*
X117550549Y-107567677D01*
X117374773Y-107148046D01*
X117238623Y-106824487D01*
X117160013Y-106639670D01*
X117155630Y-106629603D01*
X117087865Y-106471655D01*
X116956953Y-106163896D01*
X116778130Y-105742238D01*
X116566631Y-105242595D01*
X116411907Y-104876581D01*
X116156645Y-104294672D01*
X115888390Y-103721093D01*
X115632199Y-103206984D01*
X115413130Y-102803481D01*
X115325556Y-102659513D01*
X115060275Y-102277722D01*
X114775106Y-101912795D01*
X114496852Y-101593430D01*
X114252316Y-101348328D01*
X114068300Y-101206189D01*
X113971607Y-101195712D01*
X113967075Y-101204860D01*
G37*
X113967075Y-101204860D02*
X113980772Y-101351775D01*
X114056084Y-101627786D01*
X114177195Y-101975867D01*
X114190739Y-102011209D01*
X114335678Y-102390374D01*
X114461563Y-102726937D01*
X114541429Y-102948791D01*
X114542057Y-102950635D01*
X114615670Y-103157769D01*
X114738361Y-103493537D01*
X114888137Y-103897930D01*
X114948422Y-104059365D01*
X115141132Y-104574455D01*
X115352612Y-105140174D01*
X115540766Y-105643906D01*
X115560681Y-105697262D01*
X115751435Y-106207200D01*
X115965545Y-106777841D01*
X116146832Y-107259563D01*
X116336230Y-107761756D01*
X116550637Y-108330273D01*
X116743930Y-108842818D01*
X116745531Y-108847063D01*
X116886370Y-109221544D01*
X117077746Y-109731829D01*
X117299778Y-110324831D01*
X117532583Y-110947468D01*
X117670405Y-111316508D01*
X118024907Y-112265980D01*
X118330740Y-113084488D01*
X118609578Y-113829986D01*
X118883097Y-114560423D01*
X119172974Y-115333753D01*
X119178412Y-115348254D01*
X119372502Y-115865827D01*
X119590111Y-116446116D01*
X119783174Y-116960952D01*
X119977264Y-117478526D01*
X120194872Y-118058814D01*
X120387936Y-118573651D01*
X120579584Y-119085218D01*
X120792353Y-119653926D01*
X120980451Y-120157382D01*
X120981858Y-120161151D01*
X121169621Y-120663343D01*
X121382684Y-121231859D01*
X121575212Y-121744404D01*
X121576810Y-121748651D01*
X121790723Y-122318106D01*
X122050565Y-123011314D01*
X122335323Y-123772080D01*
X122623984Y-124544210D01*
X122895534Y-125271510D01*
X123128959Y-125897787D01*
X123235244Y-126183571D01*
X123388668Y-126601361D01*
X123527225Y-126987022D01*
X123625886Y-127270681D01*
X123640881Y-127315921D01*
X123742654Y-127539933D01*
X123895251Y-127667568D01*
X124139033Y-127710124D01*
X124514361Y-127678898D01*
X124783540Y-127635753D01*
X125838959Y-127547269D01*
X126856257Y-127652720D01*
X127822126Y-127949441D01*
X128702067Y-128420647D01*
X129046567Y-128638239D01*
X129246896Y-128734840D01*
X129317351Y-128714063D01*
X129272228Y-128579521D01*
X129263256Y-128562459D01*
X129146361Y-128395441D01*
X128935109Y-128135969D01*
X128673632Y-127838074D01*
X128654077Y-127816620D01*
X128015452Y-127259706D01*
X127269977Y-126852000D01*
X126463094Y-126616865D01*
X126265978Y-126588778D01*
X125845087Y-126524929D01*
X125570114Y-126424958D01*
X125385391Y-126251970D01*
X125235248Y-125969069D01*
X125198368Y-125881190D01*
X125100326Y-125644019D01*
X124943025Y-125266310D01*
X124745369Y-124793343D01*
X124526262Y-124270396D01*
X124440855Y-124066905D01*
X124182301Y-123450212D01*
X123903107Y-122782670D01*
X123635017Y-122140269D01*
X123409776Y-121599000D01*
X123388218Y-121547063D01*
X122921349Y-120422828D01*
X122517178Y-119451585D01*
X122161732Y-118599887D01*
X121841038Y-117834290D01*
X121541121Y-117121347D01*
X121356044Y-116682972D01*
X121154996Y-116204322D01*
X120985495Y-115794904D01*
X120861530Y-115488965D01*
X120797089Y-115320754D01*
X120791111Y-115299815D01*
X120752671Y-115190000D01*
X120653200Y-114954192D01*
X120549287Y-114721049D01*
X120395356Y-114372810D01*
X120201752Y-113921340D01*
X120004261Y-113450343D01*
X119955611Y-113332381D01*
X119792681Y-112937674D01*
X119574641Y-112412328D01*
X119324467Y-111811555D01*
X119065132Y-111190564D01*
X118927979Y-110862936D01*
X118655906Y-110213238D01*
X118363601Y-109514531D01*
X118079796Y-108835537D01*
X117833225Y-108244982D01*
X117748039Y-108040714D01*
X117550549Y-107567677D01*
X117374773Y-107148046D01*
X117238623Y-106824487D01*
X117160013Y-106639670D01*
X117155630Y-106629603D01*
X117087865Y-106471655D01*
X116956953Y-106163896D01*
X116778130Y-105742238D01*
X116566631Y-105242595D01*
X116411907Y-104876581D01*
X116156645Y-104294672D01*
X115888390Y-103721093D01*
X115632199Y-103206984D01*
X115413130Y-102803481D01*
X115325556Y-102659513D01*
X115060275Y-102277722D01*
X114775106Y-101912795D01*
X114496852Y-101593430D01*
X114252316Y-101348328D01*
X114068300Y-101206189D01*
X113971607Y-101195712D01*
X113967075Y-101204860D01*
G36*
X115070976Y-99868124D02*
G01*
X115097692Y-99968423D01*
X115214178Y-100177963D01*
X115325138Y-100348115D01*
X115699638Y-100958104D01*
X116057821Y-101679506D01*
X116415262Y-102545760D01*
X116654675Y-103202619D01*
X117798973Y-106409119D01*
X118932081Y-109449759D01*
X120067511Y-112358745D01*
X121218773Y-115170284D01*
X122399380Y-117918585D01*
X123004683Y-119279206D01*
X123391564Y-120131201D01*
X123786136Y-120985774D01*
X124178454Y-121822573D01*
X124558574Y-122621244D01*
X124916549Y-123361434D01*
X125242436Y-124022788D01*
X125526290Y-124584954D01*
X125758166Y-125027578D01*
X125928118Y-125330307D01*
X126026202Y-125472786D01*
X126033940Y-125478979D01*
X126213572Y-125526922D01*
X126496324Y-125544978D01*
X126577638Y-125543234D01*
X127432435Y-125607530D01*
X128266421Y-125866744D01*
X129062917Y-126314251D01*
X129596494Y-126742623D01*
X129864461Y-126979742D01*
X130064426Y-127141853D01*
X130161036Y-127200720D01*
X130164920Y-127196616D01*
X130097950Y-126990975D01*
X129916638Y-126687366D01*
X129650385Y-126329159D01*
X129328590Y-125959724D01*
X129320983Y-125951666D01*
X128782486Y-125464909D01*
X128183950Y-125099729D01*
X127462107Y-124818942D01*
X127321637Y-124776652D01*
X126996891Y-124667216D01*
X126749548Y-124556497D01*
X126655935Y-124490580D01*
X126595798Y-124365819D01*
X126478211Y-124078089D01*
X126313492Y-123654276D01*
X126111954Y-123121266D01*
X125883915Y-122505947D01*
X125681274Y-121950238D01*
X124131253Y-117836872D01*
X122442500Y-113671081D01*
X120641013Y-109516636D01*
X120339444Y-108847063D01*
X119910919Y-107912773D01*
X119463759Y-106959950D01*
X119009045Y-106010563D01*
X118557859Y-105086582D01*
X118121281Y-104209978D01*
X117710393Y-103402718D01*
X117336276Y-102686774D01*
X117010010Y-102084114D01*
X116742678Y-101616708D01*
X116545360Y-101306525D01*
X116515381Y-101265432D01*
X116254137Y-100943654D01*
X115957778Y-100615125D01*
X115658965Y-100311443D01*
X115390360Y-100064204D01*
X115184626Y-99905005D01*
X115074424Y-99865443D01*
X115070976Y-99868124D01*
G37*
X115070976Y-99868124D02*
X115097692Y-99968423D01*
X115214178Y-100177963D01*
X115325138Y-100348115D01*
X115699638Y-100958104D01*
X116057821Y-101679506D01*
X116415262Y-102545760D01*
X116654675Y-103202619D01*
X117798973Y-106409119D01*
X118932081Y-109449759D01*
X120067511Y-112358745D01*
X121218773Y-115170284D01*
X122399380Y-117918585D01*
X123004683Y-119279206D01*
X123391564Y-120131201D01*
X123786136Y-120985774D01*
X124178454Y-121822573D01*
X124558574Y-122621244D01*
X124916549Y-123361434D01*
X125242436Y-124022788D01*
X125526290Y-124584954D01*
X125758166Y-125027578D01*
X125928118Y-125330307D01*
X126026202Y-125472786D01*
X126033940Y-125478979D01*
X126213572Y-125526922D01*
X126496324Y-125544978D01*
X126577638Y-125543234D01*
X127432435Y-125607530D01*
X128266421Y-125866744D01*
X129062917Y-126314251D01*
X129596494Y-126742623D01*
X129864461Y-126979742D01*
X130064426Y-127141853D01*
X130161036Y-127200720D01*
X130164920Y-127196616D01*
X130097950Y-126990975D01*
X129916638Y-126687366D01*
X129650385Y-126329159D01*
X129328590Y-125959724D01*
X129320983Y-125951666D01*
X128782486Y-125464909D01*
X128183950Y-125099729D01*
X127462107Y-124818942D01*
X127321637Y-124776652D01*
X126996891Y-124667216D01*
X126749548Y-124556497D01*
X126655935Y-124490580D01*
X126595798Y-124365819D01*
X126478211Y-124078089D01*
X126313492Y-123654276D01*
X126111954Y-123121266D01*
X125883915Y-122505947D01*
X125681274Y-121950238D01*
X124131253Y-117836872D01*
X122442500Y-113671081D01*
X120641013Y-109516636D01*
X120339444Y-108847063D01*
X119910919Y-107912773D01*
X119463759Y-106959950D01*
X119009045Y-106010563D01*
X118557859Y-105086582D01*
X118121281Y-104209978D01*
X117710393Y-103402718D01*
X117336276Y-102686774D01*
X117010010Y-102084114D01*
X116742678Y-101616708D01*
X116545360Y-101306525D01*
X116515381Y-101265432D01*
X116254137Y-100943654D01*
X115957778Y-100615125D01*
X115658965Y-100311443D01*
X115390360Y-100064204D01*
X115184626Y-99905005D01*
X115074424Y-99865443D01*
X115070976Y-99868124D01*
G36*
X50887821Y-106690732D02*
G01*
X50608554Y-106740265D01*
X50472331Y-106854608D01*
X50450086Y-107059768D01*
X50512749Y-107381753D01*
X50520379Y-107412614D01*
X50566366Y-107633705D01*
X50635893Y-108016468D01*
X50725429Y-108538087D01*
X50831441Y-109175746D01*
X50950397Y-109906630D01*
X51078765Y-110707922D01*
X51213013Y-111556808D01*
X51349608Y-112430470D01*
X51485020Y-113306094D01*
X51615715Y-114160863D01*
X51738162Y-114971962D01*
X51848828Y-115716574D01*
X51944181Y-116371885D01*
X52020690Y-116915078D01*
X52074822Y-117323338D01*
X52103045Y-117573849D01*
X52104517Y-117645430D01*
X51997681Y-117640114D01*
X51962311Y-117609392D01*
X51898498Y-117506936D01*
X51744173Y-117244776D01*
X51508311Y-116838536D01*
X51199889Y-116303836D01*
X50827883Y-115656301D01*
X50401269Y-114911552D01*
X49929025Y-114085212D01*
X49420125Y-113192904D01*
X48925742Y-112324444D01*
X48386918Y-111379643D01*
X47872487Y-110482531D01*
X47391924Y-109649306D01*
X46954702Y-108896163D01*
X46570297Y-108239302D01*
X46248181Y-107694917D01*
X45997830Y-107279207D01*
X45828717Y-107008369D01*
X45754136Y-106902216D01*
X45620730Y-106783652D01*
X45464909Y-106717539D01*
X45230916Y-106692488D01*
X44862996Y-106697106D01*
X44767396Y-106700628D01*
X43999863Y-106730397D01*
X49173481Y-115348254D01*
X50045924Y-116800498D01*
X50821911Y-118089754D01*
X51507917Y-119226360D01*
X52110418Y-120220658D01*
X52635886Y-121082985D01*
X53090798Y-121823683D01*
X53481628Y-122453091D01*
X53814850Y-122981549D01*
X54096940Y-123419397D01*
X54334372Y-123776973D01*
X54533621Y-124064619D01*
X54701161Y-124292673D01*
X54843468Y-124471476D01*
X54967016Y-124611367D01*
X54987557Y-124633000D01*
X55724796Y-125270163D01*
X56556562Y-125759075D01*
X57446818Y-126083689D01*
X58359526Y-126227958D01*
X58583135Y-126233968D01*
X58894701Y-126228537D01*
X59048799Y-126197485D01*
X59089519Y-126118673D01*
X59066353Y-125991337D01*
X58989371Y-125750543D01*
X58867293Y-125430097D01*
X58813413Y-125300684D01*
X58699447Y-125052721D01*
X58586664Y-124913812D01*
X58413010Y-124844912D01*
X58116429Y-124806975D01*
X58013840Y-124797575D01*
X57361775Y-124656453D01*
X56731596Y-124373118D01*
X56201461Y-123984348D01*
X56125676Y-123909130D01*
X55771917Y-123494215D01*
X55376899Y-122956940D01*
X54982167Y-122358743D01*
X54629267Y-121761060D01*
X54473949Y-121466607D01*
X54273585Y-121030556D01*
X54101111Y-120567547D01*
X53950418Y-120049590D01*
X53815398Y-119448695D01*
X53689941Y-118736870D01*
X53567939Y-117886126D01*
X53443282Y-116868472D01*
X53413629Y-116608175D01*
X53339563Y-115961926D01*
X53251676Y-115213911D01*
X53152923Y-114387747D01*
X53046265Y-113507047D01*
X52934657Y-112595428D01*
X52821059Y-111676504D01*
X52708428Y-110773890D01*
X52599722Y-109911201D01*
X52497898Y-109112053D01*
X52405915Y-108400061D01*
X52326730Y-107798839D01*
X52263301Y-107332002D01*
X52218586Y-107023167D01*
X52198519Y-106906786D01*
X52158336Y-106793870D01*
X52072255Y-106726292D01*
X51896578Y-106692517D01*
X51587606Y-106681013D01*
X51339202Y-106680000D01*
X50887821Y-106690732D01*
G37*
X50887821Y-106690732D02*
X50608554Y-106740265D01*
X50472331Y-106854608D01*
X50450086Y-107059768D01*
X50512749Y-107381753D01*
X50520379Y-107412614D01*
X50566366Y-107633705D01*
X50635893Y-108016468D01*
X50725429Y-108538087D01*
X50831441Y-109175746D01*
X50950397Y-109906630D01*
X51078765Y-110707922D01*
X51213013Y-111556808D01*
X51349608Y-112430470D01*
X51485020Y-113306094D01*
X51615715Y-114160863D01*
X51738162Y-114971962D01*
X51848828Y-115716574D01*
X51944181Y-116371885D01*
X52020690Y-116915078D01*
X52074822Y-117323338D01*
X52103045Y-117573849D01*
X52104517Y-117645430D01*
X51997681Y-117640114D01*
X51962311Y-117609392D01*
X51898498Y-117506936D01*
X51744173Y-117244776D01*
X51508311Y-116838536D01*
X51199889Y-116303836D01*
X50827883Y-115656301D01*
X50401269Y-114911552D01*
X49929025Y-114085212D01*
X49420125Y-113192904D01*
X48925742Y-112324444D01*
X48386918Y-111379643D01*
X47872487Y-110482531D01*
X47391924Y-109649306D01*
X46954702Y-108896163D01*
X46570297Y-108239302D01*
X46248181Y-107694917D01*
X45997830Y-107279207D01*
X45828717Y-107008369D01*
X45754136Y-106902216D01*
X45620730Y-106783652D01*
X45464909Y-106717539D01*
X45230916Y-106692488D01*
X44862996Y-106697106D01*
X44767396Y-106700628D01*
X43999863Y-106730397D01*
X49173481Y-115348254D01*
X50045924Y-116800498D01*
X50821911Y-118089754D01*
X51507917Y-119226360D01*
X52110418Y-120220658D01*
X52635886Y-121082985D01*
X53090798Y-121823683D01*
X53481628Y-122453091D01*
X53814850Y-122981549D01*
X54096940Y-123419397D01*
X54334372Y-123776973D01*
X54533621Y-124064619D01*
X54701161Y-124292673D01*
X54843468Y-124471476D01*
X54967016Y-124611367D01*
X54987557Y-124633000D01*
X55724796Y-125270163D01*
X56556562Y-125759075D01*
X57446818Y-126083689D01*
X58359526Y-126227958D01*
X58583135Y-126233968D01*
X58894701Y-126228537D01*
X59048799Y-126197485D01*
X59089519Y-126118673D01*
X59066353Y-125991337D01*
X58989371Y-125750543D01*
X58867293Y-125430097D01*
X58813413Y-125300684D01*
X58699447Y-125052721D01*
X58586664Y-124913812D01*
X58413010Y-124844912D01*
X58116429Y-124806975D01*
X58013840Y-124797575D01*
X57361775Y-124656453D01*
X56731596Y-124373118D01*
X56201461Y-123984348D01*
X56125676Y-123909130D01*
X55771917Y-123494215D01*
X55376899Y-122956940D01*
X54982167Y-122358743D01*
X54629267Y-121761060D01*
X54473949Y-121466607D01*
X54273585Y-121030556D01*
X54101111Y-120567547D01*
X53950418Y-120049590D01*
X53815398Y-119448695D01*
X53689941Y-118736870D01*
X53567939Y-117886126D01*
X53443282Y-116868472D01*
X53413629Y-116608175D01*
X53339563Y-115961926D01*
X53251676Y-115213911D01*
X53152923Y-114387747D01*
X53046265Y-113507047D01*
X52934657Y-112595428D01*
X52821059Y-111676504D01*
X52708428Y-110773890D01*
X52599722Y-109911201D01*
X52497898Y-109112053D01*
X52405915Y-108400061D01*
X52326730Y-107798839D01*
X52263301Y-107332002D01*
X52218586Y-107023167D01*
X52198519Y-106906786D01*
X52158336Y-106793870D01*
X52072255Y-106726292D01*
X51896578Y-106692517D01*
X51587606Y-106681013D01*
X51339202Y-106680000D01*
X50887821Y-106690732D01*
G36*
X144897376Y-100912216D02*
G01*
X144286757Y-101029906D01*
X143799917Y-101234939D01*
X143322458Y-101638444D01*
X142992126Y-102175618D01*
X142810215Y-102840953D01*
X142778019Y-103628943D01*
X142896829Y-104534083D01*
X142959143Y-104815317D01*
X143056993Y-105176772D01*
X143215422Y-105704203D01*
X143426641Y-106373946D01*
X143682864Y-107162336D01*
X143976303Y-108045708D01*
X144299171Y-109000398D01*
X144643681Y-110002741D01*
X145002045Y-111029072D01*
X145030098Y-111108722D01*
X145362162Y-112020504D01*
X145740748Y-113008756D01*
X146145683Y-114024222D01*
X146556795Y-115017643D01*
X146953911Y-115939761D01*
X147316856Y-116741318D01*
X147460113Y-117042261D01*
X147737583Y-117601578D01*
X147967489Y-118025499D01*
X148182994Y-118363345D01*
X148417260Y-118664439D01*
X148703450Y-118978101D01*
X148889789Y-119168587D01*
X149644177Y-119821587D01*
X150454494Y-120327508D01*
X151294775Y-120677716D01*
X152139054Y-120863578D01*
X152961364Y-120876460D01*
X153627305Y-120743819D01*
X154267774Y-120472130D01*
X154740192Y-120101630D01*
X155055334Y-119617091D01*
X155223978Y-119003282D01*
X155260789Y-118435349D01*
X155250043Y-118057452D01*
X155220655Y-117735218D01*
X153639093Y-117735218D01*
X153594463Y-118321193D01*
X153422940Y-118784636D01*
X153123481Y-119137744D01*
X153094097Y-119161489D01*
X152773714Y-119309211D01*
X152325843Y-119378409D01*
X151809345Y-119367456D01*
X151283078Y-119274724D01*
X151090455Y-119216915D01*
X150490517Y-118910696D01*
X149920222Y-118417057D01*
X149392316Y-117749452D01*
X148923276Y-116928978D01*
X148562078Y-116151803D01*
X148154701Y-115206558D01*
X147710847Y-114118856D01*
X147240218Y-112914314D01*
X146752517Y-111618548D01*
X146257445Y-110257173D01*
X145764706Y-108855804D01*
X145284000Y-107440058D01*
X144984073Y-106528810D01*
X144689590Y-105553460D01*
X144495334Y-104738220D01*
X144401672Y-104068086D01*
X144408973Y-103528053D01*
X144517604Y-103103114D01*
X144727933Y-102778266D01*
X145040327Y-102538502D01*
X145082381Y-102515930D01*
X145367636Y-102406756D01*
X145708289Y-102365201D01*
X146100354Y-102375395D01*
X146851823Y-102521029D01*
X147542051Y-102858041D01*
X148169620Y-103385302D01*
X148733113Y-104101686D01*
X149122371Y-104781319D01*
X149375236Y-105317232D01*
X149679688Y-106016863D01*
X150025276Y-106852126D01*
X150401549Y-107794935D01*
X150798054Y-108817205D01*
X151204340Y-109890848D01*
X151609956Y-110987780D01*
X152004450Y-112079915D01*
X152377370Y-113139167D01*
X152718264Y-114137450D01*
X153016682Y-115046679D01*
X153262172Y-115838766D01*
X153351846Y-116146885D01*
X153557873Y-117014514D01*
X153639093Y-117735218D01*
X155220655Y-117735218D01*
X155215350Y-117677053D01*
X155150216Y-117268034D01*
X155048145Y-116804277D01*
X154902640Y-116259664D01*
X154707205Y-115608075D01*
X154455346Y-114823393D01*
X154140565Y-113879499D01*
X154091915Y-113735556D01*
X153468833Y-111922372D01*
X152887604Y-110290468D01*
X152342493Y-108825234D01*
X151827770Y-107512058D01*
X151337703Y-106336329D01*
X150866559Y-105283436D01*
X150408606Y-104338769D01*
X150394708Y-104311349D01*
X149786523Y-103303119D01*
X149072450Y-102464842D01*
X148254295Y-101797970D01*
X147333861Y-101303954D01*
X146312954Y-100984245D01*
X146237541Y-100968383D01*
X145568351Y-100889443D01*
X144897376Y-100912216D01*
G37*
X144897376Y-100912216D02*
X144286757Y-101029906D01*
X143799917Y-101234939D01*
X143322458Y-101638444D01*
X142992126Y-102175618D01*
X142810215Y-102840953D01*
X142778019Y-103628943D01*
X142896829Y-104534083D01*
X142959143Y-104815317D01*
X143056993Y-105176772D01*
X143215422Y-105704203D01*
X143426641Y-106373946D01*
X143682864Y-107162336D01*
X143976303Y-108045708D01*
X144299171Y-109000398D01*
X144643681Y-110002741D01*
X145002045Y-111029072D01*
X145030098Y-111108722D01*
X145362162Y-112020504D01*
X145740748Y-113008756D01*
X146145683Y-114024222D01*
X146556795Y-115017643D01*
X146953911Y-115939761D01*
X147316856Y-116741318D01*
X147460113Y-117042261D01*
X147737583Y-117601578D01*
X147967489Y-118025499D01*
X148182994Y-118363345D01*
X148417260Y-118664439D01*
X148703450Y-118978101D01*
X148889789Y-119168587D01*
X149644177Y-119821587D01*
X150454494Y-120327508D01*
X151294775Y-120677716D01*
X152139054Y-120863578D01*
X152961364Y-120876460D01*
X153627305Y-120743819D01*
X154267774Y-120472130D01*
X154740192Y-120101630D01*
X155055334Y-119617091D01*
X155223978Y-119003282D01*
X155260789Y-118435349D01*
X155250043Y-118057452D01*
X155220655Y-117735218D01*
X153639093Y-117735218D01*
X153594463Y-118321193D01*
X153422940Y-118784636D01*
X153123481Y-119137744D01*
X153094097Y-119161489D01*
X152773714Y-119309211D01*
X152325843Y-119378409D01*
X151809345Y-119367456D01*
X151283078Y-119274724D01*
X151090455Y-119216915D01*
X150490517Y-118910696D01*
X149920222Y-118417057D01*
X149392316Y-117749452D01*
X148923276Y-116928978D01*
X148562078Y-116151803D01*
X148154701Y-115206558D01*
X147710847Y-114118856D01*
X147240218Y-112914314D01*
X146752517Y-111618548D01*
X146257445Y-110257173D01*
X145764706Y-108855804D01*
X145284000Y-107440058D01*
X144984073Y-106528810D01*
X144689590Y-105553460D01*
X144495334Y-104738220D01*
X144401672Y-104068086D01*
X144408973Y-103528053D01*
X144517604Y-103103114D01*
X144727933Y-102778266D01*
X145040327Y-102538502D01*
X145082381Y-102515930D01*
X145367636Y-102406756D01*
X145708289Y-102365201D01*
X146100354Y-102375395D01*
X146851823Y-102521029D01*
X147542051Y-102858041D01*
X148169620Y-103385302D01*
X148733113Y-104101686D01*
X149122371Y-104781319D01*
X149375236Y-105317232D01*
X149679688Y-106016863D01*
X150025276Y-106852126D01*
X150401549Y-107794935D01*
X150798054Y-108817205D01*
X151204340Y-109890848D01*
X151609956Y-110987780D01*
X152004450Y-112079915D01*
X152377370Y-113139167D01*
X152718264Y-114137450D01*
X153016682Y-115046679D01*
X153262172Y-115838766D01*
X153351846Y-116146885D01*
X153557873Y-117014514D01*
X153639093Y-117735218D01*
X155220655Y-117735218D01*
X155215350Y-117677053D01*
X155150216Y-117268034D01*
X155048145Y-116804277D01*
X154902640Y-116259664D01*
X154707205Y-115608075D01*
X154455346Y-114823393D01*
X154140565Y-113879499D01*
X154091915Y-113735556D01*
X153468833Y-111922372D01*
X152887604Y-110290468D01*
X152342493Y-108825234D01*
X151827770Y-107512058D01*
X151337703Y-106336329D01*
X150866559Y-105283436D01*
X150408606Y-104338769D01*
X150394708Y-104311349D01*
X149786523Y-103303119D01*
X149072450Y-102464842D01*
X148254295Y-101797970D01*
X147333861Y-101303954D01*
X146312954Y-100984245D01*
X146237541Y-100968383D01*
X145568351Y-100889443D01*
X144897376Y-100912216D01*
G36*
X98913231Y-106591364D02*
G01*
X98372006Y-106832060D01*
X98202120Y-106956886D01*
X97819118Y-107409398D01*
X97586301Y-107996065D01*
X97503661Y-108716974D01*
X97571187Y-109572213D01*
X97788871Y-110561870D01*
X97804766Y-110618670D01*
X98100749Y-111602295D01*
X98450676Y-112660033D01*
X98838029Y-113748660D01*
X99246291Y-114824954D01*
X99658943Y-115845690D01*
X100059467Y-116767644D01*
X100431345Y-117547593D01*
X100513827Y-117707569D01*
X100906082Y-118360261D01*
X101376787Y-118993359D01*
X101887392Y-119563353D01*
X102399344Y-120026734D01*
X102822013Y-120312665D01*
X103484028Y-120600752D01*
X104206964Y-120793136D01*
X104933956Y-120882256D01*
X105608136Y-120860548D01*
X106099521Y-120748482D01*
X106575706Y-120534698D01*
X106948062Y-120261302D01*
X107217605Y-119914419D01*
X107385353Y-119480178D01*
X107452321Y-118944706D01*
X107419527Y-118294130D01*
X107395765Y-118153308D01*
X105818664Y-118153308D01*
X105815798Y-118539893D01*
X105788390Y-118786463D01*
X105717117Y-118954521D01*
X105582657Y-119105572D01*
X105494084Y-119186443D01*
X105256248Y-119367514D01*
X105013974Y-119455323D01*
X104675924Y-119480518D01*
X104616882Y-119480794D01*
X104246789Y-119458139D01*
X103915194Y-119400423D01*
X103786925Y-119359171D01*
X103087998Y-118951853D01*
X102503019Y-118393573D01*
X102299227Y-118119082D01*
X102046759Y-117686939D01*
X101747807Y-117087616D01*
X101413284Y-116347174D01*
X101054100Y-115491679D01*
X100681168Y-114547193D01*
X100305397Y-113539778D01*
X99937701Y-112495500D01*
X99906266Y-112403213D01*
X99667857Y-111696897D01*
X99487804Y-111146890D01*
X99357910Y-110719214D01*
X99269980Y-110379893D01*
X99215820Y-110094949D01*
X99187236Y-109830405D01*
X99176031Y-109552286D01*
X99174255Y-109368188D01*
X99175522Y-108940403D01*
X99192890Y-108661775D01*
X99240778Y-108479883D01*
X99333607Y-108342301D01*
X99485799Y-108196608D01*
X99500042Y-108183862D01*
X99906637Y-107947884D01*
X100391959Y-107871583D01*
X100922806Y-107946976D01*
X101465980Y-108166079D01*
X101988280Y-108520909D01*
X102342986Y-108867491D01*
X102596904Y-109194481D01*
X102858993Y-109613589D01*
X103137633Y-110142634D01*
X103441201Y-110799434D01*
X103778076Y-111601806D01*
X104156636Y-112567569D01*
X104450770Y-113349965D01*
X104821580Y-114360856D01*
X105122275Y-115208148D01*
X105359363Y-115914697D01*
X105539354Y-116503360D01*
X105668756Y-116996993D01*
X105754080Y-117418454D01*
X105801834Y-117790600D01*
X105818528Y-118136286D01*
X105818664Y-118153308D01*
X107395765Y-118153308D01*
X107287987Y-117514578D01*
X107058718Y-116592176D01*
X106732735Y-115513052D01*
X106528491Y-114894683D01*
X106026682Y-113452452D01*
X105556281Y-112193880D01*
X105109691Y-111104848D01*
X104679313Y-110171238D01*
X104257550Y-109378931D01*
X103836804Y-108713807D01*
X103409478Y-108161749D01*
X102967973Y-107708637D01*
X102504692Y-107340354D01*
X102439334Y-107295875D01*
X101741934Y-106909946D01*
X101005478Y-106643718D01*
X100265112Y-106500004D01*
X99555981Y-106481616D01*
X98913231Y-106591364D01*
G37*
X98913231Y-106591364D02*
X98372006Y-106832060D01*
X98202120Y-106956886D01*
X97819118Y-107409398D01*
X97586301Y-107996065D01*
X97503661Y-108716974D01*
X97571187Y-109572213D01*
X97788871Y-110561870D01*
X97804766Y-110618670D01*
X98100749Y-111602295D01*
X98450676Y-112660033D01*
X98838029Y-113748660D01*
X99246291Y-114824954D01*
X99658943Y-115845690D01*
X100059467Y-116767644D01*
X100431345Y-117547593D01*
X100513827Y-117707569D01*
X100906082Y-118360261D01*
X101376787Y-118993359D01*
X101887392Y-119563353D01*
X102399344Y-120026734D01*
X102822013Y-120312665D01*
X103484028Y-120600752D01*
X104206964Y-120793136D01*
X104933956Y-120882256D01*
X105608136Y-120860548D01*
X106099521Y-120748482D01*
X106575706Y-120534698D01*
X106948062Y-120261302D01*
X107217605Y-119914419D01*
X107385353Y-119480178D01*
X107452321Y-118944706D01*
X107419527Y-118294130D01*
X107395765Y-118153308D01*
X105818664Y-118153308D01*
X105815798Y-118539893D01*
X105788390Y-118786463D01*
X105717117Y-118954521D01*
X105582657Y-119105572D01*
X105494084Y-119186443D01*
X105256248Y-119367514D01*
X105013974Y-119455323D01*
X104675924Y-119480518D01*
X104616882Y-119480794D01*
X104246789Y-119458139D01*
X103915194Y-119400423D01*
X103786925Y-119359171D01*
X103087998Y-118951853D01*
X102503019Y-118393573D01*
X102299227Y-118119082D01*
X102046759Y-117686939D01*
X101747807Y-117087616D01*
X101413284Y-116347174D01*
X101054100Y-115491679D01*
X100681168Y-114547193D01*
X100305397Y-113539778D01*
X99937701Y-112495500D01*
X99906266Y-112403213D01*
X99667857Y-111696897D01*
X99487804Y-111146890D01*
X99357910Y-110719214D01*
X99269980Y-110379893D01*
X99215820Y-110094949D01*
X99187236Y-109830405D01*
X99176031Y-109552286D01*
X99174255Y-109368188D01*
X99175522Y-108940403D01*
X99192890Y-108661775D01*
X99240778Y-108479883D01*
X99333607Y-108342301D01*
X99485799Y-108196608D01*
X99500042Y-108183862D01*
X99906637Y-107947884D01*
X100391959Y-107871583D01*
X100922806Y-107946976D01*
X101465980Y-108166079D01*
X101988280Y-108520909D01*
X102342986Y-108867491D01*
X102596904Y-109194481D01*
X102858993Y-109613589D01*
X103137633Y-110142634D01*
X103441201Y-110799434D01*
X103778076Y-111601806D01*
X104156636Y-112567569D01*
X104450770Y-113349965D01*
X104821580Y-114360856D01*
X105122275Y-115208148D01*
X105359363Y-115914697D01*
X105539354Y-116503360D01*
X105668756Y-116996993D01*
X105754080Y-117418454D01*
X105801834Y-117790600D01*
X105818528Y-118136286D01*
X105818664Y-118153308D01*
X107395765Y-118153308D01*
X107287987Y-117514578D01*
X107058718Y-116592176D01*
X106732735Y-115513052D01*
X106528491Y-114894683D01*
X106026682Y-113452452D01*
X105556281Y-112193880D01*
X105109691Y-111104848D01*
X104679313Y-110171238D01*
X104257550Y-109378931D01*
X103836804Y-108713807D01*
X103409478Y-108161749D01*
X102967973Y-107708637D01*
X102504692Y-107340354D01*
X102439334Y-107295875D01*
X101741934Y-106909946D01*
X101005478Y-106643718D01*
X100265112Y-106500004D01*
X99555981Y-106481616D01*
X98913231Y-106591364D01*
G36*
X89543062Y-106515843D02*
G01*
X88938675Y-106648852D01*
X88442811Y-106873816D01*
X88192247Y-107074947D01*
X87895716Y-107526264D01*
X87736337Y-108103936D01*
X87715960Y-108784887D01*
X87836434Y-109546035D01*
X87959500Y-109978587D01*
X88083786Y-110358968D01*
X88827076Y-110388838D01*
X89570365Y-110418707D01*
X89504923Y-110136853D01*
X89459078Y-109881156D01*
X89409587Y-109517778D01*
X89378941Y-109240670D01*
X89352542Y-108889806D01*
X89372048Y-108663679D01*
X89455955Y-108487311D01*
X89611399Y-108298419D01*
X89874634Y-108064866D01*
X90181401Y-107947578D01*
X90379873Y-107916905D01*
X90965847Y-107912528D01*
X91488459Y-108053253D01*
X91990164Y-108356220D01*
X92417698Y-108739723D01*
X92674903Y-109017511D01*
X92910136Y-109316426D01*
X93135316Y-109660128D01*
X93362363Y-110072276D01*
X93603196Y-110576530D01*
X93869734Y-111196550D01*
X94173897Y-111955995D01*
X94527605Y-112878526D01*
X94601520Y-113074531D01*
X95024404Y-114220186D01*
X95367831Y-115201187D01*
X95637197Y-116035740D01*
X95837893Y-116742051D01*
X95975315Y-117338325D01*
X96054854Y-117842770D01*
X96072985Y-118041500D01*
X96094948Y-118420711D01*
X96084509Y-118663280D01*
X96023470Y-118833650D01*
X95893635Y-118996266D01*
X95767031Y-119125032D01*
X95508413Y-119351256D01*
X95271383Y-119455719D01*
X94965574Y-119480794D01*
X94258208Y-119383539D01*
X93603629Y-119100250D01*
X93020906Y-118643639D01*
X92529107Y-118026420D01*
X92368359Y-117749252D01*
X92186616Y-117423259D01*
X92027919Y-117169436D01*
X91925262Y-117040367D01*
X91922132Y-117038091D01*
X91769626Y-116999050D01*
X91482143Y-116971640D01*
X91174967Y-116962496D01*
X90536998Y-116960952D01*
X90606240Y-117288532D01*
X90834737Y-117935770D01*
X91229704Y-118585450D01*
X91758657Y-119207540D01*
X92389111Y-119772005D01*
X93088581Y-120248812D01*
X93824584Y-120607927D01*
X94385977Y-120783107D01*
X94964888Y-120865721D01*
X95584719Y-120871734D01*
X96150962Y-120802668D01*
X96350762Y-120751422D01*
X96861041Y-120541301D01*
X97227742Y-120259430D01*
X97488711Y-119896344D01*
X97650194Y-119456140D01*
X97711641Y-118883346D01*
X97671925Y-118172745D01*
X97529916Y-117319121D01*
X97284486Y-116317260D01*
X96934508Y-115161947D01*
X96478853Y-113847964D01*
X95916393Y-112370098D01*
X95793933Y-112061775D01*
X95303722Y-110893071D01*
X94834675Y-109904787D01*
X94372515Y-109078891D01*
X93902966Y-108397356D01*
X93411751Y-107842151D01*
X92884595Y-107395249D01*
X92307220Y-107038620D01*
X91665351Y-106754234D01*
X91560952Y-106716097D01*
X90898842Y-106544710D01*
X90211331Y-106479544D01*
X89543062Y-106515843D01*
G37*
X89543062Y-106515843D02*
X88938675Y-106648852D01*
X88442811Y-106873816D01*
X88192247Y-107074947D01*
X87895716Y-107526264D01*
X87736337Y-108103936D01*
X87715960Y-108784887D01*
X87836434Y-109546035D01*
X87959500Y-109978587D01*
X88083786Y-110358968D01*
X88827076Y-110388838D01*
X89570365Y-110418707D01*
X89504923Y-110136853D01*
X89459078Y-109881156D01*
X89409587Y-109517778D01*
X89378941Y-109240670D01*
X89352542Y-108889806D01*
X89372048Y-108663679D01*
X89455955Y-108487311D01*
X89611399Y-108298419D01*
X89874634Y-108064866D01*
X90181401Y-107947578D01*
X90379873Y-107916905D01*
X90965847Y-107912528D01*
X91488459Y-108053253D01*
X91990164Y-108356220D01*
X92417698Y-108739723D01*
X92674903Y-109017511D01*
X92910136Y-109316426D01*
X93135316Y-109660128D01*
X93362363Y-110072276D01*
X93603196Y-110576530D01*
X93869734Y-111196550D01*
X94173897Y-111955995D01*
X94527605Y-112878526D01*
X94601520Y-113074531D01*
X95024404Y-114220186D01*
X95367831Y-115201187D01*
X95637197Y-116035740D01*
X95837893Y-116742051D01*
X95975315Y-117338325D01*
X96054854Y-117842770D01*
X96072985Y-118041500D01*
X96094948Y-118420711D01*
X96084509Y-118663280D01*
X96023470Y-118833650D01*
X95893635Y-118996266D01*
X95767031Y-119125032D01*
X95508413Y-119351256D01*
X95271383Y-119455719D01*
X94965574Y-119480794D01*
X94258208Y-119383539D01*
X93603629Y-119100250D01*
X93020906Y-118643639D01*
X92529107Y-118026420D01*
X92368359Y-117749252D01*
X92186616Y-117423259D01*
X92027919Y-117169436D01*
X91925262Y-117040367D01*
X91922132Y-117038091D01*
X91769626Y-116999050D01*
X91482143Y-116971640D01*
X91174967Y-116962496D01*
X90536998Y-116960952D01*
X90606240Y-117288532D01*
X90834737Y-117935770D01*
X91229704Y-118585450D01*
X91758657Y-119207540D01*
X92389111Y-119772005D01*
X93088581Y-120248812D01*
X93824584Y-120607927D01*
X94385977Y-120783107D01*
X94964888Y-120865721D01*
X95584719Y-120871734D01*
X96150962Y-120802668D01*
X96350762Y-120751422D01*
X96861041Y-120541301D01*
X97227742Y-120259430D01*
X97488711Y-119896344D01*
X97650194Y-119456140D01*
X97711641Y-118883346D01*
X97671925Y-118172745D01*
X97529916Y-117319121D01*
X97284486Y-116317260D01*
X96934508Y-115161947D01*
X96478853Y-113847964D01*
X95916393Y-112370098D01*
X95793933Y-112061775D01*
X95303722Y-110893071D01*
X94834675Y-109904787D01*
X94372515Y-109078891D01*
X93902966Y-108397356D01*
X93411751Y-107842151D01*
X92884595Y-107395249D01*
X92307220Y-107038620D01*
X91665351Y-106754234D01*
X91560952Y-106716097D01*
X90898842Y-106544710D01*
X90211331Y-106479544D01*
X89543062Y-106515843D01*
G36*
X69904236Y-106599371D02*
G01*
X69341873Y-106809827D01*
X68922042Y-107138204D01*
X68641472Y-107591675D01*
X68496888Y-108177412D01*
X68485016Y-108902589D01*
X68602584Y-109774378D01*
X68773682Y-110528545D01*
X68959873Y-111208695D01*
X69160558Y-111871061D01*
X69364458Y-112484422D01*
X69560295Y-113017556D01*
X69736793Y-113439243D01*
X69882674Y-113718261D01*
X69959411Y-113811151D01*
X70073848Y-113852254D01*
X70303862Y-113884325D01*
X70666279Y-113908105D01*
X71177926Y-113924336D01*
X71855630Y-113933758D01*
X72716218Y-113937112D01*
X72820256Y-113937143D01*
X73684543Y-113939585D01*
X74364764Y-113947438D01*
X74878388Y-113961489D01*
X75242883Y-113982528D01*
X75475718Y-114011343D01*
X75594361Y-114048722D01*
X75611483Y-114063135D01*
X75687748Y-114216930D01*
X75806141Y-114525214D01*
X75954079Y-114948451D01*
X76118976Y-115447110D01*
X76288251Y-115981658D01*
X76449318Y-116512560D01*
X76589595Y-117000284D01*
X76696496Y-117405297D01*
X76747251Y-117631254D01*
X76796582Y-118256821D01*
X76688303Y-118763227D01*
X76434281Y-119140465D01*
X76046384Y-119378525D01*
X75536483Y-119467400D01*
X74916444Y-119397081D01*
X74715272Y-119344770D01*
X74076266Y-119056335D01*
X73526943Y-118597210D01*
X73090465Y-117987001D01*
X73072968Y-117954657D01*
X72825912Y-117515068D01*
X72617969Y-117227760D01*
X72406145Y-117060904D01*
X72147447Y-116982673D01*
X71798879Y-116961238D01*
X71730638Y-116960952D01*
X71420808Y-116964867D01*
X71227526Y-116996757D01*
X71145157Y-117086839D01*
X71168069Y-117265330D01*
X71290626Y-117562450D01*
X71507196Y-118008414D01*
X71527633Y-118049841D01*
X71995649Y-118800860D01*
X72597662Y-119458950D01*
X73303463Y-120009501D01*
X74082839Y-120437903D01*
X74905580Y-120729546D01*
X75741476Y-120869821D01*
X76560315Y-120844118D01*
X77071427Y-120730771D01*
X77620433Y-120465460D01*
X78037290Y-120058666D01*
X78310950Y-119530072D01*
X78430358Y-118899357D01*
X78409214Y-118348441D01*
X78295998Y-117707331D01*
X78106881Y-116919814D01*
X77854120Y-116020772D01*
X77549969Y-115045089D01*
X77206686Y-114027647D01*
X76836526Y-113003328D01*
X76694483Y-112635536D01*
X75075807Y-112635536D01*
X74957078Y-112666855D01*
X74659186Y-112690043D01*
X74204419Y-112704363D01*
X73615066Y-112709081D01*
X72986276Y-112704485D01*
X70956206Y-112677222D01*
X70566257Y-111518095D01*
X70358575Y-110852851D01*
X70224018Y-110290215D01*
X70145949Y-109752297D01*
X70120670Y-109432310D01*
X70065031Y-108505652D01*
X70373095Y-108197588D01*
X70567178Y-108024795D01*
X70756928Y-107932100D01*
X71016432Y-107895203D01*
X71312249Y-107889524D01*
X71889982Y-107946136D01*
X72413385Y-108124459D01*
X72894484Y-108437228D01*
X73345305Y-108897174D01*
X73777873Y-109517031D01*
X74204214Y-110309530D01*
X74636355Y-111287405D01*
X74721833Y-111499543D01*
X74883228Y-111926370D01*
X75003924Y-112286631D01*
X75070848Y-112538379D01*
X75075807Y-112635536D01*
X76694483Y-112635536D01*
X76451744Y-112007015D01*
X76064596Y-111073591D01*
X75687339Y-110237938D01*
X75332228Y-109534939D01*
X75278213Y-109436972D01*
X74668978Y-108510969D01*
X73974354Y-107750929D01*
X73204918Y-107163510D01*
X72371246Y-106755370D01*
X71483915Y-106533168D01*
X70612407Y-106499662D01*
X69904236Y-106599371D01*
G37*
X69904236Y-106599371D02*
X69341873Y-106809827D01*
X68922042Y-107138204D01*
X68641472Y-107591675D01*
X68496888Y-108177412D01*
X68485016Y-108902589D01*
X68602584Y-109774378D01*
X68773682Y-110528545D01*
X68959873Y-111208695D01*
X69160558Y-111871061D01*
X69364458Y-112484422D01*
X69560295Y-113017556D01*
X69736793Y-113439243D01*
X69882674Y-113718261D01*
X69959411Y-113811151D01*
X70073848Y-113852254D01*
X70303862Y-113884325D01*
X70666279Y-113908105D01*
X71177926Y-113924336D01*
X71855630Y-113933758D01*
X72716218Y-113937112D01*
X72820256Y-113937143D01*
X73684543Y-113939585D01*
X74364764Y-113947438D01*
X74878388Y-113961489D01*
X75242883Y-113982528D01*
X75475718Y-114011343D01*
X75594361Y-114048722D01*
X75611483Y-114063135D01*
X75687748Y-114216930D01*
X75806141Y-114525214D01*
X75954079Y-114948451D01*
X76118976Y-115447110D01*
X76288251Y-115981658D01*
X76449318Y-116512560D01*
X76589595Y-117000284D01*
X76696496Y-117405297D01*
X76747251Y-117631254D01*
X76796582Y-118256821D01*
X76688303Y-118763227D01*
X76434281Y-119140465D01*
X76046384Y-119378525D01*
X75536483Y-119467400D01*
X74916444Y-119397081D01*
X74715272Y-119344770D01*
X74076266Y-119056335D01*
X73526943Y-118597210D01*
X73090465Y-117987001D01*
X73072968Y-117954657D01*
X72825912Y-117515068D01*
X72617969Y-117227760D01*
X72406145Y-117060904D01*
X72147447Y-116982673D01*
X71798879Y-116961238D01*
X71730638Y-116960952D01*
X71420808Y-116964867D01*
X71227526Y-116996757D01*
X71145157Y-117086839D01*
X71168069Y-117265330D01*
X71290626Y-117562450D01*
X71507196Y-118008414D01*
X71527633Y-118049841D01*
X71995649Y-118800860D01*
X72597662Y-119458950D01*
X73303463Y-120009501D01*
X74082839Y-120437903D01*
X74905580Y-120729546D01*
X75741476Y-120869821D01*
X76560315Y-120844118D01*
X77071427Y-120730771D01*
X77620433Y-120465460D01*
X78037290Y-120058666D01*
X78310950Y-119530072D01*
X78430358Y-118899357D01*
X78409214Y-118348441D01*
X78295998Y-117707331D01*
X78106881Y-116919814D01*
X77854120Y-116020772D01*
X77549969Y-115045089D01*
X77206686Y-114027647D01*
X76836526Y-113003328D01*
X76694483Y-112635536D01*
X75075807Y-112635536D01*
X74957078Y-112666855D01*
X74659186Y-112690043D01*
X74204419Y-112704363D01*
X73615066Y-112709081D01*
X72986276Y-112704485D01*
X70956206Y-112677222D01*
X70566257Y-111518095D01*
X70358575Y-110852851D01*
X70224018Y-110290215D01*
X70145949Y-109752297D01*
X70120670Y-109432310D01*
X70065031Y-108505652D01*
X70373095Y-108197588D01*
X70567178Y-108024795D01*
X70756928Y-107932100D01*
X71016432Y-107895203D01*
X71312249Y-107889524D01*
X71889982Y-107946136D01*
X72413385Y-108124459D01*
X72894484Y-108437228D01*
X73345305Y-108897174D01*
X73777873Y-109517031D01*
X74204214Y-110309530D01*
X74636355Y-111287405D01*
X74721833Y-111499543D01*
X74883228Y-111926370D01*
X75003924Y-112286631D01*
X75070848Y-112538379D01*
X75075807Y-112635536D01*
X76694483Y-112635536D01*
X76451744Y-112007015D01*
X76064596Y-111073591D01*
X75687339Y-110237938D01*
X75332228Y-109534939D01*
X75278213Y-109436972D01*
X74668978Y-108510969D01*
X73974354Y-107750929D01*
X73204918Y-107163510D01*
X72371246Y-106755370D01*
X71483915Y-106533168D01*
X70612407Y-106499662D01*
X69904236Y-106599371D01*
G36*
X133800652Y-106711224D02*
G01*
X133651838Y-106766999D01*
X133646513Y-106773979D01*
X133671682Y-106878911D01*
X133759237Y-107154691D01*
X133902550Y-107582763D01*
X134094990Y-108144571D01*
X134329929Y-108821559D01*
X134600738Y-109595168D01*
X134900788Y-110446843D01*
X135223450Y-111358028D01*
X135562095Y-112310165D01*
X135910094Y-113284698D01*
X136260818Y-114263071D01*
X136607638Y-115226726D01*
X136943925Y-116157108D01*
X137263050Y-117035660D01*
X137558384Y-117843825D01*
X137823298Y-118563046D01*
X138051163Y-119174767D01*
X138235350Y-119660432D01*
X138369230Y-120001484D01*
X138389287Y-120050468D01*
X138551522Y-120409011D01*
X138708140Y-120616425D01*
X138917799Y-120708736D01*
X139239157Y-120721970D01*
X139463135Y-120709993D01*
X139758229Y-120677480D01*
X139901259Y-120613686D01*
X139941613Y-120494614D01*
X139941904Y-120477391D01*
X139907376Y-120345162D01*
X139805132Y-120029415D01*
X139637179Y-119535782D01*
X139405527Y-118869889D01*
X139112184Y-118037366D01*
X138759158Y-117043841D01*
X138348459Y-115894943D01*
X137882095Y-114596300D01*
X137362075Y-113153542D01*
X136790407Y-111572296D01*
X136169100Y-109858192D01*
X135500163Y-108016858D01*
X135242575Y-107308810D01*
X135107068Y-107023883D01*
X134952718Y-106819280D01*
X134900072Y-106779643D01*
X134691663Y-106719452D01*
X134391600Y-106687771D01*
X134070917Y-106684921D01*
X133800652Y-106711224D01*
G37*
X133800652Y-106711224D02*
X133651838Y-106766999D01*
X133646513Y-106773979D01*
X133671682Y-106878911D01*
X133759237Y-107154691D01*
X133902550Y-107582763D01*
X134094990Y-108144571D01*
X134329929Y-108821559D01*
X134600738Y-109595168D01*
X134900788Y-110446843D01*
X135223450Y-111358028D01*
X135562095Y-112310165D01*
X135910094Y-113284698D01*
X136260818Y-114263071D01*
X136607638Y-115226726D01*
X136943925Y-116157108D01*
X137263050Y-117035660D01*
X137558384Y-117843825D01*
X137823298Y-118563046D01*
X138051163Y-119174767D01*
X138235350Y-119660432D01*
X138369230Y-120001484D01*
X138389287Y-120050468D01*
X138551522Y-120409011D01*
X138708140Y-120616425D01*
X138917799Y-120708736D01*
X139239157Y-120721970D01*
X139463135Y-120709993D01*
X139758229Y-120677480D01*
X139901259Y-120613686D01*
X139941613Y-120494614D01*
X139941904Y-120477391D01*
X139907376Y-120345162D01*
X139805132Y-120029415D01*
X139637179Y-119535782D01*
X139405527Y-118869889D01*
X139112184Y-118037366D01*
X138759158Y-117043841D01*
X138348459Y-115894943D01*
X137882095Y-114596300D01*
X137362075Y-113153542D01*
X136790407Y-111572296D01*
X136169100Y-109858192D01*
X135500163Y-108016858D01*
X135242575Y-107308810D01*
X135107068Y-107023883D01*
X134952718Y-106819280D01*
X134900072Y-106779643D01*
X134691663Y-106719452D01*
X134391600Y-106687771D01*
X134070917Y-106684921D01*
X133800652Y-106711224D01*
G36*
X137755951Y-101070422D02*
G01*
X137469117Y-101124176D01*
X137271629Y-101217088D01*
X137220476Y-101305476D01*
X137254306Y-101422129D01*
X137352408Y-101713850D01*
X137509698Y-102166426D01*
X137721089Y-102765643D01*
X137981499Y-103497287D01*
X138285842Y-104347147D01*
X138629034Y-105301009D01*
X139005991Y-106344660D01*
X139411628Y-107463886D01*
X139840860Y-108644475D01*
X140111850Y-109387990D01*
X140658191Y-110886469D01*
X141138602Y-112207625D01*
X141556530Y-113363407D01*
X141915422Y-114365765D01*
X142218723Y-115226649D01*
X142469881Y-115958010D01*
X142672342Y-116571796D01*
X142829552Y-117079958D01*
X142944959Y-117494445D01*
X143022008Y-117827208D01*
X143064146Y-118090197D01*
X143074820Y-118295360D01*
X143057476Y-118454649D01*
X143015561Y-118580012D01*
X142952522Y-118683400D01*
X142871804Y-118776763D01*
X142831563Y-118817758D01*
X142571303Y-119004124D01*
X142228055Y-119162178D01*
X142106703Y-119200310D01*
X141827243Y-119284115D01*
X141699395Y-119368614D01*
X141678486Y-119500439D01*
X141699446Y-119625444D01*
X141786604Y-119923802D01*
X141919169Y-120251355D01*
X141934222Y-120282759D01*
X142078995Y-120521633D01*
X142255806Y-120629498D01*
X142512142Y-120662831D01*
X142851754Y-120637506D01*
X143245402Y-120547028D01*
X143409847Y-120490201D01*
X143926501Y-120227963D01*
X144306000Y-119895083D01*
X144550961Y-119477061D01*
X144664007Y-118959396D01*
X144647755Y-118327588D01*
X144504827Y-117567138D01*
X144237842Y-116663544D01*
X144148328Y-116403085D01*
X144029169Y-116068063D01*
X143851329Y-115572765D01*
X143622036Y-114937037D01*
X143348517Y-114180731D01*
X143037999Y-113323693D01*
X142697710Y-112385773D01*
X142334877Y-111386819D01*
X141956727Y-110346681D01*
X141570487Y-109285206D01*
X141183384Y-108222244D01*
X140802646Y-107177642D01*
X140435500Y-106171250D01*
X140089173Y-105222917D01*
X139770892Y-104352490D01*
X139487885Y-103579820D01*
X139247379Y-102924753D01*
X139056601Y-102407140D01*
X138922778Y-102046828D01*
X138871370Y-101910588D01*
X138701831Y-101512839D01*
X138548906Y-101269927D01*
X138384606Y-101140101D01*
X138342785Y-101122045D01*
X138068414Y-101066240D01*
X137755951Y-101070422D01*
G37*
X137755951Y-101070422D02*
X137469117Y-101124176D01*
X137271629Y-101217088D01*
X137220476Y-101305476D01*
X137254306Y-101422129D01*
X137352408Y-101713850D01*
X137509698Y-102166426D01*
X137721089Y-102765643D01*
X137981499Y-103497287D01*
X138285842Y-104347147D01*
X138629034Y-105301009D01*
X139005991Y-106344660D01*
X139411628Y-107463886D01*
X139840860Y-108644475D01*
X140111850Y-109387990D01*
X140658191Y-110886469D01*
X141138602Y-112207625D01*
X141556530Y-113363407D01*
X141915422Y-114365765D01*
X142218723Y-115226649D01*
X142469881Y-115958010D01*
X142672342Y-116571796D01*
X142829552Y-117079958D01*
X142944959Y-117494445D01*
X143022008Y-117827208D01*
X143064146Y-118090197D01*
X143074820Y-118295360D01*
X143057476Y-118454649D01*
X143015561Y-118580012D01*
X142952522Y-118683400D01*
X142871804Y-118776763D01*
X142831563Y-118817758D01*
X142571303Y-119004124D01*
X142228055Y-119162178D01*
X142106703Y-119200310D01*
X141827243Y-119284115D01*
X141699395Y-119368614D01*
X141678486Y-119500439D01*
X141699446Y-119625444D01*
X141786604Y-119923802D01*
X141919169Y-120251355D01*
X141934222Y-120282759D01*
X142078995Y-120521633D01*
X142255806Y-120629498D01*
X142512142Y-120662831D01*
X142851754Y-120637506D01*
X143245402Y-120547028D01*
X143409847Y-120490201D01*
X143926501Y-120227963D01*
X144306000Y-119895083D01*
X144550961Y-119477061D01*
X144664007Y-118959396D01*
X144647755Y-118327588D01*
X144504827Y-117567138D01*
X144237842Y-116663544D01*
X144148328Y-116403085D01*
X144029169Y-116068063D01*
X143851329Y-115572765D01*
X143622036Y-114937037D01*
X143348517Y-114180731D01*
X143037999Y-113323693D01*
X142697710Y-112385773D01*
X142334877Y-111386819D01*
X141956727Y-110346681D01*
X141570487Y-109285206D01*
X141183384Y-108222244D01*
X140802646Y-107177642D01*
X140435500Y-106171250D01*
X140089173Y-105222917D01*
X139770892Y-104352490D01*
X139487885Y-103579820D01*
X139247379Y-102924753D01*
X139056601Y-102407140D01*
X138922778Y-102046828D01*
X138871370Y-101910588D01*
X138701831Y-101512839D01*
X138548906Y-101269927D01*
X138384606Y-101140101D01*
X138342785Y-101122045D01*
X138068414Y-101066240D01*
X137755951Y-101070422D01*
G36*
X126158212Y-106524291D02*
G01*
X125591359Y-106703811D01*
X125145249Y-107027478D01*
X124831154Y-107479337D01*
X124660348Y-108043436D01*
X124644105Y-108703821D01*
X124782841Y-109408333D01*
X124842394Y-109588444D01*
X124963179Y-109935974D01*
X125137266Y-110428990D01*
X125356725Y-111045559D01*
X125613625Y-111763747D01*
X125900037Y-112561622D01*
X126208030Y-113417251D01*
X126529675Y-114308700D01*
X126857041Y-115214037D01*
X127182197Y-116111330D01*
X127497215Y-116978644D01*
X127794163Y-117794047D01*
X128065112Y-118535606D01*
X128302131Y-119181388D01*
X128497290Y-119709460D01*
X128642660Y-120097889D01*
X128725322Y-120312341D01*
X128876491Y-120690317D01*
X129571103Y-120690317D01*
X129915819Y-120677492D01*
X130164392Y-120643779D01*
X130265454Y-120596326D01*
X130265714Y-120593675D01*
X130232165Y-120483612D01*
X130135623Y-120201428D01*
X129982246Y-119764358D01*
X129778193Y-119189635D01*
X129529620Y-118494496D01*
X129242687Y-117696173D01*
X128923550Y-116811902D01*
X128578368Y-115858918D01*
X128311974Y-115125619D01*
X127948164Y-114121463D01*
X127603948Y-113163787D01*
X127285822Y-112271183D01*
X127000284Y-111462240D01*
X126753831Y-110755550D01*
X126552960Y-110169701D01*
X126404170Y-109723286D01*
X126313957Y-109434893D01*
X126289403Y-109338627D01*
X126281460Y-108838536D01*
X126422672Y-108442202D01*
X126687005Y-108153650D01*
X127048424Y-107976907D01*
X127480895Y-107915997D01*
X127958383Y-107974949D01*
X128454853Y-108157787D01*
X128944272Y-108468538D01*
X129359754Y-108863810D01*
X129530859Y-109076471D01*
X129692055Y-109321959D01*
X129855530Y-109626972D01*
X130033470Y-110018208D01*
X130238062Y-110522366D01*
X130481494Y-111166144D01*
X130759168Y-111929536D01*
X131135928Y-112975548D01*
X131513762Y-114021009D01*
X131886108Y-115048019D01*
X132246403Y-116038678D01*
X132588084Y-116975085D01*
X132904588Y-117839340D01*
X133189353Y-118613543D01*
X133435815Y-119279793D01*
X133637412Y-119820189D01*
X133787580Y-120216832D01*
X133879757Y-120451821D01*
X133903729Y-120506375D01*
X133992599Y-120606091D01*
X134157210Y-120662660D01*
X134445060Y-120686852D01*
X134714965Y-120690317D01*
X135104605Y-120680329D01*
X135319221Y-120647114D01*
X135384540Y-120585801D01*
X135380118Y-120564325D01*
X135338564Y-120450916D01*
X135233715Y-120163472D01*
X135071183Y-119717404D01*
X134856576Y-119128123D01*
X134595505Y-118411039D01*
X134293580Y-117581563D01*
X133956411Y-116655105D01*
X133589609Y-115647078D01*
X133198783Y-114572891D01*
X132880601Y-113698268D01*
X132473393Y-112582225D01*
X132083481Y-111520054D01*
X131716691Y-110527227D01*
X131378851Y-109619215D01*
X131075787Y-108811490D01*
X130813327Y-108119522D01*
X130597299Y-107558785D01*
X130433529Y-107144749D01*
X130327845Y-106892885D01*
X130289622Y-106819101D01*
X130088060Y-106729538D01*
X129728292Y-106684117D01*
X129552959Y-106680000D01*
X129181314Y-106699251D01*
X128987557Y-106772098D01*
X128950383Y-106921185D01*
X129048481Y-107169156D01*
X129064356Y-107199227D01*
X129134940Y-107396989D01*
X129067282Y-107453882D01*
X128870883Y-107366186D01*
X128784811Y-107308684D01*
X128190022Y-106950184D01*
X127564875Y-106678718D01*
X126980110Y-106523441D01*
X126834533Y-106504872D01*
X126158212Y-106524291D01*
G37*
X126158212Y-106524291D02*
X125591359Y-106703811D01*
X125145249Y-107027478D01*
X124831154Y-107479337D01*
X124660348Y-108043436D01*
X124644105Y-108703821D01*
X124782841Y-109408333D01*
X124842394Y-109588444D01*
X124963179Y-109935974D01*
X125137266Y-110428990D01*
X125356725Y-111045559D01*
X125613625Y-111763747D01*
X125900037Y-112561622D01*
X126208030Y-113417251D01*
X126529675Y-114308700D01*
X126857041Y-115214037D01*
X127182197Y-116111330D01*
X127497215Y-116978644D01*
X127794163Y-117794047D01*
X128065112Y-118535606D01*
X128302131Y-119181388D01*
X128497290Y-119709460D01*
X128642660Y-120097889D01*
X128725322Y-120312341D01*
X128876491Y-120690317D01*
X129571103Y-120690317D01*
X129915819Y-120677492D01*
X130164392Y-120643779D01*
X130265454Y-120596326D01*
X130265714Y-120593675D01*
X130232165Y-120483612D01*
X130135623Y-120201428D01*
X129982246Y-119764358D01*
X129778193Y-119189635D01*
X129529620Y-118494496D01*
X129242687Y-117696173D01*
X128923550Y-116811902D01*
X128578368Y-115858918D01*
X128311974Y-115125619D01*
X127948164Y-114121463D01*
X127603948Y-113163787D01*
X127285822Y-112271183D01*
X127000284Y-111462240D01*
X126753831Y-110755550D01*
X126552960Y-110169701D01*
X126404170Y-109723286D01*
X126313957Y-109434893D01*
X126289403Y-109338627D01*
X126281460Y-108838536D01*
X126422672Y-108442202D01*
X126687005Y-108153650D01*
X127048424Y-107976907D01*
X127480895Y-107915997D01*
X127958383Y-107974949D01*
X128454853Y-108157787D01*
X128944272Y-108468538D01*
X129359754Y-108863810D01*
X129530859Y-109076471D01*
X129692055Y-109321959D01*
X129855530Y-109626972D01*
X130033470Y-110018208D01*
X130238062Y-110522366D01*
X130481494Y-111166144D01*
X130759168Y-111929536D01*
X131135928Y-112975548D01*
X131513762Y-114021009D01*
X131886108Y-115048019D01*
X132246403Y-116038678D01*
X132588084Y-116975085D01*
X132904588Y-117839340D01*
X133189353Y-118613543D01*
X133435815Y-119279793D01*
X133637412Y-119820189D01*
X133787580Y-120216832D01*
X133879757Y-120451821D01*
X133903729Y-120506375D01*
X133992599Y-120606091D01*
X134157210Y-120662660D01*
X134445060Y-120686852D01*
X134714965Y-120690317D01*
X135104605Y-120680329D01*
X135319221Y-120647114D01*
X135384540Y-120585801D01*
X135380118Y-120564325D01*
X135338564Y-120450916D01*
X135233715Y-120163472D01*
X135071183Y-119717404D01*
X134856576Y-119128123D01*
X134595505Y-118411039D01*
X134293580Y-117581563D01*
X133956411Y-116655105D01*
X133589609Y-115647078D01*
X133198783Y-114572891D01*
X132880601Y-113698268D01*
X132473393Y-112582225D01*
X132083481Y-111520054D01*
X131716691Y-110527227D01*
X131378851Y-109619215D01*
X131075787Y-108811490D01*
X130813327Y-108119522D01*
X130597299Y-107558785D01*
X130433529Y-107144749D01*
X130327845Y-106892885D01*
X130289622Y-106819101D01*
X130088060Y-106729538D01*
X129728292Y-106684117D01*
X129552959Y-106680000D01*
X129181314Y-106699251D01*
X128987557Y-106772098D01*
X128950383Y-106921185D01*
X129048481Y-107169156D01*
X129064356Y-107199227D01*
X129134940Y-107396989D01*
X129067282Y-107453882D01*
X128870883Y-107366186D01*
X128784811Y-107308684D01*
X128190022Y-106950184D01*
X127564875Y-106678718D01*
X126980110Y-106523441D01*
X126834533Y-106504872D01*
X126158212Y-106524291D01*
G36*
X108997985Y-101049458D02*
G01*
X108111117Y-101091500D01*
X107386669Y-101167753D01*
X106805748Y-101283527D01*
X106349463Y-101444132D01*
X105998922Y-101654879D01*
X105735235Y-101921078D01*
X105539510Y-102248038D01*
X105508459Y-102317437D01*
X105387025Y-102799236D01*
X105361032Y-103423613D01*
X105424554Y-104158896D01*
X105571667Y-104973415D01*
X105796446Y-105835497D01*
X106092968Y-106713473D01*
X106455307Y-107575670D01*
X106516081Y-107703995D01*
X107127827Y-108844518D01*
X107771277Y-109788079D01*
X108448584Y-110537124D01*
X109161901Y-111094101D01*
X109776063Y-111409563D01*
X110030676Y-111536446D01*
X110204898Y-111666094D01*
X110210346Y-111672380D01*
X110243589Y-111812740D01*
X110276588Y-112151264D01*
X110309180Y-112684528D01*
X110341202Y-113409110D01*
X110372492Y-114321586D01*
X110402886Y-115418533D01*
X110417368Y-116020862D01*
X110440441Y-116931175D01*
X110466167Y-117784748D01*
X110493571Y-118559198D01*
X110521679Y-119232142D01*
X110549516Y-119781198D01*
X110576107Y-120183984D01*
X110600476Y-120418118D01*
X110610885Y-120463532D01*
X110685977Y-120587765D01*
X110812379Y-120656277D01*
X111042824Y-120685084D01*
X111357544Y-120690317D01*
X111686512Y-120687075D01*
X111932012Y-120660378D01*
X112105117Y-120584768D01*
X112216899Y-120434788D01*
X112278431Y-120184983D01*
X112300785Y-119809895D01*
X112295034Y-119284068D01*
X112272420Y-118586936D01*
X112243727Y-117824120D01*
X112207388Y-116956960D01*
X112167484Y-116077771D01*
X112128094Y-115278869D01*
X112116515Y-115059890D01*
X112084490Y-114425235D01*
X112057114Y-113803869D01*
X112036390Y-113247611D01*
X112024322Y-112808284D01*
X112022063Y-112615644D01*
X112022063Y-111921270D01*
X113074776Y-111921270D01*
X113477080Y-111919732D01*
X113796796Y-111928554D01*
X114051611Y-111967893D01*
X114259215Y-112057903D01*
X114437294Y-112218739D01*
X114603538Y-112470557D01*
X114775635Y-112833512D01*
X114971272Y-113327759D01*
X115208139Y-113973454D01*
X115440982Y-114617500D01*
X115779589Y-115550860D01*
X116060217Y-116323642D01*
X116293450Y-116964835D01*
X116489870Y-117503433D01*
X116660060Y-117968425D01*
X116814603Y-118388804D01*
X116964081Y-118793560D01*
X117052223Y-119031495D01*
X117214333Y-119477265D01*
X117346511Y-119857059D01*
X117434698Y-120129340D01*
X117464920Y-120250595D01*
X117557777Y-120457097D01*
X117813829Y-120604767D01*
X118199305Y-120677670D01*
X118380000Y-120682360D01*
X118710175Y-120668962D01*
X118964954Y-120643231D01*
X119052420Y-120623564D01*
X119167161Y-120490671D01*
X119178412Y-120425483D01*
X119141463Y-120250780D01*
X119031129Y-119890883D01*
X118848180Y-119348052D01*
X118593383Y-118624548D01*
X118267508Y-117722628D01*
X118136400Y-117364127D01*
X117945785Y-116842804D01*
X117721485Y-116227084D01*
X117498170Y-115612213D01*
X117384330Y-115297857D01*
X116884579Y-113917982D01*
X116400390Y-112585109D01*
X115952280Y-111355671D01*
X115735268Y-110762143D01*
X115539456Y-110226180D01*
X113830994Y-110226180D01*
X113741688Y-110338826D01*
X113529915Y-110395112D01*
X113174130Y-110410510D01*
X112652789Y-110400494D01*
X112198452Y-110387222D01*
X111575620Y-110367552D01*
X111116679Y-110345176D01*
X110783952Y-110314859D01*
X110539758Y-110271363D01*
X110346417Y-110209452D01*
X110166251Y-110123890D01*
X110118880Y-110098206D01*
X109704022Y-109796633D01*
X109256861Y-109346032D01*
X108811486Y-108787713D01*
X108401988Y-108162990D01*
X108167454Y-107733408D01*
X107759932Y-106796170D01*
X107450274Y-105825334D01*
X107254228Y-104879970D01*
X107187558Y-104058335D01*
X107193407Y-103653360D01*
X107225392Y-103389061D01*
X107298123Y-103204855D01*
X107426210Y-103040159D01*
X107435530Y-103030054D01*
X107647189Y-102847340D01*
X107914195Y-102714866D01*
X108269078Y-102625787D01*
X108744374Y-102573258D01*
X109372615Y-102550434D01*
X109726419Y-102548022D01*
X111008950Y-102547460D01*
X111157274Y-102834287D01*
X111259001Y-103061116D01*
X111400163Y-103414250D01*
X111555273Y-103829146D01*
X111605035Y-103968216D01*
X111778720Y-104454809D01*
X111987653Y-105033160D01*
X112196672Y-105606135D01*
X112276558Y-105823254D01*
X112482367Y-106385637D01*
X112709742Y-107014558D01*
X112919835Y-107602351D01*
X112985720Y-107788730D01*
X113165576Y-108290955D01*
X113356164Y-108809148D01*
X113525591Y-109257028D01*
X113579572Y-109395342D01*
X113728391Y-109769911D01*
X113819381Y-110041699D01*
X113830994Y-110226180D01*
X115539456Y-110226180D01*
X115379253Y-109787685D01*
X115010993Y-108775506D01*
X114619443Y-107695077D01*
X114193560Y-106515870D01*
X113722301Y-105207358D01*
X113201074Y-103756984D01*
X112923058Y-102989425D01*
X112700080Y-102390807D01*
X112522989Y-101938974D01*
X112382633Y-101611774D01*
X112269858Y-101387053D01*
X112175513Y-101242655D01*
X112149667Y-101211944D01*
X112074459Y-101149974D01*
X111957587Y-101104315D01*
X111770561Y-101072565D01*
X111484893Y-101052322D01*
X111072095Y-101041185D01*
X110503677Y-101036753D01*
X110066164Y-101036317D01*
X108997985Y-101049458D01*
G37*
X108997985Y-101049458D02*
X108111117Y-101091500D01*
X107386669Y-101167753D01*
X106805748Y-101283527D01*
X106349463Y-101444132D01*
X105998922Y-101654879D01*
X105735235Y-101921078D01*
X105539510Y-102248038D01*
X105508459Y-102317437D01*
X105387025Y-102799236D01*
X105361032Y-103423613D01*
X105424554Y-104158896D01*
X105571667Y-104973415D01*
X105796446Y-105835497D01*
X106092968Y-106713473D01*
X106455307Y-107575670D01*
X106516081Y-107703995D01*
X107127827Y-108844518D01*
X107771277Y-109788079D01*
X108448584Y-110537124D01*
X109161901Y-111094101D01*
X109776063Y-111409563D01*
X110030676Y-111536446D01*
X110204898Y-111666094D01*
X110210346Y-111672380D01*
X110243589Y-111812740D01*
X110276588Y-112151264D01*
X110309180Y-112684528D01*
X110341202Y-113409110D01*
X110372492Y-114321586D01*
X110402886Y-115418533D01*
X110417368Y-116020862D01*
X110440441Y-116931175D01*
X110466167Y-117784748D01*
X110493571Y-118559198D01*
X110521679Y-119232142D01*
X110549516Y-119781198D01*
X110576107Y-120183984D01*
X110600476Y-120418118D01*
X110610885Y-120463532D01*
X110685977Y-120587765D01*
X110812379Y-120656277D01*
X111042824Y-120685084D01*
X111357544Y-120690317D01*
X111686512Y-120687075D01*
X111932012Y-120660378D01*
X112105117Y-120584768D01*
X112216899Y-120434788D01*
X112278431Y-120184983D01*
X112300785Y-119809895D01*
X112295034Y-119284068D01*
X112272420Y-118586936D01*
X112243727Y-117824120D01*
X112207388Y-116956960D01*
X112167484Y-116077771D01*
X112128094Y-115278869D01*
X112116515Y-115059890D01*
X112084490Y-114425235D01*
X112057114Y-113803869D01*
X112036390Y-113247611D01*
X112024322Y-112808284D01*
X112022063Y-112615644D01*
X112022063Y-111921270D01*
X113074776Y-111921270D01*
X113477080Y-111919732D01*
X113796796Y-111928554D01*
X114051611Y-111967893D01*
X114259215Y-112057903D01*
X114437294Y-112218739D01*
X114603538Y-112470557D01*
X114775635Y-112833512D01*
X114971272Y-113327759D01*
X115208139Y-113973454D01*
X115440982Y-114617500D01*
X115779589Y-115550860D01*
X116060217Y-116323642D01*
X116293450Y-116964835D01*
X116489870Y-117503433D01*
X116660060Y-117968425D01*
X116814603Y-118388804D01*
X116964081Y-118793560D01*
X117052223Y-119031495D01*
X117214333Y-119477265D01*
X117346511Y-119857059D01*
X117434698Y-120129340D01*
X117464920Y-120250595D01*
X117557777Y-120457097D01*
X117813829Y-120604767D01*
X118199305Y-120677670D01*
X118380000Y-120682360D01*
X118710175Y-120668962D01*
X118964954Y-120643231D01*
X119052420Y-120623564D01*
X119167161Y-120490671D01*
X119178412Y-120425483D01*
X119141463Y-120250780D01*
X119031129Y-119890883D01*
X118848180Y-119348052D01*
X118593383Y-118624548D01*
X118267508Y-117722628D01*
X118136400Y-117364127D01*
X117945785Y-116842804D01*
X117721485Y-116227084D01*
X117498170Y-115612213D01*
X117384330Y-115297857D01*
X116884579Y-113917982D01*
X116400390Y-112585109D01*
X115952280Y-111355671D01*
X115735268Y-110762143D01*
X115539456Y-110226180D01*
X113830994Y-110226180D01*
X113741688Y-110338826D01*
X113529915Y-110395112D01*
X113174130Y-110410510D01*
X112652789Y-110400494D01*
X112198452Y-110387222D01*
X111575620Y-110367552D01*
X111116679Y-110345176D01*
X110783952Y-110314859D01*
X110539758Y-110271363D01*
X110346417Y-110209452D01*
X110166251Y-110123890D01*
X110118880Y-110098206D01*
X109704022Y-109796633D01*
X109256861Y-109346032D01*
X108811486Y-108787713D01*
X108401988Y-108162990D01*
X108167454Y-107733408D01*
X107759932Y-106796170D01*
X107450274Y-105825334D01*
X107254228Y-104879970D01*
X107187558Y-104058335D01*
X107193407Y-103653360D01*
X107225392Y-103389061D01*
X107298123Y-103204855D01*
X107426210Y-103040159D01*
X107435530Y-103030054D01*
X107647189Y-102847340D01*
X107914195Y-102714866D01*
X108269078Y-102625787D01*
X108744374Y-102573258D01*
X109372615Y-102550434D01*
X109726419Y-102548022D01*
X111008950Y-102547460D01*
X111157274Y-102834287D01*
X111259001Y-103061116D01*
X111400163Y-103414250D01*
X111555273Y-103829146D01*
X111605035Y-103968216D01*
X111778720Y-104454809D01*
X111987653Y-105033160D01*
X112196672Y-105606135D01*
X112276558Y-105823254D01*
X112482367Y-106385637D01*
X112709742Y-107014558D01*
X112919835Y-107602351D01*
X112985720Y-107788730D01*
X113165576Y-108290955D01*
X113356164Y-108809148D01*
X113525591Y-109257028D01*
X113579572Y-109395342D01*
X113728391Y-109769911D01*
X113819381Y-110041699D01*
X113830994Y-110226180D01*
X115539456Y-110226180D01*
X115379253Y-109787685D01*
X115010993Y-108775506D01*
X114619443Y-107695077D01*
X114193560Y-106515870D01*
X113722301Y-105207358D01*
X113201074Y-103756984D01*
X112923058Y-102989425D01*
X112700080Y-102390807D01*
X112522989Y-101938974D01*
X112382633Y-101611774D01*
X112269858Y-101387053D01*
X112175513Y-101242655D01*
X112149667Y-101211944D01*
X112074459Y-101149974D01*
X111957587Y-101104315D01*
X111770561Y-101072565D01*
X111484893Y-101052322D01*
X111072095Y-101041185D01*
X110503677Y-101036753D01*
X110066164Y-101036317D01*
X108997985Y-101049458D01*
G36*
X81079553Y-101085796D02*
G01*
X80775267Y-101134387D01*
X80626445Y-101192724D01*
X80588265Y-101293432D01*
X80607815Y-101429197D01*
X80651170Y-101570163D01*
X80757526Y-101883408D01*
X80920796Y-102351829D01*
X81134893Y-102958325D01*
X81393731Y-103685796D01*
X81691223Y-104517140D01*
X82021282Y-105435256D01*
X82377822Y-106423042D01*
X82754755Y-107463399D01*
X82794884Y-107573932D01*
X83170150Y-108611310D01*
X83522269Y-109592350D01*
X83845563Y-110500727D01*
X84134353Y-111320113D01*
X84382961Y-112034181D01*
X84585708Y-112626606D01*
X84736915Y-113081059D01*
X84830905Y-113381215D01*
X84861998Y-113510745D01*
X84860984Y-113514360D01*
X84823676Y-113508410D01*
X84740059Y-113450321D01*
X84601169Y-113331159D01*
X84398040Y-113141988D01*
X84121707Y-112873876D01*
X83763205Y-112517887D01*
X83313567Y-112065088D01*
X82763830Y-111506545D01*
X82105028Y-110833323D01*
X81328196Y-110036489D01*
X80424368Y-109107107D01*
X80000443Y-108670675D01*
X78067373Y-106680000D01*
X76418447Y-106680000D01*
X76796510Y-107108373D01*
X76962384Y-107287589D01*
X77249215Y-107587882D01*
X77635773Y-107987431D01*
X78100828Y-108464412D01*
X78623152Y-108997003D01*
X79181514Y-109563380D01*
X79378477Y-109762476D01*
X79996197Y-110387259D01*
X80486292Y-110886815D01*
X80863476Y-111278664D01*
X81142464Y-111580325D01*
X81337970Y-111809319D01*
X81464708Y-111983165D01*
X81537395Y-112119384D01*
X81570743Y-112235495D01*
X81579468Y-112349017D01*
X81579500Y-112383111D01*
X81571392Y-112570780D01*
X81549535Y-112934755D01*
X81515634Y-113450347D01*
X81471393Y-114092868D01*
X81418516Y-114837630D01*
X81358706Y-115659944D01*
X81293669Y-116535123D01*
X81284386Y-116658571D01*
X81221376Y-117523287D01*
X81167010Y-118325076D01*
X81122491Y-119041692D01*
X81089020Y-119650891D01*
X81067801Y-120130427D01*
X81060036Y-120458055D01*
X81066928Y-120611530D01*
X81070247Y-120619449D01*
X81202804Y-120654853D01*
X81479426Y-120673343D01*
X81843033Y-120671384D01*
X81883969Y-120669846D01*
X82316822Y-120637642D01*
X82577854Y-120579734D01*
X82695907Y-120489691D01*
X82696401Y-120488730D01*
X82719411Y-120354793D01*
X82749368Y-120044218D01*
X82784608Y-119581770D01*
X82823464Y-118992214D01*
X82864271Y-118300314D01*
X82905364Y-117530837D01*
X82932494Y-116978552D01*
X82972128Y-116174028D01*
X83011464Y-115433297D01*
X83048997Y-114780539D01*
X83083220Y-114239933D01*
X83112629Y-113835659D01*
X83135719Y-113591897D01*
X83147189Y-113529912D01*
X83231675Y-113565710D01*
X83424805Y-113725030D01*
X83700650Y-113981305D01*
X84033278Y-114307969D01*
X84396760Y-114678454D01*
X84765164Y-115066192D01*
X85112560Y-115444618D01*
X85413017Y-115787164D01*
X85640604Y-116067262D01*
X85692930Y-116138135D01*
X85919545Y-116479866D01*
X86126773Y-116850839D01*
X86330296Y-117286483D01*
X86545801Y-117822225D01*
X86788971Y-118493494D01*
X86971980Y-119027222D01*
X87147505Y-119535302D01*
X87308501Y-119979905D01*
X87440827Y-120323532D01*
X87530344Y-120528687D01*
X87551599Y-120564325D01*
X87701170Y-120636456D01*
X87968830Y-120680345D01*
X88295051Y-120696415D01*
X88620306Y-120685088D01*
X88885070Y-120646789D01*
X89029814Y-120581939D01*
X89041111Y-120553740D01*
X89007395Y-120440497D01*
X88909566Y-120151799D01*
X88752602Y-119701569D01*
X88541482Y-119103731D01*
X88281181Y-118372208D01*
X87976680Y-117520923D01*
X87632955Y-116563798D01*
X87254985Y-115514758D01*
X86847748Y-114387725D01*
X86416220Y-113196623D01*
X86059072Y-112213066D01*
X85599110Y-110947566D01*
X85149802Y-109711255D01*
X84717199Y-108520791D01*
X84307353Y-107392833D01*
X83926316Y-106344039D01*
X83580139Y-105391066D01*
X83274873Y-104550574D01*
X83016571Y-103839221D01*
X82811282Y-103273664D01*
X82665060Y-102870563D01*
X82606654Y-102709353D01*
X82373276Y-102088926D01*
X82174636Y-101638337D01*
X81988579Y-101334029D01*
X81792948Y-101152448D01*
X81565588Y-101070038D01*
X81284343Y-101063243D01*
X81079553Y-101085796D01*
G37*
X81079553Y-101085796D02*
X80775267Y-101134387D01*
X80626445Y-101192724D01*
X80588265Y-101293432D01*
X80607815Y-101429197D01*
X80651170Y-101570163D01*
X80757526Y-101883408D01*
X80920796Y-102351829D01*
X81134893Y-102958325D01*
X81393731Y-103685796D01*
X81691223Y-104517140D01*
X82021282Y-105435256D01*
X82377822Y-106423042D01*
X82754755Y-107463399D01*
X82794884Y-107573932D01*
X83170150Y-108611310D01*
X83522269Y-109592350D01*
X83845563Y-110500727D01*
X84134353Y-111320113D01*
X84382961Y-112034181D01*
X84585708Y-112626606D01*
X84736915Y-113081059D01*
X84830905Y-113381215D01*
X84861998Y-113510745D01*
X84860984Y-113514360D01*
X84823676Y-113508410D01*
X84740059Y-113450321D01*
X84601169Y-113331159D01*
X84398040Y-113141988D01*
X84121707Y-112873876D01*
X83763205Y-112517887D01*
X83313567Y-112065088D01*
X82763830Y-111506545D01*
X82105028Y-110833323D01*
X81328196Y-110036489D01*
X80424368Y-109107107D01*
X80000443Y-108670675D01*
X78067373Y-106680000D01*
X76418447Y-106680000D01*
X76796510Y-107108373D01*
X76962384Y-107287589D01*
X77249215Y-107587882D01*
X77635773Y-107987431D01*
X78100828Y-108464412D01*
X78623152Y-108997003D01*
X79181514Y-109563380D01*
X79378477Y-109762476D01*
X79996197Y-110387259D01*
X80486292Y-110886815D01*
X80863476Y-111278664D01*
X81142464Y-111580325D01*
X81337970Y-111809319D01*
X81464708Y-111983165D01*
X81537395Y-112119384D01*
X81570743Y-112235495D01*
X81579468Y-112349017D01*
X81579500Y-112383111D01*
X81571392Y-112570780D01*
X81549535Y-112934755D01*
X81515634Y-113450347D01*
X81471393Y-114092868D01*
X81418516Y-114837630D01*
X81358706Y-115659944D01*
X81293669Y-116535123D01*
X81284386Y-116658571D01*
X81221376Y-117523287D01*
X81167010Y-118325076D01*
X81122491Y-119041692D01*
X81089020Y-119650891D01*
X81067801Y-120130427D01*
X81060036Y-120458055D01*
X81066928Y-120611530D01*
X81070247Y-120619449D01*
X81202804Y-120654853D01*
X81479426Y-120673343D01*
X81843033Y-120671384D01*
X81883969Y-120669846D01*
X82316822Y-120637642D01*
X82577854Y-120579734D01*
X82695907Y-120489691D01*
X82696401Y-120488730D01*
X82719411Y-120354793D01*
X82749368Y-120044218D01*
X82784608Y-119581770D01*
X82823464Y-118992214D01*
X82864271Y-118300314D01*
X82905364Y-117530837D01*
X82932494Y-116978552D01*
X82972128Y-116174028D01*
X83011464Y-115433297D01*
X83048997Y-114780539D01*
X83083220Y-114239933D01*
X83112629Y-113835659D01*
X83135719Y-113591897D01*
X83147189Y-113529912D01*
X83231675Y-113565710D01*
X83424805Y-113725030D01*
X83700650Y-113981305D01*
X84033278Y-114307969D01*
X84396760Y-114678454D01*
X84765164Y-115066192D01*
X85112560Y-115444618D01*
X85413017Y-115787164D01*
X85640604Y-116067262D01*
X85692930Y-116138135D01*
X85919545Y-116479866D01*
X86126773Y-116850839D01*
X86330296Y-117286483D01*
X86545801Y-117822225D01*
X86788971Y-118493494D01*
X86971980Y-119027222D01*
X87147505Y-119535302D01*
X87308501Y-119979905D01*
X87440827Y-120323532D01*
X87530344Y-120528687D01*
X87551599Y-120564325D01*
X87701170Y-120636456D01*
X87968830Y-120680345D01*
X88295051Y-120696415D01*
X88620306Y-120685088D01*
X88885070Y-120646789D01*
X89029814Y-120581939D01*
X89041111Y-120553740D01*
X89007395Y-120440497D01*
X88909566Y-120151799D01*
X88752602Y-119701569D01*
X88541482Y-119103731D01*
X88281181Y-118372208D01*
X87976680Y-117520923D01*
X87632955Y-116563798D01*
X87254985Y-115514758D01*
X86847748Y-114387725D01*
X86416220Y-113196623D01*
X86059072Y-112213066D01*
X85599110Y-110947566D01*
X85149802Y-109711255D01*
X84717199Y-108520791D01*
X84307353Y-107392833D01*
X83926316Y-106344039D01*
X83580139Y-105391066D01*
X83274873Y-104550574D01*
X83016571Y-103839221D01*
X82811282Y-103273664D01*
X82665060Y-102870563D01*
X82606654Y-102709353D01*
X82373276Y-102088926D01*
X82174636Y-101638337D01*
X81988579Y-101334029D01*
X81792948Y-101152448D01*
X81565588Y-101070038D01*
X81284343Y-101063243D01*
X81079553Y-101085796D01*
G36*
X61437024Y-102570424D02*
G01*
X61280704Y-102608641D01*
X61144277Y-102749409D01*
X61121269Y-102852453D01*
X61154758Y-103001559D01*
X61247906Y-103306385D01*
X61389733Y-103733848D01*
X61569261Y-104250860D01*
X61775512Y-104824336D01*
X61776428Y-104826841D01*
X61981139Y-105388238D01*
X62159709Y-105880896D01*
X62301431Y-106275033D01*
X62395601Y-106540871D01*
X62431512Y-106648630D01*
X62431587Y-106649300D01*
X62337427Y-106661387D01*
X62081475Y-106671234D01*
X61703522Y-106677786D01*
X61272460Y-106680000D01*
X60751826Y-106681417D01*
X60407025Y-106698217D01*
X60212333Y-106749222D01*
X60142024Y-106853253D01*
X60170373Y-107029132D01*
X60271655Y-107295681D01*
X60308136Y-107385556D01*
X60491675Y-107839127D01*
X62875779Y-107939921D01*
X63105315Y-108494286D01*
X63188582Y-108707074D01*
X63331844Y-109086460D01*
X63526616Y-109609443D01*
X63764413Y-110253021D01*
X64036750Y-110994195D01*
X64335140Y-111809961D01*
X64651098Y-112677321D01*
X64815783Y-113130794D01*
X65221453Y-114254338D01*
X65559359Y-115205826D01*
X65833246Y-116001679D01*
X66046856Y-116658317D01*
X66203932Y-117192165D01*
X66308218Y-117619642D01*
X66363457Y-117957172D01*
X66373392Y-118221175D01*
X66341766Y-118428074D01*
X66272322Y-118594291D01*
X66168804Y-118736247D01*
X66108144Y-118800557D01*
X65715431Y-119071029D01*
X65214524Y-119238487D01*
X64825436Y-119278644D01*
X64624064Y-119286981D01*
X64548304Y-119304405D01*
X64585987Y-119438340D01*
X64680681Y-119690153D01*
X64805178Y-119994572D01*
X64932269Y-120286323D01*
X65034747Y-120500133D01*
X65073488Y-120564325D01*
X65250699Y-120646113D01*
X65567820Y-120676070D01*
X65969773Y-120653512D01*
X66389303Y-120580649D01*
X67040633Y-120365705D01*
X67519256Y-120059946D01*
X67839741Y-119647162D01*
X68016656Y-119111144D01*
X68060056Y-118721574D01*
X68067838Y-118428115D01*
X68052701Y-118159738D01*
X68005468Y-117873065D01*
X67916965Y-117524716D01*
X67778015Y-117071313D01*
X67590896Y-116503669D01*
X67430355Y-116034796D01*
X67212239Y-115413401D01*
X66949578Y-114675777D01*
X66655404Y-113858220D01*
X66342747Y-112997026D01*
X66024638Y-112128489D01*
X65855211Y-111669286D01*
X65567629Y-110887422D01*
X65303162Y-110159534D01*
X65069935Y-109508669D01*
X64876073Y-108957874D01*
X64729700Y-108530194D01*
X64638940Y-108248676D01*
X64611587Y-108141508D01*
X64623074Y-108039555D01*
X64700316Y-107976175D01*
X64883376Y-107939453D01*
X65212319Y-107917472D01*
X65388895Y-107910319D01*
X65783894Y-107890767D01*
X66013291Y-107862092D01*
X66113066Y-107814220D01*
X66119202Y-107737078D01*
X66108988Y-107708731D01*
X66033057Y-107509387D01*
X65926718Y-107215614D01*
X65887426Y-107104249D01*
X65736017Y-106671751D01*
X64995257Y-106695400D01*
X64507975Y-106687315D01*
X64172702Y-106605850D01*
X63944490Y-106420575D01*
X63778388Y-106101057D01*
X63682305Y-105806514D01*
X63571847Y-105453915D01*
X63421195Y-105010124D01*
X63245331Y-104515201D01*
X63059239Y-104009203D01*
X62877900Y-103532191D01*
X62716298Y-103124223D01*
X62589415Y-102825357D01*
X62512233Y-102675652D01*
X62510490Y-102673452D01*
X62354688Y-102602816D01*
X62073766Y-102559460D01*
X61742840Y-102547343D01*
X61437024Y-102570424D01*
G37*
X61437024Y-102570424D02*
X61280704Y-102608641D01*
X61144277Y-102749409D01*
X61121269Y-102852453D01*
X61154758Y-103001559D01*
X61247906Y-103306385D01*
X61389733Y-103733848D01*
X61569261Y-104250860D01*
X61775512Y-104824336D01*
X61776428Y-104826841D01*
X61981139Y-105388238D01*
X62159709Y-105880896D01*
X62301431Y-106275033D01*
X62395601Y-106540871D01*
X62431512Y-106648630D01*
X62431587Y-106649300D01*
X62337427Y-106661387D01*
X62081475Y-106671234D01*
X61703522Y-106677786D01*
X61272460Y-106680000D01*
X60751826Y-106681417D01*
X60407025Y-106698217D01*
X60212333Y-106749222D01*
X60142024Y-106853253D01*
X60170373Y-107029132D01*
X60271655Y-107295681D01*
X60308136Y-107385556D01*
X60491675Y-107839127D01*
X62875779Y-107939921D01*
X63105315Y-108494286D01*
X63188582Y-108707074D01*
X63331844Y-109086460D01*
X63526616Y-109609443D01*
X63764413Y-110253021D01*
X64036750Y-110994195D01*
X64335140Y-111809961D01*
X64651098Y-112677321D01*
X64815783Y-113130794D01*
X65221453Y-114254338D01*
X65559359Y-115205826D01*
X65833246Y-116001679D01*
X66046856Y-116658317D01*
X66203932Y-117192165D01*
X66308218Y-117619642D01*
X66363457Y-117957172D01*
X66373392Y-118221175D01*
X66341766Y-118428074D01*
X66272322Y-118594291D01*
X66168804Y-118736247D01*
X66108144Y-118800557D01*
X65715431Y-119071029D01*
X65214524Y-119238487D01*
X64825436Y-119278644D01*
X64624064Y-119286981D01*
X64548304Y-119304405D01*
X64585987Y-119438340D01*
X64680681Y-119690153D01*
X64805178Y-119994572D01*
X64932269Y-120286323D01*
X65034747Y-120500133D01*
X65073488Y-120564325D01*
X65250699Y-120646113D01*
X65567820Y-120676070D01*
X65969773Y-120653512D01*
X66389303Y-120580649D01*
X67040633Y-120365705D01*
X67519256Y-120059946D01*
X67839741Y-119647162D01*
X68016656Y-119111144D01*
X68060056Y-118721574D01*
X68067838Y-118428115D01*
X68052701Y-118159738D01*
X68005468Y-117873065D01*
X67916965Y-117524716D01*
X67778015Y-117071313D01*
X67590896Y-116503669D01*
X67430355Y-116034796D01*
X67212239Y-115413401D01*
X66949578Y-114675777D01*
X66655404Y-113858220D01*
X66342747Y-112997026D01*
X66024638Y-112128489D01*
X65855211Y-111669286D01*
X65567629Y-110887422D01*
X65303162Y-110159534D01*
X65069935Y-109508669D01*
X64876073Y-108957874D01*
X64729700Y-108530194D01*
X64638940Y-108248676D01*
X64611587Y-108141508D01*
X64623074Y-108039555D01*
X64700316Y-107976175D01*
X64883376Y-107939453D01*
X65212319Y-107917472D01*
X65388895Y-107910319D01*
X65783894Y-107890767D01*
X66013291Y-107862092D01*
X66113066Y-107814220D01*
X66119202Y-107737078D01*
X66108988Y-107708731D01*
X66033057Y-107509387D01*
X65926718Y-107215614D01*
X65887426Y-107104249D01*
X65736017Y-106671751D01*
X64995257Y-106695400D01*
X64507975Y-106687315D01*
X64172702Y-106605850D01*
X63944490Y-106420575D01*
X63778388Y-106101057D01*
X63682305Y-105806514D01*
X63571847Y-105453915D01*
X63421195Y-105010124D01*
X63245331Y-104515201D01*
X63059239Y-104009203D01*
X62877900Y-103532191D01*
X62716298Y-103124223D01*
X62589415Y-102825357D01*
X62512233Y-102675652D01*
X62510490Y-102673452D01*
X62354688Y-102602816D01*
X62073766Y-102559460D01*
X61742840Y-102547343D01*
X61437024Y-102570424D01*
G36*
X53209929Y-106484820D02*
G01*
X53117086Y-106522968D01*
X53099324Y-106630224D01*
X53155932Y-106841493D01*
X53286199Y-107191679D01*
X53360205Y-107382153D01*
X53471780Y-107643589D01*
X53591825Y-107814112D01*
X53767852Y-107922609D01*
X54047371Y-107997969D01*
X54477894Y-108069079D01*
X54493925Y-108071492D01*
X55357251Y-108291590D01*
X56101286Y-108674142D01*
X56725525Y-109218790D01*
X57229467Y-109925175D01*
X57311386Y-110077276D01*
X57415044Y-110307144D01*
X57578147Y-110705614D01*
X57792593Y-111251351D01*
X58050283Y-111923023D01*
X58343116Y-112699295D01*
X58662992Y-113558834D01*
X59001810Y-114480307D01*
X59351470Y-115442380D01*
X59408452Y-115600238D01*
X59749574Y-116543435D01*
X60072401Y-117430770D01*
X60370102Y-118243829D01*
X60635843Y-118964198D01*
X60862792Y-119573464D01*
X61044116Y-120053211D01*
X61172984Y-120385026D01*
X61242563Y-120550495D01*
X61250346Y-120564325D01*
X61415833Y-120639148D01*
X61759113Y-120681603D01*
X62085722Y-120690317D01*
X62823904Y-120690317D01*
X62637024Y-120161151D01*
X62359553Y-119380086D01*
X62048160Y-118511622D01*
X61709258Y-117573061D01*
X61349266Y-116581708D01*
X60974597Y-115554865D01*
X60591670Y-114509838D01*
X60206899Y-113463930D01*
X59826700Y-112434444D01*
X59457490Y-111438685D01*
X59105684Y-110493956D01*
X58777699Y-109617562D01*
X58479950Y-108826805D01*
X58218854Y-108138991D01*
X58000826Y-107571422D01*
X57832282Y-107141403D01*
X57719639Y-106866237D01*
X57669312Y-106763228D01*
X57669272Y-106763201D01*
X57508994Y-106722093D01*
X57212775Y-106692655D01*
X56863149Y-106681543D01*
X56183202Y-106680000D01*
X56384328Y-107209167D01*
X56505717Y-107528897D01*
X56563752Y-107702938D01*
X56563556Y-107775203D01*
X56510252Y-107789603D01*
X56451934Y-107788730D01*
X56295210Y-107720557D01*
X56099375Y-107555579D01*
X56090653Y-107546396D01*
X55740696Y-107266945D01*
X55251097Y-106997464D01*
X54683303Y-106762093D01*
X54098759Y-106584973D01*
X53558913Y-106490246D01*
X53378565Y-106480877D01*
X53209929Y-106484820D01*
G37*
X53209929Y-106484820D02*
X53117086Y-106522968D01*
X53099324Y-106630224D01*
X53155932Y-106841493D01*
X53286199Y-107191679D01*
X53360205Y-107382153D01*
X53471780Y-107643589D01*
X53591825Y-107814112D01*
X53767852Y-107922609D01*
X54047371Y-107997969D01*
X54477894Y-108069079D01*
X54493925Y-108071492D01*
X55357251Y-108291590D01*
X56101286Y-108674142D01*
X56725525Y-109218790D01*
X57229467Y-109925175D01*
X57311386Y-110077276D01*
X57415044Y-110307144D01*
X57578147Y-110705614D01*
X57792593Y-111251351D01*
X58050283Y-111923023D01*
X58343116Y-112699295D01*
X58662992Y-113558834D01*
X59001810Y-114480307D01*
X59351470Y-115442380D01*
X59408452Y-115600238D01*
X59749574Y-116543435D01*
X60072401Y-117430770D01*
X60370102Y-118243829D01*
X60635843Y-118964198D01*
X60862792Y-119573464D01*
X61044116Y-120053211D01*
X61172984Y-120385026D01*
X61242563Y-120550495D01*
X61250346Y-120564325D01*
X61415833Y-120639148D01*
X61759113Y-120681603D01*
X62085722Y-120690317D01*
X62823904Y-120690317D01*
X62637024Y-120161151D01*
X62359553Y-119380086D01*
X62048160Y-118511622D01*
X61709258Y-117573061D01*
X61349266Y-116581708D01*
X60974597Y-115554865D01*
X60591670Y-114509838D01*
X60206899Y-113463930D01*
X59826700Y-112434444D01*
X59457490Y-111438685D01*
X59105684Y-110493956D01*
X58777699Y-109617562D01*
X58479950Y-108826805D01*
X58218854Y-108138991D01*
X58000826Y-107571422D01*
X57832282Y-107141403D01*
X57719639Y-106866237D01*
X57669312Y-106763228D01*
X57669272Y-106763201D01*
X57508994Y-106722093D01*
X57212775Y-106692655D01*
X56863149Y-106681543D01*
X56183202Y-106680000D01*
X56384328Y-107209167D01*
X56505717Y-107528897D01*
X56563752Y-107702938D01*
X56563556Y-107775203D01*
X56510252Y-107789603D01*
X56451934Y-107788730D01*
X56295210Y-107720557D01*
X56099375Y-107555579D01*
X56090653Y-107546396D01*
X55740696Y-107266945D01*
X55251097Y-106997464D01*
X54683303Y-106762093D01*
X54098759Y-106584973D01*
X53558913Y-106490246D01*
X53378565Y-106480877D01*
X53209929Y-106484820D01*
G36*
X131649822Y-101468164D02*
G01*
X131507202Y-101509068D01*
X131477518Y-101560940D01*
X131514546Y-101709068D01*
X131611249Y-101991217D01*
X131749421Y-102355475D01*
X131805097Y-102494954D01*
X132011861Y-102959133D01*
X132217493Y-103272359D01*
X132463781Y-103456728D01*
X132792509Y-103534333D01*
X133245466Y-103527268D01*
X133672155Y-103482136D01*
X133819301Y-103464087D01*
X133911641Y-103431563D01*
X133947081Y-103352632D01*
X133923526Y-103195364D01*
X133838882Y-102927830D01*
X133691056Y-102518098D01*
X133591021Y-102245079D01*
X133314622Y-101489127D01*
X132394930Y-101460146D01*
X131936259Y-101452898D01*
X131649822Y-101468164D01*
G37*
X131649822Y-101468164D02*
X131507202Y-101509068D01*
X131477518Y-101560940D01*
X131514546Y-101709068D01*
X131611249Y-101991217D01*
X131749421Y-102355475D01*
X131805097Y-102494954D01*
X132011861Y-102959133D01*
X132217493Y-103272359D01*
X132463781Y-103456728D01*
X132792509Y-103534333D01*
X133245466Y-103527268D01*
X133672155Y-103482136D01*
X133819301Y-103464087D01*
X133911641Y-103431563D01*
X133947081Y-103352632D01*
X133923526Y-103195364D01*
X133838882Y-102927830D01*
X133691056Y-102518098D01*
X133591021Y-102245079D01*
X133314622Y-101489127D01*
X132394930Y-101460146D01*
X131936259Y-101452898D01*
X131649822Y-101468164D01*
%LPC*%
D12*
X110490000Y-155829000D03*
X110490000Y-153289000D03*
X110490000Y-150749000D03*
X110490000Y-148209000D03*
X110490000Y-145669000D03*
X110490000Y-143129000D03*
X110490000Y-140589000D03*
X110490000Y-138049000D03*
X110490000Y-135509000D03*
X83185000Y-143129000D03*
X80645000Y-143129000D03*
X78105000Y-143129000D03*
X75565000Y-143129000D03*
X73025000Y-143129000D03*
X70485000Y-143129000D03*
X67945000Y-143129000D03*
X65405000Y-129667000D03*
X67945000Y-129667000D03*
X70485000Y-129667000D03*
X73025000Y-129667000D03*
X75565000Y-129667000D03*
X78105000Y-129667000D03*
X67945000Y-111887000D03*
X70485000Y-111887000D03*
X73025000Y-111887000D03*
X75565000Y-111887000D03*
X110998000Y-99949000D03*
X110998000Y-102489000D03*
X110998000Y-105029000D03*
X110998000Y-107569000D03*
X110998000Y-110109000D03*
X110998000Y-112649000D03*
X110998000Y-115189000D03*
X110998000Y-117729000D03*
X110998000Y-120269000D03*
X136398000Y-110109000D03*
X136398000Y-107569000D03*
X136398000Y-105029000D03*
X136398000Y-102489000D03*
X136398000Y-99949000D03*
X103505000Y-116459000D03*
X103505000Y-113919000D03*
X103505000Y-111379000D03*
X103505000Y-108839000D03*
X103505000Y-118999000D03*
X103505000Y-121539000D03*
X103505000Y-124079000D03*
X103505000Y-106299000D03*
X103505000Y-103759000D03*
X103505000Y-101219000D03*
X103505000Y-98679000D03*
X100965000Y-111379000D03*
X98425000Y-111379000D03*
X95885000Y-111379000D03*
X93345000Y-111379000D03*
X90805000Y-111379000D03*
X88265000Y-98679000D03*
X88265000Y-101219000D03*
X88265000Y-103759000D03*
X88265000Y-106299000D03*
X88265000Y-108839000D03*
X88265000Y-111379000D03*
X88265000Y-113919000D03*
X88265000Y-116459000D03*
X103505000Y-126619000D03*
X103505000Y-129159000D03*
X103505000Y-131699000D03*
X103505000Y-134239000D03*
X103505000Y-136779000D03*
X103505000Y-139319000D03*
X103505000Y-141859000D03*
X103505000Y-144399000D03*
X103505000Y-146939000D03*
X103505000Y-149479000D03*
X103505000Y-152019000D03*
X103505000Y-154559000D03*
D13*
X103505000Y-157099000D03*
D12*
X88265000Y-118999000D03*
X88265000Y-121539000D03*
X88265000Y-124079000D03*
X88265000Y-126619000D03*
X88265000Y-129159000D03*
X88265000Y-131699000D03*
X88265000Y-134239000D03*
X88265000Y-136779000D03*
X88265000Y-139319000D03*
X88265000Y-141859000D03*
X88265000Y-144399000D03*
X88265000Y-146939000D03*
X88265000Y-149479000D03*
X88265000Y-152019000D03*
X88265000Y-154559000D03*
X88265000Y-157099000D03*
X90805000Y-154559000D03*
X90805000Y-149479000D03*
X90805000Y-146939000D03*
X90805000Y-144399000D03*
X100505000Y-150749000D03*
X100505000Y-148209000D03*
X100505000Y-145669000D03*
X100505000Y-143129000D03*
X100505000Y-140589000D03*
X93345000Y-108839000D03*
X93345000Y-106299000D03*
X93345000Y-103759000D03*
X93345000Y-101219000D03*
X95885000Y-101219000D03*
X95885000Y-103759000D03*
X95885000Y-106299000D03*
X95885000Y-108839000D03*
X93345000Y-98679000D03*
X95885000Y-98679000D03*
X93345000Y-113919000D03*
X95885000Y-113919000D03*
X93345000Y-116459000D03*
X95885000Y-116459000D03*
X93345000Y-118999000D03*
X95885000Y-118999000D03*
X95885000Y-139319000D03*
X95885000Y-141859000D03*
X95885000Y-136779000D03*
X95885000Y-134239000D03*
X93345000Y-134239000D03*
X93345000Y-136779000D03*
X93345000Y-139319000D03*
X93345000Y-141859000D03*
X96895000Y-155829000D03*
X94875000Y-155829000D03*
D14*
X36449000Y-113411000D03*
D15*
X41529000Y-113411000D03*
D16*
X51308000Y-116332000D03*
D17*
X51308000Y-118872000D03*
X51308000Y-121412000D03*
D14*
X47117000Y-140843000D03*
D15*
X52197000Y-140843000D03*
D16*
X60706000Y-135890000D03*
D17*
X60706000Y-138430000D03*
X60706000Y-140970000D03*
M02*
