%FSLAX45Y45*%
G04 Gerber Fmt 4.5, Leading zero omitted, Abs format (unit mm)*
G04 Created by KiCad (PCBNEW (5.1.7)-1) date 2021-11-24 22:42:30*
%MOMM*%
%LPD*%
G01*
G04 APERTURE LIST*
%TA.AperFunction,Profile*%
%ADD10C,0.200000*%
%TD*%
%ADD11C,0.200000*%
%ADD12C,0.300000*%
G04 APERTURE END LIST*
D10*
X5917730Y-16319500D02*
X14148270Y-16319500D01*
X5917972Y-16319665D02*
G75*
G02*
X14148270Y-16319500I4115028J6032665D01*
G01*
X15299835Y-13144500D02*
G75*
G03*
X15299835Y-13144500I-317500J0D01*
G01*
X5401165Y-13144500D02*
G75*
G03*
X5401165Y-13144500I-317500J0D01*
G01*
X10350500Y-4572000D02*
G75*
G03*
X10350500Y-4572000I-317500J0D01*
G01*
D11*
X4042300Y-9705500D02*
X4062300Y-9725500D01*
X4062300Y-9705500D02*
X4042300Y-9725500D01*
X4104800Y-9655500D02*
X4124800Y-9675500D01*
X4124800Y-9655500D02*
X4104800Y-9675500D01*
X4104800Y-9755500D02*
X4124800Y-9775500D01*
X4124800Y-9755500D02*
X4104800Y-9775500D01*
X4167300Y-9705500D02*
X4187300Y-9725500D01*
X4187300Y-9705500D02*
X4167300Y-9725500D01*
X4302650Y-8149750D02*
X4322650Y-8169750D01*
X4322650Y-8149750D02*
X4302650Y-8169750D01*
X4365150Y-8099750D02*
X4385150Y-8119750D01*
X4385150Y-8099750D02*
X4365150Y-8119750D01*
X4365150Y-8199750D02*
X4385150Y-8219750D01*
X4385150Y-8199750D02*
X4365150Y-8219750D01*
X4427650Y-8149750D02*
X4447650Y-8169750D01*
X4447650Y-8149750D02*
X4427650Y-8169750D01*
X3195000Y-11176000D02*
G75*
G03*
X3195000Y-11176000I-20000J0D01*
G01*
X3195000Y-11684000D02*
G75*
G03*
X3195000Y-11684000I-20000J0D01*
G01*
X3322000Y-10668000D02*
G75*
G03*
X3322000Y-10668000I-20000J0D01*
G01*
X3322000Y-12192000D02*
G75*
G03*
X3322000Y-12192000I-20000J0D01*
G01*
X3703000Y-12573000D02*
G75*
G03*
X3703000Y-12573000I-20000J0D01*
G01*
X3957000Y-13081000D02*
G75*
G03*
X3957000Y-13081000I-20000J0D01*
G01*
X3957000Y-13462000D02*
G75*
G03*
X3957000Y-13462000I-20000J0D01*
G01*
X4084000Y-13970000D02*
G75*
G03*
X4084000Y-13970000I-20000J0D01*
G01*
X4211000Y-10668000D02*
G75*
G03*
X4211000Y-10668000I-20000J0D01*
G01*
X4211000Y-11938000D02*
G75*
G03*
X4211000Y-11938000I-20000J0D01*
G01*
X4211000Y-12192000D02*
G75*
G03*
X4211000Y-12192000I-20000J0D01*
G01*
X4338000Y-14351000D02*
G75*
G03*
X4338000Y-14351000I-20000J0D01*
G01*
X4439600Y-10452100D02*
G75*
G03*
X4439600Y-10452100I-20000J0D01*
G01*
X4592000Y-12192000D02*
G75*
G03*
X4592000Y-12192000I-20000J0D01*
G01*
X4592000Y-12573000D02*
G75*
G03*
X4592000Y-12573000I-20000J0D01*
G01*
X4687250Y-8807450D02*
G75*
G03*
X4687250Y-8807450I-20000J0D01*
G01*
X4719000Y-10668000D02*
G75*
G03*
X4719000Y-10668000I-20000J0D01*
G01*
X4719000Y-11049000D02*
G75*
G03*
X4719000Y-11049000I-20000J0D01*
G01*
X4719000Y-11430000D02*
G75*
G03*
X4719000Y-11430000I-20000J0D01*
G01*
X4846000Y-14859000D02*
G75*
G03*
X4846000Y-14859000I-20000J0D01*
G01*
X4884100Y-10033000D02*
G75*
G03*
X4884100Y-10033000I-20000J0D01*
G01*
X4973000Y-12573000D02*
G75*
G03*
X4973000Y-12573000I-20000J0D01*
G01*
X5100000Y-6604000D02*
G75*
G03*
X5100000Y-6604000I-20000J0D01*
G01*
X5100000Y-6985000D02*
G75*
G03*
X5100000Y-6985000I-20000J0D01*
G01*
X5100000Y-7366000D02*
G75*
G03*
X5100000Y-7366000I-20000J0D01*
G01*
X5195250Y-8413750D02*
G75*
G03*
X5195250Y-8413750I-20000J0D01*
G01*
X5227000Y-10668000D02*
G75*
G03*
X5227000Y-10668000I-20000J0D01*
G01*
X5354000Y-12573000D02*
G75*
G03*
X5354000Y-12573000I-20000J0D01*
G01*
X5354000Y-14859000D02*
G75*
G03*
X5354000Y-14859000I-20000J0D01*
G01*
X5354000Y-15367000D02*
G75*
G03*
X5354000Y-15367000I-20000J0D01*
G01*
X5481000Y-6604000D02*
G75*
G03*
X5481000Y-6604000I-20000J0D01*
G01*
X5481000Y-6985000D02*
G75*
G03*
X5481000Y-6985000I-20000J0D01*
G01*
X5481000Y-7366000D02*
G75*
G03*
X5481000Y-7366000I-20000J0D01*
G01*
X5481000Y-11176000D02*
G75*
G03*
X5481000Y-11176000I-20000J0D01*
G01*
X5481000Y-11684000D02*
G75*
G03*
X5481000Y-11684000I-20000J0D01*
G01*
X5481000Y-12192000D02*
G75*
G03*
X5481000Y-12192000I-20000J0D01*
G01*
X5862000Y-6604000D02*
G75*
G03*
X5862000Y-6604000I-20000J0D01*
G01*
X5862000Y-6985000D02*
G75*
G03*
X5862000Y-6985000I-20000J0D01*
G01*
X5862000Y-7366000D02*
G75*
G03*
X5862000Y-7366000I-20000J0D01*
G01*
X5862000Y-11430000D02*
G75*
G03*
X5862000Y-11430000I-20000J0D01*
G01*
X5862000Y-11938000D02*
G75*
G03*
X5862000Y-11938000I-20000J0D01*
G01*
X5862000Y-12446000D02*
G75*
G03*
X5862000Y-12446000I-20000J0D01*
G01*
X5862000Y-14859000D02*
G75*
G03*
X5862000Y-14859000I-20000J0D01*
G01*
X5862000Y-15367000D02*
G75*
G03*
X5862000Y-15367000I-20000J0D01*
G01*
X5862000Y-15875000D02*
G75*
G03*
X5862000Y-15875000I-20000J0D01*
G01*
X5989000Y-9398000D02*
G75*
G03*
X5989000Y-9398000I-20000J0D01*
G01*
X5989000Y-9906000D02*
G75*
G03*
X5989000Y-9906000I-20000J0D01*
G01*
X5989000Y-10477500D02*
G75*
G03*
X5989000Y-10477500I-20000J0D01*
G01*
X6116000Y-12700000D02*
G75*
G03*
X6116000Y-12700000I-20000J0D01*
G01*
X6116000Y-14478000D02*
G75*
G03*
X6116000Y-14478000I-20000J0D01*
G01*
X6179500Y-12052300D02*
G75*
G03*
X6179500Y-12052300I-20000J0D01*
G01*
X6192200Y-10795000D02*
G75*
G03*
X6192200Y-10795000I-20000J0D01*
G01*
X6243000Y-6604000D02*
G75*
G03*
X6243000Y-6604000I-20000J0D01*
G01*
X6243000Y-6985000D02*
G75*
G03*
X6243000Y-6985000I-20000J0D01*
G01*
X6243000Y-7366000D02*
G75*
G03*
X6243000Y-7366000I-20000J0D01*
G01*
X6370000Y-9398000D02*
G75*
G03*
X6370000Y-9398000I-20000J0D01*
G01*
X6370000Y-9906000D02*
G75*
G03*
X6370000Y-9906000I-20000J0D01*
G01*
X6370000Y-10477500D02*
G75*
G03*
X6370000Y-10477500I-20000J0D01*
G01*
X6370000Y-14732000D02*
G75*
G03*
X6370000Y-14732000I-20000J0D01*
G01*
X6370000Y-15367000D02*
G75*
G03*
X6370000Y-15367000I-20000J0D01*
G01*
X6370000Y-15875000D02*
G75*
G03*
X6370000Y-15875000I-20000J0D01*
G01*
X6497000Y-11811000D02*
G75*
G03*
X6497000Y-11811000I-20000J0D01*
G01*
X6497000Y-12319000D02*
G75*
G03*
X6497000Y-12319000I-20000J0D01*
G01*
X6624000Y-14986000D02*
G75*
G03*
X6624000Y-14986000I-20000J0D01*
G01*
X6751000Y-9398000D02*
G75*
G03*
X6751000Y-9398000I-20000J0D01*
G01*
X6751000Y-9906000D02*
G75*
G03*
X6751000Y-9906000I-20000J0D01*
G01*
X6751000Y-10477500D02*
G75*
G03*
X6751000Y-10477500I-20000J0D01*
G01*
X6751000Y-12573000D02*
G75*
G03*
X6751000Y-12573000I-20000J0D01*
G01*
X6878000Y-13716000D02*
G75*
G03*
X6878000Y-13716000I-20000J0D01*
G01*
X6878000Y-15240000D02*
G75*
G03*
X6878000Y-15240000I-20000J0D01*
G01*
X6878000Y-15875000D02*
G75*
G03*
X6878000Y-15875000I-20000J0D01*
G01*
X7005000Y-11811000D02*
G75*
G03*
X7005000Y-11811000I-20000J0D01*
G01*
X7005000Y-12319000D02*
G75*
G03*
X7005000Y-12319000I-20000J0D01*
G01*
X7132000Y-9398000D02*
G75*
G03*
X7132000Y-9398000I-20000J0D01*
G01*
X7132000Y-9906000D02*
G75*
G03*
X7132000Y-9906000I-20000J0D01*
G01*
X7132000Y-10477500D02*
G75*
G03*
X7132000Y-10477500I-20000J0D01*
G01*
X7132000Y-15494000D02*
G75*
G03*
X7132000Y-15494000I-20000J0D01*
G01*
X7220900Y-13296900D02*
G75*
G03*
X7220900Y-13296900I-20000J0D01*
G01*
X7259000Y-12573000D02*
G75*
G03*
X7259000Y-12573000I-20000J0D01*
G01*
X7386000Y-15748000D02*
G75*
G03*
X7386000Y-15748000I-20000J0D01*
G01*
X7474435Y-13678365D02*
G75*
G03*
X7474435Y-13678365I-20000J0D01*
G01*
X7513000Y-9398000D02*
G75*
G03*
X7513000Y-9398000I-20000J0D01*
G01*
X7513000Y-9906000D02*
G75*
G03*
X7513000Y-9906000I-20000J0D01*
G01*
X7513000Y-10477500D02*
G75*
G03*
X7513000Y-10477500I-20000J0D01*
G01*
X7513000Y-11811000D02*
G75*
G03*
X7513000Y-11811000I-20000J0D01*
G01*
X7513000Y-12319000D02*
G75*
G03*
X7513000Y-12319000I-20000J0D01*
G01*
X7640000Y-16002000D02*
G75*
G03*
X7640000Y-16002000I-20000J0D01*
G01*
X7678565Y-13677435D02*
G75*
G03*
X7678565Y-13677435I-20000J0D01*
G01*
X7767000Y-12573000D02*
G75*
G03*
X7767000Y-12573000I-20000J0D01*
G01*
X7894000Y-9906000D02*
G75*
G03*
X7894000Y-9906000I-20000J0D01*
G01*
X7894000Y-10477500D02*
G75*
G03*
X7894000Y-10477500I-20000J0D01*
G01*
X8008765Y-13296435D02*
G75*
G03*
X8008765Y-13296435I-20000J0D01*
G01*
X8021000Y-11125200D02*
G75*
G03*
X8021000Y-11125200I-20000J0D01*
G01*
X8021000Y-11811000D02*
G75*
G03*
X8021000Y-11811000I-20000J0D01*
G01*
X8021000Y-12319000D02*
G75*
G03*
X8021000Y-12319000I-20000J0D01*
G01*
X8084035Y-13169435D02*
G75*
G03*
X8084035Y-13169435I-20000J0D01*
G01*
X8084500Y-14033500D02*
G75*
G03*
X8084500Y-14033500I-20000J0D01*
G01*
X8148000Y-9080500D02*
G75*
G03*
X8148000Y-9080500I-20000J0D01*
G01*
X8148000Y-16002000D02*
G75*
G03*
X8148000Y-16002000I-20000J0D01*
G01*
X8338500Y-13576300D02*
G75*
G03*
X8338500Y-13576300I-20000J0D01*
G01*
X8338500Y-14033500D02*
G75*
G03*
X8338500Y-14033500I-20000J0D01*
G01*
X8529000Y-9080500D02*
G75*
G03*
X8529000Y-9080500I-20000J0D01*
G01*
X8541700Y-12153900D02*
G75*
G03*
X8541700Y-12153900I-20000J0D01*
G01*
X8694100Y-9486900D02*
G75*
G03*
X8694100Y-9486900I-20000J0D01*
G01*
X8694100Y-9715500D02*
G75*
G03*
X8694100Y-9715500I-20000J0D01*
G01*
X8910000Y-9080500D02*
G75*
G03*
X8910000Y-9080500I-20000J0D01*
G01*
X9291000Y-9080500D02*
G75*
G03*
X9291000Y-9080500I-20000J0D01*
G01*
X9303700Y-9563100D02*
G75*
G03*
X9303700Y-9563100I-20000J0D01*
G01*
X9672000Y-9080500D02*
G75*
G03*
X9672000Y-9080500I-20000J0D01*
G01*
X9684700Y-9664700D02*
G75*
G03*
X9684700Y-9664700I-20000J0D01*
G01*
X10053000Y-9080500D02*
G75*
G03*
X10053000Y-9080500I-20000J0D01*
G01*
X10434000Y-9080500D02*
G75*
G03*
X10434000Y-9080500I-20000J0D01*
G01*
X10548300Y-10756900D02*
G75*
G03*
X10548300Y-10756900I-20000J0D01*
G01*
X10599100Y-12814300D02*
G75*
G03*
X10599100Y-12814300I-20000J0D01*
G01*
X10649435Y-9792165D02*
G75*
G03*
X10649435Y-9792165I-20000J0D01*
G01*
X10649900Y-9486900D02*
G75*
G03*
X10649900Y-9486900I-20000J0D01*
G01*
X10649900Y-11010900D02*
G75*
G03*
X10649900Y-11010900I-20000J0D01*
G01*
X10751500Y-10248900D02*
G75*
G03*
X10751500Y-10248900I-20000J0D01*
G01*
X10815000Y-9080500D02*
G75*
G03*
X10815000Y-9080500I-20000J0D01*
G01*
X10815000Y-12827000D02*
G75*
G03*
X10815000Y-12827000I-20000J0D01*
G01*
X10815000Y-13081000D02*
G75*
G03*
X10815000Y-13081000I-20000J0D01*
G01*
X10815000Y-13335000D02*
G75*
G03*
X10815000Y-13335000I-20000J0D01*
G01*
X10815000Y-13525500D02*
G75*
G03*
X10815000Y-13525500I-20000J0D01*
G01*
X10853100Y-11277600D02*
G75*
G03*
X10853100Y-11277600I-20000J0D01*
G01*
X10954700Y-10756900D02*
G75*
G03*
X10954700Y-10756900I-20000J0D01*
G01*
X10954700Y-11010900D02*
G75*
G03*
X10954700Y-11010900I-20000J0D01*
G01*
X11196000Y-9080500D02*
G75*
G03*
X11196000Y-9080500I-20000J0D01*
G01*
X11513500Y-9779000D02*
G75*
G03*
X11513500Y-9779000I-20000J0D01*
G01*
X11513500Y-10160000D02*
G75*
G03*
X11513500Y-10160000I-20000J0D01*
G01*
X11513500Y-10541000D02*
G75*
G03*
X11513500Y-10541000I-20000J0D01*
G01*
X11513500Y-10922000D02*
G75*
G03*
X11513500Y-10922000I-20000J0D01*
G01*
X11513500Y-11303000D02*
G75*
G03*
X11513500Y-11303000I-20000J0D01*
G01*
X11513500Y-11684000D02*
G75*
G03*
X11513500Y-11684000I-20000J0D01*
G01*
X11513500Y-12065000D02*
G75*
G03*
X11513500Y-12065000I-20000J0D01*
G01*
X11513500Y-13462000D02*
G75*
G03*
X11513500Y-13462000I-20000J0D01*
G01*
X11513500Y-13843000D02*
G75*
G03*
X11513500Y-13843000I-20000J0D01*
G01*
X11513500Y-14224000D02*
G75*
G03*
X11513500Y-14224000I-20000J0D01*
G01*
X11513500Y-14605000D02*
G75*
G03*
X11513500Y-14605000I-20000J0D01*
G01*
X11513500Y-14986000D02*
G75*
G03*
X11513500Y-14986000I-20000J0D01*
G01*
X11513500Y-15367000D02*
G75*
G03*
X11513500Y-15367000I-20000J0D01*
G01*
X11513500Y-15748000D02*
G75*
G03*
X11513500Y-15748000I-20000J0D01*
G01*
X11577000Y-9080500D02*
G75*
G03*
X11577000Y-9080500I-20000J0D01*
G01*
X11640500Y-13144500D02*
G75*
G03*
X11640500Y-13144500I-20000J0D01*
G01*
X11894500Y-11684000D02*
G75*
G03*
X11894500Y-11684000I-20000J0D01*
G01*
X11894500Y-12065000D02*
G75*
G03*
X11894500Y-12065000I-20000J0D01*
G01*
X11958000Y-9080500D02*
G75*
G03*
X11958000Y-9080500I-20000J0D01*
G01*
X12021500Y-13144500D02*
G75*
G03*
X12021500Y-13144500I-20000J0D01*
G01*
X12275500Y-11684000D02*
G75*
G03*
X12275500Y-11684000I-20000J0D01*
G01*
X12275500Y-12065000D02*
G75*
G03*
X12275500Y-12065000I-20000J0D01*
G01*
X12339000Y-9080500D02*
G75*
G03*
X12339000Y-9080500I-20000J0D01*
G01*
X12402500Y-13144500D02*
G75*
G03*
X12402500Y-13144500I-20000J0D01*
G01*
X12656500Y-11684000D02*
G75*
G03*
X12656500Y-11684000I-20000J0D01*
G01*
X12656500Y-12065000D02*
G75*
G03*
X12656500Y-12065000I-20000J0D01*
G01*
X12720000Y-9080500D02*
G75*
G03*
X12720000Y-9080500I-20000J0D01*
G01*
X12783500Y-13144500D02*
G75*
G03*
X12783500Y-13144500I-20000J0D01*
G01*
X13101000Y-9080500D02*
G75*
G03*
X13101000Y-9080500I-20000J0D01*
G01*
X13164500Y-13144500D02*
G75*
G03*
X13164500Y-13144500I-20000J0D01*
G01*
X13482000Y-9080500D02*
G75*
G03*
X13482000Y-9080500I-20000J0D01*
G01*
X13545500Y-13144500D02*
G75*
G03*
X13545500Y-13144500I-20000J0D01*
G01*
X13863000Y-9080500D02*
G75*
G03*
X13863000Y-9080500I-20000J0D01*
G01*
X13926500Y-13144500D02*
G75*
G03*
X13926500Y-13144500I-20000J0D01*
G01*
X14244000Y-9080500D02*
G75*
G03*
X14244000Y-9080500I-20000J0D01*
G01*
X14307500Y-13144500D02*
G75*
G03*
X14307500Y-13144500I-20000J0D01*
G01*
X14498000Y-10668000D02*
G75*
G03*
X14498000Y-10668000I-20000J0D01*
G01*
X14498000Y-11303000D02*
G75*
G03*
X14498000Y-11303000I-20000J0D01*
G01*
X14498000Y-11874500D02*
G75*
G03*
X14498000Y-11874500I-20000J0D01*
G01*
X14498000Y-12509500D02*
G75*
G03*
X14498000Y-12509500I-20000J0D01*
G01*
X16022000Y-7620000D02*
G75*
G03*
X16022000Y-7620000I-20000J0D01*
G01*
X16022000Y-8001000D02*
G75*
G03*
X16022000Y-8001000I-20000J0D01*
G01*
X16022000Y-8382000D02*
G75*
G03*
X16022000Y-8382000I-20000J0D01*
G01*
X16022000Y-8763000D02*
G75*
G03*
X16022000Y-8763000I-20000J0D01*
G01*
X16022000Y-9144000D02*
G75*
G03*
X16022000Y-9144000I-20000J0D01*
G01*
X16022000Y-9525000D02*
G75*
G03*
X16022000Y-9525000I-20000J0D01*
G01*
X16022000Y-12573000D02*
G75*
G03*
X16022000Y-12573000I-20000J0D01*
G01*
X16022000Y-12890500D02*
G75*
G03*
X16022000Y-12890500I-20000J0D01*
G01*
X16022000Y-13271500D02*
G75*
G03*
X16022000Y-13271500I-20000J0D01*
G01*
X16022000Y-13652500D02*
G75*
G03*
X16022000Y-13652500I-20000J0D01*
G01*
X16403000Y-9525000D02*
G75*
G03*
X16403000Y-9525000I-20000J0D01*
G01*
X16403000Y-9906000D02*
G75*
G03*
X16403000Y-9906000I-20000J0D01*
G01*
X16403000Y-10287000D02*
G75*
G03*
X16403000Y-10287000I-20000J0D01*
G01*
X16403000Y-10668000D02*
G75*
G03*
X16403000Y-10668000I-20000J0D01*
G01*
X16403000Y-11049000D02*
G75*
G03*
X16403000Y-11049000I-20000J0D01*
G01*
X16403000Y-11430000D02*
G75*
G03*
X16403000Y-11430000I-20000J0D01*
G01*
X16403000Y-11811000D02*
G75*
G03*
X16403000Y-11811000I-20000J0D01*
G01*
X16403000Y-12192000D02*
G75*
G03*
X16403000Y-12192000I-20000J0D01*
G01*
X16403000Y-12509500D02*
G75*
G03*
X16403000Y-12509500I-20000J0D01*
G01*
X3403600Y-9112250D02*
X3403600Y-9175750D01*
X3371850Y-9144000D02*
X3435350Y-9144000D01*
X3708400Y-9112250D02*
X3708400Y-9175750D01*
X3676650Y-9144000D02*
X3740150Y-9144000D01*
X3962400Y-7842250D02*
X3962400Y-7905750D01*
X3930650Y-7874000D02*
X3994150Y-7874000D01*
X4013200Y-8096250D02*
X4013200Y-8159750D01*
X3981450Y-8128000D02*
X4044950Y-8128000D01*
X4013200Y-8401050D02*
X4013200Y-8464550D01*
X3981450Y-8432800D02*
X4044950Y-8432800D01*
X4013200Y-9112250D02*
X4013200Y-9175750D01*
X3981450Y-9144000D02*
X4044950Y-9144000D01*
X4318000Y-9112250D02*
X4318000Y-9175750D01*
X4286250Y-9144000D02*
X4349750Y-9144000D01*
X4521200Y-7842250D02*
X4521200Y-7905750D01*
X4489450Y-7874000D02*
X4552950Y-7874000D01*
X4521200Y-10026650D02*
X4521200Y-10090150D01*
X4489450Y-10058400D02*
X4552950Y-10058400D01*
X4826000Y-7842250D02*
X4826000Y-7905750D01*
X4794250Y-7874000D02*
X4857750Y-7874000D01*
X4978400Y-9112250D02*
X4978400Y-9175750D01*
X4946650Y-9144000D02*
X5010150Y-9144000D01*
X4978400Y-9772650D02*
X4978400Y-9836150D01*
X4946650Y-9804400D02*
X5010150Y-9804400D01*
X4978400Y-10433050D02*
X4978400Y-10496550D01*
X4946650Y-10464800D02*
X5010150Y-10464800D01*
X4991100Y-9277350D02*
X4991100Y-9340850D01*
X4959350Y-9309100D02*
X5022850Y-9309100D01*
X5130800Y-7842250D02*
X5130800Y-7905750D01*
X5099050Y-7874000D02*
X5162550Y-7874000D01*
X5181600Y-9975850D02*
X5181600Y-10039350D01*
X5149850Y-10007600D02*
X5213350Y-10007600D01*
X5283200Y-9112250D02*
X5283200Y-9175750D01*
X5251450Y-9144000D02*
X5314950Y-9144000D01*
X5283200Y-10433050D02*
X5283200Y-10496550D01*
X5251450Y-10464800D02*
X5314950Y-10464800D01*
X5295900Y-7994650D02*
X5295900Y-8058150D01*
X5264150Y-8026400D02*
X5327650Y-8026400D01*
X5384800Y-8451850D02*
X5384800Y-8515350D01*
X5353050Y-8483600D02*
X5416550Y-8483600D01*
X5435600Y-7842250D02*
X5435600Y-7905750D01*
X5403850Y-7874000D02*
X5467350Y-7874000D01*
X5486400Y-8909050D02*
X5486400Y-8972550D01*
X5454650Y-8940800D02*
X5518150Y-8940800D01*
X5499100Y-9582150D02*
X5499100Y-9645650D01*
X5467350Y-9613900D02*
X5530850Y-9613900D01*
X5588000Y-7994650D02*
X5588000Y-8058150D01*
X5556250Y-8026400D02*
X5619750Y-8026400D01*
X5588000Y-8350250D02*
X5588000Y-8413750D01*
X5556250Y-8382000D02*
X5619750Y-8382000D01*
X6105956Y-13624356D02*
X6105956Y-13553644D01*
X6035244Y-13553644D01*
X6035244Y-13624356D01*
X6105956Y-13624356D01*
X6105956Y-13878356D02*
X6105956Y-13807644D01*
X6035244Y-13807644D01*
X6035244Y-13878356D01*
X6105956Y-13878356D01*
X6105956Y-14132356D02*
X6105956Y-14061644D01*
X6035244Y-14061644D01*
X6035244Y-14132356D01*
X6105956Y-14132356D01*
X5166156Y-11668556D02*
X5166156Y-11597844D01*
X5095444Y-11597844D01*
X5095444Y-11668556D01*
X5166156Y-11668556D01*
X5166156Y-11922556D02*
X5166156Y-11851844D01*
X5095444Y-11851844D01*
X5095444Y-11922556D01*
X5166156Y-11922556D01*
X5166156Y-12176556D02*
X5166156Y-12105844D01*
X5095444Y-12105844D01*
X5095444Y-12176556D01*
X5166156Y-12176556D01*
X11099800Y-10049900D02*
X11154800Y-9994900D01*
X11099800Y-9939900D01*
X11044800Y-9994900D01*
X11099800Y-10049900D01*
X11099800Y-10303900D02*
X11154800Y-10248900D01*
X11099800Y-10193900D01*
X11044800Y-10248900D01*
X11099800Y-10303900D01*
X11099800Y-10557900D02*
X11154800Y-10502900D01*
X11099800Y-10447900D01*
X11044800Y-10502900D01*
X11099800Y-10557900D01*
X11099800Y-10811900D02*
X11154800Y-10756900D01*
X11099800Y-10701900D01*
X11044800Y-10756900D01*
X11099800Y-10811900D01*
X11099800Y-11065900D02*
X11154800Y-11010900D01*
X11099800Y-10955900D01*
X11044800Y-11010900D01*
X11099800Y-11065900D01*
X11099800Y-11319900D02*
X11154800Y-11264900D01*
X11099800Y-11209900D01*
X11044800Y-11264900D01*
X11099800Y-11319900D01*
X11099800Y-11573900D02*
X11154800Y-11518900D01*
X11099800Y-11463900D01*
X11044800Y-11518900D01*
X11099800Y-11573900D01*
X11099800Y-11827900D02*
X11154800Y-11772900D01*
X11099800Y-11717900D01*
X11044800Y-11772900D01*
X11099800Y-11827900D01*
X11099800Y-12081900D02*
X11154800Y-12026900D01*
X11099800Y-11971900D01*
X11044800Y-12026900D01*
X11099800Y-12081900D01*
X13639800Y-10049900D02*
X13694800Y-9994900D01*
X13639800Y-9939900D01*
X13584800Y-9994900D01*
X13639800Y-10049900D01*
X13639800Y-10303900D02*
X13694800Y-10248900D01*
X13639800Y-10193900D01*
X13584800Y-10248900D01*
X13639800Y-10303900D01*
X13639800Y-10557900D02*
X13694800Y-10502900D01*
X13639800Y-10447900D01*
X13584800Y-10502900D01*
X13639800Y-10557900D01*
X13639800Y-10811900D02*
X13694800Y-10756900D01*
X13639800Y-10701900D01*
X13584800Y-10756900D01*
X13639800Y-10811900D01*
X13639800Y-11065900D02*
X13694800Y-11010900D01*
X13639800Y-10955900D01*
X13584800Y-11010900D01*
X13639800Y-11065900D01*
X6794500Y-14367900D02*
X6849500Y-14312900D01*
X6794500Y-14257900D01*
X6739500Y-14312900D01*
X6794500Y-14367900D01*
X7048500Y-14367900D02*
X7103500Y-14312900D01*
X7048500Y-14257900D01*
X6993500Y-14312900D01*
X7048500Y-14367900D01*
X7302500Y-14367900D02*
X7357500Y-14312900D01*
X7302500Y-14257900D01*
X7247500Y-14312900D01*
X7302500Y-14367900D01*
X7556500Y-14367900D02*
X7611500Y-14312900D01*
X7556500Y-14257900D01*
X7501500Y-14312900D01*
X7556500Y-14367900D01*
X7810500Y-14367900D02*
X7865500Y-14312900D01*
X7810500Y-14257900D01*
X7755500Y-14312900D01*
X7810500Y-14367900D01*
X8064500Y-14367900D02*
X8119500Y-14312900D01*
X8064500Y-14257900D01*
X8009500Y-14312900D01*
X8064500Y-14367900D01*
X8318500Y-14367900D02*
X8373500Y-14312900D01*
X8318500Y-14257900D01*
X8263500Y-14312900D01*
X8318500Y-14367900D01*
X8826500Y-9922900D02*
X8881500Y-9867900D01*
X8826500Y-9812900D01*
X8771500Y-9867900D01*
X8826500Y-9922900D01*
X8826500Y-10176900D02*
X8881500Y-10121900D01*
X8826500Y-10066900D01*
X8771500Y-10121900D01*
X8826500Y-10176900D01*
X8826500Y-10430900D02*
X8881500Y-10375900D01*
X8826500Y-10320900D01*
X8771500Y-10375900D01*
X8826500Y-10430900D01*
X8826500Y-10684900D02*
X8881500Y-10629900D01*
X8826500Y-10574900D01*
X8771500Y-10629900D01*
X8826500Y-10684900D01*
X8826500Y-10938900D02*
X8881500Y-10883900D01*
X8826500Y-10828900D01*
X8771500Y-10883900D01*
X8826500Y-10938900D01*
X8826500Y-11192900D02*
X8881500Y-11137900D01*
X8826500Y-11082900D01*
X8771500Y-11137900D01*
X8826500Y-11192900D01*
X8826500Y-11446900D02*
X8881500Y-11391900D01*
X8826500Y-11336900D01*
X8771500Y-11391900D01*
X8826500Y-11446900D01*
X8826500Y-11700900D02*
X8881500Y-11645900D01*
X8826500Y-11590900D01*
X8771500Y-11645900D01*
X8826500Y-11700900D01*
X8826500Y-11954900D02*
X8881500Y-11899900D01*
X8826500Y-11844900D01*
X8771500Y-11899900D01*
X8826500Y-11954900D01*
X8826500Y-12208900D02*
X8881500Y-12153900D01*
X8826500Y-12098900D01*
X8771500Y-12153900D01*
X8826500Y-12208900D01*
X8826500Y-12462900D02*
X8881500Y-12407900D01*
X8826500Y-12352900D01*
X8771500Y-12407900D01*
X8826500Y-12462900D01*
X8826500Y-12716900D02*
X8881500Y-12661900D01*
X8826500Y-12606900D01*
X8771500Y-12661900D01*
X8826500Y-12716900D01*
X8826500Y-12970900D02*
X8881500Y-12915900D01*
X8826500Y-12860900D01*
X8771500Y-12915900D01*
X8826500Y-12970900D01*
X8826500Y-13224900D02*
X8881500Y-13169900D01*
X8826500Y-13114900D01*
X8771500Y-13169900D01*
X8826500Y-13224900D01*
X8826500Y-13478900D02*
X8881500Y-13423900D01*
X8826500Y-13368900D01*
X8771500Y-13423900D01*
X8826500Y-13478900D01*
X8826500Y-13732900D02*
X8881500Y-13677900D01*
X8826500Y-13622900D01*
X8771500Y-13677900D01*
X8826500Y-13732900D01*
X8826500Y-13986900D02*
X8881500Y-13931900D01*
X8826500Y-13876900D01*
X8771500Y-13931900D01*
X8826500Y-13986900D01*
X8826500Y-14240900D02*
X8881500Y-14185900D01*
X8826500Y-14130900D01*
X8771500Y-14185900D01*
X8826500Y-14240900D01*
X8826500Y-14494900D02*
X8881500Y-14439900D01*
X8826500Y-14384900D01*
X8771500Y-14439900D01*
X8826500Y-14494900D01*
X8826500Y-14748900D02*
X8881500Y-14693900D01*
X8826500Y-14638900D01*
X8771500Y-14693900D01*
X8826500Y-14748900D01*
X8826500Y-15002900D02*
X8881500Y-14947900D01*
X8826500Y-14892900D01*
X8771500Y-14947900D01*
X8826500Y-15002900D01*
X8826500Y-15256900D02*
X8881500Y-15201900D01*
X8826500Y-15146900D01*
X8771500Y-15201900D01*
X8826500Y-15256900D01*
X8826500Y-15510900D02*
X8881500Y-15455900D01*
X8826500Y-15400900D01*
X8771500Y-15455900D01*
X8826500Y-15510900D01*
X8826500Y-15764900D02*
X8881500Y-15709900D01*
X8826500Y-15654900D01*
X8771500Y-15709900D01*
X8826500Y-15764900D01*
X9080500Y-11192900D02*
X9135500Y-11137900D01*
X9080500Y-11082900D01*
X9025500Y-11137900D01*
X9080500Y-11192900D01*
X9080500Y-14494900D02*
X9135500Y-14439900D01*
X9080500Y-14384900D01*
X9025500Y-14439900D01*
X9080500Y-14494900D01*
X9080500Y-14748900D02*
X9135500Y-14693900D01*
X9080500Y-14638900D01*
X9025500Y-14693900D01*
X9080500Y-14748900D01*
X9080500Y-15002900D02*
X9135500Y-14947900D01*
X9080500Y-14892900D01*
X9025500Y-14947900D01*
X9080500Y-15002900D01*
X9080500Y-15510900D02*
X9135500Y-15455900D01*
X9080500Y-15400900D01*
X9025500Y-15455900D01*
X9080500Y-15510900D01*
X9334500Y-9922900D02*
X9389500Y-9867900D01*
X9334500Y-9812900D01*
X9279500Y-9867900D01*
X9334500Y-9922900D01*
X9334500Y-10176900D02*
X9389500Y-10121900D01*
X9334500Y-10066900D01*
X9279500Y-10121900D01*
X9334500Y-10176900D01*
X9334500Y-10430900D02*
X9389500Y-10375900D01*
X9334500Y-10320900D01*
X9279500Y-10375900D01*
X9334500Y-10430900D01*
X9334500Y-10684900D02*
X9389500Y-10629900D01*
X9334500Y-10574900D01*
X9279500Y-10629900D01*
X9334500Y-10684900D01*
X9334500Y-10938900D02*
X9389500Y-10883900D01*
X9334500Y-10828900D01*
X9279500Y-10883900D01*
X9334500Y-10938900D01*
X9334500Y-11192900D02*
X9389500Y-11137900D01*
X9334500Y-11082900D01*
X9279500Y-11137900D01*
X9334500Y-11192900D01*
X9334500Y-11446900D02*
X9389500Y-11391900D01*
X9334500Y-11336900D01*
X9279500Y-11391900D01*
X9334500Y-11446900D01*
X9334500Y-11700900D02*
X9389500Y-11645900D01*
X9334500Y-11590900D01*
X9279500Y-11645900D01*
X9334500Y-11700900D01*
X9334500Y-11954900D02*
X9389500Y-11899900D01*
X9334500Y-11844900D01*
X9279500Y-11899900D01*
X9334500Y-11954900D01*
X9334500Y-13478900D02*
X9389500Y-13423900D01*
X9334500Y-13368900D01*
X9279500Y-13423900D01*
X9334500Y-13478900D01*
X9334500Y-13732900D02*
X9389500Y-13677900D01*
X9334500Y-13622900D01*
X9279500Y-13677900D01*
X9334500Y-13732900D01*
X9334500Y-13986900D02*
X9389500Y-13931900D01*
X9334500Y-13876900D01*
X9279500Y-13931900D01*
X9334500Y-13986900D01*
X9334500Y-14240900D02*
X9389500Y-14185900D01*
X9334500Y-14130900D01*
X9279500Y-14185900D01*
X9334500Y-14240900D01*
X9487500Y-15637900D02*
X9542500Y-15582900D01*
X9487500Y-15527900D01*
X9432500Y-15582900D01*
X9487500Y-15637900D01*
X9588500Y-9922900D02*
X9643500Y-9867900D01*
X9588500Y-9812900D01*
X9533500Y-9867900D01*
X9588500Y-9922900D01*
X9588500Y-10176900D02*
X9643500Y-10121900D01*
X9588500Y-10066900D01*
X9533500Y-10121900D01*
X9588500Y-10176900D01*
X9588500Y-10430900D02*
X9643500Y-10375900D01*
X9588500Y-10320900D01*
X9533500Y-10375900D01*
X9588500Y-10430900D01*
X9588500Y-10684900D02*
X9643500Y-10629900D01*
X9588500Y-10574900D01*
X9533500Y-10629900D01*
X9588500Y-10684900D01*
X9588500Y-10938900D02*
X9643500Y-10883900D01*
X9588500Y-10828900D01*
X9533500Y-10883900D01*
X9588500Y-10938900D01*
X9588500Y-11192900D02*
X9643500Y-11137900D01*
X9588500Y-11082900D01*
X9533500Y-11137900D01*
X9588500Y-11192900D01*
X9588500Y-11446900D02*
X9643500Y-11391900D01*
X9588500Y-11336900D01*
X9533500Y-11391900D01*
X9588500Y-11446900D01*
X9588500Y-11700900D02*
X9643500Y-11645900D01*
X9588500Y-11590900D01*
X9533500Y-11645900D01*
X9588500Y-11700900D01*
X9588500Y-11954900D02*
X9643500Y-11899900D01*
X9588500Y-11844900D01*
X9533500Y-11899900D01*
X9588500Y-11954900D01*
X9588500Y-13478900D02*
X9643500Y-13423900D01*
X9588500Y-13368900D01*
X9533500Y-13423900D01*
X9588500Y-13478900D01*
X9588500Y-13732900D02*
X9643500Y-13677900D01*
X9588500Y-13622900D01*
X9533500Y-13677900D01*
X9588500Y-13732900D01*
X9588500Y-13986900D02*
X9643500Y-13931900D01*
X9588500Y-13876900D01*
X9533500Y-13931900D01*
X9588500Y-13986900D01*
X9588500Y-14240900D02*
X9643500Y-14185900D01*
X9588500Y-14130900D01*
X9533500Y-14185900D01*
X9588500Y-14240900D01*
X9689500Y-15637900D02*
X9744500Y-15582900D01*
X9689500Y-15527900D01*
X9634500Y-15582900D01*
X9689500Y-15637900D01*
X9842500Y-11192900D02*
X9897500Y-11137900D01*
X9842500Y-11082900D01*
X9787500Y-11137900D01*
X9842500Y-11192900D01*
X10050500Y-14113900D02*
X10105500Y-14058900D01*
X10050500Y-14003900D01*
X9995500Y-14058900D01*
X10050500Y-14113900D01*
X10050500Y-14367900D02*
X10105500Y-14312900D01*
X10050500Y-14257900D01*
X9995500Y-14312900D01*
X10050500Y-14367900D01*
X10050500Y-14621900D02*
X10105500Y-14566900D01*
X10050500Y-14511900D01*
X9995500Y-14566900D01*
X10050500Y-14621900D01*
X10050500Y-14875900D02*
X10105500Y-14820900D01*
X10050500Y-14765900D01*
X9995500Y-14820900D01*
X10050500Y-14875900D01*
X10050500Y-15129900D02*
X10105500Y-15074900D01*
X10050500Y-15019900D01*
X9995500Y-15074900D01*
X10050500Y-15129900D01*
X10096500Y-11192900D02*
X10151500Y-11137900D01*
X10096500Y-11082900D01*
X10041500Y-11137900D01*
X10096500Y-11192900D01*
X10350500Y-9922900D02*
X10405500Y-9867900D01*
X10350500Y-9812900D01*
X10295500Y-9867900D01*
X10350500Y-9922900D01*
X10350500Y-10176900D02*
X10405500Y-10121900D01*
X10350500Y-10066900D01*
X10295500Y-10121900D01*
X10350500Y-10176900D01*
X10350500Y-10430900D02*
X10405500Y-10375900D01*
X10350500Y-10320900D01*
X10295500Y-10375900D01*
X10350500Y-10430900D01*
X10350500Y-10684900D02*
X10405500Y-10629900D01*
X10350500Y-10574900D01*
X10295500Y-10629900D01*
X10350500Y-10684900D01*
X10350500Y-10938900D02*
X10405500Y-10883900D01*
X10350500Y-10828900D01*
X10295500Y-10883900D01*
X10350500Y-10938900D01*
X10350500Y-11192900D02*
X10405500Y-11137900D01*
X10350500Y-11082900D01*
X10295500Y-11137900D01*
X10350500Y-11192900D01*
X10350500Y-11446900D02*
X10405500Y-11391900D01*
X10350500Y-11336900D01*
X10295500Y-11391900D01*
X10350500Y-11446900D01*
X10350500Y-11700900D02*
X10405500Y-11645900D01*
X10350500Y-11590900D01*
X10295500Y-11645900D01*
X10350500Y-11700900D01*
X10350500Y-11954900D02*
X10405500Y-11899900D01*
X10350500Y-11844900D01*
X10295500Y-11899900D01*
X10350500Y-11954900D01*
X10350500Y-12208900D02*
X10405500Y-12153900D01*
X10350500Y-12098900D01*
X10295500Y-12153900D01*
X10350500Y-12208900D01*
X10350500Y-12462900D02*
X10405500Y-12407900D01*
X10350500Y-12352900D01*
X10295500Y-12407900D01*
X10350500Y-12462900D01*
X10350500Y-12716900D02*
X10405500Y-12661900D01*
X10350500Y-12606900D01*
X10295500Y-12661900D01*
X10350500Y-12716900D01*
X10350500Y-12970900D02*
X10405500Y-12915900D01*
X10350500Y-12860900D01*
X10295500Y-12915900D01*
X10350500Y-12970900D01*
X10350500Y-13224900D02*
X10405500Y-13169900D01*
X10350500Y-13114900D01*
X10295500Y-13169900D01*
X10350500Y-13224900D01*
X10350500Y-13478900D02*
X10405500Y-13423900D01*
X10350500Y-13368900D01*
X10295500Y-13423900D01*
X10350500Y-13478900D01*
X10350500Y-13732900D02*
X10405500Y-13677900D01*
X10350500Y-13622900D01*
X10295500Y-13677900D01*
X10350500Y-13732900D01*
X10350500Y-13986900D02*
X10405500Y-13931900D01*
X10350500Y-13876900D01*
X10295500Y-13931900D01*
X10350500Y-13986900D01*
X10350500Y-14240900D02*
X10405500Y-14185900D01*
X10350500Y-14130900D01*
X10295500Y-14185900D01*
X10350500Y-14240900D01*
X10350500Y-14494900D02*
X10405500Y-14439900D01*
X10350500Y-14384900D01*
X10295500Y-14439900D01*
X10350500Y-14494900D01*
X10350500Y-14748900D02*
X10405500Y-14693900D01*
X10350500Y-14638900D01*
X10295500Y-14693900D01*
X10350500Y-14748900D01*
X10350500Y-15002900D02*
X10405500Y-14947900D01*
X10350500Y-14892900D01*
X10295500Y-14947900D01*
X10350500Y-15002900D01*
X10350500Y-15256900D02*
X10405500Y-15201900D01*
X10350500Y-15146900D01*
X10295500Y-15201900D01*
X10350500Y-15256900D01*
X10350500Y-15510900D02*
X10405500Y-15455900D01*
X10350500Y-15400900D01*
X10295500Y-15455900D01*
X10350500Y-15510900D01*
X10350500Y-15764900D02*
X10405500Y-15709900D01*
X10350500Y-15654900D01*
X10295500Y-15709900D01*
X10350500Y-15764900D01*
X6540500Y-13021700D02*
X6595500Y-12966700D01*
X6540500Y-12911700D01*
X6485500Y-12966700D01*
X6540500Y-13021700D01*
X6794500Y-11243700D02*
X6849500Y-11188700D01*
X6794500Y-11133700D01*
X6739500Y-11188700D01*
X6794500Y-11243700D01*
X6794500Y-13021700D02*
X6849500Y-12966700D01*
X6794500Y-12911700D01*
X6739500Y-12966700D01*
X6794500Y-13021700D01*
X7048500Y-11243700D02*
X7103500Y-11188700D01*
X7048500Y-11133700D01*
X6993500Y-11188700D01*
X7048500Y-11243700D01*
X7048500Y-13021700D02*
X7103500Y-12966700D01*
X7048500Y-12911700D01*
X6993500Y-12966700D01*
X7048500Y-13021700D01*
X7302500Y-11243700D02*
X7357500Y-11188700D01*
X7302500Y-11133700D01*
X7247500Y-11188700D01*
X7302500Y-11243700D01*
X7302500Y-13021700D02*
X7357500Y-12966700D01*
X7302500Y-12911700D01*
X7247500Y-12966700D01*
X7302500Y-13021700D01*
X7556500Y-11243700D02*
X7611500Y-11188700D01*
X7556500Y-11133700D01*
X7501500Y-11188700D01*
X7556500Y-11243700D01*
X7556500Y-13021700D02*
X7611500Y-12966700D01*
X7556500Y-12911700D01*
X7501500Y-12966700D01*
X7556500Y-13021700D01*
X7810500Y-13021700D02*
X7865500Y-12966700D01*
X7810500Y-12911700D01*
X7755500Y-12966700D01*
X7810500Y-13021700D01*
X11049000Y-13605900D02*
X11104000Y-13550900D01*
X11049000Y-13495900D01*
X10994000Y-13550900D01*
X11049000Y-13605900D01*
X11049000Y-13859900D02*
X11104000Y-13804900D01*
X11049000Y-13749900D01*
X10994000Y-13804900D01*
X11049000Y-13859900D01*
X11049000Y-14113900D02*
X11104000Y-14058900D01*
X11049000Y-14003900D01*
X10994000Y-14058900D01*
X11049000Y-14113900D01*
X11049000Y-14367900D02*
X11104000Y-14312900D01*
X11049000Y-14257900D01*
X10994000Y-14312900D01*
X11049000Y-14367900D01*
X11049000Y-14621900D02*
X11104000Y-14566900D01*
X11049000Y-14511900D01*
X10994000Y-14566900D01*
X11049000Y-14621900D01*
X11049000Y-14875900D02*
X11104000Y-14820900D01*
X11049000Y-14765900D01*
X10994000Y-14820900D01*
X11049000Y-14875900D01*
X11049000Y-15129900D02*
X11104000Y-15074900D01*
X11049000Y-15019900D01*
X10994000Y-15074900D01*
X11049000Y-15129900D01*
X11049000Y-15383900D02*
X11104000Y-15328900D01*
X11049000Y-15273900D01*
X10994000Y-15328900D01*
X11049000Y-15383900D01*
X11049000Y-15637900D02*
X11104000Y-15582900D01*
X11049000Y-15527900D01*
X10994000Y-15582900D01*
X11049000Y-15637900D01*
X3568900Y-11265100D02*
X3720900Y-11417100D01*
X3720900Y-11265100D02*
X3568900Y-11417100D01*
X3720900Y-11341100D02*
G75*
G03*
X3720900Y-11341100I-76000J0D01*
G01*
X4076900Y-11265100D02*
X4228900Y-11417100D01*
X4228900Y-11265100D02*
X4076900Y-11417100D01*
X4228900Y-11341100D02*
G75*
G03*
X4228900Y-11341100I-76000J0D01*
G01*
X4635700Y-14008300D02*
X4787700Y-14160300D01*
X4787700Y-14008300D02*
X4635700Y-14160300D01*
X4787700Y-14084300D02*
G75*
G03*
X4787700Y-14084300I-76000J0D01*
G01*
X5143700Y-14008300D02*
X5295700Y-14160300D01*
X5295700Y-14008300D02*
X5143700Y-14160300D01*
X5295700Y-14084300D02*
G75*
G03*
X5295700Y-14084300I-76000J0D01*
G01*
D12*
X3006928Y-16795380D02*
X3006928Y-16495380D01*
X3078357Y-16495380D01*
X3121214Y-16509666D01*
X3149786Y-16538237D01*
X3164071Y-16566808D01*
X3178357Y-16623951D01*
X3178357Y-16666808D01*
X3164071Y-16723951D01*
X3149786Y-16752523D01*
X3121214Y-16781094D01*
X3078357Y-16795380D01*
X3006928Y-16795380D01*
X3306928Y-16795380D02*
X3306928Y-16595380D01*
X3306928Y-16652523D02*
X3321214Y-16623951D01*
X3335500Y-16609666D01*
X3364071Y-16595380D01*
X3392643Y-16595380D01*
X3492643Y-16795380D02*
X3492643Y-16595380D01*
X3492643Y-16495380D02*
X3478357Y-16509666D01*
X3492643Y-16523951D01*
X3506928Y-16509666D01*
X3492643Y-16495380D01*
X3492643Y-16523951D01*
X3678357Y-16795380D02*
X3649786Y-16781094D01*
X3635500Y-16752523D01*
X3635500Y-16495380D01*
X3835500Y-16795380D02*
X3806928Y-16781094D01*
X3792643Y-16752523D01*
X3792643Y-16495380D01*
X4178357Y-16795380D02*
X4178357Y-16495380D01*
X4278357Y-16709666D01*
X4378357Y-16495380D01*
X4378357Y-16795380D01*
X4649786Y-16795380D02*
X4649786Y-16638237D01*
X4635500Y-16609666D01*
X4606929Y-16595380D01*
X4549786Y-16595380D01*
X4521214Y-16609666D01*
X4649786Y-16781094D02*
X4621214Y-16795380D01*
X4549786Y-16795380D01*
X4521214Y-16781094D01*
X4506929Y-16752523D01*
X4506929Y-16723951D01*
X4521214Y-16695380D01*
X4549786Y-16681094D01*
X4621214Y-16681094D01*
X4649786Y-16666808D01*
X4792643Y-16595380D02*
X4792643Y-16895380D01*
X4792643Y-16609666D02*
X4821214Y-16595380D01*
X4878357Y-16595380D01*
X4906929Y-16609666D01*
X4921214Y-16623951D01*
X4935500Y-16652523D01*
X4935500Y-16738237D01*
X4921214Y-16766808D01*
X4906929Y-16781094D01*
X4878357Y-16795380D01*
X4821214Y-16795380D01*
X4792643Y-16781094D01*
X5064071Y-16766808D02*
X5078357Y-16781094D01*
X5064071Y-16795380D01*
X5049786Y-16781094D01*
X5064071Y-16766808D01*
X5064071Y-16795380D01*
X5064071Y-16609666D02*
X5078357Y-16623951D01*
X5064071Y-16638237D01*
X5049786Y-16623951D01*
X5064071Y-16609666D01*
X5064071Y-16638237D01*
X2700500Y-17279666D02*
X2720500Y-17299666D01*
X2720500Y-17279666D02*
X2700500Y-17299666D01*
X3064071Y-17125380D02*
X3092643Y-17125380D01*
X3121214Y-17139666D01*
X3135500Y-17153951D01*
X3149786Y-17182523D01*
X3164071Y-17239666D01*
X3164071Y-17311094D01*
X3149786Y-17368237D01*
X3135500Y-17396808D01*
X3121214Y-17411094D01*
X3092643Y-17425380D01*
X3064071Y-17425380D01*
X3035500Y-17411094D01*
X3021214Y-17396808D01*
X3006928Y-17368237D01*
X2992643Y-17311094D01*
X2992643Y-17239666D01*
X3006928Y-17182523D01*
X3021214Y-17153951D01*
X3035500Y-17139666D01*
X3064071Y-17125380D01*
X3292643Y-17396808D02*
X3306928Y-17411094D01*
X3292643Y-17425380D01*
X3278357Y-17411094D01*
X3292643Y-17396808D01*
X3292643Y-17425380D01*
X3421214Y-17153951D02*
X3435500Y-17139666D01*
X3464071Y-17125380D01*
X3535500Y-17125380D01*
X3564071Y-17139666D01*
X3578357Y-17153951D01*
X3592643Y-17182523D01*
X3592643Y-17211094D01*
X3578357Y-17253951D01*
X3406928Y-17425380D01*
X3592643Y-17425380D01*
X3778357Y-17125380D02*
X3806928Y-17125380D01*
X3835500Y-17139666D01*
X3849786Y-17153951D01*
X3864071Y-17182523D01*
X3878357Y-17239666D01*
X3878357Y-17311094D01*
X3864071Y-17368237D01*
X3849786Y-17396808D01*
X3835500Y-17411094D01*
X3806928Y-17425380D01*
X3778357Y-17425380D01*
X3749786Y-17411094D01*
X3735500Y-17396808D01*
X3721214Y-17368237D01*
X3706928Y-17311094D01*
X3706928Y-17239666D01*
X3721214Y-17182523D01*
X3735500Y-17153951D01*
X3749786Y-17139666D01*
X3778357Y-17125380D01*
X4006928Y-17425380D02*
X4006928Y-17225380D01*
X4006928Y-17253951D02*
X4021214Y-17239666D01*
X4049786Y-17225380D01*
X4092643Y-17225380D01*
X4121214Y-17239666D01*
X4135500Y-17268237D01*
X4135500Y-17425380D01*
X4135500Y-17268237D02*
X4149786Y-17239666D01*
X4178357Y-17225380D01*
X4221214Y-17225380D01*
X4249786Y-17239666D01*
X4264071Y-17268237D01*
X4264071Y-17425380D01*
X4406929Y-17425380D02*
X4406929Y-17225380D01*
X4406929Y-17253951D02*
X4421214Y-17239666D01*
X4449786Y-17225380D01*
X4492643Y-17225380D01*
X4521214Y-17239666D01*
X4535500Y-17268237D01*
X4535500Y-17425380D01*
X4535500Y-17268237D02*
X4549786Y-17239666D01*
X4578357Y-17225380D01*
X4621214Y-17225380D01*
X4649786Y-17239666D01*
X4664071Y-17268237D01*
X4664071Y-17425380D01*
X5249786Y-17111094D02*
X4992643Y-17496808D01*
X5635500Y-17125380D02*
X5664071Y-17125380D01*
X5692643Y-17139666D01*
X5706928Y-17153951D01*
X5721214Y-17182523D01*
X5735500Y-17239666D01*
X5735500Y-17311094D01*
X5721214Y-17368237D01*
X5706928Y-17396808D01*
X5692643Y-17411094D01*
X5664071Y-17425380D01*
X5635500Y-17425380D01*
X5606928Y-17411094D01*
X5592643Y-17396808D01*
X5578357Y-17368237D01*
X5564071Y-17311094D01*
X5564071Y-17239666D01*
X5578357Y-17182523D01*
X5592643Y-17153951D01*
X5606928Y-17139666D01*
X5635500Y-17125380D01*
X5864071Y-17396808D02*
X5878357Y-17411094D01*
X5864071Y-17425380D01*
X5849786Y-17411094D01*
X5864071Y-17396808D01*
X5864071Y-17425380D01*
X6064071Y-17125380D02*
X6092643Y-17125380D01*
X6121214Y-17139666D01*
X6135500Y-17153951D01*
X6149786Y-17182523D01*
X6164071Y-17239666D01*
X6164071Y-17311094D01*
X6149786Y-17368237D01*
X6135500Y-17396808D01*
X6121214Y-17411094D01*
X6092643Y-17425380D01*
X6064071Y-17425380D01*
X6035500Y-17411094D01*
X6021214Y-17396808D01*
X6006928Y-17368237D01*
X5992643Y-17311094D01*
X5992643Y-17239666D01*
X6006928Y-17182523D01*
X6021214Y-17153951D01*
X6035500Y-17139666D01*
X6064071Y-17125380D01*
X6349786Y-17125380D02*
X6378357Y-17125380D01*
X6406928Y-17139666D01*
X6421214Y-17153951D01*
X6435500Y-17182523D01*
X6449786Y-17239666D01*
X6449786Y-17311094D01*
X6435500Y-17368237D01*
X6421214Y-17396808D01*
X6406928Y-17411094D01*
X6378357Y-17425380D01*
X6349786Y-17425380D01*
X6321214Y-17411094D01*
X6306928Y-17396808D01*
X6292643Y-17368237D01*
X6278357Y-17311094D01*
X6278357Y-17239666D01*
X6292643Y-17182523D01*
X6306928Y-17153951D01*
X6321214Y-17139666D01*
X6349786Y-17125380D01*
X6621214Y-17253951D02*
X6592643Y-17239666D01*
X6578357Y-17225380D01*
X6564071Y-17196808D01*
X6564071Y-17182523D01*
X6578357Y-17153951D01*
X6592643Y-17139666D01*
X6621214Y-17125380D01*
X6678357Y-17125380D01*
X6706928Y-17139666D01*
X6721214Y-17153951D01*
X6735500Y-17182523D01*
X6735500Y-17196808D01*
X6721214Y-17225380D01*
X6706928Y-17239666D01*
X6678357Y-17253951D01*
X6621214Y-17253951D01*
X6592643Y-17268237D01*
X6578357Y-17282523D01*
X6564071Y-17311094D01*
X6564071Y-17368237D01*
X6578357Y-17396808D01*
X6592643Y-17411094D01*
X6621214Y-17425380D01*
X6678357Y-17425380D01*
X6706928Y-17411094D01*
X6721214Y-17396808D01*
X6735500Y-17368237D01*
X6735500Y-17311094D01*
X6721214Y-17282523D01*
X6706928Y-17268237D01*
X6678357Y-17253951D01*
X6849786Y-17125380D02*
X6849786Y-17182523D01*
X6964071Y-17125380D02*
X6964071Y-17182523D01*
X7406928Y-17539666D02*
X7392643Y-17525380D01*
X7364071Y-17482523D01*
X7349786Y-17453951D01*
X7335500Y-17411094D01*
X7321214Y-17339666D01*
X7321214Y-17282523D01*
X7335500Y-17211094D01*
X7349786Y-17168237D01*
X7364071Y-17139666D01*
X7392643Y-17096808D01*
X7406928Y-17082523D01*
X7564071Y-17253951D02*
X7535500Y-17239666D01*
X7521214Y-17225380D01*
X7506928Y-17196808D01*
X7506928Y-17182523D01*
X7521214Y-17153951D01*
X7535500Y-17139666D01*
X7564071Y-17125380D01*
X7621214Y-17125380D01*
X7649786Y-17139666D01*
X7664071Y-17153951D01*
X7678357Y-17182523D01*
X7678357Y-17196808D01*
X7664071Y-17225380D01*
X7649786Y-17239666D01*
X7621214Y-17253951D01*
X7564071Y-17253951D01*
X7535500Y-17268237D01*
X7521214Y-17282523D01*
X7506928Y-17311094D01*
X7506928Y-17368237D01*
X7521214Y-17396808D01*
X7535500Y-17411094D01*
X7564071Y-17425380D01*
X7621214Y-17425380D01*
X7649786Y-17411094D01*
X7664071Y-17396808D01*
X7678357Y-17368237D01*
X7678357Y-17311094D01*
X7664071Y-17282523D01*
X7649786Y-17268237D01*
X7621214Y-17253951D01*
X8035500Y-17425380D02*
X8035500Y-17125380D01*
X8164071Y-17425380D02*
X8164071Y-17268237D01*
X8149786Y-17239666D01*
X8121214Y-17225380D01*
X8078357Y-17225380D01*
X8049786Y-17239666D01*
X8035500Y-17253951D01*
X8349786Y-17425380D02*
X8321214Y-17411094D01*
X8306928Y-17396808D01*
X8292643Y-17368237D01*
X8292643Y-17282523D01*
X8306928Y-17253951D01*
X8321214Y-17239666D01*
X8349786Y-17225380D01*
X8392643Y-17225380D01*
X8421214Y-17239666D01*
X8435500Y-17253951D01*
X8449786Y-17282523D01*
X8449786Y-17368237D01*
X8435500Y-17396808D01*
X8421214Y-17411094D01*
X8392643Y-17425380D01*
X8349786Y-17425380D01*
X8621214Y-17425380D02*
X8592643Y-17411094D01*
X8578357Y-17382523D01*
X8578357Y-17125380D01*
X8849786Y-17411094D02*
X8821214Y-17425380D01*
X8764071Y-17425380D01*
X8735500Y-17411094D01*
X8721214Y-17382523D01*
X8721214Y-17268237D01*
X8735500Y-17239666D01*
X8764071Y-17225380D01*
X8821214Y-17225380D01*
X8849786Y-17239666D01*
X8864071Y-17268237D01*
X8864071Y-17296808D01*
X8721214Y-17325380D01*
X8978357Y-17411094D02*
X9006929Y-17425380D01*
X9064071Y-17425380D01*
X9092643Y-17411094D01*
X9106929Y-17382523D01*
X9106929Y-17368237D01*
X9092643Y-17339666D01*
X9064071Y-17325380D01*
X9021214Y-17325380D01*
X8992643Y-17311094D01*
X8978357Y-17282523D01*
X8978357Y-17268237D01*
X8992643Y-17239666D01*
X9021214Y-17225380D01*
X9064071Y-17225380D01*
X9092643Y-17239666D01*
X9206929Y-17539666D02*
X9221214Y-17525380D01*
X9249786Y-17482523D01*
X9264071Y-17453951D01*
X9278357Y-17411094D01*
X9292643Y-17339666D01*
X9292643Y-17282523D01*
X9278357Y-17211094D01*
X9264071Y-17168237D01*
X9249786Y-17139666D01*
X9221214Y-17096808D01*
X9206929Y-17082523D01*
X2720500Y-17685666D02*
G75*
G03*
X2720500Y-17685666I-20000J0D01*
G01*
X3064071Y-17521380D02*
X3092643Y-17521380D01*
X3121214Y-17535666D01*
X3135500Y-17549951D01*
X3149786Y-17578523D01*
X3164071Y-17635666D01*
X3164071Y-17707094D01*
X3149786Y-17764237D01*
X3135500Y-17792808D01*
X3121214Y-17807094D01*
X3092643Y-17821380D01*
X3064071Y-17821380D01*
X3035500Y-17807094D01*
X3021214Y-17792808D01*
X3006928Y-17764237D01*
X2992643Y-17707094D01*
X2992643Y-17635666D01*
X3006928Y-17578523D01*
X3021214Y-17549951D01*
X3035500Y-17535666D01*
X3064071Y-17521380D01*
X3292643Y-17792808D02*
X3306928Y-17807094D01*
X3292643Y-17821380D01*
X3278357Y-17807094D01*
X3292643Y-17792808D01*
X3292643Y-17821380D01*
X3564071Y-17621380D02*
X3564071Y-17821380D01*
X3492643Y-17507094D02*
X3421214Y-17721380D01*
X3606928Y-17721380D01*
X3778357Y-17521380D02*
X3806928Y-17521380D01*
X3835500Y-17535666D01*
X3849786Y-17549951D01*
X3864071Y-17578523D01*
X3878357Y-17635666D01*
X3878357Y-17707094D01*
X3864071Y-17764237D01*
X3849786Y-17792808D01*
X3835500Y-17807094D01*
X3806928Y-17821380D01*
X3778357Y-17821380D01*
X3749786Y-17807094D01*
X3735500Y-17792808D01*
X3721214Y-17764237D01*
X3706928Y-17707094D01*
X3706928Y-17635666D01*
X3721214Y-17578523D01*
X3735500Y-17549951D01*
X3749786Y-17535666D01*
X3778357Y-17521380D01*
X4006928Y-17821380D02*
X4006928Y-17621380D01*
X4006928Y-17649951D02*
X4021214Y-17635666D01*
X4049786Y-17621380D01*
X4092643Y-17621380D01*
X4121214Y-17635666D01*
X4135500Y-17664237D01*
X4135500Y-17821380D01*
X4135500Y-17664237D02*
X4149786Y-17635666D01*
X4178357Y-17621380D01*
X4221214Y-17621380D01*
X4249786Y-17635666D01*
X4264071Y-17664237D01*
X4264071Y-17821380D01*
X4406929Y-17821380D02*
X4406929Y-17621380D01*
X4406929Y-17649951D02*
X4421214Y-17635666D01*
X4449786Y-17621380D01*
X4492643Y-17621380D01*
X4521214Y-17635666D01*
X4535500Y-17664237D01*
X4535500Y-17821380D01*
X4535500Y-17664237D02*
X4549786Y-17635666D01*
X4578357Y-17621380D01*
X4621214Y-17621380D01*
X4649786Y-17635666D01*
X4664071Y-17664237D01*
X4664071Y-17821380D01*
X5249786Y-17507094D02*
X4992643Y-17892808D01*
X5635500Y-17521380D02*
X5664071Y-17521380D01*
X5692643Y-17535666D01*
X5706928Y-17549951D01*
X5721214Y-17578523D01*
X5735500Y-17635666D01*
X5735500Y-17707094D01*
X5721214Y-17764237D01*
X5706928Y-17792808D01*
X5692643Y-17807094D01*
X5664071Y-17821380D01*
X5635500Y-17821380D01*
X5606928Y-17807094D01*
X5592643Y-17792808D01*
X5578357Y-17764237D01*
X5564071Y-17707094D01*
X5564071Y-17635666D01*
X5578357Y-17578523D01*
X5592643Y-17549951D01*
X5606928Y-17535666D01*
X5635500Y-17521380D01*
X5864071Y-17792808D02*
X5878357Y-17807094D01*
X5864071Y-17821380D01*
X5849786Y-17807094D01*
X5864071Y-17792808D01*
X5864071Y-17821380D01*
X6064071Y-17521380D02*
X6092643Y-17521380D01*
X6121214Y-17535666D01*
X6135500Y-17549951D01*
X6149786Y-17578523D01*
X6164071Y-17635666D01*
X6164071Y-17707094D01*
X6149786Y-17764237D01*
X6135500Y-17792808D01*
X6121214Y-17807094D01*
X6092643Y-17821380D01*
X6064071Y-17821380D01*
X6035500Y-17807094D01*
X6021214Y-17792808D01*
X6006928Y-17764237D01*
X5992643Y-17707094D01*
X5992643Y-17635666D01*
X6006928Y-17578523D01*
X6021214Y-17549951D01*
X6035500Y-17535666D01*
X6064071Y-17521380D01*
X6449786Y-17821380D02*
X6278357Y-17821380D01*
X6364071Y-17821380D02*
X6364071Y-17521380D01*
X6335500Y-17564237D01*
X6306928Y-17592808D01*
X6278357Y-17607094D01*
X6706928Y-17521380D02*
X6649786Y-17521380D01*
X6621214Y-17535666D01*
X6606928Y-17549951D01*
X6578357Y-17592808D01*
X6564071Y-17649951D01*
X6564071Y-17764237D01*
X6578357Y-17792808D01*
X6592643Y-17807094D01*
X6621214Y-17821380D01*
X6678357Y-17821380D01*
X6706928Y-17807094D01*
X6721214Y-17792808D01*
X6735500Y-17764237D01*
X6735500Y-17692808D01*
X6721214Y-17664237D01*
X6706928Y-17649951D01*
X6678357Y-17635666D01*
X6621214Y-17635666D01*
X6592643Y-17649951D01*
X6578357Y-17664237D01*
X6564071Y-17692808D01*
X6849786Y-17521380D02*
X6849786Y-17578523D01*
X6964071Y-17521380D02*
X6964071Y-17578523D01*
X7406928Y-17935666D02*
X7392643Y-17921380D01*
X7364071Y-17878523D01*
X7349786Y-17849951D01*
X7335500Y-17807094D01*
X7321214Y-17735666D01*
X7321214Y-17678523D01*
X7335500Y-17607094D01*
X7349786Y-17564237D01*
X7364071Y-17535666D01*
X7392643Y-17492808D01*
X7406928Y-17478523D01*
X7678357Y-17821380D02*
X7506928Y-17821380D01*
X7592643Y-17821380D02*
X7592643Y-17521380D01*
X7564071Y-17564237D01*
X7535500Y-17592808D01*
X7506928Y-17607094D01*
X7849786Y-17649951D02*
X7821214Y-17635666D01*
X7806928Y-17621380D01*
X7792643Y-17592808D01*
X7792643Y-17578523D01*
X7806928Y-17549951D01*
X7821214Y-17535666D01*
X7849786Y-17521380D01*
X7906928Y-17521380D01*
X7935500Y-17535666D01*
X7949786Y-17549951D01*
X7964071Y-17578523D01*
X7964071Y-17592808D01*
X7949786Y-17621380D01*
X7935500Y-17635666D01*
X7906928Y-17649951D01*
X7849786Y-17649951D01*
X7821214Y-17664237D01*
X7806928Y-17678523D01*
X7792643Y-17707094D01*
X7792643Y-17764237D01*
X7806928Y-17792808D01*
X7821214Y-17807094D01*
X7849786Y-17821380D01*
X7906928Y-17821380D01*
X7935500Y-17807094D01*
X7949786Y-17792808D01*
X7964071Y-17764237D01*
X7964071Y-17707094D01*
X7949786Y-17678523D01*
X7935500Y-17664237D01*
X7906928Y-17649951D01*
X8221214Y-17521380D02*
X8164071Y-17521380D01*
X8135500Y-17535666D01*
X8121214Y-17549951D01*
X8092643Y-17592808D01*
X8078357Y-17649951D01*
X8078357Y-17764237D01*
X8092643Y-17792808D01*
X8106928Y-17807094D01*
X8135500Y-17821380D01*
X8192643Y-17821380D01*
X8221214Y-17807094D01*
X8235500Y-17792808D01*
X8249786Y-17764237D01*
X8249786Y-17692808D01*
X8235500Y-17664237D01*
X8221214Y-17649951D01*
X8192643Y-17635666D01*
X8135500Y-17635666D01*
X8106928Y-17649951D01*
X8092643Y-17664237D01*
X8078357Y-17692808D01*
X8606929Y-17821380D02*
X8606929Y-17521380D01*
X8735500Y-17821380D02*
X8735500Y-17664237D01*
X8721214Y-17635666D01*
X8692643Y-17621380D01*
X8649786Y-17621380D01*
X8621214Y-17635666D01*
X8606929Y-17649951D01*
X8921214Y-17821380D02*
X8892643Y-17807094D01*
X8878357Y-17792808D01*
X8864071Y-17764237D01*
X8864071Y-17678523D01*
X8878357Y-17649951D01*
X8892643Y-17635666D01*
X8921214Y-17621380D01*
X8964071Y-17621380D01*
X8992643Y-17635666D01*
X9006929Y-17649951D01*
X9021214Y-17678523D01*
X9021214Y-17764237D01*
X9006929Y-17792808D01*
X8992643Y-17807094D01*
X8964071Y-17821380D01*
X8921214Y-17821380D01*
X9192643Y-17821380D02*
X9164071Y-17807094D01*
X9149786Y-17778523D01*
X9149786Y-17521380D01*
X9421214Y-17807094D02*
X9392643Y-17821380D01*
X9335500Y-17821380D01*
X9306929Y-17807094D01*
X9292643Y-17778523D01*
X9292643Y-17664237D01*
X9306929Y-17635666D01*
X9335500Y-17621380D01*
X9392643Y-17621380D01*
X9421214Y-17635666D01*
X9435500Y-17664237D01*
X9435500Y-17692808D01*
X9292643Y-17721380D01*
X9549786Y-17807094D02*
X9578357Y-17821380D01*
X9635500Y-17821380D01*
X9664071Y-17807094D01*
X9678357Y-17778523D01*
X9678357Y-17764237D01*
X9664071Y-17735666D01*
X9635500Y-17721380D01*
X9592643Y-17721380D01*
X9564071Y-17707094D01*
X9549786Y-17678523D01*
X9549786Y-17664237D01*
X9564071Y-17635666D01*
X9592643Y-17621380D01*
X9635500Y-17621380D01*
X9664071Y-17635666D01*
X9778357Y-17935666D02*
X9792643Y-17921380D01*
X9821214Y-17878523D01*
X9835500Y-17849951D01*
X9849786Y-17807094D01*
X9864071Y-17735666D01*
X9864071Y-17678523D01*
X9849786Y-17607094D01*
X9835500Y-17564237D01*
X9821214Y-17535666D01*
X9792643Y-17492808D01*
X9778357Y-17478523D01*
X2688750Y-18049916D02*
X2688750Y-18113416D01*
X2657000Y-18081666D02*
X2720500Y-18081666D01*
X3064071Y-17917380D02*
X3092643Y-17917380D01*
X3121214Y-17931666D01*
X3135500Y-17945951D01*
X3149786Y-17974523D01*
X3164071Y-18031666D01*
X3164071Y-18103094D01*
X3149786Y-18160237D01*
X3135500Y-18188808D01*
X3121214Y-18203094D01*
X3092643Y-18217380D01*
X3064071Y-18217380D01*
X3035500Y-18203094D01*
X3021214Y-18188808D01*
X3006928Y-18160237D01*
X2992643Y-18103094D01*
X2992643Y-18031666D01*
X3006928Y-17974523D01*
X3021214Y-17945951D01*
X3035500Y-17931666D01*
X3064071Y-17917380D01*
X3292643Y-18188808D02*
X3306928Y-18203094D01*
X3292643Y-18217380D01*
X3278357Y-18203094D01*
X3292643Y-18188808D01*
X3292643Y-18217380D01*
X3564071Y-17917380D02*
X3506928Y-17917380D01*
X3478357Y-17931666D01*
X3464071Y-17945951D01*
X3435500Y-17988808D01*
X3421214Y-18045951D01*
X3421214Y-18160237D01*
X3435500Y-18188808D01*
X3449786Y-18203094D01*
X3478357Y-18217380D01*
X3535500Y-18217380D01*
X3564071Y-18203094D01*
X3578357Y-18188808D01*
X3592643Y-18160237D01*
X3592643Y-18088808D01*
X3578357Y-18060237D01*
X3564071Y-18045951D01*
X3535500Y-18031666D01*
X3478357Y-18031666D01*
X3449786Y-18045951D01*
X3435500Y-18060237D01*
X3421214Y-18088808D01*
X3849786Y-18017380D02*
X3849786Y-18217380D01*
X3778357Y-17903094D02*
X3706928Y-18117380D01*
X3892643Y-18117380D01*
X4006928Y-18217380D02*
X4006928Y-18017380D01*
X4006928Y-18045951D02*
X4021214Y-18031666D01*
X4049786Y-18017380D01*
X4092643Y-18017380D01*
X4121214Y-18031666D01*
X4135500Y-18060237D01*
X4135500Y-18217380D01*
X4135500Y-18060237D02*
X4149786Y-18031666D01*
X4178357Y-18017380D01*
X4221214Y-18017380D01*
X4249786Y-18031666D01*
X4264071Y-18060237D01*
X4264071Y-18217380D01*
X4406929Y-18217380D02*
X4406929Y-18017380D01*
X4406929Y-18045951D02*
X4421214Y-18031666D01*
X4449786Y-18017380D01*
X4492643Y-18017380D01*
X4521214Y-18031666D01*
X4535500Y-18060237D01*
X4535500Y-18217380D01*
X4535500Y-18060237D02*
X4549786Y-18031666D01*
X4578357Y-18017380D01*
X4621214Y-18017380D01*
X4649786Y-18031666D01*
X4664071Y-18060237D01*
X4664071Y-18217380D01*
X5249786Y-17903094D02*
X4992643Y-18288808D01*
X5635500Y-17917380D02*
X5664071Y-17917380D01*
X5692643Y-17931666D01*
X5706928Y-17945951D01*
X5721214Y-17974523D01*
X5735500Y-18031666D01*
X5735500Y-18103094D01*
X5721214Y-18160237D01*
X5706928Y-18188808D01*
X5692643Y-18203094D01*
X5664071Y-18217380D01*
X5635500Y-18217380D01*
X5606928Y-18203094D01*
X5592643Y-18188808D01*
X5578357Y-18160237D01*
X5564071Y-18103094D01*
X5564071Y-18031666D01*
X5578357Y-17974523D01*
X5592643Y-17945951D01*
X5606928Y-17931666D01*
X5635500Y-17917380D01*
X5864071Y-18188808D02*
X5878357Y-18203094D01*
X5864071Y-18217380D01*
X5849786Y-18203094D01*
X5864071Y-18188808D01*
X5864071Y-18217380D01*
X6064071Y-17917380D02*
X6092643Y-17917380D01*
X6121214Y-17931666D01*
X6135500Y-17945951D01*
X6149786Y-17974523D01*
X6164071Y-18031666D01*
X6164071Y-18103094D01*
X6149786Y-18160237D01*
X6135500Y-18188808D01*
X6121214Y-18203094D01*
X6092643Y-18217380D01*
X6064071Y-18217380D01*
X6035500Y-18203094D01*
X6021214Y-18188808D01*
X6006928Y-18160237D01*
X5992643Y-18103094D01*
X5992643Y-18031666D01*
X6006928Y-17974523D01*
X6021214Y-17945951D01*
X6035500Y-17931666D01*
X6064071Y-17917380D01*
X6278357Y-17945951D02*
X6292643Y-17931666D01*
X6321214Y-17917380D01*
X6392643Y-17917380D01*
X6421214Y-17931666D01*
X6435500Y-17945951D01*
X6449786Y-17974523D01*
X6449786Y-18003094D01*
X6435500Y-18045951D01*
X6264071Y-18217380D01*
X6449786Y-18217380D01*
X6721214Y-17917380D02*
X6578357Y-17917380D01*
X6564071Y-18060237D01*
X6578357Y-18045951D01*
X6606928Y-18031666D01*
X6678357Y-18031666D01*
X6706928Y-18045951D01*
X6721214Y-18060237D01*
X6735500Y-18088808D01*
X6735500Y-18160237D01*
X6721214Y-18188808D01*
X6706928Y-18203094D01*
X6678357Y-18217380D01*
X6606928Y-18217380D01*
X6578357Y-18203094D01*
X6564071Y-18188808D01*
X6849786Y-17917380D02*
X6849786Y-17974523D01*
X6964071Y-17917380D02*
X6964071Y-17974523D01*
X7406928Y-18331666D02*
X7392643Y-18317380D01*
X7364071Y-18274523D01*
X7349786Y-18245951D01*
X7335500Y-18203094D01*
X7321214Y-18131666D01*
X7321214Y-18074523D01*
X7335500Y-18003094D01*
X7349786Y-17960237D01*
X7364071Y-17931666D01*
X7392643Y-17888808D01*
X7406928Y-17874523D01*
X7506928Y-17945951D02*
X7521214Y-17931666D01*
X7549786Y-17917380D01*
X7621214Y-17917380D01*
X7649786Y-17931666D01*
X7664071Y-17945951D01*
X7678357Y-17974523D01*
X7678357Y-18003094D01*
X7664071Y-18045951D01*
X7492643Y-18217380D01*
X7678357Y-18217380D01*
X7949786Y-17917380D02*
X7806928Y-17917380D01*
X7792643Y-18060237D01*
X7806928Y-18045951D01*
X7835500Y-18031666D01*
X7906928Y-18031666D01*
X7935500Y-18045951D01*
X7949786Y-18060237D01*
X7964071Y-18088808D01*
X7964071Y-18160237D01*
X7949786Y-18188808D01*
X7935500Y-18203094D01*
X7906928Y-18217380D01*
X7835500Y-18217380D01*
X7806928Y-18203094D01*
X7792643Y-18188808D01*
X8321214Y-18217380D02*
X8321214Y-17917380D01*
X8449786Y-18217380D02*
X8449786Y-18060237D01*
X8435500Y-18031666D01*
X8406929Y-18017380D01*
X8364071Y-18017380D01*
X8335500Y-18031666D01*
X8321214Y-18045951D01*
X8635500Y-18217380D02*
X8606929Y-18203094D01*
X8592643Y-18188808D01*
X8578357Y-18160237D01*
X8578357Y-18074523D01*
X8592643Y-18045951D01*
X8606929Y-18031666D01*
X8635500Y-18017380D01*
X8678357Y-18017380D01*
X8706929Y-18031666D01*
X8721214Y-18045951D01*
X8735500Y-18074523D01*
X8735500Y-18160237D01*
X8721214Y-18188808D01*
X8706929Y-18203094D01*
X8678357Y-18217380D01*
X8635500Y-18217380D01*
X8906929Y-18217380D02*
X8878357Y-18203094D01*
X8864071Y-18174523D01*
X8864071Y-17917380D01*
X9135500Y-18203094D02*
X9106929Y-18217380D01*
X9049786Y-18217380D01*
X9021214Y-18203094D01*
X9006929Y-18174523D01*
X9006929Y-18060237D01*
X9021214Y-18031666D01*
X9049786Y-18017380D01*
X9106929Y-18017380D01*
X9135500Y-18031666D01*
X9149786Y-18060237D01*
X9149786Y-18088808D01*
X9006929Y-18117380D01*
X9264071Y-18203094D02*
X9292643Y-18217380D01*
X9349786Y-18217380D01*
X9378357Y-18203094D01*
X9392643Y-18174523D01*
X9392643Y-18160237D01*
X9378357Y-18131666D01*
X9349786Y-18117380D01*
X9306929Y-18117380D01*
X9278357Y-18103094D01*
X9264071Y-18074523D01*
X9264071Y-18060237D01*
X9278357Y-18031666D01*
X9306929Y-18017380D01*
X9349786Y-18017380D01*
X9378357Y-18031666D01*
X9492643Y-18331666D02*
X9506929Y-18317380D01*
X9535500Y-18274523D01*
X9549786Y-18245951D01*
X9564071Y-18203094D01*
X9578357Y-18131666D01*
X9578357Y-18074523D01*
X9564071Y-18003094D01*
X9549786Y-17960237D01*
X9535500Y-17931666D01*
X9506929Y-17888808D01*
X9492643Y-17874523D01*
X2705856Y-18513021D02*
X2705856Y-18442310D01*
X2635144Y-18442310D01*
X2635144Y-18513021D01*
X2705856Y-18513021D01*
X3164071Y-18613380D02*
X2992643Y-18613380D01*
X3078357Y-18613380D02*
X3078357Y-18313380D01*
X3049786Y-18356237D01*
X3021214Y-18384808D01*
X2992643Y-18399094D01*
X3292643Y-18584808D02*
X3306928Y-18599094D01*
X3292643Y-18613380D01*
X3278357Y-18599094D01*
X3292643Y-18584808D01*
X3292643Y-18613380D01*
X3492643Y-18313380D02*
X3521214Y-18313380D01*
X3549786Y-18327666D01*
X3564071Y-18341951D01*
X3578357Y-18370523D01*
X3592643Y-18427666D01*
X3592643Y-18499094D01*
X3578357Y-18556237D01*
X3564071Y-18584808D01*
X3549786Y-18599094D01*
X3521214Y-18613380D01*
X3492643Y-18613380D01*
X3464071Y-18599094D01*
X3449786Y-18584808D01*
X3435500Y-18556237D01*
X3421214Y-18499094D01*
X3421214Y-18427666D01*
X3435500Y-18370523D01*
X3449786Y-18341951D01*
X3464071Y-18327666D01*
X3492643Y-18313380D01*
X3778357Y-18313380D02*
X3806928Y-18313380D01*
X3835500Y-18327666D01*
X3849786Y-18341951D01*
X3864071Y-18370523D01*
X3878357Y-18427666D01*
X3878357Y-18499094D01*
X3864071Y-18556237D01*
X3849786Y-18584808D01*
X3835500Y-18599094D01*
X3806928Y-18613380D01*
X3778357Y-18613380D01*
X3749786Y-18599094D01*
X3735500Y-18584808D01*
X3721214Y-18556237D01*
X3706928Y-18499094D01*
X3706928Y-18427666D01*
X3721214Y-18370523D01*
X3735500Y-18341951D01*
X3749786Y-18327666D01*
X3778357Y-18313380D01*
X4006928Y-18613380D02*
X4006928Y-18413380D01*
X4006928Y-18441951D02*
X4021214Y-18427666D01*
X4049786Y-18413380D01*
X4092643Y-18413380D01*
X4121214Y-18427666D01*
X4135500Y-18456237D01*
X4135500Y-18613380D01*
X4135500Y-18456237D02*
X4149786Y-18427666D01*
X4178357Y-18413380D01*
X4221214Y-18413380D01*
X4249786Y-18427666D01*
X4264071Y-18456237D01*
X4264071Y-18613380D01*
X4406929Y-18613380D02*
X4406929Y-18413380D01*
X4406929Y-18441951D02*
X4421214Y-18427666D01*
X4449786Y-18413380D01*
X4492643Y-18413380D01*
X4521214Y-18427666D01*
X4535500Y-18456237D01*
X4535500Y-18613380D01*
X4535500Y-18456237D02*
X4549786Y-18427666D01*
X4578357Y-18413380D01*
X4621214Y-18413380D01*
X4649786Y-18427666D01*
X4664071Y-18456237D01*
X4664071Y-18613380D01*
X5249786Y-18299094D02*
X4992643Y-18684808D01*
X5635500Y-18313380D02*
X5664071Y-18313380D01*
X5692643Y-18327666D01*
X5706928Y-18341951D01*
X5721214Y-18370523D01*
X5735500Y-18427666D01*
X5735500Y-18499094D01*
X5721214Y-18556237D01*
X5706928Y-18584808D01*
X5692643Y-18599094D01*
X5664071Y-18613380D01*
X5635500Y-18613380D01*
X5606928Y-18599094D01*
X5592643Y-18584808D01*
X5578357Y-18556237D01*
X5564071Y-18499094D01*
X5564071Y-18427666D01*
X5578357Y-18370523D01*
X5592643Y-18341951D01*
X5606928Y-18327666D01*
X5635500Y-18313380D01*
X5864071Y-18584808D02*
X5878357Y-18599094D01*
X5864071Y-18613380D01*
X5849786Y-18599094D01*
X5864071Y-18584808D01*
X5864071Y-18613380D01*
X6064071Y-18313380D02*
X6092643Y-18313380D01*
X6121214Y-18327666D01*
X6135500Y-18341951D01*
X6149786Y-18370523D01*
X6164071Y-18427666D01*
X6164071Y-18499094D01*
X6149786Y-18556237D01*
X6135500Y-18584808D01*
X6121214Y-18599094D01*
X6092643Y-18613380D01*
X6064071Y-18613380D01*
X6035500Y-18599094D01*
X6021214Y-18584808D01*
X6006928Y-18556237D01*
X5992643Y-18499094D01*
X5992643Y-18427666D01*
X6006928Y-18370523D01*
X6021214Y-18341951D01*
X6035500Y-18327666D01*
X6064071Y-18313380D01*
X6264071Y-18313380D02*
X6449786Y-18313380D01*
X6349786Y-18427666D01*
X6392643Y-18427666D01*
X6421214Y-18441951D01*
X6435500Y-18456237D01*
X6449786Y-18484808D01*
X6449786Y-18556237D01*
X6435500Y-18584808D01*
X6421214Y-18599094D01*
X6392643Y-18613380D01*
X6306928Y-18613380D01*
X6278357Y-18599094D01*
X6264071Y-18584808D01*
X6592643Y-18613380D02*
X6649786Y-18613380D01*
X6678357Y-18599094D01*
X6692643Y-18584808D01*
X6721214Y-18541951D01*
X6735500Y-18484808D01*
X6735500Y-18370523D01*
X6721214Y-18341951D01*
X6706928Y-18327666D01*
X6678357Y-18313380D01*
X6621214Y-18313380D01*
X6592643Y-18327666D01*
X6578357Y-18341951D01*
X6564071Y-18370523D01*
X6564071Y-18441951D01*
X6578357Y-18470523D01*
X6592643Y-18484808D01*
X6621214Y-18499094D01*
X6678357Y-18499094D01*
X6706928Y-18484808D01*
X6721214Y-18470523D01*
X6735500Y-18441951D01*
X6849786Y-18313380D02*
X6849786Y-18370523D01*
X6964071Y-18313380D02*
X6964071Y-18370523D01*
X7406928Y-18727666D02*
X7392643Y-18713380D01*
X7364071Y-18670523D01*
X7349786Y-18641951D01*
X7335500Y-18599094D01*
X7321214Y-18527666D01*
X7321214Y-18470523D01*
X7335500Y-18399094D01*
X7349786Y-18356237D01*
X7364071Y-18327666D01*
X7392643Y-18284808D01*
X7406928Y-18270523D01*
X7649786Y-18313380D02*
X7592643Y-18313380D01*
X7564071Y-18327666D01*
X7549786Y-18341951D01*
X7521214Y-18384808D01*
X7506928Y-18441951D01*
X7506928Y-18556237D01*
X7521214Y-18584808D01*
X7535500Y-18599094D01*
X7564071Y-18613380D01*
X7621214Y-18613380D01*
X7649786Y-18599094D01*
X7664071Y-18584808D01*
X7678357Y-18556237D01*
X7678357Y-18484808D01*
X7664071Y-18456237D01*
X7649786Y-18441951D01*
X7621214Y-18427666D01*
X7564071Y-18427666D01*
X7535500Y-18441951D01*
X7521214Y-18456237D01*
X7506928Y-18484808D01*
X8035500Y-18613380D02*
X8035500Y-18313380D01*
X8164071Y-18613380D02*
X8164071Y-18456237D01*
X8149786Y-18427666D01*
X8121214Y-18413380D01*
X8078357Y-18413380D01*
X8049786Y-18427666D01*
X8035500Y-18441951D01*
X8349786Y-18613380D02*
X8321214Y-18599094D01*
X8306928Y-18584808D01*
X8292643Y-18556237D01*
X8292643Y-18470523D01*
X8306928Y-18441951D01*
X8321214Y-18427666D01*
X8349786Y-18413380D01*
X8392643Y-18413380D01*
X8421214Y-18427666D01*
X8435500Y-18441951D01*
X8449786Y-18470523D01*
X8449786Y-18556237D01*
X8435500Y-18584808D01*
X8421214Y-18599094D01*
X8392643Y-18613380D01*
X8349786Y-18613380D01*
X8621214Y-18613380D02*
X8592643Y-18599094D01*
X8578357Y-18570523D01*
X8578357Y-18313380D01*
X8849786Y-18599094D02*
X8821214Y-18613380D01*
X8764071Y-18613380D01*
X8735500Y-18599094D01*
X8721214Y-18570523D01*
X8721214Y-18456237D01*
X8735500Y-18427666D01*
X8764071Y-18413380D01*
X8821214Y-18413380D01*
X8849786Y-18427666D01*
X8864071Y-18456237D01*
X8864071Y-18484808D01*
X8721214Y-18513380D01*
X8978357Y-18599094D02*
X9006929Y-18613380D01*
X9064071Y-18613380D01*
X9092643Y-18599094D01*
X9106929Y-18570523D01*
X9106929Y-18556237D01*
X9092643Y-18527666D01*
X9064071Y-18513380D01*
X9021214Y-18513380D01*
X8992643Y-18499094D01*
X8978357Y-18470523D01*
X8978357Y-18456237D01*
X8992643Y-18427666D01*
X9021214Y-18413380D01*
X9064071Y-18413380D01*
X9092643Y-18427666D01*
X9206929Y-18727666D02*
X9221214Y-18713380D01*
X9249786Y-18670523D01*
X9264071Y-18641951D01*
X9278357Y-18599094D01*
X9292643Y-18527666D01*
X9292643Y-18470523D01*
X9278357Y-18399094D01*
X9264071Y-18356237D01*
X9249786Y-18327666D01*
X9221214Y-18284808D01*
X9206929Y-18270523D01*
X2665500Y-18928666D02*
X2720500Y-18873666D01*
X2665500Y-18818666D01*
X2610500Y-18873666D01*
X2665500Y-18928666D01*
X3164071Y-19009380D02*
X2992643Y-19009380D01*
X3078357Y-19009380D02*
X3078357Y-18709380D01*
X3049786Y-18752237D01*
X3021214Y-18780808D01*
X2992643Y-18795094D01*
X3292643Y-18980808D02*
X3306928Y-18995094D01*
X3292643Y-19009380D01*
X3278357Y-18995094D01*
X3292643Y-18980808D01*
X3292643Y-19009380D01*
X3592643Y-19009380D02*
X3421214Y-19009380D01*
X3506928Y-19009380D02*
X3506928Y-18709380D01*
X3478357Y-18752237D01*
X3449786Y-18780808D01*
X3421214Y-18795094D01*
X3778357Y-18709380D02*
X3806928Y-18709380D01*
X3835500Y-18723666D01*
X3849786Y-18737951D01*
X3864071Y-18766523D01*
X3878357Y-18823666D01*
X3878357Y-18895094D01*
X3864071Y-18952237D01*
X3849786Y-18980808D01*
X3835500Y-18995094D01*
X3806928Y-19009380D01*
X3778357Y-19009380D01*
X3749786Y-18995094D01*
X3735500Y-18980808D01*
X3721214Y-18952237D01*
X3706928Y-18895094D01*
X3706928Y-18823666D01*
X3721214Y-18766523D01*
X3735500Y-18737951D01*
X3749786Y-18723666D01*
X3778357Y-18709380D01*
X4006928Y-19009380D02*
X4006928Y-18809380D01*
X4006928Y-18837951D02*
X4021214Y-18823666D01*
X4049786Y-18809380D01*
X4092643Y-18809380D01*
X4121214Y-18823666D01*
X4135500Y-18852237D01*
X4135500Y-19009380D01*
X4135500Y-18852237D02*
X4149786Y-18823666D01*
X4178357Y-18809380D01*
X4221214Y-18809380D01*
X4249786Y-18823666D01*
X4264071Y-18852237D01*
X4264071Y-19009380D01*
X4406929Y-19009380D02*
X4406929Y-18809380D01*
X4406929Y-18837951D02*
X4421214Y-18823666D01*
X4449786Y-18809380D01*
X4492643Y-18809380D01*
X4521214Y-18823666D01*
X4535500Y-18852237D01*
X4535500Y-19009380D01*
X4535500Y-18852237D02*
X4549786Y-18823666D01*
X4578357Y-18809380D01*
X4621214Y-18809380D01*
X4649786Y-18823666D01*
X4664071Y-18852237D01*
X4664071Y-19009380D01*
X5249786Y-18695094D02*
X4992643Y-19080808D01*
X5635500Y-18709380D02*
X5664071Y-18709380D01*
X5692643Y-18723666D01*
X5706928Y-18737951D01*
X5721214Y-18766523D01*
X5735500Y-18823666D01*
X5735500Y-18895094D01*
X5721214Y-18952237D01*
X5706928Y-18980808D01*
X5692643Y-18995094D01*
X5664071Y-19009380D01*
X5635500Y-19009380D01*
X5606928Y-18995094D01*
X5592643Y-18980808D01*
X5578357Y-18952237D01*
X5564071Y-18895094D01*
X5564071Y-18823666D01*
X5578357Y-18766523D01*
X5592643Y-18737951D01*
X5606928Y-18723666D01*
X5635500Y-18709380D01*
X5864071Y-18980808D02*
X5878357Y-18995094D01*
X5864071Y-19009380D01*
X5849786Y-18995094D01*
X5864071Y-18980808D01*
X5864071Y-19009380D01*
X6064071Y-18709380D02*
X6092643Y-18709380D01*
X6121214Y-18723666D01*
X6135500Y-18737951D01*
X6149786Y-18766523D01*
X6164071Y-18823666D01*
X6164071Y-18895094D01*
X6149786Y-18952237D01*
X6135500Y-18980808D01*
X6121214Y-18995094D01*
X6092643Y-19009380D01*
X6064071Y-19009380D01*
X6035500Y-18995094D01*
X6021214Y-18980808D01*
X6006928Y-18952237D01*
X5992643Y-18895094D01*
X5992643Y-18823666D01*
X6006928Y-18766523D01*
X6021214Y-18737951D01*
X6035500Y-18723666D01*
X6064071Y-18709380D01*
X6421214Y-18809380D02*
X6421214Y-19009380D01*
X6349786Y-18695094D02*
X6278357Y-18909380D01*
X6464071Y-18909380D01*
X6549786Y-18709380D02*
X6735500Y-18709380D01*
X6635500Y-18823666D01*
X6678357Y-18823666D01*
X6706928Y-18837951D01*
X6721214Y-18852237D01*
X6735500Y-18880808D01*
X6735500Y-18952237D01*
X6721214Y-18980808D01*
X6706928Y-18995094D01*
X6678357Y-19009380D01*
X6592643Y-19009380D01*
X6564071Y-18995094D01*
X6549786Y-18980808D01*
X6849786Y-18709380D02*
X6849786Y-18766523D01*
X6964071Y-18709380D02*
X6964071Y-18766523D01*
X7406928Y-19123666D02*
X7392643Y-19109380D01*
X7364071Y-19066523D01*
X7349786Y-19037951D01*
X7335500Y-18995094D01*
X7321214Y-18923666D01*
X7321214Y-18866523D01*
X7335500Y-18795094D01*
X7349786Y-18752237D01*
X7364071Y-18723666D01*
X7392643Y-18680808D01*
X7406928Y-18666523D01*
X7678357Y-19009380D02*
X7506928Y-19009380D01*
X7592643Y-19009380D02*
X7592643Y-18709380D01*
X7564071Y-18752237D01*
X7535500Y-18780808D01*
X7506928Y-18795094D01*
X7792643Y-18737951D02*
X7806928Y-18723666D01*
X7835500Y-18709380D01*
X7906928Y-18709380D01*
X7935500Y-18723666D01*
X7949786Y-18737951D01*
X7964071Y-18766523D01*
X7964071Y-18795094D01*
X7949786Y-18837951D01*
X7778357Y-19009380D01*
X7964071Y-19009380D01*
X8135500Y-18837951D02*
X8106928Y-18823666D01*
X8092643Y-18809380D01*
X8078357Y-18780808D01*
X8078357Y-18766523D01*
X8092643Y-18737951D01*
X8106928Y-18723666D01*
X8135500Y-18709380D01*
X8192643Y-18709380D01*
X8221214Y-18723666D01*
X8235500Y-18737951D01*
X8249786Y-18766523D01*
X8249786Y-18780808D01*
X8235500Y-18809380D01*
X8221214Y-18823666D01*
X8192643Y-18837951D01*
X8135500Y-18837951D01*
X8106928Y-18852237D01*
X8092643Y-18866523D01*
X8078357Y-18895094D01*
X8078357Y-18952237D01*
X8092643Y-18980808D01*
X8106928Y-18995094D01*
X8135500Y-19009380D01*
X8192643Y-19009380D01*
X8221214Y-18995094D01*
X8235500Y-18980808D01*
X8249786Y-18952237D01*
X8249786Y-18895094D01*
X8235500Y-18866523D01*
X8221214Y-18852237D01*
X8192643Y-18837951D01*
X8606929Y-19009380D02*
X8606929Y-18709380D01*
X8735500Y-19009380D02*
X8735500Y-18852237D01*
X8721214Y-18823666D01*
X8692643Y-18809380D01*
X8649786Y-18809380D01*
X8621214Y-18823666D01*
X8606929Y-18837951D01*
X8921214Y-19009380D02*
X8892643Y-18995094D01*
X8878357Y-18980808D01*
X8864071Y-18952237D01*
X8864071Y-18866523D01*
X8878357Y-18837951D01*
X8892643Y-18823666D01*
X8921214Y-18809380D01*
X8964071Y-18809380D01*
X8992643Y-18823666D01*
X9006929Y-18837951D01*
X9021214Y-18866523D01*
X9021214Y-18952237D01*
X9006929Y-18980808D01*
X8992643Y-18995094D01*
X8964071Y-19009380D01*
X8921214Y-19009380D01*
X9192643Y-19009380D02*
X9164071Y-18995094D01*
X9149786Y-18966523D01*
X9149786Y-18709380D01*
X9421214Y-18995094D02*
X9392643Y-19009380D01*
X9335500Y-19009380D01*
X9306929Y-18995094D01*
X9292643Y-18966523D01*
X9292643Y-18852237D01*
X9306929Y-18823666D01*
X9335500Y-18809380D01*
X9392643Y-18809380D01*
X9421214Y-18823666D01*
X9435500Y-18852237D01*
X9435500Y-18880808D01*
X9292643Y-18909380D01*
X9549786Y-18995094D02*
X9578357Y-19009380D01*
X9635500Y-19009380D01*
X9664071Y-18995094D01*
X9678357Y-18966523D01*
X9678357Y-18952237D01*
X9664071Y-18923666D01*
X9635500Y-18909380D01*
X9592643Y-18909380D01*
X9564071Y-18895094D01*
X9549786Y-18866523D01*
X9549786Y-18852237D01*
X9564071Y-18823666D01*
X9592643Y-18809380D01*
X9635500Y-18809380D01*
X9664071Y-18823666D01*
X9778357Y-19123666D02*
X9792643Y-19109380D01*
X9821214Y-19066523D01*
X9835500Y-19037951D01*
X9849786Y-18995094D01*
X9864071Y-18923666D01*
X9864071Y-18866523D01*
X9849786Y-18795094D01*
X9835500Y-18752237D01*
X9821214Y-18723666D01*
X9792643Y-18680808D01*
X9778357Y-18666523D01*
X2568500Y-19193666D02*
X2720500Y-19345666D01*
X2720500Y-19193666D02*
X2568500Y-19345666D01*
X2720500Y-19269666D02*
G75*
G03*
X2720500Y-19269666I-76000J0D01*
G01*
X3164071Y-19405380D02*
X2992643Y-19405380D01*
X3078357Y-19405380D02*
X3078357Y-19105380D01*
X3049786Y-19148237D01*
X3021214Y-19176808D01*
X2992643Y-19191094D01*
X3292643Y-19376808D02*
X3306928Y-19391094D01*
X3292643Y-19405380D01*
X3278357Y-19391094D01*
X3292643Y-19376808D01*
X3292643Y-19405380D01*
X3578357Y-19105380D02*
X3435500Y-19105380D01*
X3421214Y-19248237D01*
X3435500Y-19233951D01*
X3464071Y-19219666D01*
X3535500Y-19219666D01*
X3564071Y-19233951D01*
X3578357Y-19248237D01*
X3592643Y-19276808D01*
X3592643Y-19348237D01*
X3578357Y-19376808D01*
X3564071Y-19391094D01*
X3535500Y-19405380D01*
X3464071Y-19405380D01*
X3435500Y-19391094D01*
X3421214Y-19376808D01*
X3706928Y-19133951D02*
X3721214Y-19119666D01*
X3749786Y-19105380D01*
X3821214Y-19105380D01*
X3849786Y-19119666D01*
X3864071Y-19133951D01*
X3878357Y-19162523D01*
X3878357Y-19191094D01*
X3864071Y-19233951D01*
X3692643Y-19405380D01*
X3878357Y-19405380D01*
X4006928Y-19405380D02*
X4006928Y-19205380D01*
X4006928Y-19233951D02*
X4021214Y-19219666D01*
X4049786Y-19205380D01*
X4092643Y-19205380D01*
X4121214Y-19219666D01*
X4135500Y-19248237D01*
X4135500Y-19405380D01*
X4135500Y-19248237D02*
X4149786Y-19219666D01*
X4178357Y-19205380D01*
X4221214Y-19205380D01*
X4249786Y-19219666D01*
X4264071Y-19248237D01*
X4264071Y-19405380D01*
X4406929Y-19405380D02*
X4406929Y-19205380D01*
X4406929Y-19233951D02*
X4421214Y-19219666D01*
X4449786Y-19205380D01*
X4492643Y-19205380D01*
X4521214Y-19219666D01*
X4535500Y-19248237D01*
X4535500Y-19405380D01*
X4535500Y-19248237D02*
X4549786Y-19219666D01*
X4578357Y-19205380D01*
X4621214Y-19205380D01*
X4649786Y-19219666D01*
X4664071Y-19248237D01*
X4664071Y-19405380D01*
X5249786Y-19091094D02*
X4992643Y-19476808D01*
X5635500Y-19105380D02*
X5664071Y-19105380D01*
X5692643Y-19119666D01*
X5706928Y-19133951D01*
X5721214Y-19162523D01*
X5735500Y-19219666D01*
X5735500Y-19291094D01*
X5721214Y-19348237D01*
X5706928Y-19376808D01*
X5692643Y-19391094D01*
X5664071Y-19405380D01*
X5635500Y-19405380D01*
X5606928Y-19391094D01*
X5592643Y-19376808D01*
X5578357Y-19348237D01*
X5564071Y-19291094D01*
X5564071Y-19219666D01*
X5578357Y-19162523D01*
X5592643Y-19133951D01*
X5606928Y-19119666D01*
X5635500Y-19105380D01*
X5864071Y-19376808D02*
X5878357Y-19391094D01*
X5864071Y-19405380D01*
X5849786Y-19391094D01*
X5864071Y-19376808D01*
X5864071Y-19405380D01*
X6064071Y-19105380D02*
X6092643Y-19105380D01*
X6121214Y-19119666D01*
X6135500Y-19133951D01*
X6149786Y-19162523D01*
X6164071Y-19219666D01*
X6164071Y-19291094D01*
X6149786Y-19348237D01*
X6135500Y-19376808D01*
X6121214Y-19391094D01*
X6092643Y-19405380D01*
X6064071Y-19405380D01*
X6035500Y-19391094D01*
X6021214Y-19376808D01*
X6006928Y-19348237D01*
X5992643Y-19291094D01*
X5992643Y-19219666D01*
X6006928Y-19162523D01*
X6021214Y-19133951D01*
X6035500Y-19119666D01*
X6064071Y-19105380D01*
X6421214Y-19105380D02*
X6364071Y-19105380D01*
X6335500Y-19119666D01*
X6321214Y-19133951D01*
X6292643Y-19176808D01*
X6278357Y-19233951D01*
X6278357Y-19348237D01*
X6292643Y-19376808D01*
X6306928Y-19391094D01*
X6335500Y-19405380D01*
X6392643Y-19405380D01*
X6421214Y-19391094D01*
X6435500Y-19376808D01*
X6449786Y-19348237D01*
X6449786Y-19276808D01*
X6435500Y-19248237D01*
X6421214Y-19233951D01*
X6392643Y-19219666D01*
X6335500Y-19219666D01*
X6306928Y-19233951D01*
X6292643Y-19248237D01*
X6278357Y-19276808D01*
X6635500Y-19105380D02*
X6664071Y-19105380D01*
X6692643Y-19119666D01*
X6706928Y-19133951D01*
X6721214Y-19162523D01*
X6735500Y-19219666D01*
X6735500Y-19291094D01*
X6721214Y-19348237D01*
X6706928Y-19376808D01*
X6692643Y-19391094D01*
X6664071Y-19405380D01*
X6635500Y-19405380D01*
X6606928Y-19391094D01*
X6592643Y-19376808D01*
X6578357Y-19348237D01*
X6564071Y-19291094D01*
X6564071Y-19219666D01*
X6578357Y-19162523D01*
X6592643Y-19133951D01*
X6606928Y-19119666D01*
X6635500Y-19105380D01*
X6849786Y-19105380D02*
X6849786Y-19162523D01*
X6964071Y-19105380D02*
X6964071Y-19162523D01*
X7406928Y-19519666D02*
X7392643Y-19505380D01*
X7364071Y-19462523D01*
X7349786Y-19433951D01*
X7335500Y-19391094D01*
X7321214Y-19319666D01*
X7321214Y-19262523D01*
X7335500Y-19191094D01*
X7349786Y-19148237D01*
X7364071Y-19119666D01*
X7392643Y-19076808D01*
X7406928Y-19062523D01*
X7649786Y-19205380D02*
X7649786Y-19405380D01*
X7578357Y-19091094D02*
X7506928Y-19305380D01*
X7692643Y-19305380D01*
X8035500Y-19405380D02*
X8035500Y-19105380D01*
X8164071Y-19405380D02*
X8164071Y-19248237D01*
X8149786Y-19219666D01*
X8121214Y-19205380D01*
X8078357Y-19205380D01*
X8049786Y-19219666D01*
X8035500Y-19233951D01*
X8349786Y-19405380D02*
X8321214Y-19391094D01*
X8306928Y-19376808D01*
X8292643Y-19348237D01*
X8292643Y-19262523D01*
X8306928Y-19233951D01*
X8321214Y-19219666D01*
X8349786Y-19205380D01*
X8392643Y-19205380D01*
X8421214Y-19219666D01*
X8435500Y-19233951D01*
X8449786Y-19262523D01*
X8449786Y-19348237D01*
X8435500Y-19376808D01*
X8421214Y-19391094D01*
X8392643Y-19405380D01*
X8349786Y-19405380D01*
X8621214Y-19405380D02*
X8592643Y-19391094D01*
X8578357Y-19362523D01*
X8578357Y-19105380D01*
X8849786Y-19391094D02*
X8821214Y-19405380D01*
X8764071Y-19405380D01*
X8735500Y-19391094D01*
X8721214Y-19362523D01*
X8721214Y-19248237D01*
X8735500Y-19219666D01*
X8764071Y-19205380D01*
X8821214Y-19205380D01*
X8849786Y-19219666D01*
X8864071Y-19248237D01*
X8864071Y-19276808D01*
X8721214Y-19305380D01*
X8978357Y-19391094D02*
X9006929Y-19405380D01*
X9064071Y-19405380D01*
X9092643Y-19391094D01*
X9106929Y-19362523D01*
X9106929Y-19348237D01*
X9092643Y-19319666D01*
X9064071Y-19305380D01*
X9021214Y-19305380D01*
X8992643Y-19291094D01*
X8978357Y-19262523D01*
X8978357Y-19248237D01*
X8992643Y-19219666D01*
X9021214Y-19205380D01*
X9064071Y-19205380D01*
X9092643Y-19219666D01*
X9206929Y-19519666D02*
X9221214Y-19505380D01*
X9249786Y-19462523D01*
X9264071Y-19433951D01*
X9278357Y-19391094D01*
X9292643Y-19319666D01*
X9292643Y-19262523D01*
X9278357Y-19191094D01*
X9264071Y-19148237D01*
X9249786Y-19119666D01*
X9221214Y-19076808D01*
X9206929Y-19062523D01*
M02*
