M48
; DRILL file {KiCad (5.1.7)-1} date 11/24/21 22:42:34
; FORMAT={-:-/ absolute / metric / decimal}
; #@! TF.CreationDate,2021-11-24T22:42:34-05:00
; #@! TF.GenerationSoftware,Kicad,Pcbnew,(5.1.7)-1
; #@! TF.FileFunction,Plated,1,2,PTH
FMAT,2
METRIC
T1C0.200
T2C0.400
T3C0.635
T4C1.000
T5C1.100
T6C1.520
%
G90
G05
T1
X40.523Y-97.155
X41.148Y-96.655
X41.148Y-97.655
X41.773Y-97.155
X43.127Y-81.597
X43.752Y-81.097
X43.752Y-82.097
X44.377Y-81.597
T2
X31.75Y-111.76
X31.75Y-116.84
X33.02Y-106.68
X33.02Y-121.92
X36.83Y-125.73
X39.37Y-130.81
X39.37Y-134.62
X40.64Y-139.7
X41.91Y-106.68
X41.91Y-119.38
X41.91Y-121.92
X43.18Y-143.51
X44.196Y-104.521
X45.72Y-121.92
X45.72Y-125.73
X46.672Y-88.075
X46.99Y-106.68
X46.99Y-110.49
X46.99Y-114.3
X48.26Y-148.59
X48.641Y-100.33
X49.53Y-125.73
X50.8Y-66.04
X50.8Y-69.85
X50.8Y-73.66
X51.752Y-84.138
X52.07Y-106.68
X53.34Y-125.73
X53.34Y-148.59
X53.34Y-153.67
X54.61Y-66.04
X54.61Y-69.85
X54.61Y-73.66
X54.61Y-111.76
X54.61Y-116.84
X54.61Y-121.92
X58.42Y-66.04
X58.42Y-69.85
X58.42Y-73.66
X58.42Y-114.3
X58.42Y-119.38
X58.42Y-124.46
X58.42Y-148.59
X58.42Y-153.67
X58.42Y-158.75
X59.69Y-93.98
X59.69Y-99.06
X59.69Y-104.775
X60.96Y-127.0
X60.96Y-144.78
X61.595Y-120.523
X61.722Y-107.95
X62.23Y-66.04
X62.23Y-69.85
X62.23Y-73.66
X63.5Y-93.98
X63.5Y-99.06
X63.5Y-104.775
X63.5Y-147.32
X63.5Y-153.67
X63.5Y-158.75
X64.77Y-118.11
X64.77Y-123.19
X66.04Y-149.86
X67.31Y-93.98
X67.31Y-99.06
X67.31Y-104.775
X67.31Y-125.73
X68.58Y-137.16
X68.58Y-152.4
X68.58Y-158.75
X69.85Y-118.11
X69.85Y-123.19
X71.12Y-93.98
X71.12Y-99.06
X71.12Y-104.775
X71.12Y-154.94
X72.009Y-132.969
X72.39Y-125.73
X73.66Y-157.48
X74.544Y-136.784
X74.93Y-93.98
X74.93Y-99.06
X74.93Y-104.775
X74.93Y-118.11
X74.93Y-123.19
X76.2Y-160.02
X76.586Y-136.774
X77.47Y-125.73
X78.74Y-99.06
X78.74Y-104.775
X79.888Y-132.964
X80.01Y-111.252
X80.01Y-118.11
X80.01Y-123.19
X80.64Y-131.694
X80.645Y-140.335
X81.28Y-90.805
X81.28Y-160.02
X83.185Y-135.763
X83.185Y-140.335
X85.09Y-90.805
X85.217Y-121.539
X86.741Y-94.869
X86.741Y-97.155
X88.9Y-90.805
X92.71Y-90.805
X92.837Y-95.631
X96.52Y-90.805
X96.647Y-96.647
X100.33Y-90.805
X104.14Y-90.805
X105.283Y-107.569
X105.791Y-128.143
X106.294Y-97.922
X106.299Y-94.869
X106.299Y-110.109
X107.315Y-102.489
X107.95Y-90.805
X107.95Y-128.27
X107.95Y-130.81
X107.95Y-133.35
X107.95Y-135.255
X108.331Y-112.776
X109.347Y-107.569
X109.347Y-110.109
X111.76Y-90.805
X114.935Y-97.79
X114.935Y-101.6
X114.935Y-105.41
X114.935Y-109.22
X114.935Y-113.03
X114.935Y-116.84
X114.935Y-120.65
X114.935Y-134.62
X114.935Y-138.43
X114.935Y-142.24
X114.935Y-146.05
X114.935Y-149.86
X114.935Y-153.67
X114.935Y-157.48
X115.57Y-90.805
X116.205Y-131.445
X118.745Y-116.84
X118.745Y-120.65
X119.38Y-90.805
X120.015Y-131.445
X122.555Y-116.84
X122.555Y-120.65
X123.19Y-90.805
X123.825Y-131.445
X126.365Y-116.84
X126.365Y-120.65
X127.0Y-90.805
X127.635Y-131.445
X130.81Y-90.805
X131.445Y-131.445
X134.62Y-90.805
X135.255Y-131.445
X138.43Y-90.805
X139.065Y-131.445
X142.24Y-90.805
X142.875Y-131.445
X144.78Y-106.68
X144.78Y-113.03
X144.78Y-118.745
X144.78Y-125.095
X160.02Y-76.2
X160.02Y-80.01
X160.02Y-83.82
X160.02Y-87.63
X160.02Y-91.44
X160.02Y-95.25
X160.02Y-125.73
X160.02Y-128.905
X160.02Y-132.715
X160.02Y-136.525
X163.83Y-95.25
X163.83Y-99.06
X163.83Y-102.87
X163.83Y-106.68
X163.83Y-110.49
X163.83Y-114.3
X163.83Y-118.11
X163.83Y-121.92
X163.83Y-125.095
T3
X34.036Y-91.44
X37.084Y-91.44
X39.624Y-78.74
X40.132Y-81.28
X40.132Y-84.328
X40.132Y-91.44
X43.18Y-91.44
X45.212Y-78.74
X45.212Y-100.584
X48.26Y-78.74
X49.784Y-91.44
X49.784Y-98.044
X49.784Y-104.648
X49.911Y-93.091
X51.308Y-78.74
X51.816Y-100.076
X52.832Y-91.44
X52.832Y-104.648
X52.959Y-80.264
X53.848Y-84.836
X54.356Y-78.74
X54.864Y-89.408
X54.991Y-96.139
X55.88Y-80.264
X55.88Y-83.82
T4
X60.706Y-135.89
X60.706Y-138.43
X60.706Y-140.97
X51.308Y-116.332
X51.308Y-118.872
X51.308Y-121.412
T5
X110.998Y-99.949
X110.998Y-102.489
X110.998Y-105.029
X110.998Y-107.569
X110.998Y-110.109
X110.998Y-112.649
X110.998Y-115.189
X110.998Y-117.729
X110.998Y-120.269
X136.398Y-99.949
X136.398Y-102.489
X136.398Y-105.029
X136.398Y-107.569
X136.398Y-110.109
X67.945Y-143.129
X70.485Y-143.129
X73.025Y-143.129
X75.565Y-143.129
X78.105Y-143.129
X80.645Y-143.129
X83.185Y-143.129
X88.265Y-98.679
X88.265Y-101.219
X88.265Y-103.759
X88.265Y-106.299
X88.265Y-108.839
X88.265Y-111.379
X88.265Y-113.919
X88.265Y-116.459
X88.265Y-118.999
X88.265Y-121.539
X88.265Y-124.079
X88.265Y-126.619
X88.265Y-129.159
X88.265Y-131.699
X88.265Y-134.239
X88.265Y-136.779
X88.265Y-139.319
X88.265Y-141.859
X88.265Y-144.399
X88.265Y-146.939
X88.265Y-149.479
X88.265Y-152.019
X88.265Y-154.559
X88.265Y-157.099
X90.805Y-111.379
X90.805Y-144.399
X90.805Y-146.939
X90.805Y-149.479
X90.805Y-154.559
X93.345Y-98.679
X93.345Y-101.219
X93.345Y-103.759
X93.345Y-106.299
X93.345Y-108.839
X93.345Y-111.379
X93.345Y-113.919
X93.345Y-116.459
X93.345Y-118.999
X93.345Y-134.239
X93.345Y-136.779
X93.345Y-139.319
X93.345Y-141.859
X94.875Y-155.829
X95.885Y-98.679
X95.885Y-101.219
X95.885Y-103.759
X95.885Y-106.299
X95.885Y-108.839
X95.885Y-111.379
X95.885Y-113.919
X95.885Y-116.459
X95.885Y-118.999
X95.885Y-134.239
X95.885Y-136.779
X95.885Y-139.319
X95.885Y-141.859
X96.895Y-155.829
X98.425Y-111.379
X100.505Y-140.589
X100.505Y-143.129
X100.505Y-145.669
X100.505Y-148.209
X100.505Y-150.749
X100.965Y-111.379
X103.505Y-98.679
X103.505Y-101.219
X103.505Y-103.759
X103.505Y-106.299
X103.505Y-108.839
X103.505Y-111.379
X103.505Y-113.919
X103.505Y-116.459
X103.505Y-118.999
X103.505Y-121.539
X103.505Y-124.079
X103.505Y-126.619
X103.505Y-129.159
X103.505Y-131.699
X103.505Y-134.239
X103.505Y-136.779
X103.505Y-139.319
X103.505Y-141.859
X103.505Y-144.399
X103.505Y-146.939
X103.505Y-149.479
X103.505Y-152.019
X103.505Y-154.559
X103.505Y-157.099
X65.405Y-129.667
X67.945Y-111.887
X67.945Y-129.667
X70.485Y-111.887
X70.485Y-129.667
X73.025Y-111.887
X73.025Y-129.667
X75.565Y-111.887
X75.565Y-129.667
X78.105Y-129.667
X110.49Y-135.509
X110.49Y-138.049
X110.49Y-140.589
X110.49Y-143.129
X110.49Y-145.669
X110.49Y-148.209
X110.49Y-150.749
X110.49Y-153.289
X110.49Y-155.829
T6
X36.449Y-113.411
X41.529Y-113.411
X47.117Y-140.843
X52.197Y-140.843
T0
M30
