%TF.GenerationSoftware,KiCad,Pcbnew,(5.1.7)-1*%
%TF.CreationDate,2021-04-25T20:46:05-04:00*%
%TF.ProjectId,rev2,72657632-2e6b-4696-9361-645f70636258,rev?*%
%TF.SameCoordinates,Original*%
%TF.FileFunction,Soldermask,Bot*%
%TF.FilePolarity,Negative*%
%FSLAX46Y46*%
G04 Gerber Fmt 4.6, Leading zero omitted, Abs format (unit mm)*
G04 Created by KiCad (PCBNEW (5.1.7)-1) date 2021-04-25 20:46:05*
%MOMM*%
%LPD*%
G01*
G04 APERTURE LIST*
%ADD10C,1.900000*%
%ADD11C,1.600000*%
%ADD12R,1.108000X1.108000*%
%ADD13R,1.600000X1.600000*%
%ADD14O,1.700000X1.700000*%
%ADD15R,1.700000X1.700000*%
G04 APERTURE END LIST*
D10*
%TO.C,J3*%
X125650000Y-114065000D03*
X128150000Y-114065000D03*
X130650000Y-114065000D03*
X125650000Y-111565000D03*
X128150000Y-111565000D03*
X130650000Y-111565000D03*
D11*
X123480000Y-113775000D03*
X132820000Y-113775000D03*
%TD*%
D12*
%TO.C,LS1*%
X136500000Y-63750000D03*
X146500000Y-63750000D03*
%TD*%
D11*
%TO.C,U3*%
X156083000Y-102616000D03*
X158623000Y-102616000D03*
X161163000Y-102616000D03*
X163703000Y-102616000D03*
X153543000Y-102616000D03*
X151003000Y-102616000D03*
X148463000Y-102616000D03*
X166243000Y-102616000D03*
X168783000Y-102616000D03*
X171323000Y-102616000D03*
X173863000Y-102616000D03*
X161163000Y-100076000D03*
X161163000Y-97536000D03*
X161163000Y-94996000D03*
X161163000Y-92456000D03*
X161163000Y-89916000D03*
X173863000Y-87376000D03*
X171323000Y-87376000D03*
X168783000Y-87376000D03*
X166243000Y-87376000D03*
X163703000Y-87376000D03*
X161163000Y-87376000D03*
X158623000Y-87376000D03*
X156083000Y-87376000D03*
X145923000Y-102616000D03*
X143383000Y-102616000D03*
X140843000Y-102616000D03*
X138303000Y-102616000D03*
X135763000Y-102616000D03*
X133223000Y-102616000D03*
X130683000Y-102616000D03*
X128143000Y-102616000D03*
X125603000Y-102616000D03*
X123063000Y-102616000D03*
X120523000Y-102616000D03*
X117983000Y-102616000D03*
D13*
X115443000Y-102616000D03*
D11*
X153543000Y-87376000D03*
X151003000Y-87376000D03*
X148463000Y-87376000D03*
X145923000Y-87376000D03*
X143383000Y-87376000D03*
X140843000Y-87376000D03*
X138303000Y-87376000D03*
X135763000Y-87376000D03*
X133223000Y-87376000D03*
X130683000Y-87376000D03*
X128143000Y-87376000D03*
X125603000Y-87376000D03*
X123063000Y-87376000D03*
X120523000Y-87376000D03*
X117983000Y-87376000D03*
X115443000Y-87376000D03*
X117983000Y-89916000D03*
X123063000Y-89916000D03*
X125603000Y-89916000D03*
X128143000Y-89916000D03*
X121793000Y-99616000D03*
X124333000Y-99616000D03*
X126873000Y-99616000D03*
X129413000Y-99616000D03*
X131953000Y-99616000D03*
%TD*%
D14*
%TO.C,J2*%
X118491000Y-82042000D03*
X115951000Y-82042000D03*
X113411000Y-82042000D03*
X110871000Y-82042000D03*
D15*
X108331000Y-82042000D03*
D14*
X121031000Y-82042000D03*
X123571000Y-82042000D03*
X126111000Y-82042000D03*
X128651000Y-82042000D03*
D15*
X108331000Y-56642000D03*
D14*
X110871000Y-56642000D03*
X113411000Y-56642000D03*
X115951000Y-56642000D03*
X118491000Y-56642000D03*
%TD*%
%TO.C,J1*%
X152400000Y-82296000D03*
X154940000Y-82296000D03*
X157480000Y-82296000D03*
X160020000Y-82296000D03*
X162560000Y-82296000D03*
X165100000Y-82296000D03*
X167640000Y-82296000D03*
X170180000Y-82296000D03*
D15*
X172720000Y-82296000D03*
%TD*%
M02*
