M48
; DRILL file {KiCad (5.1.7)-1} date 04/25/21 20:47:51
; FORMAT={-:-/ absolute / inch / decimal}
; #@! TF.CreationDate,2021-04-25T20:47:51-04:00
; #@! TF.GenerationSoftware,Kicad,Pcbnew,(5.1.7)-1
FMAT,2
INCH
T1C0.0079
T2C0.0157
T3C0.0236
T4C0.0394
T5C0.0433
T6C0.0472
T7C0.0630
%
G90
G05
T1
X4.4794Y-4.2699
X4.4991Y-4.2453
X4.4991Y-4.2945
X4.5188Y-4.2699
T2
X4.61Y-3.32
X5.538Y-4.288
X5.596Y-4.288
X5.654Y-4.288
X5.8169Y-2.1752
X5.89Y-4.235
X5.89Y-4.324
X5.892Y-4.378
X6.094Y-4.158
X6.095Y-4.235
X6.266Y-4.158
T3
X4.2126Y-3.5039
X4.2126Y-3.622
X4.252Y-4.4882
X4.3701Y-3.7795
X4.3701Y-3.8976
X4.3701Y-4.4882
X4.3854Y-4.2398
X4.4094Y-4.0157
X4.4882Y-4.4882
X4.9606Y-4.1732
X5.0787Y-4.1732
X5.1969Y-2.2835
X5.1969Y-2.4016
X5.1969Y-2.5197
X5.1969Y-2.6378
X5.1969Y-2.7559
X5.1969Y-4.1732
X5.2756Y-2.2047
X5.2756Y-2.8346
X5.3543Y-4.1732
X5.3543Y-4.2913
X5.3543Y-4.4094
X5.3543Y-4.5276
X5.4724Y-4.1732
X5.4724Y-4.5276
X5.5906Y-4.1732
X5.5906Y-4.5276
X5.7087Y-4.5276
X5.8268Y-4.5276
X5.9055Y-2.2835
X5.9055Y-2.4016
X5.9055Y-2.5197
X5.9055Y-2.6378
X5.9055Y-2.7559
X5.93Y-4.284
X5.966Y-4.484
X6.272Y-4.328
X6.2736Y-4.3296
X6.5157Y-4.5472
X6.581Y-4.274
X6.6535Y-4.5472
X6.7717Y-4.5472
X6.8701Y-4.2126
X6.8701Y-4.3307
X6.8701Y-4.4488
X5.374Y-2.5098
X5.7677Y-2.5098
T4
X4.265Y-2.23
X4.265Y-3.23
X4.365Y-2.23
X4.365Y-3.23
X4.465Y-2.23
X4.465Y-3.23
X4.565Y-2.23
X4.565Y-3.23
X4.665Y-2.23
X4.665Y-3.23
X4.765Y-3.23
X4.865Y-3.23
X4.965Y-3.23
X5.065Y-3.23
X6.0Y-3.24
X6.1Y-3.24
X6.2Y-3.24
X6.3Y-3.24
X6.4Y-3.24
X6.5Y-3.24
X6.6Y-3.24
X6.7Y-3.24
X6.8Y-3.24
T5
X4.545Y-3.44
X4.545Y-4.04
X4.645Y-3.44
X4.645Y-3.54
X4.645Y-4.04
X4.745Y-3.44
X4.745Y-4.04
X4.795Y-3.9219
X4.845Y-3.44
X4.845Y-3.54
X4.845Y-4.04
X4.895Y-3.9219
X4.945Y-3.44
X4.945Y-3.54
X4.945Y-4.04
X4.995Y-3.9219
X5.045Y-3.44
X5.045Y-3.54
X5.045Y-4.04
X5.095Y-3.9219
X5.145Y-3.44
X5.145Y-4.04
X5.195Y-3.9219
X5.245Y-3.44
X5.245Y-4.04
X5.345Y-3.44
X5.345Y-4.04
X5.445Y-3.44
X5.445Y-4.04
X5.545Y-3.44
X5.545Y-4.04
X5.645Y-3.44
X5.645Y-4.04
X5.745Y-3.44
X5.745Y-4.04
X5.845Y-3.44
X5.845Y-4.04
X5.945Y-3.44
X5.945Y-4.04
X6.045Y-3.44
X6.045Y-4.04
X6.145Y-3.44
X6.145Y-4.04
X6.245Y-3.44
X6.245Y-4.04
X6.345Y-3.44
X6.345Y-3.54
X6.345Y-3.64
X6.345Y-3.74
X6.345Y-3.84
X6.345Y-3.94
X6.345Y-4.04
X6.445Y-3.44
X6.445Y-4.04
X6.545Y-3.44
X6.545Y-4.04
X6.645Y-3.44
X6.645Y-4.04
X6.745Y-3.44
X6.745Y-4.04
X6.845Y-3.44
X6.845Y-4.04
T6
X4.9469Y-4.3923
X4.9469Y-4.4907
X5.0453Y-4.3923
X5.0453Y-4.4907
X5.1437Y-4.3923
X5.1437Y-4.4907
T7
X4.8614Y-4.4793
X5.2291Y-4.4793
T0
M30
