M48
; DRILL file {KiCad (5.1.4)-1} date 1/28/2021 11:04:46 PM
; FORMAT={-:-/ absolute / inch / decimal}
; #@! TF.CreationDate,2021-01-28T23:04:46+05:30
; #@! TF.GenerationSoftware,Kicad,Pcbnew,(5.1.4)-1
; #@! TF.FileFunction,Plated,1,2,PTH
FMAT,2
INCH
T1C0.0157
T2C0.0236
T3C0.0394
T4C0.0433
T5C0.1098
%
G90
G05
T1
X4.61Y-3.33
X4.655Y-4.505
X4.675Y-4.18
X4.71Y-4.435
X4.75Y-4.18
X4.795Y-4.38
X4.955Y-4.235
X5.025Y-4.3
X5.31Y-4.3
X5.5775Y-4.9225
X5.85Y-4.255
X5.86Y-4.415
X5.945Y-4.425
X6.0025Y-4.6475
X6.005Y-4.425
X6.015Y-4.255
X6.08Y-4.33
X6.1125Y-4.6975
X6.1125Y-5.1025
X6.115Y-4.435
X6.1495Y-4.7205
X6.155Y-4.33
X6.22Y-4.47
X6.27Y-4.435
X6.695Y-4.355
X6.775Y-4.325
X6.925Y-4.17
X6.96Y-4.2
X7.11Y-4.475
T2
X4.145Y-4.305
X4.27Y-4.305
X4.27Y-4.445
X4.505Y-4.23
X4.505Y-4.995
X4.625Y-5.12
X4.8325Y-4.8125
X4.8775Y-5.1075
X4.92Y-5.065
X4.9225Y-5.1525
X4.9425Y-4.7325
X4.965Y-5.11
X4.9975Y-4.8925
X5.005Y-4.98
X5.01Y-5.155
X5.0375Y-4.7525
X5.05Y-5.025
X5.1Y-5.075
X5.67Y-4.615
X5.7651Y-4.4401
X5.8375Y-4.6575
X5.8725Y-5.0125
X5.905Y-4.52
X6.005Y-4.325
X6.0495Y-4.6155
X6.1475Y-5.0425
X6.165Y-4.5
X6.1675Y-4.6625
X6.2025Y-4.8225
X6.91Y-4.42
X6.915Y-4.61
X7.015Y-4.245
X7.075Y-4.16
T3
X4.66Y-5.42
X4.76Y-5.42
X4.86Y-5.42
X4.96Y-5.42
X4.66Y-5.27
X4.76Y-5.27
X4.86Y-5.27
X4.96Y-5.27
X4.265Y-2.23
X4.265Y-3.23
X4.365Y-2.23
X4.365Y-3.23
X4.465Y-2.23
X4.465Y-3.23
X4.565Y-2.23
X4.565Y-3.23
X4.665Y-2.23
X4.665Y-3.23
X4.765Y-3.23
X4.865Y-3.23
X4.965Y-3.23
X5.065Y-3.23
X6.37Y-4.26
X6.47Y-4.26
X6.57Y-4.26
X6.27Y-3.23
X6.37Y-3.23
X6.47Y-3.23
X6.57Y-3.23
X6.67Y-3.23
X6.77Y-3.23
X6.87Y-3.23
X6.97Y-3.23
X7.07Y-3.23
T4
X4.0964Y-5.442
X4.1964Y-5.442
X4.2964Y-5.442
X4.545Y-3.44
X4.545Y-4.04
X4.645Y-3.44
X4.645Y-3.54
X4.645Y-4.04
X4.745Y-3.44
X4.745Y-4.04
X4.795Y-3.9219
X4.845Y-3.44
X4.845Y-3.54
X4.845Y-4.04
X4.895Y-3.9219
X4.945Y-3.44
X4.945Y-3.54
X4.945Y-4.04
X4.995Y-3.9219
X5.045Y-3.44
X5.045Y-3.54
X5.045Y-4.04
X5.095Y-3.9219
X5.145Y-3.44
X5.145Y-4.04
X5.195Y-3.9219
X5.245Y-3.44
X5.245Y-4.04
X5.345Y-3.44
X5.345Y-4.04
X5.445Y-3.44
X5.445Y-4.04
X5.545Y-3.44
X5.545Y-4.04
X5.645Y-3.44
X5.645Y-4.04
X5.745Y-3.44
X5.745Y-4.04
X5.845Y-3.44
X5.845Y-4.04
X5.945Y-3.44
X5.945Y-4.04
X6.045Y-3.44
X6.045Y-4.04
X6.145Y-3.44
X6.145Y-4.04
X6.245Y-3.44
X6.245Y-4.04
X6.345Y-3.44
X6.345Y-3.54
X6.345Y-3.64
X6.345Y-3.74
X6.345Y-3.84
X6.345Y-3.94
X6.345Y-4.04
X6.445Y-3.44
X6.445Y-4.04
X6.545Y-3.44
X6.545Y-4.04
X6.645Y-3.44
X6.645Y-4.04
X6.745Y-3.44
X6.745Y-4.04
X6.845Y-3.44
X6.845Y-4.04
T5
X6.4375Y-5.2575
X6.7275Y-4.5975
X6.0125Y-5.2525
X5.235Y-4.51
X5.235Y-4.8425
X5.235Y-5.1625
X6.4275Y-4.9375
X5.505Y-4.51
X5.505Y-5.1625
X6.4275Y-4.6025
T0
M30
