%TF.GenerationSoftware,KiCad,Pcbnew,(5.1.4)-1*%
%TF.CreationDate,2021-01-28T23:04:49+05:30*%
%TF.ProjectId,rev1,72657631-2e6b-4696-9361-645f70636258,rev?*%
%TF.SameCoordinates,Original*%
%TF.FileFunction,Soldermask,Top*%
%TF.FilePolarity,Negative*%
%FSLAX46Y46*%
G04 Gerber Fmt 4.6, Leading zero omitted, Abs format (unit mm)*
G04 Created by KiCad (PCBNEW (5.1.4)-1) date 2021-01-28 23:04:49*
%MOMM*%
%LPD*%
G04 APERTURE LIST*
%ADD10R,1.000000X1.250000*%
%ADD11R,1.250000X1.000000*%
%ADD12R,0.700000X1.300000*%
%ADD13R,0.550000X0.950000*%
%ADD14C,1.600000*%
%ADD15R,1.600000X1.600000*%
%ADD16R,1.800000X1.000000*%
%ADD17R,0.250000X0.375000*%
%ADD18R,0.475000X0.250000*%
%ADD19C,3.790000*%
%ADD20R,0.250000X0.700000*%
%ADD21R,0.700000X0.250000*%
%ADD22R,0.920000X0.610000*%
%ADD23R,0.610000X0.920000*%
%ADD24O,1.700000X1.700000*%
%ADD25R,1.700000X1.700000*%
%ADD26R,0.900000X0.800000*%
%ADD27R,0.800000X0.900000*%
%ADD28O,3.500000X3.500000*%
%ADD29R,1.905000X2.000000*%
%ADD30O,1.905000X2.000000*%
G04 APERTURE END LIST*
D10*
%TO.C,C1*%
X144859500Y-133413500D03*
X146859500Y-133413500D03*
%TD*%
%TO.C,C2*%
X146859500Y-126682500D03*
X144859500Y-126682500D03*
%TD*%
%TO.C,C3*%
X144859500Y-129984500D03*
X146859500Y-129984500D03*
%TD*%
D11*
%TO.C,C4*%
X157797500Y-124158500D03*
X157797500Y-126158500D03*
%TD*%
D10*
%TO.C,C5*%
X141398500Y-122745500D03*
X139398500Y-122745500D03*
%TD*%
%TO.C,C6*%
X139398500Y-118935500D03*
X141398500Y-118935500D03*
%TD*%
D11*
%TO.C,C7*%
X120713500Y-124253500D03*
X120713500Y-122253500D03*
%TD*%
%TO.C,C8*%
X116776500Y-122253500D03*
X116776500Y-124253500D03*
%TD*%
%TO.C,C9*%
X124650500Y-122253500D03*
X124650500Y-124253500D03*
%TD*%
D12*
%TO.C,R1*%
X159382500Y-120713500D03*
X157482500Y-120713500D03*
%TD*%
%TO.C,R2*%
X153540500Y-127571500D03*
X151640500Y-127571500D03*
%TD*%
%TO.C,R3*%
X146433500Y-115252500D03*
X148333500Y-115252500D03*
%TD*%
%TO.C,R4*%
X151767500Y-115252500D03*
X153667500Y-115252500D03*
%TD*%
D13*
%TO.C,U2*%
X123054900Y-118561900D03*
X124304900Y-118561900D03*
X125554900Y-118561900D03*
X126804900Y-118561900D03*
X126804900Y-116311900D03*
X125554900Y-116311900D03*
X124304900Y-116311900D03*
X123054900Y-116311900D03*
%TD*%
D14*
%TO.C,U3*%
X156083000Y-102616000D03*
X158623000Y-102616000D03*
X161163000Y-102616000D03*
X163703000Y-102616000D03*
X153543000Y-102616000D03*
X151003000Y-102616000D03*
X148463000Y-102616000D03*
X166243000Y-102616000D03*
X168783000Y-102616000D03*
X171323000Y-102616000D03*
X173863000Y-102616000D03*
X161163000Y-100076000D03*
X161163000Y-97536000D03*
X161163000Y-94996000D03*
X161163000Y-92456000D03*
X161163000Y-89916000D03*
X173863000Y-87376000D03*
X171323000Y-87376000D03*
X168783000Y-87376000D03*
X166243000Y-87376000D03*
X163703000Y-87376000D03*
X161163000Y-87376000D03*
X158623000Y-87376000D03*
X156083000Y-87376000D03*
X145923000Y-102616000D03*
X143383000Y-102616000D03*
X140843000Y-102616000D03*
X138303000Y-102616000D03*
X135763000Y-102616000D03*
X133223000Y-102616000D03*
X130683000Y-102616000D03*
X128143000Y-102616000D03*
X125603000Y-102616000D03*
X123063000Y-102616000D03*
X120523000Y-102616000D03*
X117983000Y-102616000D03*
D15*
X115443000Y-102616000D03*
D14*
X153543000Y-87376000D03*
X151003000Y-87376000D03*
X148463000Y-87376000D03*
X145923000Y-87376000D03*
X143383000Y-87376000D03*
X140843000Y-87376000D03*
X138303000Y-87376000D03*
X135763000Y-87376000D03*
X133223000Y-87376000D03*
X130683000Y-87376000D03*
X128143000Y-87376000D03*
X125603000Y-87376000D03*
X123063000Y-87376000D03*
X120523000Y-87376000D03*
X117983000Y-87376000D03*
X115443000Y-87376000D03*
X117983000Y-89916000D03*
X123063000Y-89916000D03*
X125603000Y-89916000D03*
X128143000Y-89916000D03*
X121793000Y-99616000D03*
X124333000Y-99616000D03*
X126873000Y-99616000D03*
X129413000Y-99616000D03*
X131953000Y-99616000D03*
%TD*%
D16*
%TO.C,Y1*%
X146113500Y-122745500D03*
X146113500Y-120245500D03*
%TD*%
D17*
%TO.C,U1*%
X151479900Y-119248400D03*
D18*
X150667400Y-119310900D03*
X150667400Y-119810900D03*
X150667400Y-120310900D03*
X150667400Y-120810900D03*
X150667400Y-121310900D03*
X150667400Y-121810900D03*
X150667400Y-122310900D03*
X150667400Y-122810900D03*
X150667400Y-123310900D03*
X150667400Y-123810900D03*
D17*
X151979900Y-119248400D03*
X152479900Y-119248400D03*
X152979900Y-119248400D03*
X151479900Y-123873400D03*
X151979900Y-123873400D03*
X152479900Y-123873400D03*
D18*
X153792400Y-119310900D03*
X153792400Y-119810900D03*
X153792400Y-120310900D03*
X153792400Y-120810900D03*
X153792400Y-121310900D03*
X153792400Y-121810900D03*
X153792400Y-122310900D03*
X153792400Y-122810900D03*
X153792400Y-123310900D03*
X153792400Y-123810900D03*
D17*
X152979900Y-123873400D03*
%TD*%
D19*
%TO.C,BOOT1*%
X152717500Y-133413500D03*
%TD*%
%TO.C,CAP1*%
X163512500Y-133540500D03*
%TD*%
%TO.C,CAP2*%
X132969000Y-122999500D03*
%TD*%
%TO.C,GND1*%
X170878500Y-116776500D03*
%TD*%
%TO.C,GND2*%
X132969000Y-131127500D03*
%TD*%
%TO.C,nReset1*%
X163258500Y-125412500D03*
%TD*%
%TO.C,OSCin1*%
X139827000Y-131127500D03*
%TD*%
%TO.C,OSCout1*%
X139827000Y-114554000D03*
%TD*%
%TO.C,VDD1*%
X163258500Y-116903500D03*
%TD*%
%TO.C,VDD2*%
X132969000Y-114554000D03*
%TD*%
D11*
%TO.C,C10*%
X106299000Y-116316000D03*
X106299000Y-114316000D03*
%TD*%
%TO.C,C11*%
X110617000Y-114316000D03*
X110617000Y-116316000D03*
%TD*%
D20*
%TO.C,U4*%
X180633500Y-112321500D03*
X180133500Y-112321500D03*
X179633500Y-112321500D03*
X179133500Y-112321500D03*
X178633500Y-112321500D03*
X178133500Y-112321500D03*
X177633500Y-112321500D03*
X180633500Y-109801500D03*
X180133500Y-109801500D03*
X179633500Y-109801500D03*
X179133500Y-109801500D03*
X178633500Y-109801500D03*
X178133500Y-109801500D03*
X177633500Y-109801500D03*
D21*
X177118500Y-111061500D03*
X181148500Y-111061500D03*
%TD*%
D22*
%TO.C,U5*%
X114814000Y-111284000D03*
X114814000Y-112084000D03*
X114814000Y-112884000D03*
X114814000Y-113684000D03*
X114814000Y-114484000D03*
X114814000Y-115284000D03*
D23*
X115824000Y-115294000D03*
D22*
X116834000Y-115284000D03*
X116834000Y-114484000D03*
X116834000Y-113684000D03*
X116834000Y-112884000D03*
X116834000Y-112084000D03*
X116834000Y-111284000D03*
D23*
X115824000Y-111274000D03*
%TD*%
D24*
%TO.C,J2*%
X118491000Y-82042000D03*
X115951000Y-82042000D03*
X113411000Y-82042000D03*
X110871000Y-82042000D03*
D25*
X108331000Y-82042000D03*
D24*
X121031000Y-82042000D03*
X123571000Y-82042000D03*
X126111000Y-82042000D03*
X128651000Y-82042000D03*
D25*
X108331000Y-56642000D03*
D24*
X110871000Y-56642000D03*
X113411000Y-56642000D03*
X115951000Y-56642000D03*
X118491000Y-56642000D03*
%TD*%
%TO.C,J1*%
X159258000Y-82042000D03*
X161798000Y-82042000D03*
X164338000Y-82042000D03*
X166878000Y-82042000D03*
X169418000Y-82042000D03*
X171958000Y-82042000D03*
X174498000Y-82042000D03*
X177038000Y-82042000D03*
D25*
X179578000Y-82042000D03*
%TD*%
D26*
%TO.C,D1*%
X114427000Y-128617000D03*
X114427000Y-130717000D03*
%TD*%
D25*
%TO.C,J3*%
X166878000Y-108204000D03*
D24*
X164338000Y-108204000D03*
X161798000Y-108204000D03*
%TD*%
D25*
%TO.C,BMS_CONN1*%
X125984000Y-137668000D03*
D24*
X123444000Y-137668000D03*
X120904000Y-137668000D03*
X118364000Y-137668000D03*
%TD*%
D27*
%TO.C,D2*%
X128304000Y-142621000D03*
X126204000Y-142621000D03*
%TD*%
%TO.C,D3*%
X112615000Y-142621000D03*
X114715000Y-142621000D03*
%TD*%
D28*
%TO.C,Q1*%
X106588002Y-121566001D03*
D29*
X104048002Y-138226001D03*
D30*
X106588002Y-138226001D03*
X109128002Y-138226001D03*
%TD*%
D12*
%TO.C,R5*%
X119954000Y-130048000D03*
X121854000Y-130048000D03*
%TD*%
D25*
%TO.C,BMS_CONN2*%
X125984000Y-133858000D03*
D24*
X123444000Y-133858000D03*
X120904000Y-133858000D03*
X118364000Y-133858000D03*
%TD*%
D10*
%TO.C,C12*%
X179816000Y-115443000D03*
X177816000Y-115443000D03*
%TD*%
%TO.C,C13*%
X177816000Y-118745000D03*
X179816000Y-118745000D03*
%TD*%
M02*
