%TF.GenerationSoftware,KiCad,Pcbnew,(5.1.4)-1*%
%TF.CreationDate,2021-01-28T23:04:49+05:30*%
%TF.ProjectId,rev1,72657631-2e6b-4696-9361-645f70636258,rev?*%
%TF.SameCoordinates,Original*%
%TF.FileFunction,Paste,Top*%
%TF.FilePolarity,Positive*%
%FSLAX46Y46*%
G04 Gerber Fmt 4.6, Leading zero omitted, Abs format (unit mm)*
G04 Created by KiCad (PCBNEW (5.1.4)-1) date 2021-01-28 23:04:49*
%MOMM*%
%LPD*%
G04 APERTURE LIST*
%ADD10R,1.000000X1.250000*%
%ADD11R,1.250000X1.000000*%
%ADD12R,0.700000X1.300000*%
%ADD13R,0.550000X0.950000*%
%ADD14R,1.800000X1.000000*%
%ADD15R,0.250000X0.375000*%
%ADD16R,0.475000X0.250000*%
%ADD17R,0.250000X0.700000*%
%ADD18R,0.700000X0.250000*%
%ADD19R,0.920000X0.610000*%
%ADD20R,0.610000X0.920000*%
%ADD21R,0.900000X0.800000*%
%ADD22R,0.800000X0.900000*%
G04 APERTURE END LIST*
D10*
%TO.C,C1*%
X144859500Y-133413500D03*
X146859500Y-133413500D03*
%TD*%
%TO.C,C2*%
X146859500Y-126682500D03*
X144859500Y-126682500D03*
%TD*%
%TO.C,C3*%
X144859500Y-129984500D03*
X146859500Y-129984500D03*
%TD*%
D11*
%TO.C,C4*%
X157797500Y-124158500D03*
X157797500Y-126158500D03*
%TD*%
D10*
%TO.C,C5*%
X141398500Y-122745500D03*
X139398500Y-122745500D03*
%TD*%
%TO.C,C6*%
X139398500Y-118935500D03*
X141398500Y-118935500D03*
%TD*%
D11*
%TO.C,C7*%
X120713500Y-124253500D03*
X120713500Y-122253500D03*
%TD*%
%TO.C,C8*%
X116776500Y-122253500D03*
X116776500Y-124253500D03*
%TD*%
%TO.C,C9*%
X124650500Y-122253500D03*
X124650500Y-124253500D03*
%TD*%
D12*
%TO.C,R1*%
X159382500Y-120713500D03*
X157482500Y-120713500D03*
%TD*%
%TO.C,R2*%
X153540500Y-127571500D03*
X151640500Y-127571500D03*
%TD*%
%TO.C,R3*%
X146433500Y-115252500D03*
X148333500Y-115252500D03*
%TD*%
%TO.C,R4*%
X151767500Y-115252500D03*
X153667500Y-115252500D03*
%TD*%
D13*
%TO.C,U2*%
X123054900Y-118561900D03*
X124304900Y-118561900D03*
X125554900Y-118561900D03*
X126804900Y-118561900D03*
X126804900Y-116311900D03*
X125554900Y-116311900D03*
X124304900Y-116311900D03*
X123054900Y-116311900D03*
%TD*%
D14*
%TO.C,Y1*%
X146113500Y-122745500D03*
X146113500Y-120245500D03*
%TD*%
D15*
%TO.C,U1*%
X151479900Y-119248400D03*
D16*
X150667400Y-119310900D03*
X150667400Y-119810900D03*
X150667400Y-120310900D03*
X150667400Y-120810900D03*
X150667400Y-121310900D03*
X150667400Y-121810900D03*
X150667400Y-122310900D03*
X150667400Y-122810900D03*
X150667400Y-123310900D03*
X150667400Y-123810900D03*
D15*
X151979900Y-119248400D03*
X152479900Y-119248400D03*
X152979900Y-119248400D03*
X151479900Y-123873400D03*
X151979900Y-123873400D03*
X152479900Y-123873400D03*
D16*
X153792400Y-119310900D03*
X153792400Y-119810900D03*
X153792400Y-120310900D03*
X153792400Y-120810900D03*
X153792400Y-121310900D03*
X153792400Y-121810900D03*
X153792400Y-122310900D03*
X153792400Y-122810900D03*
X153792400Y-123310900D03*
X153792400Y-123810900D03*
D15*
X152979900Y-123873400D03*
%TD*%
D11*
%TO.C,C10*%
X106299000Y-116316000D03*
X106299000Y-114316000D03*
%TD*%
%TO.C,C11*%
X110617000Y-114316000D03*
X110617000Y-116316000D03*
%TD*%
D17*
%TO.C,U4*%
X180633500Y-112321500D03*
X180133500Y-112321500D03*
X179633500Y-112321500D03*
X179133500Y-112321500D03*
X178633500Y-112321500D03*
X178133500Y-112321500D03*
X177633500Y-112321500D03*
X180633500Y-109801500D03*
X180133500Y-109801500D03*
X179633500Y-109801500D03*
X179133500Y-109801500D03*
X178633500Y-109801500D03*
X178133500Y-109801500D03*
X177633500Y-109801500D03*
D18*
X177118500Y-111061500D03*
X181148500Y-111061500D03*
%TD*%
D19*
%TO.C,U5*%
X114814000Y-111284000D03*
X114814000Y-112084000D03*
X114814000Y-112884000D03*
X114814000Y-113684000D03*
X114814000Y-114484000D03*
X114814000Y-115284000D03*
D20*
X115824000Y-115294000D03*
D19*
X116834000Y-115284000D03*
X116834000Y-114484000D03*
X116834000Y-113684000D03*
X116834000Y-112884000D03*
X116834000Y-112084000D03*
X116834000Y-111284000D03*
D20*
X115824000Y-111274000D03*
%TD*%
D21*
%TO.C,D1*%
X114427000Y-128617000D03*
X114427000Y-130717000D03*
%TD*%
D22*
%TO.C,D2*%
X128304000Y-142621000D03*
X126204000Y-142621000D03*
%TD*%
%TO.C,D3*%
X112615000Y-142621000D03*
X114715000Y-142621000D03*
%TD*%
D12*
%TO.C,R5*%
X119954000Y-130048000D03*
X121854000Y-130048000D03*
%TD*%
D10*
%TO.C,C12*%
X179816000Y-115443000D03*
X177816000Y-115443000D03*
%TD*%
%TO.C,C13*%
X177816000Y-118745000D03*
X179816000Y-118745000D03*
%TD*%
M02*
