%TF.GenerationSoftware,KiCad,Pcbnew,(5.1.4)-1*%
%TF.CreationDate,2021-01-28T23:04:49+05:30*%
%TF.ProjectId,rev1,72657631-2e6b-4696-9361-645f70636258,rev?*%
%TF.SameCoordinates,Original*%
%TF.FileFunction,Soldermask,Bot*%
%TF.FilePolarity,Negative*%
%FSLAX46Y46*%
G04 Gerber Fmt 4.6, Leading zero omitted, Abs format (unit mm)*
G04 Created by KiCad (PCBNEW (5.1.4)-1) date 2021-01-28 23:04:49*
%MOMM*%
%LPD*%
G04 APERTURE LIST*
%ADD10C,1.600000*%
%ADD11R,1.600000X1.600000*%
%ADD12C,3.790000*%
%ADD13O,1.700000X1.700000*%
%ADD14R,1.700000X1.700000*%
%ADD15O,3.500000X3.500000*%
%ADD16R,1.905000X2.000000*%
%ADD17O,1.905000X2.000000*%
G04 APERTURE END LIST*
D10*
%TO.C,U3*%
X156083000Y-102616000D03*
X158623000Y-102616000D03*
X161163000Y-102616000D03*
X163703000Y-102616000D03*
X153543000Y-102616000D03*
X151003000Y-102616000D03*
X148463000Y-102616000D03*
X166243000Y-102616000D03*
X168783000Y-102616000D03*
X171323000Y-102616000D03*
X173863000Y-102616000D03*
X161163000Y-100076000D03*
X161163000Y-97536000D03*
X161163000Y-94996000D03*
X161163000Y-92456000D03*
X161163000Y-89916000D03*
X173863000Y-87376000D03*
X171323000Y-87376000D03*
X168783000Y-87376000D03*
X166243000Y-87376000D03*
X163703000Y-87376000D03*
X161163000Y-87376000D03*
X158623000Y-87376000D03*
X156083000Y-87376000D03*
X145923000Y-102616000D03*
X143383000Y-102616000D03*
X140843000Y-102616000D03*
X138303000Y-102616000D03*
X135763000Y-102616000D03*
X133223000Y-102616000D03*
X130683000Y-102616000D03*
X128143000Y-102616000D03*
X125603000Y-102616000D03*
X123063000Y-102616000D03*
X120523000Y-102616000D03*
X117983000Y-102616000D03*
D11*
X115443000Y-102616000D03*
D10*
X153543000Y-87376000D03*
X151003000Y-87376000D03*
X148463000Y-87376000D03*
X145923000Y-87376000D03*
X143383000Y-87376000D03*
X140843000Y-87376000D03*
X138303000Y-87376000D03*
X135763000Y-87376000D03*
X133223000Y-87376000D03*
X130683000Y-87376000D03*
X128143000Y-87376000D03*
X125603000Y-87376000D03*
X123063000Y-87376000D03*
X120523000Y-87376000D03*
X117983000Y-87376000D03*
X115443000Y-87376000D03*
X117983000Y-89916000D03*
X123063000Y-89916000D03*
X125603000Y-89916000D03*
X128143000Y-89916000D03*
X121793000Y-99616000D03*
X124333000Y-99616000D03*
X126873000Y-99616000D03*
X129413000Y-99616000D03*
X131953000Y-99616000D03*
%TD*%
D12*
%TO.C,BOOT1*%
X152717500Y-133413500D03*
%TD*%
%TO.C,CAP1*%
X163512500Y-133540500D03*
%TD*%
%TO.C,CAP2*%
X132969000Y-122999500D03*
%TD*%
%TO.C,GND1*%
X170878500Y-116776500D03*
%TD*%
%TO.C,GND2*%
X132969000Y-131127500D03*
%TD*%
%TO.C,nReset1*%
X163258500Y-125412500D03*
%TD*%
%TO.C,OSCin1*%
X139827000Y-131127500D03*
%TD*%
%TO.C,OSCout1*%
X139827000Y-114554000D03*
%TD*%
%TO.C,VDD1*%
X163258500Y-116903500D03*
%TD*%
%TO.C,VDD2*%
X132969000Y-114554000D03*
%TD*%
D13*
%TO.C,J2*%
X118491000Y-82042000D03*
X115951000Y-82042000D03*
X113411000Y-82042000D03*
X110871000Y-82042000D03*
D14*
X108331000Y-82042000D03*
D13*
X121031000Y-82042000D03*
X123571000Y-82042000D03*
X126111000Y-82042000D03*
X128651000Y-82042000D03*
D14*
X108331000Y-56642000D03*
D13*
X110871000Y-56642000D03*
X113411000Y-56642000D03*
X115951000Y-56642000D03*
X118491000Y-56642000D03*
%TD*%
%TO.C,J1*%
X159258000Y-82042000D03*
X161798000Y-82042000D03*
X164338000Y-82042000D03*
X166878000Y-82042000D03*
X169418000Y-82042000D03*
X171958000Y-82042000D03*
X174498000Y-82042000D03*
X177038000Y-82042000D03*
D14*
X179578000Y-82042000D03*
%TD*%
%TO.C,J3*%
X166878000Y-108204000D03*
D13*
X164338000Y-108204000D03*
X161798000Y-108204000D03*
%TD*%
D14*
%TO.C,BMS_CONN1*%
X125984000Y-137668000D03*
D13*
X123444000Y-137668000D03*
X120904000Y-137668000D03*
X118364000Y-137668000D03*
%TD*%
D15*
%TO.C,Q1*%
X106588002Y-121566001D03*
D16*
X104048002Y-138226001D03*
D17*
X106588002Y-138226001D03*
X109128002Y-138226001D03*
%TD*%
D14*
%TO.C,BMS_CONN2*%
X125984000Y-133858000D03*
D13*
X123444000Y-133858000D03*
X120904000Y-133858000D03*
X118364000Y-133858000D03*
%TD*%
M02*
